M48
; DRILL file {KiCad (5.1.10)-1} date 01/29/22 09:48:58
; FORMAT={-:-/ absolute / inch / decimal}
; #@! TF.CreationDate,2022-01-29T09:48:58+01:00
; #@! TF.GenerationSoftware,Kicad,Pcbnew,(5.1.10)-1
; #@! TF.FileFunction,Plated,1,2,PTH
FMAT,2
INCH
T1C0.0157
T2C0.0236
T3C0.0299
T4C0.0315
T5C0.0394
T6C0.0472
T7C0.0512
T8C0.0630
%
G90
G05
T1
X2.25Y-2.3
X2.25Y-3.7
X2.2677Y-3.2
X2.2875Y-4.2625
X2.3Y-2.4
X2.3Y-3.05
X2.3Y-3.1
X2.3Y-3.15
X2.3Y-3.3
X2.35Y-2.15
X2.35Y-2.75
X2.35Y-3.9
X2.35Y-4.25
X2.35Y-4.4
X2.4Y-2.65
X2.4Y-3.4
X2.4Y-3.8
X2.4Y-5.25
X2.45Y-2.95
X2.45Y-3.15
X2.45Y-3.4
X2.45Y-4.0
X2.5Y-2.6884
X2.5Y-2.8
X2.5Y-2.9
X2.5Y-3.1
X2.5Y-3.3
X2.5031Y-3.8469
X2.55Y-2.8
X2.55Y-4.0
X2.55Y-4.4
X2.6Y-2.6
X2.6Y-2.9
X2.6Y-3.35
X2.6Y-3.85
X2.65Y-2.7
X2.65Y-2.8
X2.65Y-3.35
X2.65Y-4.3
X2.7Y-3.2
X2.7Y-3.7
X2.7Y-3.9
X2.7Y-4.0
X2.7443Y-2.5557
X2.75Y-2.45
X2.75Y-3.85
X2.8Y-3.0
X2.8Y-3.05
X2.8Y-3.45
X2.8Y-4.2
X2.8Y-4.35
X2.85Y-2.2
X2.85Y-3.15
X2.85Y-3.25
X2.9Y-2.4
X2.9Y-3.45
X2.9Y-4.2
X2.9Y-4.9
X2.95Y-3.6
X2.95Y-3.95
X2.95Y-4.2
X2.95Y-4.35
X3.0Y-1.9
X3.0Y-2.05
X3.0Y-3.0
X3.0Y-3.95
X3.0Y-4.0
X3.0Y-4.7
X3.1Y-4.3
X3.15Y-4.2
X3.2Y-1.95
X3.2Y-2.3
X3.2Y-4.2
X3.2Y-4.3
X3.2Y-5.25
X3.25Y-1.95
X3.25Y-2.1
X3.25Y-2.5
X3.25Y-3.35
X3.25Y-3.75
X3.25Y-4.0
X3.2937Y-4.0437
X3.3Y-2.35
X3.3Y-2.55
X3.3Y-2.95
X3.3Y-3.85
X3.3Y-4.3
X3.3Y-5.35
X3.35Y-2.3
X3.35Y-2.6
X3.35Y-3.15
X3.35Y-3.5
X3.35Y-3.7
X3.35Y-4.15
X3.4Y-2.25
X3.4Y-3.05
X3.4Y-3.65
X3.4Y-3.8
X3.4Y-4.25
X3.4Y-5.25
X3.45Y-1.85
X3.45Y-2.4
X3.45Y-2.45
X3.45Y-3.95
X3.5Y-2.1
X3.5Y-3.0
X3.5Y-3.55
X3.5Y-3.85
X3.5Y-4.25
X3.5Y-5.2
X3.5057Y-2.4557
X3.55Y-2.05
X3.55Y-2.7
X3.55Y-2.85
X3.5677Y-4.0
X3.6Y-2.0
X3.6Y-2.55
X3.6Y-3.05
X3.6Y-3.45
X3.6Y-4.1
X3.6Y-4.15
X3.6Y-5.35
X3.65Y-4.6
X3.65Y-5.1
X3.7Y-4.0
X3.7Y-5.0
X3.75Y-4.6
X3.8Y-1.95
X3.8Y-2.1
X3.8Y-2.2
X3.8Y-3.2
X3.8Y-4.8
X3.8057Y-2.3443
X3.85Y-3.6
X3.85Y-4.2
X3.9Y-3.45
X3.9Y-4.6
X3.9Y-4.85
X3.95Y-3.6
X3.95Y-3.7
X3.95Y-4.3
X4.0Y-3.8
X4.0Y-3.9
X4.05Y-4.3
X4.2Y-3.65
X4.2Y-5.0
X4.25Y-1.9
X4.25Y-2.6
X4.3Y-2.1
X4.5Y-3.35
X4.5Y-4.2
X4.6Y-3.9
X4.6Y-5.25
X4.7Y-5.0
X4.7555Y-4.5945
X4.8Y-5.15
X4.95Y-2.8
X5.0Y-5.1
X5.0Y-5.2
X5.1Y-2.8
X5.1Y-3.5
X5.15Y-2.8
X5.15Y-3.6
X5.15Y-5.3
X5.2Y-3.4
X5.2Y-4.0
X5.2Y-4.05
X5.2Y-4.4
X5.35Y-3.5
X5.35Y-3.7
X5.55Y-1.9
X5.55Y-2.0
X5.55Y-4.6
X5.65Y-4.35
X5.65Y-4.4
X5.8Y-4.2
X5.8Y-4.35
X5.8Y-4.85
X5.8Y-5.1
X5.8Y-5.25
X5.85Y-4.1
X5.85Y-4.95
X5.95Y-3.9
X6.0Y-2.8
X6.0Y-3.6
X6.05Y-3.65
X6.05Y-3.8
X6.05Y-4.6
X6.05Y-4.9
X6.05Y-5.05
X6.05Y-5.3
X6.1Y-5.35
X6.15Y-2.6
X6.2Y-4.0
X6.2Y-5.2
X6.3Y-2.6
X6.3Y-2.8
X6.3Y-3.85
X6.3Y-4.1
X6.3Y-4.15
X6.3Y-4.65
X6.35Y-3.85
X6.35Y-4.55
X6.35Y-4.8
X6.36Y-4.44
X6.4Y-5.0
X6.45Y-2.55
X6.45Y-3.9
X6.45Y-4.15
X6.5Y-3.1
X6.5Y-3.95
X6.5Y-4.05
X6.55Y-1.85
X6.55Y-2.3
X6.55Y-4.35
X6.6Y-3.0
X6.6Y-3.55
X6.6Y-3.65
X6.6Y-4.45
X6.6Y-4.7
X6.6Y-5.0
X6.65Y-1.85
X6.65Y-3.2
X6.65Y-4.5
X6.65Y-4.75
X6.7Y-2.05
X6.7Y-2.4
X6.7Y-2.8
X6.75Y-2.55
X6.75Y-2.9
X6.75Y-3.1
X6.75Y-4.05
X6.8Y-2.8
X6.8Y-3.55
X6.8Y-4.4
X6.85Y-2.2
X6.85Y-2.95
X6.85Y-3.1
X6.85Y-4.7
X6.85Y-5.1
X6.9Y-2.1
X6.9Y-2.5
X6.9Y-2.85
X6.9Y-4.9
X6.9Y-5.0
X6.9Y-5.35
X6.95Y-5.25
X7.1Y-2.5
X7.1Y-3.1
X7.1Y-3.2
X7.15Y-2.0
X7.15Y-3.25
X7.2Y-2.15
X7.2Y-2.65
X7.2Y-4.85
X7.25Y-2.25
X7.25Y-2.75
X7.25Y-3.0
X7.25Y-3.35
X7.25Y-4.15
X7.3Y-4.75
X7.3Y-4.85
X7.35Y-4.35
X7.35Y-5.25
X7.4Y-4.1
X7.4Y-4.5
X7.4Y-4.6
X7.4Y-5.3
X7.45Y-3.15
X7.5Y-2.85
X7.5Y-3.25
X7.5Y-3.55
X7.5Y-3.65
X7.5Y-4.35
X7.5Y-4.55
X7.5Y-4.65
X7.55Y-3.35
X7.55Y-4.3
X7.55Y-4.45
X7.55Y-5.15
X7.6Y-2.55
X7.6Y-4.85
X7.75Y-1.85
X7.75Y-2.35
X7.75Y-2.95
X7.75Y-3.35
X7.75Y-3.55
X7.75Y-4.1
X7.8Y-1.8
X7.8Y-2.25
X7.8Y-2.85
X7.85Y-3.05
X7.9Y-4.65
X7.95Y-4.2
X7.95Y-5.05
X8.0Y-4.65
X8.0Y-4.95
X8.0461Y-4.5461
X8.05Y-3.5
X8.05Y-4.35
X8.1Y-2.55
X8.1Y-2.65
X8.1Y-2.75
X8.1Y-3.15
X8.1Y-3.25
X8.1Y-4.45
X8.1Y-5.15
T2
X5.3Y-4.9213
X5.3Y-5.0
T3
X2.8Y-4.45
X2.8Y-4.75
X2.9Y-4.45
X2.9Y-4.75
X3.0Y-4.45
X3.0Y-4.75
X3.1Y-4.45
X3.1Y-4.75
X3.2Y-4.45
X3.2Y-4.75
X3.3Y-4.45
X3.3Y-4.75
X3.4Y-4.45
X3.4Y-4.75
X3.5Y-4.45
X3.5Y-4.75
X3.6Y-4.45
X3.6Y-4.75
X3.7Y-4.45
X3.7Y-4.75
T4
X1.9921Y-2.272
X1.9921Y-2.3705
X1.9921Y-2.4689
X1.9921Y-2.5673
X1.9921Y-2.6657
X1.9921Y-2.7642
X1.9921Y-2.8626
X1.9921Y-2.961
X1.9921Y-3.0594
X1.9921Y-3.1579
X1.9921Y-3.2563
X1.9921Y-3.3547
X1.9921Y-3.4531
X1.9921Y-3.5516
X1.9921Y-3.65
X1.9921Y-3.7484
X1.9921Y-3.8469
X1.9921Y-3.9453
X1.9921Y-4.0437
X1.9921Y-4.1421
X1.9921Y-4.2406
X1.9921Y-4.339
X1.9921Y-4.4374
X1.9921Y-4.5358
X1.9921Y-4.6343
X1.9921Y-4.7327
X1.9921Y-4.8311
X1.9921Y-4.9295
X1.9921Y-5.028
X2.189Y-2.272
X2.189Y-2.3705
X2.189Y-2.4689
X2.189Y-2.5673
X2.189Y-2.6657
X2.189Y-2.7642
X2.189Y-2.8626
X2.189Y-2.961
X2.189Y-3.0594
X2.189Y-3.1579
X2.189Y-3.2563
X2.189Y-3.3547
X2.189Y-3.4531
X2.189Y-3.5516
X2.189Y-3.65
X2.189Y-3.7484
X2.189Y-3.8469
X2.189Y-3.9453
X2.189Y-4.0437
X2.189Y-4.1421
X2.189Y-4.2406
X2.189Y-4.339
X2.189Y-4.4374
X2.189Y-4.5358
X2.189Y-4.6343
X2.189Y-4.7327
X2.189Y-4.8311
X2.189Y-4.9295
X2.189Y-5.028
X2.5516Y-2.05
X2.65Y-2.05
X3.1Y-2.0
X3.1Y-2.1
X3.1Y-2.2
X3.1Y-2.3
X3.1Y-2.4
X3.1Y-2.5
X3.1Y-2.6
X3.1Y-2.7
X3.1Y-2.8
X3.1Y-2.9
X3.1Y-3.0
X3.1Y-3.1
X3.1Y-3.2
X3.1Y-3.3
X3.1Y-3.4
X3.1Y-3.5
X3.1Y-3.6
X3.1Y-3.7
X3.1Y-3.8
X3.1Y-3.9
X3.5016Y-4.95
X3.6Y-4.95
X3.7Y-2.0
X3.7Y-2.1
X3.7Y-2.2
X3.7Y-2.3
X3.7Y-2.4
X3.7Y-2.5
X3.7Y-2.6
X3.7Y-2.7
X3.7Y-2.8
X3.7Y-2.9
X3.7Y-3.0
X3.7Y-3.1
X3.7Y-3.2
X3.7Y-3.3
X3.7Y-3.4
X3.7Y-3.5
X3.7Y-3.6
X3.7Y-3.7
X3.7Y-3.8
X3.7Y-3.9
X4.0Y-2.0
X4.0Y-2.1
X4.0Y-2.2
X4.0Y-2.3
X4.0Y-2.4
X4.0Y-2.5
X4.0Y-2.6
X4.0Y-2.7
X4.0Y-2.8
X4.0Y-2.9
X4.0Y-3.0
X4.0Y-3.1
X4.0Y-3.2
X4.0Y-3.3
X4.2Y-4.4
X4.2Y-4.7504
X4.25Y-3.9
X4.25Y-4.2
X4.4Y-3.55
X4.4984Y-3.55
X4.6Y-2.0
X4.6Y-2.1
X4.6Y-2.2
X4.6Y-2.3
X4.6Y-2.4
X4.6Y-2.5
X4.6Y-2.6
X4.6Y-2.7
X4.6Y-2.8
X4.6Y-2.9
X4.6Y-3.0
X4.6Y-3.1
X4.6Y-3.2
X4.6Y-3.3
X4.6Y-4.4
X4.6Y-4.7504
X4.724Y-4.7406
X4.7555Y-4.5476
X4.8224Y-4.7406
X4.85Y-2.0
X4.85Y-2.1
X4.85Y-2.2
X4.85Y-2.3
X4.85Y-2.4
X4.85Y-2.5
X4.85Y-2.6
X4.85Y-2.7
X4.85Y-2.8
X4.85Y-2.9
X4.85Y-3.0
X4.85Y-3.1
X4.85Y-3.2
X4.85Y-3.3
X4.85Y-3.9
X4.85Y-4.2
X5.1555Y-4.5476
X5.35Y-3.85
X5.35Y-3.95
X5.35Y-4.05
X5.45Y-2.0
X5.45Y-2.1
X5.45Y-2.2
X5.45Y-2.3
X5.45Y-2.4
X5.45Y-2.5
X5.45Y-2.6
X5.45Y-2.7
X5.45Y-2.8
X5.45Y-2.9
X5.45Y-3.0
X5.45Y-3.1
X5.45Y-3.2
X5.45Y-3.3
X5.45Y-3.75
X5.45Y-3.85
X5.45Y-3.95
X5.45Y-4.05
X5.45Y-4.15
X5.55Y-3.75
X5.55Y-3.85
X5.55Y-4.05
X5.55Y-4.15
X5.5516Y-3.5
X5.65Y-2.0
X5.65Y-2.1
X5.65Y-2.2
X5.65Y-2.3
X5.65Y-2.4
X5.65Y-2.5
X5.65Y-2.6
X5.65Y-2.7
X5.65Y-2.8
X5.65Y-2.9
X5.65Y-3.0
X5.65Y-3.1
X5.65Y-3.2
X5.65Y-3.3
X5.65Y-3.5
X5.65Y-3.75
X5.65Y-3.85
X5.65Y-3.95
X5.65Y-4.05
X5.65Y-4.15
X5.65Y-4.5
X5.65Y-4.6
X5.65Y-4.7
X5.65Y-4.8
X5.65Y-4.9
X5.65Y-5.0
X5.65Y-5.1
X5.75Y-3.85
X5.75Y-3.95
X5.75Y-4.05
X5.95Y-4.25
X5.95Y-4.5
X5.95Y-4.6
X5.95Y-4.7
X5.95Y-4.8
X5.95Y-4.9
X5.95Y-5.0
X5.95Y-5.1
X6.05Y-4.25
X6.15Y-4.25
X6.2Y-4.5
X6.2Y-4.6
X6.2Y-4.7
X6.2Y-4.8
X6.2Y-4.9
X6.2Y-5.0
X6.2Y-5.1
X6.25Y-2.0
X6.25Y-2.1
X6.25Y-2.2
X6.25Y-2.3
X6.25Y-2.4
X6.25Y-2.5
X6.25Y-2.6
X6.25Y-2.7
X6.25Y-2.8
X6.25Y-2.9
X6.25Y-3.0
X6.25Y-3.1
X6.25Y-3.2
X6.25Y-3.3
X6.25Y-4.25
X6.35Y-4.25
X6.4Y-2.0
X6.4Y-2.1
X6.4Y-2.2
X6.4Y-2.3
X6.4Y-2.4
X6.4Y-2.5
X6.4Y-2.6
X6.4Y-2.7
X6.4Y-2.8
X6.4Y-2.9
X6.4Y-3.0
X6.4Y-3.1
X6.4Y-3.2
X6.4Y-3.3
X6.4016Y-3.55
X6.45Y-4.25
X6.5Y-3.55
X6.5Y-4.5
X6.5Y-4.6
X6.5Y-4.7
X6.5Y-4.8
X6.5Y-4.9
X6.5Y-5.0
X6.5Y-5.1
X6.55Y-4.25
X6.65Y-4.25
X6.75Y-4.25
X6.75Y-4.5
X6.75Y-4.6
X6.75Y-4.7
X6.75Y-4.8
X6.75Y-4.9
X6.75Y-5.0
X6.75Y-5.1
X6.85Y-4.25
X7.0Y-2.0
X7.0Y-2.1
X7.0Y-2.2
X7.0Y-2.3
X7.0Y-2.4
X7.0Y-2.5
X7.0Y-2.6
X7.0Y-2.7
X7.0Y-2.8
X7.0Y-2.9
X7.0Y-3.0
X7.0Y-3.1
X7.0Y-3.2
X7.0Y-3.3
X7.05Y-4.5
X7.05Y-4.6
X7.05Y-4.7
X7.05Y-4.8
X7.05Y-4.9
X7.05Y-5.0
X7.05Y-5.1
X7.35Y-1.95
X7.35Y-2.05
X7.35Y-2.15
X7.35Y-2.25
X7.35Y-2.35
X7.35Y-2.45
X7.35Y-2.55
X7.35Y-2.65
X7.35Y-2.75
X7.35Y-2.85
X7.35Y-2.95
X7.35Y-3.05
X7.35Y-3.15
X7.35Y-3.25
X7.35Y-3.35
X7.35Y-3.45
X7.35Y-3.55
X7.35Y-3.65
X7.35Y-3.75
X7.35Y-3.85
X7.95Y-1.95
X7.95Y-2.05
X7.95Y-2.15
X7.95Y-2.25
X7.95Y-2.35
X7.95Y-2.45
X7.95Y-2.55
X7.95Y-2.65
X7.95Y-2.75
X7.95Y-2.85
X7.95Y-2.95
X7.95Y-3.05
X7.95Y-3.15
X7.95Y-3.25
X7.95Y-3.35
X7.95Y-3.45
X7.95Y-3.55
X7.95Y-3.65
X7.95Y-3.75
X7.95Y-3.85
T5
X1.709Y-2.2
X1.709Y-2.3
X1.709Y-2.4
X1.709Y-2.5
X1.709Y-2.6
X1.709Y-2.7
X1.709Y-2.8
X1.709Y-2.9
X1.709Y-3.0
X1.709Y-3.1
X1.709Y-3.2
X1.709Y-3.3
X1.709Y-3.4
X1.709Y-3.5
X1.709Y-3.6
X1.709Y-3.7
X1.709Y-3.8
X1.709Y-3.9
X1.709Y-4.0
X1.709Y-4.1
X1.709Y-4.2
X1.709Y-4.3
X1.709Y-4.4
X1.709Y-4.5
X1.709Y-4.6
X1.709Y-4.7
X1.709Y-4.8
X1.709Y-4.9
X1.709Y-5.0
X1.909Y-2.2
X1.909Y-2.3
X1.909Y-2.4
X1.909Y-2.5
X1.909Y-2.6
X1.909Y-2.7
X1.909Y-2.8
X1.909Y-2.9
X1.909Y-3.0
X1.909Y-3.1
X1.909Y-3.2
X1.909Y-3.3
X1.909Y-3.4
X1.909Y-3.5
X1.909Y-3.6
X1.909Y-3.7
X1.909Y-3.8
X1.909Y-3.9
X1.909Y-4.0
X1.909Y-4.1
X1.909Y-4.2
X1.909Y-4.3
X1.909Y-4.4
X1.909Y-4.5
X1.909Y-4.6
X1.909Y-4.7
X1.909Y-4.8
X1.909Y-4.9
X1.909Y-5.0
X2.95Y-5.15
X3.05Y-5.15
X5.1Y-3.9
X5.1Y-4.0
X5.1Y-4.1
X6.6Y-3.85
X6.6Y-3.95
X6.6Y-4.05
X7.1Y-3.95
X7.1Y-4.05
X7.1Y-4.15
X7.3Y-5.0
X7.3Y-5.1772
X7.7Y-4.15
X7.7Y-4.25
X7.7Y-4.35
X7.7Y-4.45
X7.7Y-4.55
X7.7Y-4.65
X7.7Y-4.75
X7.7Y-4.85
X7.7Y-4.95
X7.7Y-5.05
X7.7Y-5.15
X7.7Y-5.25
X7.7Y-5.35
X7.8Y-4.15
X7.8Y-4.25
X7.8Y-4.35
X7.8Y-4.45
X7.8Y-4.55
X7.8Y-4.65
X7.8Y-4.75
X7.8Y-4.85
X7.8Y-4.95
X7.8Y-5.05
X7.8Y-5.15
X7.8Y-5.25
X7.8Y-5.35
T6
X2.8Y-4.9
X2.8Y-5.1
X3.2Y-4.9
X3.2Y-5.1
X4.2157Y-4.5693
X4.6157Y-4.5693
T7
X7.2016Y-4.9508
X7.2016Y-5.2264
T8
X1.609Y-1.9
X1.609Y-5.4
X1.6969Y-2.026
X1.6969Y-5.274
T0
M30
