%TF.GenerationSoftware,KiCad,Pcbnew,(5.1.10)-1*%
%TF.CreationDate,2022-01-28T17:59:32+01:00*%
%TF.ProjectId,Backplane,4261636b-706c-4616-9e65-2e6b69636164,rev?*%
%TF.SameCoordinates,Original*%
%TF.FileFunction,Soldermask,Bot*%
%TF.FilePolarity,Negative*%
%FSLAX46Y46*%
G04 Gerber Fmt 4.6, Leading zero omitted, Abs format (unit mm)*
G04 Created by KiCad (PCBNEW (5.1.10)-1) date 2022-01-28 17:59:32*
%MOMM*%
%LPD*%
G01*
G04 APERTURE LIST*
%ADD10C,1.550000*%
%ADD11C,2.850000*%
%ADD12O,1.700000X1.700000*%
%ADD13R,1.700000X1.700000*%
%ADD14O,1.950000X1.700000*%
G04 APERTURE END LIST*
%TO.C,J1*%
G36*
G01*
X183375000Y-66565450D02*
X183375000Y-65514550D01*
G75*
G02*
X183624550Y-65265000I249550J0D01*
G01*
X184675450Y-65265000D01*
G75*
G02*
X184925000Y-65514550I0J-249550D01*
G01*
X184925000Y-66565450D01*
G75*
G02*
X184675450Y-66815000I-249550J0D01*
G01*
X183624550Y-66815000D01*
G75*
G02*
X183375000Y-66565450I0J249550D01*
G01*
G37*
D10*
X184150000Y-68580000D03*
X184150000Y-71120000D03*
X184150000Y-73660000D03*
X184150000Y-76200000D03*
X184150000Y-78740000D03*
X184150000Y-81280000D03*
X184150000Y-83820000D03*
X184150000Y-86360000D03*
X184150000Y-88900000D03*
X184150000Y-91440000D03*
X184150000Y-93980000D03*
X184150000Y-96520000D03*
X184150000Y-99060000D03*
X184150000Y-101600000D03*
X184150000Y-104140000D03*
X184150000Y-106680000D03*
X184150000Y-109220000D03*
X184150000Y-111760000D03*
X184150000Y-114300000D03*
X184150000Y-116840000D03*
X184150000Y-119380000D03*
X184150000Y-121920000D03*
X184150000Y-124460000D03*
X184150000Y-127000000D03*
X184150000Y-129540000D03*
X184150000Y-132080000D03*
X184150000Y-134620000D03*
X184150000Y-137160000D03*
X184150000Y-139700000D03*
X184150000Y-142240000D03*
X184150000Y-144780000D03*
X186690000Y-66040000D03*
X186690000Y-68580000D03*
X186690000Y-71120000D03*
X186690000Y-73660000D03*
X186690000Y-76200000D03*
X186690000Y-78740000D03*
X186690000Y-81280000D03*
X186690000Y-83820000D03*
X186690000Y-86360000D03*
X186690000Y-88900000D03*
X186690000Y-91440000D03*
X186690000Y-93980000D03*
X186690000Y-96520000D03*
X186690000Y-99060000D03*
X186690000Y-101600000D03*
X186690000Y-104140000D03*
X186690000Y-106680000D03*
X186690000Y-109220000D03*
X186690000Y-111760000D03*
X186690000Y-114300000D03*
X186690000Y-116840000D03*
X186690000Y-119380000D03*
X186690000Y-121920000D03*
X186690000Y-124460000D03*
X186690000Y-127000000D03*
X186690000Y-129540000D03*
X186690000Y-132080000D03*
X186690000Y-134620000D03*
X186690000Y-137160000D03*
X186690000Y-139700000D03*
X186690000Y-142240000D03*
X186690000Y-144780000D03*
X189230000Y-66040000D03*
X189230000Y-68580000D03*
X189230000Y-71120000D03*
X189230000Y-73660000D03*
X189230000Y-76200000D03*
X189230000Y-78740000D03*
X189230000Y-81280000D03*
X189230000Y-83820000D03*
X189230000Y-86360000D03*
X189230000Y-88900000D03*
X189230000Y-91440000D03*
X189230000Y-93980000D03*
X189230000Y-96520000D03*
X189230000Y-99060000D03*
X189230000Y-101600000D03*
X189230000Y-104140000D03*
X189230000Y-106680000D03*
X189230000Y-109220000D03*
X189230000Y-111760000D03*
X189230000Y-114300000D03*
X189230000Y-116840000D03*
X189230000Y-119380000D03*
X189230000Y-121920000D03*
X189230000Y-124460000D03*
X189230000Y-127000000D03*
X189230000Y-129540000D03*
X189230000Y-132080000D03*
X189230000Y-134620000D03*
X189230000Y-137160000D03*
X189230000Y-139700000D03*
X189230000Y-142240000D03*
X189230000Y-144780000D03*
D11*
X186390000Y-60410000D03*
X186390000Y-150410000D03*
%TD*%
D12*
%TO.C,J2*%
X196850000Y-91440000D03*
D13*
X194310000Y-91440000D03*
%TD*%
D12*
%TO.C,J3*%
X196850000Y-134620000D03*
D13*
X194310000Y-134620000D03*
%TD*%
D11*
%TO.C,J4*%
X82250000Y-150410000D03*
X82250000Y-60410000D03*
D10*
X85090000Y-144780000D03*
X85090000Y-142240000D03*
X85090000Y-139700000D03*
X85090000Y-137160000D03*
X85090000Y-134620000D03*
X85090000Y-132080000D03*
X85090000Y-129540000D03*
X85090000Y-127000000D03*
X85090000Y-124460000D03*
X85090000Y-121920000D03*
X85090000Y-119380000D03*
X85090000Y-116840000D03*
X85090000Y-114300000D03*
X85090000Y-111760000D03*
X85090000Y-109220000D03*
X85090000Y-106680000D03*
X85090000Y-104140000D03*
X85090000Y-101600000D03*
X85090000Y-99060000D03*
X85090000Y-96520000D03*
X85090000Y-93980000D03*
X85090000Y-91440000D03*
X85090000Y-88900000D03*
X85090000Y-86360000D03*
X85090000Y-83820000D03*
X85090000Y-81280000D03*
X85090000Y-78740000D03*
X85090000Y-76200000D03*
X85090000Y-73660000D03*
X85090000Y-71120000D03*
X85090000Y-68580000D03*
X85090000Y-66040000D03*
X82550000Y-144780000D03*
X82550000Y-142240000D03*
X82550000Y-139700000D03*
X82550000Y-137160000D03*
X82550000Y-134620000D03*
X82550000Y-132080000D03*
X82550000Y-129540000D03*
X82550000Y-127000000D03*
X82550000Y-124460000D03*
X82550000Y-121920000D03*
X82550000Y-119380000D03*
X82550000Y-116840000D03*
X82550000Y-114300000D03*
X82550000Y-111760000D03*
X82550000Y-109220000D03*
X82550000Y-106680000D03*
X82550000Y-104140000D03*
X82550000Y-101600000D03*
X82550000Y-99060000D03*
X82550000Y-96520000D03*
X82550000Y-93980000D03*
X82550000Y-91440000D03*
X82550000Y-88900000D03*
X82550000Y-86360000D03*
X82550000Y-83820000D03*
X82550000Y-81280000D03*
X82550000Y-78740000D03*
X82550000Y-76200000D03*
X82550000Y-73660000D03*
X82550000Y-71120000D03*
X82550000Y-68580000D03*
X82550000Y-66040000D03*
X80010000Y-144780000D03*
X80010000Y-142240000D03*
X80010000Y-139700000D03*
X80010000Y-137160000D03*
X80010000Y-134620000D03*
X80010000Y-132080000D03*
X80010000Y-129540000D03*
X80010000Y-127000000D03*
X80010000Y-124460000D03*
X80010000Y-121920000D03*
X80010000Y-119380000D03*
X80010000Y-116840000D03*
X80010000Y-114300000D03*
X80010000Y-111760000D03*
X80010000Y-109220000D03*
X80010000Y-106680000D03*
X80010000Y-104140000D03*
X80010000Y-101600000D03*
X80010000Y-99060000D03*
X80010000Y-96520000D03*
X80010000Y-93980000D03*
X80010000Y-91440000D03*
X80010000Y-88900000D03*
X80010000Y-86360000D03*
X80010000Y-83820000D03*
X80010000Y-81280000D03*
X80010000Y-78740000D03*
X80010000Y-76200000D03*
X80010000Y-73660000D03*
X80010000Y-71120000D03*
X80010000Y-68580000D03*
G36*
G01*
X79235000Y-66565450D02*
X79235000Y-65514550D01*
G75*
G02*
X79484550Y-65265000I249550J0D01*
G01*
X80535450Y-65265000D01*
G75*
G02*
X80785000Y-65514550I0J-249550D01*
G01*
X80785000Y-66565450D01*
G75*
G02*
X80535450Y-66815000I-249550J0D01*
G01*
X79484550Y-66815000D01*
G75*
G02*
X79235000Y-66565450I0J249550D01*
G01*
G37*
%TD*%
D13*
%TO.C,J5*%
X90170000Y-91440000D03*
D12*
X92710000Y-91440000D03*
%TD*%
D13*
%TO.C,J6*%
X90170000Y-134620000D03*
D12*
X92710000Y-134620000D03*
%TD*%
%TO.C,J7*%
G36*
G01*
X121145000Y-66565450D02*
X121145000Y-65514550D01*
G75*
G02*
X121394550Y-65265000I249550J0D01*
G01*
X122445450Y-65265000D01*
G75*
G02*
X122695000Y-65514550I0J-249550D01*
G01*
X122695000Y-66565450D01*
G75*
G02*
X122445450Y-66815000I-249550J0D01*
G01*
X121394550Y-66815000D01*
G75*
G02*
X121145000Y-66565450I0J249550D01*
G01*
G37*
D10*
X121920000Y-68580000D03*
X121920000Y-71120000D03*
X121920000Y-73660000D03*
X121920000Y-76200000D03*
X121920000Y-78740000D03*
X121920000Y-81280000D03*
X121920000Y-83820000D03*
X121920000Y-86360000D03*
X121920000Y-88900000D03*
X121920000Y-91440000D03*
X121920000Y-93980000D03*
X121920000Y-96520000D03*
X121920000Y-99060000D03*
X121920000Y-101600000D03*
X121920000Y-104140000D03*
X121920000Y-106680000D03*
X121920000Y-109220000D03*
X121920000Y-111760000D03*
X121920000Y-114300000D03*
X121920000Y-116840000D03*
X121920000Y-119380000D03*
X121920000Y-121920000D03*
X121920000Y-124460000D03*
X121920000Y-127000000D03*
X121920000Y-129540000D03*
X121920000Y-132080000D03*
X121920000Y-134620000D03*
X121920000Y-137160000D03*
X121920000Y-139700000D03*
X121920000Y-142240000D03*
X121920000Y-144780000D03*
X124460000Y-66040000D03*
X124460000Y-68580000D03*
X124460000Y-71120000D03*
X124460000Y-73660000D03*
X124460000Y-76200000D03*
X124460000Y-78740000D03*
X124460000Y-81280000D03*
X124460000Y-83820000D03*
X124460000Y-86360000D03*
X124460000Y-88900000D03*
X124460000Y-91440000D03*
X124460000Y-93980000D03*
X124460000Y-96520000D03*
X124460000Y-99060000D03*
X124460000Y-101600000D03*
X124460000Y-104140000D03*
X124460000Y-106680000D03*
X124460000Y-109220000D03*
X124460000Y-111760000D03*
X124460000Y-114300000D03*
X124460000Y-116840000D03*
X124460000Y-119380000D03*
X124460000Y-121920000D03*
X124460000Y-124460000D03*
X124460000Y-127000000D03*
X124460000Y-129540000D03*
X124460000Y-132080000D03*
X124460000Y-134620000D03*
X124460000Y-137160000D03*
X124460000Y-139700000D03*
X124460000Y-142240000D03*
X124460000Y-144780000D03*
X127000000Y-66040000D03*
X127000000Y-68580000D03*
X127000000Y-71120000D03*
X127000000Y-73660000D03*
X127000000Y-76200000D03*
X127000000Y-78740000D03*
X127000000Y-81280000D03*
X127000000Y-83820000D03*
X127000000Y-86360000D03*
X127000000Y-88900000D03*
X127000000Y-91440000D03*
X127000000Y-93980000D03*
X127000000Y-96520000D03*
X127000000Y-99060000D03*
X127000000Y-101600000D03*
X127000000Y-104140000D03*
X127000000Y-106680000D03*
X127000000Y-109220000D03*
X127000000Y-111760000D03*
X127000000Y-114300000D03*
X127000000Y-116840000D03*
X127000000Y-119380000D03*
X127000000Y-121920000D03*
X127000000Y-124460000D03*
X127000000Y-127000000D03*
X127000000Y-129540000D03*
X127000000Y-132080000D03*
X127000000Y-134620000D03*
X127000000Y-137160000D03*
X127000000Y-139700000D03*
X127000000Y-142240000D03*
X127000000Y-144780000D03*
D11*
X124160000Y-60410000D03*
X124160000Y-150410000D03*
%TD*%
D12*
%TO.C,J8*%
X134620000Y-91440000D03*
D13*
X132080000Y-91440000D03*
%TD*%
%TO.C,J9*%
X132080000Y-134620000D03*
D12*
X134620000Y-134620000D03*
%TD*%
D11*
%TO.C,J10*%
X207980000Y-150410000D03*
X207980000Y-60410000D03*
D10*
X210820000Y-144780000D03*
X210820000Y-142240000D03*
X210820000Y-139700000D03*
X210820000Y-137160000D03*
X210820000Y-134620000D03*
X210820000Y-132080000D03*
X210820000Y-129540000D03*
X210820000Y-127000000D03*
X210820000Y-124460000D03*
X210820000Y-121920000D03*
X210820000Y-119380000D03*
X210820000Y-116840000D03*
X210820000Y-114300000D03*
X210820000Y-111760000D03*
X210820000Y-109220000D03*
X210820000Y-106680000D03*
X210820000Y-104140000D03*
X210820000Y-101600000D03*
X210820000Y-99060000D03*
X210820000Y-96520000D03*
X210820000Y-93980000D03*
X210820000Y-91440000D03*
X210820000Y-88900000D03*
X210820000Y-86360000D03*
X210820000Y-83820000D03*
X210820000Y-81280000D03*
X210820000Y-78740000D03*
X210820000Y-76200000D03*
X210820000Y-73660000D03*
X210820000Y-71120000D03*
X210820000Y-68580000D03*
X210820000Y-66040000D03*
X208280000Y-144780000D03*
X208280000Y-142240000D03*
X208280000Y-139700000D03*
X208280000Y-137160000D03*
X208280000Y-134620000D03*
X208280000Y-132080000D03*
X208280000Y-129540000D03*
X208280000Y-127000000D03*
X208280000Y-124460000D03*
X208280000Y-121920000D03*
X208280000Y-119380000D03*
X208280000Y-116840000D03*
X208280000Y-114300000D03*
X208280000Y-111760000D03*
X208280000Y-109220000D03*
X208280000Y-106680000D03*
X208280000Y-104140000D03*
X208280000Y-101600000D03*
X208280000Y-99060000D03*
X208280000Y-96520000D03*
X208280000Y-93980000D03*
X208280000Y-91440000D03*
X208280000Y-88900000D03*
X208280000Y-86360000D03*
X208280000Y-83820000D03*
X208280000Y-81280000D03*
X208280000Y-78740000D03*
X208280000Y-76200000D03*
X208280000Y-73660000D03*
X208280000Y-71120000D03*
X208280000Y-68580000D03*
X208280000Y-66040000D03*
X205740000Y-144780000D03*
X205740000Y-142240000D03*
X205740000Y-139700000D03*
X205740000Y-137160000D03*
X205740000Y-134620000D03*
X205740000Y-132080000D03*
X205740000Y-129540000D03*
X205740000Y-127000000D03*
X205740000Y-124460000D03*
X205740000Y-121920000D03*
X205740000Y-119380000D03*
X205740000Y-116840000D03*
X205740000Y-114300000D03*
X205740000Y-111760000D03*
X205740000Y-109220000D03*
X205740000Y-106680000D03*
X205740000Y-104140000D03*
X205740000Y-101600000D03*
X205740000Y-99060000D03*
X205740000Y-96520000D03*
X205740000Y-93980000D03*
X205740000Y-91440000D03*
X205740000Y-88900000D03*
X205740000Y-86360000D03*
X205740000Y-83820000D03*
X205740000Y-81280000D03*
X205740000Y-78740000D03*
X205740000Y-76200000D03*
X205740000Y-73660000D03*
X205740000Y-71120000D03*
X205740000Y-68580000D03*
G36*
G01*
X204965000Y-66565450D02*
X204965000Y-65514550D01*
G75*
G02*
X205214550Y-65265000I249550J0D01*
G01*
X206265450Y-65265000D01*
G75*
G02*
X206515000Y-65514550I0J-249550D01*
G01*
X206515000Y-66565450D01*
G75*
G02*
X206265450Y-66815000I-249550J0D01*
G01*
X205214550Y-66815000D01*
G75*
G02*
X204965000Y-66565450I0J249550D01*
G01*
G37*
%TD*%
D13*
%TO.C,J11*%
X215900000Y-92710000D03*
D12*
X215900000Y-90170000D03*
%TD*%
%TO.C,J12*%
X215900000Y-132080000D03*
D13*
X215900000Y-134620000D03*
%TD*%
%TO.C,J13*%
G36*
G01*
X219165000Y-112610000D02*
X217715000Y-112610000D01*
G75*
G02*
X217465000Y-112360000I0J250000D01*
G01*
X217465000Y-111160000D01*
G75*
G02*
X217715000Y-110910000I250000J0D01*
G01*
X219165000Y-110910000D01*
G75*
G02*
X219415000Y-111160000I0J-250000D01*
G01*
X219415000Y-112360000D01*
G75*
G02*
X219165000Y-112610000I-250000J0D01*
G01*
G37*
D14*
X218440000Y-109260000D03*
X218440000Y-106760000D03*
X218440000Y-104260000D03*
X218440000Y-101760000D03*
%TD*%
%TO.C,J14*%
G36*
G01*
X161785000Y-66565450D02*
X161785000Y-65514550D01*
G75*
G02*
X162034550Y-65265000I249550J0D01*
G01*
X163085450Y-65265000D01*
G75*
G02*
X163335000Y-65514550I0J-249550D01*
G01*
X163335000Y-66565450D01*
G75*
G02*
X163085450Y-66815000I-249550J0D01*
G01*
X162034550Y-66815000D01*
G75*
G02*
X161785000Y-66565450I0J249550D01*
G01*
G37*
D10*
X162560000Y-68580000D03*
X162560000Y-71120000D03*
X162560000Y-73660000D03*
X162560000Y-76200000D03*
X162560000Y-78740000D03*
X162560000Y-81280000D03*
X162560000Y-83820000D03*
X162560000Y-86360000D03*
X162560000Y-88900000D03*
X162560000Y-91440000D03*
X162560000Y-93980000D03*
X162560000Y-96520000D03*
X162560000Y-99060000D03*
X162560000Y-101600000D03*
X162560000Y-104140000D03*
X162560000Y-106680000D03*
X162560000Y-109220000D03*
X162560000Y-111760000D03*
X162560000Y-114300000D03*
X162560000Y-116840000D03*
X162560000Y-119380000D03*
X162560000Y-121920000D03*
X162560000Y-124460000D03*
X162560000Y-127000000D03*
X162560000Y-129540000D03*
X162560000Y-132080000D03*
X162560000Y-134620000D03*
X162560000Y-137160000D03*
X162560000Y-139700000D03*
X162560000Y-142240000D03*
X162560000Y-144780000D03*
X165100000Y-66040000D03*
X165100000Y-68580000D03*
X165100000Y-71120000D03*
X165100000Y-73660000D03*
X165100000Y-76200000D03*
X165100000Y-78740000D03*
X165100000Y-81280000D03*
X165100000Y-83820000D03*
X165100000Y-86360000D03*
X165100000Y-88900000D03*
X165100000Y-91440000D03*
X165100000Y-93980000D03*
X165100000Y-96520000D03*
X165100000Y-99060000D03*
X165100000Y-101600000D03*
X165100000Y-104140000D03*
X165100000Y-106680000D03*
X165100000Y-109220000D03*
X165100000Y-111760000D03*
X165100000Y-114300000D03*
X165100000Y-116840000D03*
X165100000Y-119380000D03*
X165100000Y-121920000D03*
X165100000Y-124460000D03*
X165100000Y-127000000D03*
X165100000Y-129540000D03*
X165100000Y-132080000D03*
X165100000Y-134620000D03*
X165100000Y-137160000D03*
X165100000Y-139700000D03*
X165100000Y-142240000D03*
X165100000Y-144780000D03*
X167640000Y-66040000D03*
X167640000Y-68580000D03*
X167640000Y-71120000D03*
X167640000Y-73660000D03*
X167640000Y-76200000D03*
X167640000Y-78740000D03*
X167640000Y-81280000D03*
X167640000Y-83820000D03*
X167640000Y-86360000D03*
X167640000Y-88900000D03*
X167640000Y-91440000D03*
X167640000Y-93980000D03*
X167640000Y-96520000D03*
X167640000Y-99060000D03*
X167640000Y-101600000D03*
X167640000Y-104140000D03*
X167640000Y-106680000D03*
X167640000Y-109220000D03*
X167640000Y-111760000D03*
X167640000Y-114300000D03*
X167640000Y-116840000D03*
X167640000Y-119380000D03*
X167640000Y-121920000D03*
X167640000Y-124460000D03*
X167640000Y-127000000D03*
X167640000Y-129540000D03*
X167640000Y-132080000D03*
X167640000Y-134620000D03*
X167640000Y-137160000D03*
X167640000Y-139700000D03*
X167640000Y-142240000D03*
X167640000Y-144780000D03*
D11*
X164800000Y-60410000D03*
X164800000Y-150410000D03*
%TD*%
D13*
%TO.C,J15*%
X172720000Y-91440000D03*
D12*
X175260000Y-91440000D03*
%TD*%
D13*
%TO.C,J16*%
X172720000Y-134620000D03*
D12*
X175260000Y-134620000D03*
%TD*%
D11*
%TO.C,J17*%
X144480000Y-150410000D03*
X144480000Y-60410000D03*
D10*
X147320000Y-144780000D03*
X147320000Y-142240000D03*
X147320000Y-139700000D03*
X147320000Y-137160000D03*
X147320000Y-134620000D03*
X147320000Y-132080000D03*
X147320000Y-129540000D03*
X147320000Y-127000000D03*
X147320000Y-124460000D03*
X147320000Y-121920000D03*
X147320000Y-119380000D03*
X147320000Y-116840000D03*
X147320000Y-114300000D03*
X147320000Y-111760000D03*
X147320000Y-109220000D03*
X147320000Y-106680000D03*
X147320000Y-104140000D03*
X147320000Y-101600000D03*
X147320000Y-99060000D03*
X147320000Y-96520000D03*
X147320000Y-93980000D03*
X147320000Y-91440000D03*
X147320000Y-88900000D03*
X147320000Y-86360000D03*
X147320000Y-83820000D03*
X147320000Y-81280000D03*
X147320000Y-78740000D03*
X147320000Y-76200000D03*
X147320000Y-73660000D03*
X147320000Y-71120000D03*
X147320000Y-68580000D03*
X147320000Y-66040000D03*
X144780000Y-144780000D03*
X144780000Y-142240000D03*
X144780000Y-139700000D03*
X144780000Y-137160000D03*
X144780000Y-134620000D03*
X144780000Y-132080000D03*
X144780000Y-129540000D03*
X144780000Y-127000000D03*
X144780000Y-124460000D03*
X144780000Y-121920000D03*
X144780000Y-119380000D03*
X144780000Y-116840000D03*
X144780000Y-114300000D03*
X144780000Y-111760000D03*
X144780000Y-109220000D03*
X144780000Y-106680000D03*
X144780000Y-104140000D03*
X144780000Y-101600000D03*
X144780000Y-99060000D03*
X144780000Y-96520000D03*
X144780000Y-93980000D03*
X144780000Y-91440000D03*
X144780000Y-88900000D03*
X144780000Y-86360000D03*
X144780000Y-83820000D03*
X144780000Y-81280000D03*
X144780000Y-78740000D03*
X144780000Y-76200000D03*
X144780000Y-73660000D03*
X144780000Y-71120000D03*
X144780000Y-68580000D03*
X144780000Y-66040000D03*
X142240000Y-144780000D03*
X142240000Y-142240000D03*
X142240000Y-139700000D03*
X142240000Y-137160000D03*
X142240000Y-134620000D03*
X142240000Y-132080000D03*
X142240000Y-129540000D03*
X142240000Y-127000000D03*
X142240000Y-124460000D03*
X142240000Y-121920000D03*
X142240000Y-119380000D03*
X142240000Y-116840000D03*
X142240000Y-114300000D03*
X142240000Y-111760000D03*
X142240000Y-109220000D03*
X142240000Y-106680000D03*
X142240000Y-104140000D03*
X142240000Y-101600000D03*
X142240000Y-99060000D03*
X142240000Y-96520000D03*
X142240000Y-93980000D03*
X142240000Y-91440000D03*
X142240000Y-88900000D03*
X142240000Y-86360000D03*
X142240000Y-83820000D03*
X142240000Y-81280000D03*
X142240000Y-78740000D03*
X142240000Y-76200000D03*
X142240000Y-73660000D03*
X142240000Y-71120000D03*
X142240000Y-68580000D03*
G36*
G01*
X141465000Y-66565450D02*
X141465000Y-65514550D01*
G75*
G02*
X141714550Y-65265000I249550J0D01*
G01*
X142765450Y-65265000D01*
G75*
G02*
X143015000Y-65514550I0J-249550D01*
G01*
X143015000Y-66565450D01*
G75*
G02*
X142765450Y-66815000I-249550J0D01*
G01*
X141714550Y-66815000D01*
G75*
G02*
X141465000Y-66565450I0J249550D01*
G01*
G37*
%TD*%
D12*
%TO.C,J18*%
X154940000Y-91440000D03*
D13*
X152400000Y-91440000D03*
%TD*%
D12*
%TO.C,J19*%
X156210000Y-134620000D03*
D13*
X153670000Y-134620000D03*
%TD*%
D11*
%TO.C,J20*%
X103840000Y-150410000D03*
X103840000Y-60410000D03*
D10*
X106680000Y-144780000D03*
X106680000Y-142240000D03*
X106680000Y-139700000D03*
X106680000Y-137160000D03*
X106680000Y-134620000D03*
X106680000Y-132080000D03*
X106680000Y-129540000D03*
X106680000Y-127000000D03*
X106680000Y-124460000D03*
X106680000Y-121920000D03*
X106680000Y-119380000D03*
X106680000Y-116840000D03*
X106680000Y-114300000D03*
X106680000Y-111760000D03*
X106680000Y-109220000D03*
X106680000Y-106680000D03*
X106680000Y-104140000D03*
X106680000Y-101600000D03*
X106680000Y-99060000D03*
X106680000Y-96520000D03*
X106680000Y-93980000D03*
X106680000Y-91440000D03*
X106680000Y-88900000D03*
X106680000Y-86360000D03*
X106680000Y-83820000D03*
X106680000Y-81280000D03*
X106680000Y-78740000D03*
X106680000Y-76200000D03*
X106680000Y-73660000D03*
X106680000Y-71120000D03*
X106680000Y-68580000D03*
X106680000Y-66040000D03*
X104140000Y-144780000D03*
X104140000Y-142240000D03*
X104140000Y-139700000D03*
X104140000Y-137160000D03*
X104140000Y-134620000D03*
X104140000Y-132080000D03*
X104140000Y-129540000D03*
X104140000Y-127000000D03*
X104140000Y-124460000D03*
X104140000Y-121920000D03*
X104140000Y-119380000D03*
X104140000Y-116840000D03*
X104140000Y-114300000D03*
X104140000Y-111760000D03*
X104140000Y-109220000D03*
X104140000Y-106680000D03*
X104140000Y-104140000D03*
X104140000Y-101600000D03*
X104140000Y-99060000D03*
X104140000Y-96520000D03*
X104140000Y-93980000D03*
X104140000Y-91440000D03*
X104140000Y-88900000D03*
X104140000Y-86360000D03*
X104140000Y-83820000D03*
X104140000Y-81280000D03*
X104140000Y-78740000D03*
X104140000Y-76200000D03*
X104140000Y-73660000D03*
X104140000Y-71120000D03*
X104140000Y-68580000D03*
X104140000Y-66040000D03*
X101600000Y-144780000D03*
X101600000Y-142240000D03*
X101600000Y-139700000D03*
X101600000Y-137160000D03*
X101600000Y-134620000D03*
X101600000Y-132080000D03*
X101600000Y-129540000D03*
X101600000Y-127000000D03*
X101600000Y-124460000D03*
X101600000Y-121920000D03*
X101600000Y-119380000D03*
X101600000Y-116840000D03*
X101600000Y-114300000D03*
X101600000Y-111760000D03*
X101600000Y-109220000D03*
X101600000Y-106680000D03*
X101600000Y-104140000D03*
X101600000Y-101600000D03*
X101600000Y-99060000D03*
X101600000Y-96520000D03*
X101600000Y-93980000D03*
X101600000Y-91440000D03*
X101600000Y-88900000D03*
X101600000Y-86360000D03*
X101600000Y-83820000D03*
X101600000Y-81280000D03*
X101600000Y-78740000D03*
X101600000Y-76200000D03*
X101600000Y-73660000D03*
X101600000Y-71120000D03*
X101600000Y-68580000D03*
G36*
G01*
X100825000Y-66565450D02*
X100825000Y-65514550D01*
G75*
G02*
X101074550Y-65265000I249550J0D01*
G01*
X102125450Y-65265000D01*
G75*
G02*
X102375000Y-65514550I0J-249550D01*
G01*
X102375000Y-66565450D01*
G75*
G02*
X102125450Y-66815000I-249550J0D01*
G01*
X101074550Y-66815000D01*
G75*
G02*
X100825000Y-66565450I0J249550D01*
G01*
G37*
%TD*%
D12*
%TO.C,J21*%
X114300000Y-91440000D03*
D13*
X111760000Y-91440000D03*
%TD*%
D12*
%TO.C,J22*%
X114300000Y-134620000D03*
D13*
X111760000Y-134620000D03*
%TD*%
%TO.C,J23*%
G36*
G01*
X58915000Y-66565450D02*
X58915000Y-65514550D01*
G75*
G02*
X59164550Y-65265000I249550J0D01*
G01*
X60215450Y-65265000D01*
G75*
G02*
X60465000Y-65514550I0J-249550D01*
G01*
X60465000Y-66565450D01*
G75*
G02*
X60215450Y-66815000I-249550J0D01*
G01*
X59164550Y-66815000D01*
G75*
G02*
X58915000Y-66565450I0J249550D01*
G01*
G37*
D10*
X59690000Y-68580000D03*
X59690000Y-71120000D03*
X59690000Y-73660000D03*
X59690000Y-76200000D03*
X59690000Y-78740000D03*
X59690000Y-81280000D03*
X59690000Y-83820000D03*
X59690000Y-86360000D03*
X59690000Y-88900000D03*
X59690000Y-91440000D03*
X59690000Y-93980000D03*
X59690000Y-96520000D03*
X59690000Y-99060000D03*
X59690000Y-101600000D03*
X59690000Y-104140000D03*
X59690000Y-106680000D03*
X59690000Y-109220000D03*
X59690000Y-111760000D03*
X59690000Y-114300000D03*
X59690000Y-116840000D03*
X59690000Y-119380000D03*
X59690000Y-121920000D03*
X59690000Y-124460000D03*
X59690000Y-127000000D03*
X59690000Y-129540000D03*
X59690000Y-132080000D03*
X59690000Y-134620000D03*
X59690000Y-137160000D03*
X59690000Y-139700000D03*
X59690000Y-142240000D03*
X59690000Y-144780000D03*
X62230000Y-66040000D03*
X62230000Y-68580000D03*
X62230000Y-71120000D03*
X62230000Y-73660000D03*
X62230000Y-76200000D03*
X62230000Y-78740000D03*
X62230000Y-81280000D03*
X62230000Y-83820000D03*
X62230000Y-86360000D03*
X62230000Y-88900000D03*
X62230000Y-91440000D03*
X62230000Y-93980000D03*
X62230000Y-96520000D03*
X62230000Y-99060000D03*
X62230000Y-101600000D03*
X62230000Y-104140000D03*
X62230000Y-106680000D03*
X62230000Y-109220000D03*
X62230000Y-111760000D03*
X62230000Y-114300000D03*
X62230000Y-116840000D03*
X62230000Y-119380000D03*
X62230000Y-121920000D03*
X62230000Y-124460000D03*
X62230000Y-127000000D03*
X62230000Y-129540000D03*
X62230000Y-132080000D03*
X62230000Y-134620000D03*
X62230000Y-137160000D03*
X62230000Y-139700000D03*
X62230000Y-142240000D03*
X62230000Y-144780000D03*
X64770000Y-66040000D03*
X64770000Y-68580000D03*
X64770000Y-71120000D03*
X64770000Y-73660000D03*
X64770000Y-76200000D03*
X64770000Y-78740000D03*
X64770000Y-81280000D03*
X64770000Y-83820000D03*
X64770000Y-86360000D03*
X64770000Y-88900000D03*
X64770000Y-91440000D03*
X64770000Y-93980000D03*
X64770000Y-96520000D03*
X64770000Y-99060000D03*
X64770000Y-101600000D03*
X64770000Y-104140000D03*
X64770000Y-106680000D03*
X64770000Y-109220000D03*
X64770000Y-111760000D03*
X64770000Y-114300000D03*
X64770000Y-116840000D03*
X64770000Y-119380000D03*
X64770000Y-121920000D03*
X64770000Y-124460000D03*
X64770000Y-127000000D03*
X64770000Y-129540000D03*
X64770000Y-132080000D03*
X64770000Y-134620000D03*
X64770000Y-137160000D03*
X64770000Y-139700000D03*
X64770000Y-142240000D03*
X64770000Y-144780000D03*
D11*
X61930000Y-60410000D03*
X61930000Y-150410000D03*
%TD*%
D13*
%TO.C,J24*%
X69850000Y-91440000D03*
D12*
X72390000Y-91440000D03*
%TD*%
D13*
%TO.C,J25*%
X69850000Y-134620000D03*
D12*
X72390000Y-134620000D03*
%TD*%
M02*
