%TF.GenerationSoftware,KiCad,Pcbnew,(5.1.10)-1*%
%TF.CreationDate,2022-01-28T17:59:32+01:00*%
%TF.ProjectId,Backplane,4261636b-706c-4616-9e65-2e6b69636164,rev?*%
%TF.SameCoordinates,Original*%
%TF.FileFunction,Legend,Top*%
%TF.FilePolarity,Positive*%
%FSLAX46Y46*%
G04 Gerber Fmt 4.6, Leading zero omitted, Abs format (unit mm)*
G04 Created by KiCad (PCBNEW (5.1.10)-1) date 2022-01-28 17:59:32*
%MOMM*%
%LPD*%
G01*
G04 APERTURE LIST*
%ADD10C,0.120000*%
%ADD11C,0.150000*%
G04 APERTURE END LIST*
D10*
%TO.C,J1*%
X181280000Y-57800000D02*
X192100000Y-57800000D01*
X192100000Y-57800000D02*
X192100000Y-153020000D01*
X192100000Y-153020000D02*
X181280000Y-153020000D01*
X181280000Y-153020000D02*
X181280000Y-57800000D01*
X181090000Y-66040000D02*
X180410000Y-65740000D01*
X180410000Y-65740000D02*
X180410000Y-66340000D01*
X180410000Y-66340000D02*
X181090000Y-66040000D01*
X182440000Y-62909000D02*
X187940000Y-62909000D01*
X187940000Y-62909000D02*
X187940000Y-63909000D01*
X187940000Y-63909000D02*
X190940000Y-63909000D01*
X190940000Y-63909000D02*
X190940000Y-146910000D01*
X190940000Y-146910000D02*
X187940000Y-146910000D01*
X187940000Y-146910000D02*
X187940000Y-147910000D01*
X187940000Y-147910000D02*
X182440000Y-147910000D01*
X182440000Y-147910000D02*
X182440000Y-62909000D01*
%TO.C,J2*%
X195580000Y-92770000D02*
X195580000Y-90110000D01*
X195580000Y-92770000D02*
X198180000Y-92770000D01*
X198180000Y-92770000D02*
X198180000Y-90110000D01*
X195580000Y-90110000D02*
X198180000Y-90110000D01*
X192980000Y-90110000D02*
X194310000Y-90110000D01*
X192980000Y-91440000D02*
X192980000Y-90110000D01*
%TO.C,J3*%
X195580000Y-135950000D02*
X195580000Y-133290000D01*
X195580000Y-135950000D02*
X198180000Y-135950000D01*
X198180000Y-135950000D02*
X198180000Y-133290000D01*
X195580000Y-133290000D02*
X198180000Y-133290000D01*
X192980000Y-133290000D02*
X194310000Y-133290000D01*
X192980000Y-134620000D02*
X192980000Y-133290000D01*
%TO.C,J4*%
X78300000Y-147910000D02*
X78300000Y-62909000D01*
X83800000Y-147910000D02*
X78300000Y-147910000D01*
X83800000Y-146910000D02*
X83800000Y-147910000D01*
X86800000Y-146910000D02*
X83800000Y-146910000D01*
X86800000Y-63909000D02*
X86800000Y-146910000D01*
X83800000Y-63909000D02*
X86800000Y-63909000D01*
X83800000Y-62909000D02*
X83800000Y-63909000D01*
X78300000Y-62909000D02*
X83800000Y-62909000D01*
X76270000Y-66340000D02*
X76950000Y-66040000D01*
X76270000Y-65740000D02*
X76270000Y-66340000D01*
X76950000Y-66040000D02*
X76270000Y-65740000D01*
X77140000Y-153020000D02*
X77140000Y-57800000D01*
X87960000Y-153020000D02*
X77140000Y-153020000D01*
X87960000Y-57800000D02*
X87960000Y-153020000D01*
X77140000Y-57800000D02*
X87960000Y-57800000D01*
%TO.C,J5*%
X88840000Y-91440000D02*
X88840000Y-90110000D01*
X88840000Y-90110000D02*
X90170000Y-90110000D01*
X91440000Y-90110000D02*
X94040000Y-90110000D01*
X94040000Y-92770000D02*
X94040000Y-90110000D01*
X91440000Y-92770000D02*
X94040000Y-92770000D01*
X91440000Y-92770000D02*
X91440000Y-90110000D01*
%TO.C,J6*%
X88840000Y-134620000D02*
X88840000Y-133290000D01*
X88840000Y-133290000D02*
X90170000Y-133290000D01*
X91440000Y-133290000D02*
X94040000Y-133290000D01*
X94040000Y-135950000D02*
X94040000Y-133290000D01*
X91440000Y-135950000D02*
X94040000Y-135950000D01*
X91440000Y-135950000D02*
X91440000Y-133290000D01*
%TO.C,J7*%
X119050000Y-57800000D02*
X129870000Y-57800000D01*
X129870000Y-57800000D02*
X129870000Y-153020000D01*
X129870000Y-153020000D02*
X119050000Y-153020000D01*
X119050000Y-153020000D02*
X119050000Y-57800000D01*
X118860000Y-66040000D02*
X118180000Y-65740000D01*
X118180000Y-65740000D02*
X118180000Y-66340000D01*
X118180000Y-66340000D02*
X118860000Y-66040000D01*
X120210000Y-62909000D02*
X125710000Y-62909000D01*
X125710000Y-62909000D02*
X125710000Y-63909000D01*
X125710000Y-63909000D02*
X128710000Y-63909000D01*
X128710000Y-63909000D02*
X128710000Y-146910000D01*
X128710000Y-146910000D02*
X125710000Y-146910000D01*
X125710000Y-146910000D02*
X125710000Y-147910000D01*
X125710000Y-147910000D02*
X120210000Y-147910000D01*
X120210000Y-147910000D02*
X120210000Y-62909000D01*
%TO.C,J8*%
X133350000Y-92770000D02*
X133350000Y-90110000D01*
X133350000Y-92770000D02*
X135950000Y-92770000D01*
X135950000Y-92770000D02*
X135950000Y-90110000D01*
X133350000Y-90110000D02*
X135950000Y-90110000D01*
X130750000Y-90110000D02*
X132080000Y-90110000D01*
X130750000Y-91440000D02*
X130750000Y-90110000D01*
%TO.C,J9*%
X130750000Y-134620000D02*
X130750000Y-133290000D01*
X130750000Y-133290000D02*
X132080000Y-133290000D01*
X133350000Y-133290000D02*
X135950000Y-133290000D01*
X135950000Y-135950000D02*
X135950000Y-133290000D01*
X133350000Y-135950000D02*
X135950000Y-135950000D01*
X133350000Y-135950000D02*
X133350000Y-133290000D01*
%TO.C,J10*%
X204030000Y-147910000D02*
X204030000Y-62909000D01*
X209530000Y-147910000D02*
X204030000Y-147910000D01*
X209530000Y-146910000D02*
X209530000Y-147910000D01*
X212530000Y-146910000D02*
X209530000Y-146910000D01*
X212530000Y-63909000D02*
X212530000Y-146910000D01*
X209530000Y-63909000D02*
X212530000Y-63909000D01*
X209530000Y-62909000D02*
X209530000Y-63909000D01*
X204030000Y-62909000D02*
X209530000Y-62909000D01*
X202000000Y-66340000D02*
X202680000Y-66040000D01*
X202000000Y-65740000D02*
X202000000Y-66340000D01*
X202680000Y-66040000D02*
X202000000Y-65740000D01*
X202870000Y-153020000D02*
X202870000Y-57800000D01*
X213690000Y-153020000D02*
X202870000Y-153020000D01*
X213690000Y-57800000D02*
X213690000Y-153020000D01*
X202870000Y-57800000D02*
X213690000Y-57800000D01*
%TO.C,J11*%
X215900000Y-94040000D02*
X214570000Y-94040000D01*
X214570000Y-94040000D02*
X214570000Y-92710000D01*
X214570000Y-91440000D02*
X214570000Y-88840000D01*
X217230000Y-88840000D02*
X214570000Y-88840000D01*
X217230000Y-91440000D02*
X217230000Y-88840000D01*
X217230000Y-91440000D02*
X214570000Y-91440000D01*
%TO.C,J12*%
X217230000Y-133350000D02*
X214570000Y-133350000D01*
X217230000Y-133350000D02*
X217230000Y-130750000D01*
X217230000Y-130750000D02*
X214570000Y-130750000D01*
X214570000Y-133350000D02*
X214570000Y-130750000D01*
X214570000Y-135950000D02*
X214570000Y-134620000D01*
X215900000Y-135950000D02*
X214570000Y-135950000D01*
%TO.C,J13*%
X221050000Y-114670000D02*
X221050000Y-112170000D01*
X218550000Y-114670000D02*
X221050000Y-114670000D01*
X219250000Y-100150000D02*
X220750000Y-100150000D01*
X219250000Y-99150000D02*
X219250000Y-100150000D01*
X219250000Y-113370000D02*
X220750000Y-113370000D01*
X219250000Y-114370000D02*
X219250000Y-113370000D01*
X218440000Y-99650000D02*
X218440000Y-99150000D01*
X217230000Y-99650000D02*
X218440000Y-99650000D01*
X217230000Y-113870000D02*
X217230000Y-99650000D01*
X218440000Y-113870000D02*
X217230000Y-113870000D01*
X218440000Y-114370000D02*
X218440000Y-113870000D01*
X216730000Y-99150000D02*
X216730000Y-114370000D01*
X220750000Y-99150000D02*
X216730000Y-99150000D01*
X220750000Y-114370000D02*
X220750000Y-99150000D01*
X216730000Y-114370000D02*
X220750000Y-114370000D01*
%TO.C,J14*%
X159690000Y-57800000D02*
X170510000Y-57800000D01*
X170510000Y-57800000D02*
X170510000Y-153020000D01*
X170510000Y-153020000D02*
X159690000Y-153020000D01*
X159690000Y-153020000D02*
X159690000Y-57800000D01*
X159500000Y-66040000D02*
X158820000Y-65740000D01*
X158820000Y-65740000D02*
X158820000Y-66340000D01*
X158820000Y-66340000D02*
X159500000Y-66040000D01*
X160850000Y-62909000D02*
X166350000Y-62909000D01*
X166350000Y-62909000D02*
X166350000Y-63909000D01*
X166350000Y-63909000D02*
X169350000Y-63909000D01*
X169350000Y-63909000D02*
X169350000Y-146910000D01*
X169350000Y-146910000D02*
X166350000Y-146910000D01*
X166350000Y-146910000D02*
X166350000Y-147910000D01*
X166350000Y-147910000D02*
X160850000Y-147910000D01*
X160850000Y-147910000D02*
X160850000Y-62909000D01*
%TO.C,J15*%
X171390000Y-91440000D02*
X171390000Y-90110000D01*
X171390000Y-90110000D02*
X172720000Y-90110000D01*
X173990000Y-90110000D02*
X176590000Y-90110000D01*
X176590000Y-92770000D02*
X176590000Y-90110000D01*
X173990000Y-92770000D02*
X176590000Y-92770000D01*
X173990000Y-92770000D02*
X173990000Y-90110000D01*
%TO.C,J16*%
X171390000Y-134620000D02*
X171390000Y-133290000D01*
X171390000Y-133290000D02*
X172720000Y-133290000D01*
X173990000Y-133290000D02*
X176590000Y-133290000D01*
X176590000Y-135950000D02*
X176590000Y-133290000D01*
X173990000Y-135950000D02*
X176590000Y-135950000D01*
X173990000Y-135950000D02*
X173990000Y-133290000D01*
%TO.C,J17*%
X140530000Y-147910000D02*
X140530000Y-62909000D01*
X146030000Y-147910000D02*
X140530000Y-147910000D01*
X146030000Y-146910000D02*
X146030000Y-147910000D01*
X149030000Y-146910000D02*
X146030000Y-146910000D01*
X149030000Y-63909000D02*
X149030000Y-146910000D01*
X146030000Y-63909000D02*
X149030000Y-63909000D01*
X146030000Y-62909000D02*
X146030000Y-63909000D01*
X140530000Y-62909000D02*
X146030000Y-62909000D01*
X138500000Y-66340000D02*
X139180000Y-66040000D01*
X138500000Y-65740000D02*
X138500000Y-66340000D01*
X139180000Y-66040000D02*
X138500000Y-65740000D01*
X139370000Y-153020000D02*
X139370000Y-57800000D01*
X150190000Y-153020000D02*
X139370000Y-153020000D01*
X150190000Y-57800000D02*
X150190000Y-153020000D01*
X139370000Y-57800000D02*
X150190000Y-57800000D01*
%TO.C,J18*%
X153670000Y-92770000D02*
X153670000Y-90110000D01*
X153670000Y-92770000D02*
X156270000Y-92770000D01*
X156270000Y-92770000D02*
X156270000Y-90110000D01*
X153670000Y-90110000D02*
X156270000Y-90110000D01*
X151070000Y-90110000D02*
X152400000Y-90110000D01*
X151070000Y-91440000D02*
X151070000Y-90110000D01*
%TO.C,J19*%
X154940000Y-135950000D02*
X154940000Y-133290000D01*
X154940000Y-135950000D02*
X157540000Y-135950000D01*
X157540000Y-135950000D02*
X157540000Y-133290000D01*
X154940000Y-133290000D02*
X157540000Y-133290000D01*
X152340000Y-133290000D02*
X153670000Y-133290000D01*
X152340000Y-134620000D02*
X152340000Y-133290000D01*
%TO.C,J20*%
X99890000Y-147910000D02*
X99890000Y-62909000D01*
X105390000Y-147910000D02*
X99890000Y-147910000D01*
X105390000Y-146910000D02*
X105390000Y-147910000D01*
X108390000Y-146910000D02*
X105390000Y-146910000D01*
X108390000Y-63909000D02*
X108390000Y-146910000D01*
X105390000Y-63909000D02*
X108390000Y-63909000D01*
X105390000Y-62909000D02*
X105390000Y-63909000D01*
X99890000Y-62909000D02*
X105390000Y-62909000D01*
X97860000Y-66340000D02*
X98540000Y-66040000D01*
X97860000Y-65740000D02*
X97860000Y-66340000D01*
X98540000Y-66040000D02*
X97860000Y-65740000D01*
X98730000Y-153020000D02*
X98730000Y-57800000D01*
X109550000Y-153020000D02*
X98730000Y-153020000D01*
X109550000Y-57800000D02*
X109550000Y-153020000D01*
X98730000Y-57800000D02*
X109550000Y-57800000D01*
%TO.C,J21*%
X113030000Y-92770000D02*
X113030000Y-90110000D01*
X113030000Y-92770000D02*
X115630000Y-92770000D01*
X115630000Y-92770000D02*
X115630000Y-90110000D01*
X113030000Y-90110000D02*
X115630000Y-90110000D01*
X110430000Y-90110000D02*
X111760000Y-90110000D01*
X110430000Y-91440000D02*
X110430000Y-90110000D01*
%TO.C,J22*%
X113030000Y-135950000D02*
X113030000Y-133290000D01*
X113030000Y-135950000D02*
X115630000Y-135950000D01*
X115630000Y-135950000D02*
X115630000Y-133290000D01*
X113030000Y-133290000D02*
X115630000Y-133290000D01*
X110430000Y-133290000D02*
X111760000Y-133290000D01*
X110430000Y-134620000D02*
X110430000Y-133290000D01*
%TO.C,J23*%
X56820000Y-57800000D02*
X67640000Y-57800000D01*
X67640000Y-57800000D02*
X67640000Y-153020000D01*
X67640000Y-153020000D02*
X56820000Y-153020000D01*
X56820000Y-153020000D02*
X56820000Y-57800000D01*
X56630000Y-66040000D02*
X55950000Y-65740000D01*
X55950000Y-65740000D02*
X55950000Y-66340000D01*
X55950000Y-66340000D02*
X56630000Y-66040000D01*
X57980000Y-62909000D02*
X63480000Y-62909000D01*
X63480000Y-62909000D02*
X63480000Y-63909000D01*
X63480000Y-63909000D02*
X66480000Y-63909000D01*
X66480000Y-63909000D02*
X66480000Y-146910000D01*
X66480000Y-146910000D02*
X63480000Y-146910000D01*
X63480000Y-146910000D02*
X63480000Y-147910000D01*
X63480000Y-147910000D02*
X57980000Y-147910000D01*
X57980000Y-147910000D02*
X57980000Y-62909000D01*
%TO.C,J24*%
X68520000Y-91440000D02*
X68520000Y-90110000D01*
X68520000Y-90110000D02*
X69850000Y-90110000D01*
X71120000Y-90110000D02*
X73720000Y-90110000D01*
X73720000Y-92770000D02*
X73720000Y-90110000D01*
X71120000Y-92770000D02*
X73720000Y-92770000D01*
X71120000Y-92770000D02*
X71120000Y-90110000D01*
%TO.C,J25*%
X68520000Y-134620000D02*
X68520000Y-133290000D01*
X68520000Y-133290000D02*
X69850000Y-133290000D01*
X71120000Y-133290000D02*
X73720000Y-133290000D01*
X73720000Y-135950000D02*
X73720000Y-133290000D01*
X71120000Y-135950000D02*
X73720000Y-135950000D01*
X71120000Y-135950000D02*
X71120000Y-133290000D01*
%TO.C,J1*%
D11*
X186356666Y-56362380D02*
X186356666Y-57076666D01*
X186309047Y-57219523D01*
X186213809Y-57314761D01*
X186070952Y-57362380D01*
X185975714Y-57362380D01*
X187356666Y-57362380D02*
X186785238Y-57362380D01*
X187070952Y-57362380D02*
X187070952Y-56362380D01*
X186975714Y-56505238D01*
X186880476Y-56600476D01*
X186785238Y-56648095D01*
%TO.C,J2*%
X190992380Y-91773333D02*
X191706666Y-91773333D01*
X191849523Y-91820952D01*
X191944761Y-91916190D01*
X191992380Y-92059047D01*
X191992380Y-92154285D01*
X191087619Y-91344761D02*
X191040000Y-91297142D01*
X190992380Y-91201904D01*
X190992380Y-90963809D01*
X191040000Y-90868571D01*
X191087619Y-90820952D01*
X191182857Y-90773333D01*
X191278095Y-90773333D01*
X191420952Y-90820952D01*
X191992380Y-91392380D01*
X191992380Y-90773333D01*
%TO.C,J3*%
X190992380Y-134953333D02*
X191706666Y-134953333D01*
X191849523Y-135000952D01*
X191944761Y-135096190D01*
X191992380Y-135239047D01*
X191992380Y-135334285D01*
X190992380Y-134572380D02*
X190992380Y-133953333D01*
X191373333Y-134286666D01*
X191373333Y-134143809D01*
X191420952Y-134048571D01*
X191468571Y-134000952D01*
X191563809Y-133953333D01*
X191801904Y-133953333D01*
X191897142Y-134000952D01*
X191944761Y-134048571D01*
X191992380Y-134143809D01*
X191992380Y-134429523D01*
X191944761Y-134524761D01*
X191897142Y-134572380D01*
%TO.C,J4*%
X82216666Y-56362380D02*
X82216666Y-57076666D01*
X82169047Y-57219523D01*
X82073809Y-57314761D01*
X81930952Y-57362380D01*
X81835714Y-57362380D01*
X83121428Y-56695714D02*
X83121428Y-57362380D01*
X82883333Y-56314761D02*
X82645238Y-57029047D01*
X83264285Y-57029047D01*
%TO.C,J5*%
X86852380Y-91773333D02*
X87566666Y-91773333D01*
X87709523Y-91820952D01*
X87804761Y-91916190D01*
X87852380Y-92059047D01*
X87852380Y-92154285D01*
X86852380Y-90820952D02*
X86852380Y-91297142D01*
X87328571Y-91344761D01*
X87280952Y-91297142D01*
X87233333Y-91201904D01*
X87233333Y-90963809D01*
X87280952Y-90868571D01*
X87328571Y-90820952D01*
X87423809Y-90773333D01*
X87661904Y-90773333D01*
X87757142Y-90820952D01*
X87804761Y-90868571D01*
X87852380Y-90963809D01*
X87852380Y-91201904D01*
X87804761Y-91297142D01*
X87757142Y-91344761D01*
%TO.C,J6*%
X86852380Y-134953333D02*
X87566666Y-134953333D01*
X87709523Y-135000952D01*
X87804761Y-135096190D01*
X87852380Y-135239047D01*
X87852380Y-135334285D01*
X86852380Y-134048571D02*
X86852380Y-134239047D01*
X86900000Y-134334285D01*
X86947619Y-134381904D01*
X87090476Y-134477142D01*
X87280952Y-134524761D01*
X87661904Y-134524761D01*
X87757142Y-134477142D01*
X87804761Y-134429523D01*
X87852380Y-134334285D01*
X87852380Y-134143809D01*
X87804761Y-134048571D01*
X87757142Y-134000952D01*
X87661904Y-133953333D01*
X87423809Y-133953333D01*
X87328571Y-134000952D01*
X87280952Y-134048571D01*
X87233333Y-134143809D01*
X87233333Y-134334285D01*
X87280952Y-134429523D01*
X87328571Y-134477142D01*
X87423809Y-134524761D01*
%TO.C,J7*%
X124126666Y-56362380D02*
X124126666Y-57076666D01*
X124079047Y-57219523D01*
X123983809Y-57314761D01*
X123840952Y-57362380D01*
X123745714Y-57362380D01*
X124507619Y-56362380D02*
X125174285Y-56362380D01*
X124745714Y-57362380D01*
%TO.C,J8*%
X128762380Y-91773333D02*
X129476666Y-91773333D01*
X129619523Y-91820952D01*
X129714761Y-91916190D01*
X129762380Y-92059047D01*
X129762380Y-92154285D01*
X129190952Y-91154285D02*
X129143333Y-91249523D01*
X129095714Y-91297142D01*
X129000476Y-91344761D01*
X128952857Y-91344761D01*
X128857619Y-91297142D01*
X128810000Y-91249523D01*
X128762380Y-91154285D01*
X128762380Y-90963809D01*
X128810000Y-90868571D01*
X128857619Y-90820952D01*
X128952857Y-90773333D01*
X129000476Y-90773333D01*
X129095714Y-90820952D01*
X129143333Y-90868571D01*
X129190952Y-90963809D01*
X129190952Y-91154285D01*
X129238571Y-91249523D01*
X129286190Y-91297142D01*
X129381428Y-91344761D01*
X129571904Y-91344761D01*
X129667142Y-91297142D01*
X129714761Y-91249523D01*
X129762380Y-91154285D01*
X129762380Y-90963809D01*
X129714761Y-90868571D01*
X129667142Y-90820952D01*
X129571904Y-90773333D01*
X129381428Y-90773333D01*
X129286190Y-90820952D01*
X129238571Y-90868571D01*
X129190952Y-90963809D01*
%TO.C,J9*%
X128762380Y-134953333D02*
X129476666Y-134953333D01*
X129619523Y-135000952D01*
X129714761Y-135096190D01*
X129762380Y-135239047D01*
X129762380Y-135334285D01*
X129762380Y-134429523D02*
X129762380Y-134239047D01*
X129714761Y-134143809D01*
X129667142Y-134096190D01*
X129524285Y-134000952D01*
X129333809Y-133953333D01*
X128952857Y-133953333D01*
X128857619Y-134000952D01*
X128810000Y-134048571D01*
X128762380Y-134143809D01*
X128762380Y-134334285D01*
X128810000Y-134429523D01*
X128857619Y-134477142D01*
X128952857Y-134524761D01*
X129190952Y-134524761D01*
X129286190Y-134477142D01*
X129333809Y-134429523D01*
X129381428Y-134334285D01*
X129381428Y-134143809D01*
X129333809Y-134048571D01*
X129286190Y-134000952D01*
X129190952Y-133953333D01*
%TO.C,J10*%
X207470476Y-56362380D02*
X207470476Y-57076666D01*
X207422857Y-57219523D01*
X207327619Y-57314761D01*
X207184761Y-57362380D01*
X207089523Y-57362380D01*
X208470476Y-57362380D02*
X207899047Y-57362380D01*
X208184761Y-57362380D02*
X208184761Y-56362380D01*
X208089523Y-56505238D01*
X207994285Y-56600476D01*
X207899047Y-56648095D01*
X209089523Y-56362380D02*
X209184761Y-56362380D01*
X209280000Y-56410000D01*
X209327619Y-56457619D01*
X209375238Y-56552857D01*
X209422857Y-56743333D01*
X209422857Y-56981428D01*
X209375238Y-57171904D01*
X209327619Y-57267142D01*
X209280000Y-57314761D01*
X209184761Y-57362380D01*
X209089523Y-57362380D01*
X208994285Y-57314761D01*
X208946666Y-57267142D01*
X208899047Y-57171904D01*
X208851428Y-56981428D01*
X208851428Y-56743333D01*
X208899047Y-56552857D01*
X208946666Y-56457619D01*
X208994285Y-56410000D01*
X209089523Y-56362380D01*
%TO.C,J11*%
X215090476Y-94932380D02*
X215090476Y-95646666D01*
X215042857Y-95789523D01*
X214947619Y-95884761D01*
X214804761Y-95932380D01*
X214709523Y-95932380D01*
X216090476Y-95932380D02*
X215519047Y-95932380D01*
X215804761Y-95932380D02*
X215804761Y-94932380D01*
X215709523Y-95075238D01*
X215614285Y-95170476D01*
X215519047Y-95218095D01*
X217042857Y-95932380D02*
X216471428Y-95932380D01*
X216757142Y-95932380D02*
X216757142Y-94932380D01*
X216661904Y-95075238D01*
X216566666Y-95170476D01*
X216471428Y-95218095D01*
%TO.C,J12*%
X215090476Y-136842380D02*
X215090476Y-137556666D01*
X215042857Y-137699523D01*
X214947619Y-137794761D01*
X214804761Y-137842380D01*
X214709523Y-137842380D01*
X216090476Y-137842380D02*
X215519047Y-137842380D01*
X215804761Y-137842380D02*
X215804761Y-136842380D01*
X215709523Y-136985238D01*
X215614285Y-137080476D01*
X215519047Y-137128095D01*
X216471428Y-136937619D02*
X216519047Y-136890000D01*
X216614285Y-136842380D01*
X216852380Y-136842380D01*
X216947619Y-136890000D01*
X216995238Y-136937619D01*
X217042857Y-137032857D01*
X217042857Y-137128095D01*
X216995238Y-137270952D01*
X216423809Y-137842380D01*
X217042857Y-137842380D01*
%TO.C,J13*%
X215092380Y-107569523D02*
X215806666Y-107569523D01*
X215949523Y-107617142D01*
X216044761Y-107712380D01*
X216092380Y-107855238D01*
X216092380Y-107950476D01*
X216092380Y-106569523D02*
X216092380Y-107140952D01*
X216092380Y-106855238D02*
X215092380Y-106855238D01*
X215235238Y-106950476D01*
X215330476Y-107045714D01*
X215378095Y-107140952D01*
X215092380Y-106236190D02*
X215092380Y-105617142D01*
X215473333Y-105950476D01*
X215473333Y-105807619D01*
X215520952Y-105712380D01*
X215568571Y-105664761D01*
X215663809Y-105617142D01*
X215901904Y-105617142D01*
X215997142Y-105664761D01*
X216044761Y-105712380D01*
X216092380Y-105807619D01*
X216092380Y-106093333D01*
X216044761Y-106188571D01*
X215997142Y-106236190D01*
%TO.C,J14*%
X164290476Y-56362380D02*
X164290476Y-57076666D01*
X164242857Y-57219523D01*
X164147619Y-57314761D01*
X164004761Y-57362380D01*
X163909523Y-57362380D01*
X165290476Y-57362380D02*
X164719047Y-57362380D01*
X165004761Y-57362380D02*
X165004761Y-56362380D01*
X164909523Y-56505238D01*
X164814285Y-56600476D01*
X164719047Y-56648095D01*
X166147619Y-56695714D02*
X166147619Y-57362380D01*
X165909523Y-56314761D02*
X165671428Y-57029047D01*
X166290476Y-57029047D01*
%TO.C,J15*%
X169402380Y-92249523D02*
X170116666Y-92249523D01*
X170259523Y-92297142D01*
X170354761Y-92392380D01*
X170402380Y-92535238D01*
X170402380Y-92630476D01*
X170402380Y-91249523D02*
X170402380Y-91820952D01*
X170402380Y-91535238D02*
X169402380Y-91535238D01*
X169545238Y-91630476D01*
X169640476Y-91725714D01*
X169688095Y-91820952D01*
X169402380Y-90344761D02*
X169402380Y-90820952D01*
X169878571Y-90868571D01*
X169830952Y-90820952D01*
X169783333Y-90725714D01*
X169783333Y-90487619D01*
X169830952Y-90392380D01*
X169878571Y-90344761D01*
X169973809Y-90297142D01*
X170211904Y-90297142D01*
X170307142Y-90344761D01*
X170354761Y-90392380D01*
X170402380Y-90487619D01*
X170402380Y-90725714D01*
X170354761Y-90820952D01*
X170307142Y-90868571D01*
%TO.C,J16*%
X169402380Y-135429523D02*
X170116666Y-135429523D01*
X170259523Y-135477142D01*
X170354761Y-135572380D01*
X170402380Y-135715238D01*
X170402380Y-135810476D01*
X170402380Y-134429523D02*
X170402380Y-135000952D01*
X170402380Y-134715238D02*
X169402380Y-134715238D01*
X169545238Y-134810476D01*
X169640476Y-134905714D01*
X169688095Y-135000952D01*
X169402380Y-133572380D02*
X169402380Y-133762857D01*
X169450000Y-133858095D01*
X169497619Y-133905714D01*
X169640476Y-134000952D01*
X169830952Y-134048571D01*
X170211904Y-134048571D01*
X170307142Y-134000952D01*
X170354761Y-133953333D01*
X170402380Y-133858095D01*
X170402380Y-133667619D01*
X170354761Y-133572380D01*
X170307142Y-133524761D01*
X170211904Y-133477142D01*
X169973809Y-133477142D01*
X169878571Y-133524761D01*
X169830952Y-133572380D01*
X169783333Y-133667619D01*
X169783333Y-133858095D01*
X169830952Y-133953333D01*
X169878571Y-134000952D01*
X169973809Y-134048571D01*
%TO.C,J17*%
X143970476Y-56362380D02*
X143970476Y-57076666D01*
X143922857Y-57219523D01*
X143827619Y-57314761D01*
X143684761Y-57362380D01*
X143589523Y-57362380D01*
X144970476Y-57362380D02*
X144399047Y-57362380D01*
X144684761Y-57362380D02*
X144684761Y-56362380D01*
X144589523Y-56505238D01*
X144494285Y-56600476D01*
X144399047Y-56648095D01*
X145303809Y-56362380D02*
X145970476Y-56362380D01*
X145541904Y-57362380D01*
%TO.C,J18*%
X149082380Y-92249523D02*
X149796666Y-92249523D01*
X149939523Y-92297142D01*
X150034761Y-92392380D01*
X150082380Y-92535238D01*
X150082380Y-92630476D01*
X150082380Y-91249523D02*
X150082380Y-91820952D01*
X150082380Y-91535238D02*
X149082380Y-91535238D01*
X149225238Y-91630476D01*
X149320476Y-91725714D01*
X149368095Y-91820952D01*
X149510952Y-90678095D02*
X149463333Y-90773333D01*
X149415714Y-90820952D01*
X149320476Y-90868571D01*
X149272857Y-90868571D01*
X149177619Y-90820952D01*
X149130000Y-90773333D01*
X149082380Y-90678095D01*
X149082380Y-90487619D01*
X149130000Y-90392380D01*
X149177619Y-90344761D01*
X149272857Y-90297142D01*
X149320476Y-90297142D01*
X149415714Y-90344761D01*
X149463333Y-90392380D01*
X149510952Y-90487619D01*
X149510952Y-90678095D01*
X149558571Y-90773333D01*
X149606190Y-90820952D01*
X149701428Y-90868571D01*
X149891904Y-90868571D01*
X149987142Y-90820952D01*
X150034761Y-90773333D01*
X150082380Y-90678095D01*
X150082380Y-90487619D01*
X150034761Y-90392380D01*
X149987142Y-90344761D01*
X149891904Y-90297142D01*
X149701428Y-90297142D01*
X149606190Y-90344761D01*
X149558571Y-90392380D01*
X149510952Y-90487619D01*
%TO.C,J19*%
X150352380Y-135429523D02*
X151066666Y-135429523D01*
X151209523Y-135477142D01*
X151304761Y-135572380D01*
X151352380Y-135715238D01*
X151352380Y-135810476D01*
X151352380Y-134429523D02*
X151352380Y-135000952D01*
X151352380Y-134715238D02*
X150352380Y-134715238D01*
X150495238Y-134810476D01*
X150590476Y-134905714D01*
X150638095Y-135000952D01*
X151352380Y-133953333D02*
X151352380Y-133762857D01*
X151304761Y-133667619D01*
X151257142Y-133620000D01*
X151114285Y-133524761D01*
X150923809Y-133477142D01*
X150542857Y-133477142D01*
X150447619Y-133524761D01*
X150400000Y-133572380D01*
X150352380Y-133667619D01*
X150352380Y-133858095D01*
X150400000Y-133953333D01*
X150447619Y-134000952D01*
X150542857Y-134048571D01*
X150780952Y-134048571D01*
X150876190Y-134000952D01*
X150923809Y-133953333D01*
X150971428Y-133858095D01*
X150971428Y-133667619D01*
X150923809Y-133572380D01*
X150876190Y-133524761D01*
X150780952Y-133477142D01*
%TO.C,J20*%
X103330476Y-56362380D02*
X103330476Y-57076666D01*
X103282857Y-57219523D01*
X103187619Y-57314761D01*
X103044761Y-57362380D01*
X102949523Y-57362380D01*
X103759047Y-56457619D02*
X103806666Y-56410000D01*
X103901904Y-56362380D01*
X104140000Y-56362380D01*
X104235238Y-56410000D01*
X104282857Y-56457619D01*
X104330476Y-56552857D01*
X104330476Y-56648095D01*
X104282857Y-56790952D01*
X103711428Y-57362380D01*
X104330476Y-57362380D01*
X104949523Y-56362380D02*
X105044761Y-56362380D01*
X105140000Y-56410000D01*
X105187619Y-56457619D01*
X105235238Y-56552857D01*
X105282857Y-56743333D01*
X105282857Y-56981428D01*
X105235238Y-57171904D01*
X105187619Y-57267142D01*
X105140000Y-57314761D01*
X105044761Y-57362380D01*
X104949523Y-57362380D01*
X104854285Y-57314761D01*
X104806666Y-57267142D01*
X104759047Y-57171904D01*
X104711428Y-56981428D01*
X104711428Y-56743333D01*
X104759047Y-56552857D01*
X104806666Y-56457619D01*
X104854285Y-56410000D01*
X104949523Y-56362380D01*
%TO.C,J21*%
X108442380Y-92249523D02*
X109156666Y-92249523D01*
X109299523Y-92297142D01*
X109394761Y-92392380D01*
X109442380Y-92535238D01*
X109442380Y-92630476D01*
X108537619Y-91820952D02*
X108490000Y-91773333D01*
X108442380Y-91678095D01*
X108442380Y-91440000D01*
X108490000Y-91344761D01*
X108537619Y-91297142D01*
X108632857Y-91249523D01*
X108728095Y-91249523D01*
X108870952Y-91297142D01*
X109442380Y-91868571D01*
X109442380Y-91249523D01*
X109442380Y-90297142D02*
X109442380Y-90868571D01*
X109442380Y-90582857D02*
X108442380Y-90582857D01*
X108585238Y-90678095D01*
X108680476Y-90773333D01*
X108728095Y-90868571D01*
%TO.C,J22*%
X108442380Y-135429523D02*
X109156666Y-135429523D01*
X109299523Y-135477142D01*
X109394761Y-135572380D01*
X109442380Y-135715238D01*
X109442380Y-135810476D01*
X108537619Y-135000952D02*
X108490000Y-134953333D01*
X108442380Y-134858095D01*
X108442380Y-134620000D01*
X108490000Y-134524761D01*
X108537619Y-134477142D01*
X108632857Y-134429523D01*
X108728095Y-134429523D01*
X108870952Y-134477142D01*
X109442380Y-135048571D01*
X109442380Y-134429523D01*
X108537619Y-134048571D02*
X108490000Y-134000952D01*
X108442380Y-133905714D01*
X108442380Y-133667619D01*
X108490000Y-133572380D01*
X108537619Y-133524761D01*
X108632857Y-133477142D01*
X108728095Y-133477142D01*
X108870952Y-133524761D01*
X109442380Y-134096190D01*
X109442380Y-133477142D01*
%TO.C,J23*%
X61420476Y-56362380D02*
X61420476Y-57076666D01*
X61372857Y-57219523D01*
X61277619Y-57314761D01*
X61134761Y-57362380D01*
X61039523Y-57362380D01*
X61849047Y-56457619D02*
X61896666Y-56410000D01*
X61991904Y-56362380D01*
X62230000Y-56362380D01*
X62325238Y-56410000D01*
X62372857Y-56457619D01*
X62420476Y-56552857D01*
X62420476Y-56648095D01*
X62372857Y-56790952D01*
X61801428Y-57362380D01*
X62420476Y-57362380D01*
X62753809Y-56362380D02*
X63372857Y-56362380D01*
X63039523Y-56743333D01*
X63182380Y-56743333D01*
X63277619Y-56790952D01*
X63325238Y-56838571D01*
X63372857Y-56933809D01*
X63372857Y-57171904D01*
X63325238Y-57267142D01*
X63277619Y-57314761D01*
X63182380Y-57362380D01*
X62896666Y-57362380D01*
X62801428Y-57314761D01*
X62753809Y-57267142D01*
%TO.C,J24*%
X66532380Y-92249523D02*
X67246666Y-92249523D01*
X67389523Y-92297142D01*
X67484761Y-92392380D01*
X67532380Y-92535238D01*
X67532380Y-92630476D01*
X66627619Y-91820952D02*
X66580000Y-91773333D01*
X66532380Y-91678095D01*
X66532380Y-91440000D01*
X66580000Y-91344761D01*
X66627619Y-91297142D01*
X66722857Y-91249523D01*
X66818095Y-91249523D01*
X66960952Y-91297142D01*
X67532380Y-91868571D01*
X67532380Y-91249523D01*
X66865714Y-90392380D02*
X67532380Y-90392380D01*
X66484761Y-90630476D02*
X67199047Y-90868571D01*
X67199047Y-90249523D01*
%TO.C,J25*%
X66532380Y-135429523D02*
X67246666Y-135429523D01*
X67389523Y-135477142D01*
X67484761Y-135572380D01*
X67532380Y-135715238D01*
X67532380Y-135810476D01*
X66627619Y-135000952D02*
X66580000Y-134953333D01*
X66532380Y-134858095D01*
X66532380Y-134620000D01*
X66580000Y-134524761D01*
X66627619Y-134477142D01*
X66722857Y-134429523D01*
X66818095Y-134429523D01*
X66960952Y-134477142D01*
X67532380Y-135048571D01*
X67532380Y-134429523D01*
X66532380Y-133524761D02*
X66532380Y-134000952D01*
X67008571Y-134048571D01*
X66960952Y-134000952D01*
X66913333Y-133905714D01*
X66913333Y-133667619D01*
X66960952Y-133572380D01*
X67008571Y-133524761D01*
X67103809Y-133477142D01*
X67341904Y-133477142D01*
X67437142Y-133524761D01*
X67484761Y-133572380D01*
X67532380Y-133667619D01*
X67532380Y-133905714D01*
X67484761Y-134000952D01*
X67437142Y-134048571D01*
%TD*%
M02*
