%TF.GenerationSoftware,KiCad,Pcbnew,(5.1.10)-1*%
%TF.CreationDate,2022-01-28T17:59:32+01:00*%
%TF.ProjectId,Backplane,4261636b-706c-4616-9e65-2e6b69636164,rev?*%
%TF.SameCoordinates,Original*%
%TF.FileFunction,Copper,L1,Top*%
%TF.FilePolarity,Positive*%
%FSLAX46Y46*%
G04 Gerber Fmt 4.6, Leading zero omitted, Abs format (unit mm)*
G04 Created by KiCad (PCBNEW (5.1.10)-1) date 2022-01-28 17:59:32*
%MOMM*%
%LPD*%
G01*
G04 APERTURE LIST*
%TA.AperFunction,ComponentPad*%
%ADD10C,1.550000*%
%TD*%
%TA.AperFunction,ComponentPad*%
%ADD11O,1.700000X1.700000*%
%TD*%
%TA.AperFunction,ComponentPad*%
%ADD12R,1.700000X1.700000*%
%TD*%
%TA.AperFunction,ComponentPad*%
%ADD13O,1.950000X1.700000*%
%TD*%
%TA.AperFunction,Conductor*%
%ADD14C,0.250000*%
%TD*%
G04 APERTURE END LIST*
%TO.P,J1,A1*%
%TO.N,N/C*%
%TA.AperFunction,ComponentPad*%
G36*
G01*
X183375000Y-66565450D02*
X183375000Y-65514550D01*
G75*
G02*
X183624550Y-65265000I249550J0D01*
G01*
X184675450Y-65265000D01*
G75*
G02*
X184925000Y-65514550I0J-249550D01*
G01*
X184925000Y-66565450D01*
G75*
G02*
X184675450Y-66815000I-249550J0D01*
G01*
X183624550Y-66815000D01*
G75*
G02*
X183375000Y-66565450I0J249550D01*
G01*
G37*
%TD.AperFunction*%
D10*
%TO.P,J1,A2*%
%TO.N,GND*%
X184150000Y-68580000D03*
%TO.P,J1,A3*%
X184150000Y-71120000D03*
%TO.P,J1,A4*%
%TO.N,Net-(J1-PadA4)*%
X184150000Y-73660000D03*
%TO.P,J1,A5*%
%TO.N,Net-(J1-PadA5)*%
X184150000Y-76200000D03*
%TO.P,J1,A6*%
%TO.N,Net-(J1-PadA6)*%
X184150000Y-78740000D03*
%TO.P,J1,A7*%
%TO.N,Net-(J1-PadA7)*%
X184150000Y-81280000D03*
%TO.P,J1,A8*%
%TO.N,Net-(J1-PadA8)*%
X184150000Y-83820000D03*
%TO.P,J1,A9*%
%TO.N,Net-(J1-PadA9)*%
X184150000Y-86360000D03*
%TO.P,J1,A10*%
%TO.N,Net-(J1-PadA10)*%
X184150000Y-88900000D03*
%TO.P,J1,A11*%
%TO.N,Net-(J1-PadA11)*%
X184150000Y-91440000D03*
%TO.P,J1,A12*%
%TO.N,Net-(J1-PadA12)*%
X184150000Y-93980000D03*
%TO.P,J1,A13*%
%TO.N,Net-(J1-PadA13)*%
X184150000Y-96520000D03*
%TO.P,J1,A14*%
%TO.N,Net-(J1-PadA14)*%
X184150000Y-99060000D03*
%TO.P,J1,A15*%
%TO.N,Net-(J1-PadA15)*%
X184150000Y-101600000D03*
%TO.P,J1,A16*%
%TO.N,-5V*%
X184150000Y-104140000D03*
%TO.P,J1,A17*%
%TO.N,Net-(J1-PadA17)*%
X184150000Y-106680000D03*
%TO.P,J1,A18*%
%TO.N,Net-(J1-PadA18)*%
X184150000Y-109220000D03*
%TO.P,J1,A19*%
%TO.N,Net-(J1-PadA19)*%
X184150000Y-111760000D03*
%TO.P,J1,A20*%
%TO.N,Net-(J1-PadA20)*%
X184150000Y-114300000D03*
%TO.P,J1,A21*%
%TO.N,Net-(J1-PadA21)*%
X184150000Y-116840000D03*
%TO.P,J1,A22*%
%TO.N,Net-(J1-PadA22)*%
X184150000Y-119380000D03*
%TO.P,J1,A23*%
%TO.N,Net-(J1-PadA23)*%
X184150000Y-121920000D03*
%TO.P,J1,A24*%
%TO.N,Net-(J1-PadA24)*%
X184150000Y-124460000D03*
%TO.P,J1,A25*%
%TO.N,Net-(J1-PadA25)*%
X184150000Y-127000000D03*
%TO.P,J1,A26*%
%TO.N,Net-(J1-PadA26)*%
X184150000Y-129540000D03*
%TO.P,J1,A27*%
%TO.N,Net-(J1-PadA27)*%
X184150000Y-132080000D03*
%TO.P,J1,A28*%
%TO.N,Net-(J1-PadA28)*%
X184150000Y-134620000D03*
%TO.P,J1,A29*%
%TO.N,+12P*%
X184150000Y-137160000D03*
%TO.P,J1,A30*%
%TO.N,+5P*%
X184150000Y-139700000D03*
%TO.P,J1,A31*%
%TO.N,N/C*%
X184150000Y-142240000D03*
%TO.P,J1,A32*%
X184150000Y-144780000D03*
%TO.P,J1,b1*%
X186690000Y-66040000D03*
%TO.P,J1,b2*%
X186690000Y-68580000D03*
%TO.P,J1,b3*%
X186690000Y-71120000D03*
%TO.P,J1,b4*%
X186690000Y-73660000D03*
%TO.P,J1,b5*%
X186690000Y-76200000D03*
%TO.P,J1,b6*%
X186690000Y-78740000D03*
%TO.P,J1,b7*%
X186690000Y-81280000D03*
%TO.P,J1,b8*%
X186690000Y-83820000D03*
%TO.P,J1,b9*%
X186690000Y-86360000D03*
%TO.P,J1,b10*%
X186690000Y-88900000D03*
%TO.P,J1,b11*%
X186690000Y-91440000D03*
%TO.P,J1,b12*%
X186690000Y-93980000D03*
%TO.P,J1,b13*%
X186690000Y-96520000D03*
%TO.P,J1,b14*%
X186690000Y-99060000D03*
%TO.P,J1,b15*%
X186690000Y-101600000D03*
%TO.P,J1,b16*%
X186690000Y-104140000D03*
%TO.P,J1,b17*%
X186690000Y-106680000D03*
%TO.P,J1,b18*%
X186690000Y-109220000D03*
%TO.P,J1,b19*%
X186690000Y-111760000D03*
%TO.P,J1,b20*%
X186690000Y-114300000D03*
%TO.P,J1,b21*%
X186690000Y-116840000D03*
%TO.P,J1,b22*%
X186690000Y-119380000D03*
%TO.P,J1,b23*%
X186690000Y-121920000D03*
%TO.P,J1,b24*%
X186690000Y-124460000D03*
%TO.P,J1,b25*%
X186690000Y-127000000D03*
%TO.P,J1,b26*%
X186690000Y-129540000D03*
%TO.P,J1,b27*%
X186690000Y-132080000D03*
%TO.P,J1,b28*%
X186690000Y-134620000D03*
%TO.P,J1,b29*%
X186690000Y-137160000D03*
%TO.P,J1,b30*%
X186690000Y-139700000D03*
%TO.P,J1,b31*%
X186690000Y-142240000D03*
%TO.P,J1,b32*%
X186690000Y-144780000D03*
%TO.P,J1,C1*%
X189230000Y-66040000D03*
%TO.P,J1,C2*%
%TO.N,GND*%
X189230000Y-68580000D03*
%TO.P,J1,C3*%
X189230000Y-71120000D03*
%TO.P,J1,C4*%
%TO.N,Net-(J1-PadC4)*%
X189230000Y-73660000D03*
%TO.P,J1,C5*%
%TO.N,Net-(J1-PadC5)*%
X189230000Y-76200000D03*
%TO.P,J1,C6*%
%TO.N,Net-(J1-PadC6)*%
X189230000Y-78740000D03*
%TO.P,J1,C7*%
%TO.N,Net-(J1-PadC7)*%
X189230000Y-81280000D03*
%TO.P,J1,C8*%
%TO.N,Net-(J1-PadC8)*%
X189230000Y-83820000D03*
%TO.P,J1,C9*%
%TO.N,Net-(J1-PadC9)*%
X189230000Y-86360000D03*
%TO.P,J1,C10*%
%TO.N,Net-(J1-PadC10)*%
X189230000Y-88900000D03*
%TO.P,J1,C11*%
%TO.N,Net-(J1-PadC11)*%
X189230000Y-91440000D03*
%TO.P,J1,C12*%
%TO.N,Net-(J1-PadC12)*%
X189230000Y-93980000D03*
%TO.P,J1,C13*%
%TO.N,Net-(J1-PadC13)*%
X189230000Y-96520000D03*
%TO.P,J1,C14*%
%TO.N,Net-(J1-PadC14)*%
X189230000Y-99060000D03*
%TO.P,J1,C15*%
%TO.N,Net-(J1-PadC15)*%
X189230000Y-101600000D03*
%TO.P,J1,C16*%
%TO.N,-5V*%
X189230000Y-104140000D03*
%TO.P,J1,C17*%
%TO.N,Net-(J1-PadC17)*%
X189230000Y-106680000D03*
%TO.P,J1,C18*%
%TO.N,Net-(J1-PadC18)*%
X189230000Y-109220000D03*
%TO.P,J1,C19*%
%TO.N,Net-(J1-PadC19)*%
X189230000Y-111760000D03*
%TO.P,J1,C20*%
%TO.N,Net-(J1-PadC20)*%
X189230000Y-114300000D03*
%TO.P,J1,C21*%
%TO.N,Net-(J1-PadC21)*%
X189230000Y-116840000D03*
%TO.P,J1,C22*%
%TO.N,Net-(J1-PadC22)*%
X189230000Y-119380000D03*
%TO.P,J1,C23*%
%TO.N,Net-(J1-PadC23)*%
X189230000Y-121920000D03*
%TO.P,J1,C24*%
%TO.N,Net-(J1-PadC24)*%
X189230000Y-124460000D03*
%TO.P,J1,C25*%
%TO.N,Net-(J1-PadC25)*%
X189230000Y-127000000D03*
%TO.P,J1,C26*%
%TO.N,Net-(J1-PadC26)*%
X189230000Y-129540000D03*
%TO.P,J1,C27*%
%TO.N,Net-(J1-PadC27)*%
X189230000Y-132080000D03*
%TO.P,J1,C28*%
%TO.N,Net-(J1-PadC28)*%
X189230000Y-134620000D03*
%TO.P,J1,C29*%
%TO.N,+12P*%
X189230000Y-137160000D03*
%TO.P,J1,C30*%
%TO.N,+5P*%
X189230000Y-139700000D03*
%TO.P,J1,C31*%
%TO.N,N/C*%
X189230000Y-142240000D03*
%TO.P,J1,C32*%
X189230000Y-144780000D03*
%TD*%
D11*
%TO.P,J2,2*%
%TO.N,Net-(J1-PadC11)*%
X196850000Y-91440000D03*
D12*
%TO.P,J2,1*%
%TO.N,Net-(J1-PadA11)*%
X194310000Y-91440000D03*
%TD*%
D11*
%TO.P,J3,2*%
%TO.N,Net-(J1-PadC28)*%
X196850000Y-134620000D03*
D12*
%TO.P,J3,1*%
%TO.N,Net-(J1-PadA28)*%
X194310000Y-134620000D03*
%TD*%
D10*
%TO.P,J4,C32*%
%TO.N,N/C*%
X85090000Y-144780000D03*
%TO.P,J4,C31*%
X85090000Y-142240000D03*
%TO.P,J4,C30*%
%TO.N,+5P*%
X85090000Y-139700000D03*
%TO.P,J4,C29*%
%TO.N,+12P*%
X85090000Y-137160000D03*
%TO.P,J4,C28*%
%TO.N,Net-(J4-PadC28)*%
X85090000Y-134620000D03*
%TO.P,J4,C27*%
%TO.N,Net-(J1-PadC27)*%
X85090000Y-132080000D03*
%TO.P,J4,C26*%
%TO.N,Net-(J1-PadC26)*%
X85090000Y-129540000D03*
%TO.P,J4,C25*%
%TO.N,Net-(J1-PadC25)*%
X85090000Y-127000000D03*
%TO.P,J4,C24*%
%TO.N,Net-(J1-PadC24)*%
X85090000Y-124460000D03*
%TO.P,J4,C23*%
%TO.N,Net-(J1-PadC23)*%
X85090000Y-121920000D03*
%TO.P,J4,C22*%
%TO.N,Net-(J1-PadC22)*%
X85090000Y-119380000D03*
%TO.P,J4,C21*%
%TO.N,Net-(J1-PadC21)*%
X85090000Y-116840000D03*
%TO.P,J4,C20*%
%TO.N,Net-(J1-PadC20)*%
X85090000Y-114300000D03*
%TO.P,J4,C19*%
%TO.N,Net-(J1-PadC19)*%
X85090000Y-111760000D03*
%TO.P,J4,C18*%
%TO.N,Net-(J1-PadC18)*%
X85090000Y-109220000D03*
%TO.P,J4,C17*%
%TO.N,Net-(J1-PadC17)*%
X85090000Y-106680000D03*
%TO.P,J4,C16*%
%TO.N,-5V*%
X85090000Y-104140000D03*
%TO.P,J4,C15*%
%TO.N,Net-(J1-PadC15)*%
X85090000Y-101600000D03*
%TO.P,J4,C14*%
%TO.N,Net-(J1-PadC14)*%
X85090000Y-99060000D03*
%TO.P,J4,C13*%
%TO.N,Net-(J1-PadC13)*%
X85090000Y-96520000D03*
%TO.P,J4,C12*%
%TO.N,Net-(J1-PadC12)*%
X85090000Y-93980000D03*
%TO.P,J4,C11*%
%TO.N,Net-(J4-PadC11)*%
X85090000Y-91440000D03*
%TO.P,J4,C10*%
%TO.N,Net-(J1-PadC10)*%
X85090000Y-88900000D03*
%TO.P,J4,C9*%
%TO.N,Net-(J1-PadC9)*%
X85090000Y-86360000D03*
%TO.P,J4,C8*%
%TO.N,Net-(J1-PadC8)*%
X85090000Y-83820000D03*
%TO.P,J4,C7*%
%TO.N,Net-(J1-PadC7)*%
X85090000Y-81280000D03*
%TO.P,J4,C6*%
%TO.N,Net-(J1-PadC6)*%
X85090000Y-78740000D03*
%TO.P,J4,C5*%
%TO.N,Net-(J1-PadC5)*%
X85090000Y-76200000D03*
%TO.P,J4,C4*%
%TO.N,Net-(J1-PadC4)*%
X85090000Y-73660000D03*
%TO.P,J4,C3*%
%TO.N,GND*%
X85090000Y-71120000D03*
%TO.P,J4,C2*%
X85090000Y-68580000D03*
%TO.P,J4,C1*%
%TO.N,N/C*%
X85090000Y-66040000D03*
%TO.P,J4,b32*%
X82550000Y-144780000D03*
%TO.P,J4,b31*%
X82550000Y-142240000D03*
%TO.P,J4,b30*%
X82550000Y-139700000D03*
%TO.P,J4,b29*%
X82550000Y-137160000D03*
%TO.P,J4,b28*%
X82550000Y-134620000D03*
%TO.P,J4,b27*%
X82550000Y-132080000D03*
%TO.P,J4,b26*%
X82550000Y-129540000D03*
%TO.P,J4,b25*%
X82550000Y-127000000D03*
%TO.P,J4,b24*%
X82550000Y-124460000D03*
%TO.P,J4,b23*%
X82550000Y-121920000D03*
%TO.P,J4,b22*%
X82550000Y-119380000D03*
%TO.P,J4,b21*%
X82550000Y-116840000D03*
%TO.P,J4,b20*%
X82550000Y-114300000D03*
%TO.P,J4,b19*%
X82550000Y-111760000D03*
%TO.P,J4,b18*%
X82550000Y-109220000D03*
%TO.P,J4,b17*%
X82550000Y-106680000D03*
%TO.P,J4,b16*%
X82550000Y-104140000D03*
%TO.P,J4,b15*%
X82550000Y-101600000D03*
%TO.P,J4,b14*%
X82550000Y-99060000D03*
%TO.P,J4,b13*%
X82550000Y-96520000D03*
%TO.P,J4,b12*%
X82550000Y-93980000D03*
%TO.P,J4,b11*%
X82550000Y-91440000D03*
%TO.P,J4,b10*%
X82550000Y-88900000D03*
%TO.P,J4,b9*%
X82550000Y-86360000D03*
%TO.P,J4,b8*%
X82550000Y-83820000D03*
%TO.P,J4,b7*%
X82550000Y-81280000D03*
%TO.P,J4,b6*%
X82550000Y-78740000D03*
%TO.P,J4,b5*%
X82550000Y-76200000D03*
%TO.P,J4,b4*%
X82550000Y-73660000D03*
%TO.P,J4,b3*%
X82550000Y-71120000D03*
%TO.P,J4,b2*%
X82550000Y-68580000D03*
%TO.P,J4,b1*%
X82550000Y-66040000D03*
%TO.P,J4,A32*%
X80010000Y-144780000D03*
%TO.P,J4,A31*%
X80010000Y-142240000D03*
%TO.P,J4,A30*%
%TO.N,+5P*%
X80010000Y-139700000D03*
%TO.P,J4,A29*%
%TO.N,+12P*%
X80010000Y-137160000D03*
%TO.P,J4,A28*%
%TO.N,Net-(J4-PadA28)*%
X80010000Y-134620000D03*
%TO.P,J4,A27*%
%TO.N,Net-(J1-PadA27)*%
X80010000Y-132080000D03*
%TO.P,J4,A26*%
%TO.N,Net-(J1-PadA26)*%
X80010000Y-129540000D03*
%TO.P,J4,A25*%
%TO.N,Net-(J1-PadA25)*%
X80010000Y-127000000D03*
%TO.P,J4,A24*%
%TO.N,Net-(J1-PadA24)*%
X80010000Y-124460000D03*
%TO.P,J4,A23*%
%TO.N,Net-(J1-PadA23)*%
X80010000Y-121920000D03*
%TO.P,J4,A22*%
%TO.N,Net-(J1-PadA22)*%
X80010000Y-119380000D03*
%TO.P,J4,A21*%
%TO.N,Net-(J1-PadA21)*%
X80010000Y-116840000D03*
%TO.P,J4,A20*%
%TO.N,Net-(J1-PadA20)*%
X80010000Y-114300000D03*
%TO.P,J4,A19*%
%TO.N,Net-(J1-PadA19)*%
X80010000Y-111760000D03*
%TO.P,J4,A18*%
%TO.N,Net-(J1-PadA18)*%
X80010000Y-109220000D03*
%TO.P,J4,A17*%
%TO.N,Net-(J1-PadA17)*%
X80010000Y-106680000D03*
%TO.P,J4,A16*%
%TO.N,-5V*%
X80010000Y-104140000D03*
%TO.P,J4,A15*%
%TO.N,Net-(J1-PadA15)*%
X80010000Y-101600000D03*
%TO.P,J4,A14*%
%TO.N,Net-(J1-PadA14)*%
X80010000Y-99060000D03*
%TO.P,J4,A13*%
%TO.N,Net-(J1-PadA13)*%
X80010000Y-96520000D03*
%TO.P,J4,A12*%
%TO.N,Net-(J1-PadA12)*%
X80010000Y-93980000D03*
%TO.P,J4,A11*%
%TO.N,Net-(J4-PadA11)*%
X80010000Y-91440000D03*
%TO.P,J4,A10*%
%TO.N,Net-(J1-PadA10)*%
X80010000Y-88900000D03*
%TO.P,J4,A9*%
%TO.N,Net-(J1-PadA9)*%
X80010000Y-86360000D03*
%TO.P,J4,A8*%
%TO.N,Net-(J1-PadA8)*%
X80010000Y-83820000D03*
%TO.P,J4,A7*%
%TO.N,Net-(J1-PadA7)*%
X80010000Y-81280000D03*
%TO.P,J4,A6*%
%TO.N,Net-(J1-PadA6)*%
X80010000Y-78740000D03*
%TO.P,J4,A5*%
%TO.N,Net-(J1-PadA5)*%
X80010000Y-76200000D03*
%TO.P,J4,A4*%
%TO.N,Net-(J1-PadA4)*%
X80010000Y-73660000D03*
%TO.P,J4,A3*%
%TO.N,GND*%
X80010000Y-71120000D03*
%TO.P,J4,A2*%
X80010000Y-68580000D03*
%TO.P,J4,A1*%
%TO.N,N/C*%
%TA.AperFunction,ComponentPad*%
G36*
G01*
X79235000Y-66565450D02*
X79235000Y-65514550D01*
G75*
G02*
X79484550Y-65265000I249550J0D01*
G01*
X80535450Y-65265000D01*
G75*
G02*
X80785000Y-65514550I0J-249550D01*
G01*
X80785000Y-66565450D01*
G75*
G02*
X80535450Y-66815000I-249550J0D01*
G01*
X79484550Y-66815000D01*
G75*
G02*
X79235000Y-66565450I0J249550D01*
G01*
G37*
%TD.AperFunction*%
%TD*%
D12*
%TO.P,J5,1*%
%TO.N,Net-(J4-PadA11)*%
X90170000Y-91440000D03*
D11*
%TO.P,J5,2*%
%TO.N,Net-(J4-PadC11)*%
X92710000Y-91440000D03*
%TD*%
D12*
%TO.P,J6,1*%
%TO.N,Net-(J4-PadA28)*%
X90170000Y-134620000D03*
D11*
%TO.P,J6,2*%
%TO.N,Net-(J4-PadC28)*%
X92710000Y-134620000D03*
%TD*%
%TO.P,J7,A1*%
%TO.N,N/C*%
%TA.AperFunction,ComponentPad*%
G36*
G01*
X121145000Y-66565450D02*
X121145000Y-65514550D01*
G75*
G02*
X121394550Y-65265000I249550J0D01*
G01*
X122445450Y-65265000D01*
G75*
G02*
X122695000Y-65514550I0J-249550D01*
G01*
X122695000Y-66565450D01*
G75*
G02*
X122445450Y-66815000I-249550J0D01*
G01*
X121394550Y-66815000D01*
G75*
G02*
X121145000Y-66565450I0J249550D01*
G01*
G37*
%TD.AperFunction*%
D10*
%TO.P,J7,A2*%
%TO.N,GND*%
X121920000Y-68580000D03*
%TO.P,J7,A3*%
X121920000Y-71120000D03*
%TO.P,J7,A4*%
%TO.N,Net-(J1-PadA4)*%
X121920000Y-73660000D03*
%TO.P,J7,A5*%
%TO.N,Net-(J1-PadA5)*%
X121920000Y-76200000D03*
%TO.P,J7,A6*%
%TO.N,Net-(J1-PadA6)*%
X121920000Y-78740000D03*
%TO.P,J7,A7*%
%TO.N,Net-(J1-PadA7)*%
X121920000Y-81280000D03*
%TO.P,J7,A8*%
%TO.N,Net-(J1-PadA8)*%
X121920000Y-83820000D03*
%TO.P,J7,A9*%
%TO.N,Net-(J1-PadA9)*%
X121920000Y-86360000D03*
%TO.P,J7,A10*%
%TO.N,Net-(J1-PadA10)*%
X121920000Y-88900000D03*
%TO.P,J7,A11*%
%TO.N,Net-(J7-PadA11)*%
X121920000Y-91440000D03*
%TO.P,J7,A12*%
%TO.N,Net-(J1-PadA12)*%
X121920000Y-93980000D03*
%TO.P,J7,A13*%
%TO.N,Net-(J1-PadA13)*%
X121920000Y-96520000D03*
%TO.P,J7,A14*%
%TO.N,Net-(J1-PadA14)*%
X121920000Y-99060000D03*
%TO.P,J7,A15*%
%TO.N,Net-(J1-PadA15)*%
X121920000Y-101600000D03*
%TO.P,J7,A16*%
%TO.N,-5V*%
X121920000Y-104140000D03*
%TO.P,J7,A17*%
%TO.N,Net-(J1-PadA17)*%
X121920000Y-106680000D03*
%TO.P,J7,A18*%
%TO.N,Net-(J1-PadA18)*%
X121920000Y-109220000D03*
%TO.P,J7,A19*%
%TO.N,Net-(J1-PadA19)*%
X121920000Y-111760000D03*
%TO.P,J7,A20*%
%TO.N,Net-(J1-PadA20)*%
X121920000Y-114300000D03*
%TO.P,J7,A21*%
%TO.N,Net-(J1-PadA21)*%
X121920000Y-116840000D03*
%TO.P,J7,A22*%
%TO.N,Net-(J1-PadA22)*%
X121920000Y-119380000D03*
%TO.P,J7,A23*%
%TO.N,Net-(J1-PadA23)*%
X121920000Y-121920000D03*
%TO.P,J7,A24*%
%TO.N,Net-(J1-PadA24)*%
X121920000Y-124460000D03*
%TO.P,J7,A25*%
%TO.N,Net-(J1-PadA25)*%
X121920000Y-127000000D03*
%TO.P,J7,A26*%
%TO.N,Net-(J1-PadA26)*%
X121920000Y-129540000D03*
%TO.P,J7,A27*%
%TO.N,Net-(J1-PadA27)*%
X121920000Y-132080000D03*
%TO.P,J7,A28*%
%TO.N,Net-(J7-PadA28)*%
X121920000Y-134620000D03*
%TO.P,J7,A29*%
%TO.N,+12P*%
X121920000Y-137160000D03*
%TO.P,J7,A30*%
%TO.N,+5P*%
X121920000Y-139700000D03*
%TO.P,J7,A31*%
%TO.N,N/C*%
X121920000Y-142240000D03*
%TO.P,J7,A32*%
X121920000Y-144780000D03*
%TO.P,J7,b1*%
X124460000Y-66040000D03*
%TO.P,J7,b2*%
X124460000Y-68580000D03*
%TO.P,J7,b3*%
X124460000Y-71120000D03*
%TO.P,J7,b4*%
X124460000Y-73660000D03*
%TO.P,J7,b5*%
X124460000Y-76200000D03*
%TO.P,J7,b6*%
X124460000Y-78740000D03*
%TO.P,J7,b7*%
X124460000Y-81280000D03*
%TO.P,J7,b8*%
X124460000Y-83820000D03*
%TO.P,J7,b9*%
X124460000Y-86360000D03*
%TO.P,J7,b10*%
X124460000Y-88900000D03*
%TO.P,J7,b11*%
X124460000Y-91440000D03*
%TO.P,J7,b12*%
X124460000Y-93980000D03*
%TO.P,J7,b13*%
X124460000Y-96520000D03*
%TO.P,J7,b14*%
X124460000Y-99060000D03*
%TO.P,J7,b15*%
X124460000Y-101600000D03*
%TO.P,J7,b16*%
X124460000Y-104140000D03*
%TO.P,J7,b17*%
X124460000Y-106680000D03*
%TO.P,J7,b18*%
X124460000Y-109220000D03*
%TO.P,J7,b19*%
X124460000Y-111760000D03*
%TO.P,J7,b20*%
X124460000Y-114300000D03*
%TO.P,J7,b21*%
X124460000Y-116840000D03*
%TO.P,J7,b22*%
X124460000Y-119380000D03*
%TO.P,J7,b23*%
X124460000Y-121920000D03*
%TO.P,J7,b24*%
X124460000Y-124460000D03*
%TO.P,J7,b25*%
X124460000Y-127000000D03*
%TO.P,J7,b26*%
X124460000Y-129540000D03*
%TO.P,J7,b27*%
X124460000Y-132080000D03*
%TO.P,J7,b28*%
X124460000Y-134620000D03*
%TO.P,J7,b29*%
X124460000Y-137160000D03*
%TO.P,J7,b30*%
X124460000Y-139700000D03*
%TO.P,J7,b31*%
X124460000Y-142240000D03*
%TO.P,J7,b32*%
X124460000Y-144780000D03*
%TO.P,J7,C1*%
X127000000Y-66040000D03*
%TO.P,J7,C2*%
%TO.N,GND*%
X127000000Y-68580000D03*
%TO.P,J7,C3*%
X127000000Y-71120000D03*
%TO.P,J7,C4*%
%TO.N,Net-(J1-PadC4)*%
X127000000Y-73660000D03*
%TO.P,J7,C5*%
%TO.N,Net-(J1-PadC5)*%
X127000000Y-76200000D03*
%TO.P,J7,C6*%
%TO.N,Net-(J1-PadC6)*%
X127000000Y-78740000D03*
%TO.P,J7,C7*%
%TO.N,Net-(J1-PadC7)*%
X127000000Y-81280000D03*
%TO.P,J7,C8*%
%TO.N,Net-(J1-PadC8)*%
X127000000Y-83820000D03*
%TO.P,J7,C9*%
%TO.N,Net-(J1-PadC9)*%
X127000000Y-86360000D03*
%TO.P,J7,C10*%
%TO.N,Net-(J1-PadC10)*%
X127000000Y-88900000D03*
%TO.P,J7,C11*%
%TO.N,Net-(J7-PadC11)*%
X127000000Y-91440000D03*
%TO.P,J7,C12*%
%TO.N,Net-(J1-PadC12)*%
X127000000Y-93980000D03*
%TO.P,J7,C13*%
%TO.N,Net-(J1-PadC13)*%
X127000000Y-96520000D03*
%TO.P,J7,C14*%
%TO.N,Net-(J1-PadC14)*%
X127000000Y-99060000D03*
%TO.P,J7,C15*%
%TO.N,Net-(J1-PadC15)*%
X127000000Y-101600000D03*
%TO.P,J7,C16*%
%TO.N,-5V*%
X127000000Y-104140000D03*
%TO.P,J7,C17*%
%TO.N,Net-(J1-PadC17)*%
X127000000Y-106680000D03*
%TO.P,J7,C18*%
%TO.N,Net-(J1-PadC18)*%
X127000000Y-109220000D03*
%TO.P,J7,C19*%
%TO.N,Net-(J1-PadC19)*%
X127000000Y-111760000D03*
%TO.P,J7,C20*%
%TO.N,Net-(J1-PadC20)*%
X127000000Y-114300000D03*
%TO.P,J7,C21*%
%TO.N,Net-(J1-PadC21)*%
X127000000Y-116840000D03*
%TO.P,J7,C22*%
%TO.N,Net-(J1-PadC22)*%
X127000000Y-119380000D03*
%TO.P,J7,C23*%
%TO.N,Net-(J1-PadC23)*%
X127000000Y-121920000D03*
%TO.P,J7,C24*%
%TO.N,Net-(J1-PadC24)*%
X127000000Y-124460000D03*
%TO.P,J7,C25*%
%TO.N,Net-(J1-PadC25)*%
X127000000Y-127000000D03*
%TO.P,J7,C26*%
%TO.N,Net-(J1-PadC26)*%
X127000000Y-129540000D03*
%TO.P,J7,C27*%
%TO.N,Net-(J1-PadC27)*%
X127000000Y-132080000D03*
%TO.P,J7,C28*%
%TO.N,Net-(J7-PadC28)*%
X127000000Y-134620000D03*
%TO.P,J7,C29*%
%TO.N,+12P*%
X127000000Y-137160000D03*
%TO.P,J7,C30*%
%TO.N,+5P*%
X127000000Y-139700000D03*
%TO.P,J7,C31*%
%TO.N,N/C*%
X127000000Y-142240000D03*
%TO.P,J7,C32*%
X127000000Y-144780000D03*
%TD*%
D11*
%TO.P,J8,2*%
%TO.N,Net-(J7-PadC11)*%
X134620000Y-91440000D03*
D12*
%TO.P,J8,1*%
%TO.N,Net-(J7-PadA11)*%
X132080000Y-91440000D03*
%TD*%
%TO.P,J9,1*%
%TO.N,Net-(J7-PadA28)*%
X132080000Y-134620000D03*
D11*
%TO.P,J9,2*%
%TO.N,Net-(J7-PadC28)*%
X134620000Y-134620000D03*
%TD*%
D10*
%TO.P,J10,C32*%
%TO.N,N/C*%
X210820000Y-144780000D03*
%TO.P,J10,C31*%
X210820000Y-142240000D03*
%TO.P,J10,C30*%
%TO.N,+5P*%
X210820000Y-139700000D03*
%TO.P,J10,C29*%
%TO.N,+12P*%
X210820000Y-137160000D03*
%TO.P,J10,C28*%
%TO.N,Net-(J10-PadC28)*%
X210820000Y-134620000D03*
%TO.P,J10,C27*%
%TO.N,Net-(J1-PadC27)*%
X210820000Y-132080000D03*
%TO.P,J10,C26*%
%TO.N,Net-(J1-PadC26)*%
X210820000Y-129540000D03*
%TO.P,J10,C25*%
%TO.N,Net-(J1-PadC25)*%
X210820000Y-127000000D03*
%TO.P,J10,C24*%
%TO.N,Net-(J1-PadC24)*%
X210820000Y-124460000D03*
%TO.P,J10,C23*%
%TO.N,Net-(J1-PadC23)*%
X210820000Y-121920000D03*
%TO.P,J10,C22*%
%TO.N,Net-(J1-PadC22)*%
X210820000Y-119380000D03*
%TO.P,J10,C21*%
%TO.N,Net-(J1-PadC21)*%
X210820000Y-116840000D03*
%TO.P,J10,C20*%
%TO.N,Net-(J1-PadC20)*%
X210820000Y-114300000D03*
%TO.P,J10,C19*%
%TO.N,Net-(J1-PadC19)*%
X210820000Y-111760000D03*
%TO.P,J10,C18*%
%TO.N,Net-(J1-PadC18)*%
X210820000Y-109220000D03*
%TO.P,J10,C17*%
%TO.N,Net-(J1-PadC17)*%
X210820000Y-106680000D03*
%TO.P,J10,C16*%
%TO.N,-5V*%
X210820000Y-104140000D03*
%TO.P,J10,C15*%
%TO.N,Net-(J1-PadC15)*%
X210820000Y-101600000D03*
%TO.P,J10,C14*%
%TO.N,Net-(J1-PadC14)*%
X210820000Y-99060000D03*
%TO.P,J10,C13*%
%TO.N,Net-(J1-PadC13)*%
X210820000Y-96520000D03*
%TO.P,J10,C12*%
%TO.N,Net-(J1-PadC12)*%
X210820000Y-93980000D03*
%TO.P,J10,C11*%
%TO.N,Net-(J10-PadC11)*%
X210820000Y-91440000D03*
%TO.P,J10,C10*%
%TO.N,Net-(J1-PadC10)*%
X210820000Y-88900000D03*
%TO.P,J10,C9*%
%TO.N,Net-(J1-PadC9)*%
X210820000Y-86360000D03*
%TO.P,J10,C8*%
%TO.N,Net-(J1-PadC8)*%
X210820000Y-83820000D03*
%TO.P,J10,C7*%
%TO.N,Net-(J1-PadC7)*%
X210820000Y-81280000D03*
%TO.P,J10,C6*%
%TO.N,Net-(J1-PadC6)*%
X210820000Y-78740000D03*
%TO.P,J10,C5*%
%TO.N,Net-(J1-PadC5)*%
X210820000Y-76200000D03*
%TO.P,J10,C4*%
%TO.N,Net-(J1-PadC4)*%
X210820000Y-73660000D03*
%TO.P,J10,C3*%
%TO.N,GND*%
X210820000Y-71120000D03*
%TO.P,J10,C2*%
X210820000Y-68580000D03*
%TO.P,J10,C1*%
%TO.N,N/C*%
X210820000Y-66040000D03*
%TO.P,J10,b32*%
X208280000Y-144780000D03*
%TO.P,J10,b31*%
X208280000Y-142240000D03*
%TO.P,J10,b30*%
X208280000Y-139700000D03*
%TO.P,J10,b29*%
X208280000Y-137160000D03*
%TO.P,J10,b28*%
X208280000Y-134620000D03*
%TO.P,J10,b27*%
X208280000Y-132080000D03*
%TO.P,J10,b26*%
X208280000Y-129540000D03*
%TO.P,J10,b25*%
X208280000Y-127000000D03*
%TO.P,J10,b24*%
X208280000Y-124460000D03*
%TO.P,J10,b23*%
X208280000Y-121920000D03*
%TO.P,J10,b22*%
X208280000Y-119380000D03*
%TO.P,J10,b21*%
X208280000Y-116840000D03*
%TO.P,J10,b20*%
X208280000Y-114300000D03*
%TO.P,J10,b19*%
X208280000Y-111760000D03*
%TO.P,J10,b18*%
X208280000Y-109220000D03*
%TO.P,J10,b17*%
X208280000Y-106680000D03*
%TO.P,J10,b16*%
X208280000Y-104140000D03*
%TO.P,J10,b15*%
X208280000Y-101600000D03*
%TO.P,J10,b14*%
X208280000Y-99060000D03*
%TO.P,J10,b13*%
X208280000Y-96520000D03*
%TO.P,J10,b12*%
X208280000Y-93980000D03*
%TO.P,J10,b11*%
X208280000Y-91440000D03*
%TO.P,J10,b10*%
X208280000Y-88900000D03*
%TO.P,J10,b9*%
X208280000Y-86360000D03*
%TO.P,J10,b8*%
X208280000Y-83820000D03*
%TO.P,J10,b7*%
X208280000Y-81280000D03*
%TO.P,J10,b6*%
X208280000Y-78740000D03*
%TO.P,J10,b5*%
X208280000Y-76200000D03*
%TO.P,J10,b4*%
X208280000Y-73660000D03*
%TO.P,J10,b3*%
X208280000Y-71120000D03*
%TO.P,J10,b2*%
X208280000Y-68580000D03*
%TO.P,J10,b1*%
X208280000Y-66040000D03*
%TO.P,J10,A32*%
X205740000Y-144780000D03*
%TO.P,J10,A31*%
X205740000Y-142240000D03*
%TO.P,J10,A30*%
%TO.N,+5P*%
X205740000Y-139700000D03*
%TO.P,J10,A29*%
%TO.N,+12P*%
X205740000Y-137160000D03*
%TO.P,J10,A28*%
%TO.N,Net-(J10-PadA28)*%
X205740000Y-134620000D03*
%TO.P,J10,A27*%
%TO.N,Net-(J1-PadA27)*%
X205740000Y-132080000D03*
%TO.P,J10,A26*%
%TO.N,Net-(J1-PadA26)*%
X205740000Y-129540000D03*
%TO.P,J10,A25*%
%TO.N,Net-(J1-PadA25)*%
X205740000Y-127000000D03*
%TO.P,J10,A24*%
%TO.N,Net-(J1-PadA24)*%
X205740000Y-124460000D03*
%TO.P,J10,A23*%
%TO.N,Net-(J1-PadA23)*%
X205740000Y-121920000D03*
%TO.P,J10,A22*%
%TO.N,Net-(J1-PadA22)*%
X205740000Y-119380000D03*
%TO.P,J10,A21*%
%TO.N,Net-(J1-PadA21)*%
X205740000Y-116840000D03*
%TO.P,J10,A20*%
%TO.N,Net-(J1-PadA20)*%
X205740000Y-114300000D03*
%TO.P,J10,A19*%
%TO.N,Net-(J1-PadA19)*%
X205740000Y-111760000D03*
%TO.P,J10,A18*%
%TO.N,Net-(J1-PadA18)*%
X205740000Y-109220000D03*
%TO.P,J10,A17*%
%TO.N,Net-(J1-PadA17)*%
X205740000Y-106680000D03*
%TO.P,J10,A16*%
%TO.N,-5V*%
X205740000Y-104140000D03*
%TO.P,J10,A15*%
%TO.N,Net-(J1-PadA15)*%
X205740000Y-101600000D03*
%TO.P,J10,A14*%
%TO.N,Net-(J1-PadA14)*%
X205740000Y-99060000D03*
%TO.P,J10,A13*%
%TO.N,Net-(J1-PadA13)*%
X205740000Y-96520000D03*
%TO.P,J10,A12*%
%TO.N,Net-(J1-PadA12)*%
X205740000Y-93980000D03*
%TO.P,J10,A11*%
%TO.N,Net-(J10-PadA11)*%
X205740000Y-91440000D03*
%TO.P,J10,A10*%
%TO.N,Net-(J1-PadA10)*%
X205740000Y-88900000D03*
%TO.P,J10,A9*%
%TO.N,Net-(J1-PadA9)*%
X205740000Y-86360000D03*
%TO.P,J10,A8*%
%TO.N,Net-(J1-PadA8)*%
X205740000Y-83820000D03*
%TO.P,J10,A7*%
%TO.N,Net-(J1-PadA7)*%
X205740000Y-81280000D03*
%TO.P,J10,A6*%
%TO.N,Net-(J1-PadA6)*%
X205740000Y-78740000D03*
%TO.P,J10,A5*%
%TO.N,Net-(J1-PadA5)*%
X205740000Y-76200000D03*
%TO.P,J10,A4*%
%TO.N,Net-(J1-PadA4)*%
X205740000Y-73660000D03*
%TO.P,J10,A3*%
%TO.N,GND*%
X205740000Y-71120000D03*
%TO.P,J10,A2*%
X205740000Y-68580000D03*
%TO.P,J10,A1*%
%TO.N,N/C*%
%TA.AperFunction,ComponentPad*%
G36*
G01*
X204965000Y-66565450D02*
X204965000Y-65514550D01*
G75*
G02*
X205214550Y-65265000I249550J0D01*
G01*
X206265450Y-65265000D01*
G75*
G02*
X206515000Y-65514550I0J-249550D01*
G01*
X206515000Y-66565450D01*
G75*
G02*
X206265450Y-66815000I-249550J0D01*
G01*
X205214550Y-66815000D01*
G75*
G02*
X204965000Y-66565450I0J249550D01*
G01*
G37*
%TD.AperFunction*%
%TD*%
D12*
%TO.P,J11,1*%
%TO.N,Net-(J10-PadA11)*%
X215900000Y-92710000D03*
D11*
%TO.P,J11,2*%
%TO.N,Net-(J10-PadC11)*%
X215900000Y-90170000D03*
%TD*%
%TO.P,J12,2*%
%TO.N,Net-(J10-PadC28)*%
X215900000Y-132080000D03*
D12*
%TO.P,J12,1*%
%TO.N,Net-(J10-PadA28)*%
X215900000Y-134620000D03*
%TD*%
%TO.P,J13,1*%
%TO.N,+12P*%
%TA.AperFunction,ComponentPad*%
G36*
G01*
X219165000Y-112610000D02*
X217715000Y-112610000D01*
G75*
G02*
X217465000Y-112360000I0J250000D01*
G01*
X217465000Y-111160000D01*
G75*
G02*
X217715000Y-110910000I250000J0D01*
G01*
X219165000Y-110910000D01*
G75*
G02*
X219415000Y-111160000I0J-250000D01*
G01*
X219415000Y-112360000D01*
G75*
G02*
X219165000Y-112610000I-250000J0D01*
G01*
G37*
%TD.AperFunction*%
D13*
%TO.P,J13,2*%
%TO.N,+5P*%
X218440000Y-109260000D03*
%TO.P,J13,3*%
%TO.N,-5V*%
X218440000Y-106760000D03*
%TO.P,J13,4*%
%TO.N,GND*%
X218440000Y-104260000D03*
%TO.P,J13,5*%
X218440000Y-101760000D03*
%TD*%
%TO.P,J14,A1*%
%TO.N,N/C*%
%TA.AperFunction,ComponentPad*%
G36*
G01*
X161785000Y-66565450D02*
X161785000Y-65514550D01*
G75*
G02*
X162034550Y-65265000I249550J0D01*
G01*
X163085450Y-65265000D01*
G75*
G02*
X163335000Y-65514550I0J-249550D01*
G01*
X163335000Y-66565450D01*
G75*
G02*
X163085450Y-66815000I-249550J0D01*
G01*
X162034550Y-66815000D01*
G75*
G02*
X161785000Y-66565450I0J249550D01*
G01*
G37*
%TD.AperFunction*%
D10*
%TO.P,J14,A2*%
%TO.N,GND*%
X162560000Y-68580000D03*
%TO.P,J14,A3*%
X162560000Y-71120000D03*
%TO.P,J14,A4*%
%TO.N,Net-(J1-PadA4)*%
X162560000Y-73660000D03*
%TO.P,J14,A5*%
%TO.N,Net-(J1-PadA5)*%
X162560000Y-76200000D03*
%TO.P,J14,A6*%
%TO.N,Net-(J1-PadA6)*%
X162560000Y-78740000D03*
%TO.P,J14,A7*%
%TO.N,Net-(J1-PadA7)*%
X162560000Y-81280000D03*
%TO.P,J14,A8*%
%TO.N,Net-(J1-PadA8)*%
X162560000Y-83820000D03*
%TO.P,J14,A9*%
%TO.N,Net-(J1-PadA9)*%
X162560000Y-86360000D03*
%TO.P,J14,A10*%
%TO.N,Net-(J1-PadA10)*%
X162560000Y-88900000D03*
%TO.P,J14,A11*%
%TO.N,Net-(J14-PadA11)*%
X162560000Y-91440000D03*
%TO.P,J14,A12*%
%TO.N,Net-(J1-PadA12)*%
X162560000Y-93980000D03*
%TO.P,J14,A13*%
%TO.N,Net-(J1-PadA13)*%
X162560000Y-96520000D03*
%TO.P,J14,A14*%
%TO.N,Net-(J1-PadA14)*%
X162560000Y-99060000D03*
%TO.P,J14,A15*%
%TO.N,Net-(J1-PadA15)*%
X162560000Y-101600000D03*
%TO.P,J14,A16*%
%TO.N,-5V*%
X162560000Y-104140000D03*
%TO.P,J14,A17*%
%TO.N,Net-(J1-PadA17)*%
X162560000Y-106680000D03*
%TO.P,J14,A18*%
%TO.N,Net-(J1-PadA18)*%
X162560000Y-109220000D03*
%TO.P,J14,A19*%
%TO.N,Net-(J1-PadA19)*%
X162560000Y-111760000D03*
%TO.P,J14,A20*%
%TO.N,Net-(J1-PadA20)*%
X162560000Y-114300000D03*
%TO.P,J14,A21*%
%TO.N,Net-(J1-PadA21)*%
X162560000Y-116840000D03*
%TO.P,J14,A22*%
%TO.N,Net-(J1-PadA22)*%
X162560000Y-119380000D03*
%TO.P,J14,A23*%
%TO.N,Net-(J1-PadA23)*%
X162560000Y-121920000D03*
%TO.P,J14,A24*%
%TO.N,Net-(J1-PadA24)*%
X162560000Y-124460000D03*
%TO.P,J14,A25*%
%TO.N,Net-(J1-PadA25)*%
X162560000Y-127000000D03*
%TO.P,J14,A26*%
%TO.N,Net-(J1-PadA26)*%
X162560000Y-129540000D03*
%TO.P,J14,A27*%
%TO.N,Net-(J1-PadA27)*%
X162560000Y-132080000D03*
%TO.P,J14,A28*%
%TO.N,Net-(J14-PadA28)*%
X162560000Y-134620000D03*
%TO.P,J14,A29*%
%TO.N,+12P*%
X162560000Y-137160000D03*
%TO.P,J14,A30*%
%TO.N,+5P*%
X162560000Y-139700000D03*
%TO.P,J14,A31*%
%TO.N,N/C*%
X162560000Y-142240000D03*
%TO.P,J14,A32*%
X162560000Y-144780000D03*
%TO.P,J14,b1*%
X165100000Y-66040000D03*
%TO.P,J14,b2*%
X165100000Y-68580000D03*
%TO.P,J14,b3*%
X165100000Y-71120000D03*
%TO.P,J14,b4*%
X165100000Y-73660000D03*
%TO.P,J14,b5*%
X165100000Y-76200000D03*
%TO.P,J14,b6*%
X165100000Y-78740000D03*
%TO.P,J14,b7*%
X165100000Y-81280000D03*
%TO.P,J14,b8*%
X165100000Y-83820000D03*
%TO.P,J14,b9*%
X165100000Y-86360000D03*
%TO.P,J14,b10*%
X165100000Y-88900000D03*
%TO.P,J14,b11*%
X165100000Y-91440000D03*
%TO.P,J14,b12*%
X165100000Y-93980000D03*
%TO.P,J14,b13*%
X165100000Y-96520000D03*
%TO.P,J14,b14*%
X165100000Y-99060000D03*
%TO.P,J14,b15*%
X165100000Y-101600000D03*
%TO.P,J14,b16*%
X165100000Y-104140000D03*
%TO.P,J14,b17*%
X165100000Y-106680000D03*
%TO.P,J14,b18*%
X165100000Y-109220000D03*
%TO.P,J14,b19*%
X165100000Y-111760000D03*
%TO.P,J14,b20*%
X165100000Y-114300000D03*
%TO.P,J14,b21*%
X165100000Y-116840000D03*
%TO.P,J14,b22*%
X165100000Y-119380000D03*
%TO.P,J14,b23*%
X165100000Y-121920000D03*
%TO.P,J14,b24*%
X165100000Y-124460000D03*
%TO.P,J14,b25*%
X165100000Y-127000000D03*
%TO.P,J14,b26*%
X165100000Y-129540000D03*
%TO.P,J14,b27*%
X165100000Y-132080000D03*
%TO.P,J14,b28*%
X165100000Y-134620000D03*
%TO.P,J14,b29*%
X165100000Y-137160000D03*
%TO.P,J14,b30*%
X165100000Y-139700000D03*
%TO.P,J14,b31*%
X165100000Y-142240000D03*
%TO.P,J14,b32*%
X165100000Y-144780000D03*
%TO.P,J14,C1*%
X167640000Y-66040000D03*
%TO.P,J14,C2*%
%TO.N,GND*%
X167640000Y-68580000D03*
%TO.P,J14,C3*%
X167640000Y-71120000D03*
%TO.P,J14,C4*%
%TO.N,Net-(J1-PadC4)*%
X167640000Y-73660000D03*
%TO.P,J14,C5*%
%TO.N,Net-(J1-PadC5)*%
X167640000Y-76200000D03*
%TO.P,J14,C6*%
%TO.N,Net-(J1-PadC6)*%
X167640000Y-78740000D03*
%TO.P,J14,C7*%
%TO.N,Net-(J1-PadC7)*%
X167640000Y-81280000D03*
%TO.P,J14,C8*%
%TO.N,Net-(J1-PadC8)*%
X167640000Y-83820000D03*
%TO.P,J14,C9*%
%TO.N,Net-(J1-PadC9)*%
X167640000Y-86360000D03*
%TO.P,J14,C10*%
%TO.N,Net-(J1-PadC10)*%
X167640000Y-88900000D03*
%TO.P,J14,C11*%
%TO.N,Net-(J14-PadC11)*%
X167640000Y-91440000D03*
%TO.P,J14,C12*%
%TO.N,Net-(J1-PadC12)*%
X167640000Y-93980000D03*
%TO.P,J14,C13*%
%TO.N,Net-(J1-PadC13)*%
X167640000Y-96520000D03*
%TO.P,J14,C14*%
%TO.N,Net-(J1-PadC14)*%
X167640000Y-99060000D03*
%TO.P,J14,C15*%
%TO.N,Net-(J1-PadC15)*%
X167640000Y-101600000D03*
%TO.P,J14,C16*%
%TO.N,-5V*%
X167640000Y-104140000D03*
%TO.P,J14,C17*%
%TO.N,Net-(J1-PadC17)*%
X167640000Y-106680000D03*
%TO.P,J14,C18*%
%TO.N,Net-(J1-PadC18)*%
X167640000Y-109220000D03*
%TO.P,J14,C19*%
%TO.N,Net-(J1-PadC19)*%
X167640000Y-111760000D03*
%TO.P,J14,C20*%
%TO.N,Net-(J1-PadC20)*%
X167640000Y-114300000D03*
%TO.P,J14,C21*%
%TO.N,Net-(J1-PadC21)*%
X167640000Y-116840000D03*
%TO.P,J14,C22*%
%TO.N,Net-(J1-PadC22)*%
X167640000Y-119380000D03*
%TO.P,J14,C23*%
%TO.N,Net-(J1-PadC23)*%
X167640000Y-121920000D03*
%TO.P,J14,C24*%
%TO.N,Net-(J1-PadC24)*%
X167640000Y-124460000D03*
%TO.P,J14,C25*%
%TO.N,Net-(J1-PadC25)*%
X167640000Y-127000000D03*
%TO.P,J14,C26*%
%TO.N,Net-(J1-PadC26)*%
X167640000Y-129540000D03*
%TO.P,J14,C27*%
%TO.N,Net-(J1-PadC27)*%
X167640000Y-132080000D03*
%TO.P,J14,C28*%
%TO.N,Net-(J14-PadC28)*%
X167640000Y-134620000D03*
%TO.P,J14,C29*%
%TO.N,+12P*%
X167640000Y-137160000D03*
%TO.P,J14,C30*%
%TO.N,+5P*%
X167640000Y-139700000D03*
%TO.P,J14,C31*%
%TO.N,N/C*%
X167640000Y-142240000D03*
%TO.P,J14,C32*%
X167640000Y-144780000D03*
%TD*%
D12*
%TO.P,J15,1*%
%TO.N,Net-(J14-PadA11)*%
X172720000Y-91440000D03*
D11*
%TO.P,J15,2*%
%TO.N,Net-(J14-PadC11)*%
X175260000Y-91440000D03*
%TD*%
D12*
%TO.P,J16,1*%
%TO.N,Net-(J14-PadA28)*%
X172720000Y-134620000D03*
D11*
%TO.P,J16,2*%
%TO.N,Net-(J14-PadC28)*%
X175260000Y-134620000D03*
%TD*%
D10*
%TO.P,J17,C32*%
%TO.N,N/C*%
X147320000Y-144780000D03*
%TO.P,J17,C31*%
X147320000Y-142240000D03*
%TO.P,J17,C30*%
%TO.N,+5P*%
X147320000Y-139700000D03*
%TO.P,J17,C29*%
%TO.N,+12P*%
X147320000Y-137160000D03*
%TO.P,J17,C28*%
%TO.N,Net-(J17-PadC28)*%
X147320000Y-134620000D03*
%TO.P,J17,C27*%
%TO.N,Net-(J1-PadC27)*%
X147320000Y-132080000D03*
%TO.P,J17,C26*%
%TO.N,Net-(J1-PadC26)*%
X147320000Y-129540000D03*
%TO.P,J17,C25*%
%TO.N,Net-(J1-PadC25)*%
X147320000Y-127000000D03*
%TO.P,J17,C24*%
%TO.N,Net-(J1-PadC24)*%
X147320000Y-124460000D03*
%TO.P,J17,C23*%
%TO.N,Net-(J1-PadC23)*%
X147320000Y-121920000D03*
%TO.P,J17,C22*%
%TO.N,Net-(J1-PadC22)*%
X147320000Y-119380000D03*
%TO.P,J17,C21*%
%TO.N,Net-(J1-PadC21)*%
X147320000Y-116840000D03*
%TO.P,J17,C20*%
%TO.N,Net-(J1-PadC20)*%
X147320000Y-114300000D03*
%TO.P,J17,C19*%
%TO.N,Net-(J1-PadC19)*%
X147320000Y-111760000D03*
%TO.P,J17,C18*%
%TO.N,Net-(J1-PadC18)*%
X147320000Y-109220000D03*
%TO.P,J17,C17*%
%TO.N,Net-(J1-PadC17)*%
X147320000Y-106680000D03*
%TO.P,J17,C16*%
%TO.N,-5V*%
X147320000Y-104140000D03*
%TO.P,J17,C15*%
%TO.N,Net-(J1-PadC15)*%
X147320000Y-101600000D03*
%TO.P,J17,C14*%
%TO.N,Net-(J1-PadC14)*%
X147320000Y-99060000D03*
%TO.P,J17,C13*%
%TO.N,Net-(J1-PadC13)*%
X147320000Y-96520000D03*
%TO.P,J17,C12*%
%TO.N,Net-(J1-PadC12)*%
X147320000Y-93980000D03*
%TO.P,J17,C11*%
%TO.N,Net-(J17-PadC11)*%
X147320000Y-91440000D03*
%TO.P,J17,C10*%
%TO.N,Net-(J1-PadC10)*%
X147320000Y-88900000D03*
%TO.P,J17,C9*%
%TO.N,Net-(J1-PadC9)*%
X147320000Y-86360000D03*
%TO.P,J17,C8*%
%TO.N,Net-(J1-PadC8)*%
X147320000Y-83820000D03*
%TO.P,J17,C7*%
%TO.N,Net-(J1-PadC7)*%
X147320000Y-81280000D03*
%TO.P,J17,C6*%
%TO.N,Net-(J1-PadC6)*%
X147320000Y-78740000D03*
%TO.P,J17,C5*%
%TO.N,Net-(J1-PadC5)*%
X147320000Y-76200000D03*
%TO.P,J17,C4*%
%TO.N,Net-(J1-PadC4)*%
X147320000Y-73660000D03*
%TO.P,J17,C3*%
%TO.N,GND*%
X147320000Y-71120000D03*
%TO.P,J17,C2*%
X147320000Y-68580000D03*
%TO.P,J17,C1*%
%TO.N,N/C*%
X147320000Y-66040000D03*
%TO.P,J17,b32*%
X144780000Y-144780000D03*
%TO.P,J17,b31*%
X144780000Y-142240000D03*
%TO.P,J17,b30*%
X144780000Y-139700000D03*
%TO.P,J17,b29*%
X144780000Y-137160000D03*
%TO.P,J17,b28*%
X144780000Y-134620000D03*
%TO.P,J17,b27*%
X144780000Y-132080000D03*
%TO.P,J17,b26*%
X144780000Y-129540000D03*
%TO.P,J17,b25*%
X144780000Y-127000000D03*
%TO.P,J17,b24*%
X144780000Y-124460000D03*
%TO.P,J17,b23*%
X144780000Y-121920000D03*
%TO.P,J17,b22*%
X144780000Y-119380000D03*
%TO.P,J17,b21*%
X144780000Y-116840000D03*
%TO.P,J17,b20*%
X144780000Y-114300000D03*
%TO.P,J17,b19*%
X144780000Y-111760000D03*
%TO.P,J17,b18*%
X144780000Y-109220000D03*
%TO.P,J17,b17*%
X144780000Y-106680000D03*
%TO.P,J17,b16*%
X144780000Y-104140000D03*
%TO.P,J17,b15*%
X144780000Y-101600000D03*
%TO.P,J17,b14*%
X144780000Y-99060000D03*
%TO.P,J17,b13*%
X144780000Y-96520000D03*
%TO.P,J17,b12*%
X144780000Y-93980000D03*
%TO.P,J17,b11*%
X144780000Y-91440000D03*
%TO.P,J17,b10*%
X144780000Y-88900000D03*
%TO.P,J17,b9*%
X144780000Y-86360000D03*
%TO.P,J17,b8*%
X144780000Y-83820000D03*
%TO.P,J17,b7*%
X144780000Y-81280000D03*
%TO.P,J17,b6*%
X144780000Y-78740000D03*
%TO.P,J17,b5*%
X144780000Y-76200000D03*
%TO.P,J17,b4*%
X144780000Y-73660000D03*
%TO.P,J17,b3*%
X144780000Y-71120000D03*
%TO.P,J17,b2*%
X144780000Y-68580000D03*
%TO.P,J17,b1*%
X144780000Y-66040000D03*
%TO.P,J17,A32*%
X142240000Y-144780000D03*
%TO.P,J17,A31*%
X142240000Y-142240000D03*
%TO.P,J17,A30*%
%TO.N,+5P*%
X142240000Y-139700000D03*
%TO.P,J17,A29*%
%TO.N,+12P*%
X142240000Y-137160000D03*
%TO.P,J17,A28*%
%TO.N,Net-(J17-PadA28)*%
X142240000Y-134620000D03*
%TO.P,J17,A27*%
%TO.N,Net-(J1-PadA27)*%
X142240000Y-132080000D03*
%TO.P,J17,A26*%
%TO.N,Net-(J1-PadA26)*%
X142240000Y-129540000D03*
%TO.P,J17,A25*%
%TO.N,Net-(J1-PadA25)*%
X142240000Y-127000000D03*
%TO.P,J17,A24*%
%TO.N,Net-(J1-PadA24)*%
X142240000Y-124460000D03*
%TO.P,J17,A23*%
%TO.N,Net-(J1-PadA23)*%
X142240000Y-121920000D03*
%TO.P,J17,A22*%
%TO.N,Net-(J1-PadA22)*%
X142240000Y-119380000D03*
%TO.P,J17,A21*%
%TO.N,Net-(J1-PadA21)*%
X142240000Y-116840000D03*
%TO.P,J17,A20*%
%TO.N,Net-(J1-PadA20)*%
X142240000Y-114300000D03*
%TO.P,J17,A19*%
%TO.N,Net-(J1-PadA19)*%
X142240000Y-111760000D03*
%TO.P,J17,A18*%
%TO.N,Net-(J1-PadA18)*%
X142240000Y-109220000D03*
%TO.P,J17,A17*%
%TO.N,Net-(J1-PadA17)*%
X142240000Y-106680000D03*
%TO.P,J17,A16*%
%TO.N,-5V*%
X142240000Y-104140000D03*
%TO.P,J17,A15*%
%TO.N,Net-(J1-PadA15)*%
X142240000Y-101600000D03*
%TO.P,J17,A14*%
%TO.N,Net-(J1-PadA14)*%
X142240000Y-99060000D03*
%TO.P,J17,A13*%
%TO.N,Net-(J1-PadA13)*%
X142240000Y-96520000D03*
%TO.P,J17,A12*%
%TO.N,Net-(J1-PadA12)*%
X142240000Y-93980000D03*
%TO.P,J17,A11*%
%TO.N,Net-(J17-PadA11)*%
X142240000Y-91440000D03*
%TO.P,J17,A10*%
%TO.N,Net-(J1-PadA10)*%
X142240000Y-88900000D03*
%TO.P,J17,A9*%
%TO.N,Net-(J1-PadA9)*%
X142240000Y-86360000D03*
%TO.P,J17,A8*%
%TO.N,Net-(J1-PadA8)*%
X142240000Y-83820000D03*
%TO.P,J17,A7*%
%TO.N,Net-(J1-PadA7)*%
X142240000Y-81280000D03*
%TO.P,J17,A6*%
%TO.N,Net-(J1-PadA6)*%
X142240000Y-78740000D03*
%TO.P,J17,A5*%
%TO.N,Net-(J1-PadA5)*%
X142240000Y-76200000D03*
%TO.P,J17,A4*%
%TO.N,Net-(J1-PadA4)*%
X142240000Y-73660000D03*
%TO.P,J17,A3*%
%TO.N,GND*%
X142240000Y-71120000D03*
%TO.P,J17,A2*%
X142240000Y-68580000D03*
%TO.P,J17,A1*%
%TO.N,N/C*%
%TA.AperFunction,ComponentPad*%
G36*
G01*
X141465000Y-66565450D02*
X141465000Y-65514550D01*
G75*
G02*
X141714550Y-65265000I249550J0D01*
G01*
X142765450Y-65265000D01*
G75*
G02*
X143015000Y-65514550I0J-249550D01*
G01*
X143015000Y-66565450D01*
G75*
G02*
X142765450Y-66815000I-249550J0D01*
G01*
X141714550Y-66815000D01*
G75*
G02*
X141465000Y-66565450I0J249550D01*
G01*
G37*
%TD.AperFunction*%
%TD*%
D11*
%TO.P,J18,2*%
%TO.N,Net-(J17-PadC11)*%
X154940000Y-91440000D03*
D12*
%TO.P,J18,1*%
%TO.N,Net-(J17-PadA11)*%
X152400000Y-91440000D03*
%TD*%
D11*
%TO.P,J19,2*%
%TO.N,Net-(J17-PadC28)*%
X156210000Y-134620000D03*
D12*
%TO.P,J19,1*%
%TO.N,Net-(J17-PadA28)*%
X153670000Y-134620000D03*
%TD*%
D10*
%TO.P,J20,C32*%
%TO.N,N/C*%
X106680000Y-144780000D03*
%TO.P,J20,C31*%
X106680000Y-142240000D03*
%TO.P,J20,C30*%
%TO.N,+5P*%
X106680000Y-139700000D03*
%TO.P,J20,C29*%
%TO.N,+12P*%
X106680000Y-137160000D03*
%TO.P,J20,C28*%
%TO.N,Net-(J20-PadC28)*%
X106680000Y-134620000D03*
%TO.P,J20,C27*%
%TO.N,Net-(J1-PadC27)*%
X106680000Y-132080000D03*
%TO.P,J20,C26*%
%TO.N,Net-(J1-PadC26)*%
X106680000Y-129540000D03*
%TO.P,J20,C25*%
%TO.N,Net-(J1-PadC25)*%
X106680000Y-127000000D03*
%TO.P,J20,C24*%
%TO.N,Net-(J1-PadC24)*%
X106680000Y-124460000D03*
%TO.P,J20,C23*%
%TO.N,Net-(J1-PadC23)*%
X106680000Y-121920000D03*
%TO.P,J20,C22*%
%TO.N,Net-(J1-PadC22)*%
X106680000Y-119380000D03*
%TO.P,J20,C21*%
%TO.N,Net-(J1-PadC21)*%
X106680000Y-116840000D03*
%TO.P,J20,C20*%
%TO.N,Net-(J1-PadC20)*%
X106680000Y-114300000D03*
%TO.P,J20,C19*%
%TO.N,Net-(J1-PadC19)*%
X106680000Y-111760000D03*
%TO.P,J20,C18*%
%TO.N,Net-(J1-PadC18)*%
X106680000Y-109220000D03*
%TO.P,J20,C17*%
%TO.N,Net-(J1-PadC17)*%
X106680000Y-106680000D03*
%TO.P,J20,C16*%
%TO.N,-5V*%
X106680000Y-104140000D03*
%TO.P,J20,C15*%
%TO.N,Net-(J1-PadC15)*%
X106680000Y-101600000D03*
%TO.P,J20,C14*%
%TO.N,Net-(J1-PadC14)*%
X106680000Y-99060000D03*
%TO.P,J20,C13*%
%TO.N,Net-(J1-PadC13)*%
X106680000Y-96520000D03*
%TO.P,J20,C12*%
%TO.N,Net-(J1-PadC12)*%
X106680000Y-93980000D03*
%TO.P,J20,C11*%
%TO.N,Net-(J20-PadC11)*%
X106680000Y-91440000D03*
%TO.P,J20,C10*%
%TO.N,Net-(J1-PadC10)*%
X106680000Y-88900000D03*
%TO.P,J20,C9*%
%TO.N,Net-(J1-PadC9)*%
X106680000Y-86360000D03*
%TO.P,J20,C8*%
%TO.N,Net-(J1-PadC8)*%
X106680000Y-83820000D03*
%TO.P,J20,C7*%
%TO.N,Net-(J1-PadC7)*%
X106680000Y-81280000D03*
%TO.P,J20,C6*%
%TO.N,Net-(J1-PadC6)*%
X106680000Y-78740000D03*
%TO.P,J20,C5*%
%TO.N,Net-(J1-PadC5)*%
X106680000Y-76200000D03*
%TO.P,J20,C4*%
%TO.N,Net-(J1-PadC4)*%
X106680000Y-73660000D03*
%TO.P,J20,C3*%
%TO.N,GND*%
X106680000Y-71120000D03*
%TO.P,J20,C2*%
X106680000Y-68580000D03*
%TO.P,J20,C1*%
%TO.N,N/C*%
X106680000Y-66040000D03*
%TO.P,J20,b32*%
X104140000Y-144780000D03*
%TO.P,J20,b31*%
X104140000Y-142240000D03*
%TO.P,J20,b30*%
X104140000Y-139700000D03*
%TO.P,J20,b29*%
X104140000Y-137160000D03*
%TO.P,J20,b28*%
X104140000Y-134620000D03*
%TO.P,J20,b27*%
X104140000Y-132080000D03*
%TO.P,J20,b26*%
X104140000Y-129540000D03*
%TO.P,J20,b25*%
X104140000Y-127000000D03*
%TO.P,J20,b24*%
X104140000Y-124460000D03*
%TO.P,J20,b23*%
X104140000Y-121920000D03*
%TO.P,J20,b22*%
X104140000Y-119380000D03*
%TO.P,J20,b21*%
X104140000Y-116840000D03*
%TO.P,J20,b20*%
X104140000Y-114300000D03*
%TO.P,J20,b19*%
X104140000Y-111760000D03*
%TO.P,J20,b18*%
X104140000Y-109220000D03*
%TO.P,J20,b17*%
X104140000Y-106680000D03*
%TO.P,J20,b16*%
X104140000Y-104140000D03*
%TO.P,J20,b15*%
X104140000Y-101600000D03*
%TO.P,J20,b14*%
X104140000Y-99060000D03*
%TO.P,J20,b13*%
X104140000Y-96520000D03*
%TO.P,J20,b12*%
X104140000Y-93980000D03*
%TO.P,J20,b11*%
X104140000Y-91440000D03*
%TO.P,J20,b10*%
X104140000Y-88900000D03*
%TO.P,J20,b9*%
X104140000Y-86360000D03*
%TO.P,J20,b8*%
X104140000Y-83820000D03*
%TO.P,J20,b7*%
X104140000Y-81280000D03*
%TO.P,J20,b6*%
X104140000Y-78740000D03*
%TO.P,J20,b5*%
X104140000Y-76200000D03*
%TO.P,J20,b4*%
X104140000Y-73660000D03*
%TO.P,J20,b3*%
X104140000Y-71120000D03*
%TO.P,J20,b2*%
X104140000Y-68580000D03*
%TO.P,J20,b1*%
X104140000Y-66040000D03*
%TO.P,J20,A32*%
X101600000Y-144780000D03*
%TO.P,J20,A31*%
X101600000Y-142240000D03*
%TO.P,J20,A30*%
%TO.N,+5P*%
X101600000Y-139700000D03*
%TO.P,J20,A29*%
%TO.N,+12P*%
X101600000Y-137160000D03*
%TO.P,J20,A28*%
%TO.N,Net-(J20-PadA28)*%
X101600000Y-134620000D03*
%TO.P,J20,A27*%
%TO.N,Net-(J1-PadA27)*%
X101600000Y-132080000D03*
%TO.P,J20,A26*%
%TO.N,Net-(J1-PadA26)*%
X101600000Y-129540000D03*
%TO.P,J20,A25*%
%TO.N,Net-(J1-PadA25)*%
X101600000Y-127000000D03*
%TO.P,J20,A24*%
%TO.N,Net-(J1-PadA24)*%
X101600000Y-124460000D03*
%TO.P,J20,A23*%
%TO.N,Net-(J1-PadA23)*%
X101600000Y-121920000D03*
%TO.P,J20,A22*%
%TO.N,Net-(J1-PadA22)*%
X101600000Y-119380000D03*
%TO.P,J20,A21*%
%TO.N,Net-(J1-PadA21)*%
X101600000Y-116840000D03*
%TO.P,J20,A20*%
%TO.N,Net-(J1-PadA20)*%
X101600000Y-114300000D03*
%TO.P,J20,A19*%
%TO.N,Net-(J1-PadA19)*%
X101600000Y-111760000D03*
%TO.P,J20,A18*%
%TO.N,Net-(J1-PadA18)*%
X101600000Y-109220000D03*
%TO.P,J20,A17*%
%TO.N,Net-(J1-PadA17)*%
X101600000Y-106680000D03*
%TO.P,J20,A16*%
%TO.N,-5V*%
X101600000Y-104140000D03*
%TO.P,J20,A15*%
%TO.N,Net-(J1-PadA15)*%
X101600000Y-101600000D03*
%TO.P,J20,A14*%
%TO.N,Net-(J1-PadA14)*%
X101600000Y-99060000D03*
%TO.P,J20,A13*%
%TO.N,Net-(J1-PadA13)*%
X101600000Y-96520000D03*
%TO.P,J20,A12*%
%TO.N,Net-(J1-PadA12)*%
X101600000Y-93980000D03*
%TO.P,J20,A11*%
%TO.N,Net-(J20-PadA11)*%
X101600000Y-91440000D03*
%TO.P,J20,A10*%
%TO.N,Net-(J1-PadA10)*%
X101600000Y-88900000D03*
%TO.P,J20,A9*%
%TO.N,Net-(J1-PadA9)*%
X101600000Y-86360000D03*
%TO.P,J20,A8*%
%TO.N,Net-(J1-PadA8)*%
X101600000Y-83820000D03*
%TO.P,J20,A7*%
%TO.N,Net-(J1-PadA7)*%
X101600000Y-81280000D03*
%TO.P,J20,A6*%
%TO.N,Net-(J1-PadA6)*%
X101600000Y-78740000D03*
%TO.P,J20,A5*%
%TO.N,Net-(J1-PadA5)*%
X101600000Y-76200000D03*
%TO.P,J20,A4*%
%TO.N,Net-(J1-PadA4)*%
X101600000Y-73660000D03*
%TO.P,J20,A3*%
%TO.N,GND*%
X101600000Y-71120000D03*
%TO.P,J20,A2*%
X101600000Y-68580000D03*
%TO.P,J20,A1*%
%TO.N,N/C*%
%TA.AperFunction,ComponentPad*%
G36*
G01*
X100825000Y-66565450D02*
X100825000Y-65514550D01*
G75*
G02*
X101074550Y-65265000I249550J0D01*
G01*
X102125450Y-65265000D01*
G75*
G02*
X102375000Y-65514550I0J-249550D01*
G01*
X102375000Y-66565450D01*
G75*
G02*
X102125450Y-66815000I-249550J0D01*
G01*
X101074550Y-66815000D01*
G75*
G02*
X100825000Y-66565450I0J249550D01*
G01*
G37*
%TD.AperFunction*%
%TD*%
D11*
%TO.P,J21,2*%
%TO.N,Net-(J20-PadC11)*%
X114300000Y-91440000D03*
D12*
%TO.P,J21,1*%
%TO.N,Net-(J20-PadA11)*%
X111760000Y-91440000D03*
%TD*%
D11*
%TO.P,J22,2*%
%TO.N,Net-(J20-PadC28)*%
X114300000Y-134620000D03*
D12*
%TO.P,J22,1*%
%TO.N,Net-(J20-PadA28)*%
X111760000Y-134620000D03*
%TD*%
%TO.P,J23,A1*%
%TO.N,N/C*%
%TA.AperFunction,ComponentPad*%
G36*
G01*
X58915000Y-66565450D02*
X58915000Y-65514550D01*
G75*
G02*
X59164550Y-65265000I249550J0D01*
G01*
X60215450Y-65265000D01*
G75*
G02*
X60465000Y-65514550I0J-249550D01*
G01*
X60465000Y-66565450D01*
G75*
G02*
X60215450Y-66815000I-249550J0D01*
G01*
X59164550Y-66815000D01*
G75*
G02*
X58915000Y-66565450I0J249550D01*
G01*
G37*
%TD.AperFunction*%
D10*
%TO.P,J23,A2*%
%TO.N,GND*%
X59690000Y-68580000D03*
%TO.P,J23,A3*%
X59690000Y-71120000D03*
%TO.P,J23,A4*%
%TO.N,Net-(J1-PadA4)*%
X59690000Y-73660000D03*
%TO.P,J23,A5*%
%TO.N,Net-(J1-PadA5)*%
X59690000Y-76200000D03*
%TO.P,J23,A6*%
%TO.N,Net-(J1-PadA6)*%
X59690000Y-78740000D03*
%TO.P,J23,A7*%
%TO.N,Net-(J1-PadA7)*%
X59690000Y-81280000D03*
%TO.P,J23,A8*%
%TO.N,Net-(J1-PadA8)*%
X59690000Y-83820000D03*
%TO.P,J23,A9*%
%TO.N,Net-(J1-PadA9)*%
X59690000Y-86360000D03*
%TO.P,J23,A10*%
%TO.N,Net-(J1-PadA10)*%
X59690000Y-88900000D03*
%TO.P,J23,A11*%
%TO.N,Net-(J23-PadA11)*%
X59690000Y-91440000D03*
%TO.P,J23,A12*%
%TO.N,Net-(J1-PadA12)*%
X59690000Y-93980000D03*
%TO.P,J23,A13*%
%TO.N,Net-(J1-PadA13)*%
X59690000Y-96520000D03*
%TO.P,J23,A14*%
%TO.N,Net-(J1-PadA14)*%
X59690000Y-99060000D03*
%TO.P,J23,A15*%
%TO.N,Net-(J1-PadA15)*%
X59690000Y-101600000D03*
%TO.P,J23,A16*%
%TO.N,-5V*%
X59690000Y-104140000D03*
%TO.P,J23,A17*%
%TO.N,Net-(J1-PadA17)*%
X59690000Y-106680000D03*
%TO.P,J23,A18*%
%TO.N,Net-(J1-PadA18)*%
X59690000Y-109220000D03*
%TO.P,J23,A19*%
%TO.N,Net-(J1-PadA19)*%
X59690000Y-111760000D03*
%TO.P,J23,A20*%
%TO.N,Net-(J1-PadA20)*%
X59690000Y-114300000D03*
%TO.P,J23,A21*%
%TO.N,Net-(J1-PadA21)*%
X59690000Y-116840000D03*
%TO.P,J23,A22*%
%TO.N,Net-(J1-PadA22)*%
X59690000Y-119380000D03*
%TO.P,J23,A23*%
%TO.N,Net-(J1-PadA23)*%
X59690000Y-121920000D03*
%TO.P,J23,A24*%
%TO.N,Net-(J1-PadA24)*%
X59690000Y-124460000D03*
%TO.P,J23,A25*%
%TO.N,Net-(J1-PadA25)*%
X59690000Y-127000000D03*
%TO.P,J23,A26*%
%TO.N,Net-(J1-PadA26)*%
X59690000Y-129540000D03*
%TO.P,J23,A27*%
%TO.N,Net-(J1-PadA27)*%
X59690000Y-132080000D03*
%TO.P,J23,A28*%
%TO.N,Net-(J23-PadA28)*%
X59690000Y-134620000D03*
%TO.P,J23,A29*%
%TO.N,+12P*%
X59690000Y-137160000D03*
%TO.P,J23,A30*%
%TO.N,+5P*%
X59690000Y-139700000D03*
%TO.P,J23,A31*%
%TO.N,N/C*%
X59690000Y-142240000D03*
%TO.P,J23,A32*%
X59690000Y-144780000D03*
%TO.P,J23,b1*%
X62230000Y-66040000D03*
%TO.P,J23,b2*%
X62230000Y-68580000D03*
%TO.P,J23,b3*%
X62230000Y-71120000D03*
%TO.P,J23,b4*%
X62230000Y-73660000D03*
%TO.P,J23,b5*%
X62230000Y-76200000D03*
%TO.P,J23,b6*%
X62230000Y-78740000D03*
%TO.P,J23,b7*%
X62230000Y-81280000D03*
%TO.P,J23,b8*%
X62230000Y-83820000D03*
%TO.P,J23,b9*%
X62230000Y-86360000D03*
%TO.P,J23,b10*%
X62230000Y-88900000D03*
%TO.P,J23,b11*%
X62230000Y-91440000D03*
%TO.P,J23,b12*%
X62230000Y-93980000D03*
%TO.P,J23,b13*%
X62230000Y-96520000D03*
%TO.P,J23,b14*%
X62230000Y-99060000D03*
%TO.P,J23,b15*%
X62230000Y-101600000D03*
%TO.P,J23,b16*%
X62230000Y-104140000D03*
%TO.P,J23,b17*%
X62230000Y-106680000D03*
%TO.P,J23,b18*%
X62230000Y-109220000D03*
%TO.P,J23,b19*%
X62230000Y-111760000D03*
%TO.P,J23,b20*%
X62230000Y-114300000D03*
%TO.P,J23,b21*%
X62230000Y-116840000D03*
%TO.P,J23,b22*%
X62230000Y-119380000D03*
%TO.P,J23,b23*%
X62230000Y-121920000D03*
%TO.P,J23,b24*%
X62230000Y-124460000D03*
%TO.P,J23,b25*%
X62230000Y-127000000D03*
%TO.P,J23,b26*%
X62230000Y-129540000D03*
%TO.P,J23,b27*%
X62230000Y-132080000D03*
%TO.P,J23,b28*%
X62230000Y-134620000D03*
%TO.P,J23,b29*%
X62230000Y-137160000D03*
%TO.P,J23,b30*%
X62230000Y-139700000D03*
%TO.P,J23,b31*%
X62230000Y-142240000D03*
%TO.P,J23,b32*%
X62230000Y-144780000D03*
%TO.P,J23,C1*%
X64770000Y-66040000D03*
%TO.P,J23,C2*%
%TO.N,GND*%
X64770000Y-68580000D03*
%TO.P,J23,C3*%
X64770000Y-71120000D03*
%TO.P,J23,C4*%
%TO.N,Net-(J1-PadC4)*%
X64770000Y-73660000D03*
%TO.P,J23,C5*%
%TO.N,Net-(J1-PadC5)*%
X64770000Y-76200000D03*
%TO.P,J23,C6*%
%TO.N,Net-(J1-PadC6)*%
X64770000Y-78740000D03*
%TO.P,J23,C7*%
%TO.N,Net-(J1-PadC7)*%
X64770000Y-81280000D03*
%TO.P,J23,C8*%
%TO.N,Net-(J1-PadC8)*%
X64770000Y-83820000D03*
%TO.P,J23,C9*%
%TO.N,Net-(J1-PadC9)*%
X64770000Y-86360000D03*
%TO.P,J23,C10*%
%TO.N,Net-(J1-PadC10)*%
X64770000Y-88900000D03*
%TO.P,J23,C11*%
%TO.N,Net-(J23-PadC11)*%
X64770000Y-91440000D03*
%TO.P,J23,C12*%
%TO.N,Net-(J1-PadC12)*%
X64770000Y-93980000D03*
%TO.P,J23,C13*%
%TO.N,Net-(J1-PadC13)*%
X64770000Y-96520000D03*
%TO.P,J23,C14*%
%TO.N,Net-(J1-PadC14)*%
X64770000Y-99060000D03*
%TO.P,J23,C15*%
%TO.N,Net-(J1-PadC15)*%
X64770000Y-101600000D03*
%TO.P,J23,C16*%
%TO.N,-5V*%
X64770000Y-104140000D03*
%TO.P,J23,C17*%
%TO.N,Net-(J1-PadC17)*%
X64770000Y-106680000D03*
%TO.P,J23,C18*%
%TO.N,Net-(J1-PadC18)*%
X64770000Y-109220000D03*
%TO.P,J23,C19*%
%TO.N,Net-(J1-PadC19)*%
X64770000Y-111760000D03*
%TO.P,J23,C20*%
%TO.N,Net-(J1-PadC20)*%
X64770000Y-114300000D03*
%TO.P,J23,C21*%
%TO.N,Net-(J1-PadC21)*%
X64770000Y-116840000D03*
%TO.P,J23,C22*%
%TO.N,Net-(J1-PadC22)*%
X64770000Y-119380000D03*
%TO.P,J23,C23*%
%TO.N,Net-(J1-PadC23)*%
X64770000Y-121920000D03*
%TO.P,J23,C24*%
%TO.N,Net-(J1-PadC24)*%
X64770000Y-124460000D03*
%TO.P,J23,C25*%
%TO.N,Net-(J1-PadC25)*%
X64770000Y-127000000D03*
%TO.P,J23,C26*%
%TO.N,Net-(J1-PadC26)*%
X64770000Y-129540000D03*
%TO.P,J23,C27*%
%TO.N,Net-(J1-PadC27)*%
X64770000Y-132080000D03*
%TO.P,J23,C28*%
%TO.N,Net-(J23-PadC28)*%
X64770000Y-134620000D03*
%TO.P,J23,C29*%
%TO.N,+12P*%
X64770000Y-137160000D03*
%TO.P,J23,C30*%
%TO.N,+5P*%
X64770000Y-139700000D03*
%TO.P,J23,C31*%
%TO.N,N/C*%
X64770000Y-142240000D03*
%TO.P,J23,C32*%
X64770000Y-144780000D03*
%TD*%
D12*
%TO.P,J24,1*%
%TO.N,Net-(J23-PadA11)*%
X69850000Y-91440000D03*
D11*
%TO.P,J24,2*%
%TO.N,Net-(J23-PadC11)*%
X72390000Y-91440000D03*
%TD*%
D12*
%TO.P,J25,1*%
%TO.N,Net-(J23-PadA28)*%
X69850000Y-134620000D03*
D11*
%TO.P,J25,2*%
%TO.N,Net-(J23-PadC28)*%
X72390000Y-134620000D03*
%TD*%
D14*
%TO.N,Net-(J1-PadC21)*%
X64770000Y-116840000D02*
X66040000Y-115570000D01*
X66040000Y-115570000D02*
X83820000Y-115570000D01*
X83820000Y-115570000D02*
X85090000Y-116840000D01*
%TO.N,Net-(J1-PadC17)*%
X64770000Y-106680000D02*
X66040000Y-105410000D01*
X66040000Y-105410000D02*
X83820000Y-105410000D01*
X83820000Y-105410000D02*
X85090000Y-106680000D01*
%TO.N,Net-(J1-PadC10)*%
X64770000Y-88900000D02*
X66040000Y-87630000D01*
X66040000Y-87630000D02*
X83820000Y-87630000D01*
X83820000Y-87630000D02*
X85090000Y-88900000D01*
X85090000Y-88900000D02*
X86360000Y-87630000D01*
X105410000Y-87630000D02*
X106680000Y-88900000D01*
X86360000Y-87630000D02*
X105410000Y-87630000D01*
%TO.N,Net-(J1-PadC13)*%
X64770000Y-96520000D02*
X66040000Y-95250000D01*
X66040000Y-95250000D02*
X83820000Y-95250000D01*
X83820000Y-95250000D02*
X85090000Y-96520000D01*
%TO.N,Net-(J1-PadC6)*%
X64770000Y-78740000D02*
X66040000Y-77470000D01*
X66040000Y-77470000D02*
X83820000Y-77470000D01*
X83820000Y-77470000D02*
X85090000Y-78740000D01*
%TO.N,Net-(J1-PadC8)*%
X64770000Y-83820000D02*
X66040000Y-82550000D01*
X66040000Y-82550000D02*
X83820000Y-82550000D01*
X83820000Y-82550000D02*
X85090000Y-83820000D01*
X85090000Y-83820000D02*
X86360000Y-82550000D01*
X86360000Y-82550000D02*
X105410000Y-82550000D01*
X105410000Y-82550000D02*
X106680000Y-83820000D01*
%TO.N,Net-(J1-PadC6)*%
X85090000Y-78740000D02*
X86360000Y-77470000D01*
X86360000Y-77470000D02*
X105410000Y-77470000D01*
X105410000Y-77470000D02*
X106680000Y-78740000D01*
%TO.N,Net-(J1-PadC4)*%
X83820000Y-72390000D02*
X85090000Y-73660000D01*
X66040000Y-72390000D02*
X83820000Y-72390000D01*
X64770000Y-73660000D02*
X66040000Y-72390000D01*
X85090000Y-73660000D02*
X86360000Y-72390000D01*
X86360000Y-72390000D02*
X105410000Y-72390000D01*
X105410000Y-72390000D02*
X106680000Y-73660000D01*
X210820000Y-73660000D02*
X209550000Y-72390000D01*
X209550000Y-72390000D02*
X190500000Y-72390000D01*
X190500000Y-72390000D02*
X189230000Y-73660000D01*
X189230000Y-73660000D02*
X187960000Y-72390000D01*
X187960000Y-72390000D02*
X168910000Y-72390000D01*
X168910000Y-72390000D02*
X167640000Y-73660000D01*
X125730000Y-72390000D02*
X127000000Y-73660000D01*
X107950000Y-72390000D02*
X125730000Y-72390000D01*
X106680000Y-73660000D02*
X107950000Y-72390000D01*
X127000000Y-73660000D02*
X128270000Y-72390000D01*
X128270000Y-72390000D02*
X146050000Y-72390000D01*
X146050000Y-72390000D02*
X147320000Y-73660000D01*
X147320000Y-73660000D02*
X148590000Y-72390000D01*
X148590000Y-72390000D02*
X166370000Y-72390000D01*
X166370000Y-72390000D02*
X167640000Y-73660000D01*
%TO.N,Net-(J1-PadC5)*%
X64770000Y-76200000D02*
X66040000Y-74930000D01*
X66040000Y-74930000D02*
X83820000Y-74930000D01*
X83820000Y-74930000D02*
X85090000Y-76200000D01*
X85090000Y-76200000D02*
X86360000Y-74930000D01*
X86360000Y-74930000D02*
X105410000Y-74930000D01*
X105410000Y-74930000D02*
X106680000Y-76200000D01*
X167640000Y-76200000D02*
X168910000Y-74930000D01*
X168910000Y-74930000D02*
X187960000Y-74930000D01*
X187960000Y-74930000D02*
X189230000Y-76200000D01*
X189230000Y-76200000D02*
X190500000Y-74930000D01*
X190500000Y-74930000D02*
X209550000Y-74930000D01*
X209550000Y-74930000D02*
X210820000Y-76200000D01*
X106680000Y-76200000D02*
X107950000Y-74930000D01*
X125730000Y-74930000D02*
X127000000Y-76200000D01*
X107950000Y-74930000D02*
X125730000Y-74930000D01*
X127000000Y-76200000D02*
X128270000Y-74930000D01*
X128270000Y-74930000D02*
X146050000Y-74930000D01*
X146050000Y-74930000D02*
X147320000Y-76200000D01*
X147320000Y-76200000D02*
X148590000Y-74930000D01*
X148590000Y-74930000D02*
X166370000Y-74930000D01*
X166370000Y-74930000D02*
X167640000Y-76200000D01*
%TO.N,Net-(J1-PadC7)*%
X64770000Y-81280000D02*
X66040000Y-80010000D01*
X66040000Y-80010000D02*
X83820000Y-80010000D01*
X83820000Y-80010000D02*
X85090000Y-81280000D01*
X105410000Y-80010000D02*
X106680000Y-81280000D01*
X86360000Y-80010000D02*
X105410000Y-80010000D01*
X85090000Y-81280000D02*
X86360000Y-80010000D01*
X167640000Y-81280000D02*
X168910000Y-80010000D01*
X168910000Y-80010000D02*
X187960000Y-80010000D01*
X187960000Y-80010000D02*
X189230000Y-81280000D01*
X189230000Y-81280000D02*
X190500000Y-80010000D01*
X190500000Y-80010000D02*
X209550000Y-80010000D01*
X209550000Y-80010000D02*
X210820000Y-81280000D01*
X106680000Y-81280000D02*
X107950000Y-80010000D01*
X125730000Y-80010000D02*
X127000000Y-81280000D01*
X107950000Y-80010000D02*
X125730000Y-80010000D01*
X127000000Y-81280000D02*
X128270000Y-80010000D01*
X128270000Y-80010000D02*
X146050000Y-80010000D01*
X146050000Y-80010000D02*
X147320000Y-81280000D01*
X147320000Y-81280000D02*
X148590000Y-80010000D01*
X148590000Y-80010000D02*
X166370000Y-80010000D01*
X166370000Y-80010000D02*
X167640000Y-81280000D01*
%TO.N,Net-(J1-PadC8)*%
X210820000Y-83820000D02*
X209550000Y-82550000D01*
X209550000Y-82550000D02*
X190500000Y-82550000D01*
X190500000Y-82550000D02*
X189230000Y-83820000D01*
X168910000Y-82550000D02*
X167640000Y-83820000D01*
X187960000Y-82550000D02*
X168910000Y-82550000D01*
X189230000Y-83820000D02*
X187960000Y-82550000D01*
X106680000Y-83820000D02*
X107950000Y-82550000D01*
X125730000Y-82550000D02*
X127000000Y-83820000D01*
X107950000Y-82550000D02*
X125730000Y-82550000D01*
X127000000Y-83820000D02*
X128270000Y-82550000D01*
X128270000Y-82550000D02*
X146050000Y-82550000D01*
X146050000Y-82550000D02*
X147320000Y-83820000D01*
X147320000Y-83820000D02*
X148590000Y-82550000D01*
X148590000Y-82550000D02*
X166370000Y-82550000D01*
X166370000Y-82550000D02*
X167640000Y-83820000D01*
%TO.N,Net-(J1-PadC9)*%
X64770000Y-86360000D02*
X66040000Y-85090000D01*
X66040000Y-85090000D02*
X83820000Y-85090000D01*
X83820000Y-85090000D02*
X85090000Y-86360000D01*
X85090000Y-86360000D02*
X86360000Y-85090000D01*
X86360000Y-85090000D02*
X105410000Y-85090000D01*
X105410000Y-85090000D02*
X106680000Y-86360000D01*
X167640000Y-86360000D02*
X168910000Y-85090000D01*
X168910000Y-85090000D02*
X187960000Y-85090000D01*
X187960000Y-85090000D02*
X189230000Y-86360000D01*
X189230000Y-86360000D02*
X190500000Y-85090000D01*
X190500000Y-85090000D02*
X209550000Y-85090000D01*
X209550000Y-85090000D02*
X210820000Y-86360000D01*
X106680000Y-86360000D02*
X107950000Y-85090000D01*
X125730000Y-85090000D02*
X127000000Y-86360000D01*
X107950000Y-85090000D02*
X125730000Y-85090000D01*
X127000000Y-86360000D02*
X128270000Y-85090000D01*
X128270000Y-85090000D02*
X146050000Y-85090000D01*
X146050000Y-85090000D02*
X147320000Y-86360000D01*
X147320000Y-86360000D02*
X148590000Y-85090000D01*
X148590000Y-85090000D02*
X166370000Y-85090000D01*
X166370000Y-85090000D02*
X167640000Y-86360000D01*
%TO.N,Net-(J1-PadC12)*%
X64770000Y-93980000D02*
X66040000Y-92710000D01*
X66040000Y-92710000D02*
X83820000Y-92710000D01*
X83820000Y-92710000D02*
X85090000Y-93980000D01*
X167640000Y-93980000D02*
X168910000Y-92710000D01*
X168910000Y-92710000D02*
X187960000Y-92710000D01*
X187960000Y-92710000D02*
X189230000Y-93980000D01*
X189230000Y-93980000D02*
X190500000Y-92710000D01*
X190500000Y-92710000D02*
X209550000Y-92710000D01*
X209550000Y-92710000D02*
X210820000Y-93980000D01*
X85090000Y-93980000D02*
X86360000Y-92710000D01*
X86360000Y-92710000D02*
X105410000Y-92710000D01*
X105410000Y-92710000D02*
X106680000Y-93980000D01*
X106680000Y-93980000D02*
X107950000Y-92710000D01*
X127000000Y-93980000D02*
X125730000Y-92710000D01*
X107950000Y-92710000D02*
X125730000Y-92710000D01*
X127000000Y-93980000D02*
X128270000Y-92710000D01*
X128270000Y-92710000D02*
X146050000Y-92710000D01*
X146050000Y-92710000D02*
X147320000Y-93980000D01*
X147320000Y-93980000D02*
X148590000Y-92710000D01*
X148590000Y-92710000D02*
X166370000Y-92710000D01*
X166370000Y-92710000D02*
X167640000Y-93980000D01*
%TO.N,Net-(J1-PadC14)*%
X64770000Y-99060000D02*
X66040000Y-97790000D01*
X66040000Y-97790000D02*
X83820000Y-97790000D01*
X83820000Y-97790000D02*
X85090000Y-99060000D01*
X189230000Y-99060000D02*
X190500000Y-97790000D01*
X190500000Y-97790000D02*
X209550000Y-97790000D01*
X209550000Y-97790000D02*
X210820000Y-99060000D01*
X167640000Y-99060000D02*
X168910000Y-97790000D01*
X168910000Y-97790000D02*
X187960000Y-97790000D01*
X187960000Y-97790000D02*
X189230000Y-99060000D01*
X85090000Y-99060000D02*
X86360000Y-97790000D01*
X86360000Y-97790000D02*
X105410000Y-97790000D01*
X105410000Y-97790000D02*
X106680000Y-99060000D01*
X106680000Y-99060000D02*
X107950000Y-97790000D01*
X107950000Y-97790000D02*
X125730000Y-97790000D01*
X125730000Y-97790000D02*
X127000000Y-99060000D01*
X127000000Y-99060000D02*
X128270000Y-97790000D01*
X146050000Y-97790000D02*
X147320000Y-99060000D01*
X128270000Y-97790000D02*
X146050000Y-97790000D01*
X147320000Y-99060000D02*
X148590000Y-97790000D01*
X148590000Y-97790000D02*
X166370000Y-97790000D01*
X166370000Y-97790000D02*
X167640000Y-99060000D01*
%TO.N,Net-(J1-PadC15)*%
X64770000Y-101600000D02*
X66040000Y-100330000D01*
X66040000Y-100330000D02*
X83820000Y-100330000D01*
X83820000Y-100330000D02*
X85090000Y-101600000D01*
X189230000Y-101600000D02*
X190500000Y-100330000D01*
X190500000Y-100330000D02*
X209550000Y-100330000D01*
X209550000Y-100330000D02*
X210820000Y-101600000D01*
X167640000Y-101600000D02*
X168910000Y-100330000D01*
X168910000Y-100330000D02*
X187960000Y-100330000D01*
X187960000Y-100330000D02*
X189230000Y-101600000D01*
X85090000Y-101600000D02*
X86360000Y-100330000D01*
X106680000Y-101600000D02*
X105410000Y-100330000D01*
X86360000Y-100330000D02*
X105410000Y-100330000D01*
X106680000Y-101600000D02*
X107950000Y-100330000D01*
X107950000Y-100330000D02*
X125730000Y-100330000D01*
X125730000Y-100330000D02*
X127000000Y-101600000D01*
X127000000Y-101600000D02*
X128270000Y-100330000D01*
X128270000Y-100330000D02*
X146050000Y-100330000D01*
X146050000Y-100330000D02*
X147320000Y-101600000D01*
X147320000Y-101600000D02*
X148590000Y-100330000D01*
X148590000Y-100330000D02*
X166370000Y-100330000D01*
X166370000Y-100330000D02*
X167640000Y-101600000D01*
%TO.N,Net-(J1-PadC27)*%
X64770000Y-132080000D02*
X66040000Y-130810000D01*
X66040000Y-130810000D02*
X83820000Y-130810000D01*
X83820000Y-130810000D02*
X85090000Y-132080000D01*
X85090000Y-132080000D02*
X86360000Y-130810000D01*
X86360000Y-130810000D02*
X105410000Y-130810000D01*
X105410000Y-130810000D02*
X106680000Y-132080000D01*
%TO.N,Net-(J1-PadC18)*%
X64770000Y-109220000D02*
X66040000Y-107950000D01*
X66040000Y-107950000D02*
X83820000Y-107950000D01*
X83820000Y-107950000D02*
X85090000Y-109220000D01*
X189230000Y-109220000D02*
X190500000Y-107950000D01*
X190500000Y-107950000D02*
X209550000Y-107950000D01*
X209550000Y-107950000D02*
X210820000Y-109220000D01*
X167640000Y-109220000D02*
X168910000Y-107950000D01*
X187960000Y-107950000D02*
X189230000Y-109220000D01*
X168910000Y-107950000D02*
X187960000Y-107950000D01*
X85090000Y-109220000D02*
X86360000Y-107950000D01*
X86360000Y-107950000D02*
X105410000Y-107950000D01*
X105410000Y-107950000D02*
X106680000Y-109220000D01*
X106680000Y-109220000D02*
X107950000Y-107950000D01*
X125730000Y-107950000D02*
X127000000Y-109220000D01*
X107950000Y-107950000D02*
X125730000Y-107950000D01*
X127000000Y-109220000D02*
X128270000Y-107950000D01*
X128270000Y-107950000D02*
X146050000Y-107950000D01*
X146050000Y-107950000D02*
X147320000Y-109220000D01*
X147320000Y-109220000D02*
X148590000Y-107950000D01*
X148590000Y-107950000D02*
X166370000Y-107950000D01*
X166370000Y-107950000D02*
X167640000Y-109220000D01*
%TO.N,Net-(J1-PadC19)*%
X64770000Y-111760000D02*
X66040000Y-110490000D01*
X66040000Y-110490000D02*
X83820000Y-110490000D01*
X83820000Y-110490000D02*
X85090000Y-111760000D01*
X189230000Y-111760000D02*
X190500000Y-110490000D01*
X190500000Y-110490000D02*
X209550000Y-110490000D01*
X209550000Y-110490000D02*
X210820000Y-111760000D01*
X167640000Y-111760000D02*
X168910000Y-110490000D01*
X168910000Y-110490000D02*
X187960000Y-110490000D01*
X187960000Y-110490000D02*
X189230000Y-111760000D01*
X85090000Y-111760000D02*
X86360000Y-110490000D01*
X86360000Y-110490000D02*
X105410000Y-110490000D01*
X105410000Y-110490000D02*
X106680000Y-111760000D01*
X106680000Y-111760000D02*
X107950000Y-110490000D01*
X107950000Y-110490000D02*
X125730000Y-110490000D01*
X125730000Y-110490000D02*
X127000000Y-111760000D01*
X127000000Y-111760000D02*
X128270000Y-110490000D01*
X128270000Y-110490000D02*
X146050000Y-110490000D01*
X146050000Y-110490000D02*
X147320000Y-111760000D01*
X147320000Y-111760000D02*
X148590000Y-110490000D01*
X148590000Y-110490000D02*
X166370000Y-110490000D01*
X166370000Y-110490000D02*
X167640000Y-111760000D01*
%TO.N,Net-(J1-PadC26)*%
X64770000Y-129540000D02*
X66040000Y-128270000D01*
X66040000Y-128270000D02*
X83820000Y-128270000D01*
X83820000Y-128270000D02*
X85090000Y-129540000D01*
X85090000Y-129540000D02*
X86360000Y-128270000D01*
X86360000Y-128270000D02*
X105410000Y-128270000D01*
X105410000Y-128270000D02*
X106680000Y-129540000D01*
%TO.N,Net-(J1-PadC20)*%
X64770000Y-114300000D02*
X66040000Y-113030000D01*
X66040000Y-113030000D02*
X83820000Y-113030000D01*
X83820000Y-113030000D02*
X85090000Y-114300000D01*
X189230000Y-114300000D02*
X190500000Y-113030000D01*
X190500000Y-113030000D02*
X209550000Y-113030000D01*
X209550000Y-113030000D02*
X210820000Y-114300000D01*
X167640000Y-114300000D02*
X168910000Y-113030000D01*
X168910000Y-113030000D02*
X187960000Y-113030000D01*
X187960000Y-113030000D02*
X189230000Y-114300000D01*
X85090000Y-114300000D02*
X86360000Y-113030000D01*
X86360000Y-113030000D02*
X105410000Y-113030000D01*
X105410000Y-113030000D02*
X106680000Y-114300000D01*
X106680000Y-114300000D02*
X107950000Y-113030000D01*
X125730000Y-113030000D02*
X127000000Y-114300000D01*
X107950000Y-113030000D02*
X125730000Y-113030000D01*
X146050000Y-113030000D02*
X147320000Y-114300000D01*
X128270000Y-113030000D02*
X146050000Y-113030000D01*
X127000000Y-114300000D02*
X128270000Y-113030000D01*
X147320000Y-114300000D02*
X148590000Y-113030000D01*
X148590000Y-113030000D02*
X166370000Y-113030000D01*
X166370000Y-113030000D02*
X167640000Y-114300000D01*
%TO.N,Net-(J1-PadC22)*%
X64770000Y-119380000D02*
X66040000Y-118110000D01*
X66040000Y-118110000D02*
X83820000Y-118110000D01*
X83820000Y-118110000D02*
X85090000Y-119380000D01*
X189230000Y-119380000D02*
X190500000Y-118110000D01*
X190500000Y-118110000D02*
X209550000Y-118110000D01*
X209550000Y-118110000D02*
X210820000Y-119380000D01*
X167640000Y-119380000D02*
X168910000Y-118110000D01*
X168910000Y-118110000D02*
X187960000Y-118110000D01*
X187960000Y-118110000D02*
X189230000Y-119380000D01*
X85090000Y-119380000D02*
X86360000Y-118110000D01*
X86360000Y-118110000D02*
X105410000Y-118110000D01*
X105410000Y-118110000D02*
X106680000Y-119380000D01*
X106680000Y-119380000D02*
X107950000Y-118110000D01*
X107950000Y-118110000D02*
X125730000Y-118110000D01*
X125730000Y-118110000D02*
X127000000Y-119380000D01*
X127000000Y-119380000D02*
X128270000Y-118110000D01*
X128270000Y-118110000D02*
X146050000Y-118110000D01*
X146050000Y-118110000D02*
X147320000Y-119380000D01*
X147320000Y-119380000D02*
X148590000Y-118110000D01*
X148590000Y-118110000D02*
X166370000Y-118110000D01*
X166370000Y-118110000D02*
X167640000Y-119380000D01*
%TO.N,Net-(J1-PadC23)*%
X64770000Y-121920000D02*
X66040000Y-120650000D01*
X66040000Y-120650000D02*
X83820000Y-120650000D01*
X83820000Y-120650000D02*
X85090000Y-121920000D01*
X189230000Y-121920000D02*
X190500000Y-120650000D01*
X190500000Y-120650000D02*
X209550000Y-120650000D01*
X209550000Y-120650000D02*
X210820000Y-121920000D01*
X167640000Y-121920000D02*
X168910000Y-120650000D01*
X168910000Y-120650000D02*
X187960000Y-120650000D01*
X187960000Y-120650000D02*
X189230000Y-121920000D01*
X85090000Y-121920000D02*
X86360000Y-120650000D01*
X86360000Y-120650000D02*
X105410000Y-120650000D01*
X105410000Y-120650000D02*
X106680000Y-121920000D01*
X106680000Y-121920000D02*
X107950000Y-120650000D01*
X107950000Y-120650000D02*
X125730000Y-120650000D01*
X125730000Y-120650000D02*
X127000000Y-121920000D01*
X127000000Y-121920000D02*
X128270000Y-120650000D01*
X128270000Y-120650000D02*
X146050000Y-120650000D01*
X146050000Y-120650000D02*
X147320000Y-121920000D01*
X147320000Y-121920000D02*
X148590000Y-120650000D01*
X148590000Y-120650000D02*
X166370000Y-120650000D01*
X166370000Y-120650000D02*
X167640000Y-121920000D01*
%TO.N,Net-(J1-PadC25)*%
X64770000Y-127000000D02*
X66040000Y-125730000D01*
X66040000Y-125730000D02*
X83820000Y-125730000D01*
X83820000Y-125730000D02*
X85090000Y-127000000D01*
X85090000Y-127000000D02*
X86360000Y-125730000D01*
X86360000Y-125730000D02*
X105410000Y-125730000D01*
X105410000Y-125730000D02*
X106680000Y-127000000D01*
%TO.N,Net-(J1-PadC24)*%
X64770000Y-124460000D02*
X66040000Y-123190000D01*
X66040000Y-123190000D02*
X83820000Y-123190000D01*
X83820000Y-123190000D02*
X85090000Y-124460000D01*
X189230000Y-124460000D02*
X190500000Y-123190000D01*
X190500000Y-123190000D02*
X209550000Y-123190000D01*
X209550000Y-123190000D02*
X210820000Y-124460000D01*
X167640000Y-124460000D02*
X168910000Y-123190000D01*
X168910000Y-123190000D02*
X187960000Y-123190000D01*
X187960000Y-123190000D02*
X189230000Y-124460000D01*
X85090000Y-124460000D02*
X86360000Y-123190000D01*
X105410000Y-123190000D02*
X106680000Y-124460000D01*
X86360000Y-123190000D02*
X105410000Y-123190000D01*
X106680000Y-124460000D02*
X107950000Y-123190000D01*
X107950000Y-123190000D02*
X125730000Y-123190000D01*
X125730000Y-123190000D02*
X127000000Y-124460000D01*
X127000000Y-124460000D02*
X128270000Y-123190000D01*
X128270000Y-123190000D02*
X146050000Y-123190000D01*
X146050000Y-123190000D02*
X147320000Y-124460000D01*
X147320000Y-124460000D02*
X148590000Y-123190000D01*
X148590000Y-123190000D02*
X166370000Y-123190000D01*
X166370000Y-123190000D02*
X167640000Y-124460000D01*
%TO.N,Net-(J1-PadC6)*%
X210820000Y-78740000D02*
X209550000Y-77470000D01*
X209550000Y-77470000D02*
X190500000Y-77470000D01*
X190500000Y-77470000D02*
X189230000Y-78740000D01*
X168910000Y-77470000D02*
X167640000Y-78740000D01*
X187960000Y-77470000D02*
X168910000Y-77470000D01*
X189230000Y-78740000D02*
X187960000Y-77470000D01*
X125730000Y-77470000D02*
X127000000Y-78740000D01*
X107950000Y-77470000D02*
X125730000Y-77470000D01*
X106680000Y-78740000D02*
X107950000Y-77470000D01*
X127000000Y-78740000D02*
X128270000Y-77470000D01*
X128270000Y-77470000D02*
X146050000Y-77470000D01*
X146050000Y-77470000D02*
X147320000Y-78740000D01*
X147320000Y-78740000D02*
X148590000Y-77470000D01*
X148590000Y-77470000D02*
X166370000Y-77470000D01*
X166370000Y-77470000D02*
X167640000Y-78740000D01*
%TO.N,Net-(J1-PadC10)*%
X210820000Y-88900000D02*
X209550000Y-87630000D01*
X190500000Y-87630000D02*
X189230000Y-88900000D01*
X209550000Y-87630000D02*
X190500000Y-87630000D01*
X189230000Y-88900000D02*
X187960000Y-87630000D01*
X187960000Y-87630000D02*
X168910000Y-87630000D01*
X168910000Y-87630000D02*
X167640000Y-88900000D01*
X106680000Y-88900000D02*
X107950000Y-87630000D01*
X107950000Y-87630000D02*
X125730000Y-87630000D01*
X125730000Y-87630000D02*
X127000000Y-88900000D01*
X127000000Y-88900000D02*
X128270000Y-87630000D01*
X128270000Y-87630000D02*
X146050000Y-87630000D01*
X146050000Y-87630000D02*
X147320000Y-88900000D01*
X147320000Y-88900000D02*
X148590000Y-87630000D01*
X148590000Y-87630000D02*
X166370000Y-87630000D01*
X166370000Y-87630000D02*
X167640000Y-88900000D01*
%TO.N,Net-(J1-PadC13)*%
X210820000Y-96520000D02*
X209550000Y-95250000D01*
X209550000Y-95250000D02*
X190500000Y-95250000D01*
X190500000Y-95250000D02*
X189230000Y-96520000D01*
X167640000Y-96520000D02*
X168910000Y-95250000D01*
X168910000Y-95250000D02*
X187960000Y-95250000D01*
X187960000Y-95250000D02*
X189230000Y-96520000D01*
X85090000Y-96520000D02*
X86360000Y-95250000D01*
X86360000Y-95250000D02*
X105410000Y-95250000D01*
X105410000Y-95250000D02*
X106680000Y-96520000D01*
X106680000Y-96520000D02*
X107950000Y-95250000D01*
X125730000Y-95250000D02*
X127000000Y-96520000D01*
X107950000Y-95250000D02*
X125730000Y-95250000D01*
X127000000Y-96520000D02*
X128270000Y-95250000D01*
X128270000Y-95250000D02*
X146050000Y-95250000D01*
X146050000Y-95250000D02*
X147320000Y-96520000D01*
X148590000Y-95250000D02*
X147320000Y-96520000D01*
X166370000Y-95250000D02*
X148590000Y-95250000D01*
X167640000Y-96520000D02*
X166370000Y-95250000D01*
%TO.N,Net-(J1-PadC17)*%
X210820000Y-106680000D02*
X209550000Y-105410000D01*
X209550000Y-105410000D02*
X190500000Y-105410000D01*
X190500000Y-105410000D02*
X189230000Y-106680000D01*
X167640000Y-106680000D02*
X168910000Y-105410000D01*
X168910000Y-105410000D02*
X187960000Y-105410000D01*
X187960000Y-105410000D02*
X189230000Y-106680000D01*
X85090000Y-106680000D02*
X86360000Y-105410000D01*
X105410000Y-105410000D02*
X106680000Y-106680000D01*
X86360000Y-105410000D02*
X105410000Y-105410000D01*
X125730000Y-105410000D02*
X127000000Y-106680000D01*
X107950000Y-105410000D02*
X125730000Y-105410000D01*
X106680000Y-106680000D02*
X107950000Y-105410000D01*
X127000000Y-106680000D02*
X128270000Y-105410000D01*
X128270000Y-105410000D02*
X146050000Y-105410000D01*
X146050000Y-105410000D02*
X147320000Y-106680000D01*
X147320000Y-106680000D02*
X148590000Y-105410000D01*
X148590000Y-105410000D02*
X166370000Y-105410000D01*
X166370000Y-105410000D02*
X167640000Y-106680000D01*
%TO.N,Net-(J1-PadC21)*%
X209550000Y-115570000D02*
X210820000Y-116840000D01*
X190500000Y-115570000D02*
X209550000Y-115570000D01*
X189230000Y-116840000D02*
X190500000Y-115570000D01*
X167640000Y-116840000D02*
X168910000Y-115570000D01*
X168910000Y-115570000D02*
X187960000Y-115570000D01*
X187960000Y-115570000D02*
X189230000Y-116840000D01*
X85090000Y-116840000D02*
X86360000Y-115570000D01*
X86360000Y-115570000D02*
X105410000Y-115570000D01*
X105410000Y-115570000D02*
X106680000Y-116840000D01*
X106680000Y-116840000D02*
X107950000Y-115570000D01*
X107950000Y-115570000D02*
X125730000Y-115570000D01*
X125730000Y-115570000D02*
X127000000Y-116840000D01*
X127000000Y-116840000D02*
X128270000Y-115570000D01*
X128270000Y-115570000D02*
X146050000Y-115570000D01*
X146050000Y-115570000D02*
X147320000Y-116840000D01*
X147320000Y-116840000D02*
X148590000Y-115570000D01*
X148590000Y-115570000D02*
X166370000Y-115570000D01*
X166370000Y-115570000D02*
X167640000Y-116840000D01*
%TO.N,Net-(J1-PadC25)*%
X189230000Y-127000000D02*
X190500000Y-125730000D01*
X190500000Y-125730000D02*
X209550000Y-125730000D01*
X209550000Y-125730000D02*
X210820000Y-127000000D01*
X167640000Y-127000000D02*
X168910000Y-125730000D01*
X168910000Y-125730000D02*
X187960000Y-125730000D01*
X187960000Y-125730000D02*
X189230000Y-127000000D01*
X106680000Y-127000000D02*
X107950000Y-125730000D01*
X107950000Y-125730000D02*
X125730000Y-125730000D01*
X125730000Y-125730000D02*
X127000000Y-127000000D01*
X127000000Y-127000000D02*
X128270000Y-125730000D01*
X128270000Y-125730000D02*
X146050000Y-125730000D01*
X146050000Y-125730000D02*
X147320000Y-127000000D01*
X147320000Y-127000000D02*
X148590000Y-125730000D01*
X148590000Y-125730000D02*
X166370000Y-125730000D01*
X166370000Y-125730000D02*
X167640000Y-127000000D01*
%TO.N,Net-(J1-PadC26)*%
X189230000Y-129540000D02*
X190500000Y-128270000D01*
X190500000Y-128270000D02*
X209550000Y-128270000D01*
X209550000Y-128270000D02*
X210820000Y-129540000D01*
X187960000Y-128270000D02*
X189230000Y-129540000D01*
X168910000Y-128270000D02*
X187960000Y-128270000D01*
X167640000Y-129540000D02*
X168910000Y-128270000D01*
X106680000Y-129540000D02*
X107950000Y-128270000D01*
X107950000Y-128270000D02*
X125730000Y-128270000D01*
X125730000Y-128270000D02*
X127000000Y-129540000D01*
X146050000Y-128270000D02*
X147320000Y-129540000D01*
X128270000Y-128270000D02*
X146050000Y-128270000D01*
X127000000Y-129540000D02*
X128270000Y-128270000D01*
X147320000Y-129540000D02*
X148590000Y-128270000D01*
X148590000Y-128270000D02*
X166370000Y-128270000D01*
X166370000Y-128270000D02*
X167640000Y-129540000D01*
%TO.N,Net-(J1-PadC27)*%
X189230000Y-132080000D02*
X190500000Y-130810000D01*
X190500000Y-130810000D02*
X209550000Y-130810000D01*
X209550000Y-130810000D02*
X210820000Y-132080000D01*
X167640000Y-132080000D02*
X168910000Y-130810000D01*
X168910000Y-130810000D02*
X187960000Y-130810000D01*
X187960000Y-130810000D02*
X189230000Y-132080000D01*
X106680000Y-132080000D02*
X107950000Y-130810000D01*
X107950000Y-130810000D02*
X125730000Y-130810000D01*
X125730000Y-130810000D02*
X127000000Y-132080000D01*
X127000000Y-132080000D02*
X128270000Y-130810000D01*
X128270000Y-130810000D02*
X146050000Y-130810000D01*
X146050000Y-130810000D02*
X147320000Y-132080000D01*
X147320000Y-132080000D02*
X148590000Y-130810000D01*
X148590000Y-130810000D02*
X166370000Y-130810000D01*
X166370000Y-130810000D02*
X167640000Y-132080000D01*
%TD*%
M02*
