%TF.GenerationSoftware,KiCad,Pcbnew,(5.1.10)-1*%
%TF.CreationDate,2022-01-27T07:08:06+01:00*%
%TF.ProjectId,Backplane,4261636b-706c-4616-9e65-2e6b69636164,rev?*%
%TF.SameCoordinates,Original*%
%TF.FileFunction,Copper,L1,Top*%
%TF.FilePolarity,Positive*%
%FSLAX46Y46*%
G04 Gerber Fmt 4.6, Leading zero omitted, Abs format (unit mm)*
G04 Created by KiCad (PCBNEW (5.1.10)-1) date 2022-01-27 07:08:06*
%MOMM*%
%LPD*%
G01*
G04 APERTURE LIST*
%TA.AperFunction,ComponentPad*%
%ADD10O,1.950000X1.700000*%
%TD*%
%TA.AperFunction,ComponentPad*%
%ADD11C,1.550000*%
%TD*%
%TA.AperFunction,ComponentPad*%
%ADD12O,1.700000X1.700000*%
%TD*%
%TA.AperFunction,ComponentPad*%
%ADD13R,1.700000X1.700000*%
%TD*%
%TA.AperFunction,Conductor*%
%ADD14C,0.250000*%
%TD*%
%TA.AperFunction,Conductor*%
%ADD15C,0.254000*%
%TD*%
%TA.AperFunction,Conductor*%
%ADD16C,0.100000*%
%TD*%
G04 APERTURE END LIST*
D10*
%TO.P,J13,5*%
%TO.N,GND*%
X226060000Y-97950000D03*
%TO.P,J13,4*%
X226060000Y-100450000D03*
%TO.P,J13,3*%
%TO.N,-5V*%
X226060000Y-102950000D03*
%TO.P,J13,2*%
%TO.N,+5P*%
X226060000Y-105450000D03*
%TO.P,J13,1*%
%TO.N,+12P*%
%TA.AperFunction,ComponentPad*%
G36*
G01*
X226785000Y-108800000D02*
X225335000Y-108800000D01*
G75*
G02*
X225085000Y-108550000I0J250000D01*
G01*
X225085000Y-107350000D01*
G75*
G02*
X225335000Y-107100000I250000J0D01*
G01*
X226785000Y-107100000D01*
G75*
G02*
X227035000Y-107350000I0J-250000D01*
G01*
X227035000Y-108550000D01*
G75*
G02*
X226785000Y-108800000I-250000J0D01*
G01*
G37*
%TD.AperFunction*%
%TD*%
D11*
%TO.P,J17,C32*%
%TO.N,Net-(J17-PadC32)*%
X184150000Y-144780000D03*
%TO.P,J17,C31*%
%TO.N,Net-(J17-PadC31)*%
X184150000Y-142240000D03*
%TO.P,J17,C30*%
%TO.N,+5P*%
X184150000Y-139700000D03*
%TO.P,J17,C29*%
%TO.N,+12P*%
X184150000Y-137160000D03*
%TO.P,J17,C28*%
%TO.N,Net-(J17-PadC28)*%
X184150000Y-134620000D03*
%TO.P,J17,C27*%
%TO.N,Net-(J1-PadC27)*%
X184150000Y-132080000D03*
%TO.P,J17,C26*%
%TO.N,Net-(J1-PadC26)*%
X184150000Y-129540000D03*
%TO.P,J17,C25*%
%TO.N,Net-(J1-PadC25)*%
X184150000Y-127000000D03*
%TO.P,J17,C24*%
%TO.N,Net-(J1-PadC24)*%
X184150000Y-124460000D03*
%TO.P,J17,C23*%
%TO.N,Net-(J1-PadC23)*%
X184150000Y-121920000D03*
%TO.P,J17,C22*%
%TO.N,Net-(J1-PadC22)*%
X184150000Y-119380000D03*
%TO.P,J17,C21*%
%TO.N,Net-(J1-PadC21)*%
X184150000Y-116840000D03*
%TO.P,J17,C20*%
%TO.N,Net-(J1-PadC20)*%
X184150000Y-114300000D03*
%TO.P,J17,C19*%
%TO.N,Net-(J1-PadC19)*%
X184150000Y-111760000D03*
%TO.P,J17,C18*%
%TO.N,Net-(J1-PadC18)*%
X184150000Y-109220000D03*
%TO.P,J17,C17*%
%TO.N,Net-(J1-PadC17)*%
X184150000Y-106680000D03*
%TO.P,J17,C16*%
%TO.N,-5V*%
X184150000Y-104140000D03*
%TO.P,J17,C15*%
%TO.N,Net-(J1-PadC15)*%
X184150000Y-101600000D03*
%TO.P,J17,C14*%
%TO.N,Net-(J1-PadC14)*%
X184150000Y-99060000D03*
%TO.P,J17,C13*%
%TO.N,Net-(J1-PadC13)*%
X184150000Y-96520000D03*
%TO.P,J17,C12*%
%TO.N,Net-(J1-PadC12)*%
X184150000Y-93980000D03*
%TO.P,J17,C11*%
%TO.N,Net-(J17-PadC11)*%
X184150000Y-91440000D03*
%TO.P,J17,C10*%
%TO.N,Net-(J1-PadC10)*%
X184150000Y-88900000D03*
%TO.P,J17,C9*%
%TO.N,Net-(J1-PadC9)*%
X184150000Y-86360000D03*
%TO.P,J17,C8*%
%TO.N,Net-(J1-PadC8)*%
X184150000Y-83820000D03*
%TO.P,J17,C7*%
%TO.N,Net-(J1-PadC7)*%
X184150000Y-81280000D03*
%TO.P,J17,C6*%
%TO.N,Net-(J1-PadC6)*%
X184150000Y-78740000D03*
%TO.P,J17,C5*%
%TO.N,Net-(J1-PadC5)*%
X184150000Y-76200000D03*
%TO.P,J17,C4*%
%TO.N,Net-(J1-PadC4)*%
X184150000Y-73660000D03*
%TO.P,J17,C3*%
%TO.N,GND*%
X184150000Y-71120000D03*
%TO.P,J17,C2*%
X184150000Y-68580000D03*
%TO.P,J17,C1*%
%TO.N,Net-(J17-PadC1)*%
X184150000Y-66040000D03*
%TO.P,J17,b32*%
%TO.N,N/C*%
X181610000Y-144780000D03*
%TO.P,J17,b31*%
X181610000Y-142240000D03*
%TO.P,J17,b30*%
X181610000Y-139700000D03*
%TO.P,J17,b29*%
X181610000Y-137160000D03*
%TO.P,J17,b28*%
X181610000Y-134620000D03*
%TO.P,J17,b27*%
X181610000Y-132080000D03*
%TO.P,J17,b26*%
X181610000Y-129540000D03*
%TO.P,J17,b25*%
X181610000Y-127000000D03*
%TO.P,J17,b24*%
X181610000Y-124460000D03*
%TO.P,J17,b23*%
X181610000Y-121920000D03*
%TO.P,J17,b22*%
X181610000Y-119380000D03*
%TO.P,J17,b21*%
X181610000Y-116840000D03*
%TO.P,J17,b20*%
X181610000Y-114300000D03*
%TO.P,J17,b19*%
X181610000Y-111760000D03*
%TO.P,J17,b18*%
X181610000Y-109220000D03*
%TO.P,J17,b17*%
X181610000Y-106680000D03*
%TO.P,J17,b16*%
X181610000Y-104140000D03*
%TO.P,J17,b15*%
X181610000Y-101600000D03*
%TO.P,J17,b14*%
X181610000Y-99060000D03*
%TO.P,J17,b13*%
X181610000Y-96520000D03*
%TO.P,J17,b12*%
X181610000Y-93980000D03*
%TO.P,J17,b11*%
X181610000Y-91440000D03*
%TO.P,J17,b10*%
X181610000Y-88900000D03*
%TO.P,J17,b9*%
X181610000Y-86360000D03*
%TO.P,J17,b8*%
X181610000Y-83820000D03*
%TO.P,J17,b7*%
X181610000Y-81280000D03*
%TO.P,J17,b6*%
X181610000Y-78740000D03*
%TO.P,J17,b5*%
X181610000Y-76200000D03*
%TO.P,J17,b4*%
X181610000Y-73660000D03*
%TO.P,J17,b3*%
X181610000Y-71120000D03*
%TO.P,J17,b2*%
X181610000Y-68580000D03*
%TO.P,J17,b1*%
X181610000Y-66040000D03*
%TO.P,J17,A32*%
%TO.N,Net-(J17-PadA32)*%
X179070000Y-144780000D03*
%TO.P,J17,A31*%
%TO.N,Net-(J17-PadA31)*%
X179070000Y-142240000D03*
%TO.P,J17,A30*%
%TO.N,+5P*%
X179070000Y-139700000D03*
%TO.P,J17,A29*%
%TO.N,+12P*%
X179070000Y-137160000D03*
%TO.P,J17,A28*%
%TO.N,Net-(J17-PadA28)*%
X179070000Y-134620000D03*
%TO.P,J17,A27*%
%TO.N,Net-(J1-PadA27)*%
X179070000Y-132080000D03*
%TO.P,J17,A26*%
%TO.N,Net-(J1-PadA26)*%
X179070000Y-129540000D03*
%TO.P,J17,A25*%
%TO.N,Net-(J1-PadA25)*%
X179070000Y-127000000D03*
%TO.P,J17,A24*%
%TO.N,Net-(J1-PadA24)*%
X179070000Y-124460000D03*
%TO.P,J17,A23*%
%TO.N,Net-(J1-PadA23)*%
X179070000Y-121920000D03*
%TO.P,J17,A22*%
%TO.N,Net-(J1-PadA22)*%
X179070000Y-119380000D03*
%TO.P,J17,A21*%
%TO.N,Net-(J1-PadA21)*%
X179070000Y-116840000D03*
%TO.P,J17,A20*%
%TO.N,Net-(J1-PadA20)*%
X179070000Y-114300000D03*
%TO.P,J17,A19*%
%TO.N,Net-(J1-PadA19)*%
X179070000Y-111760000D03*
%TO.P,J17,A18*%
%TO.N,Net-(J1-PadA18)*%
X179070000Y-109220000D03*
%TO.P,J17,A17*%
%TO.N,Net-(J1-PadA17)*%
X179070000Y-106680000D03*
%TO.P,J17,A16*%
%TO.N,-5V*%
X179070000Y-104140000D03*
%TO.P,J17,A15*%
%TO.N,Net-(J1-PadA15)*%
X179070000Y-101600000D03*
%TO.P,J17,A14*%
%TO.N,Net-(J1-PadA14)*%
X179070000Y-99060000D03*
%TO.P,J17,A13*%
%TO.N,Net-(J1-PadA13)*%
X179070000Y-96520000D03*
%TO.P,J17,A12*%
%TO.N,Net-(J1-PadA12)*%
X179070000Y-93980000D03*
%TO.P,J17,A11*%
%TO.N,Net-(J17-PadA11)*%
X179070000Y-91440000D03*
%TO.P,J17,A10*%
%TO.N,Net-(J1-PadA10)*%
X179070000Y-88900000D03*
%TO.P,J17,A9*%
%TO.N,Net-(J1-PadA9)*%
X179070000Y-86360000D03*
%TO.P,J17,A8*%
%TO.N,Net-(J1-PadA8)*%
X179070000Y-83820000D03*
%TO.P,J17,A7*%
%TO.N,Net-(J1-PadA7)*%
X179070000Y-81280000D03*
%TO.P,J17,A6*%
%TO.N,Net-(J1-PadA6)*%
X179070000Y-78740000D03*
%TO.P,J17,A5*%
%TO.N,Net-(J1-PadA5)*%
X179070000Y-76200000D03*
%TO.P,J17,A4*%
%TO.N,Net-(J1-PadA4)*%
X179070000Y-73660000D03*
%TO.P,J17,A3*%
%TO.N,GND*%
X179070000Y-71120000D03*
%TO.P,J17,A2*%
X179070000Y-68580000D03*
%TO.P,J17,A1*%
%TO.N,Net-(J17-PadA1)*%
%TA.AperFunction,ComponentPad*%
G36*
G01*
X178295000Y-66565450D02*
X178295000Y-65514550D01*
G75*
G02*
X178544550Y-65265000I249550J0D01*
G01*
X179595450Y-65265000D01*
G75*
G02*
X179845000Y-65514550I0J-249550D01*
G01*
X179845000Y-66565450D01*
G75*
G02*
X179595450Y-66815000I-249550J0D01*
G01*
X178544550Y-66815000D01*
G75*
G02*
X178295000Y-66565450I0J249550D01*
G01*
G37*
%TD.AperFunction*%
%TD*%
%TO.P,J14,C32*%
%TO.N,Net-(J14-PadC32)*%
X129540000Y-144780000D03*
%TO.P,J14,C31*%
%TO.N,Net-(J14-PadC31)*%
X129540000Y-142240000D03*
%TO.P,J14,C30*%
%TO.N,+5P*%
X129540000Y-139700000D03*
%TO.P,J14,C29*%
%TO.N,+12P*%
X129540000Y-137160000D03*
%TO.P,J14,C28*%
%TO.N,Net-(J14-PadC28)*%
X129540000Y-134620000D03*
%TO.P,J14,C27*%
%TO.N,Net-(J1-PadC27)*%
X129540000Y-132080000D03*
%TO.P,J14,C26*%
%TO.N,Net-(J1-PadC26)*%
X129540000Y-129540000D03*
%TO.P,J14,C25*%
%TO.N,Net-(J1-PadC25)*%
X129540000Y-127000000D03*
%TO.P,J14,C24*%
%TO.N,Net-(J1-PadC24)*%
X129540000Y-124460000D03*
%TO.P,J14,C23*%
%TO.N,Net-(J1-PadC23)*%
X129540000Y-121920000D03*
%TO.P,J14,C22*%
%TO.N,Net-(J1-PadC22)*%
X129540000Y-119380000D03*
%TO.P,J14,C21*%
%TO.N,Net-(J1-PadC21)*%
X129540000Y-116840000D03*
%TO.P,J14,C20*%
%TO.N,Net-(J1-PadC20)*%
X129540000Y-114300000D03*
%TO.P,J14,C19*%
%TO.N,Net-(J1-PadC19)*%
X129540000Y-111760000D03*
%TO.P,J14,C18*%
%TO.N,Net-(J1-PadC18)*%
X129540000Y-109220000D03*
%TO.P,J14,C17*%
%TO.N,Net-(J1-PadC17)*%
X129540000Y-106680000D03*
%TO.P,J14,C16*%
%TO.N,-5V*%
X129540000Y-104140000D03*
%TO.P,J14,C15*%
%TO.N,Net-(J1-PadC15)*%
X129540000Y-101600000D03*
%TO.P,J14,C14*%
%TO.N,Net-(J1-PadC14)*%
X129540000Y-99060000D03*
%TO.P,J14,C13*%
%TO.N,Net-(J1-PadC13)*%
X129540000Y-96520000D03*
%TO.P,J14,C12*%
%TO.N,Net-(J1-PadC12)*%
X129540000Y-93980000D03*
%TO.P,J14,C11*%
%TO.N,Net-(J14-PadC11)*%
X129540000Y-91440000D03*
%TO.P,J14,C10*%
%TO.N,Net-(J1-PadC10)*%
X129540000Y-88900000D03*
%TO.P,J14,C9*%
%TO.N,Net-(J1-PadC9)*%
X129540000Y-86360000D03*
%TO.P,J14,C8*%
%TO.N,Net-(J1-PadC8)*%
X129540000Y-83820000D03*
%TO.P,J14,C7*%
%TO.N,Net-(J1-PadC7)*%
X129540000Y-81280000D03*
%TO.P,J14,C6*%
%TO.N,Net-(J1-PadC6)*%
X129540000Y-78740000D03*
%TO.P,J14,C5*%
%TO.N,Net-(J1-PadC5)*%
X129540000Y-76200000D03*
%TO.P,J14,C4*%
%TO.N,Net-(J1-PadC4)*%
X129540000Y-73660000D03*
%TO.P,J14,C3*%
%TO.N,GND*%
X129540000Y-71120000D03*
%TO.P,J14,C2*%
X129540000Y-68580000D03*
%TO.P,J14,C1*%
%TO.N,Net-(J14-PadC1)*%
X129540000Y-66040000D03*
%TO.P,J14,b32*%
%TO.N,N/C*%
X127000000Y-144780000D03*
%TO.P,J14,b31*%
X127000000Y-142240000D03*
%TO.P,J14,b30*%
X127000000Y-139700000D03*
%TO.P,J14,b29*%
X127000000Y-137160000D03*
%TO.P,J14,b28*%
X127000000Y-134620000D03*
%TO.P,J14,b27*%
X127000000Y-132080000D03*
%TO.P,J14,b26*%
X127000000Y-129540000D03*
%TO.P,J14,b25*%
X127000000Y-127000000D03*
%TO.P,J14,b24*%
X127000000Y-124460000D03*
%TO.P,J14,b23*%
X127000000Y-121920000D03*
%TO.P,J14,b22*%
X127000000Y-119380000D03*
%TO.P,J14,b21*%
X127000000Y-116840000D03*
%TO.P,J14,b20*%
X127000000Y-114300000D03*
%TO.P,J14,b19*%
X127000000Y-111760000D03*
%TO.P,J14,b18*%
X127000000Y-109220000D03*
%TO.P,J14,b17*%
X127000000Y-106680000D03*
%TO.P,J14,b16*%
X127000000Y-104140000D03*
%TO.P,J14,b15*%
X127000000Y-101600000D03*
%TO.P,J14,b14*%
X127000000Y-99060000D03*
%TO.P,J14,b13*%
X127000000Y-96520000D03*
%TO.P,J14,b12*%
X127000000Y-93980000D03*
%TO.P,J14,b11*%
X127000000Y-91440000D03*
%TO.P,J14,b10*%
X127000000Y-88900000D03*
%TO.P,J14,b9*%
X127000000Y-86360000D03*
%TO.P,J14,b8*%
X127000000Y-83820000D03*
%TO.P,J14,b7*%
X127000000Y-81280000D03*
%TO.P,J14,b6*%
X127000000Y-78740000D03*
%TO.P,J14,b5*%
X127000000Y-76200000D03*
%TO.P,J14,b4*%
X127000000Y-73660000D03*
%TO.P,J14,b3*%
X127000000Y-71120000D03*
%TO.P,J14,b2*%
X127000000Y-68580000D03*
%TO.P,J14,b1*%
X127000000Y-66040000D03*
%TO.P,J14,A32*%
%TO.N,Net-(J14-PadA32)*%
X124460000Y-144780000D03*
%TO.P,J14,A31*%
%TO.N,Net-(J14-PadA31)*%
X124460000Y-142240000D03*
%TO.P,J14,A30*%
%TO.N,+5P*%
X124460000Y-139700000D03*
%TO.P,J14,A29*%
%TO.N,+12P*%
X124460000Y-137160000D03*
%TO.P,J14,A28*%
%TO.N,Net-(J14-PadA28)*%
X124460000Y-134620000D03*
%TO.P,J14,A27*%
%TO.N,Net-(J1-PadA27)*%
X124460000Y-132080000D03*
%TO.P,J14,A26*%
%TO.N,Net-(J1-PadA26)*%
X124460000Y-129540000D03*
%TO.P,J14,A25*%
%TO.N,Net-(J1-PadA25)*%
X124460000Y-127000000D03*
%TO.P,J14,A24*%
%TO.N,Net-(J1-PadA24)*%
X124460000Y-124460000D03*
%TO.P,J14,A23*%
%TO.N,Net-(J1-PadA23)*%
X124460000Y-121920000D03*
%TO.P,J14,A22*%
%TO.N,Net-(J1-PadA22)*%
X124460000Y-119380000D03*
%TO.P,J14,A21*%
%TO.N,Net-(J1-PadA21)*%
X124460000Y-116840000D03*
%TO.P,J14,A20*%
%TO.N,Net-(J1-PadA20)*%
X124460000Y-114300000D03*
%TO.P,J14,A19*%
%TO.N,Net-(J1-PadA19)*%
X124460000Y-111760000D03*
%TO.P,J14,A18*%
%TO.N,Net-(J1-PadA18)*%
X124460000Y-109220000D03*
%TO.P,J14,A17*%
%TO.N,Net-(J1-PadA17)*%
X124460000Y-106680000D03*
%TO.P,J14,A16*%
%TO.N,-5V*%
X124460000Y-104140000D03*
%TO.P,J14,A15*%
%TO.N,Net-(J1-PadA15)*%
X124460000Y-101600000D03*
%TO.P,J14,A14*%
%TO.N,Net-(J1-PadA14)*%
X124460000Y-99060000D03*
%TO.P,J14,A13*%
%TO.N,Net-(J1-PadA13)*%
X124460000Y-96520000D03*
%TO.P,J14,A12*%
%TO.N,Net-(J1-PadA12)*%
X124460000Y-93980000D03*
%TO.P,J14,A11*%
%TO.N,Net-(J14-PadA11)*%
X124460000Y-91440000D03*
%TO.P,J14,A10*%
%TO.N,Net-(J1-PadA10)*%
X124460000Y-88900000D03*
%TO.P,J14,A9*%
%TO.N,Net-(J1-PadA9)*%
X124460000Y-86360000D03*
%TO.P,J14,A8*%
%TO.N,Net-(J1-PadA8)*%
X124460000Y-83820000D03*
%TO.P,J14,A7*%
%TO.N,Net-(J1-PadA7)*%
X124460000Y-81280000D03*
%TO.P,J14,A6*%
%TO.N,Net-(J1-PadA6)*%
X124460000Y-78740000D03*
%TO.P,J14,A5*%
%TO.N,Net-(J1-PadA5)*%
X124460000Y-76200000D03*
%TO.P,J14,A4*%
%TO.N,Net-(J1-PadA4)*%
X124460000Y-73660000D03*
%TO.P,J14,A3*%
%TO.N,GND*%
X124460000Y-71120000D03*
%TO.P,J14,A2*%
X124460000Y-68580000D03*
%TO.P,J14,A1*%
%TO.N,Net-(J14-PadA1)*%
%TA.AperFunction,ComponentPad*%
G36*
G01*
X123685000Y-66565450D02*
X123685000Y-65514550D01*
G75*
G02*
X123934550Y-65265000I249550J0D01*
G01*
X124985450Y-65265000D01*
G75*
G02*
X125235000Y-65514550I0J-249550D01*
G01*
X125235000Y-66565450D01*
G75*
G02*
X124985450Y-66815000I-249550J0D01*
G01*
X123934550Y-66815000D01*
G75*
G02*
X123685000Y-66565450I0J249550D01*
G01*
G37*
%TD.AperFunction*%
%TD*%
%TO.P,J10,C32*%
%TO.N,Net-(J10-PadC32)*%
X212090000Y-144780000D03*
%TO.P,J10,C31*%
%TO.N,Net-(J10-PadC31)*%
X212090000Y-142240000D03*
%TO.P,J10,C30*%
%TO.N,+5P*%
X212090000Y-139700000D03*
%TO.P,J10,C29*%
%TO.N,+12P*%
X212090000Y-137160000D03*
%TO.P,J10,C28*%
%TO.N,Net-(J10-PadC28)*%
X212090000Y-134620000D03*
%TO.P,J10,C27*%
%TO.N,Net-(J1-PadC27)*%
X212090000Y-132080000D03*
%TO.P,J10,C26*%
%TO.N,Net-(J1-PadC26)*%
X212090000Y-129540000D03*
%TO.P,J10,C25*%
%TO.N,Net-(J1-PadC25)*%
X212090000Y-127000000D03*
%TO.P,J10,C24*%
%TO.N,Net-(J1-PadC24)*%
X212090000Y-124460000D03*
%TO.P,J10,C23*%
%TO.N,Net-(J1-PadC23)*%
X212090000Y-121920000D03*
%TO.P,J10,C22*%
%TO.N,Net-(J1-PadC22)*%
X212090000Y-119380000D03*
%TO.P,J10,C21*%
%TO.N,Net-(J1-PadC21)*%
X212090000Y-116840000D03*
%TO.P,J10,C20*%
%TO.N,Net-(J1-PadC20)*%
X212090000Y-114300000D03*
%TO.P,J10,C19*%
%TO.N,Net-(J1-PadC19)*%
X212090000Y-111760000D03*
%TO.P,J10,C18*%
%TO.N,Net-(J1-PadC18)*%
X212090000Y-109220000D03*
%TO.P,J10,C17*%
%TO.N,Net-(J1-PadC17)*%
X212090000Y-106680000D03*
%TO.P,J10,C16*%
%TO.N,-5V*%
X212090000Y-104140000D03*
%TO.P,J10,C15*%
%TO.N,Net-(J1-PadC15)*%
X212090000Y-101600000D03*
%TO.P,J10,C14*%
%TO.N,Net-(J1-PadC14)*%
X212090000Y-99060000D03*
%TO.P,J10,C13*%
%TO.N,Net-(J1-PadC13)*%
X212090000Y-96520000D03*
%TO.P,J10,C12*%
%TO.N,Net-(J1-PadC12)*%
X212090000Y-93980000D03*
%TO.P,J10,C11*%
%TO.N,Net-(J10-PadC11)*%
X212090000Y-91440000D03*
%TO.P,J10,C10*%
%TO.N,Net-(J1-PadC10)*%
X212090000Y-88900000D03*
%TO.P,J10,C9*%
%TO.N,Net-(J1-PadC9)*%
X212090000Y-86360000D03*
%TO.P,J10,C8*%
%TO.N,Net-(J1-PadC8)*%
X212090000Y-83820000D03*
%TO.P,J10,C7*%
%TO.N,Net-(J1-PadC7)*%
X212090000Y-81280000D03*
%TO.P,J10,C6*%
%TO.N,Net-(J1-PadC6)*%
X212090000Y-78740000D03*
%TO.P,J10,C5*%
%TO.N,Net-(J1-PadC5)*%
X212090000Y-76200000D03*
%TO.P,J10,C4*%
%TO.N,Net-(J1-PadC4)*%
X212090000Y-73660000D03*
%TO.P,J10,C3*%
%TO.N,GND*%
X212090000Y-71120000D03*
%TO.P,J10,C2*%
X212090000Y-68580000D03*
%TO.P,J10,C1*%
%TO.N,Net-(J10-PadC1)*%
X212090000Y-66040000D03*
%TO.P,J10,b32*%
%TO.N,N/C*%
X209550000Y-144780000D03*
%TO.P,J10,b31*%
X209550000Y-142240000D03*
%TO.P,J10,b30*%
X209550000Y-139700000D03*
%TO.P,J10,b29*%
X209550000Y-137160000D03*
%TO.P,J10,b28*%
X209550000Y-134620000D03*
%TO.P,J10,b27*%
X209550000Y-132080000D03*
%TO.P,J10,b26*%
X209550000Y-129540000D03*
%TO.P,J10,b25*%
X209550000Y-127000000D03*
%TO.P,J10,b24*%
X209550000Y-124460000D03*
%TO.P,J10,b23*%
X209550000Y-121920000D03*
%TO.P,J10,b22*%
X209550000Y-119380000D03*
%TO.P,J10,b21*%
X209550000Y-116840000D03*
%TO.P,J10,b20*%
X209550000Y-114300000D03*
%TO.P,J10,b19*%
X209550000Y-111760000D03*
%TO.P,J10,b18*%
X209550000Y-109220000D03*
%TO.P,J10,b17*%
X209550000Y-106680000D03*
%TO.P,J10,b16*%
X209550000Y-104140000D03*
%TO.P,J10,b15*%
X209550000Y-101600000D03*
%TO.P,J10,b14*%
X209550000Y-99060000D03*
%TO.P,J10,b13*%
X209550000Y-96520000D03*
%TO.P,J10,b12*%
X209550000Y-93980000D03*
%TO.P,J10,b11*%
X209550000Y-91440000D03*
%TO.P,J10,b10*%
X209550000Y-88900000D03*
%TO.P,J10,b9*%
X209550000Y-86360000D03*
%TO.P,J10,b8*%
X209550000Y-83820000D03*
%TO.P,J10,b7*%
X209550000Y-81280000D03*
%TO.P,J10,b6*%
X209550000Y-78740000D03*
%TO.P,J10,b5*%
X209550000Y-76200000D03*
%TO.P,J10,b4*%
X209550000Y-73660000D03*
%TO.P,J10,b3*%
X209550000Y-71120000D03*
%TO.P,J10,b2*%
X209550000Y-68580000D03*
%TO.P,J10,b1*%
X209550000Y-66040000D03*
%TO.P,J10,A32*%
%TO.N,Net-(J10-PadA32)*%
X207010000Y-144780000D03*
%TO.P,J10,A31*%
%TO.N,Net-(J10-PadA31)*%
X207010000Y-142240000D03*
%TO.P,J10,A30*%
%TO.N,+5P*%
X207010000Y-139700000D03*
%TO.P,J10,A29*%
%TO.N,+12P*%
X207010000Y-137160000D03*
%TO.P,J10,A28*%
%TO.N,Net-(J10-PadA28)*%
X207010000Y-134620000D03*
%TO.P,J10,A27*%
%TO.N,Net-(J1-PadA27)*%
X207010000Y-132080000D03*
%TO.P,J10,A26*%
%TO.N,Net-(J1-PadA26)*%
X207010000Y-129540000D03*
%TO.P,J10,A25*%
%TO.N,Net-(J1-PadA25)*%
X207010000Y-127000000D03*
%TO.P,J10,A24*%
%TO.N,Net-(J1-PadA24)*%
X207010000Y-124460000D03*
%TO.P,J10,A23*%
%TO.N,Net-(J1-PadA23)*%
X207010000Y-121920000D03*
%TO.P,J10,A22*%
%TO.N,Net-(J1-PadA22)*%
X207010000Y-119380000D03*
%TO.P,J10,A21*%
%TO.N,Net-(J1-PadA21)*%
X207010000Y-116840000D03*
%TO.P,J10,A20*%
%TO.N,Net-(J1-PadA20)*%
X207010000Y-114300000D03*
%TO.P,J10,A19*%
%TO.N,Net-(J1-PadA19)*%
X207010000Y-111760000D03*
%TO.P,J10,A18*%
%TO.N,Net-(J1-PadA18)*%
X207010000Y-109220000D03*
%TO.P,J10,A17*%
%TO.N,Net-(J1-PadA17)*%
X207010000Y-106680000D03*
%TO.P,J10,A16*%
%TO.N,-5V*%
X207010000Y-104140000D03*
%TO.P,J10,A15*%
%TO.N,Net-(J1-PadA15)*%
X207010000Y-101600000D03*
%TO.P,J10,A14*%
%TO.N,Net-(J1-PadA14)*%
X207010000Y-99060000D03*
%TO.P,J10,A13*%
%TO.N,Net-(J1-PadA13)*%
X207010000Y-96520000D03*
%TO.P,J10,A12*%
%TO.N,Net-(J1-PadA12)*%
X207010000Y-93980000D03*
%TO.P,J10,A11*%
%TO.N,Net-(J10-PadA11)*%
X207010000Y-91440000D03*
%TO.P,J10,A10*%
%TO.N,Net-(J1-PadA10)*%
X207010000Y-88900000D03*
%TO.P,J10,A9*%
%TO.N,Net-(J1-PadA9)*%
X207010000Y-86360000D03*
%TO.P,J10,A8*%
%TO.N,Net-(J1-PadA8)*%
X207010000Y-83820000D03*
%TO.P,J10,A7*%
%TO.N,Net-(J1-PadA7)*%
X207010000Y-81280000D03*
%TO.P,J10,A6*%
%TO.N,Net-(J1-PadA6)*%
X207010000Y-78740000D03*
%TO.P,J10,A5*%
%TO.N,Net-(J1-PadA5)*%
X207010000Y-76200000D03*
%TO.P,J10,A4*%
%TO.N,Net-(J1-PadA4)*%
X207010000Y-73660000D03*
%TO.P,J10,A3*%
%TO.N,GND*%
X207010000Y-71120000D03*
%TO.P,J10,A2*%
X207010000Y-68580000D03*
%TO.P,J10,A1*%
%TO.N,Net-(J10-PadA1)*%
%TA.AperFunction,ComponentPad*%
G36*
G01*
X206235000Y-66565450D02*
X206235000Y-65514550D01*
G75*
G02*
X206484550Y-65265000I249550J0D01*
G01*
X207535450Y-65265000D01*
G75*
G02*
X207785000Y-65514550I0J-249550D01*
G01*
X207785000Y-66565450D01*
G75*
G02*
X207535450Y-66815000I-249550J0D01*
G01*
X206484550Y-66815000D01*
G75*
G02*
X206235000Y-66565450I0J249550D01*
G01*
G37*
%TD.AperFunction*%
%TD*%
%TO.P,J7,C32*%
%TO.N,Net-(J7-PadC32)*%
X156210000Y-144780000D03*
%TO.P,J7,C31*%
%TO.N,Net-(J7-PadC31)*%
X156210000Y-142240000D03*
%TO.P,J7,C30*%
%TO.N,+5P*%
X156210000Y-139700000D03*
%TO.P,J7,C29*%
%TO.N,+12P*%
X156210000Y-137160000D03*
%TO.P,J7,C28*%
%TO.N,Net-(J7-PadC28)*%
X156210000Y-134620000D03*
%TO.P,J7,C27*%
%TO.N,Net-(J1-PadC27)*%
X156210000Y-132080000D03*
%TO.P,J7,C26*%
%TO.N,Net-(J1-PadC26)*%
X156210000Y-129540000D03*
%TO.P,J7,C25*%
%TO.N,Net-(J1-PadC25)*%
X156210000Y-127000000D03*
%TO.P,J7,C24*%
%TO.N,Net-(J1-PadC24)*%
X156210000Y-124460000D03*
%TO.P,J7,C23*%
%TO.N,Net-(J1-PadC23)*%
X156210000Y-121920000D03*
%TO.P,J7,C22*%
%TO.N,Net-(J1-PadC22)*%
X156210000Y-119380000D03*
%TO.P,J7,C21*%
%TO.N,Net-(J1-PadC21)*%
X156210000Y-116840000D03*
%TO.P,J7,C20*%
%TO.N,Net-(J1-PadC20)*%
X156210000Y-114300000D03*
%TO.P,J7,C19*%
%TO.N,Net-(J1-PadC19)*%
X156210000Y-111760000D03*
%TO.P,J7,C18*%
%TO.N,Net-(J1-PadC18)*%
X156210000Y-109220000D03*
%TO.P,J7,C17*%
%TO.N,Net-(J1-PadC17)*%
X156210000Y-106680000D03*
%TO.P,J7,C16*%
%TO.N,-5V*%
X156210000Y-104140000D03*
%TO.P,J7,C15*%
%TO.N,Net-(J1-PadC15)*%
X156210000Y-101600000D03*
%TO.P,J7,C14*%
%TO.N,Net-(J1-PadC14)*%
X156210000Y-99060000D03*
%TO.P,J7,C13*%
%TO.N,Net-(J1-PadC13)*%
X156210000Y-96520000D03*
%TO.P,J7,C12*%
%TO.N,Net-(J1-PadC12)*%
X156210000Y-93980000D03*
%TO.P,J7,C11*%
%TO.N,Net-(J7-PadC11)*%
X156210000Y-91440000D03*
%TO.P,J7,C10*%
%TO.N,Net-(J1-PadC10)*%
X156210000Y-88900000D03*
%TO.P,J7,C9*%
%TO.N,Net-(J1-PadC9)*%
X156210000Y-86360000D03*
%TO.P,J7,C8*%
%TO.N,Net-(J1-PadC8)*%
X156210000Y-83820000D03*
%TO.P,J7,C7*%
%TO.N,Net-(J1-PadC7)*%
X156210000Y-81280000D03*
%TO.P,J7,C6*%
%TO.N,Net-(J1-PadC6)*%
X156210000Y-78740000D03*
%TO.P,J7,C5*%
%TO.N,Net-(J1-PadC5)*%
X156210000Y-76200000D03*
%TO.P,J7,C4*%
%TO.N,Net-(J1-PadC4)*%
X156210000Y-73660000D03*
%TO.P,J7,C3*%
%TO.N,GND*%
X156210000Y-71120000D03*
%TO.P,J7,C2*%
X156210000Y-68580000D03*
%TO.P,J7,C1*%
%TO.N,Net-(J7-PadC1)*%
X156210000Y-66040000D03*
%TO.P,J7,b32*%
%TO.N,N/C*%
X153670000Y-144780000D03*
%TO.P,J7,b31*%
X153670000Y-142240000D03*
%TO.P,J7,b30*%
X153670000Y-139700000D03*
%TO.P,J7,b29*%
X153670000Y-137160000D03*
%TO.P,J7,b28*%
X153670000Y-134620000D03*
%TO.P,J7,b27*%
X153670000Y-132080000D03*
%TO.P,J7,b26*%
X153670000Y-129540000D03*
%TO.P,J7,b25*%
X153670000Y-127000000D03*
%TO.P,J7,b24*%
X153670000Y-124460000D03*
%TO.P,J7,b23*%
X153670000Y-121920000D03*
%TO.P,J7,b22*%
X153670000Y-119380000D03*
%TO.P,J7,b21*%
X153670000Y-116840000D03*
%TO.P,J7,b20*%
X153670000Y-114300000D03*
%TO.P,J7,b19*%
X153670000Y-111760000D03*
%TO.P,J7,b18*%
X153670000Y-109220000D03*
%TO.P,J7,b17*%
X153670000Y-106680000D03*
%TO.P,J7,b16*%
X153670000Y-104140000D03*
%TO.P,J7,b15*%
X153670000Y-101600000D03*
%TO.P,J7,b14*%
X153670000Y-99060000D03*
%TO.P,J7,b13*%
X153670000Y-96520000D03*
%TO.P,J7,b12*%
X153670000Y-93980000D03*
%TO.P,J7,b11*%
X153670000Y-91440000D03*
%TO.P,J7,b10*%
X153670000Y-88900000D03*
%TO.P,J7,b9*%
X153670000Y-86360000D03*
%TO.P,J7,b8*%
X153670000Y-83820000D03*
%TO.P,J7,b7*%
X153670000Y-81280000D03*
%TO.P,J7,b6*%
X153670000Y-78740000D03*
%TO.P,J7,b5*%
X153670000Y-76200000D03*
%TO.P,J7,b4*%
X153670000Y-73660000D03*
%TO.P,J7,b3*%
X153670000Y-71120000D03*
%TO.P,J7,b2*%
X153670000Y-68580000D03*
%TO.P,J7,b1*%
X153670000Y-66040000D03*
%TO.P,J7,A32*%
%TO.N,Net-(J7-PadA32)*%
X151130000Y-144780000D03*
%TO.P,J7,A31*%
%TO.N,Net-(J7-PadA31)*%
X151130000Y-142240000D03*
%TO.P,J7,A30*%
%TO.N,+5P*%
X151130000Y-139700000D03*
%TO.P,J7,A29*%
%TO.N,+12P*%
X151130000Y-137160000D03*
%TO.P,J7,A28*%
%TO.N,Net-(J7-PadA28)*%
X151130000Y-134620000D03*
%TO.P,J7,A27*%
%TO.N,Net-(J1-PadA27)*%
X151130000Y-132080000D03*
%TO.P,J7,A26*%
%TO.N,Net-(J1-PadA26)*%
X151130000Y-129540000D03*
%TO.P,J7,A25*%
%TO.N,Net-(J1-PadA25)*%
X151130000Y-127000000D03*
%TO.P,J7,A24*%
%TO.N,Net-(J1-PadA24)*%
X151130000Y-124460000D03*
%TO.P,J7,A23*%
%TO.N,Net-(J1-PadA23)*%
X151130000Y-121920000D03*
%TO.P,J7,A22*%
%TO.N,Net-(J1-PadA22)*%
X151130000Y-119380000D03*
%TO.P,J7,A21*%
%TO.N,Net-(J1-PadA21)*%
X151130000Y-116840000D03*
%TO.P,J7,A20*%
%TO.N,Net-(J1-PadA20)*%
X151130000Y-114300000D03*
%TO.P,J7,A19*%
%TO.N,Net-(J1-PadA19)*%
X151130000Y-111760000D03*
%TO.P,J7,A18*%
%TO.N,Net-(J1-PadA18)*%
X151130000Y-109220000D03*
%TO.P,J7,A17*%
%TO.N,Net-(J1-PadA17)*%
X151130000Y-106680000D03*
%TO.P,J7,A16*%
%TO.N,-5V*%
X151130000Y-104140000D03*
%TO.P,J7,A15*%
%TO.N,Net-(J1-PadA15)*%
X151130000Y-101600000D03*
%TO.P,J7,A14*%
%TO.N,Net-(J1-PadA14)*%
X151130000Y-99060000D03*
%TO.P,J7,A13*%
%TO.N,Net-(J1-PadA13)*%
X151130000Y-96520000D03*
%TO.P,J7,A12*%
%TO.N,Net-(J1-PadA12)*%
X151130000Y-93980000D03*
%TO.P,J7,A11*%
%TO.N,Net-(J7-PadA11)*%
X151130000Y-91440000D03*
%TO.P,J7,A10*%
%TO.N,Net-(J1-PadA10)*%
X151130000Y-88900000D03*
%TO.P,J7,A9*%
%TO.N,Net-(J1-PadA9)*%
X151130000Y-86360000D03*
%TO.P,J7,A8*%
%TO.N,Net-(J1-PadA8)*%
X151130000Y-83820000D03*
%TO.P,J7,A7*%
%TO.N,Net-(J1-PadA7)*%
X151130000Y-81280000D03*
%TO.P,J7,A6*%
%TO.N,Net-(J1-PadA6)*%
X151130000Y-78740000D03*
%TO.P,J7,A5*%
%TO.N,Net-(J1-PadA5)*%
X151130000Y-76200000D03*
%TO.P,J7,A4*%
%TO.N,Net-(J1-PadA4)*%
X151130000Y-73660000D03*
%TO.P,J7,A3*%
%TO.N,GND*%
X151130000Y-71120000D03*
%TO.P,J7,A2*%
X151130000Y-68580000D03*
%TO.P,J7,A1*%
%TO.N,Net-(J7-PadA1)*%
%TA.AperFunction,ComponentPad*%
G36*
G01*
X150355000Y-66565450D02*
X150355000Y-65514550D01*
G75*
G02*
X150604550Y-65265000I249550J0D01*
G01*
X151655450Y-65265000D01*
G75*
G02*
X151905000Y-65514550I0J-249550D01*
G01*
X151905000Y-66565450D01*
G75*
G02*
X151655450Y-66815000I-249550J0D01*
G01*
X150604550Y-66815000D01*
G75*
G02*
X150355000Y-66565450I0J249550D01*
G01*
G37*
%TD.AperFunction*%
%TD*%
%TO.P,J4,C32*%
%TO.N,Net-(J4-PadC32)*%
X102870000Y-144780000D03*
%TO.P,J4,C31*%
%TO.N,Net-(J4-PadC31)*%
X102870000Y-142240000D03*
%TO.P,J4,C30*%
%TO.N,+5P*%
X102870000Y-139700000D03*
%TO.P,J4,C29*%
%TO.N,+12P*%
X102870000Y-137160000D03*
%TO.P,J4,C28*%
%TO.N,Net-(J4-PadC28)*%
X102870000Y-134620000D03*
%TO.P,J4,C27*%
%TO.N,Net-(J1-PadC27)*%
X102870000Y-132080000D03*
%TO.P,J4,C26*%
%TO.N,Net-(J1-PadC26)*%
X102870000Y-129540000D03*
%TO.P,J4,C25*%
%TO.N,Net-(J1-PadC25)*%
X102870000Y-127000000D03*
%TO.P,J4,C24*%
%TO.N,Net-(J1-PadC24)*%
X102870000Y-124460000D03*
%TO.P,J4,C23*%
%TO.N,Net-(J1-PadC23)*%
X102870000Y-121920000D03*
%TO.P,J4,C22*%
%TO.N,Net-(J1-PadC22)*%
X102870000Y-119380000D03*
%TO.P,J4,C21*%
%TO.N,Net-(J1-PadC21)*%
X102870000Y-116840000D03*
%TO.P,J4,C20*%
%TO.N,Net-(J1-PadC20)*%
X102870000Y-114300000D03*
%TO.P,J4,C19*%
%TO.N,Net-(J1-PadC19)*%
X102870000Y-111760000D03*
%TO.P,J4,C18*%
%TO.N,Net-(J1-PadC18)*%
X102870000Y-109220000D03*
%TO.P,J4,C17*%
%TO.N,Net-(J1-PadC17)*%
X102870000Y-106680000D03*
%TO.P,J4,C16*%
%TO.N,-5V*%
X102870000Y-104140000D03*
%TO.P,J4,C15*%
%TO.N,Net-(J1-PadC15)*%
X102870000Y-101600000D03*
%TO.P,J4,C14*%
%TO.N,Net-(J1-PadC14)*%
X102870000Y-99060000D03*
%TO.P,J4,C13*%
%TO.N,Net-(J1-PadC13)*%
X102870000Y-96520000D03*
%TO.P,J4,C12*%
%TO.N,Net-(J1-PadC12)*%
X102870000Y-93980000D03*
%TO.P,J4,C11*%
%TO.N,Net-(J4-PadC11)*%
X102870000Y-91440000D03*
%TO.P,J4,C10*%
%TO.N,Net-(J1-PadC10)*%
X102870000Y-88900000D03*
%TO.P,J4,C9*%
%TO.N,Net-(J1-PadC9)*%
X102870000Y-86360000D03*
%TO.P,J4,C8*%
%TO.N,Net-(J1-PadC8)*%
X102870000Y-83820000D03*
%TO.P,J4,C7*%
%TO.N,Net-(J1-PadC7)*%
X102870000Y-81280000D03*
%TO.P,J4,C6*%
%TO.N,Net-(J1-PadC6)*%
X102870000Y-78740000D03*
%TO.P,J4,C5*%
%TO.N,Net-(J1-PadC5)*%
X102870000Y-76200000D03*
%TO.P,J4,C4*%
%TO.N,Net-(J1-PadC4)*%
X102870000Y-73660000D03*
%TO.P,J4,C3*%
%TO.N,GND*%
X102870000Y-71120000D03*
%TO.P,J4,C2*%
X102870000Y-68580000D03*
%TO.P,J4,C1*%
%TO.N,Net-(J4-PadC1)*%
X102870000Y-66040000D03*
%TO.P,J4,b32*%
%TO.N,N/C*%
X100330000Y-144780000D03*
%TO.P,J4,b31*%
X100330000Y-142240000D03*
%TO.P,J4,b30*%
X100330000Y-139700000D03*
%TO.P,J4,b29*%
X100330000Y-137160000D03*
%TO.P,J4,b28*%
X100330000Y-134620000D03*
%TO.P,J4,b27*%
X100330000Y-132080000D03*
%TO.P,J4,b26*%
X100330000Y-129540000D03*
%TO.P,J4,b25*%
X100330000Y-127000000D03*
%TO.P,J4,b24*%
X100330000Y-124460000D03*
%TO.P,J4,b23*%
X100330000Y-121920000D03*
%TO.P,J4,b22*%
X100330000Y-119380000D03*
%TO.P,J4,b21*%
X100330000Y-116840000D03*
%TO.P,J4,b20*%
X100330000Y-114300000D03*
%TO.P,J4,b19*%
X100330000Y-111760000D03*
%TO.P,J4,b18*%
X100330000Y-109220000D03*
%TO.P,J4,b17*%
X100330000Y-106680000D03*
%TO.P,J4,b16*%
X100330000Y-104140000D03*
%TO.P,J4,b15*%
X100330000Y-101600000D03*
%TO.P,J4,b14*%
X100330000Y-99060000D03*
%TO.P,J4,b13*%
X100330000Y-96520000D03*
%TO.P,J4,b12*%
X100330000Y-93980000D03*
%TO.P,J4,b11*%
X100330000Y-91440000D03*
%TO.P,J4,b10*%
X100330000Y-88900000D03*
%TO.P,J4,b9*%
X100330000Y-86360000D03*
%TO.P,J4,b8*%
X100330000Y-83820000D03*
%TO.P,J4,b7*%
X100330000Y-81280000D03*
%TO.P,J4,b6*%
X100330000Y-78740000D03*
%TO.P,J4,b5*%
X100330000Y-76200000D03*
%TO.P,J4,b4*%
X100330000Y-73660000D03*
%TO.P,J4,b3*%
X100330000Y-71120000D03*
%TO.P,J4,b2*%
X100330000Y-68580000D03*
%TO.P,J4,b1*%
X100330000Y-66040000D03*
%TO.P,J4,A32*%
%TO.N,Net-(J4-PadA32)*%
X97790000Y-144780000D03*
%TO.P,J4,A31*%
%TO.N,Net-(J4-PadA31)*%
X97790000Y-142240000D03*
%TO.P,J4,A30*%
%TO.N,+5P*%
X97790000Y-139700000D03*
%TO.P,J4,A29*%
%TO.N,+12P*%
X97790000Y-137160000D03*
%TO.P,J4,A28*%
%TO.N,Net-(J4-PadA28)*%
X97790000Y-134620000D03*
%TO.P,J4,A27*%
%TO.N,Net-(J1-PadA27)*%
X97790000Y-132080000D03*
%TO.P,J4,A26*%
%TO.N,Net-(J1-PadA26)*%
X97790000Y-129540000D03*
%TO.P,J4,A25*%
%TO.N,Net-(J1-PadA25)*%
X97790000Y-127000000D03*
%TO.P,J4,A24*%
%TO.N,Net-(J1-PadA24)*%
X97790000Y-124460000D03*
%TO.P,J4,A23*%
%TO.N,Net-(J1-PadA23)*%
X97790000Y-121920000D03*
%TO.P,J4,A22*%
%TO.N,Net-(J1-PadA22)*%
X97790000Y-119380000D03*
%TO.P,J4,A21*%
%TO.N,Net-(J1-PadA21)*%
X97790000Y-116840000D03*
%TO.P,J4,A20*%
%TO.N,Net-(J1-PadA20)*%
X97790000Y-114300000D03*
%TO.P,J4,A19*%
%TO.N,Net-(J1-PadA19)*%
X97790000Y-111760000D03*
%TO.P,J4,A18*%
%TO.N,Net-(J1-PadA18)*%
X97790000Y-109220000D03*
%TO.P,J4,A17*%
%TO.N,Net-(J1-PadA17)*%
X97790000Y-106680000D03*
%TO.P,J4,A16*%
%TO.N,-5V*%
X97790000Y-104140000D03*
%TO.P,J4,A15*%
%TO.N,Net-(J1-PadA15)*%
X97790000Y-101600000D03*
%TO.P,J4,A14*%
%TO.N,Net-(J1-PadA14)*%
X97790000Y-99060000D03*
%TO.P,J4,A13*%
%TO.N,Net-(J1-PadA13)*%
X97790000Y-96520000D03*
%TO.P,J4,A12*%
%TO.N,Net-(J1-PadA12)*%
X97790000Y-93980000D03*
%TO.P,J4,A11*%
%TO.N,Net-(J4-PadA11)*%
X97790000Y-91440000D03*
%TO.P,J4,A10*%
%TO.N,Net-(J1-PadA10)*%
X97790000Y-88900000D03*
%TO.P,J4,A9*%
%TO.N,Net-(J1-PadA9)*%
X97790000Y-86360000D03*
%TO.P,J4,A8*%
%TO.N,Net-(J1-PadA8)*%
X97790000Y-83820000D03*
%TO.P,J4,A7*%
%TO.N,Net-(J1-PadA7)*%
X97790000Y-81280000D03*
%TO.P,J4,A6*%
%TO.N,Net-(J1-PadA6)*%
X97790000Y-78740000D03*
%TO.P,J4,A5*%
%TO.N,Net-(J1-PadA5)*%
X97790000Y-76200000D03*
%TO.P,J4,A4*%
%TO.N,Net-(J1-PadA4)*%
X97790000Y-73660000D03*
%TO.P,J4,A3*%
%TO.N,GND*%
X97790000Y-71120000D03*
%TO.P,J4,A2*%
X97790000Y-68580000D03*
%TO.P,J4,A1*%
%TO.N,Net-(J4-PadA1)*%
%TA.AperFunction,ComponentPad*%
G36*
G01*
X97015000Y-66565450D02*
X97015000Y-65514550D01*
G75*
G02*
X97264550Y-65265000I249550J0D01*
G01*
X98315450Y-65265000D01*
G75*
G02*
X98565000Y-65514550I0J-249550D01*
G01*
X98565000Y-66565450D01*
G75*
G02*
X98315450Y-66815000I-249550J0D01*
G01*
X97264550Y-66815000D01*
G75*
G02*
X97015000Y-66565450I0J249550D01*
G01*
G37*
%TD.AperFunction*%
%TD*%
%TO.P,J1,C32*%
%TO.N,Net-(J1-PadC32)*%
X76200000Y-144780000D03*
%TO.P,J1,C31*%
%TO.N,Net-(J1-PadC31)*%
X76200000Y-142240000D03*
%TO.P,J1,C30*%
%TO.N,+5P*%
X76200000Y-139700000D03*
%TO.P,J1,C29*%
%TO.N,+12P*%
X76200000Y-137160000D03*
%TO.P,J1,C28*%
%TO.N,Net-(J1-PadC28)*%
X76200000Y-134620000D03*
%TO.P,J1,C27*%
%TO.N,Net-(J1-PadC27)*%
X76200000Y-132080000D03*
%TO.P,J1,C26*%
%TO.N,Net-(J1-PadC26)*%
X76200000Y-129540000D03*
%TO.P,J1,C25*%
%TO.N,Net-(J1-PadC25)*%
X76200000Y-127000000D03*
%TO.P,J1,C24*%
%TO.N,Net-(J1-PadC24)*%
X76200000Y-124460000D03*
%TO.P,J1,C23*%
%TO.N,Net-(J1-PadC23)*%
X76200000Y-121920000D03*
%TO.P,J1,C22*%
%TO.N,Net-(J1-PadC22)*%
X76200000Y-119380000D03*
%TO.P,J1,C21*%
%TO.N,Net-(J1-PadC21)*%
X76200000Y-116840000D03*
%TO.P,J1,C20*%
%TO.N,Net-(J1-PadC20)*%
X76200000Y-114300000D03*
%TO.P,J1,C19*%
%TO.N,Net-(J1-PadC19)*%
X76200000Y-111760000D03*
%TO.P,J1,C18*%
%TO.N,Net-(J1-PadC18)*%
X76200000Y-109220000D03*
%TO.P,J1,C17*%
%TO.N,Net-(J1-PadC17)*%
X76200000Y-106680000D03*
%TO.P,J1,C16*%
%TO.N,-5V*%
X76200000Y-104140000D03*
%TO.P,J1,C15*%
%TO.N,Net-(J1-PadC15)*%
X76200000Y-101600000D03*
%TO.P,J1,C14*%
%TO.N,Net-(J1-PadC14)*%
X76200000Y-99060000D03*
%TO.P,J1,C13*%
%TO.N,Net-(J1-PadC13)*%
X76200000Y-96520000D03*
%TO.P,J1,C12*%
%TO.N,Net-(J1-PadC12)*%
X76200000Y-93980000D03*
%TO.P,J1,C11*%
%TO.N,Net-(J1-PadC11)*%
X76200000Y-91440000D03*
%TO.P,J1,C10*%
%TO.N,Net-(J1-PadC10)*%
X76200000Y-88900000D03*
%TO.P,J1,C9*%
%TO.N,Net-(J1-PadC9)*%
X76200000Y-86360000D03*
%TO.P,J1,C8*%
%TO.N,Net-(J1-PadC8)*%
X76200000Y-83820000D03*
%TO.P,J1,C7*%
%TO.N,Net-(J1-PadC7)*%
X76200000Y-81280000D03*
%TO.P,J1,C6*%
%TO.N,Net-(J1-PadC6)*%
X76200000Y-78740000D03*
%TO.P,J1,C5*%
%TO.N,Net-(J1-PadC5)*%
X76200000Y-76200000D03*
%TO.P,J1,C4*%
%TO.N,Net-(J1-PadC4)*%
X76200000Y-73660000D03*
%TO.P,J1,C3*%
%TO.N,GND*%
X76200000Y-71120000D03*
%TO.P,J1,C2*%
X76200000Y-68580000D03*
%TO.P,J1,C1*%
%TO.N,Net-(J1-PadC1)*%
X76200000Y-66040000D03*
%TO.P,J1,b32*%
%TO.N,N/C*%
X73660000Y-144780000D03*
%TO.P,J1,b31*%
X73660000Y-142240000D03*
%TO.P,J1,b30*%
X73660000Y-139700000D03*
%TO.P,J1,b29*%
X73660000Y-137160000D03*
%TO.P,J1,b28*%
X73660000Y-134620000D03*
%TO.P,J1,b27*%
X73660000Y-132080000D03*
%TO.P,J1,b26*%
X73660000Y-129540000D03*
%TO.P,J1,b25*%
X73660000Y-127000000D03*
%TO.P,J1,b24*%
X73660000Y-124460000D03*
%TO.P,J1,b23*%
X73660000Y-121920000D03*
%TO.P,J1,b22*%
X73660000Y-119380000D03*
%TO.P,J1,b21*%
X73660000Y-116840000D03*
%TO.P,J1,b20*%
X73660000Y-114300000D03*
%TO.P,J1,b19*%
X73660000Y-111760000D03*
%TO.P,J1,b18*%
X73660000Y-109220000D03*
%TO.P,J1,b17*%
X73660000Y-106680000D03*
%TO.P,J1,b16*%
X73660000Y-104140000D03*
%TO.P,J1,b15*%
X73660000Y-101600000D03*
%TO.P,J1,b14*%
X73660000Y-99060000D03*
%TO.P,J1,b13*%
X73660000Y-96520000D03*
%TO.P,J1,b12*%
X73660000Y-93980000D03*
%TO.P,J1,b11*%
X73660000Y-91440000D03*
%TO.P,J1,b10*%
X73660000Y-88900000D03*
%TO.P,J1,b9*%
X73660000Y-86360000D03*
%TO.P,J1,b8*%
X73660000Y-83820000D03*
%TO.P,J1,b7*%
X73660000Y-81280000D03*
%TO.P,J1,b6*%
X73660000Y-78740000D03*
%TO.P,J1,b5*%
X73660000Y-76200000D03*
%TO.P,J1,b4*%
X73660000Y-73660000D03*
%TO.P,J1,b3*%
X73660000Y-71120000D03*
%TO.P,J1,b2*%
X73660000Y-68580000D03*
%TO.P,J1,b1*%
X73660000Y-66040000D03*
%TO.P,J1,A32*%
%TO.N,Net-(J1-PadA32)*%
X71120000Y-144780000D03*
%TO.P,J1,A31*%
%TO.N,Net-(J1-PadA31)*%
X71120000Y-142240000D03*
%TO.P,J1,A30*%
%TO.N,+5P*%
X71120000Y-139700000D03*
%TO.P,J1,A29*%
%TO.N,+12P*%
X71120000Y-137160000D03*
%TO.P,J1,A28*%
%TO.N,Net-(J1-PadA28)*%
X71120000Y-134620000D03*
%TO.P,J1,A27*%
%TO.N,Net-(J1-PadA27)*%
X71120000Y-132080000D03*
%TO.P,J1,A26*%
%TO.N,Net-(J1-PadA26)*%
X71120000Y-129540000D03*
%TO.P,J1,A25*%
%TO.N,Net-(J1-PadA25)*%
X71120000Y-127000000D03*
%TO.P,J1,A24*%
%TO.N,Net-(J1-PadA24)*%
X71120000Y-124460000D03*
%TO.P,J1,A23*%
%TO.N,Net-(J1-PadA23)*%
X71120000Y-121920000D03*
%TO.P,J1,A22*%
%TO.N,Net-(J1-PadA22)*%
X71120000Y-119380000D03*
%TO.P,J1,A21*%
%TO.N,Net-(J1-PadA21)*%
X71120000Y-116840000D03*
%TO.P,J1,A20*%
%TO.N,Net-(J1-PadA20)*%
X71120000Y-114300000D03*
%TO.P,J1,A19*%
%TO.N,Net-(J1-PadA19)*%
X71120000Y-111760000D03*
%TO.P,J1,A18*%
%TO.N,Net-(J1-PadA18)*%
X71120000Y-109220000D03*
%TO.P,J1,A17*%
%TO.N,Net-(J1-PadA17)*%
X71120000Y-106680000D03*
%TO.P,J1,A16*%
%TO.N,-5V*%
X71120000Y-104140000D03*
%TO.P,J1,A15*%
%TO.N,Net-(J1-PadA15)*%
X71120000Y-101600000D03*
%TO.P,J1,A14*%
%TO.N,Net-(J1-PadA14)*%
X71120000Y-99060000D03*
%TO.P,J1,A13*%
%TO.N,Net-(J1-PadA13)*%
X71120000Y-96520000D03*
%TO.P,J1,A12*%
%TO.N,Net-(J1-PadA12)*%
X71120000Y-93980000D03*
%TO.P,J1,A11*%
%TO.N,Net-(J1-PadA11)*%
X71120000Y-91440000D03*
%TO.P,J1,A10*%
%TO.N,Net-(J1-PadA10)*%
X71120000Y-88900000D03*
%TO.P,J1,A9*%
%TO.N,Net-(J1-PadA9)*%
X71120000Y-86360000D03*
%TO.P,J1,A8*%
%TO.N,Net-(J1-PadA8)*%
X71120000Y-83820000D03*
%TO.P,J1,A7*%
%TO.N,Net-(J1-PadA7)*%
X71120000Y-81280000D03*
%TO.P,J1,A6*%
%TO.N,Net-(J1-PadA6)*%
X71120000Y-78740000D03*
%TO.P,J1,A5*%
%TO.N,Net-(J1-PadA5)*%
X71120000Y-76200000D03*
%TO.P,J1,A4*%
%TO.N,Net-(J1-PadA4)*%
X71120000Y-73660000D03*
%TO.P,J1,A3*%
%TO.N,GND*%
X71120000Y-71120000D03*
%TO.P,J1,A2*%
X71120000Y-68580000D03*
%TO.P,J1,A1*%
%TO.N,Net-(J1-PadA1)*%
%TA.AperFunction,ComponentPad*%
G36*
G01*
X70345000Y-66565450D02*
X70345000Y-65514550D01*
G75*
G02*
X70594550Y-65265000I249550J0D01*
G01*
X71645450Y-65265000D01*
G75*
G02*
X71895000Y-65514550I0J-249550D01*
G01*
X71895000Y-66565450D01*
G75*
G02*
X71645450Y-66815000I-249550J0D01*
G01*
X70594550Y-66815000D01*
G75*
G02*
X70345000Y-66565450I0J249550D01*
G01*
G37*
%TD.AperFunction*%
%TD*%
D12*
%TO.P,J2,2*%
%TO.N,Net-(J1-PadC11)*%
X85090000Y-91440000D03*
D13*
%TO.P,J2,1*%
%TO.N,Net-(J1-PadA11)*%
X82550000Y-91440000D03*
%TD*%
D12*
%TO.P,J3,2*%
%TO.N,Net-(J1-PadC28)*%
X85090000Y-134620000D03*
D13*
%TO.P,J3,1*%
%TO.N,Net-(J1-PadA28)*%
X82550000Y-134620000D03*
%TD*%
%TO.P,J5,1*%
%TO.N,Net-(J4-PadA11)*%
X109220000Y-91440000D03*
D12*
%TO.P,J5,2*%
%TO.N,Net-(J4-PadC11)*%
X111760000Y-91440000D03*
%TD*%
D13*
%TO.P,J6,1*%
%TO.N,Net-(J4-PadA28)*%
X109220000Y-134620000D03*
D12*
%TO.P,J6,2*%
%TO.N,Net-(J4-PadC28)*%
X111760000Y-134620000D03*
%TD*%
D13*
%TO.P,J8,1*%
%TO.N,Net-(J7-PadA11)*%
X162560000Y-91440000D03*
D12*
%TO.P,J8,2*%
%TO.N,Net-(J7-PadC11)*%
X165100000Y-91440000D03*
%TD*%
%TO.P,J9,2*%
%TO.N,Net-(J7-PadC28)*%
X165100000Y-134620000D03*
D13*
%TO.P,J9,1*%
%TO.N,Net-(J7-PadA28)*%
X162560000Y-134620000D03*
%TD*%
D12*
%TO.P,J11,2*%
%TO.N,Net-(J10-PadC11)*%
X220980000Y-91440000D03*
D13*
%TO.P,J11,1*%
%TO.N,Net-(J10-PadA11)*%
X218440000Y-91440000D03*
%TD*%
%TO.P,J12,1*%
%TO.N,Net-(J10-PadA28)*%
X218440000Y-134620000D03*
D12*
%TO.P,J12,2*%
%TO.N,Net-(J10-PadC28)*%
X220980000Y-134620000D03*
%TD*%
%TO.P,J15,2*%
%TO.N,Net-(J14-PadC11)*%
X138430000Y-91440000D03*
D13*
%TO.P,J15,1*%
%TO.N,Net-(J14-PadA11)*%
X135890000Y-91440000D03*
%TD*%
D12*
%TO.P,J16,2*%
%TO.N,Net-(J14-PadC28)*%
X138430000Y-134620000D03*
D13*
%TO.P,J16,1*%
%TO.N,Net-(J14-PadA28)*%
X135890000Y-134620000D03*
%TD*%
%TO.P,J18,1*%
%TO.N,Net-(J17-PadA11)*%
X190500000Y-91440000D03*
D12*
%TO.P,J18,2*%
%TO.N,Net-(J17-PadC11)*%
X193040000Y-91440000D03*
%TD*%
D13*
%TO.P,J19,1*%
%TO.N,Net-(J17-PadA28)*%
X190500000Y-134620000D03*
D12*
%TO.P,J19,2*%
%TO.N,Net-(J17-PadC28)*%
X193040000Y-134620000D03*
%TD*%
D14*
%TO.N,Net-(J1-PadC11)*%
X76200000Y-91440000D02*
X77470000Y-90170000D01*
X77470000Y-90170000D02*
X85090000Y-90170000D01*
X85090000Y-90170000D02*
X85090000Y-91440000D01*
%TO.N,Net-(J1-PadC28)*%
X76200000Y-134620000D02*
X77470000Y-134620000D01*
X77470000Y-134620000D02*
X78740000Y-133350000D01*
X84835002Y-134620000D02*
X85090000Y-134620000D01*
X83565002Y-133350000D02*
X84835002Y-134620000D01*
X78740000Y-133350000D02*
X83565002Y-133350000D01*
%TO.N,Net-(J4-PadC11)*%
X102870000Y-91440000D02*
X104140000Y-90170000D01*
X104140000Y-90170000D02*
X111760000Y-90170000D01*
X111760000Y-90170000D02*
X111760000Y-91440000D01*
%TO.N,Net-(J4-PadC28)*%
X102870000Y-134620000D02*
X104140000Y-133350000D01*
X104140000Y-133350000D02*
X110490000Y-133350000D01*
X110490000Y-133350000D02*
X111760000Y-134620000D01*
%TO.N,Net-(J7-PadC11)*%
X156210000Y-91440000D02*
X157480000Y-90170000D01*
X157480000Y-90170000D02*
X163830000Y-90170000D01*
X163830000Y-90170000D02*
X165100000Y-91440000D01*
%TO.N,Net-(J7-PadC28)*%
X156210000Y-134620000D02*
X157480000Y-133350000D01*
X157480000Y-133350000D02*
X163830000Y-133350000D01*
X163830000Y-133350000D02*
X165100000Y-134620000D01*
%TO.N,Net-(J10-PadC11)*%
X212090000Y-91440000D02*
X213360000Y-91440000D01*
X213360000Y-91440000D02*
X214630000Y-90170000D01*
X219710000Y-90170000D02*
X220980000Y-91440000D01*
X214630000Y-90170000D02*
X219710000Y-90170000D01*
%TO.N,Net-(J10-PadC28)*%
X212090000Y-134620000D02*
X213360000Y-133350000D01*
X220130001Y-133770001D02*
X220980000Y-134620000D01*
X219710000Y-133350000D02*
X220130001Y-133770001D01*
X213360000Y-133350000D02*
X219710000Y-133350000D01*
%TO.N,Net-(J14-PadC11)*%
X129540000Y-91440000D02*
X130810000Y-90170000D01*
X130810000Y-90170000D02*
X137160000Y-90170000D01*
X137160000Y-90170000D02*
X138430000Y-91440000D01*
%TO.N,Net-(J14-PadC28)*%
X129540000Y-134620000D02*
X130810000Y-133350000D01*
X130810000Y-133350000D02*
X137160000Y-133350000D01*
X137160000Y-133350000D02*
X138430000Y-134620000D01*
%TO.N,Net-(J17-PadC11)*%
X184150000Y-91440000D02*
X186690000Y-91440000D01*
X186690000Y-91440000D02*
X187960000Y-90170000D01*
X187960000Y-90170000D02*
X191770000Y-90170000D01*
X191770000Y-90170000D02*
X193040000Y-91440000D01*
%TO.N,Net-(J17-PadC28)*%
X184150000Y-134620000D02*
X185420000Y-134620000D01*
X185420000Y-134620000D02*
X186690000Y-133350000D01*
X192785002Y-134620000D02*
X193040000Y-134620000D01*
X191515002Y-133350000D02*
X192785002Y-134620000D01*
X186690000Y-133350000D02*
X191515002Y-133350000D01*
%TO.N,Net-(J1-PadC27)*%
X76200000Y-132080000D02*
X77470000Y-130810000D01*
X77470000Y-130810000D02*
X101600000Y-130810000D01*
X101600000Y-130810000D02*
X102870000Y-132080000D01*
X102870000Y-132080000D02*
X104140000Y-130810000D01*
X104140000Y-130810000D02*
X128270000Y-130810000D01*
X128270000Y-130810000D02*
X129540000Y-132080000D01*
X129540000Y-132080000D02*
X130810000Y-130810000D01*
X130810000Y-130810000D02*
X154940000Y-130810000D01*
X154940000Y-130810000D02*
X156210000Y-132080000D01*
X184150000Y-132080000D02*
X185420000Y-130810000D01*
X185420000Y-130810000D02*
X210820000Y-130810000D01*
X210820000Y-130810000D02*
X212090000Y-132080000D01*
X182880000Y-130810000D02*
X184150000Y-132080000D01*
X157480000Y-130810000D02*
X182880000Y-130810000D01*
X156210000Y-132080000D02*
X157480000Y-130810000D01*
%TO.N,Net-(J1-PadC26)*%
X76200000Y-129540000D02*
X77470000Y-128270000D01*
X77470000Y-128270000D02*
X101600000Y-128270000D01*
X101600000Y-128270000D02*
X102870000Y-129540000D01*
X102870000Y-129540000D02*
X104140000Y-128270000D01*
X104140000Y-128270000D02*
X128270000Y-128270000D01*
X128270000Y-128270000D02*
X129540000Y-129540000D01*
X129540000Y-129540000D02*
X130810000Y-128270000D01*
X130810000Y-128270000D02*
X154940000Y-128270000D01*
X154940000Y-128270000D02*
X156210000Y-129540000D01*
X184150000Y-129540000D02*
X185420000Y-128270000D01*
X185420000Y-128270000D02*
X210820000Y-128270000D01*
X210820000Y-128270000D02*
X212090000Y-129540000D01*
X156210000Y-129540000D02*
X157480000Y-128270000D01*
X157480000Y-128270000D02*
X182880000Y-128270000D01*
X182880000Y-128270000D02*
X184150000Y-129540000D01*
%TO.N,Net-(J1-PadC25)*%
X76200000Y-127000000D02*
X77470000Y-125730000D01*
X77470000Y-125730000D02*
X101600000Y-125730000D01*
X101600000Y-125730000D02*
X102870000Y-127000000D01*
X102870000Y-127000000D02*
X104140000Y-125730000D01*
X104140000Y-125730000D02*
X128270000Y-125730000D01*
X128270000Y-125730000D02*
X129540000Y-127000000D01*
X129540000Y-127000000D02*
X130810000Y-125730000D01*
X130810000Y-125730000D02*
X154940000Y-125730000D01*
X154940000Y-125730000D02*
X156210000Y-127000000D01*
X184150000Y-127000000D02*
X185420000Y-125730000D01*
X185420000Y-125730000D02*
X210820000Y-125730000D01*
X210820000Y-125730000D02*
X212090000Y-127000000D01*
X156210000Y-127000000D02*
X157480000Y-125730000D01*
X157480000Y-125730000D02*
X182880000Y-125730000D01*
X182880000Y-125730000D02*
X184150000Y-127000000D01*
%TO.N,Net-(J1-PadC24)*%
X76200000Y-124460000D02*
X77470000Y-123190000D01*
X77470000Y-123190000D02*
X101600000Y-123190000D01*
X101600000Y-123190000D02*
X102870000Y-124460000D01*
X128270000Y-123190000D02*
X129540000Y-124460000D01*
X104140000Y-123190000D02*
X128270000Y-123190000D01*
X102870000Y-124460000D02*
X104140000Y-123190000D01*
X129540000Y-124460000D02*
X130810000Y-123190000D01*
X130810000Y-123190000D02*
X154940000Y-123190000D01*
X154940000Y-123190000D02*
X156210000Y-124460000D01*
X184150000Y-124460000D02*
X185420000Y-123190000D01*
X185420000Y-123190000D02*
X210820000Y-123190000D01*
X210820000Y-123190000D02*
X212090000Y-124460000D01*
X156210000Y-124460000D02*
X157480000Y-123190000D01*
X157310001Y-123359999D02*
X156210000Y-124460000D01*
X183049999Y-123359999D02*
X157310001Y-123359999D01*
X184150000Y-124460000D02*
X183049999Y-123359999D01*
%TO.N,Net-(J1-PadC21)*%
X76200000Y-116840000D02*
X77470000Y-115570000D01*
X77470000Y-115570000D02*
X101600000Y-115570000D01*
X101600000Y-115570000D02*
X102870000Y-116840000D01*
X102870000Y-116840000D02*
X104140000Y-115570000D01*
X104140000Y-115570000D02*
X128270000Y-115570000D01*
X128270000Y-115570000D02*
X129540000Y-116840000D01*
X129540000Y-116840000D02*
X130810000Y-115570000D01*
X130810000Y-115570000D02*
X154940000Y-115570000D01*
X154940000Y-115570000D02*
X156210000Y-116840000D01*
X184150000Y-116840000D02*
X185420000Y-115570000D01*
X210820000Y-115570000D02*
X212090000Y-116840000D01*
X185420000Y-115570000D02*
X210820000Y-115570000D01*
X156210000Y-116840000D02*
X157480000Y-115570000D01*
X157480000Y-115570000D02*
X182880000Y-115570000D01*
X182880000Y-115570000D02*
X184150000Y-116840000D01*
%TO.N,Net-(J1-PadC20)*%
X76200000Y-114300000D02*
X77470000Y-113030000D01*
X77470000Y-113030000D02*
X101600000Y-113030000D01*
X101600000Y-113030000D02*
X102870000Y-114300000D01*
X102870000Y-114300000D02*
X104140000Y-113030000D01*
X104140000Y-113030000D02*
X128270000Y-113030000D01*
X128270000Y-113030000D02*
X129540000Y-114300000D01*
X129540000Y-114300000D02*
X130810000Y-113030000D01*
X130810000Y-113030000D02*
X154940000Y-113030000D01*
X154940000Y-113030000D02*
X156210000Y-114300000D01*
X184150000Y-114300000D02*
X185420000Y-113030000D01*
X210820000Y-113030000D02*
X212090000Y-114300000D01*
X185420000Y-113030000D02*
X210820000Y-113030000D01*
X156210000Y-114300000D02*
X157480000Y-113030000D01*
X157480000Y-113030000D02*
X182880000Y-113030000D01*
X182880000Y-113030000D02*
X184150000Y-114300000D01*
%TO.N,Net-(J1-PadC19)*%
X76200000Y-111760000D02*
X77470000Y-110490000D01*
X77470000Y-110490000D02*
X101600000Y-110490000D01*
X101600000Y-110490000D02*
X102870000Y-111760000D01*
X102870000Y-111760000D02*
X104140000Y-110490000D01*
X104140000Y-110490000D02*
X128270000Y-110490000D01*
X128270000Y-110490000D02*
X129540000Y-111760000D01*
X129540000Y-111760000D02*
X130810000Y-110490000D01*
X154940000Y-110490000D02*
X156210000Y-111760000D01*
X130810000Y-110490000D02*
X154940000Y-110490000D01*
X185420000Y-110490000D02*
X210820000Y-110490000D01*
X210820000Y-110490000D02*
X212090000Y-111760000D01*
X184150000Y-111760000D02*
X185420000Y-110490000D01*
X156210000Y-111760000D02*
X157480000Y-110490000D01*
X157480000Y-110490000D02*
X182880000Y-110490000D01*
X182880000Y-110490000D02*
X184150000Y-111760000D01*
%TO.N,Net-(J1-PadC18)*%
X76200000Y-109220000D02*
X77470000Y-107950000D01*
X77470000Y-107950000D02*
X101600000Y-107950000D01*
X101600000Y-107950000D02*
X102870000Y-109220000D01*
X102870000Y-109220000D02*
X104140000Y-107950000D01*
X104140000Y-107950000D02*
X128270000Y-107950000D01*
X128270000Y-107950000D02*
X129540000Y-109220000D01*
X129540000Y-109220000D02*
X130810000Y-107950000D01*
X130810000Y-107950000D02*
X154940000Y-107950000D01*
X154940000Y-107950000D02*
X156210000Y-109220000D01*
X184150000Y-109220000D02*
X185420000Y-107950000D01*
X185420000Y-107950000D02*
X210820000Y-107950000D01*
X210820000Y-107950000D02*
X212090000Y-109220000D01*
X156210000Y-109220000D02*
X157480000Y-107950000D01*
X157480000Y-107950000D02*
X182880000Y-107950000D01*
X182880000Y-107950000D02*
X184150000Y-109220000D01*
%TO.N,Net-(J1-PadC17)*%
X76200000Y-106680000D02*
X77470000Y-105410000D01*
X77470000Y-105410000D02*
X101600000Y-105410000D01*
X101600000Y-105410000D02*
X102870000Y-106680000D01*
X102870000Y-106680000D02*
X104140000Y-105410000D01*
X104140000Y-105410000D02*
X128270000Y-105410000D01*
X128270000Y-105410000D02*
X129540000Y-106680000D01*
X129540000Y-106680000D02*
X130810000Y-105410000D01*
X130810000Y-105410000D02*
X154940000Y-105410000D01*
X154940000Y-105410000D02*
X156210000Y-106680000D01*
X184150000Y-106680000D02*
X185420000Y-105410000D01*
X185420000Y-105410000D02*
X210820000Y-105410000D01*
X210820000Y-105410000D02*
X212090000Y-106680000D01*
X156210000Y-106680000D02*
X157480000Y-105410000D01*
X157480000Y-105410000D02*
X182880000Y-105410000D01*
X182880000Y-105410000D02*
X184150000Y-106680000D01*
%TO.N,Net-(J1-PadC15)*%
X76200000Y-101600000D02*
X77470000Y-100330000D01*
X77470000Y-100330000D02*
X101600000Y-100330000D01*
X101600000Y-100330000D02*
X102870000Y-101600000D01*
X102870000Y-101600000D02*
X104140000Y-100330000D01*
X104140000Y-100330000D02*
X128270000Y-100330000D01*
X128270000Y-100330000D02*
X129540000Y-101600000D01*
X129540000Y-101600000D02*
X130810000Y-100330000D01*
X130810000Y-100330000D02*
X154940000Y-100330000D01*
X154940000Y-100330000D02*
X156210000Y-101600000D01*
X184150000Y-101600000D02*
X185420000Y-100330000D01*
X185420000Y-100330000D02*
X210820000Y-100330000D01*
X210820000Y-100330000D02*
X212090000Y-101600000D01*
X156210000Y-101600000D02*
X157480000Y-100330000D01*
X157480000Y-100330000D02*
X182880000Y-100330000D01*
X182880000Y-100330000D02*
X184150000Y-101600000D01*
%TO.N,Net-(J1-PadC14)*%
X76200000Y-99060000D02*
X77470000Y-97790000D01*
X101600000Y-97790000D02*
X102870000Y-99060000D01*
X77470000Y-97790000D02*
X101600000Y-97790000D01*
X102870000Y-99060000D02*
X104140000Y-97790000D01*
X104140000Y-97790000D02*
X128270000Y-97790000D01*
X128270000Y-97790000D02*
X129540000Y-99060000D01*
X129540000Y-99060000D02*
X130810000Y-97790000D01*
X130810000Y-97790000D02*
X154940000Y-97790000D01*
X154940000Y-97790000D02*
X156210000Y-99060000D01*
X184150000Y-99060000D02*
X185420000Y-97790000D01*
X185420000Y-97790000D02*
X210820000Y-97790000D01*
X210820000Y-97790000D02*
X212090000Y-99060000D01*
X156210000Y-99060000D02*
X157480000Y-97790000D01*
X157480000Y-97790000D02*
X182880000Y-97790000D01*
X182880000Y-97790000D02*
X184150000Y-99060000D01*
%TO.N,Net-(J1-PadC13)*%
X76200000Y-96520000D02*
X77470000Y-95250000D01*
X77470000Y-95250000D02*
X101600000Y-95250000D01*
X101600000Y-95250000D02*
X102870000Y-96520000D01*
X102870000Y-96520000D02*
X104140000Y-95250000D01*
X104140000Y-95250000D02*
X128270000Y-95250000D01*
X128270000Y-95250000D02*
X129540000Y-96520000D01*
X129540000Y-96520000D02*
X130810000Y-95250000D01*
X130810000Y-95250000D02*
X154940000Y-95250000D01*
X154940000Y-95250000D02*
X156210000Y-96520000D01*
X184150000Y-96520000D02*
X185420000Y-95250000D01*
X185420000Y-95250000D02*
X210820000Y-95250000D01*
X210820000Y-95250000D02*
X212090000Y-96520000D01*
X182880000Y-95250000D02*
X184150000Y-96520000D01*
X157480000Y-95250000D02*
X182880000Y-95250000D01*
X156210000Y-96520000D02*
X157480000Y-95250000D01*
%TO.N,Net-(J1-PadC12)*%
X76200000Y-93980000D02*
X77470000Y-92710000D01*
X77470000Y-92710000D02*
X101600000Y-92710000D01*
X101600000Y-92710000D02*
X102870000Y-93980000D01*
X102870000Y-93980000D02*
X104140000Y-92710000D01*
X104140000Y-92710000D02*
X128270000Y-92710000D01*
X128270000Y-92710000D02*
X129540000Y-93980000D01*
X129540000Y-93980000D02*
X130810000Y-92710000D01*
X130810000Y-92710000D02*
X154940000Y-92710000D01*
X154940000Y-92710000D02*
X156210000Y-93980000D01*
X210820000Y-92710000D02*
X212090000Y-93980000D01*
X185420000Y-92710000D02*
X210820000Y-92710000D01*
X184150000Y-93980000D02*
X185420000Y-92710000D01*
X156210000Y-93980000D02*
X157480000Y-92710000D01*
X157480000Y-92710000D02*
X182880000Y-92710000D01*
X182880000Y-92710000D02*
X184150000Y-93980000D01*
%TO.N,Net-(J1-PadC10)*%
X76200000Y-88900000D02*
X77470000Y-87630000D01*
X77470000Y-87630000D02*
X101600000Y-87630000D01*
X101600000Y-87630000D02*
X102870000Y-88900000D01*
X102870000Y-88900000D02*
X104140000Y-87630000D01*
X128270000Y-87630000D02*
X129540000Y-88900000D01*
X104140000Y-87630000D02*
X128270000Y-87630000D01*
X129540000Y-88900000D02*
X130810000Y-87630000D01*
X130810000Y-87630000D02*
X154940000Y-87630000D01*
X154940000Y-87630000D02*
X156210000Y-88900000D01*
X184150000Y-88900000D02*
X185420000Y-87630000D01*
X185420000Y-87630000D02*
X210820000Y-87630000D01*
X210820000Y-87630000D02*
X212090000Y-88900000D01*
X156210000Y-88900000D02*
X157480000Y-87630000D01*
X157480000Y-87630000D02*
X182880000Y-87630000D01*
X182880000Y-87630000D02*
X184150000Y-88900000D01*
%TO.N,Net-(J1-PadC9)*%
X76200000Y-86360000D02*
X77470000Y-85090000D01*
X77470000Y-85090000D02*
X101600000Y-85090000D01*
X101600000Y-85090000D02*
X102870000Y-86360000D01*
X102870000Y-86360000D02*
X104140000Y-85090000D01*
X104140000Y-85090000D02*
X128270000Y-85090000D01*
X128270000Y-85090000D02*
X129540000Y-86360000D01*
X129540000Y-86360000D02*
X130810000Y-85090000D01*
X130810000Y-85090000D02*
X154940000Y-85090000D01*
X154940000Y-85090000D02*
X156210000Y-86360000D01*
X184150000Y-86360000D02*
X185420000Y-85090000D01*
X185420000Y-85090000D02*
X210820000Y-85090000D01*
X210820000Y-85090000D02*
X212090000Y-86360000D01*
X156210000Y-86360000D02*
X157480000Y-85090000D01*
X157480000Y-85090000D02*
X182880000Y-85090000D01*
X182880000Y-85090000D02*
X184150000Y-86360000D01*
%TO.N,Net-(J1-PadC8)*%
X101600000Y-82550000D02*
X102870000Y-83820000D01*
X77470000Y-82550000D02*
X101600000Y-82550000D01*
X76200000Y-83820000D02*
X77470000Y-82550000D01*
X102870000Y-83820000D02*
X104140000Y-82550000D01*
X104140000Y-82550000D02*
X128270000Y-82550000D01*
X128270000Y-82550000D02*
X129540000Y-83820000D01*
X129540000Y-83820000D02*
X130810000Y-82550000D01*
X130810000Y-82550000D02*
X154940000Y-82550000D01*
X154940000Y-82550000D02*
X156210000Y-83820000D01*
X184150000Y-83820000D02*
X185420000Y-82550000D01*
X185420000Y-82550000D02*
X210820000Y-82550000D01*
X210820000Y-82550000D02*
X212090000Y-83820000D01*
X156210000Y-83820000D02*
X157480000Y-82550000D01*
X157480000Y-82550000D02*
X182880000Y-82550000D01*
X182880000Y-82550000D02*
X184150000Y-83820000D01*
%TO.N,Net-(J1-PadC7)*%
X76200000Y-81280000D02*
X77470000Y-80010000D01*
X77470000Y-80010000D02*
X101600000Y-80010000D01*
X101600000Y-80010000D02*
X102870000Y-81280000D01*
X102870000Y-81280000D02*
X104140000Y-80010000D01*
X104140000Y-80010000D02*
X128270000Y-80010000D01*
X128270000Y-80010000D02*
X129540000Y-81280000D01*
X129540000Y-81280000D02*
X130810000Y-80010000D01*
X130810000Y-80010000D02*
X154940000Y-80010000D01*
X154940000Y-80010000D02*
X156210000Y-81280000D01*
X212090000Y-81280000D02*
X210820000Y-80010000D01*
X210820000Y-80010000D02*
X185420000Y-80010000D01*
X185420000Y-80010000D02*
X184150000Y-81280000D01*
X156210000Y-81280000D02*
X157480000Y-80010000D01*
X157480000Y-80010000D02*
X182880000Y-80010000D01*
X182880000Y-80010000D02*
X184150000Y-81280000D01*
%TO.N,Net-(J1-PadC6)*%
X76200000Y-78740000D02*
X77470000Y-77470000D01*
X77470000Y-77470000D02*
X101600000Y-77470000D01*
X101600000Y-77470000D02*
X102870000Y-78740000D01*
X102870000Y-78740000D02*
X104140000Y-77470000D01*
X104140000Y-77470000D02*
X128270000Y-77470000D01*
X128270000Y-77470000D02*
X129540000Y-78740000D01*
X129540000Y-78740000D02*
X130810000Y-77470000D01*
X130810000Y-77470000D02*
X154940000Y-77470000D01*
X154940000Y-77470000D02*
X156210000Y-78740000D01*
X212090000Y-78740000D02*
X210820000Y-77470000D01*
X185420000Y-77470000D02*
X184150000Y-78740000D01*
X210820000Y-77470000D02*
X185420000Y-77470000D01*
X156210000Y-78740000D02*
X157480000Y-77470000D01*
X157480000Y-77470000D02*
X182880000Y-77470000D01*
X182880000Y-77470000D02*
X184150000Y-78740000D01*
%TO.N,Net-(J1-PadC5)*%
X76200000Y-76200000D02*
X77470000Y-74930000D01*
X77470000Y-74930000D02*
X101600000Y-74930000D01*
X101600000Y-74930000D02*
X102870000Y-76200000D01*
X102870000Y-76200000D02*
X104140000Y-74930000D01*
X104140000Y-74930000D02*
X128270000Y-74930000D01*
X128270000Y-74930000D02*
X129540000Y-76200000D01*
X129540000Y-76200000D02*
X130810000Y-74930000D01*
X130810000Y-74930000D02*
X154940000Y-74930000D01*
X154940000Y-74930000D02*
X156210000Y-76200000D01*
X184150000Y-76200000D02*
X185420000Y-74930000D01*
X185420000Y-74930000D02*
X210820000Y-74930000D01*
X210820000Y-74930000D02*
X212090000Y-76200000D01*
X156210000Y-76200000D02*
X157480000Y-74930000D01*
X157480000Y-74930000D02*
X182880000Y-74930000D01*
X182880000Y-74930000D02*
X184150000Y-76200000D01*
%TO.N,Net-(J1-PadC4)*%
X101600000Y-72390000D02*
X102870000Y-73660000D01*
X77470000Y-72390000D02*
X101600000Y-72390000D01*
X76200000Y-73660000D02*
X77470000Y-72390000D01*
X102870000Y-73660000D02*
X104140000Y-72390000D01*
X104140000Y-72390000D02*
X128270000Y-72390000D01*
X128270000Y-72390000D02*
X129540000Y-73660000D01*
X129540000Y-73660000D02*
X130810000Y-72390000D01*
X130810000Y-72390000D02*
X154940000Y-72390000D01*
X154940000Y-72390000D02*
X156210000Y-73660000D01*
X184150000Y-73660000D02*
X185420000Y-72390000D01*
X185420000Y-72390000D02*
X210820000Y-72390000D01*
X210820000Y-72390000D02*
X212090000Y-73660000D01*
X156210000Y-73660000D02*
X157480000Y-72390000D01*
X157480000Y-72390000D02*
X182880000Y-72390000D01*
X182880000Y-72390000D02*
X184150000Y-73660000D01*
%TO.N,GND*%
X76200000Y-71120000D02*
X77470000Y-69850000D01*
X77470000Y-69850000D02*
X101600000Y-69850000D01*
X101600000Y-69850000D02*
X102870000Y-71120000D01*
X102870000Y-71120000D02*
X104140000Y-69850000D01*
X104140000Y-69850000D02*
X128270000Y-69850000D01*
X128270000Y-69850000D02*
X129540000Y-71120000D01*
X129540000Y-71120000D02*
X130810000Y-69850000D01*
X130810000Y-69850000D02*
X154940000Y-69850000D01*
X154940000Y-69850000D02*
X156210000Y-71120000D01*
X101600000Y-67310000D02*
X102870000Y-68580000D01*
X77470000Y-67310000D02*
X101600000Y-67310000D01*
X76200000Y-68580000D02*
X77470000Y-67310000D01*
X102870000Y-68580000D02*
X104140000Y-67310000D01*
X104140000Y-67310000D02*
X128270000Y-67310000D01*
X128270000Y-67310000D02*
X129540000Y-68580000D01*
X129540000Y-68580000D02*
X130810000Y-67310000D01*
X130810000Y-67310000D02*
X154940000Y-67310000D01*
X154940000Y-67310000D02*
X156210000Y-68580000D01*
X129540000Y-68580000D02*
X129540000Y-71120000D01*
X156210000Y-68580000D02*
X156210000Y-71120000D01*
X76200000Y-68580000D02*
X76200000Y-71120000D01*
X102870000Y-68580000D02*
X102870000Y-71120000D01*
X212090000Y-68580000D02*
X212090000Y-71120000D01*
X184150000Y-68580000D02*
X184150000Y-71120000D01*
X212090000Y-68580000D02*
X210820000Y-67310000D01*
X185420000Y-67310000D02*
X184150000Y-68580000D01*
X210820000Y-67310000D02*
X185420000Y-67310000D01*
X184150000Y-71120000D02*
X185420000Y-69850000D01*
X185420000Y-69850000D02*
X210820000Y-69850000D01*
X210820000Y-69850000D02*
X212090000Y-71120000D01*
X156210000Y-68580000D02*
X157480000Y-67310000D01*
X157480000Y-67310000D02*
X182880000Y-67310000D01*
X182880000Y-67310000D02*
X184150000Y-68580000D01*
X156210000Y-71120000D02*
X157480000Y-69850000D01*
X157480000Y-69850000D02*
X182880000Y-69850000D01*
X182880000Y-69850000D02*
X184150000Y-71120000D01*
X225900000Y-97790000D02*
X226060000Y-97950000D01*
%TO.N,+5P*%
X76200000Y-139700000D02*
X77470000Y-138430000D01*
X77470000Y-138430000D02*
X101600000Y-138430000D01*
X101600000Y-138430000D02*
X102870000Y-139700000D01*
X102870000Y-139700000D02*
X104140000Y-138430000D01*
X104140000Y-138430000D02*
X128270000Y-138430000D01*
X128270000Y-138430000D02*
X129540000Y-139700000D01*
X129540000Y-139700000D02*
X130810000Y-138430000D01*
X130810000Y-138430000D02*
X154940000Y-138430000D01*
X154940000Y-138430000D02*
X156210000Y-139700000D01*
X184150000Y-139700000D02*
X185420000Y-138430000D01*
X185420000Y-138430000D02*
X210820000Y-138430000D01*
X210820000Y-138430000D02*
X212090000Y-139700000D01*
X182880000Y-138430000D02*
X184150000Y-139700000D01*
X157480000Y-138430000D02*
X182880000Y-138430000D01*
X156210000Y-139700000D02*
X157480000Y-138430000D01*
%TO.N,+12P*%
X76200000Y-137160000D02*
X77470000Y-135890000D01*
X77470000Y-135890000D02*
X101600000Y-135890000D01*
X101600000Y-135890000D02*
X102870000Y-137160000D01*
X128270000Y-135890000D02*
X129540000Y-137160000D01*
X104140000Y-135890000D02*
X128270000Y-135890000D01*
X102870000Y-137160000D02*
X104140000Y-135890000D01*
X129540000Y-137160000D02*
X130810000Y-135890000D01*
X130810000Y-135890000D02*
X154940000Y-135890000D01*
X154940000Y-135890000D02*
X156210000Y-137160000D01*
X184150000Y-137160000D02*
X185420000Y-135890000D01*
X185420000Y-135890000D02*
X210820000Y-135890000D01*
X210820000Y-135890000D02*
X212090000Y-137160000D01*
X156210000Y-137160000D02*
X157480000Y-135890000D01*
X157480000Y-135890000D02*
X182880000Y-135890000D01*
X182880000Y-135890000D02*
X184150000Y-137160000D01*
%TO.N,-5V*%
X76200000Y-104140000D02*
X77470000Y-102870000D01*
X77470000Y-102870000D02*
X101600000Y-102870000D01*
X101600000Y-102870000D02*
X102870000Y-104140000D01*
X102870000Y-104140000D02*
X104140000Y-102870000D01*
X104140000Y-102870000D02*
X128270000Y-102870000D01*
X128270000Y-102870000D02*
X129540000Y-104140000D01*
X129540000Y-104140000D02*
X130810000Y-102870000D01*
X130810000Y-102870000D02*
X154940000Y-102870000D01*
X154940000Y-102870000D02*
X156210000Y-104140000D01*
X184150000Y-104140000D02*
X185420000Y-102870000D01*
X185420000Y-102870000D02*
X210820000Y-102870000D01*
X210820000Y-102870000D02*
X212090000Y-104140000D01*
X156210000Y-104140000D02*
X157480000Y-102870000D01*
X157480000Y-102870000D02*
X182880000Y-102870000D01*
X182880000Y-102870000D02*
X184150000Y-104140000D01*
%TO.N,Net-(J1-PadC23)*%
X184150000Y-121920000D02*
X185420000Y-120650000D01*
X185420000Y-120650000D02*
X210820000Y-120650000D01*
X210820000Y-120650000D02*
X212090000Y-121920000D01*
X156210000Y-121920000D02*
X157480000Y-120650000D01*
X157480000Y-120650000D02*
X182880000Y-120650000D01*
X182880000Y-120650000D02*
X184150000Y-121920000D01*
X156210000Y-121920000D02*
X154940000Y-120650000D01*
X154940000Y-120650000D02*
X130810000Y-120650000D01*
X130810000Y-120650000D02*
X129540000Y-121920000D01*
X102870000Y-121920000D02*
X104140000Y-120650000D01*
X104140000Y-120650000D02*
X128270000Y-120650000D01*
X128270000Y-120650000D02*
X129540000Y-121920000D01*
X101600000Y-120650000D02*
X102870000Y-121920000D01*
X77470000Y-120650000D02*
X101600000Y-120650000D01*
X76200000Y-121920000D02*
X77470000Y-120650000D01*
%TO.N,Net-(J1-PadC22)*%
X212090000Y-119380000D02*
X210820000Y-118110000D01*
X185420000Y-118110000D02*
X184150000Y-119380000D01*
X210820000Y-118110000D02*
X185420000Y-118110000D01*
X156210000Y-119380000D02*
X157480000Y-118110000D01*
X157480000Y-118110000D02*
X182880000Y-118110000D01*
X182880000Y-118110000D02*
X184150000Y-119380000D01*
X129540000Y-119380000D02*
X130810000Y-118110000D01*
X130810000Y-118110000D02*
X154940000Y-118110000D01*
X154940000Y-118110000D02*
X156210000Y-119380000D01*
X102870000Y-119380000D02*
X104140000Y-118110000D01*
X104140000Y-118110000D02*
X128270000Y-118110000D01*
X128270000Y-118110000D02*
X129540000Y-119380000D01*
X76200000Y-119380000D02*
X77470000Y-118110000D01*
X101600000Y-118110000D02*
X102870000Y-119380000D01*
X77470000Y-118110000D02*
X101600000Y-118110000D01*
%TD*%
D15*
%TO.N,GND*%
X231013000Y-69723000D02*
X212837495Y-69723000D01*
X212885244Y-69554849D01*
X212090000Y-68759605D01*
X211294756Y-69554849D01*
X211342505Y-69723000D01*
X210377311Y-69723000D01*
X210448822Y-69675218D01*
X210645218Y-69478822D01*
X210799525Y-69247885D01*
X210818201Y-69202798D01*
X210873732Y-69306690D01*
X211115151Y-69375244D01*
X211910395Y-68580000D01*
X212269605Y-68580000D01*
X213064849Y-69375244D01*
X213306268Y-69306690D01*
X213424668Y-69055444D01*
X213491778Y-68785929D01*
X213505018Y-68508498D01*
X213463879Y-68233816D01*
X213369943Y-67972438D01*
X213306268Y-67853310D01*
X213064849Y-67784756D01*
X212269605Y-68580000D01*
X211910395Y-68580000D01*
X211115151Y-67784756D01*
X210873732Y-67853310D01*
X210821275Y-67964624D01*
X210799525Y-67912115D01*
X210645218Y-67681178D01*
X210448822Y-67484782D01*
X210217885Y-67330475D01*
X210168454Y-67310000D01*
X210217885Y-67289525D01*
X210448822Y-67135218D01*
X210645218Y-66938822D01*
X210799525Y-66707885D01*
X210820000Y-66658454D01*
X210840475Y-66707885D01*
X210994782Y-66938822D01*
X211191178Y-67135218D01*
X211422115Y-67289525D01*
X211467202Y-67308201D01*
X211363310Y-67363732D01*
X211294756Y-67605151D01*
X212090000Y-68400395D01*
X212885244Y-67605151D01*
X212816690Y-67363732D01*
X212705376Y-67311275D01*
X212757885Y-67289525D01*
X212988822Y-67135218D01*
X213185218Y-66938822D01*
X213339525Y-66707885D01*
X213445814Y-66451282D01*
X213500000Y-66178873D01*
X213500000Y-65901127D01*
X213445814Y-65628718D01*
X213339525Y-65372115D01*
X213185218Y-65141178D01*
X212988822Y-64944782D01*
X212757885Y-64790475D01*
X212501282Y-64684186D01*
X212228873Y-64630000D01*
X211951127Y-64630000D01*
X211678718Y-64684186D01*
X211422115Y-64790475D01*
X211191178Y-64944782D01*
X210994782Y-65141178D01*
X210840475Y-65372115D01*
X210820000Y-65421546D01*
X210799525Y-65372115D01*
X210645218Y-65141178D01*
X210448822Y-64944782D01*
X210217885Y-64790475D01*
X209961282Y-64684186D01*
X209688873Y-64630000D01*
X209411127Y-64630000D01*
X209138718Y-64684186D01*
X208882115Y-64790475D01*
X208651178Y-64944782D01*
X208454782Y-65141178D01*
X208379474Y-65253884D01*
X208355506Y-65174872D01*
X208273481Y-65021414D01*
X208163094Y-64886906D01*
X208028586Y-64776519D01*
X207875128Y-64694494D01*
X207708616Y-64643983D01*
X207535450Y-64626928D01*
X206484550Y-64626928D01*
X206311384Y-64643983D01*
X206144872Y-64694494D01*
X205991414Y-64776519D01*
X205856906Y-64886906D01*
X205746519Y-65021414D01*
X205664494Y-65174872D01*
X205613983Y-65341384D01*
X205596928Y-65514550D01*
X205596928Y-66565450D01*
X205613983Y-66738616D01*
X205664494Y-66905128D01*
X205746519Y-67058586D01*
X205856906Y-67193094D01*
X205991414Y-67303481D01*
X206144872Y-67385506D01*
X206266638Y-67422443D01*
X206214756Y-67605151D01*
X207010000Y-68400395D01*
X207805244Y-67605151D01*
X207753362Y-67422443D01*
X207875128Y-67385506D01*
X208028586Y-67303481D01*
X208163094Y-67193094D01*
X208273481Y-67058586D01*
X208355506Y-66905128D01*
X208379474Y-66826116D01*
X208454782Y-66938822D01*
X208651178Y-67135218D01*
X208882115Y-67289525D01*
X208931546Y-67310000D01*
X208882115Y-67330475D01*
X208651178Y-67484782D01*
X208454782Y-67681178D01*
X208300475Y-67912115D01*
X208281799Y-67957202D01*
X208226268Y-67853310D01*
X207984849Y-67784756D01*
X207189605Y-68580000D01*
X207984849Y-69375244D01*
X208226268Y-69306690D01*
X208278725Y-69195376D01*
X208300475Y-69247885D01*
X208454782Y-69478822D01*
X208651178Y-69675218D01*
X208722689Y-69723000D01*
X207757495Y-69723000D01*
X207805244Y-69554849D01*
X207010000Y-68759605D01*
X206214756Y-69554849D01*
X206262505Y-69723000D01*
X184897495Y-69723000D01*
X184945244Y-69554849D01*
X184150000Y-68759605D01*
X183354756Y-69554849D01*
X183402505Y-69723000D01*
X182437311Y-69723000D01*
X182508822Y-69675218D01*
X182705218Y-69478822D01*
X182859525Y-69247885D01*
X182878201Y-69202798D01*
X182933732Y-69306690D01*
X183175151Y-69375244D01*
X183970395Y-68580000D01*
X184329605Y-68580000D01*
X185124849Y-69375244D01*
X185366268Y-69306690D01*
X185484668Y-69055444D01*
X185551778Y-68785929D01*
X185558193Y-68651502D01*
X205594982Y-68651502D01*
X205636121Y-68926184D01*
X205730057Y-69187562D01*
X205793732Y-69306690D01*
X206035151Y-69375244D01*
X206830395Y-68580000D01*
X206035151Y-67784756D01*
X205793732Y-67853310D01*
X205675332Y-68104556D01*
X205608222Y-68374071D01*
X205594982Y-68651502D01*
X185558193Y-68651502D01*
X185565018Y-68508498D01*
X185523879Y-68233816D01*
X185429943Y-67972438D01*
X185366268Y-67853310D01*
X185124849Y-67784756D01*
X184329605Y-68580000D01*
X183970395Y-68580000D01*
X183175151Y-67784756D01*
X182933732Y-67853310D01*
X182881275Y-67964624D01*
X182859525Y-67912115D01*
X182705218Y-67681178D01*
X182508822Y-67484782D01*
X182277885Y-67330475D01*
X182228454Y-67310000D01*
X182277885Y-67289525D01*
X182508822Y-67135218D01*
X182705218Y-66938822D01*
X182859525Y-66707885D01*
X182880000Y-66658454D01*
X182900475Y-66707885D01*
X183054782Y-66938822D01*
X183251178Y-67135218D01*
X183482115Y-67289525D01*
X183527202Y-67308201D01*
X183423310Y-67363732D01*
X183354756Y-67605151D01*
X184150000Y-68400395D01*
X184945244Y-67605151D01*
X184876690Y-67363732D01*
X184765376Y-67311275D01*
X184817885Y-67289525D01*
X185048822Y-67135218D01*
X185245218Y-66938822D01*
X185399525Y-66707885D01*
X185505814Y-66451282D01*
X185560000Y-66178873D01*
X185560000Y-65901127D01*
X185505814Y-65628718D01*
X185399525Y-65372115D01*
X185245218Y-65141178D01*
X185048822Y-64944782D01*
X184817885Y-64790475D01*
X184561282Y-64684186D01*
X184288873Y-64630000D01*
X184011127Y-64630000D01*
X183738718Y-64684186D01*
X183482115Y-64790475D01*
X183251178Y-64944782D01*
X183054782Y-65141178D01*
X182900475Y-65372115D01*
X182880000Y-65421546D01*
X182859525Y-65372115D01*
X182705218Y-65141178D01*
X182508822Y-64944782D01*
X182277885Y-64790475D01*
X182021282Y-64684186D01*
X181748873Y-64630000D01*
X181471127Y-64630000D01*
X181198718Y-64684186D01*
X180942115Y-64790475D01*
X180711178Y-64944782D01*
X180514782Y-65141178D01*
X180439474Y-65253884D01*
X180415506Y-65174872D01*
X180333481Y-65021414D01*
X180223094Y-64886906D01*
X180088586Y-64776519D01*
X179935128Y-64694494D01*
X179768616Y-64643983D01*
X179595450Y-64626928D01*
X178544550Y-64626928D01*
X178371384Y-64643983D01*
X178204872Y-64694494D01*
X178051414Y-64776519D01*
X177916906Y-64886906D01*
X177806519Y-65021414D01*
X177724494Y-65174872D01*
X177673983Y-65341384D01*
X177656928Y-65514550D01*
X177656928Y-66565450D01*
X177673983Y-66738616D01*
X177724494Y-66905128D01*
X177806519Y-67058586D01*
X177916906Y-67193094D01*
X178051414Y-67303481D01*
X178204872Y-67385506D01*
X178326638Y-67422443D01*
X178274756Y-67605151D01*
X179070000Y-68400395D01*
X179865244Y-67605151D01*
X179813362Y-67422443D01*
X179935128Y-67385506D01*
X180088586Y-67303481D01*
X180223094Y-67193094D01*
X180333481Y-67058586D01*
X180415506Y-66905128D01*
X180439474Y-66826116D01*
X180514782Y-66938822D01*
X180711178Y-67135218D01*
X180942115Y-67289525D01*
X180991546Y-67310000D01*
X180942115Y-67330475D01*
X180711178Y-67484782D01*
X180514782Y-67681178D01*
X180360475Y-67912115D01*
X180341799Y-67957202D01*
X180286268Y-67853310D01*
X180044849Y-67784756D01*
X179249605Y-68580000D01*
X180044849Y-69375244D01*
X180286268Y-69306690D01*
X180338725Y-69195376D01*
X180360475Y-69247885D01*
X180514782Y-69478822D01*
X180711178Y-69675218D01*
X180782689Y-69723000D01*
X179817495Y-69723000D01*
X179865244Y-69554849D01*
X179070000Y-68759605D01*
X178274756Y-69554849D01*
X178322505Y-69723000D01*
X156957495Y-69723000D01*
X157005244Y-69554849D01*
X156210000Y-68759605D01*
X155414756Y-69554849D01*
X155462505Y-69723000D01*
X154497311Y-69723000D01*
X154568822Y-69675218D01*
X154765218Y-69478822D01*
X154919525Y-69247885D01*
X154938201Y-69202798D01*
X154993732Y-69306690D01*
X155235151Y-69375244D01*
X156030395Y-68580000D01*
X156389605Y-68580000D01*
X157184849Y-69375244D01*
X157426268Y-69306690D01*
X157544668Y-69055444D01*
X157611778Y-68785929D01*
X157618193Y-68651502D01*
X177654982Y-68651502D01*
X177696121Y-68926184D01*
X177790057Y-69187562D01*
X177853732Y-69306690D01*
X178095151Y-69375244D01*
X178890395Y-68580000D01*
X178095151Y-67784756D01*
X177853732Y-67853310D01*
X177735332Y-68104556D01*
X177668222Y-68374071D01*
X177654982Y-68651502D01*
X157618193Y-68651502D01*
X157625018Y-68508498D01*
X157583879Y-68233816D01*
X157489943Y-67972438D01*
X157426268Y-67853310D01*
X157184849Y-67784756D01*
X156389605Y-68580000D01*
X156030395Y-68580000D01*
X155235151Y-67784756D01*
X154993732Y-67853310D01*
X154941275Y-67964624D01*
X154919525Y-67912115D01*
X154765218Y-67681178D01*
X154568822Y-67484782D01*
X154337885Y-67330475D01*
X154288454Y-67310000D01*
X154337885Y-67289525D01*
X154568822Y-67135218D01*
X154765218Y-66938822D01*
X154919525Y-66707885D01*
X154940000Y-66658454D01*
X154960475Y-66707885D01*
X155114782Y-66938822D01*
X155311178Y-67135218D01*
X155542115Y-67289525D01*
X155587202Y-67308201D01*
X155483310Y-67363732D01*
X155414756Y-67605151D01*
X156210000Y-68400395D01*
X157005244Y-67605151D01*
X156936690Y-67363732D01*
X156825376Y-67311275D01*
X156877885Y-67289525D01*
X157108822Y-67135218D01*
X157305218Y-66938822D01*
X157459525Y-66707885D01*
X157565814Y-66451282D01*
X157620000Y-66178873D01*
X157620000Y-65901127D01*
X157565814Y-65628718D01*
X157459525Y-65372115D01*
X157305218Y-65141178D01*
X157108822Y-64944782D01*
X156877885Y-64790475D01*
X156621282Y-64684186D01*
X156348873Y-64630000D01*
X156071127Y-64630000D01*
X155798718Y-64684186D01*
X155542115Y-64790475D01*
X155311178Y-64944782D01*
X155114782Y-65141178D01*
X154960475Y-65372115D01*
X154940000Y-65421546D01*
X154919525Y-65372115D01*
X154765218Y-65141178D01*
X154568822Y-64944782D01*
X154337885Y-64790475D01*
X154081282Y-64684186D01*
X153808873Y-64630000D01*
X153531127Y-64630000D01*
X153258718Y-64684186D01*
X153002115Y-64790475D01*
X152771178Y-64944782D01*
X152574782Y-65141178D01*
X152499474Y-65253884D01*
X152475506Y-65174872D01*
X152393481Y-65021414D01*
X152283094Y-64886906D01*
X152148586Y-64776519D01*
X151995128Y-64694494D01*
X151828616Y-64643983D01*
X151655450Y-64626928D01*
X150604550Y-64626928D01*
X150431384Y-64643983D01*
X150264872Y-64694494D01*
X150111414Y-64776519D01*
X149976906Y-64886906D01*
X149866519Y-65021414D01*
X149784494Y-65174872D01*
X149733983Y-65341384D01*
X149716928Y-65514550D01*
X149716928Y-66565450D01*
X149733983Y-66738616D01*
X149784494Y-66905128D01*
X149866519Y-67058586D01*
X149976906Y-67193094D01*
X150111414Y-67303481D01*
X150264872Y-67385506D01*
X150386638Y-67422443D01*
X150334756Y-67605151D01*
X151130000Y-68400395D01*
X151925244Y-67605151D01*
X151873362Y-67422443D01*
X151995128Y-67385506D01*
X152148586Y-67303481D01*
X152283094Y-67193094D01*
X152393481Y-67058586D01*
X152475506Y-66905128D01*
X152499474Y-66826116D01*
X152574782Y-66938822D01*
X152771178Y-67135218D01*
X153002115Y-67289525D01*
X153051546Y-67310000D01*
X153002115Y-67330475D01*
X152771178Y-67484782D01*
X152574782Y-67681178D01*
X152420475Y-67912115D01*
X152401799Y-67957202D01*
X152346268Y-67853310D01*
X152104849Y-67784756D01*
X151309605Y-68580000D01*
X152104849Y-69375244D01*
X152346268Y-69306690D01*
X152398725Y-69195376D01*
X152420475Y-69247885D01*
X152574782Y-69478822D01*
X152771178Y-69675218D01*
X152842689Y-69723000D01*
X151877495Y-69723000D01*
X151925244Y-69554849D01*
X151130000Y-68759605D01*
X150334756Y-69554849D01*
X150382505Y-69723000D01*
X130287495Y-69723000D01*
X130335244Y-69554849D01*
X129540000Y-68759605D01*
X128744756Y-69554849D01*
X128792505Y-69723000D01*
X127827311Y-69723000D01*
X127898822Y-69675218D01*
X128095218Y-69478822D01*
X128249525Y-69247885D01*
X128268201Y-69202798D01*
X128323732Y-69306690D01*
X128565151Y-69375244D01*
X129360395Y-68580000D01*
X129719605Y-68580000D01*
X130514849Y-69375244D01*
X130756268Y-69306690D01*
X130874668Y-69055444D01*
X130941778Y-68785929D01*
X130948193Y-68651502D01*
X149714982Y-68651502D01*
X149756121Y-68926184D01*
X149850057Y-69187562D01*
X149913732Y-69306690D01*
X150155151Y-69375244D01*
X150950395Y-68580000D01*
X150155151Y-67784756D01*
X149913732Y-67853310D01*
X149795332Y-68104556D01*
X149728222Y-68374071D01*
X149714982Y-68651502D01*
X130948193Y-68651502D01*
X130955018Y-68508498D01*
X130913879Y-68233816D01*
X130819943Y-67972438D01*
X130756268Y-67853310D01*
X130514849Y-67784756D01*
X129719605Y-68580000D01*
X129360395Y-68580000D01*
X128565151Y-67784756D01*
X128323732Y-67853310D01*
X128271275Y-67964624D01*
X128249525Y-67912115D01*
X128095218Y-67681178D01*
X127898822Y-67484782D01*
X127667885Y-67330475D01*
X127618454Y-67310000D01*
X127667885Y-67289525D01*
X127898822Y-67135218D01*
X128095218Y-66938822D01*
X128249525Y-66707885D01*
X128270000Y-66658454D01*
X128290475Y-66707885D01*
X128444782Y-66938822D01*
X128641178Y-67135218D01*
X128872115Y-67289525D01*
X128917202Y-67308201D01*
X128813310Y-67363732D01*
X128744756Y-67605151D01*
X129540000Y-68400395D01*
X130335244Y-67605151D01*
X130266690Y-67363732D01*
X130155376Y-67311275D01*
X130207885Y-67289525D01*
X130438822Y-67135218D01*
X130635218Y-66938822D01*
X130789525Y-66707885D01*
X130895814Y-66451282D01*
X130950000Y-66178873D01*
X130950000Y-65901127D01*
X130895814Y-65628718D01*
X130789525Y-65372115D01*
X130635218Y-65141178D01*
X130438822Y-64944782D01*
X130207885Y-64790475D01*
X129951282Y-64684186D01*
X129678873Y-64630000D01*
X129401127Y-64630000D01*
X129128718Y-64684186D01*
X128872115Y-64790475D01*
X128641178Y-64944782D01*
X128444782Y-65141178D01*
X128290475Y-65372115D01*
X128270000Y-65421546D01*
X128249525Y-65372115D01*
X128095218Y-65141178D01*
X127898822Y-64944782D01*
X127667885Y-64790475D01*
X127411282Y-64684186D01*
X127138873Y-64630000D01*
X126861127Y-64630000D01*
X126588718Y-64684186D01*
X126332115Y-64790475D01*
X126101178Y-64944782D01*
X125904782Y-65141178D01*
X125829474Y-65253884D01*
X125805506Y-65174872D01*
X125723481Y-65021414D01*
X125613094Y-64886906D01*
X125478586Y-64776519D01*
X125325128Y-64694494D01*
X125158616Y-64643983D01*
X124985450Y-64626928D01*
X123934550Y-64626928D01*
X123761384Y-64643983D01*
X123594872Y-64694494D01*
X123441414Y-64776519D01*
X123306906Y-64886906D01*
X123196519Y-65021414D01*
X123114494Y-65174872D01*
X123063983Y-65341384D01*
X123046928Y-65514550D01*
X123046928Y-66565450D01*
X123063983Y-66738616D01*
X123114494Y-66905128D01*
X123196519Y-67058586D01*
X123306906Y-67193094D01*
X123441414Y-67303481D01*
X123594872Y-67385506D01*
X123716638Y-67422443D01*
X123664756Y-67605151D01*
X124460000Y-68400395D01*
X125255244Y-67605151D01*
X125203362Y-67422443D01*
X125325128Y-67385506D01*
X125478586Y-67303481D01*
X125613094Y-67193094D01*
X125723481Y-67058586D01*
X125805506Y-66905128D01*
X125829474Y-66826116D01*
X125904782Y-66938822D01*
X126101178Y-67135218D01*
X126332115Y-67289525D01*
X126381546Y-67310000D01*
X126332115Y-67330475D01*
X126101178Y-67484782D01*
X125904782Y-67681178D01*
X125750475Y-67912115D01*
X125731799Y-67957202D01*
X125676268Y-67853310D01*
X125434849Y-67784756D01*
X124639605Y-68580000D01*
X125434849Y-69375244D01*
X125676268Y-69306690D01*
X125728725Y-69195376D01*
X125750475Y-69247885D01*
X125904782Y-69478822D01*
X126101178Y-69675218D01*
X126172689Y-69723000D01*
X125207495Y-69723000D01*
X125255244Y-69554849D01*
X124460000Y-68759605D01*
X123664756Y-69554849D01*
X123712505Y-69723000D01*
X103617495Y-69723000D01*
X103665244Y-69554849D01*
X102870000Y-68759605D01*
X102074756Y-69554849D01*
X102122505Y-69723000D01*
X101157311Y-69723000D01*
X101228822Y-69675218D01*
X101425218Y-69478822D01*
X101579525Y-69247885D01*
X101598201Y-69202798D01*
X101653732Y-69306690D01*
X101895151Y-69375244D01*
X102690395Y-68580000D01*
X103049605Y-68580000D01*
X103844849Y-69375244D01*
X104086268Y-69306690D01*
X104204668Y-69055444D01*
X104271778Y-68785929D01*
X104278193Y-68651502D01*
X123044982Y-68651502D01*
X123086121Y-68926184D01*
X123180057Y-69187562D01*
X123243732Y-69306690D01*
X123485151Y-69375244D01*
X124280395Y-68580000D01*
X123485151Y-67784756D01*
X123243732Y-67853310D01*
X123125332Y-68104556D01*
X123058222Y-68374071D01*
X123044982Y-68651502D01*
X104278193Y-68651502D01*
X104285018Y-68508498D01*
X104243879Y-68233816D01*
X104149943Y-67972438D01*
X104086268Y-67853310D01*
X103844849Y-67784756D01*
X103049605Y-68580000D01*
X102690395Y-68580000D01*
X101895151Y-67784756D01*
X101653732Y-67853310D01*
X101601275Y-67964624D01*
X101579525Y-67912115D01*
X101425218Y-67681178D01*
X101228822Y-67484782D01*
X100997885Y-67330475D01*
X100948454Y-67310000D01*
X100997885Y-67289525D01*
X101228822Y-67135218D01*
X101425218Y-66938822D01*
X101579525Y-66707885D01*
X101600000Y-66658454D01*
X101620475Y-66707885D01*
X101774782Y-66938822D01*
X101971178Y-67135218D01*
X102202115Y-67289525D01*
X102247202Y-67308201D01*
X102143310Y-67363732D01*
X102074756Y-67605151D01*
X102870000Y-68400395D01*
X103665244Y-67605151D01*
X103596690Y-67363732D01*
X103485376Y-67311275D01*
X103537885Y-67289525D01*
X103768822Y-67135218D01*
X103965218Y-66938822D01*
X104119525Y-66707885D01*
X104225814Y-66451282D01*
X104280000Y-66178873D01*
X104280000Y-65901127D01*
X104225814Y-65628718D01*
X104119525Y-65372115D01*
X103965218Y-65141178D01*
X103768822Y-64944782D01*
X103537885Y-64790475D01*
X103281282Y-64684186D01*
X103008873Y-64630000D01*
X102731127Y-64630000D01*
X102458718Y-64684186D01*
X102202115Y-64790475D01*
X101971178Y-64944782D01*
X101774782Y-65141178D01*
X101620475Y-65372115D01*
X101600000Y-65421546D01*
X101579525Y-65372115D01*
X101425218Y-65141178D01*
X101228822Y-64944782D01*
X100997885Y-64790475D01*
X100741282Y-64684186D01*
X100468873Y-64630000D01*
X100191127Y-64630000D01*
X99918718Y-64684186D01*
X99662115Y-64790475D01*
X99431178Y-64944782D01*
X99234782Y-65141178D01*
X99159474Y-65253884D01*
X99135506Y-65174872D01*
X99053481Y-65021414D01*
X98943094Y-64886906D01*
X98808586Y-64776519D01*
X98655128Y-64694494D01*
X98488616Y-64643983D01*
X98315450Y-64626928D01*
X97264550Y-64626928D01*
X97091384Y-64643983D01*
X96924872Y-64694494D01*
X96771414Y-64776519D01*
X96636906Y-64886906D01*
X96526519Y-65021414D01*
X96444494Y-65174872D01*
X96393983Y-65341384D01*
X96376928Y-65514550D01*
X96376928Y-66565450D01*
X96393983Y-66738616D01*
X96444494Y-66905128D01*
X96526519Y-67058586D01*
X96636906Y-67193094D01*
X96771414Y-67303481D01*
X96924872Y-67385506D01*
X97046638Y-67422443D01*
X96994756Y-67605151D01*
X97790000Y-68400395D01*
X98585244Y-67605151D01*
X98533362Y-67422443D01*
X98655128Y-67385506D01*
X98808586Y-67303481D01*
X98943094Y-67193094D01*
X99053481Y-67058586D01*
X99135506Y-66905128D01*
X99159474Y-66826116D01*
X99234782Y-66938822D01*
X99431178Y-67135218D01*
X99662115Y-67289525D01*
X99711546Y-67310000D01*
X99662115Y-67330475D01*
X99431178Y-67484782D01*
X99234782Y-67681178D01*
X99080475Y-67912115D01*
X99061799Y-67957202D01*
X99006268Y-67853310D01*
X98764849Y-67784756D01*
X97969605Y-68580000D01*
X98764849Y-69375244D01*
X99006268Y-69306690D01*
X99058725Y-69195376D01*
X99080475Y-69247885D01*
X99234782Y-69478822D01*
X99431178Y-69675218D01*
X99502689Y-69723000D01*
X98537495Y-69723000D01*
X98585244Y-69554849D01*
X97790000Y-68759605D01*
X96994756Y-69554849D01*
X97042505Y-69723000D01*
X76947495Y-69723000D01*
X76995244Y-69554849D01*
X76200000Y-68759605D01*
X75404756Y-69554849D01*
X75452505Y-69723000D01*
X74487311Y-69723000D01*
X74558822Y-69675218D01*
X74755218Y-69478822D01*
X74909525Y-69247885D01*
X74928201Y-69202798D01*
X74983732Y-69306690D01*
X75225151Y-69375244D01*
X76020395Y-68580000D01*
X76379605Y-68580000D01*
X77174849Y-69375244D01*
X77416268Y-69306690D01*
X77534668Y-69055444D01*
X77601778Y-68785929D01*
X77608193Y-68651502D01*
X96374982Y-68651502D01*
X96416121Y-68926184D01*
X96510057Y-69187562D01*
X96573732Y-69306690D01*
X96815151Y-69375244D01*
X97610395Y-68580000D01*
X96815151Y-67784756D01*
X96573732Y-67853310D01*
X96455332Y-68104556D01*
X96388222Y-68374071D01*
X96374982Y-68651502D01*
X77608193Y-68651502D01*
X77615018Y-68508498D01*
X77573879Y-68233816D01*
X77479943Y-67972438D01*
X77416268Y-67853310D01*
X77174849Y-67784756D01*
X76379605Y-68580000D01*
X76020395Y-68580000D01*
X75225151Y-67784756D01*
X74983732Y-67853310D01*
X74931275Y-67964624D01*
X74909525Y-67912115D01*
X74755218Y-67681178D01*
X74558822Y-67484782D01*
X74327885Y-67330475D01*
X74278454Y-67310000D01*
X74327885Y-67289525D01*
X74558822Y-67135218D01*
X74755218Y-66938822D01*
X74909525Y-66707885D01*
X74930000Y-66658454D01*
X74950475Y-66707885D01*
X75104782Y-66938822D01*
X75301178Y-67135218D01*
X75532115Y-67289525D01*
X75577202Y-67308201D01*
X75473310Y-67363732D01*
X75404756Y-67605151D01*
X76200000Y-68400395D01*
X76995244Y-67605151D01*
X76926690Y-67363732D01*
X76815376Y-67311275D01*
X76867885Y-67289525D01*
X77098822Y-67135218D01*
X77295218Y-66938822D01*
X77449525Y-66707885D01*
X77555814Y-66451282D01*
X77610000Y-66178873D01*
X77610000Y-65901127D01*
X77555814Y-65628718D01*
X77449525Y-65372115D01*
X77295218Y-65141178D01*
X77098822Y-64944782D01*
X76867885Y-64790475D01*
X76611282Y-64684186D01*
X76338873Y-64630000D01*
X76061127Y-64630000D01*
X75788718Y-64684186D01*
X75532115Y-64790475D01*
X75301178Y-64944782D01*
X75104782Y-65141178D01*
X74950475Y-65372115D01*
X74930000Y-65421546D01*
X74909525Y-65372115D01*
X74755218Y-65141178D01*
X74558822Y-64944782D01*
X74327885Y-64790475D01*
X74071282Y-64684186D01*
X73798873Y-64630000D01*
X73521127Y-64630000D01*
X73248718Y-64684186D01*
X72992115Y-64790475D01*
X72761178Y-64944782D01*
X72564782Y-65141178D01*
X72489474Y-65253884D01*
X72465506Y-65174872D01*
X72383481Y-65021414D01*
X72273094Y-64886906D01*
X72138586Y-64776519D01*
X71985128Y-64694494D01*
X71818616Y-64643983D01*
X71645450Y-64626928D01*
X70594550Y-64626928D01*
X70421384Y-64643983D01*
X70254872Y-64694494D01*
X70101414Y-64776519D01*
X69966906Y-64886906D01*
X69856519Y-65021414D01*
X69774494Y-65174872D01*
X69723983Y-65341384D01*
X69706928Y-65514550D01*
X69706928Y-66565450D01*
X69723983Y-66738616D01*
X69774494Y-66905128D01*
X69856519Y-67058586D01*
X69966906Y-67193094D01*
X70101414Y-67303481D01*
X70254872Y-67385506D01*
X70376638Y-67422443D01*
X70324756Y-67605151D01*
X71120000Y-68400395D01*
X71915244Y-67605151D01*
X71863362Y-67422443D01*
X71985128Y-67385506D01*
X72138586Y-67303481D01*
X72273094Y-67193094D01*
X72383481Y-67058586D01*
X72465506Y-66905128D01*
X72489474Y-66826116D01*
X72564782Y-66938822D01*
X72761178Y-67135218D01*
X72992115Y-67289525D01*
X73041546Y-67310000D01*
X72992115Y-67330475D01*
X72761178Y-67484782D01*
X72564782Y-67681178D01*
X72410475Y-67912115D01*
X72391799Y-67957202D01*
X72336268Y-67853310D01*
X72094849Y-67784756D01*
X71299605Y-68580000D01*
X72094849Y-69375244D01*
X72336268Y-69306690D01*
X72388725Y-69195376D01*
X72410475Y-69247885D01*
X72564782Y-69478822D01*
X72761178Y-69675218D01*
X72832689Y-69723000D01*
X71867495Y-69723000D01*
X71915244Y-69554849D01*
X71120000Y-68759605D01*
X70324756Y-69554849D01*
X70372505Y-69723000D01*
X66167000Y-69723000D01*
X66167000Y-68651502D01*
X69704982Y-68651502D01*
X69746121Y-68926184D01*
X69840057Y-69187562D01*
X69903732Y-69306690D01*
X70145151Y-69375244D01*
X70940395Y-68580000D01*
X70145151Y-67784756D01*
X69903732Y-67853310D01*
X69785332Y-68104556D01*
X69718222Y-68374071D01*
X69704982Y-68651502D01*
X66167000Y-68651502D01*
X66167000Y-63627000D01*
X231013000Y-63627000D01*
X231013000Y-69723000D01*
%TA.AperFunction,Conductor*%
D16*
G36*
X231013000Y-69723000D02*
G01*
X212837495Y-69723000D01*
X212885244Y-69554849D01*
X212090000Y-68759605D01*
X211294756Y-69554849D01*
X211342505Y-69723000D01*
X210377311Y-69723000D01*
X210448822Y-69675218D01*
X210645218Y-69478822D01*
X210799525Y-69247885D01*
X210818201Y-69202798D01*
X210873732Y-69306690D01*
X211115151Y-69375244D01*
X211910395Y-68580000D01*
X212269605Y-68580000D01*
X213064849Y-69375244D01*
X213306268Y-69306690D01*
X213424668Y-69055444D01*
X213491778Y-68785929D01*
X213505018Y-68508498D01*
X213463879Y-68233816D01*
X213369943Y-67972438D01*
X213306268Y-67853310D01*
X213064849Y-67784756D01*
X212269605Y-68580000D01*
X211910395Y-68580000D01*
X211115151Y-67784756D01*
X210873732Y-67853310D01*
X210821275Y-67964624D01*
X210799525Y-67912115D01*
X210645218Y-67681178D01*
X210448822Y-67484782D01*
X210217885Y-67330475D01*
X210168454Y-67310000D01*
X210217885Y-67289525D01*
X210448822Y-67135218D01*
X210645218Y-66938822D01*
X210799525Y-66707885D01*
X210820000Y-66658454D01*
X210840475Y-66707885D01*
X210994782Y-66938822D01*
X211191178Y-67135218D01*
X211422115Y-67289525D01*
X211467202Y-67308201D01*
X211363310Y-67363732D01*
X211294756Y-67605151D01*
X212090000Y-68400395D01*
X212885244Y-67605151D01*
X212816690Y-67363732D01*
X212705376Y-67311275D01*
X212757885Y-67289525D01*
X212988822Y-67135218D01*
X213185218Y-66938822D01*
X213339525Y-66707885D01*
X213445814Y-66451282D01*
X213500000Y-66178873D01*
X213500000Y-65901127D01*
X213445814Y-65628718D01*
X213339525Y-65372115D01*
X213185218Y-65141178D01*
X212988822Y-64944782D01*
X212757885Y-64790475D01*
X212501282Y-64684186D01*
X212228873Y-64630000D01*
X211951127Y-64630000D01*
X211678718Y-64684186D01*
X211422115Y-64790475D01*
X211191178Y-64944782D01*
X210994782Y-65141178D01*
X210840475Y-65372115D01*
X210820000Y-65421546D01*
X210799525Y-65372115D01*
X210645218Y-65141178D01*
X210448822Y-64944782D01*
X210217885Y-64790475D01*
X209961282Y-64684186D01*
X209688873Y-64630000D01*
X209411127Y-64630000D01*
X209138718Y-64684186D01*
X208882115Y-64790475D01*
X208651178Y-64944782D01*
X208454782Y-65141178D01*
X208379474Y-65253884D01*
X208355506Y-65174872D01*
X208273481Y-65021414D01*
X208163094Y-64886906D01*
X208028586Y-64776519D01*
X207875128Y-64694494D01*
X207708616Y-64643983D01*
X207535450Y-64626928D01*
X206484550Y-64626928D01*
X206311384Y-64643983D01*
X206144872Y-64694494D01*
X205991414Y-64776519D01*
X205856906Y-64886906D01*
X205746519Y-65021414D01*
X205664494Y-65174872D01*
X205613983Y-65341384D01*
X205596928Y-65514550D01*
X205596928Y-66565450D01*
X205613983Y-66738616D01*
X205664494Y-66905128D01*
X205746519Y-67058586D01*
X205856906Y-67193094D01*
X205991414Y-67303481D01*
X206144872Y-67385506D01*
X206266638Y-67422443D01*
X206214756Y-67605151D01*
X207010000Y-68400395D01*
X207805244Y-67605151D01*
X207753362Y-67422443D01*
X207875128Y-67385506D01*
X208028586Y-67303481D01*
X208163094Y-67193094D01*
X208273481Y-67058586D01*
X208355506Y-66905128D01*
X208379474Y-66826116D01*
X208454782Y-66938822D01*
X208651178Y-67135218D01*
X208882115Y-67289525D01*
X208931546Y-67310000D01*
X208882115Y-67330475D01*
X208651178Y-67484782D01*
X208454782Y-67681178D01*
X208300475Y-67912115D01*
X208281799Y-67957202D01*
X208226268Y-67853310D01*
X207984849Y-67784756D01*
X207189605Y-68580000D01*
X207984849Y-69375244D01*
X208226268Y-69306690D01*
X208278725Y-69195376D01*
X208300475Y-69247885D01*
X208454782Y-69478822D01*
X208651178Y-69675218D01*
X208722689Y-69723000D01*
X207757495Y-69723000D01*
X207805244Y-69554849D01*
X207010000Y-68759605D01*
X206214756Y-69554849D01*
X206262505Y-69723000D01*
X184897495Y-69723000D01*
X184945244Y-69554849D01*
X184150000Y-68759605D01*
X183354756Y-69554849D01*
X183402505Y-69723000D01*
X182437311Y-69723000D01*
X182508822Y-69675218D01*
X182705218Y-69478822D01*
X182859525Y-69247885D01*
X182878201Y-69202798D01*
X182933732Y-69306690D01*
X183175151Y-69375244D01*
X183970395Y-68580000D01*
X184329605Y-68580000D01*
X185124849Y-69375244D01*
X185366268Y-69306690D01*
X185484668Y-69055444D01*
X185551778Y-68785929D01*
X185558193Y-68651502D01*
X205594982Y-68651502D01*
X205636121Y-68926184D01*
X205730057Y-69187562D01*
X205793732Y-69306690D01*
X206035151Y-69375244D01*
X206830395Y-68580000D01*
X206035151Y-67784756D01*
X205793732Y-67853310D01*
X205675332Y-68104556D01*
X205608222Y-68374071D01*
X205594982Y-68651502D01*
X185558193Y-68651502D01*
X185565018Y-68508498D01*
X185523879Y-68233816D01*
X185429943Y-67972438D01*
X185366268Y-67853310D01*
X185124849Y-67784756D01*
X184329605Y-68580000D01*
X183970395Y-68580000D01*
X183175151Y-67784756D01*
X182933732Y-67853310D01*
X182881275Y-67964624D01*
X182859525Y-67912115D01*
X182705218Y-67681178D01*
X182508822Y-67484782D01*
X182277885Y-67330475D01*
X182228454Y-67310000D01*
X182277885Y-67289525D01*
X182508822Y-67135218D01*
X182705218Y-66938822D01*
X182859525Y-66707885D01*
X182880000Y-66658454D01*
X182900475Y-66707885D01*
X183054782Y-66938822D01*
X183251178Y-67135218D01*
X183482115Y-67289525D01*
X183527202Y-67308201D01*
X183423310Y-67363732D01*
X183354756Y-67605151D01*
X184150000Y-68400395D01*
X184945244Y-67605151D01*
X184876690Y-67363732D01*
X184765376Y-67311275D01*
X184817885Y-67289525D01*
X185048822Y-67135218D01*
X185245218Y-66938822D01*
X185399525Y-66707885D01*
X185505814Y-66451282D01*
X185560000Y-66178873D01*
X185560000Y-65901127D01*
X185505814Y-65628718D01*
X185399525Y-65372115D01*
X185245218Y-65141178D01*
X185048822Y-64944782D01*
X184817885Y-64790475D01*
X184561282Y-64684186D01*
X184288873Y-64630000D01*
X184011127Y-64630000D01*
X183738718Y-64684186D01*
X183482115Y-64790475D01*
X183251178Y-64944782D01*
X183054782Y-65141178D01*
X182900475Y-65372115D01*
X182880000Y-65421546D01*
X182859525Y-65372115D01*
X182705218Y-65141178D01*
X182508822Y-64944782D01*
X182277885Y-64790475D01*
X182021282Y-64684186D01*
X181748873Y-64630000D01*
X181471127Y-64630000D01*
X181198718Y-64684186D01*
X180942115Y-64790475D01*
X180711178Y-64944782D01*
X180514782Y-65141178D01*
X180439474Y-65253884D01*
X180415506Y-65174872D01*
X180333481Y-65021414D01*
X180223094Y-64886906D01*
X180088586Y-64776519D01*
X179935128Y-64694494D01*
X179768616Y-64643983D01*
X179595450Y-64626928D01*
X178544550Y-64626928D01*
X178371384Y-64643983D01*
X178204872Y-64694494D01*
X178051414Y-64776519D01*
X177916906Y-64886906D01*
X177806519Y-65021414D01*
X177724494Y-65174872D01*
X177673983Y-65341384D01*
X177656928Y-65514550D01*
X177656928Y-66565450D01*
X177673983Y-66738616D01*
X177724494Y-66905128D01*
X177806519Y-67058586D01*
X177916906Y-67193094D01*
X178051414Y-67303481D01*
X178204872Y-67385506D01*
X178326638Y-67422443D01*
X178274756Y-67605151D01*
X179070000Y-68400395D01*
X179865244Y-67605151D01*
X179813362Y-67422443D01*
X179935128Y-67385506D01*
X180088586Y-67303481D01*
X180223094Y-67193094D01*
X180333481Y-67058586D01*
X180415506Y-66905128D01*
X180439474Y-66826116D01*
X180514782Y-66938822D01*
X180711178Y-67135218D01*
X180942115Y-67289525D01*
X180991546Y-67310000D01*
X180942115Y-67330475D01*
X180711178Y-67484782D01*
X180514782Y-67681178D01*
X180360475Y-67912115D01*
X180341799Y-67957202D01*
X180286268Y-67853310D01*
X180044849Y-67784756D01*
X179249605Y-68580000D01*
X180044849Y-69375244D01*
X180286268Y-69306690D01*
X180338725Y-69195376D01*
X180360475Y-69247885D01*
X180514782Y-69478822D01*
X180711178Y-69675218D01*
X180782689Y-69723000D01*
X179817495Y-69723000D01*
X179865244Y-69554849D01*
X179070000Y-68759605D01*
X178274756Y-69554849D01*
X178322505Y-69723000D01*
X156957495Y-69723000D01*
X157005244Y-69554849D01*
X156210000Y-68759605D01*
X155414756Y-69554849D01*
X155462505Y-69723000D01*
X154497311Y-69723000D01*
X154568822Y-69675218D01*
X154765218Y-69478822D01*
X154919525Y-69247885D01*
X154938201Y-69202798D01*
X154993732Y-69306690D01*
X155235151Y-69375244D01*
X156030395Y-68580000D01*
X156389605Y-68580000D01*
X157184849Y-69375244D01*
X157426268Y-69306690D01*
X157544668Y-69055444D01*
X157611778Y-68785929D01*
X157618193Y-68651502D01*
X177654982Y-68651502D01*
X177696121Y-68926184D01*
X177790057Y-69187562D01*
X177853732Y-69306690D01*
X178095151Y-69375244D01*
X178890395Y-68580000D01*
X178095151Y-67784756D01*
X177853732Y-67853310D01*
X177735332Y-68104556D01*
X177668222Y-68374071D01*
X177654982Y-68651502D01*
X157618193Y-68651502D01*
X157625018Y-68508498D01*
X157583879Y-68233816D01*
X157489943Y-67972438D01*
X157426268Y-67853310D01*
X157184849Y-67784756D01*
X156389605Y-68580000D01*
X156030395Y-68580000D01*
X155235151Y-67784756D01*
X154993732Y-67853310D01*
X154941275Y-67964624D01*
X154919525Y-67912115D01*
X154765218Y-67681178D01*
X154568822Y-67484782D01*
X154337885Y-67330475D01*
X154288454Y-67310000D01*
X154337885Y-67289525D01*
X154568822Y-67135218D01*
X154765218Y-66938822D01*
X154919525Y-66707885D01*
X154940000Y-66658454D01*
X154960475Y-66707885D01*
X155114782Y-66938822D01*
X155311178Y-67135218D01*
X155542115Y-67289525D01*
X155587202Y-67308201D01*
X155483310Y-67363732D01*
X155414756Y-67605151D01*
X156210000Y-68400395D01*
X157005244Y-67605151D01*
X156936690Y-67363732D01*
X156825376Y-67311275D01*
X156877885Y-67289525D01*
X157108822Y-67135218D01*
X157305218Y-66938822D01*
X157459525Y-66707885D01*
X157565814Y-66451282D01*
X157620000Y-66178873D01*
X157620000Y-65901127D01*
X157565814Y-65628718D01*
X157459525Y-65372115D01*
X157305218Y-65141178D01*
X157108822Y-64944782D01*
X156877885Y-64790475D01*
X156621282Y-64684186D01*
X156348873Y-64630000D01*
X156071127Y-64630000D01*
X155798718Y-64684186D01*
X155542115Y-64790475D01*
X155311178Y-64944782D01*
X155114782Y-65141178D01*
X154960475Y-65372115D01*
X154940000Y-65421546D01*
X154919525Y-65372115D01*
X154765218Y-65141178D01*
X154568822Y-64944782D01*
X154337885Y-64790475D01*
X154081282Y-64684186D01*
X153808873Y-64630000D01*
X153531127Y-64630000D01*
X153258718Y-64684186D01*
X153002115Y-64790475D01*
X152771178Y-64944782D01*
X152574782Y-65141178D01*
X152499474Y-65253884D01*
X152475506Y-65174872D01*
X152393481Y-65021414D01*
X152283094Y-64886906D01*
X152148586Y-64776519D01*
X151995128Y-64694494D01*
X151828616Y-64643983D01*
X151655450Y-64626928D01*
X150604550Y-64626928D01*
X150431384Y-64643983D01*
X150264872Y-64694494D01*
X150111414Y-64776519D01*
X149976906Y-64886906D01*
X149866519Y-65021414D01*
X149784494Y-65174872D01*
X149733983Y-65341384D01*
X149716928Y-65514550D01*
X149716928Y-66565450D01*
X149733983Y-66738616D01*
X149784494Y-66905128D01*
X149866519Y-67058586D01*
X149976906Y-67193094D01*
X150111414Y-67303481D01*
X150264872Y-67385506D01*
X150386638Y-67422443D01*
X150334756Y-67605151D01*
X151130000Y-68400395D01*
X151925244Y-67605151D01*
X151873362Y-67422443D01*
X151995128Y-67385506D01*
X152148586Y-67303481D01*
X152283094Y-67193094D01*
X152393481Y-67058586D01*
X152475506Y-66905128D01*
X152499474Y-66826116D01*
X152574782Y-66938822D01*
X152771178Y-67135218D01*
X153002115Y-67289525D01*
X153051546Y-67310000D01*
X153002115Y-67330475D01*
X152771178Y-67484782D01*
X152574782Y-67681178D01*
X152420475Y-67912115D01*
X152401799Y-67957202D01*
X152346268Y-67853310D01*
X152104849Y-67784756D01*
X151309605Y-68580000D01*
X152104849Y-69375244D01*
X152346268Y-69306690D01*
X152398725Y-69195376D01*
X152420475Y-69247885D01*
X152574782Y-69478822D01*
X152771178Y-69675218D01*
X152842689Y-69723000D01*
X151877495Y-69723000D01*
X151925244Y-69554849D01*
X151130000Y-68759605D01*
X150334756Y-69554849D01*
X150382505Y-69723000D01*
X130287495Y-69723000D01*
X130335244Y-69554849D01*
X129540000Y-68759605D01*
X128744756Y-69554849D01*
X128792505Y-69723000D01*
X127827311Y-69723000D01*
X127898822Y-69675218D01*
X128095218Y-69478822D01*
X128249525Y-69247885D01*
X128268201Y-69202798D01*
X128323732Y-69306690D01*
X128565151Y-69375244D01*
X129360395Y-68580000D01*
X129719605Y-68580000D01*
X130514849Y-69375244D01*
X130756268Y-69306690D01*
X130874668Y-69055444D01*
X130941778Y-68785929D01*
X130948193Y-68651502D01*
X149714982Y-68651502D01*
X149756121Y-68926184D01*
X149850057Y-69187562D01*
X149913732Y-69306690D01*
X150155151Y-69375244D01*
X150950395Y-68580000D01*
X150155151Y-67784756D01*
X149913732Y-67853310D01*
X149795332Y-68104556D01*
X149728222Y-68374071D01*
X149714982Y-68651502D01*
X130948193Y-68651502D01*
X130955018Y-68508498D01*
X130913879Y-68233816D01*
X130819943Y-67972438D01*
X130756268Y-67853310D01*
X130514849Y-67784756D01*
X129719605Y-68580000D01*
X129360395Y-68580000D01*
X128565151Y-67784756D01*
X128323732Y-67853310D01*
X128271275Y-67964624D01*
X128249525Y-67912115D01*
X128095218Y-67681178D01*
X127898822Y-67484782D01*
X127667885Y-67330475D01*
X127618454Y-67310000D01*
X127667885Y-67289525D01*
X127898822Y-67135218D01*
X128095218Y-66938822D01*
X128249525Y-66707885D01*
X128270000Y-66658454D01*
X128290475Y-66707885D01*
X128444782Y-66938822D01*
X128641178Y-67135218D01*
X128872115Y-67289525D01*
X128917202Y-67308201D01*
X128813310Y-67363732D01*
X128744756Y-67605151D01*
X129540000Y-68400395D01*
X130335244Y-67605151D01*
X130266690Y-67363732D01*
X130155376Y-67311275D01*
X130207885Y-67289525D01*
X130438822Y-67135218D01*
X130635218Y-66938822D01*
X130789525Y-66707885D01*
X130895814Y-66451282D01*
X130950000Y-66178873D01*
X130950000Y-65901127D01*
X130895814Y-65628718D01*
X130789525Y-65372115D01*
X130635218Y-65141178D01*
X130438822Y-64944782D01*
X130207885Y-64790475D01*
X129951282Y-64684186D01*
X129678873Y-64630000D01*
X129401127Y-64630000D01*
X129128718Y-64684186D01*
X128872115Y-64790475D01*
X128641178Y-64944782D01*
X128444782Y-65141178D01*
X128290475Y-65372115D01*
X128270000Y-65421546D01*
X128249525Y-65372115D01*
X128095218Y-65141178D01*
X127898822Y-64944782D01*
X127667885Y-64790475D01*
X127411282Y-64684186D01*
X127138873Y-64630000D01*
X126861127Y-64630000D01*
X126588718Y-64684186D01*
X126332115Y-64790475D01*
X126101178Y-64944782D01*
X125904782Y-65141178D01*
X125829474Y-65253884D01*
X125805506Y-65174872D01*
X125723481Y-65021414D01*
X125613094Y-64886906D01*
X125478586Y-64776519D01*
X125325128Y-64694494D01*
X125158616Y-64643983D01*
X124985450Y-64626928D01*
X123934550Y-64626928D01*
X123761384Y-64643983D01*
X123594872Y-64694494D01*
X123441414Y-64776519D01*
X123306906Y-64886906D01*
X123196519Y-65021414D01*
X123114494Y-65174872D01*
X123063983Y-65341384D01*
X123046928Y-65514550D01*
X123046928Y-66565450D01*
X123063983Y-66738616D01*
X123114494Y-66905128D01*
X123196519Y-67058586D01*
X123306906Y-67193094D01*
X123441414Y-67303481D01*
X123594872Y-67385506D01*
X123716638Y-67422443D01*
X123664756Y-67605151D01*
X124460000Y-68400395D01*
X125255244Y-67605151D01*
X125203362Y-67422443D01*
X125325128Y-67385506D01*
X125478586Y-67303481D01*
X125613094Y-67193094D01*
X125723481Y-67058586D01*
X125805506Y-66905128D01*
X125829474Y-66826116D01*
X125904782Y-66938822D01*
X126101178Y-67135218D01*
X126332115Y-67289525D01*
X126381546Y-67310000D01*
X126332115Y-67330475D01*
X126101178Y-67484782D01*
X125904782Y-67681178D01*
X125750475Y-67912115D01*
X125731799Y-67957202D01*
X125676268Y-67853310D01*
X125434849Y-67784756D01*
X124639605Y-68580000D01*
X125434849Y-69375244D01*
X125676268Y-69306690D01*
X125728725Y-69195376D01*
X125750475Y-69247885D01*
X125904782Y-69478822D01*
X126101178Y-69675218D01*
X126172689Y-69723000D01*
X125207495Y-69723000D01*
X125255244Y-69554849D01*
X124460000Y-68759605D01*
X123664756Y-69554849D01*
X123712505Y-69723000D01*
X103617495Y-69723000D01*
X103665244Y-69554849D01*
X102870000Y-68759605D01*
X102074756Y-69554849D01*
X102122505Y-69723000D01*
X101157311Y-69723000D01*
X101228822Y-69675218D01*
X101425218Y-69478822D01*
X101579525Y-69247885D01*
X101598201Y-69202798D01*
X101653732Y-69306690D01*
X101895151Y-69375244D01*
X102690395Y-68580000D01*
X103049605Y-68580000D01*
X103844849Y-69375244D01*
X104086268Y-69306690D01*
X104204668Y-69055444D01*
X104271778Y-68785929D01*
X104278193Y-68651502D01*
X123044982Y-68651502D01*
X123086121Y-68926184D01*
X123180057Y-69187562D01*
X123243732Y-69306690D01*
X123485151Y-69375244D01*
X124280395Y-68580000D01*
X123485151Y-67784756D01*
X123243732Y-67853310D01*
X123125332Y-68104556D01*
X123058222Y-68374071D01*
X123044982Y-68651502D01*
X104278193Y-68651502D01*
X104285018Y-68508498D01*
X104243879Y-68233816D01*
X104149943Y-67972438D01*
X104086268Y-67853310D01*
X103844849Y-67784756D01*
X103049605Y-68580000D01*
X102690395Y-68580000D01*
X101895151Y-67784756D01*
X101653732Y-67853310D01*
X101601275Y-67964624D01*
X101579525Y-67912115D01*
X101425218Y-67681178D01*
X101228822Y-67484782D01*
X100997885Y-67330475D01*
X100948454Y-67310000D01*
X100997885Y-67289525D01*
X101228822Y-67135218D01*
X101425218Y-66938822D01*
X101579525Y-66707885D01*
X101600000Y-66658454D01*
X101620475Y-66707885D01*
X101774782Y-66938822D01*
X101971178Y-67135218D01*
X102202115Y-67289525D01*
X102247202Y-67308201D01*
X102143310Y-67363732D01*
X102074756Y-67605151D01*
X102870000Y-68400395D01*
X103665244Y-67605151D01*
X103596690Y-67363732D01*
X103485376Y-67311275D01*
X103537885Y-67289525D01*
X103768822Y-67135218D01*
X103965218Y-66938822D01*
X104119525Y-66707885D01*
X104225814Y-66451282D01*
X104280000Y-66178873D01*
X104280000Y-65901127D01*
X104225814Y-65628718D01*
X104119525Y-65372115D01*
X103965218Y-65141178D01*
X103768822Y-64944782D01*
X103537885Y-64790475D01*
X103281282Y-64684186D01*
X103008873Y-64630000D01*
X102731127Y-64630000D01*
X102458718Y-64684186D01*
X102202115Y-64790475D01*
X101971178Y-64944782D01*
X101774782Y-65141178D01*
X101620475Y-65372115D01*
X101600000Y-65421546D01*
X101579525Y-65372115D01*
X101425218Y-65141178D01*
X101228822Y-64944782D01*
X100997885Y-64790475D01*
X100741282Y-64684186D01*
X100468873Y-64630000D01*
X100191127Y-64630000D01*
X99918718Y-64684186D01*
X99662115Y-64790475D01*
X99431178Y-64944782D01*
X99234782Y-65141178D01*
X99159474Y-65253884D01*
X99135506Y-65174872D01*
X99053481Y-65021414D01*
X98943094Y-64886906D01*
X98808586Y-64776519D01*
X98655128Y-64694494D01*
X98488616Y-64643983D01*
X98315450Y-64626928D01*
X97264550Y-64626928D01*
X97091384Y-64643983D01*
X96924872Y-64694494D01*
X96771414Y-64776519D01*
X96636906Y-64886906D01*
X96526519Y-65021414D01*
X96444494Y-65174872D01*
X96393983Y-65341384D01*
X96376928Y-65514550D01*
X96376928Y-66565450D01*
X96393983Y-66738616D01*
X96444494Y-66905128D01*
X96526519Y-67058586D01*
X96636906Y-67193094D01*
X96771414Y-67303481D01*
X96924872Y-67385506D01*
X97046638Y-67422443D01*
X96994756Y-67605151D01*
X97790000Y-68400395D01*
X98585244Y-67605151D01*
X98533362Y-67422443D01*
X98655128Y-67385506D01*
X98808586Y-67303481D01*
X98943094Y-67193094D01*
X99053481Y-67058586D01*
X99135506Y-66905128D01*
X99159474Y-66826116D01*
X99234782Y-66938822D01*
X99431178Y-67135218D01*
X99662115Y-67289525D01*
X99711546Y-67310000D01*
X99662115Y-67330475D01*
X99431178Y-67484782D01*
X99234782Y-67681178D01*
X99080475Y-67912115D01*
X99061799Y-67957202D01*
X99006268Y-67853310D01*
X98764849Y-67784756D01*
X97969605Y-68580000D01*
X98764849Y-69375244D01*
X99006268Y-69306690D01*
X99058725Y-69195376D01*
X99080475Y-69247885D01*
X99234782Y-69478822D01*
X99431178Y-69675218D01*
X99502689Y-69723000D01*
X98537495Y-69723000D01*
X98585244Y-69554849D01*
X97790000Y-68759605D01*
X96994756Y-69554849D01*
X97042505Y-69723000D01*
X76947495Y-69723000D01*
X76995244Y-69554849D01*
X76200000Y-68759605D01*
X75404756Y-69554849D01*
X75452505Y-69723000D01*
X74487311Y-69723000D01*
X74558822Y-69675218D01*
X74755218Y-69478822D01*
X74909525Y-69247885D01*
X74928201Y-69202798D01*
X74983732Y-69306690D01*
X75225151Y-69375244D01*
X76020395Y-68580000D01*
X76379605Y-68580000D01*
X77174849Y-69375244D01*
X77416268Y-69306690D01*
X77534668Y-69055444D01*
X77601778Y-68785929D01*
X77608193Y-68651502D01*
X96374982Y-68651502D01*
X96416121Y-68926184D01*
X96510057Y-69187562D01*
X96573732Y-69306690D01*
X96815151Y-69375244D01*
X97610395Y-68580000D01*
X96815151Y-67784756D01*
X96573732Y-67853310D01*
X96455332Y-68104556D01*
X96388222Y-68374071D01*
X96374982Y-68651502D01*
X77608193Y-68651502D01*
X77615018Y-68508498D01*
X77573879Y-68233816D01*
X77479943Y-67972438D01*
X77416268Y-67853310D01*
X77174849Y-67784756D01*
X76379605Y-68580000D01*
X76020395Y-68580000D01*
X75225151Y-67784756D01*
X74983732Y-67853310D01*
X74931275Y-67964624D01*
X74909525Y-67912115D01*
X74755218Y-67681178D01*
X74558822Y-67484782D01*
X74327885Y-67330475D01*
X74278454Y-67310000D01*
X74327885Y-67289525D01*
X74558822Y-67135218D01*
X74755218Y-66938822D01*
X74909525Y-66707885D01*
X74930000Y-66658454D01*
X74950475Y-66707885D01*
X75104782Y-66938822D01*
X75301178Y-67135218D01*
X75532115Y-67289525D01*
X75577202Y-67308201D01*
X75473310Y-67363732D01*
X75404756Y-67605151D01*
X76200000Y-68400395D01*
X76995244Y-67605151D01*
X76926690Y-67363732D01*
X76815376Y-67311275D01*
X76867885Y-67289525D01*
X77098822Y-67135218D01*
X77295218Y-66938822D01*
X77449525Y-66707885D01*
X77555814Y-66451282D01*
X77610000Y-66178873D01*
X77610000Y-65901127D01*
X77555814Y-65628718D01*
X77449525Y-65372115D01*
X77295218Y-65141178D01*
X77098822Y-64944782D01*
X76867885Y-64790475D01*
X76611282Y-64684186D01*
X76338873Y-64630000D01*
X76061127Y-64630000D01*
X75788718Y-64684186D01*
X75532115Y-64790475D01*
X75301178Y-64944782D01*
X75104782Y-65141178D01*
X74950475Y-65372115D01*
X74930000Y-65421546D01*
X74909525Y-65372115D01*
X74755218Y-65141178D01*
X74558822Y-64944782D01*
X74327885Y-64790475D01*
X74071282Y-64684186D01*
X73798873Y-64630000D01*
X73521127Y-64630000D01*
X73248718Y-64684186D01*
X72992115Y-64790475D01*
X72761178Y-64944782D01*
X72564782Y-65141178D01*
X72489474Y-65253884D01*
X72465506Y-65174872D01*
X72383481Y-65021414D01*
X72273094Y-64886906D01*
X72138586Y-64776519D01*
X71985128Y-64694494D01*
X71818616Y-64643983D01*
X71645450Y-64626928D01*
X70594550Y-64626928D01*
X70421384Y-64643983D01*
X70254872Y-64694494D01*
X70101414Y-64776519D01*
X69966906Y-64886906D01*
X69856519Y-65021414D01*
X69774494Y-65174872D01*
X69723983Y-65341384D01*
X69706928Y-65514550D01*
X69706928Y-66565450D01*
X69723983Y-66738616D01*
X69774494Y-66905128D01*
X69856519Y-67058586D01*
X69966906Y-67193094D01*
X70101414Y-67303481D01*
X70254872Y-67385506D01*
X70376638Y-67422443D01*
X70324756Y-67605151D01*
X71120000Y-68400395D01*
X71915244Y-67605151D01*
X71863362Y-67422443D01*
X71985128Y-67385506D01*
X72138586Y-67303481D01*
X72273094Y-67193094D01*
X72383481Y-67058586D01*
X72465506Y-66905128D01*
X72489474Y-66826116D01*
X72564782Y-66938822D01*
X72761178Y-67135218D01*
X72992115Y-67289525D01*
X73041546Y-67310000D01*
X72992115Y-67330475D01*
X72761178Y-67484782D01*
X72564782Y-67681178D01*
X72410475Y-67912115D01*
X72391799Y-67957202D01*
X72336268Y-67853310D01*
X72094849Y-67784756D01*
X71299605Y-68580000D01*
X72094849Y-69375244D01*
X72336268Y-69306690D01*
X72388725Y-69195376D01*
X72410475Y-69247885D01*
X72564782Y-69478822D01*
X72761178Y-69675218D01*
X72832689Y-69723000D01*
X71867495Y-69723000D01*
X71915244Y-69554849D01*
X71120000Y-68759605D01*
X70324756Y-69554849D01*
X70372505Y-69723000D01*
X66167000Y-69723000D01*
X66167000Y-68651502D01*
X69704982Y-68651502D01*
X69746121Y-68926184D01*
X69840057Y-69187562D01*
X69903732Y-69306690D01*
X70145151Y-69375244D01*
X70940395Y-68580000D01*
X70145151Y-67784756D01*
X69903732Y-67853310D01*
X69785332Y-68104556D01*
X69718222Y-68374071D01*
X69704982Y-68651502D01*
X66167000Y-68651502D01*
X66167000Y-63627000D01*
X231013000Y-63627000D01*
X231013000Y-69723000D01*
G37*
%TD.AperFunction*%
%TD*%
D15*
%TO.N,+12P*%
X70324756Y-136185151D02*
X71120000Y-136980395D01*
X71915244Y-136185151D01*
X71867495Y-136017000D01*
X72832689Y-136017000D01*
X72761178Y-136064782D01*
X72564782Y-136261178D01*
X72410475Y-136492115D01*
X72391799Y-136537202D01*
X72336268Y-136433310D01*
X72094849Y-136364756D01*
X71299605Y-137160000D01*
X72094849Y-137955244D01*
X72336268Y-137886690D01*
X72388725Y-137775376D01*
X72410475Y-137827885D01*
X72564782Y-138058822D01*
X72761178Y-138255218D01*
X72832689Y-138303000D01*
X71867495Y-138303000D01*
X71915244Y-138134849D01*
X71120000Y-137339605D01*
X70324756Y-138134849D01*
X70372505Y-138303000D01*
X66167000Y-138303000D01*
X66167000Y-137231502D01*
X69704982Y-137231502D01*
X69746121Y-137506184D01*
X69840057Y-137767562D01*
X69903732Y-137886690D01*
X70145151Y-137955244D01*
X70940395Y-137160000D01*
X70145151Y-136364756D01*
X69903732Y-136433310D01*
X69785332Y-136684556D01*
X69718222Y-136954071D01*
X69704982Y-137231502D01*
X66167000Y-137231502D01*
X66167000Y-136017000D01*
X70372505Y-136017000D01*
X70324756Y-136185151D01*
%TA.AperFunction,Conductor*%
D16*
G36*
X70324756Y-136185151D02*
G01*
X71120000Y-136980395D01*
X71915244Y-136185151D01*
X71867495Y-136017000D01*
X72832689Y-136017000D01*
X72761178Y-136064782D01*
X72564782Y-136261178D01*
X72410475Y-136492115D01*
X72391799Y-136537202D01*
X72336268Y-136433310D01*
X72094849Y-136364756D01*
X71299605Y-137160000D01*
X72094849Y-137955244D01*
X72336268Y-137886690D01*
X72388725Y-137775376D01*
X72410475Y-137827885D01*
X72564782Y-138058822D01*
X72761178Y-138255218D01*
X72832689Y-138303000D01*
X71867495Y-138303000D01*
X71915244Y-138134849D01*
X71120000Y-137339605D01*
X70324756Y-138134849D01*
X70372505Y-138303000D01*
X66167000Y-138303000D01*
X66167000Y-137231502D01*
X69704982Y-137231502D01*
X69746121Y-137506184D01*
X69840057Y-137767562D01*
X69903732Y-137886690D01*
X70145151Y-137955244D01*
X70940395Y-137160000D01*
X70145151Y-136364756D01*
X69903732Y-136433310D01*
X69785332Y-136684556D01*
X69718222Y-136954071D01*
X69704982Y-137231502D01*
X66167000Y-137231502D01*
X66167000Y-136017000D01*
X70372505Y-136017000D01*
X70324756Y-136185151D01*
G37*
%TD.AperFunction*%
D15*
X211294756Y-136185151D02*
X212090000Y-136980395D01*
X212885244Y-136185151D01*
X212837495Y-136017000D01*
X215773000Y-136017000D01*
X215773000Y-138303000D01*
X212837495Y-138303000D01*
X212885244Y-138134849D01*
X212090000Y-137339605D01*
X212075858Y-137353748D01*
X211896253Y-137174143D01*
X211910395Y-137160000D01*
X212269605Y-137160000D01*
X213064849Y-137955244D01*
X213306268Y-137886690D01*
X213424668Y-137635444D01*
X213491778Y-137365929D01*
X213505018Y-137088498D01*
X213463879Y-136813816D01*
X213369943Y-136552438D01*
X213306268Y-136433310D01*
X213064849Y-136364756D01*
X212269605Y-137160000D01*
X211910395Y-137160000D01*
X211115151Y-136364756D01*
X210873732Y-136433310D01*
X210821275Y-136544624D01*
X210799525Y-136492115D01*
X210645218Y-136261178D01*
X210448822Y-136064782D01*
X210377311Y-136017000D01*
X211342505Y-136017000D01*
X211294756Y-136185151D01*
%TA.AperFunction,Conductor*%
D16*
G36*
X211294756Y-136185151D02*
G01*
X212090000Y-136980395D01*
X212885244Y-136185151D01*
X212837495Y-136017000D01*
X215773000Y-136017000D01*
X215773000Y-138303000D01*
X212837495Y-138303000D01*
X212885244Y-138134849D01*
X212090000Y-137339605D01*
X212075858Y-137353748D01*
X211896253Y-137174143D01*
X211910395Y-137160000D01*
X212269605Y-137160000D01*
X213064849Y-137955244D01*
X213306268Y-137886690D01*
X213424668Y-137635444D01*
X213491778Y-137365929D01*
X213505018Y-137088498D01*
X213463879Y-136813816D01*
X213369943Y-136552438D01*
X213306268Y-136433310D01*
X213064849Y-136364756D01*
X212269605Y-137160000D01*
X211910395Y-137160000D01*
X211115151Y-136364756D01*
X210873732Y-136433310D01*
X210821275Y-136544624D01*
X210799525Y-136492115D01*
X210645218Y-136261178D01*
X210448822Y-136064782D01*
X210377311Y-136017000D01*
X211342505Y-136017000D01*
X211294756Y-136185151D01*
G37*
%TD.AperFunction*%
D15*
X75404756Y-136185151D02*
X76200000Y-136980395D01*
X76995244Y-136185151D01*
X76947495Y-136017000D01*
X81376306Y-136017000D01*
X81455820Y-136059502D01*
X81575518Y-136095812D01*
X81700000Y-136108072D01*
X83400000Y-136108072D01*
X83524482Y-136095812D01*
X83644180Y-136059502D01*
X83723694Y-136017000D01*
X84582165Y-136017000D01*
X84656842Y-136047932D01*
X84943740Y-136105000D01*
X85236260Y-136105000D01*
X85523158Y-136047932D01*
X85597835Y-136017000D01*
X97042505Y-136017000D01*
X96994756Y-136185151D01*
X97790000Y-136980395D01*
X98585244Y-136185151D01*
X98537495Y-136017000D01*
X99502689Y-136017000D01*
X99431178Y-136064782D01*
X99234782Y-136261178D01*
X99080475Y-136492115D01*
X99061799Y-136537202D01*
X99006268Y-136433310D01*
X98764849Y-136364756D01*
X97969605Y-137160000D01*
X97983748Y-137174143D01*
X97804143Y-137353748D01*
X97790000Y-137339605D01*
X97775858Y-137353748D01*
X97596253Y-137174143D01*
X97610395Y-137160000D01*
X96815151Y-136364756D01*
X96573732Y-136433310D01*
X96455332Y-136684556D01*
X96388222Y-136954071D01*
X96374982Y-137231502D01*
X96416121Y-137506184D01*
X96474994Y-137670000D01*
X77518383Y-137670000D01*
X77534668Y-137635444D01*
X77601778Y-137365929D01*
X77615018Y-137088498D01*
X77573879Y-136813816D01*
X77479943Y-136552438D01*
X77416268Y-136433310D01*
X77174849Y-136364756D01*
X76379605Y-137160000D01*
X76393748Y-137174143D01*
X76214143Y-137353748D01*
X76200000Y-137339605D01*
X75404756Y-138134849D01*
X75452505Y-138303000D01*
X74487311Y-138303000D01*
X74558822Y-138255218D01*
X74755218Y-138058822D01*
X74909525Y-137827885D01*
X74928201Y-137782798D01*
X74983732Y-137886690D01*
X75225151Y-137955244D01*
X76020395Y-137160000D01*
X75225151Y-136364756D01*
X74983732Y-136433310D01*
X74931275Y-136544624D01*
X74909525Y-136492115D01*
X74755218Y-136261178D01*
X74558822Y-136064782D01*
X74487311Y-136017000D01*
X75452505Y-136017000D01*
X75404756Y-136185151D01*
%TA.AperFunction,Conductor*%
D16*
G36*
X75404756Y-136185151D02*
G01*
X76200000Y-136980395D01*
X76995244Y-136185151D01*
X76947495Y-136017000D01*
X81376306Y-136017000D01*
X81455820Y-136059502D01*
X81575518Y-136095812D01*
X81700000Y-136108072D01*
X83400000Y-136108072D01*
X83524482Y-136095812D01*
X83644180Y-136059502D01*
X83723694Y-136017000D01*
X84582165Y-136017000D01*
X84656842Y-136047932D01*
X84943740Y-136105000D01*
X85236260Y-136105000D01*
X85523158Y-136047932D01*
X85597835Y-136017000D01*
X97042505Y-136017000D01*
X96994756Y-136185151D01*
X97790000Y-136980395D01*
X98585244Y-136185151D01*
X98537495Y-136017000D01*
X99502689Y-136017000D01*
X99431178Y-136064782D01*
X99234782Y-136261178D01*
X99080475Y-136492115D01*
X99061799Y-136537202D01*
X99006268Y-136433310D01*
X98764849Y-136364756D01*
X97969605Y-137160000D01*
X97983748Y-137174143D01*
X97804143Y-137353748D01*
X97790000Y-137339605D01*
X97775858Y-137353748D01*
X97596253Y-137174143D01*
X97610395Y-137160000D01*
X96815151Y-136364756D01*
X96573732Y-136433310D01*
X96455332Y-136684556D01*
X96388222Y-136954071D01*
X96374982Y-137231502D01*
X96416121Y-137506184D01*
X96474994Y-137670000D01*
X77518383Y-137670000D01*
X77534668Y-137635444D01*
X77601778Y-137365929D01*
X77615018Y-137088498D01*
X77573879Y-136813816D01*
X77479943Y-136552438D01*
X77416268Y-136433310D01*
X77174849Y-136364756D01*
X76379605Y-137160000D01*
X76393748Y-137174143D01*
X76214143Y-137353748D01*
X76200000Y-137339605D01*
X75404756Y-138134849D01*
X75452505Y-138303000D01*
X74487311Y-138303000D01*
X74558822Y-138255218D01*
X74755218Y-138058822D01*
X74909525Y-137827885D01*
X74928201Y-137782798D01*
X74983732Y-137886690D01*
X75225151Y-137955244D01*
X76020395Y-137160000D01*
X75225151Y-136364756D01*
X74983732Y-136433310D01*
X74931275Y-136544624D01*
X74909525Y-136492115D01*
X74755218Y-136261178D01*
X74558822Y-136064782D01*
X74487311Y-136017000D01*
X75452505Y-136017000D01*
X75404756Y-136185151D01*
G37*
%TD.AperFunction*%
D15*
X102074756Y-136185151D02*
X102870000Y-136980395D01*
X103665244Y-136185151D01*
X103617495Y-136017000D01*
X108046306Y-136017000D01*
X108125820Y-136059502D01*
X108245518Y-136095812D01*
X108370000Y-136108072D01*
X110070000Y-136108072D01*
X110194482Y-136095812D01*
X110314180Y-136059502D01*
X110393694Y-136017000D01*
X111252165Y-136017000D01*
X111326842Y-136047932D01*
X111613740Y-136105000D01*
X111906260Y-136105000D01*
X112193158Y-136047932D01*
X112267835Y-136017000D01*
X123712505Y-136017000D01*
X123664756Y-136185151D01*
X124460000Y-136980395D01*
X125255244Y-136185151D01*
X125207495Y-136017000D01*
X126172689Y-136017000D01*
X126101178Y-136064782D01*
X125904782Y-136261178D01*
X125750475Y-136492115D01*
X125731799Y-136537202D01*
X125676268Y-136433310D01*
X125434849Y-136364756D01*
X124639605Y-137160000D01*
X124653748Y-137174143D01*
X124474143Y-137353748D01*
X124460000Y-137339605D01*
X124445858Y-137353748D01*
X124266253Y-137174143D01*
X124280395Y-137160000D01*
X123485151Y-136364756D01*
X123243732Y-136433310D01*
X123125332Y-136684556D01*
X123058222Y-136954071D01*
X123044982Y-137231502D01*
X123086121Y-137506184D01*
X123144994Y-137670000D01*
X104188383Y-137670000D01*
X104204668Y-137635444D01*
X104271778Y-137365929D01*
X104285018Y-137088498D01*
X104243879Y-136813816D01*
X104149943Y-136552438D01*
X104086268Y-136433310D01*
X103844849Y-136364756D01*
X103049605Y-137160000D01*
X103063748Y-137174143D01*
X102884143Y-137353748D01*
X102870000Y-137339605D01*
X102855858Y-137353748D01*
X102676253Y-137174143D01*
X102690395Y-137160000D01*
X101895151Y-136364756D01*
X101653732Y-136433310D01*
X101601275Y-136544624D01*
X101579525Y-136492115D01*
X101425218Y-136261178D01*
X101228822Y-136064782D01*
X101157311Y-136017000D01*
X102122505Y-136017000D01*
X102074756Y-136185151D01*
%TA.AperFunction,Conductor*%
D16*
G36*
X102074756Y-136185151D02*
G01*
X102870000Y-136980395D01*
X103665244Y-136185151D01*
X103617495Y-136017000D01*
X108046306Y-136017000D01*
X108125820Y-136059502D01*
X108245518Y-136095812D01*
X108370000Y-136108072D01*
X110070000Y-136108072D01*
X110194482Y-136095812D01*
X110314180Y-136059502D01*
X110393694Y-136017000D01*
X111252165Y-136017000D01*
X111326842Y-136047932D01*
X111613740Y-136105000D01*
X111906260Y-136105000D01*
X112193158Y-136047932D01*
X112267835Y-136017000D01*
X123712505Y-136017000D01*
X123664756Y-136185151D01*
X124460000Y-136980395D01*
X125255244Y-136185151D01*
X125207495Y-136017000D01*
X126172689Y-136017000D01*
X126101178Y-136064782D01*
X125904782Y-136261178D01*
X125750475Y-136492115D01*
X125731799Y-136537202D01*
X125676268Y-136433310D01*
X125434849Y-136364756D01*
X124639605Y-137160000D01*
X124653748Y-137174143D01*
X124474143Y-137353748D01*
X124460000Y-137339605D01*
X124445858Y-137353748D01*
X124266253Y-137174143D01*
X124280395Y-137160000D01*
X123485151Y-136364756D01*
X123243732Y-136433310D01*
X123125332Y-136684556D01*
X123058222Y-136954071D01*
X123044982Y-137231502D01*
X123086121Y-137506184D01*
X123144994Y-137670000D01*
X104188383Y-137670000D01*
X104204668Y-137635444D01*
X104271778Y-137365929D01*
X104285018Y-137088498D01*
X104243879Y-136813816D01*
X104149943Y-136552438D01*
X104086268Y-136433310D01*
X103844849Y-136364756D01*
X103049605Y-137160000D01*
X103063748Y-137174143D01*
X102884143Y-137353748D01*
X102870000Y-137339605D01*
X102855858Y-137353748D01*
X102676253Y-137174143D01*
X102690395Y-137160000D01*
X101895151Y-136364756D01*
X101653732Y-136433310D01*
X101601275Y-136544624D01*
X101579525Y-136492115D01*
X101425218Y-136261178D01*
X101228822Y-136064782D01*
X101157311Y-136017000D01*
X102122505Y-136017000D01*
X102074756Y-136185151D01*
G37*
%TD.AperFunction*%
D15*
X155414756Y-136185151D02*
X156210000Y-136980395D01*
X157005244Y-136185151D01*
X156957495Y-136017000D01*
X161386306Y-136017000D01*
X161465820Y-136059502D01*
X161585518Y-136095812D01*
X161710000Y-136108072D01*
X163410000Y-136108072D01*
X163534482Y-136095812D01*
X163654180Y-136059502D01*
X163733694Y-136017000D01*
X164592165Y-136017000D01*
X164666842Y-136047932D01*
X164953740Y-136105000D01*
X165246260Y-136105000D01*
X165533158Y-136047932D01*
X165607835Y-136017000D01*
X178322505Y-136017000D01*
X178274756Y-136185151D01*
X179070000Y-136980395D01*
X179865244Y-136185151D01*
X179817495Y-136017000D01*
X180782689Y-136017000D01*
X180711178Y-136064782D01*
X180514782Y-136261178D01*
X180360475Y-136492115D01*
X180341799Y-136537202D01*
X180286268Y-136433310D01*
X180044849Y-136364756D01*
X179249605Y-137160000D01*
X179263748Y-137174143D01*
X179084143Y-137353748D01*
X179070000Y-137339605D01*
X179055858Y-137353748D01*
X178876253Y-137174143D01*
X178890395Y-137160000D01*
X178095151Y-136364756D01*
X177853732Y-136433310D01*
X177735332Y-136684556D01*
X177668222Y-136954071D01*
X177654982Y-137231502D01*
X177696121Y-137506184D01*
X177754994Y-137670000D01*
X157528383Y-137670000D01*
X157544668Y-137635444D01*
X157611778Y-137365929D01*
X157625018Y-137088498D01*
X157583879Y-136813816D01*
X157489943Y-136552438D01*
X157426268Y-136433310D01*
X157184849Y-136364756D01*
X156389605Y-137160000D01*
X156403748Y-137174143D01*
X156224143Y-137353748D01*
X156210000Y-137339605D01*
X156195858Y-137353748D01*
X156016253Y-137174143D01*
X156030395Y-137160000D01*
X155235151Y-136364756D01*
X154993732Y-136433310D01*
X154941275Y-136544624D01*
X154919525Y-136492115D01*
X154765218Y-136261178D01*
X154568822Y-136064782D01*
X154497311Y-136017000D01*
X155462505Y-136017000D01*
X155414756Y-136185151D01*
%TA.AperFunction,Conductor*%
D16*
G36*
X155414756Y-136185151D02*
G01*
X156210000Y-136980395D01*
X157005244Y-136185151D01*
X156957495Y-136017000D01*
X161386306Y-136017000D01*
X161465820Y-136059502D01*
X161585518Y-136095812D01*
X161710000Y-136108072D01*
X163410000Y-136108072D01*
X163534482Y-136095812D01*
X163654180Y-136059502D01*
X163733694Y-136017000D01*
X164592165Y-136017000D01*
X164666842Y-136047932D01*
X164953740Y-136105000D01*
X165246260Y-136105000D01*
X165533158Y-136047932D01*
X165607835Y-136017000D01*
X178322505Y-136017000D01*
X178274756Y-136185151D01*
X179070000Y-136980395D01*
X179865244Y-136185151D01*
X179817495Y-136017000D01*
X180782689Y-136017000D01*
X180711178Y-136064782D01*
X180514782Y-136261178D01*
X180360475Y-136492115D01*
X180341799Y-136537202D01*
X180286268Y-136433310D01*
X180044849Y-136364756D01*
X179249605Y-137160000D01*
X179263748Y-137174143D01*
X179084143Y-137353748D01*
X179070000Y-137339605D01*
X179055858Y-137353748D01*
X178876253Y-137174143D01*
X178890395Y-137160000D01*
X178095151Y-136364756D01*
X177853732Y-136433310D01*
X177735332Y-136684556D01*
X177668222Y-136954071D01*
X177654982Y-137231502D01*
X177696121Y-137506184D01*
X177754994Y-137670000D01*
X157528383Y-137670000D01*
X157544668Y-137635444D01*
X157611778Y-137365929D01*
X157625018Y-137088498D01*
X157583879Y-136813816D01*
X157489943Y-136552438D01*
X157426268Y-136433310D01*
X157184849Y-136364756D01*
X156389605Y-137160000D01*
X156403748Y-137174143D01*
X156224143Y-137353748D01*
X156210000Y-137339605D01*
X156195858Y-137353748D01*
X156016253Y-137174143D01*
X156030395Y-137160000D01*
X155235151Y-136364756D01*
X154993732Y-136433310D01*
X154941275Y-136544624D01*
X154919525Y-136492115D01*
X154765218Y-136261178D01*
X154568822Y-136064782D01*
X154497311Y-136017000D01*
X155462505Y-136017000D01*
X155414756Y-136185151D01*
G37*
%TD.AperFunction*%
D15*
X183354756Y-136185151D02*
X184150000Y-136980395D01*
X184945244Y-136185151D01*
X184897495Y-136017000D01*
X189326306Y-136017000D01*
X189405820Y-136059502D01*
X189525518Y-136095812D01*
X189650000Y-136108072D01*
X191350000Y-136108072D01*
X191474482Y-136095812D01*
X191594180Y-136059502D01*
X191673694Y-136017000D01*
X192532165Y-136017000D01*
X192606842Y-136047932D01*
X192893740Y-136105000D01*
X193186260Y-136105000D01*
X193473158Y-136047932D01*
X193547835Y-136017000D01*
X206262505Y-136017000D01*
X206214756Y-136185151D01*
X207010000Y-136980395D01*
X207805244Y-136185151D01*
X207757495Y-136017000D01*
X208722689Y-136017000D01*
X208651178Y-136064782D01*
X208454782Y-136261178D01*
X208300475Y-136492115D01*
X208281799Y-136537202D01*
X208226268Y-136433310D01*
X207984849Y-136364756D01*
X207189605Y-137160000D01*
X207203748Y-137174143D01*
X207024143Y-137353748D01*
X207010000Y-137339605D01*
X206995858Y-137353748D01*
X206816253Y-137174143D01*
X206830395Y-137160000D01*
X206035151Y-136364756D01*
X205793732Y-136433310D01*
X205675332Y-136684556D01*
X205608222Y-136954071D01*
X205594982Y-137231502D01*
X205636121Y-137506184D01*
X205694994Y-137670000D01*
X185468383Y-137670000D01*
X185484668Y-137635444D01*
X185551778Y-137365929D01*
X185565018Y-137088498D01*
X185523879Y-136813816D01*
X185429943Y-136552438D01*
X185366268Y-136433310D01*
X185124849Y-136364756D01*
X184329605Y-137160000D01*
X184343748Y-137174143D01*
X184164143Y-137353748D01*
X184150000Y-137339605D01*
X184135858Y-137353748D01*
X183956253Y-137174143D01*
X183970395Y-137160000D01*
X183175151Y-136364756D01*
X182933732Y-136433310D01*
X182881275Y-136544624D01*
X182859525Y-136492115D01*
X182705218Y-136261178D01*
X182508822Y-136064782D01*
X182437311Y-136017000D01*
X183402505Y-136017000D01*
X183354756Y-136185151D01*
%TA.AperFunction,Conductor*%
D16*
G36*
X183354756Y-136185151D02*
G01*
X184150000Y-136980395D01*
X184945244Y-136185151D01*
X184897495Y-136017000D01*
X189326306Y-136017000D01*
X189405820Y-136059502D01*
X189525518Y-136095812D01*
X189650000Y-136108072D01*
X191350000Y-136108072D01*
X191474482Y-136095812D01*
X191594180Y-136059502D01*
X191673694Y-136017000D01*
X192532165Y-136017000D01*
X192606842Y-136047932D01*
X192893740Y-136105000D01*
X193186260Y-136105000D01*
X193473158Y-136047932D01*
X193547835Y-136017000D01*
X206262505Y-136017000D01*
X206214756Y-136185151D01*
X207010000Y-136980395D01*
X207805244Y-136185151D01*
X207757495Y-136017000D01*
X208722689Y-136017000D01*
X208651178Y-136064782D01*
X208454782Y-136261178D01*
X208300475Y-136492115D01*
X208281799Y-136537202D01*
X208226268Y-136433310D01*
X207984849Y-136364756D01*
X207189605Y-137160000D01*
X207203748Y-137174143D01*
X207024143Y-137353748D01*
X207010000Y-137339605D01*
X206995858Y-137353748D01*
X206816253Y-137174143D01*
X206830395Y-137160000D01*
X206035151Y-136364756D01*
X205793732Y-136433310D01*
X205675332Y-136684556D01*
X205608222Y-136954071D01*
X205594982Y-137231502D01*
X205636121Y-137506184D01*
X205694994Y-137670000D01*
X185468383Y-137670000D01*
X185484668Y-137635444D01*
X185551778Y-137365929D01*
X185565018Y-137088498D01*
X185523879Y-136813816D01*
X185429943Y-136552438D01*
X185366268Y-136433310D01*
X185124849Y-136364756D01*
X184329605Y-137160000D01*
X184343748Y-137174143D01*
X184164143Y-137353748D01*
X184150000Y-137339605D01*
X184135858Y-137353748D01*
X183956253Y-137174143D01*
X183970395Y-137160000D01*
X183175151Y-136364756D01*
X182933732Y-136433310D01*
X182881275Y-136544624D01*
X182859525Y-136492115D01*
X182705218Y-136261178D01*
X182508822Y-136064782D01*
X182437311Y-136017000D01*
X183402505Y-136017000D01*
X183354756Y-136185151D01*
G37*
%TD.AperFunction*%
D15*
X128744756Y-136185151D02*
X129540000Y-136980395D01*
X130335244Y-136185151D01*
X130287495Y-136017000D01*
X134716306Y-136017000D01*
X134795820Y-136059502D01*
X134915518Y-136095812D01*
X135040000Y-136108072D01*
X136740000Y-136108072D01*
X136864482Y-136095812D01*
X136984180Y-136059502D01*
X137063694Y-136017000D01*
X137922165Y-136017000D01*
X137996842Y-136047932D01*
X138283740Y-136105000D01*
X138576260Y-136105000D01*
X138863158Y-136047932D01*
X138937835Y-136017000D01*
X150382505Y-136017000D01*
X150334756Y-136185151D01*
X151130000Y-136980395D01*
X151925244Y-136185151D01*
X151877495Y-136017000D01*
X152842689Y-136017000D01*
X152771178Y-136064782D01*
X152574782Y-136261178D01*
X152420475Y-136492115D01*
X152401799Y-136537202D01*
X152346268Y-136433310D01*
X152104849Y-136364756D01*
X151309605Y-137160000D01*
X151323748Y-137174143D01*
X151144143Y-137353748D01*
X151130000Y-137339605D01*
X151115858Y-137353748D01*
X150936253Y-137174143D01*
X150950395Y-137160000D01*
X150155151Y-136364756D01*
X149913732Y-136433310D01*
X149795332Y-136684556D01*
X149728222Y-136954071D01*
X149714982Y-137231502D01*
X149756121Y-137506184D01*
X149814994Y-137670000D01*
X130858383Y-137670000D01*
X130874668Y-137635444D01*
X130941778Y-137365929D01*
X130955018Y-137088498D01*
X130913879Y-136813816D01*
X130819943Y-136552438D01*
X130756268Y-136433310D01*
X130514849Y-136364756D01*
X129719605Y-137160000D01*
X129733748Y-137174143D01*
X129554143Y-137353748D01*
X129540000Y-137339605D01*
X129525858Y-137353748D01*
X129346253Y-137174143D01*
X129360395Y-137160000D01*
X128565151Y-136364756D01*
X128323732Y-136433310D01*
X128271275Y-136544624D01*
X128249525Y-136492115D01*
X128095218Y-136261178D01*
X127898822Y-136064782D01*
X127827311Y-136017000D01*
X128792505Y-136017000D01*
X128744756Y-136185151D01*
%TA.AperFunction,Conductor*%
D16*
G36*
X128744756Y-136185151D02*
G01*
X129540000Y-136980395D01*
X130335244Y-136185151D01*
X130287495Y-136017000D01*
X134716306Y-136017000D01*
X134795820Y-136059502D01*
X134915518Y-136095812D01*
X135040000Y-136108072D01*
X136740000Y-136108072D01*
X136864482Y-136095812D01*
X136984180Y-136059502D01*
X137063694Y-136017000D01*
X137922165Y-136017000D01*
X137996842Y-136047932D01*
X138283740Y-136105000D01*
X138576260Y-136105000D01*
X138863158Y-136047932D01*
X138937835Y-136017000D01*
X150382505Y-136017000D01*
X150334756Y-136185151D01*
X151130000Y-136980395D01*
X151925244Y-136185151D01*
X151877495Y-136017000D01*
X152842689Y-136017000D01*
X152771178Y-136064782D01*
X152574782Y-136261178D01*
X152420475Y-136492115D01*
X152401799Y-136537202D01*
X152346268Y-136433310D01*
X152104849Y-136364756D01*
X151309605Y-137160000D01*
X151323748Y-137174143D01*
X151144143Y-137353748D01*
X151130000Y-137339605D01*
X151115858Y-137353748D01*
X150936253Y-137174143D01*
X150950395Y-137160000D01*
X150155151Y-136364756D01*
X149913732Y-136433310D01*
X149795332Y-136684556D01*
X149728222Y-136954071D01*
X149714982Y-137231502D01*
X149756121Y-137506184D01*
X149814994Y-137670000D01*
X130858383Y-137670000D01*
X130874668Y-137635444D01*
X130941778Y-137365929D01*
X130955018Y-137088498D01*
X130913879Y-136813816D01*
X130819943Y-136552438D01*
X130756268Y-136433310D01*
X130514849Y-136364756D01*
X129719605Y-137160000D01*
X129733748Y-137174143D01*
X129554143Y-137353748D01*
X129540000Y-137339605D01*
X129525858Y-137353748D01*
X129346253Y-137174143D01*
X129360395Y-137160000D01*
X128565151Y-136364756D01*
X128323732Y-136433310D01*
X128271275Y-136544624D01*
X128249525Y-136492115D01*
X128095218Y-136261178D01*
X127898822Y-136064782D01*
X127827311Y-136017000D01*
X128792505Y-136017000D01*
X128744756Y-136185151D01*
G37*
%TD.AperFunction*%
%TD*%
D15*
%TO.N,+12P*%
X224495498Y-106855820D02*
X224459188Y-106975518D01*
X224446928Y-107100000D01*
X224450000Y-107664250D01*
X224608750Y-107823000D01*
X225933000Y-107823000D01*
X225933000Y-107803000D01*
X226187000Y-107803000D01*
X226187000Y-107823000D01*
X226207000Y-107823000D01*
X226207000Y-108077000D01*
X226187000Y-108077000D01*
X226187000Y-109276250D01*
X226345750Y-109435000D01*
X227035000Y-109438072D01*
X227159482Y-109425812D01*
X227203000Y-109412611D01*
X227203000Y-110363000D01*
X226060000Y-110363000D01*
X226035224Y-110365440D01*
X226011399Y-110372667D01*
X225989443Y-110384403D01*
X225970197Y-110400197D01*
X225954403Y-110419443D01*
X225942667Y-110441399D01*
X225935440Y-110465224D01*
X225933000Y-110490000D01*
X225933000Y-138303000D01*
X216027000Y-138303000D01*
X216027000Y-136017000D01*
X217266306Y-136017000D01*
X217345820Y-136059502D01*
X217465518Y-136095812D01*
X217590000Y-136108072D01*
X219290000Y-136108072D01*
X219414482Y-136095812D01*
X219534180Y-136059502D01*
X219613694Y-136017000D01*
X220472165Y-136017000D01*
X220546842Y-136047932D01*
X220833740Y-136105000D01*
X221126260Y-136105000D01*
X221413158Y-136047932D01*
X221487835Y-136017000D01*
X223520000Y-136017000D01*
X223544776Y-136014560D01*
X223568601Y-136007333D01*
X223590557Y-135995597D01*
X223609803Y-135979803D01*
X223625597Y-135960557D01*
X223637333Y-135938601D01*
X223644560Y-135914776D01*
X223647000Y-135890000D01*
X223647000Y-108800000D01*
X224446928Y-108800000D01*
X224459188Y-108924482D01*
X224495498Y-109044180D01*
X224554463Y-109154494D01*
X224633815Y-109251185D01*
X224730506Y-109330537D01*
X224840820Y-109389502D01*
X224960518Y-109425812D01*
X225085000Y-109438072D01*
X225774250Y-109435000D01*
X225933000Y-109276250D01*
X225933000Y-108077000D01*
X224608750Y-108077000D01*
X224450000Y-108235750D01*
X224446928Y-108800000D01*
X223647000Y-108800000D01*
X223647000Y-106807000D01*
X224521593Y-106807000D01*
X224495498Y-106855820D01*
%TA.AperFunction,Conductor*%
D16*
G36*
X224495498Y-106855820D02*
G01*
X224459188Y-106975518D01*
X224446928Y-107100000D01*
X224450000Y-107664250D01*
X224608750Y-107823000D01*
X225933000Y-107823000D01*
X225933000Y-107803000D01*
X226187000Y-107803000D01*
X226187000Y-107823000D01*
X226207000Y-107823000D01*
X226207000Y-108077000D01*
X226187000Y-108077000D01*
X226187000Y-109276250D01*
X226345750Y-109435000D01*
X227035000Y-109438072D01*
X227159482Y-109425812D01*
X227203000Y-109412611D01*
X227203000Y-110363000D01*
X226060000Y-110363000D01*
X226035224Y-110365440D01*
X226011399Y-110372667D01*
X225989443Y-110384403D01*
X225970197Y-110400197D01*
X225954403Y-110419443D01*
X225942667Y-110441399D01*
X225935440Y-110465224D01*
X225933000Y-110490000D01*
X225933000Y-138303000D01*
X216027000Y-138303000D01*
X216027000Y-136017000D01*
X217266306Y-136017000D01*
X217345820Y-136059502D01*
X217465518Y-136095812D01*
X217590000Y-136108072D01*
X219290000Y-136108072D01*
X219414482Y-136095812D01*
X219534180Y-136059502D01*
X219613694Y-136017000D01*
X220472165Y-136017000D01*
X220546842Y-136047932D01*
X220833740Y-136105000D01*
X221126260Y-136105000D01*
X221413158Y-136047932D01*
X221487835Y-136017000D01*
X223520000Y-136017000D01*
X223544776Y-136014560D01*
X223568601Y-136007333D01*
X223590557Y-135995597D01*
X223609803Y-135979803D01*
X223625597Y-135960557D01*
X223637333Y-135938601D01*
X223644560Y-135914776D01*
X223647000Y-135890000D01*
X223647000Y-108800000D01*
X224446928Y-108800000D01*
X224459188Y-108924482D01*
X224495498Y-109044180D01*
X224554463Y-109154494D01*
X224633815Y-109251185D01*
X224730506Y-109330537D01*
X224840820Y-109389502D01*
X224960518Y-109425812D01*
X225085000Y-109438072D01*
X225774250Y-109435000D01*
X225933000Y-109276250D01*
X225933000Y-108077000D01*
X224608750Y-108077000D01*
X224450000Y-108235750D01*
X224446928Y-108800000D01*
X223647000Y-108800000D01*
X223647000Y-106807000D01*
X224521593Y-106807000D01*
X224495498Y-106855820D01*
G37*
%TD.AperFunction*%
%TD*%
M02*
