%TF.GenerationSoftware,KiCad,Pcbnew,(5.1.10)-1*%
%TF.CreationDate,2022-01-27T07:08:06+01:00*%
%TF.ProjectId,Backplane,4261636b-706c-4616-9e65-2e6b69636164,rev?*%
%TF.SameCoordinates,Original*%
%TF.FileFunction,Legend,Top*%
%TF.FilePolarity,Positive*%
%FSLAX46Y46*%
G04 Gerber Fmt 4.6, Leading zero omitted, Abs format (unit mm)*
G04 Created by KiCad (PCBNEW (5.1.10)-1) date 2022-01-27 07:08:06*
%MOMM*%
%LPD*%
G01*
G04 APERTURE LIST*
%ADD10C,0.120000*%
%ADD11C,0.150000*%
G04 APERTURE END LIST*
D10*
%TO.C,J13*%
X228670000Y-110860000D02*
X228670000Y-108360000D01*
X226170000Y-110860000D02*
X228670000Y-110860000D01*
X226870000Y-96340000D02*
X228370000Y-96340000D01*
X226870000Y-95340000D02*
X226870000Y-96340000D01*
X226870000Y-109560000D02*
X228370000Y-109560000D01*
X226870000Y-110560000D02*
X226870000Y-109560000D01*
X226060000Y-95840000D02*
X226060000Y-95340000D01*
X224850000Y-95840000D02*
X226060000Y-95840000D01*
X224850000Y-110060000D02*
X224850000Y-95840000D01*
X226060000Y-110060000D02*
X224850000Y-110060000D01*
X226060000Y-110560000D02*
X226060000Y-110060000D01*
X224350000Y-95340000D02*
X224350000Y-110560000D01*
X228370000Y-95340000D02*
X224350000Y-95340000D01*
X228370000Y-110560000D02*
X228370000Y-95340000D01*
X224350000Y-110560000D02*
X228370000Y-110560000D01*
%TO.C,J17*%
X177360000Y-147910000D02*
X177360000Y-62909000D01*
X182860000Y-147910000D02*
X177360000Y-147910000D01*
X182860000Y-146910000D02*
X182860000Y-147910000D01*
X185860000Y-146910000D02*
X182860000Y-146910000D01*
X185860000Y-63909000D02*
X185860000Y-146910000D01*
X182860000Y-63909000D02*
X185860000Y-63909000D01*
X182860000Y-62909000D02*
X182860000Y-63909000D01*
X177360000Y-62909000D02*
X182860000Y-62909000D01*
X175330000Y-66340000D02*
X176010000Y-66040000D01*
X175330000Y-65740000D02*
X175330000Y-66340000D01*
X176010000Y-66040000D02*
X175330000Y-65740000D01*
X176200000Y-153020000D02*
X176200000Y-57800000D01*
X187020000Y-153020000D02*
X176200000Y-153020000D01*
X187020000Y-57800000D02*
X187020000Y-153020000D01*
X176200000Y-57800000D02*
X187020000Y-57800000D01*
%TO.C,J14*%
X122750000Y-147910000D02*
X122750000Y-62909000D01*
X128250000Y-147910000D02*
X122750000Y-147910000D01*
X128250000Y-146910000D02*
X128250000Y-147910000D01*
X131250000Y-146910000D02*
X128250000Y-146910000D01*
X131250000Y-63909000D02*
X131250000Y-146910000D01*
X128250000Y-63909000D02*
X131250000Y-63909000D01*
X128250000Y-62909000D02*
X128250000Y-63909000D01*
X122750000Y-62909000D02*
X128250000Y-62909000D01*
X120720000Y-66340000D02*
X121400000Y-66040000D01*
X120720000Y-65740000D02*
X120720000Y-66340000D01*
X121400000Y-66040000D02*
X120720000Y-65740000D01*
X121590000Y-153020000D02*
X121590000Y-57800000D01*
X132410000Y-153020000D02*
X121590000Y-153020000D01*
X132410000Y-57800000D02*
X132410000Y-153020000D01*
X121590000Y-57800000D02*
X132410000Y-57800000D01*
%TO.C,J10*%
X205300000Y-147910000D02*
X205300000Y-62909000D01*
X210800000Y-147910000D02*
X205300000Y-147910000D01*
X210800000Y-146910000D02*
X210800000Y-147910000D01*
X213800000Y-146910000D02*
X210800000Y-146910000D01*
X213800000Y-63909000D02*
X213800000Y-146910000D01*
X210800000Y-63909000D02*
X213800000Y-63909000D01*
X210800000Y-62909000D02*
X210800000Y-63909000D01*
X205300000Y-62909000D02*
X210800000Y-62909000D01*
X203270000Y-66340000D02*
X203950000Y-66040000D01*
X203270000Y-65740000D02*
X203270000Y-66340000D01*
X203950000Y-66040000D02*
X203270000Y-65740000D01*
X204140000Y-153020000D02*
X204140000Y-57800000D01*
X214960000Y-153020000D02*
X204140000Y-153020000D01*
X214960000Y-57800000D02*
X214960000Y-153020000D01*
X204140000Y-57800000D02*
X214960000Y-57800000D01*
%TO.C,J7*%
X149420000Y-147910000D02*
X149420000Y-62909000D01*
X154920000Y-147910000D02*
X149420000Y-147910000D01*
X154920000Y-146910000D02*
X154920000Y-147910000D01*
X157920000Y-146910000D02*
X154920000Y-146910000D01*
X157920000Y-63909000D02*
X157920000Y-146910000D01*
X154920000Y-63909000D02*
X157920000Y-63909000D01*
X154920000Y-62909000D02*
X154920000Y-63909000D01*
X149420000Y-62909000D02*
X154920000Y-62909000D01*
X147390000Y-66340000D02*
X148070000Y-66040000D01*
X147390000Y-65740000D02*
X147390000Y-66340000D01*
X148070000Y-66040000D02*
X147390000Y-65740000D01*
X148260000Y-153020000D02*
X148260000Y-57800000D01*
X159080000Y-153020000D02*
X148260000Y-153020000D01*
X159080000Y-57800000D02*
X159080000Y-153020000D01*
X148260000Y-57800000D02*
X159080000Y-57800000D01*
%TO.C,J4*%
X96080000Y-147910000D02*
X96080000Y-62909000D01*
X101580000Y-147910000D02*
X96080000Y-147910000D01*
X101580000Y-146910000D02*
X101580000Y-147910000D01*
X104580000Y-146910000D02*
X101580000Y-146910000D01*
X104580000Y-63909000D02*
X104580000Y-146910000D01*
X101580000Y-63909000D02*
X104580000Y-63909000D01*
X101580000Y-62909000D02*
X101580000Y-63909000D01*
X96080000Y-62909000D02*
X101580000Y-62909000D01*
X94050000Y-66340000D02*
X94730000Y-66040000D01*
X94050000Y-65740000D02*
X94050000Y-66340000D01*
X94730000Y-66040000D02*
X94050000Y-65740000D01*
X94920000Y-153020000D02*
X94920000Y-57800000D01*
X105740000Y-153020000D02*
X94920000Y-153020000D01*
X105740000Y-57800000D02*
X105740000Y-153020000D01*
X94920000Y-57800000D02*
X105740000Y-57800000D01*
%TO.C,J1*%
X69410000Y-147910000D02*
X69410000Y-62909000D01*
X74910000Y-147910000D02*
X69410000Y-147910000D01*
X74910000Y-146910000D02*
X74910000Y-147910000D01*
X77910000Y-146910000D02*
X74910000Y-146910000D01*
X77910000Y-63909000D02*
X77910000Y-146910000D01*
X74910000Y-63909000D02*
X77910000Y-63909000D01*
X74910000Y-62909000D02*
X74910000Y-63909000D01*
X69410000Y-62909000D02*
X74910000Y-62909000D01*
X67380000Y-66340000D02*
X68060000Y-66040000D01*
X67380000Y-65740000D02*
X67380000Y-66340000D01*
X68060000Y-66040000D02*
X67380000Y-65740000D01*
X68250000Y-153020000D02*
X68250000Y-57800000D01*
X79070000Y-153020000D02*
X68250000Y-153020000D01*
X79070000Y-57800000D02*
X79070000Y-153020000D01*
X68250000Y-57800000D02*
X79070000Y-57800000D01*
%TO.C,J2*%
X81220000Y-91440000D02*
X81220000Y-90110000D01*
X81220000Y-90110000D02*
X82550000Y-90110000D01*
X83820000Y-90110000D02*
X86420000Y-90110000D01*
X86420000Y-92770000D02*
X86420000Y-90110000D01*
X83820000Y-92770000D02*
X86420000Y-92770000D01*
X83820000Y-92770000D02*
X83820000Y-90110000D01*
%TO.C,J3*%
X81220000Y-134620000D02*
X81220000Y-133290000D01*
X81220000Y-133290000D02*
X82550000Y-133290000D01*
X83820000Y-133290000D02*
X86420000Y-133290000D01*
X86420000Y-135950000D02*
X86420000Y-133290000D01*
X83820000Y-135950000D02*
X86420000Y-135950000D01*
X83820000Y-135950000D02*
X83820000Y-133290000D01*
%TO.C,J5*%
X110490000Y-92770000D02*
X110490000Y-90110000D01*
X110490000Y-92770000D02*
X113090000Y-92770000D01*
X113090000Y-92770000D02*
X113090000Y-90110000D01*
X110490000Y-90110000D02*
X113090000Y-90110000D01*
X107890000Y-90110000D02*
X109220000Y-90110000D01*
X107890000Y-91440000D02*
X107890000Y-90110000D01*
%TO.C,J6*%
X110490000Y-135950000D02*
X110490000Y-133290000D01*
X110490000Y-135950000D02*
X113090000Y-135950000D01*
X113090000Y-135950000D02*
X113090000Y-133290000D01*
X110490000Y-133290000D02*
X113090000Y-133290000D01*
X107890000Y-133290000D02*
X109220000Y-133290000D01*
X107890000Y-134620000D02*
X107890000Y-133290000D01*
%TO.C,J8*%
X163830000Y-92770000D02*
X163830000Y-90110000D01*
X163830000Y-92770000D02*
X166430000Y-92770000D01*
X166430000Y-92770000D02*
X166430000Y-90110000D01*
X163830000Y-90110000D02*
X166430000Y-90110000D01*
X161230000Y-90110000D02*
X162560000Y-90110000D01*
X161230000Y-91440000D02*
X161230000Y-90110000D01*
%TO.C,J9*%
X161230000Y-134620000D02*
X161230000Y-133290000D01*
X161230000Y-133290000D02*
X162560000Y-133290000D01*
X163830000Y-133290000D02*
X166430000Y-133290000D01*
X166430000Y-135950000D02*
X166430000Y-133290000D01*
X163830000Y-135950000D02*
X166430000Y-135950000D01*
X163830000Y-135950000D02*
X163830000Y-133290000D01*
%TO.C,J11*%
X217110000Y-91440000D02*
X217110000Y-90110000D01*
X217110000Y-90110000D02*
X218440000Y-90110000D01*
X219710000Y-90110000D02*
X222310000Y-90110000D01*
X222310000Y-92770000D02*
X222310000Y-90110000D01*
X219710000Y-92770000D02*
X222310000Y-92770000D01*
X219710000Y-92770000D02*
X219710000Y-90110000D01*
%TO.C,J12*%
X219710000Y-135950000D02*
X219710000Y-133290000D01*
X219710000Y-135950000D02*
X222310000Y-135950000D01*
X222310000Y-135950000D02*
X222310000Y-133290000D01*
X219710000Y-133290000D02*
X222310000Y-133290000D01*
X217110000Y-133290000D02*
X218440000Y-133290000D01*
X217110000Y-134620000D02*
X217110000Y-133290000D01*
%TO.C,J15*%
X134560000Y-91440000D02*
X134560000Y-90110000D01*
X134560000Y-90110000D02*
X135890000Y-90110000D01*
X137160000Y-90110000D02*
X139760000Y-90110000D01*
X139760000Y-92770000D02*
X139760000Y-90110000D01*
X137160000Y-92770000D02*
X139760000Y-92770000D01*
X137160000Y-92770000D02*
X137160000Y-90110000D01*
%TO.C,J16*%
X134560000Y-134620000D02*
X134560000Y-133290000D01*
X134560000Y-133290000D02*
X135890000Y-133290000D01*
X137160000Y-133290000D02*
X139760000Y-133290000D01*
X139760000Y-135950000D02*
X139760000Y-133290000D01*
X137160000Y-135950000D02*
X139760000Y-135950000D01*
X137160000Y-135950000D02*
X137160000Y-133290000D01*
%TO.C,J18*%
X191770000Y-92770000D02*
X191770000Y-90110000D01*
X191770000Y-92770000D02*
X194370000Y-92770000D01*
X194370000Y-92770000D02*
X194370000Y-90110000D01*
X191770000Y-90110000D02*
X194370000Y-90110000D01*
X189170000Y-90110000D02*
X190500000Y-90110000D01*
X189170000Y-91440000D02*
X189170000Y-90110000D01*
%TO.C,J19*%
X191770000Y-135950000D02*
X191770000Y-133290000D01*
X191770000Y-135950000D02*
X194370000Y-135950000D01*
X194370000Y-135950000D02*
X194370000Y-133290000D01*
X191770000Y-133290000D02*
X194370000Y-133290000D01*
X189170000Y-133290000D02*
X190500000Y-133290000D01*
X189170000Y-134620000D02*
X189170000Y-133290000D01*
%TO.C,J13*%
D11*
X222712380Y-103759523D02*
X223426666Y-103759523D01*
X223569523Y-103807142D01*
X223664761Y-103902380D01*
X223712380Y-104045238D01*
X223712380Y-104140476D01*
X223712380Y-102759523D02*
X223712380Y-103330952D01*
X223712380Y-103045238D02*
X222712380Y-103045238D01*
X222855238Y-103140476D01*
X222950476Y-103235714D01*
X222998095Y-103330952D01*
X222712380Y-102426190D02*
X222712380Y-101807142D01*
X223093333Y-102140476D01*
X223093333Y-101997619D01*
X223140952Y-101902380D01*
X223188571Y-101854761D01*
X223283809Y-101807142D01*
X223521904Y-101807142D01*
X223617142Y-101854761D01*
X223664761Y-101902380D01*
X223712380Y-101997619D01*
X223712380Y-102283333D01*
X223664761Y-102378571D01*
X223617142Y-102426190D01*
%TO.C,J17*%
X180800476Y-56362380D02*
X180800476Y-57076666D01*
X180752857Y-57219523D01*
X180657619Y-57314761D01*
X180514761Y-57362380D01*
X180419523Y-57362380D01*
X181800476Y-57362380D02*
X181229047Y-57362380D01*
X181514761Y-57362380D02*
X181514761Y-56362380D01*
X181419523Y-56505238D01*
X181324285Y-56600476D01*
X181229047Y-56648095D01*
X182133809Y-56362380D02*
X182800476Y-56362380D01*
X182371904Y-57362380D01*
%TO.C,J14*%
X126190476Y-56362380D02*
X126190476Y-57076666D01*
X126142857Y-57219523D01*
X126047619Y-57314761D01*
X125904761Y-57362380D01*
X125809523Y-57362380D01*
X127190476Y-57362380D02*
X126619047Y-57362380D01*
X126904761Y-57362380D02*
X126904761Y-56362380D01*
X126809523Y-56505238D01*
X126714285Y-56600476D01*
X126619047Y-56648095D01*
X128047619Y-56695714D02*
X128047619Y-57362380D01*
X127809523Y-56314761D02*
X127571428Y-57029047D01*
X128190476Y-57029047D01*
%TO.C,J10*%
X208740476Y-56362380D02*
X208740476Y-57076666D01*
X208692857Y-57219523D01*
X208597619Y-57314761D01*
X208454761Y-57362380D01*
X208359523Y-57362380D01*
X209740476Y-57362380D02*
X209169047Y-57362380D01*
X209454761Y-57362380D02*
X209454761Y-56362380D01*
X209359523Y-56505238D01*
X209264285Y-56600476D01*
X209169047Y-56648095D01*
X210359523Y-56362380D02*
X210454761Y-56362380D01*
X210550000Y-56410000D01*
X210597619Y-56457619D01*
X210645238Y-56552857D01*
X210692857Y-56743333D01*
X210692857Y-56981428D01*
X210645238Y-57171904D01*
X210597619Y-57267142D01*
X210550000Y-57314761D01*
X210454761Y-57362380D01*
X210359523Y-57362380D01*
X210264285Y-57314761D01*
X210216666Y-57267142D01*
X210169047Y-57171904D01*
X210121428Y-56981428D01*
X210121428Y-56743333D01*
X210169047Y-56552857D01*
X210216666Y-56457619D01*
X210264285Y-56410000D01*
X210359523Y-56362380D01*
%TO.C,J7*%
X153336666Y-56362380D02*
X153336666Y-57076666D01*
X153289047Y-57219523D01*
X153193809Y-57314761D01*
X153050952Y-57362380D01*
X152955714Y-57362380D01*
X153717619Y-56362380D02*
X154384285Y-56362380D01*
X153955714Y-57362380D01*
%TO.C,J4*%
X99996666Y-56362380D02*
X99996666Y-57076666D01*
X99949047Y-57219523D01*
X99853809Y-57314761D01*
X99710952Y-57362380D01*
X99615714Y-57362380D01*
X100901428Y-56695714D02*
X100901428Y-57362380D01*
X100663333Y-56314761D02*
X100425238Y-57029047D01*
X101044285Y-57029047D01*
%TO.C,J1*%
X73326666Y-56362380D02*
X73326666Y-57076666D01*
X73279047Y-57219523D01*
X73183809Y-57314761D01*
X73040952Y-57362380D01*
X72945714Y-57362380D01*
X74326666Y-57362380D02*
X73755238Y-57362380D01*
X74040952Y-57362380D02*
X74040952Y-56362380D01*
X73945714Y-56505238D01*
X73850476Y-56600476D01*
X73755238Y-56648095D01*
%TO.C,J2*%
X79232380Y-91773333D02*
X79946666Y-91773333D01*
X80089523Y-91820952D01*
X80184761Y-91916190D01*
X80232380Y-92059047D01*
X80232380Y-92154285D01*
X79327619Y-91344761D02*
X79280000Y-91297142D01*
X79232380Y-91201904D01*
X79232380Y-90963809D01*
X79280000Y-90868571D01*
X79327619Y-90820952D01*
X79422857Y-90773333D01*
X79518095Y-90773333D01*
X79660952Y-90820952D01*
X80232380Y-91392380D01*
X80232380Y-90773333D01*
%TO.C,J3*%
X79232380Y-134953333D02*
X79946666Y-134953333D01*
X80089523Y-135000952D01*
X80184761Y-135096190D01*
X80232380Y-135239047D01*
X80232380Y-135334285D01*
X79232380Y-134572380D02*
X79232380Y-133953333D01*
X79613333Y-134286666D01*
X79613333Y-134143809D01*
X79660952Y-134048571D01*
X79708571Y-134000952D01*
X79803809Y-133953333D01*
X80041904Y-133953333D01*
X80137142Y-134000952D01*
X80184761Y-134048571D01*
X80232380Y-134143809D01*
X80232380Y-134429523D01*
X80184761Y-134524761D01*
X80137142Y-134572380D01*
%TO.C,J5*%
X105902380Y-91773333D02*
X106616666Y-91773333D01*
X106759523Y-91820952D01*
X106854761Y-91916190D01*
X106902380Y-92059047D01*
X106902380Y-92154285D01*
X105902380Y-90820952D02*
X105902380Y-91297142D01*
X106378571Y-91344761D01*
X106330952Y-91297142D01*
X106283333Y-91201904D01*
X106283333Y-90963809D01*
X106330952Y-90868571D01*
X106378571Y-90820952D01*
X106473809Y-90773333D01*
X106711904Y-90773333D01*
X106807142Y-90820952D01*
X106854761Y-90868571D01*
X106902380Y-90963809D01*
X106902380Y-91201904D01*
X106854761Y-91297142D01*
X106807142Y-91344761D01*
%TO.C,J6*%
X105902380Y-134953333D02*
X106616666Y-134953333D01*
X106759523Y-135000952D01*
X106854761Y-135096190D01*
X106902380Y-135239047D01*
X106902380Y-135334285D01*
X105902380Y-134048571D02*
X105902380Y-134239047D01*
X105950000Y-134334285D01*
X105997619Y-134381904D01*
X106140476Y-134477142D01*
X106330952Y-134524761D01*
X106711904Y-134524761D01*
X106807142Y-134477142D01*
X106854761Y-134429523D01*
X106902380Y-134334285D01*
X106902380Y-134143809D01*
X106854761Y-134048571D01*
X106807142Y-134000952D01*
X106711904Y-133953333D01*
X106473809Y-133953333D01*
X106378571Y-134000952D01*
X106330952Y-134048571D01*
X106283333Y-134143809D01*
X106283333Y-134334285D01*
X106330952Y-134429523D01*
X106378571Y-134477142D01*
X106473809Y-134524761D01*
%TO.C,J8*%
X159242380Y-91773333D02*
X159956666Y-91773333D01*
X160099523Y-91820952D01*
X160194761Y-91916190D01*
X160242380Y-92059047D01*
X160242380Y-92154285D01*
X159670952Y-91154285D02*
X159623333Y-91249523D01*
X159575714Y-91297142D01*
X159480476Y-91344761D01*
X159432857Y-91344761D01*
X159337619Y-91297142D01*
X159290000Y-91249523D01*
X159242380Y-91154285D01*
X159242380Y-90963809D01*
X159290000Y-90868571D01*
X159337619Y-90820952D01*
X159432857Y-90773333D01*
X159480476Y-90773333D01*
X159575714Y-90820952D01*
X159623333Y-90868571D01*
X159670952Y-90963809D01*
X159670952Y-91154285D01*
X159718571Y-91249523D01*
X159766190Y-91297142D01*
X159861428Y-91344761D01*
X160051904Y-91344761D01*
X160147142Y-91297142D01*
X160194761Y-91249523D01*
X160242380Y-91154285D01*
X160242380Y-90963809D01*
X160194761Y-90868571D01*
X160147142Y-90820952D01*
X160051904Y-90773333D01*
X159861428Y-90773333D01*
X159766190Y-90820952D01*
X159718571Y-90868571D01*
X159670952Y-90963809D01*
%TO.C,J9*%
X159242380Y-134953333D02*
X159956666Y-134953333D01*
X160099523Y-135000952D01*
X160194761Y-135096190D01*
X160242380Y-135239047D01*
X160242380Y-135334285D01*
X160242380Y-134429523D02*
X160242380Y-134239047D01*
X160194761Y-134143809D01*
X160147142Y-134096190D01*
X160004285Y-134000952D01*
X159813809Y-133953333D01*
X159432857Y-133953333D01*
X159337619Y-134000952D01*
X159290000Y-134048571D01*
X159242380Y-134143809D01*
X159242380Y-134334285D01*
X159290000Y-134429523D01*
X159337619Y-134477142D01*
X159432857Y-134524761D01*
X159670952Y-134524761D01*
X159766190Y-134477142D01*
X159813809Y-134429523D01*
X159861428Y-134334285D01*
X159861428Y-134143809D01*
X159813809Y-134048571D01*
X159766190Y-134000952D01*
X159670952Y-133953333D01*
%TO.C,J11*%
X215122380Y-92249523D02*
X215836666Y-92249523D01*
X215979523Y-92297142D01*
X216074761Y-92392380D01*
X216122380Y-92535238D01*
X216122380Y-92630476D01*
X216122380Y-91249523D02*
X216122380Y-91820952D01*
X216122380Y-91535238D02*
X215122380Y-91535238D01*
X215265238Y-91630476D01*
X215360476Y-91725714D01*
X215408095Y-91820952D01*
X216122380Y-90297142D02*
X216122380Y-90868571D01*
X216122380Y-90582857D02*
X215122380Y-90582857D01*
X215265238Y-90678095D01*
X215360476Y-90773333D01*
X215408095Y-90868571D01*
%TO.C,J12*%
X215122380Y-135429523D02*
X215836666Y-135429523D01*
X215979523Y-135477142D01*
X216074761Y-135572380D01*
X216122380Y-135715238D01*
X216122380Y-135810476D01*
X216122380Y-134429523D02*
X216122380Y-135000952D01*
X216122380Y-134715238D02*
X215122380Y-134715238D01*
X215265238Y-134810476D01*
X215360476Y-134905714D01*
X215408095Y-135000952D01*
X215217619Y-134048571D02*
X215170000Y-134000952D01*
X215122380Y-133905714D01*
X215122380Y-133667619D01*
X215170000Y-133572380D01*
X215217619Y-133524761D01*
X215312857Y-133477142D01*
X215408095Y-133477142D01*
X215550952Y-133524761D01*
X216122380Y-134096190D01*
X216122380Y-133477142D01*
%TO.C,J15*%
X132572380Y-92249523D02*
X133286666Y-92249523D01*
X133429523Y-92297142D01*
X133524761Y-92392380D01*
X133572380Y-92535238D01*
X133572380Y-92630476D01*
X133572380Y-91249523D02*
X133572380Y-91820952D01*
X133572380Y-91535238D02*
X132572380Y-91535238D01*
X132715238Y-91630476D01*
X132810476Y-91725714D01*
X132858095Y-91820952D01*
X132572380Y-90344761D02*
X132572380Y-90820952D01*
X133048571Y-90868571D01*
X133000952Y-90820952D01*
X132953333Y-90725714D01*
X132953333Y-90487619D01*
X133000952Y-90392380D01*
X133048571Y-90344761D01*
X133143809Y-90297142D01*
X133381904Y-90297142D01*
X133477142Y-90344761D01*
X133524761Y-90392380D01*
X133572380Y-90487619D01*
X133572380Y-90725714D01*
X133524761Y-90820952D01*
X133477142Y-90868571D01*
%TO.C,J16*%
X132572380Y-135429523D02*
X133286666Y-135429523D01*
X133429523Y-135477142D01*
X133524761Y-135572380D01*
X133572380Y-135715238D01*
X133572380Y-135810476D01*
X133572380Y-134429523D02*
X133572380Y-135000952D01*
X133572380Y-134715238D02*
X132572380Y-134715238D01*
X132715238Y-134810476D01*
X132810476Y-134905714D01*
X132858095Y-135000952D01*
X132572380Y-133572380D02*
X132572380Y-133762857D01*
X132620000Y-133858095D01*
X132667619Y-133905714D01*
X132810476Y-134000952D01*
X133000952Y-134048571D01*
X133381904Y-134048571D01*
X133477142Y-134000952D01*
X133524761Y-133953333D01*
X133572380Y-133858095D01*
X133572380Y-133667619D01*
X133524761Y-133572380D01*
X133477142Y-133524761D01*
X133381904Y-133477142D01*
X133143809Y-133477142D01*
X133048571Y-133524761D01*
X133000952Y-133572380D01*
X132953333Y-133667619D01*
X132953333Y-133858095D01*
X133000952Y-133953333D01*
X133048571Y-134000952D01*
X133143809Y-134048571D01*
%TO.C,J18*%
X187182380Y-92249523D02*
X187896666Y-92249523D01*
X188039523Y-92297142D01*
X188134761Y-92392380D01*
X188182380Y-92535238D01*
X188182380Y-92630476D01*
X188182380Y-91249523D02*
X188182380Y-91820952D01*
X188182380Y-91535238D02*
X187182380Y-91535238D01*
X187325238Y-91630476D01*
X187420476Y-91725714D01*
X187468095Y-91820952D01*
X187610952Y-90678095D02*
X187563333Y-90773333D01*
X187515714Y-90820952D01*
X187420476Y-90868571D01*
X187372857Y-90868571D01*
X187277619Y-90820952D01*
X187230000Y-90773333D01*
X187182380Y-90678095D01*
X187182380Y-90487619D01*
X187230000Y-90392380D01*
X187277619Y-90344761D01*
X187372857Y-90297142D01*
X187420476Y-90297142D01*
X187515714Y-90344761D01*
X187563333Y-90392380D01*
X187610952Y-90487619D01*
X187610952Y-90678095D01*
X187658571Y-90773333D01*
X187706190Y-90820952D01*
X187801428Y-90868571D01*
X187991904Y-90868571D01*
X188087142Y-90820952D01*
X188134761Y-90773333D01*
X188182380Y-90678095D01*
X188182380Y-90487619D01*
X188134761Y-90392380D01*
X188087142Y-90344761D01*
X187991904Y-90297142D01*
X187801428Y-90297142D01*
X187706190Y-90344761D01*
X187658571Y-90392380D01*
X187610952Y-90487619D01*
%TO.C,J19*%
X187182380Y-135429523D02*
X187896666Y-135429523D01*
X188039523Y-135477142D01*
X188134761Y-135572380D01*
X188182380Y-135715238D01*
X188182380Y-135810476D01*
X188182380Y-134429523D02*
X188182380Y-135000952D01*
X188182380Y-134715238D02*
X187182380Y-134715238D01*
X187325238Y-134810476D01*
X187420476Y-134905714D01*
X187468095Y-135000952D01*
X188182380Y-133953333D02*
X188182380Y-133762857D01*
X188134761Y-133667619D01*
X188087142Y-133620000D01*
X187944285Y-133524761D01*
X187753809Y-133477142D01*
X187372857Y-133477142D01*
X187277619Y-133524761D01*
X187230000Y-133572380D01*
X187182380Y-133667619D01*
X187182380Y-133858095D01*
X187230000Y-133953333D01*
X187277619Y-134000952D01*
X187372857Y-134048571D01*
X187610952Y-134048571D01*
X187706190Y-134000952D01*
X187753809Y-133953333D01*
X187801428Y-133858095D01*
X187801428Y-133667619D01*
X187753809Y-133572380D01*
X187706190Y-133524761D01*
X187610952Y-133477142D01*
%TD*%
M02*
