M48
; DRILL file {KiCad (5.1.10)-1} date 01/27/22 07:08:03
; FORMAT={-:-/ absolute / inch / decimal}
; #@! TF.CreationDate,2022-01-27T07:08:03+01:00
; #@! TF.GenerationSoftware,Kicad,Pcbnew,(5.1.10)-1
; #@! TF.FileFunction,Plated,1,2,PTH
FMAT,2
INCH
T1C0.0374
T2C0.0394
%
G90
G05
T1
X8.9Y-3.8563
X8.9Y-3.9547
X8.9Y-4.0531
X8.9Y-4.1516
X8.9Y-4.25
T2
X2.8Y-2.6
X2.8Y-2.7
X2.8Y-2.8
X2.8Y-2.9
X2.8Y-3.0
X2.8Y-3.1
X2.8Y-3.2
X2.8Y-3.3
X2.8Y-3.4
X2.8Y-3.5
X2.8Y-3.6
X2.8Y-3.7
X2.8Y-3.8
X2.8Y-3.9
X2.8Y-4.0
X2.8Y-4.1
X2.8Y-4.2
X2.8Y-4.3
X2.8Y-4.4
X2.8Y-4.5
X2.8Y-4.6
X2.8Y-4.7
X2.8Y-4.8
X2.8Y-4.9
X2.8Y-5.0
X2.8Y-5.1
X2.8Y-5.2
X2.8Y-5.3
X2.8Y-5.4
X2.8Y-5.5
X2.8Y-5.6
X2.8Y-5.7
X2.9Y-2.6
X2.9Y-2.7
X2.9Y-2.8
X2.9Y-2.9
X2.9Y-3.0
X2.9Y-3.1
X2.9Y-3.2
X2.9Y-3.3
X2.9Y-3.4
X2.9Y-3.5
X2.9Y-3.6
X2.9Y-3.7
X2.9Y-3.8
X2.9Y-3.9
X2.9Y-4.0
X2.9Y-4.1
X2.9Y-4.2
X2.9Y-4.3
X2.9Y-4.4
X2.9Y-4.5
X2.9Y-4.6
X2.9Y-4.7
X2.9Y-4.8
X2.9Y-4.9
X2.9Y-5.0
X2.9Y-5.1
X2.9Y-5.2
X2.9Y-5.3
X2.9Y-5.4
X2.9Y-5.5
X2.9Y-5.6
X2.9Y-5.7
X3.0Y-2.6
X3.0Y-2.7
X3.0Y-2.8
X3.0Y-2.9
X3.0Y-3.0
X3.0Y-3.1
X3.0Y-3.2
X3.0Y-3.3
X3.0Y-3.4
X3.0Y-3.5
X3.0Y-3.6
X3.0Y-3.7
X3.0Y-3.8
X3.0Y-3.9
X3.0Y-4.0
X3.0Y-4.1
X3.0Y-4.2
X3.0Y-4.3
X3.0Y-4.4
X3.0Y-4.5
X3.0Y-4.6
X3.0Y-4.7
X3.0Y-4.8
X3.0Y-4.9
X3.0Y-5.0
X3.0Y-5.1
X3.0Y-5.2
X3.0Y-5.3
X3.0Y-5.4
X3.0Y-5.5
X3.0Y-5.6
X3.0Y-5.7
X3.25Y-3.6
X3.25Y-5.3
X3.35Y-3.6
X3.35Y-5.3
X3.85Y-2.6
X3.85Y-2.7
X3.85Y-2.8
X3.85Y-2.9
X3.85Y-3.0
X3.85Y-3.1
X3.85Y-3.2
X3.85Y-3.3
X3.85Y-3.4
X3.85Y-3.5
X3.85Y-3.6
X3.85Y-3.7
X3.85Y-3.8
X3.85Y-3.9
X3.85Y-4.0
X3.85Y-4.1
X3.85Y-4.2
X3.85Y-4.3
X3.85Y-4.4
X3.85Y-4.5
X3.85Y-4.6
X3.85Y-4.7
X3.85Y-4.8
X3.85Y-4.9
X3.85Y-5.0
X3.85Y-5.1
X3.85Y-5.2
X3.85Y-5.3
X3.85Y-5.4
X3.85Y-5.5
X3.85Y-5.6
X3.85Y-5.7
X3.95Y-2.6
X3.95Y-2.7
X3.95Y-2.8
X3.95Y-2.9
X3.95Y-3.0
X3.95Y-3.1
X3.95Y-3.2
X3.95Y-3.3
X3.95Y-3.4
X3.95Y-3.5
X3.95Y-3.6
X3.95Y-3.7
X3.95Y-3.8
X3.95Y-3.9
X3.95Y-4.0
X3.95Y-4.1
X3.95Y-4.2
X3.95Y-4.3
X3.95Y-4.4
X3.95Y-4.5
X3.95Y-4.6
X3.95Y-4.7
X3.95Y-4.8
X3.95Y-4.9
X3.95Y-5.0
X3.95Y-5.1
X3.95Y-5.2
X3.95Y-5.3
X3.95Y-5.4
X3.95Y-5.5
X3.95Y-5.6
X3.95Y-5.7
X4.05Y-2.6
X4.05Y-2.7
X4.05Y-2.8
X4.05Y-2.9
X4.05Y-3.0
X4.05Y-3.1
X4.05Y-3.2
X4.05Y-3.3
X4.05Y-3.4
X4.05Y-3.5
X4.05Y-3.6
X4.05Y-3.7
X4.05Y-3.8
X4.05Y-3.9
X4.05Y-4.0
X4.05Y-4.1
X4.05Y-4.2
X4.05Y-4.3
X4.05Y-4.4
X4.05Y-4.5
X4.05Y-4.6
X4.05Y-4.7
X4.05Y-4.8
X4.05Y-4.9
X4.05Y-5.0
X4.05Y-5.1
X4.05Y-5.2
X4.05Y-5.3
X4.05Y-5.4
X4.05Y-5.5
X4.05Y-5.6
X4.05Y-5.7
X4.3Y-3.6
X4.3Y-5.3
X4.4Y-3.6
X4.4Y-5.3
X4.9Y-2.6
X4.9Y-2.7
X4.9Y-2.8
X4.9Y-2.9
X4.9Y-3.0
X4.9Y-3.1
X4.9Y-3.2
X4.9Y-3.3
X4.9Y-3.4
X4.9Y-3.5
X4.9Y-3.6
X4.9Y-3.7
X4.9Y-3.8
X4.9Y-3.9
X4.9Y-4.0
X4.9Y-4.1
X4.9Y-4.2
X4.9Y-4.3
X4.9Y-4.4
X4.9Y-4.5
X4.9Y-4.6
X4.9Y-4.7
X4.9Y-4.8
X4.9Y-4.9
X4.9Y-5.0
X4.9Y-5.1
X4.9Y-5.2
X4.9Y-5.3
X4.9Y-5.4
X4.9Y-5.5
X4.9Y-5.6
X4.9Y-5.7
X5.0Y-2.6
X5.0Y-2.7
X5.0Y-2.8
X5.0Y-2.9
X5.0Y-3.0
X5.0Y-3.1
X5.0Y-3.2
X5.0Y-3.3
X5.0Y-3.4
X5.0Y-3.5
X5.0Y-3.6
X5.0Y-3.7
X5.0Y-3.8
X5.0Y-3.9
X5.0Y-4.0
X5.0Y-4.1
X5.0Y-4.2
X5.0Y-4.3
X5.0Y-4.4
X5.0Y-4.5
X5.0Y-4.6
X5.0Y-4.7
X5.0Y-4.8
X5.0Y-4.9
X5.0Y-5.0
X5.0Y-5.1
X5.0Y-5.2
X5.0Y-5.3
X5.0Y-5.4
X5.0Y-5.5
X5.0Y-5.6
X5.0Y-5.7
X5.1Y-2.6
X5.1Y-2.7
X5.1Y-2.8
X5.1Y-2.9
X5.1Y-3.0
X5.1Y-3.1
X5.1Y-3.2
X5.1Y-3.3
X5.1Y-3.4
X5.1Y-3.5
X5.1Y-3.6
X5.1Y-3.7
X5.1Y-3.8
X5.1Y-3.9
X5.1Y-4.0
X5.1Y-4.1
X5.1Y-4.2
X5.1Y-4.3
X5.1Y-4.4
X5.1Y-4.5
X5.1Y-4.6
X5.1Y-4.7
X5.1Y-4.8
X5.1Y-4.9
X5.1Y-5.0
X5.1Y-5.1
X5.1Y-5.2
X5.1Y-5.3
X5.1Y-5.4
X5.1Y-5.5
X5.1Y-5.6
X5.1Y-5.7
X5.35Y-3.6
X5.35Y-5.3
X5.45Y-3.6
X5.45Y-5.3
X5.95Y-2.6
X5.95Y-2.7
X5.95Y-2.8
X5.95Y-2.9
X5.95Y-3.0
X5.95Y-3.1
X5.95Y-3.2
X5.95Y-3.3
X5.95Y-3.4
X5.95Y-3.5
X5.95Y-3.6
X5.95Y-3.7
X5.95Y-3.8
X5.95Y-3.9
X5.95Y-4.0
X5.95Y-4.1
X5.95Y-4.2
X5.95Y-4.3
X5.95Y-4.4
X5.95Y-4.5
X5.95Y-4.6
X5.95Y-4.7
X5.95Y-4.8
X5.95Y-4.9
X5.95Y-5.0
X5.95Y-5.1
X5.95Y-5.2
X5.95Y-5.3
X5.95Y-5.4
X5.95Y-5.5
X5.95Y-5.6
X5.95Y-5.7
X6.05Y-2.6
X6.05Y-2.7
X6.05Y-2.8
X6.05Y-2.9
X6.05Y-3.0
X6.05Y-3.1
X6.05Y-3.2
X6.05Y-3.3
X6.05Y-3.4
X6.05Y-3.5
X6.05Y-3.6
X6.05Y-3.7
X6.05Y-3.8
X6.05Y-3.9
X6.05Y-4.0
X6.05Y-4.1
X6.05Y-4.2
X6.05Y-4.3
X6.05Y-4.4
X6.05Y-4.5
X6.05Y-4.6
X6.05Y-4.7
X6.05Y-4.8
X6.05Y-4.9
X6.05Y-5.0
X6.05Y-5.1
X6.05Y-5.2
X6.05Y-5.3
X6.05Y-5.4
X6.05Y-5.5
X6.05Y-5.6
X6.05Y-5.7
X6.15Y-2.6
X6.15Y-2.7
X6.15Y-2.8
X6.15Y-2.9
X6.15Y-3.0
X6.15Y-3.1
X6.15Y-3.2
X6.15Y-3.3
X6.15Y-3.4
X6.15Y-3.5
X6.15Y-3.6
X6.15Y-3.7
X6.15Y-3.8
X6.15Y-3.9
X6.15Y-4.0
X6.15Y-4.1
X6.15Y-4.2
X6.15Y-4.3
X6.15Y-4.4
X6.15Y-4.5
X6.15Y-4.6
X6.15Y-4.7
X6.15Y-4.8
X6.15Y-4.9
X6.15Y-5.0
X6.15Y-5.1
X6.15Y-5.2
X6.15Y-5.3
X6.15Y-5.4
X6.15Y-5.5
X6.15Y-5.6
X6.15Y-5.7
X6.4Y-3.6
X6.4Y-5.3
X6.5Y-3.6
X6.5Y-5.3
X7.05Y-2.6
X7.05Y-2.7
X7.05Y-2.8
X7.05Y-2.9
X7.05Y-3.0
X7.05Y-3.1
X7.05Y-3.2
X7.05Y-3.3
X7.05Y-3.4
X7.05Y-3.5
X7.05Y-3.6
X7.05Y-3.7
X7.05Y-3.8
X7.05Y-3.9
X7.05Y-4.0
X7.05Y-4.1
X7.05Y-4.2
X7.05Y-4.3
X7.05Y-4.4
X7.05Y-4.5
X7.05Y-4.6
X7.05Y-4.7
X7.05Y-4.8
X7.05Y-4.9
X7.05Y-5.0
X7.05Y-5.1
X7.05Y-5.2
X7.05Y-5.3
X7.05Y-5.4
X7.05Y-5.5
X7.05Y-5.6
X7.05Y-5.7
X7.15Y-2.6
X7.15Y-2.7
X7.15Y-2.8
X7.15Y-2.9
X7.15Y-3.0
X7.15Y-3.1
X7.15Y-3.2
X7.15Y-3.3
X7.15Y-3.4
X7.15Y-3.5
X7.15Y-3.6
X7.15Y-3.7
X7.15Y-3.8
X7.15Y-3.9
X7.15Y-4.0
X7.15Y-4.1
X7.15Y-4.2
X7.15Y-4.3
X7.15Y-4.4
X7.15Y-4.5
X7.15Y-4.6
X7.15Y-4.7
X7.15Y-4.8
X7.15Y-4.9
X7.15Y-5.0
X7.15Y-5.1
X7.15Y-5.2
X7.15Y-5.3
X7.15Y-5.4
X7.15Y-5.5
X7.15Y-5.6
X7.15Y-5.7
X7.25Y-2.6
X7.25Y-2.7
X7.25Y-2.8
X7.25Y-2.9
X7.25Y-3.0
X7.25Y-3.1
X7.25Y-3.2
X7.25Y-3.3
X7.25Y-3.4
X7.25Y-3.5
X7.25Y-3.6
X7.25Y-3.7
X7.25Y-3.8
X7.25Y-3.9
X7.25Y-4.0
X7.25Y-4.1
X7.25Y-4.2
X7.25Y-4.3
X7.25Y-4.4
X7.25Y-4.5
X7.25Y-4.6
X7.25Y-4.7
X7.25Y-4.8
X7.25Y-4.9
X7.25Y-5.0
X7.25Y-5.1
X7.25Y-5.2
X7.25Y-5.3
X7.25Y-5.4
X7.25Y-5.5
X7.25Y-5.6
X7.25Y-5.7
X7.5Y-3.6
X7.5Y-5.3
X7.6Y-3.6
X7.6Y-5.3
X8.15Y-2.6
X8.15Y-2.7
X8.15Y-2.8
X8.15Y-2.9
X8.15Y-3.0
X8.15Y-3.1
X8.15Y-3.2
X8.15Y-3.3
X8.15Y-3.4
X8.15Y-3.5
X8.15Y-3.6
X8.15Y-3.7
X8.15Y-3.8
X8.15Y-3.9
X8.15Y-4.0
X8.15Y-4.1
X8.15Y-4.2
X8.15Y-4.3
X8.15Y-4.4
X8.15Y-4.5
X8.15Y-4.6
X8.15Y-4.7
X8.15Y-4.8
X8.15Y-4.9
X8.15Y-5.0
X8.15Y-5.1
X8.15Y-5.2
X8.15Y-5.3
X8.15Y-5.4
X8.15Y-5.5
X8.15Y-5.6
X8.15Y-5.7
X8.25Y-2.6
X8.25Y-2.7
X8.25Y-2.8
X8.25Y-2.9
X8.25Y-3.0
X8.25Y-3.1
X8.25Y-3.2
X8.25Y-3.3
X8.25Y-3.4
X8.25Y-3.5
X8.25Y-3.6
X8.25Y-3.7
X8.25Y-3.8
X8.25Y-3.9
X8.25Y-4.0
X8.25Y-4.1
X8.25Y-4.2
X8.25Y-4.3
X8.25Y-4.4
X8.25Y-4.5
X8.25Y-4.6
X8.25Y-4.7
X8.25Y-4.8
X8.25Y-4.9
X8.25Y-5.0
X8.25Y-5.1
X8.25Y-5.2
X8.25Y-5.3
X8.25Y-5.4
X8.25Y-5.5
X8.25Y-5.6
X8.25Y-5.7
X8.35Y-2.6
X8.35Y-2.7
X8.35Y-2.8
X8.35Y-2.9
X8.35Y-3.0
X8.35Y-3.1
X8.35Y-3.2
X8.35Y-3.3
X8.35Y-3.4
X8.35Y-3.5
X8.35Y-3.6
X8.35Y-3.7
X8.35Y-3.8
X8.35Y-3.9
X8.35Y-4.0
X8.35Y-4.1
X8.35Y-4.2
X8.35Y-4.3
X8.35Y-4.4
X8.35Y-4.5
X8.35Y-4.6
X8.35Y-4.7
X8.35Y-4.8
X8.35Y-4.9
X8.35Y-5.0
X8.35Y-5.1
X8.35Y-5.2
X8.35Y-5.3
X8.35Y-5.4
X8.35Y-5.5
X8.35Y-5.6
X8.35Y-5.7
X8.6Y-3.6
X8.6Y-5.3
X8.7Y-3.6
X8.7Y-5.3
T0
M30
