%TF.GenerationSoftware,KiCad,Pcbnew,(5.1.10)-1*%
%TF.CreationDate,2022-01-27T07:08:06+01:00*%
%TF.ProjectId,Backplane,4261636b-706c-4616-9e65-2e6b69636164,rev?*%
%TF.SameCoordinates,Original*%
%TF.FileFunction,Soldermask,Bot*%
%TF.FilePolarity,Negative*%
%FSLAX46Y46*%
G04 Gerber Fmt 4.6, Leading zero omitted, Abs format (unit mm)*
G04 Created by KiCad (PCBNEW (5.1.10)-1) date 2022-01-27 07:08:06*
%MOMM*%
%LPD*%
G01*
G04 APERTURE LIST*
%ADD10O,1.950000X1.700000*%
%ADD11C,2.850000*%
%ADD12C,1.550000*%
%ADD13O,1.700000X1.700000*%
%ADD14R,1.700000X1.700000*%
G04 APERTURE END LIST*
D10*
%TO.C,J13*%
X226060000Y-97950000D03*
X226060000Y-100450000D03*
X226060000Y-102950000D03*
X226060000Y-105450000D03*
G36*
G01*
X226785000Y-108800000D02*
X225335000Y-108800000D01*
G75*
G02*
X225085000Y-108550000I0J250000D01*
G01*
X225085000Y-107350000D01*
G75*
G02*
X225335000Y-107100000I250000J0D01*
G01*
X226785000Y-107100000D01*
G75*
G02*
X227035000Y-107350000I0J-250000D01*
G01*
X227035000Y-108550000D01*
G75*
G02*
X226785000Y-108800000I-250000J0D01*
G01*
G37*
%TD*%
D11*
%TO.C,J17*%
X181310000Y-150410000D03*
X181310000Y-60410000D03*
D12*
X184150000Y-144780000D03*
X184150000Y-142240000D03*
X184150000Y-139700000D03*
X184150000Y-137160000D03*
X184150000Y-134620000D03*
X184150000Y-132080000D03*
X184150000Y-129540000D03*
X184150000Y-127000000D03*
X184150000Y-124460000D03*
X184150000Y-121920000D03*
X184150000Y-119380000D03*
X184150000Y-116840000D03*
X184150000Y-114300000D03*
X184150000Y-111760000D03*
X184150000Y-109220000D03*
X184150000Y-106680000D03*
X184150000Y-104140000D03*
X184150000Y-101600000D03*
X184150000Y-99060000D03*
X184150000Y-96520000D03*
X184150000Y-93980000D03*
X184150000Y-91440000D03*
X184150000Y-88900000D03*
X184150000Y-86360000D03*
X184150000Y-83820000D03*
X184150000Y-81280000D03*
X184150000Y-78740000D03*
X184150000Y-76200000D03*
X184150000Y-73660000D03*
X184150000Y-71120000D03*
X184150000Y-68580000D03*
X184150000Y-66040000D03*
X181610000Y-144780000D03*
X181610000Y-142240000D03*
X181610000Y-139700000D03*
X181610000Y-137160000D03*
X181610000Y-134620000D03*
X181610000Y-132080000D03*
X181610000Y-129540000D03*
X181610000Y-127000000D03*
X181610000Y-124460000D03*
X181610000Y-121920000D03*
X181610000Y-119380000D03*
X181610000Y-116840000D03*
X181610000Y-114300000D03*
X181610000Y-111760000D03*
X181610000Y-109220000D03*
X181610000Y-106680000D03*
X181610000Y-104140000D03*
X181610000Y-101600000D03*
X181610000Y-99060000D03*
X181610000Y-96520000D03*
X181610000Y-93980000D03*
X181610000Y-91440000D03*
X181610000Y-88900000D03*
X181610000Y-86360000D03*
X181610000Y-83820000D03*
X181610000Y-81280000D03*
X181610000Y-78740000D03*
X181610000Y-76200000D03*
X181610000Y-73660000D03*
X181610000Y-71120000D03*
X181610000Y-68580000D03*
X181610000Y-66040000D03*
X179070000Y-144780000D03*
X179070000Y-142240000D03*
X179070000Y-139700000D03*
X179070000Y-137160000D03*
X179070000Y-134620000D03*
X179070000Y-132080000D03*
X179070000Y-129540000D03*
X179070000Y-127000000D03*
X179070000Y-124460000D03*
X179070000Y-121920000D03*
X179070000Y-119380000D03*
X179070000Y-116840000D03*
X179070000Y-114300000D03*
X179070000Y-111760000D03*
X179070000Y-109220000D03*
X179070000Y-106680000D03*
X179070000Y-104140000D03*
X179070000Y-101600000D03*
X179070000Y-99060000D03*
X179070000Y-96520000D03*
X179070000Y-93980000D03*
X179070000Y-91440000D03*
X179070000Y-88900000D03*
X179070000Y-86360000D03*
X179070000Y-83820000D03*
X179070000Y-81280000D03*
X179070000Y-78740000D03*
X179070000Y-76200000D03*
X179070000Y-73660000D03*
X179070000Y-71120000D03*
X179070000Y-68580000D03*
G36*
G01*
X178295000Y-66565450D02*
X178295000Y-65514550D01*
G75*
G02*
X178544550Y-65265000I249550J0D01*
G01*
X179595450Y-65265000D01*
G75*
G02*
X179845000Y-65514550I0J-249550D01*
G01*
X179845000Y-66565450D01*
G75*
G02*
X179595450Y-66815000I-249550J0D01*
G01*
X178544550Y-66815000D01*
G75*
G02*
X178295000Y-66565450I0J249550D01*
G01*
G37*
%TD*%
D11*
%TO.C,J14*%
X126700000Y-150410000D03*
X126700000Y-60410000D03*
D12*
X129540000Y-144780000D03*
X129540000Y-142240000D03*
X129540000Y-139700000D03*
X129540000Y-137160000D03*
X129540000Y-134620000D03*
X129540000Y-132080000D03*
X129540000Y-129540000D03*
X129540000Y-127000000D03*
X129540000Y-124460000D03*
X129540000Y-121920000D03*
X129540000Y-119380000D03*
X129540000Y-116840000D03*
X129540000Y-114300000D03*
X129540000Y-111760000D03*
X129540000Y-109220000D03*
X129540000Y-106680000D03*
X129540000Y-104140000D03*
X129540000Y-101600000D03*
X129540000Y-99060000D03*
X129540000Y-96520000D03*
X129540000Y-93980000D03*
X129540000Y-91440000D03*
X129540000Y-88900000D03*
X129540000Y-86360000D03*
X129540000Y-83820000D03*
X129540000Y-81280000D03*
X129540000Y-78740000D03*
X129540000Y-76200000D03*
X129540000Y-73660000D03*
X129540000Y-71120000D03*
X129540000Y-68580000D03*
X129540000Y-66040000D03*
X127000000Y-144780000D03*
X127000000Y-142240000D03*
X127000000Y-139700000D03*
X127000000Y-137160000D03*
X127000000Y-134620000D03*
X127000000Y-132080000D03*
X127000000Y-129540000D03*
X127000000Y-127000000D03*
X127000000Y-124460000D03*
X127000000Y-121920000D03*
X127000000Y-119380000D03*
X127000000Y-116840000D03*
X127000000Y-114300000D03*
X127000000Y-111760000D03*
X127000000Y-109220000D03*
X127000000Y-106680000D03*
X127000000Y-104140000D03*
X127000000Y-101600000D03*
X127000000Y-99060000D03*
X127000000Y-96520000D03*
X127000000Y-93980000D03*
X127000000Y-91440000D03*
X127000000Y-88900000D03*
X127000000Y-86360000D03*
X127000000Y-83820000D03*
X127000000Y-81280000D03*
X127000000Y-78740000D03*
X127000000Y-76200000D03*
X127000000Y-73660000D03*
X127000000Y-71120000D03*
X127000000Y-68580000D03*
X127000000Y-66040000D03*
X124460000Y-144780000D03*
X124460000Y-142240000D03*
X124460000Y-139700000D03*
X124460000Y-137160000D03*
X124460000Y-134620000D03*
X124460000Y-132080000D03*
X124460000Y-129540000D03*
X124460000Y-127000000D03*
X124460000Y-124460000D03*
X124460000Y-121920000D03*
X124460000Y-119380000D03*
X124460000Y-116840000D03*
X124460000Y-114300000D03*
X124460000Y-111760000D03*
X124460000Y-109220000D03*
X124460000Y-106680000D03*
X124460000Y-104140000D03*
X124460000Y-101600000D03*
X124460000Y-99060000D03*
X124460000Y-96520000D03*
X124460000Y-93980000D03*
X124460000Y-91440000D03*
X124460000Y-88900000D03*
X124460000Y-86360000D03*
X124460000Y-83820000D03*
X124460000Y-81280000D03*
X124460000Y-78740000D03*
X124460000Y-76200000D03*
X124460000Y-73660000D03*
X124460000Y-71120000D03*
X124460000Y-68580000D03*
G36*
G01*
X123685000Y-66565450D02*
X123685000Y-65514550D01*
G75*
G02*
X123934550Y-65265000I249550J0D01*
G01*
X124985450Y-65265000D01*
G75*
G02*
X125235000Y-65514550I0J-249550D01*
G01*
X125235000Y-66565450D01*
G75*
G02*
X124985450Y-66815000I-249550J0D01*
G01*
X123934550Y-66815000D01*
G75*
G02*
X123685000Y-66565450I0J249550D01*
G01*
G37*
%TD*%
D11*
%TO.C,J10*%
X209250000Y-150410000D03*
X209250000Y-60410000D03*
D12*
X212090000Y-144780000D03*
X212090000Y-142240000D03*
X212090000Y-139700000D03*
X212090000Y-137160000D03*
X212090000Y-134620000D03*
X212090000Y-132080000D03*
X212090000Y-129540000D03*
X212090000Y-127000000D03*
X212090000Y-124460000D03*
X212090000Y-121920000D03*
X212090000Y-119380000D03*
X212090000Y-116840000D03*
X212090000Y-114300000D03*
X212090000Y-111760000D03*
X212090000Y-109220000D03*
X212090000Y-106680000D03*
X212090000Y-104140000D03*
X212090000Y-101600000D03*
X212090000Y-99060000D03*
X212090000Y-96520000D03*
X212090000Y-93980000D03*
X212090000Y-91440000D03*
X212090000Y-88900000D03*
X212090000Y-86360000D03*
X212090000Y-83820000D03*
X212090000Y-81280000D03*
X212090000Y-78740000D03*
X212090000Y-76200000D03*
X212090000Y-73660000D03*
X212090000Y-71120000D03*
X212090000Y-68580000D03*
X212090000Y-66040000D03*
X209550000Y-144780000D03*
X209550000Y-142240000D03*
X209550000Y-139700000D03*
X209550000Y-137160000D03*
X209550000Y-134620000D03*
X209550000Y-132080000D03*
X209550000Y-129540000D03*
X209550000Y-127000000D03*
X209550000Y-124460000D03*
X209550000Y-121920000D03*
X209550000Y-119380000D03*
X209550000Y-116840000D03*
X209550000Y-114300000D03*
X209550000Y-111760000D03*
X209550000Y-109220000D03*
X209550000Y-106680000D03*
X209550000Y-104140000D03*
X209550000Y-101600000D03*
X209550000Y-99060000D03*
X209550000Y-96520000D03*
X209550000Y-93980000D03*
X209550000Y-91440000D03*
X209550000Y-88900000D03*
X209550000Y-86360000D03*
X209550000Y-83820000D03*
X209550000Y-81280000D03*
X209550000Y-78740000D03*
X209550000Y-76200000D03*
X209550000Y-73660000D03*
X209550000Y-71120000D03*
X209550000Y-68580000D03*
X209550000Y-66040000D03*
X207010000Y-144780000D03*
X207010000Y-142240000D03*
X207010000Y-139700000D03*
X207010000Y-137160000D03*
X207010000Y-134620000D03*
X207010000Y-132080000D03*
X207010000Y-129540000D03*
X207010000Y-127000000D03*
X207010000Y-124460000D03*
X207010000Y-121920000D03*
X207010000Y-119380000D03*
X207010000Y-116840000D03*
X207010000Y-114300000D03*
X207010000Y-111760000D03*
X207010000Y-109220000D03*
X207010000Y-106680000D03*
X207010000Y-104140000D03*
X207010000Y-101600000D03*
X207010000Y-99060000D03*
X207010000Y-96520000D03*
X207010000Y-93980000D03*
X207010000Y-91440000D03*
X207010000Y-88900000D03*
X207010000Y-86360000D03*
X207010000Y-83820000D03*
X207010000Y-81280000D03*
X207010000Y-78740000D03*
X207010000Y-76200000D03*
X207010000Y-73660000D03*
X207010000Y-71120000D03*
X207010000Y-68580000D03*
G36*
G01*
X206235000Y-66565450D02*
X206235000Y-65514550D01*
G75*
G02*
X206484550Y-65265000I249550J0D01*
G01*
X207535450Y-65265000D01*
G75*
G02*
X207785000Y-65514550I0J-249550D01*
G01*
X207785000Y-66565450D01*
G75*
G02*
X207535450Y-66815000I-249550J0D01*
G01*
X206484550Y-66815000D01*
G75*
G02*
X206235000Y-66565450I0J249550D01*
G01*
G37*
%TD*%
D11*
%TO.C,J7*%
X153370000Y-150410000D03*
X153370000Y-60410000D03*
D12*
X156210000Y-144780000D03*
X156210000Y-142240000D03*
X156210000Y-139700000D03*
X156210000Y-137160000D03*
X156210000Y-134620000D03*
X156210000Y-132080000D03*
X156210000Y-129540000D03*
X156210000Y-127000000D03*
X156210000Y-124460000D03*
X156210000Y-121920000D03*
X156210000Y-119380000D03*
X156210000Y-116840000D03*
X156210000Y-114300000D03*
X156210000Y-111760000D03*
X156210000Y-109220000D03*
X156210000Y-106680000D03*
X156210000Y-104140000D03*
X156210000Y-101600000D03*
X156210000Y-99060000D03*
X156210000Y-96520000D03*
X156210000Y-93980000D03*
X156210000Y-91440000D03*
X156210000Y-88900000D03*
X156210000Y-86360000D03*
X156210000Y-83820000D03*
X156210000Y-81280000D03*
X156210000Y-78740000D03*
X156210000Y-76200000D03*
X156210000Y-73660000D03*
X156210000Y-71120000D03*
X156210000Y-68580000D03*
X156210000Y-66040000D03*
X153670000Y-144780000D03*
X153670000Y-142240000D03*
X153670000Y-139700000D03*
X153670000Y-137160000D03*
X153670000Y-134620000D03*
X153670000Y-132080000D03*
X153670000Y-129540000D03*
X153670000Y-127000000D03*
X153670000Y-124460000D03*
X153670000Y-121920000D03*
X153670000Y-119380000D03*
X153670000Y-116840000D03*
X153670000Y-114300000D03*
X153670000Y-111760000D03*
X153670000Y-109220000D03*
X153670000Y-106680000D03*
X153670000Y-104140000D03*
X153670000Y-101600000D03*
X153670000Y-99060000D03*
X153670000Y-96520000D03*
X153670000Y-93980000D03*
X153670000Y-91440000D03*
X153670000Y-88900000D03*
X153670000Y-86360000D03*
X153670000Y-83820000D03*
X153670000Y-81280000D03*
X153670000Y-78740000D03*
X153670000Y-76200000D03*
X153670000Y-73660000D03*
X153670000Y-71120000D03*
X153670000Y-68580000D03*
X153670000Y-66040000D03*
X151130000Y-144780000D03*
X151130000Y-142240000D03*
X151130000Y-139700000D03*
X151130000Y-137160000D03*
X151130000Y-134620000D03*
X151130000Y-132080000D03*
X151130000Y-129540000D03*
X151130000Y-127000000D03*
X151130000Y-124460000D03*
X151130000Y-121920000D03*
X151130000Y-119380000D03*
X151130000Y-116840000D03*
X151130000Y-114300000D03*
X151130000Y-111760000D03*
X151130000Y-109220000D03*
X151130000Y-106680000D03*
X151130000Y-104140000D03*
X151130000Y-101600000D03*
X151130000Y-99060000D03*
X151130000Y-96520000D03*
X151130000Y-93980000D03*
X151130000Y-91440000D03*
X151130000Y-88900000D03*
X151130000Y-86360000D03*
X151130000Y-83820000D03*
X151130000Y-81280000D03*
X151130000Y-78740000D03*
X151130000Y-76200000D03*
X151130000Y-73660000D03*
X151130000Y-71120000D03*
X151130000Y-68580000D03*
G36*
G01*
X150355000Y-66565450D02*
X150355000Y-65514550D01*
G75*
G02*
X150604550Y-65265000I249550J0D01*
G01*
X151655450Y-65265000D01*
G75*
G02*
X151905000Y-65514550I0J-249550D01*
G01*
X151905000Y-66565450D01*
G75*
G02*
X151655450Y-66815000I-249550J0D01*
G01*
X150604550Y-66815000D01*
G75*
G02*
X150355000Y-66565450I0J249550D01*
G01*
G37*
%TD*%
D11*
%TO.C,J4*%
X100030000Y-150410000D03*
X100030000Y-60410000D03*
D12*
X102870000Y-144780000D03*
X102870000Y-142240000D03*
X102870000Y-139700000D03*
X102870000Y-137160000D03*
X102870000Y-134620000D03*
X102870000Y-132080000D03*
X102870000Y-129540000D03*
X102870000Y-127000000D03*
X102870000Y-124460000D03*
X102870000Y-121920000D03*
X102870000Y-119380000D03*
X102870000Y-116840000D03*
X102870000Y-114300000D03*
X102870000Y-111760000D03*
X102870000Y-109220000D03*
X102870000Y-106680000D03*
X102870000Y-104140000D03*
X102870000Y-101600000D03*
X102870000Y-99060000D03*
X102870000Y-96520000D03*
X102870000Y-93980000D03*
X102870000Y-91440000D03*
X102870000Y-88900000D03*
X102870000Y-86360000D03*
X102870000Y-83820000D03*
X102870000Y-81280000D03*
X102870000Y-78740000D03*
X102870000Y-76200000D03*
X102870000Y-73660000D03*
X102870000Y-71120000D03*
X102870000Y-68580000D03*
X102870000Y-66040000D03*
X100330000Y-144780000D03*
X100330000Y-142240000D03*
X100330000Y-139700000D03*
X100330000Y-137160000D03*
X100330000Y-134620000D03*
X100330000Y-132080000D03*
X100330000Y-129540000D03*
X100330000Y-127000000D03*
X100330000Y-124460000D03*
X100330000Y-121920000D03*
X100330000Y-119380000D03*
X100330000Y-116840000D03*
X100330000Y-114300000D03*
X100330000Y-111760000D03*
X100330000Y-109220000D03*
X100330000Y-106680000D03*
X100330000Y-104140000D03*
X100330000Y-101600000D03*
X100330000Y-99060000D03*
X100330000Y-96520000D03*
X100330000Y-93980000D03*
X100330000Y-91440000D03*
X100330000Y-88900000D03*
X100330000Y-86360000D03*
X100330000Y-83820000D03*
X100330000Y-81280000D03*
X100330000Y-78740000D03*
X100330000Y-76200000D03*
X100330000Y-73660000D03*
X100330000Y-71120000D03*
X100330000Y-68580000D03*
X100330000Y-66040000D03*
X97790000Y-144780000D03*
X97790000Y-142240000D03*
X97790000Y-139700000D03*
X97790000Y-137160000D03*
X97790000Y-134620000D03*
X97790000Y-132080000D03*
X97790000Y-129540000D03*
X97790000Y-127000000D03*
X97790000Y-124460000D03*
X97790000Y-121920000D03*
X97790000Y-119380000D03*
X97790000Y-116840000D03*
X97790000Y-114300000D03*
X97790000Y-111760000D03*
X97790000Y-109220000D03*
X97790000Y-106680000D03*
X97790000Y-104140000D03*
X97790000Y-101600000D03*
X97790000Y-99060000D03*
X97790000Y-96520000D03*
X97790000Y-93980000D03*
X97790000Y-91440000D03*
X97790000Y-88900000D03*
X97790000Y-86360000D03*
X97790000Y-83820000D03*
X97790000Y-81280000D03*
X97790000Y-78740000D03*
X97790000Y-76200000D03*
X97790000Y-73660000D03*
X97790000Y-71120000D03*
X97790000Y-68580000D03*
G36*
G01*
X97015000Y-66565450D02*
X97015000Y-65514550D01*
G75*
G02*
X97264550Y-65265000I249550J0D01*
G01*
X98315450Y-65265000D01*
G75*
G02*
X98565000Y-65514550I0J-249550D01*
G01*
X98565000Y-66565450D01*
G75*
G02*
X98315450Y-66815000I-249550J0D01*
G01*
X97264550Y-66815000D01*
G75*
G02*
X97015000Y-66565450I0J249550D01*
G01*
G37*
%TD*%
D11*
%TO.C,J1*%
X73360000Y-150410000D03*
X73360000Y-60410000D03*
D12*
X76200000Y-144780000D03*
X76200000Y-142240000D03*
X76200000Y-139700000D03*
X76200000Y-137160000D03*
X76200000Y-134620000D03*
X76200000Y-132080000D03*
X76200000Y-129540000D03*
X76200000Y-127000000D03*
X76200000Y-124460000D03*
X76200000Y-121920000D03*
X76200000Y-119380000D03*
X76200000Y-116840000D03*
X76200000Y-114300000D03*
X76200000Y-111760000D03*
X76200000Y-109220000D03*
X76200000Y-106680000D03*
X76200000Y-104140000D03*
X76200000Y-101600000D03*
X76200000Y-99060000D03*
X76200000Y-96520000D03*
X76200000Y-93980000D03*
X76200000Y-91440000D03*
X76200000Y-88900000D03*
X76200000Y-86360000D03*
X76200000Y-83820000D03*
X76200000Y-81280000D03*
X76200000Y-78740000D03*
X76200000Y-76200000D03*
X76200000Y-73660000D03*
X76200000Y-71120000D03*
X76200000Y-68580000D03*
X76200000Y-66040000D03*
X73660000Y-144780000D03*
X73660000Y-142240000D03*
X73660000Y-139700000D03*
X73660000Y-137160000D03*
X73660000Y-134620000D03*
X73660000Y-132080000D03*
X73660000Y-129540000D03*
X73660000Y-127000000D03*
X73660000Y-124460000D03*
X73660000Y-121920000D03*
X73660000Y-119380000D03*
X73660000Y-116840000D03*
X73660000Y-114300000D03*
X73660000Y-111760000D03*
X73660000Y-109220000D03*
X73660000Y-106680000D03*
X73660000Y-104140000D03*
X73660000Y-101600000D03*
X73660000Y-99060000D03*
X73660000Y-96520000D03*
X73660000Y-93980000D03*
X73660000Y-91440000D03*
X73660000Y-88900000D03*
X73660000Y-86360000D03*
X73660000Y-83820000D03*
X73660000Y-81280000D03*
X73660000Y-78740000D03*
X73660000Y-76200000D03*
X73660000Y-73660000D03*
X73660000Y-71120000D03*
X73660000Y-68580000D03*
X73660000Y-66040000D03*
X71120000Y-144780000D03*
X71120000Y-142240000D03*
X71120000Y-139700000D03*
X71120000Y-137160000D03*
X71120000Y-134620000D03*
X71120000Y-132080000D03*
X71120000Y-129540000D03*
X71120000Y-127000000D03*
X71120000Y-124460000D03*
X71120000Y-121920000D03*
X71120000Y-119380000D03*
X71120000Y-116840000D03*
X71120000Y-114300000D03*
X71120000Y-111760000D03*
X71120000Y-109220000D03*
X71120000Y-106680000D03*
X71120000Y-104140000D03*
X71120000Y-101600000D03*
X71120000Y-99060000D03*
X71120000Y-96520000D03*
X71120000Y-93980000D03*
X71120000Y-91440000D03*
X71120000Y-88900000D03*
X71120000Y-86360000D03*
X71120000Y-83820000D03*
X71120000Y-81280000D03*
X71120000Y-78740000D03*
X71120000Y-76200000D03*
X71120000Y-73660000D03*
X71120000Y-71120000D03*
X71120000Y-68580000D03*
G36*
G01*
X70345000Y-66565450D02*
X70345000Y-65514550D01*
G75*
G02*
X70594550Y-65265000I249550J0D01*
G01*
X71645450Y-65265000D01*
G75*
G02*
X71895000Y-65514550I0J-249550D01*
G01*
X71895000Y-66565450D01*
G75*
G02*
X71645450Y-66815000I-249550J0D01*
G01*
X70594550Y-66815000D01*
G75*
G02*
X70345000Y-66565450I0J249550D01*
G01*
G37*
%TD*%
D13*
%TO.C,J2*%
X85090000Y-91440000D03*
D14*
X82550000Y-91440000D03*
%TD*%
D13*
%TO.C,J3*%
X85090000Y-134620000D03*
D14*
X82550000Y-134620000D03*
%TD*%
%TO.C,J5*%
X109220000Y-91440000D03*
D13*
X111760000Y-91440000D03*
%TD*%
D14*
%TO.C,J6*%
X109220000Y-134620000D03*
D13*
X111760000Y-134620000D03*
%TD*%
D14*
%TO.C,J8*%
X162560000Y-91440000D03*
D13*
X165100000Y-91440000D03*
%TD*%
%TO.C,J9*%
X165100000Y-134620000D03*
D14*
X162560000Y-134620000D03*
%TD*%
D13*
%TO.C,J11*%
X220980000Y-91440000D03*
D14*
X218440000Y-91440000D03*
%TD*%
%TO.C,J12*%
X218440000Y-134620000D03*
D13*
X220980000Y-134620000D03*
%TD*%
%TO.C,J15*%
X138430000Y-91440000D03*
D14*
X135890000Y-91440000D03*
%TD*%
D13*
%TO.C,J16*%
X138430000Y-134620000D03*
D14*
X135890000Y-134620000D03*
%TD*%
%TO.C,J18*%
X190500000Y-91440000D03*
D13*
X193040000Y-91440000D03*
%TD*%
D14*
%TO.C,J19*%
X190500000Y-134620000D03*
D13*
X193040000Y-134620000D03*
%TD*%
M02*
