M48
; DRILL file {KiCad (5.1.10)-1} date 01/24/22 17:18:50
; FORMAT={-:-/ absolute / inch / decimal}
; #@! TF.CreationDate,2022-01-24T17:18:50+01:00
; #@! TF.GenerationSoftware,Kicad,Pcbnew,(5.1.10)-1
; #@! TF.FileFunction,Plated,1,2,PTH
FMAT,2
INCH
T1C0.0157
T2C0.0276
T3C0.0315
T4C0.0394
T5C0.0472
T6C0.0551
T7C0.0630
%
G90
G05
T1
X2.8Y-5.1
X2.8423Y-3.8077
X2.85Y-3.25
X2.85Y-5.0
X2.85Y-5.1
X2.85Y-5.2
X2.85Y-5.7
X2.85Y-5.7
X2.9Y-3.2
X2.9Y-3.75
X2.9Y-4.9
X2.9Y-5.0
X2.9Y-5.05
X2.9039Y-3.1539
X2.9484Y-4.9484
X2.95Y-3.1
X2.95Y-3.4
X2.95Y-3.9
X2.95Y-4.05
X2.95Y-4.1
X2.95Y-4.2
X2.95Y-4.8
X2.95Y-5.3
X3.0Y-3.65
X3.0Y-4.0
X3.0Y-4.15
X3.011Y-5.539
X3.05Y-3.45
X3.05Y-3.85
X3.1Y-3.5
X3.1Y-6.05
X3.15Y-3.55
X3.15Y-3.85
X3.2Y-4.1
X3.2Y-4.9
X3.25Y-4.5
X3.25Y-6.2
X3.26Y-3.29
X3.3Y-4.0
X3.3Y-5.0
X3.55Y-4.0
X3.55Y-4.5
X3.55Y-4.8
X3.55Y-6.2
X3.6Y-3.55
X3.7Y-5.95
X3.75Y-5.85
X3.8Y-5.75
X3.85Y-5.65
X4.2Y-5.45
X4.25Y-4.55
X4.25Y-5.6
X4.3Y-5.35
X4.3Y-6.15
X4.35Y-4.65
X4.4Y-5.25
X4.45Y-3.2
X4.5Y-4.0
X4.5Y-4.15
X4.75Y-5.1
X4.75Y-6.05
X4.75Y-6.35
X4.8Y-5.25
X4.8Y-5.7
X4.8Y-5.75
X4.8Y-5.8
X4.8Y-5.95
X4.85Y-4.25
X4.85Y-5.35
X4.85Y-5.75
X4.85Y-5.85
X4.85Y-6.1
X4.9Y-4.15
X4.9Y-5.45
X4.9Y-5.9
X4.95Y-5.55
X4.95Y-5.85
X5.0Y-4.8
X5.0Y-5.15
X5.0Y-5.65
X5.0Y-6.0
X5.05Y-3.3
X5.05Y-4.2
X5.05Y-4.6
X5.05Y-4.75
X5.05Y-5.1
X5.05Y-6.15
X5.05Y-6.65
X5.1Y-3.2
X5.1Y-3.3
X5.1Y-3.55
X5.1Y-4.35
X5.1Y-4.7
X5.1Y-4.95
X5.1Y-5.0
X5.1Y-5.3
X5.1Y-6.25
X5.2Y-6.6
X5.3Y-3.5
X5.3Y-3.8
X5.3Y-4.1
X5.3Y-4.5
X5.3Y-5.45
X5.35Y-4.2
X5.35Y-4.35
X5.35Y-4.6
X5.35Y-4.9
X5.35Y-5.65
X5.4Y-4.1
X5.4Y-4.7
X5.4Y-5.0
X5.4Y-6.25
X5.6Y-4.55
X5.6Y-4.8
X5.6Y-4.95
X5.6Y-6.0
X5.6Y-6.1
X5.65Y-4.35
X5.65Y-4.75
X5.65Y-4.85
X5.65Y-5.85
X5.65Y-5.95
X5.65Y-6.0
X5.7Y-4.2
X5.7Y-4.65
X5.7Y-5.45
X5.7Y-5.8
X5.7Y-6.05
X5.75Y-4.95
X5.75Y-5.15
X5.8Y-5.8
X5.8Y-5.9
X5.8Y-6.3
X5.9Y-5.45
X5.9Y-6.1
X5.9Y-6.6
X5.95Y-6.15
X6.05Y-4.5
X6.05Y-5.75
X6.1Y-5.7
X6.1Y-6.65
X6.15Y-3.05
X6.15Y-4.25
X6.15Y-4.75
X6.15Y-5.15
X6.2Y-4.8
X6.25Y-4.05
X6.25Y-4.6
X6.25Y-5.65
X6.3Y-3.75
X6.3Y-4.25
X6.3Y-4.7
X6.3Y-5.1
X6.35Y-3.95
X6.35Y-4.8
X6.4Y-4.35
X6.4Y-4.7
X6.4Y-4.75
X6.4Y-5.1
X6.45Y-4.7
X6.45Y-4.85
X6.45Y-5.7
X6.45Y-5.95
X6.5Y-4.55
X6.5Y-5.4
X6.5Y-6.25
X6.55Y-5.7
X6.55Y-6.3
X6.6Y-3.1
X6.6Y-3.35
X6.6Y-3.75
X6.6Y-4.5
X6.6Y-4.6
X6.6Y-5.1
X6.6Y-5.75
X6.65Y-4.25
X6.65Y-4.85
X6.65Y-6.55
X6.7Y-4.35
X6.7Y-4.65
X6.7Y-4.85
X6.7Y-5.45
X6.75Y-5.05
X6.8Y-5.35
X6.8Y-6.15
X6.85Y-3.2
X6.85Y-3.3
X6.85Y-4.55
X6.85Y-4.85
X6.85Y-5.1
X6.9Y-3.05
X6.9Y-4.15
X6.9Y-5.1
X6.9Y-5.4
X6.9Y-5.7
X6.95Y-3.05
X6.95Y-3.95
X7.0Y-3.05
X7.0Y-4.05
X7.0Y-4.1
X7.0Y-4.3
X7.0Y-4.55
X7.0Y-4.7
X7.0Y-4.85
X7.05Y-3.75
X7.05Y-5.15
X7.0557Y-6.3443
X7.1Y-3.55
X7.1Y-4.55
X7.1Y-5.05
X7.15Y-3.35
X7.15Y-3.45
X7.15Y-4.55
X7.15Y-5.05
X7.1999Y-4.4499
X7.2Y-4.0
X7.2Y-4.25
X7.2Y-5.4
X7.2Y-6.2
X7.25Y-4.15
X7.25Y-5.75
X7.3Y-4.35
X7.3Y-5.75
X7.35Y-4.8
X7.4Y-5.1
X7.4Y-5.85
X7.4Y-5.95
X7.45Y-3.2
X7.45Y-4.15
X7.45Y-4.3
X7.45Y-4.35
X7.45Y-4.5
X7.45Y-4.7
X7.45Y-5.45
X7.45Y-6.55
X7.5Y-3.1
X7.5Y-3.2
X7.5Y-3.35
X7.5Y-4.0
X7.5Y-4.25
X7.5Y-4.55
X7.5Y-4.65
X7.5Y-5.1
X7.55Y-3.1
X7.55Y-3.25
X7.55Y-3.35
X7.55Y-3.95
X7.55Y-4.05
X7.55Y-4.35
X7.55Y-4.45
X7.55Y-5.2
X7.55Y-5.75
X7.55Y-6.0
X7.55Y-6.1
X7.55Y-6.25
X7.65Y-5.6
X7.75Y-3.3
X7.75Y-3.7
X7.75Y-4.05
X7.75Y-4.85
X7.8Y-3.25
X7.8Y-3.5
X7.8Y-3.65
X7.8Y-4.0
X7.8Y-4.15
X7.8Y-4.6
X7.85Y-3.5
X7.85Y-3.95
X7.85Y-4.1
X7.85Y-4.5
X7.85Y-5.65
X7.85Y-6.15
X7.9Y-6.05
X7.95Y-3.95
X7.95Y-5.85
X8.05Y-3.05
X8.05Y-3.4
X8.05Y-3.55
X8.05Y-4.3
X8.15Y-4.75
X8.25Y-3.7
X8.25Y-4.55
X8.25Y-5.35
X8.3Y-3.05
X8.3Y-3.3
X8.3Y-3.55
X8.3Y-3.6
X8.3Y-4.35
X8.3Y-5.1
X8.35Y-3.05
X8.35Y-3.25
X8.35Y-3.45
X8.35Y-3.85
X8.35Y-4.0
X8.35Y-4.15
X8.35Y-4.2
X8.4Y-3.35
X8.4Y-4.8
X8.4Y-5.4
X8.45Y-3.95
X8.55Y-4.45
X8.55Y-5.05
X8.55Y-6.3
X8.6Y-4.25
X8.6Y-5.15
T3
X2.4921Y-3.472
X2.4921Y-3.5705
X2.4921Y-3.6689
X2.4921Y-3.7673
X2.4921Y-3.8657
X2.4921Y-3.9642
X2.4921Y-4.0626
X2.4921Y-4.161
X2.4921Y-4.2594
X2.4921Y-4.3579
X2.4921Y-4.4563
X2.4921Y-4.5547
X2.4921Y-4.6531
X2.4921Y-4.7516
X2.4921Y-4.85
X2.4921Y-4.9484
X2.4921Y-5.0469
X2.4921Y-5.1453
X2.4921Y-5.2437
X2.4921Y-5.3421
X2.4921Y-5.4406
X2.4921Y-5.539
X2.4921Y-5.6374
X2.4921Y-5.7358
X2.4921Y-5.8343
X2.4921Y-5.9327
X2.4921Y-6.0311
X2.4921Y-6.1295
X2.4921Y-6.228
X2.689Y-3.472
X2.689Y-3.5705
X2.689Y-3.6689
X2.689Y-3.7673
X2.689Y-3.8657
X2.689Y-3.9642
X2.689Y-4.0626
X2.689Y-4.161
X2.689Y-4.2594
X2.689Y-4.3579
X2.689Y-4.4563
X2.689Y-4.5547
X2.689Y-4.6531
X2.689Y-4.7516
X2.689Y-4.85
X2.689Y-4.9484
X2.689Y-5.0469
X2.689Y-5.1453
X2.689Y-5.2437
X2.689Y-5.3421
X2.689Y-5.4406
X2.689Y-5.539
X2.689Y-5.6374
X2.689Y-5.7358
X2.689Y-5.8343
X2.689Y-5.9327
X2.689Y-6.0311
X2.689Y-6.1295
X2.689Y-6.228
X3.1Y-4.0
X3.1Y-4.1
X3.1Y-4.2
X3.1Y-4.3
X3.1Y-4.4
X3.1Y-4.5
X3.1Y-4.6
X3.1Y-4.8
X3.1Y-4.9
X3.1Y-5.0
X3.1Y-5.1
X3.1Y-5.2
X3.1Y-5.3
X3.1Y-5.4
X3.1Y-5.5
X3.1516Y-5.8
X3.25Y-5.8
X3.4Y-4.0
X3.4Y-4.1
X3.4Y-4.2
X3.4Y-4.3
X3.4Y-4.4
X3.4Y-4.5
X3.4Y-4.6
X3.4Y-4.8
X3.4Y-4.9
X3.4Y-5.0
X3.4Y-5.1
X3.4Y-5.2
X3.4Y-5.3
X3.4Y-5.4
X3.4Y-5.5
X3.6Y-3.35
X3.6Y-3.65
X3.7Y-3.35
X3.7Y-3.65
X3.8Y-3.35
X3.8Y-3.65
X3.9Y-3.35
X3.9Y-3.65
X4.0Y-3.35
X4.0Y-3.65
X4.0Y-4.15
X4.0Y-4.25
X4.0Y-4.35
X4.0Y-4.45
X4.0Y-4.55
X4.0Y-4.65
X4.0Y-4.75
X4.0Y-4.85
X4.0Y-4.95
X4.0Y-5.05
X4.0Y-5.15
X4.0Y-5.25
X4.0Y-5.35
X4.0Y-5.45
X4.0Y-5.55
X4.0Y-5.65
X4.0Y-5.75
X4.0Y-5.85
X4.0Y-5.95
X4.0Y-6.05
X4.1Y-3.35
X4.1Y-3.65
X4.2Y-3.35
X4.2Y-3.65
X4.3Y-3.35
X4.3Y-3.65
X4.4Y-3.35
X4.4Y-3.65
X4.5Y-3.35
X4.5Y-3.65
X4.6Y-4.15
X4.6Y-4.25
X4.6Y-4.35
X4.6Y-4.45
X4.6Y-4.55
X4.6Y-4.65
X4.6Y-4.75
X4.6Y-4.85
X4.6Y-4.95
X4.6Y-5.05
X4.6Y-5.15
X4.6Y-5.25
X4.6Y-5.35
X4.6Y-5.45
X4.6Y-5.55
X4.6Y-5.65
X4.6Y-5.75
X4.6Y-5.85
X4.6Y-5.95
X4.6Y-6.05
X4.65Y-3.2
X4.7484Y-3.2
X4.9Y-3.3
X4.9Y-3.4
X4.9Y-3.5
X4.9Y-3.6
X4.9Y-3.7
X4.9Y-3.8
X4.9Y-3.9
X5.15Y-5.3
X5.2Y-3.3
X5.2Y-3.4
X5.2Y-3.5
X5.2Y-3.6
X5.2Y-3.7
X5.2Y-3.8
X5.2Y-3.9
X5.2Y-4.2
X5.2Y-4.3
X5.2Y-4.4
X5.2Y-4.5
X5.2Y-4.6
X5.2Y-4.7
X5.2Y-4.8
X5.2Y-4.9
X5.2Y-5.0
X5.2Y-5.1
X5.2Y-5.45
X5.2Y-5.55
X5.2Y-5.65
X5.2Y-5.75
X5.2Y-5.85
X5.2Y-5.95
X5.2Y-6.05
X5.2Y-6.15
X5.2Y-6.25
X5.2Y-6.35
X5.5Y-4.2
X5.5Y-4.3
X5.5Y-4.4
X5.5Y-4.5
X5.5Y-4.6
X5.5Y-4.7
X5.5Y-4.8
X5.5Y-4.9
X5.5Y-5.0
X5.5Y-5.1
X5.5Y-5.45
X5.5Y-5.55
X5.5Y-5.65
X5.5Y-5.75
X5.5Y-5.85
X5.5Y-5.95
X5.5Y-6.05
X5.5Y-6.15
X5.5Y-6.25
X5.5Y-6.35
X5.55Y-5.3
X5.6516Y-6.6
X5.75Y-6.1579
X5.75Y-6.35
X5.75Y-6.6
X5.9Y-3.15
X5.9Y-3.25
X5.9Y-3.35
X5.9Y-3.45
X5.9Y-3.55
X5.9Y-3.65
X5.9Y-3.75
X5.9Y-3.85
X5.9Y-3.95
X5.9Y-4.05
X5.9Y-4.15
X5.9Y-4.25
X5.9Y-4.35
X5.9Y-4.45
X5.9Y-4.95
X5.9Y-5.25
X5.9Y-5.55
X5.9Y-5.85
X5.95Y-4.65
X6.0Y-4.95
X6.0Y-5.25
X6.0Y-5.55
X6.0Y-5.85
X6.0484Y-4.65
X6.05Y-6.1
X6.05Y-6.4
X6.05Y-6.55
X6.1Y-4.95
X6.1Y-5.25
X6.1Y-5.55
X6.1Y-5.85
X6.15Y-6.1
X6.15Y-6.4
X6.2Y-4.95
X6.2Y-5.25
X6.2Y-5.55
X6.2Y-5.85
X6.25Y-6.1
X6.25Y-6.4
X6.3Y-4.95
X6.3Y-5.25
X6.3Y-5.55
X6.3Y-5.85
X6.35Y-6.1
X6.35Y-6.4
X6.4Y-4.95
X6.4Y-5.25
X6.4Y-5.55
X6.4Y-5.85
X6.45Y-6.1
X6.45Y-6.4
X6.45Y-6.55
X6.5Y-3.15
X6.5Y-3.25
X6.5Y-3.35
X6.5Y-3.45
X6.5Y-3.55
X6.5Y-3.65
X6.5Y-3.75
X6.5Y-3.85
X6.5Y-3.95
X6.5Y-4.05
X6.5Y-4.15
X6.5Y-4.25
X6.5Y-4.35
X6.5Y-4.45
X6.5Y-4.95
X6.5Y-5.25
X6.5Y-5.55
X6.5Y-5.85
X6.55Y-6.1
X6.55Y-6.4
X6.65Y-6.1
X6.65Y-6.4
X6.7Y-4.95
X6.7Y-5.25
X6.7Y-5.55
X6.7Y-5.85
X6.75Y-3.15
X6.75Y-3.25
X6.75Y-3.35
X6.75Y-3.45
X6.75Y-3.55
X6.75Y-3.65
X6.75Y-3.75
X6.75Y-3.85
X6.75Y-3.95
X6.75Y-4.05
X6.75Y-4.15
X6.75Y-4.25
X6.75Y-4.35
X6.75Y-4.45
X6.8Y-4.65
X6.8Y-4.95
X6.8Y-5.25
X6.8Y-5.55
X6.8Y-5.85
X6.8984Y-4.65
X6.9Y-4.95
X6.9Y-5.25
X6.9Y-5.55
X6.9Y-5.85
X6.9Y-6.45
X7.0Y-4.95
X7.0Y-5.25
X7.0Y-5.55
X7.0Y-5.85
X7.1Y-4.95
X7.1Y-5.25
X7.1Y-5.55
X7.1Y-5.85
X7.2Y-4.95
X7.2Y-5.25
X7.2Y-5.55
X7.2Y-5.85
X7.3Y-4.95
X7.3Y-5.25
X7.3Y-5.55
X7.3Y-5.85
X7.3Y-6.45
X7.35Y-3.15
X7.35Y-3.25
X7.35Y-3.35
X7.35Y-3.45
X7.35Y-3.55
X7.35Y-3.65
X7.35Y-3.75
X7.35Y-3.85
X7.35Y-3.95
X7.35Y-4.05
X7.35Y-4.15
X7.35Y-4.25
X7.35Y-4.35
X7.35Y-4.45
X7.4Y-4.95
X7.4Y-5.25
X7.45Y-6.0016
X7.45Y-6.1
X7.45Y-6.2
X7.45Y-6.2984
X7.5Y-5.65
X7.6Y-5.9
X7.6Y-6.3
X7.65Y-3.15
X7.65Y-3.25
X7.65Y-3.35
X7.65Y-3.45
X7.65Y-3.55
X7.65Y-3.65
X7.65Y-3.75
X7.65Y-4.05
X7.65Y-4.15
X7.65Y-4.25
X7.65Y-4.35
X7.65Y-4.45
X7.65Y-4.55
X7.65Y-4.65
X7.65Y-4.95
X7.65Y-5.25
X7.75Y-4.95
X7.75Y-5.25
X7.85Y-4.95
X7.85Y-5.25
X7.95Y-3.15
X7.95Y-3.25
X7.95Y-3.35
X7.95Y-3.45
X7.95Y-3.55
X7.95Y-3.65
X7.95Y-3.75
X7.95Y-4.05
X7.95Y-4.15
X7.95Y-4.25
X7.95Y-4.35
X7.95Y-4.45
X7.95Y-4.55
X7.95Y-4.65
X7.95Y-4.95
X7.95Y-5.25
X8.0Y-3.9
X8.05Y-4.95
X8.05Y-5.25
X8.0984Y-3.9
X8.15Y-3.15
X8.15Y-3.25
X8.15Y-3.35
X8.15Y-3.45
X8.15Y-3.55
X8.15Y-3.65
X8.15Y-3.75
X8.15Y-4.05
X8.15Y-4.15
X8.15Y-4.25
X8.15Y-4.35
X8.15Y-4.45
X8.15Y-4.55
X8.15Y-4.65
X8.15Y-4.95
X8.15Y-5.25
X8.25Y-4.95
X8.25Y-5.25
X8.35Y-4.95
X8.35Y-5.25
X8.45Y-3.15
X8.45Y-3.25
X8.45Y-3.35
X8.45Y-3.45
X8.45Y-3.55
X8.45Y-3.65
X8.45Y-3.75
X8.45Y-4.05
X8.45Y-4.15
X8.45Y-4.25
X8.45Y-4.35
X8.45Y-4.45
X8.45Y-4.55
X8.45Y-4.65
X8.5827Y-5.65
T4
X2.209Y-3.4
X2.209Y-3.5
X2.209Y-3.6
X2.209Y-3.7
X2.209Y-3.8
X2.209Y-3.9
X2.209Y-4.0
X2.209Y-4.1
X2.209Y-4.2
X2.209Y-4.3
X2.209Y-4.4
X2.209Y-4.5
X2.209Y-4.6
X2.209Y-4.7
X2.209Y-4.8
X2.209Y-4.9
X2.209Y-5.0
X2.209Y-5.1
X2.209Y-5.2
X2.209Y-5.3
X2.209Y-5.4
X2.209Y-5.5
X2.209Y-5.6
X2.209Y-5.7
X2.209Y-5.8
X2.209Y-5.9
X2.209Y-6.0
X2.209Y-6.1
X2.209Y-6.2
X2.409Y-3.4
X2.409Y-3.5
X2.409Y-3.6
X2.409Y-3.7
X2.409Y-3.8
X2.409Y-3.9
X2.409Y-4.0
X2.409Y-4.1
X2.409Y-4.2
X2.409Y-4.3
X2.409Y-4.4
X2.409Y-4.5
X2.409Y-4.6
X2.409Y-4.7
X2.409Y-4.8
X2.409Y-4.9
X2.409Y-5.0
X2.409Y-5.1
X2.409Y-5.2
X2.409Y-5.3
X2.409Y-5.4
X2.409Y-5.5
X2.409Y-5.6
X2.409Y-5.7
X2.409Y-5.8
X2.409Y-5.9
X2.409Y-6.0
X2.409Y-6.1
X2.409Y-6.2
T5
X6.9Y-6.05
X6.9Y-6.25
X7.3Y-6.05
X7.3Y-6.25
T6
X8.1016Y-6.15
T7
X2.109Y-3.1
X2.109Y-6.6
X2.1969Y-3.226
X2.1969Y-6.474
T2
G00X8.0681Y-5.9335
M15
G01X8.0169Y-5.9335
M16
G05
G00X8.0681Y-6.3665
M15
G01X8.0169Y-6.3665
M16
G05
G00X8.3969Y-6.1756
M15
G01X8.3969Y-6.1244
M16
G05
T0
M30
