%TF.GenerationSoftware,KiCad,Pcbnew,(5.1.10)-1*%
%TF.CreationDate,2022-01-24T17:18:54+01:00*%
%TF.ProjectId,GDC01,47444330-312e-46b6-9963-61645f706362,rev?*%
%TF.SameCoordinates,Original*%
%TF.FileFunction,Soldermask,Bot*%
%TF.FilePolarity,Negative*%
%FSLAX46Y46*%
G04 Gerber Fmt 4.6, Leading zero omitted, Abs format (unit mm)*
G04 Created by KiCad (PCBNEW (5.1.10)-1) date 2022-01-24 17:18:54*
%MOMM*%
%LPD*%
G01*
G04 APERTURE LIST*
%ADD10O,4.000000X2.700000*%
%ADD11C,3.400000*%
%ADD12O,2.700000X4.000000*%
%ADD13C,1.600000*%
%ADD14C,1.500000*%
%ADD15O,1.600000X2.400000*%
%ADD16R,1.600000X2.400000*%
%ADD17O,1.600000X1.600000*%
%ADD18O,2.400000X2.400000*%
%ADD19R,2.400000X2.400000*%
%ADD20R,2.400000X1.600000*%
%ADD21O,2.400000X1.600000*%
%ADD22R,1.600000X1.600000*%
%ADD23C,1.610000*%
%ADD24C,1.400000*%
G04 APERTURE END LIST*
D10*
%TO.C,J1*%
X204280000Y-150710000D03*
X204280000Y-161710000D03*
D11*
X205780000Y-156210000D03*
D12*
X213280000Y-156210000D03*
%TD*%
D13*
%TO.C,C9*%
X143550000Y-167640000D03*
X146050000Y-167640000D03*
%TD*%
%TO.C,C8*%
X205700000Y-99060000D03*
X203200000Y-99060000D03*
%TD*%
%TO.C,C7*%
X153630000Y-118110000D03*
X151130000Y-118110000D03*
%TD*%
%TO.C,C6*%
X175220000Y-118110000D03*
X172720000Y-118110000D03*
%TD*%
%TO.C,C5*%
X80050000Y-147320000D03*
X82550000Y-147320000D03*
%TD*%
%TO.C,C4*%
X120610000Y-81280000D03*
X118110000Y-81280000D03*
%TD*%
D14*
%TO.C,Y1*%
X146050000Y-156410000D03*
X146050000Y-161290000D03*
%TD*%
D15*
%TO.C,U9*%
X170180000Y-140970000D03*
X185420000Y-148590000D03*
X172720000Y-140970000D03*
X182880000Y-148590000D03*
X175260000Y-140970000D03*
X180340000Y-148590000D03*
X177800000Y-140970000D03*
X177800000Y-148590000D03*
X180340000Y-140970000D03*
X175260000Y-148590000D03*
X182880000Y-140970000D03*
X172720000Y-148590000D03*
X185420000Y-140970000D03*
D16*
X170180000Y-148590000D03*
%TD*%
D17*
%TO.C,R4*%
X140970000Y-134620000D03*
D13*
X130810000Y-134620000D03*
%TD*%
D17*
%TO.C,R3*%
X193040000Y-149860000D03*
D13*
X193040000Y-160020000D03*
%TD*%
D17*
%TO.C,R2*%
X185420000Y-163830000D03*
D13*
X175260000Y-163830000D03*
%TD*%
D17*
%TO.C,R1*%
X163830000Y-166370000D03*
D13*
X153670000Y-166370000D03*
%TD*%
D18*
%TO.C,D2*%
X185420000Y-153670000D03*
D19*
X175260000Y-153670000D03*
%TD*%
D18*
%TO.C,D1*%
X185420000Y-158750000D03*
D19*
X175260000Y-158750000D03*
%TD*%
D13*
%TO.C,C3*%
X189230000Y-159980000D03*
X189230000Y-157480000D03*
%TD*%
D17*
%TO.C,C2*%
X218000000Y-143510000D03*
D13*
X190500000Y-143510000D03*
%TD*%
%TO.C,C1*%
X189230000Y-152440000D03*
X189230000Y-154940000D03*
%TD*%
D15*
%TO.C,U1*%
X153670000Y-154940000D03*
X168910000Y-162560000D03*
X156210000Y-154940000D03*
X166370000Y-162560000D03*
X158750000Y-154940000D03*
X163830000Y-162560000D03*
X161290000Y-154940000D03*
X161290000Y-162560000D03*
X163830000Y-154940000D03*
X158750000Y-162560000D03*
X166370000Y-154940000D03*
X156210000Y-162560000D03*
X168910000Y-154940000D03*
D16*
X153670000Y-162560000D03*
%TD*%
D15*
%TO.C,U6*%
X149860000Y-140970000D03*
X165100000Y-148590000D03*
X152400000Y-140970000D03*
X162560000Y-148590000D03*
X154940000Y-140970000D03*
X160020000Y-148590000D03*
X157480000Y-140970000D03*
X157480000Y-148590000D03*
X160020000Y-140970000D03*
X154940000Y-148590000D03*
X162560000Y-140970000D03*
X152400000Y-148590000D03*
X165100000Y-140970000D03*
D16*
X149860000Y-148590000D03*
%TD*%
%TO.C,U2*%
X114300000Y-85090000D03*
D15*
X91440000Y-92710000D03*
X111760000Y-85090000D03*
X93980000Y-92710000D03*
X109220000Y-85090000D03*
X96520000Y-92710000D03*
X106680000Y-85090000D03*
X99060000Y-92710000D03*
X104140000Y-85090000D03*
X101600000Y-92710000D03*
X101600000Y-85090000D03*
X104140000Y-92710000D03*
X99060000Y-85090000D03*
X106680000Y-92710000D03*
X96520000Y-85090000D03*
X109220000Y-92710000D03*
X93980000Y-85090000D03*
X111760000Y-92710000D03*
X91440000Y-85090000D03*
X114300000Y-92710000D03*
%TD*%
D20*
%TO.C,U3*%
X78740000Y-121920000D03*
D21*
X86360000Y-139700000D03*
X78740000Y-124460000D03*
X86360000Y-137160000D03*
X78740000Y-127000000D03*
X86360000Y-134620000D03*
X78740000Y-129540000D03*
X86360000Y-132080000D03*
X78740000Y-132080000D03*
X86360000Y-129540000D03*
X78740000Y-134620000D03*
X86360000Y-127000000D03*
X78740000Y-137160000D03*
X86360000Y-124460000D03*
X78740000Y-139700000D03*
X86360000Y-121920000D03*
%TD*%
D15*
%TO.C,U7*%
X194310000Y-125730000D03*
X212090000Y-133350000D03*
X196850000Y-125730000D03*
X209550000Y-133350000D03*
X199390000Y-125730000D03*
X207010000Y-133350000D03*
X201930000Y-125730000D03*
X204470000Y-133350000D03*
X204470000Y-125730000D03*
X201930000Y-133350000D03*
X207010000Y-125730000D03*
X199390000Y-133350000D03*
X209550000Y-125730000D03*
X196850000Y-133350000D03*
X212090000Y-125730000D03*
D16*
X194310000Y-133350000D03*
%TD*%
D21*
%TO.C,U14*%
X124460000Y-99060000D03*
X132080000Y-83820000D03*
X124460000Y-96520000D03*
X132080000Y-86360000D03*
X124460000Y-93980000D03*
X132080000Y-88900000D03*
X124460000Y-91440000D03*
X132080000Y-91440000D03*
X124460000Y-88900000D03*
X132080000Y-93980000D03*
X124460000Y-86360000D03*
X132080000Y-96520000D03*
X124460000Y-83820000D03*
D20*
X132080000Y-99060000D03*
%TD*%
%TO.C,U5*%
X78740000Y-101600000D03*
D21*
X86360000Y-116840000D03*
X78740000Y-104140000D03*
X86360000Y-114300000D03*
X78740000Y-106680000D03*
X86360000Y-111760000D03*
X78740000Y-109220000D03*
X86360000Y-109220000D03*
X78740000Y-111760000D03*
X86360000Y-106680000D03*
X78740000Y-114300000D03*
X86360000Y-104140000D03*
X78740000Y-116840000D03*
X86360000Y-101600000D03*
%TD*%
D16*
%TO.C,U6*%
X149860000Y-133350000D03*
D15*
X165100000Y-125730000D03*
X152400000Y-133350000D03*
X162560000Y-125730000D03*
X154940000Y-133350000D03*
X160020000Y-125730000D03*
X157480000Y-133350000D03*
X157480000Y-125730000D03*
X160020000Y-133350000D03*
X154940000Y-125730000D03*
X162560000Y-133350000D03*
X152400000Y-125730000D03*
X165100000Y-133350000D03*
X149860000Y-125730000D03*
%TD*%
D16*
%TO.C,U4*%
X170180000Y-133350000D03*
D15*
X187960000Y-125730000D03*
X172720000Y-133350000D03*
X185420000Y-125730000D03*
X175260000Y-133350000D03*
X182880000Y-125730000D03*
X177800000Y-133350000D03*
X180340000Y-125730000D03*
X180340000Y-133350000D03*
X177800000Y-125730000D03*
X182880000Y-133350000D03*
X175260000Y-125730000D03*
X185420000Y-133350000D03*
X172720000Y-125730000D03*
X187960000Y-133350000D03*
X170180000Y-125730000D03*
%TD*%
D22*
%TO.C,U8*%
X101600000Y-105410000D03*
D17*
X116840000Y-153670000D03*
X101600000Y-107950000D03*
X116840000Y-151130000D03*
X101600000Y-110490000D03*
X116840000Y-148590000D03*
X101600000Y-113030000D03*
X116840000Y-146050000D03*
X101600000Y-115570000D03*
X116840000Y-143510000D03*
X101600000Y-118110000D03*
X116840000Y-140970000D03*
X101600000Y-120650000D03*
X116840000Y-138430000D03*
X101600000Y-123190000D03*
X116840000Y-135890000D03*
X101600000Y-125730000D03*
X116840000Y-133350000D03*
X101600000Y-128270000D03*
X116840000Y-130810000D03*
X101600000Y-130810000D03*
X116840000Y-128270000D03*
X101600000Y-133350000D03*
X116840000Y-125730000D03*
X101600000Y-135890000D03*
X116840000Y-123190000D03*
X101600000Y-138430000D03*
X116840000Y-120650000D03*
X101600000Y-140970000D03*
X116840000Y-118110000D03*
X101600000Y-143510000D03*
X116840000Y-115570000D03*
X101600000Y-146050000D03*
X116840000Y-113030000D03*
X101600000Y-148590000D03*
X116840000Y-110490000D03*
X101600000Y-151130000D03*
X116840000Y-107950000D03*
X101600000Y-153670000D03*
X116840000Y-105410000D03*
%TD*%
D20*
%TO.C,U10*%
X194310000Y-102870000D03*
D21*
X201930000Y-118110000D03*
X194310000Y-105410000D03*
X201930000Y-115570000D03*
X194310000Y-107950000D03*
X201930000Y-113030000D03*
X194310000Y-110490000D03*
X201930000Y-110490000D03*
X194310000Y-113030000D03*
X201930000Y-107950000D03*
X194310000Y-115570000D03*
X201930000Y-105410000D03*
X194310000Y-118110000D03*
X201930000Y-102870000D03*
%TD*%
%TO.C,U11*%
X201930000Y-80010000D03*
X194310000Y-95250000D03*
X201930000Y-82550000D03*
X194310000Y-92710000D03*
X201930000Y-85090000D03*
X194310000Y-90170000D03*
X201930000Y-87630000D03*
X194310000Y-87630000D03*
X201930000Y-90170000D03*
X194310000Y-85090000D03*
X201930000Y-92710000D03*
X194310000Y-82550000D03*
X201930000Y-95250000D03*
D20*
X194310000Y-80010000D03*
%TD*%
%TO.C,U12*%
X207010000Y-80010000D03*
D21*
X214630000Y-95250000D03*
X207010000Y-82550000D03*
X214630000Y-92710000D03*
X207010000Y-85090000D03*
X214630000Y-90170000D03*
X207010000Y-87630000D03*
X214630000Y-87630000D03*
X207010000Y-90170000D03*
X214630000Y-85090000D03*
X207010000Y-92710000D03*
X214630000Y-82550000D03*
X207010000Y-95250000D03*
X214630000Y-80010000D03*
%TD*%
%TO.C,U13*%
X214630000Y-102870000D03*
X207010000Y-118110000D03*
X214630000Y-105410000D03*
X207010000Y-115570000D03*
X214630000Y-107950000D03*
X207010000Y-113030000D03*
X214630000Y-110490000D03*
X207010000Y-110490000D03*
X214630000Y-113030000D03*
X207010000Y-107950000D03*
X214630000Y-115570000D03*
X207010000Y-105410000D03*
X214630000Y-118110000D03*
D20*
X207010000Y-102870000D03*
%TD*%
%TO.C,U15*%
X171450000Y-80010000D03*
D21*
X186690000Y-113030000D03*
X171450000Y-82550000D03*
X186690000Y-110490000D03*
X171450000Y-85090000D03*
X186690000Y-107950000D03*
X171450000Y-87630000D03*
X186690000Y-105410000D03*
X171450000Y-90170000D03*
X186690000Y-102870000D03*
X171450000Y-92710000D03*
X186690000Y-100330000D03*
X171450000Y-95250000D03*
X186690000Y-97790000D03*
X171450000Y-97790000D03*
X186690000Y-95250000D03*
X171450000Y-100330000D03*
X186690000Y-92710000D03*
X171450000Y-102870000D03*
X186690000Y-90170000D03*
X171450000Y-105410000D03*
X186690000Y-87630000D03*
X171450000Y-107950000D03*
X186690000Y-85090000D03*
X171450000Y-110490000D03*
X186690000Y-82550000D03*
X171450000Y-113030000D03*
X186690000Y-80010000D03*
%TD*%
%TO.C,U16*%
X165100000Y-80010000D03*
X149860000Y-113030000D03*
X165100000Y-82550000D03*
X149860000Y-110490000D03*
X165100000Y-85090000D03*
X149860000Y-107950000D03*
X165100000Y-87630000D03*
X149860000Y-105410000D03*
X165100000Y-90170000D03*
X149860000Y-102870000D03*
X165100000Y-92710000D03*
X149860000Y-100330000D03*
X165100000Y-95250000D03*
X149860000Y-97790000D03*
X165100000Y-97790000D03*
X149860000Y-95250000D03*
X165100000Y-100330000D03*
X149860000Y-92710000D03*
X165100000Y-102870000D03*
X149860000Y-90170000D03*
X165100000Y-105410000D03*
X149860000Y-87630000D03*
X165100000Y-107950000D03*
X149860000Y-85090000D03*
X165100000Y-110490000D03*
X149860000Y-82550000D03*
X165100000Y-113030000D03*
D20*
X149860000Y-80010000D03*
%TD*%
%TO.C,U17*%
X132080000Y-106680000D03*
D21*
X139700000Y-129540000D03*
X132080000Y-109220000D03*
X139700000Y-127000000D03*
X132080000Y-111760000D03*
X139700000Y-124460000D03*
X132080000Y-114300000D03*
X139700000Y-121920000D03*
X132080000Y-116840000D03*
X139700000Y-119380000D03*
X132080000Y-119380000D03*
X139700000Y-116840000D03*
X132080000Y-121920000D03*
X139700000Y-114300000D03*
X132080000Y-124460000D03*
X139700000Y-111760000D03*
X132080000Y-127000000D03*
X139700000Y-109220000D03*
X132080000Y-129540000D03*
X139700000Y-106680000D03*
%TD*%
%TO.C,U18*%
X139700000Y-138430000D03*
X132080000Y-161290000D03*
X139700000Y-140970000D03*
X132080000Y-158750000D03*
X139700000Y-143510000D03*
X132080000Y-156210000D03*
X139700000Y-146050000D03*
X132080000Y-153670000D03*
X139700000Y-148590000D03*
X132080000Y-151130000D03*
X139700000Y-151130000D03*
X132080000Y-148590000D03*
X139700000Y-153670000D03*
X132080000Y-146050000D03*
X139700000Y-156210000D03*
X132080000Y-143510000D03*
X139700000Y-158750000D03*
X132080000Y-140970000D03*
X139700000Y-161290000D03*
D20*
X132080000Y-138430000D03*
%TD*%
D23*
%TO.C,X1*%
X53568600Y-78740000D03*
X53568600Y-167640000D03*
D24*
X56108600Y-86360000D03*
X56108600Y-88900000D03*
X56108600Y-93980000D03*
X56108600Y-96520000D03*
X56108600Y-99060000D03*
X56108600Y-101600000D03*
X56108600Y-104140000D03*
X56108600Y-106680000D03*
X56108600Y-109220000D03*
X56108600Y-111760000D03*
X56108600Y-114300000D03*
X56108600Y-116840000D03*
X56108600Y-119380000D03*
X56108600Y-121920000D03*
X56108600Y-124460000D03*
X56108600Y-127000000D03*
X56108600Y-129540000D03*
X56108600Y-132080000D03*
X56108600Y-134620000D03*
X56108600Y-137160000D03*
X56108600Y-139700000D03*
X56108600Y-142240000D03*
X56108600Y-144780000D03*
X56108600Y-147320000D03*
X56108600Y-149860000D03*
X56108600Y-152400000D03*
X56108600Y-154940000D03*
X56108600Y-157480000D03*
X61188600Y-86360000D03*
X61188600Y-88900000D03*
X61188600Y-91440000D03*
X61188600Y-93980000D03*
X61188600Y-96520000D03*
X61188600Y-99060000D03*
X61188600Y-101600000D03*
X61188600Y-104140000D03*
X61188600Y-106680000D03*
X61188600Y-109220000D03*
X61188600Y-111760000D03*
X61188600Y-114300000D03*
X61188600Y-116840000D03*
X61188600Y-119380000D03*
X61188600Y-121920000D03*
X61188600Y-124460000D03*
X61188600Y-127000000D03*
X61188600Y-129540000D03*
X61188600Y-132080000D03*
X61188600Y-134620000D03*
X61188600Y-137160000D03*
X61188600Y-139700000D03*
X61188600Y-142240000D03*
X61188600Y-144780000D03*
X61188600Y-147320000D03*
X61188600Y-149860000D03*
X61188600Y-152400000D03*
X61188600Y-154940000D03*
X61188600Y-157480000D03*
D23*
X55800000Y-81940000D03*
D24*
X68300000Y-88190000D03*
X68300000Y-90690000D03*
X68300000Y-93190000D03*
X68300000Y-95690000D03*
X68300000Y-98190000D03*
X68300000Y-100690000D03*
X68300000Y-103190000D03*
X68300000Y-105690000D03*
X68300000Y-108190000D03*
X68300000Y-110690000D03*
X68300000Y-113190000D03*
X68300000Y-115690000D03*
X68300000Y-118190000D03*
X68300000Y-120690000D03*
X68300000Y-123190000D03*
X68300000Y-125690000D03*
X68300000Y-128190000D03*
X68300000Y-130690000D03*
X68300000Y-133190000D03*
X68300000Y-135690000D03*
X68300000Y-138190000D03*
X68300000Y-140690000D03*
X68300000Y-143190000D03*
X68300000Y-145690000D03*
X68300000Y-148190000D03*
X68300000Y-150690000D03*
X68300000Y-153190000D03*
X68300000Y-155690000D03*
X68300000Y-158190000D03*
X63300000Y-88190000D03*
X63300000Y-90690000D03*
X63300000Y-93190000D03*
X63300000Y-95690000D03*
X63300000Y-98190000D03*
X63300000Y-100690000D03*
X63300000Y-103190000D03*
X63300000Y-105690000D03*
X63300000Y-108190000D03*
X63300000Y-110690000D03*
X63300000Y-113190000D03*
X63300000Y-115690000D03*
X63300000Y-118190000D03*
X63300000Y-120690000D03*
X63300000Y-123190000D03*
X63300000Y-125690000D03*
X63300000Y-128190000D03*
X63300000Y-130690000D03*
X63300000Y-133190000D03*
X63300000Y-135690000D03*
X63300000Y-138190000D03*
X63300000Y-140690000D03*
X63300000Y-143190000D03*
X63300000Y-145690000D03*
X63300000Y-148190000D03*
X63300000Y-150690000D03*
X63300000Y-153190000D03*
X63300000Y-155690000D03*
X63300000Y-158190000D03*
X56108600Y-91440000D03*
%TD*%
M02*
