%TF.GenerationSoftware,KiCad,Pcbnew,(5.1.10)-1*%
%TF.CreationDate,2022-01-23T14:02:01+01:00*%
%TF.ProjectId,fdc01,66646330-312e-46b6-9963-61645f706362,rev?*%
%TF.SameCoordinates,Original*%
%TF.FileFunction,Soldermask,Top*%
%TF.FilePolarity,Negative*%
%FSLAX46Y46*%
G04 Gerber Fmt 4.6, Leading zero omitted, Abs format (unit mm)*
G04 Created by KiCad (PCBNEW (5.1.10)-1) date 2022-01-23 14:02:01*
%MOMM*%
%LPD*%
G01*
G04 APERTURE LIST*
%ADD10C,1.400000*%
%ADD11C,1.610000*%
%ADD12O,1.600000X1.600000*%
%ADD13C,1.600000*%
%ADD14O,2.400000X1.600000*%
%ADD15R,2.400000X1.600000*%
%ADD16C,1.500000*%
%ADD17O,1.600000X2.400000*%
%ADD18R,1.600000X2.400000*%
%ADD19O,1.700000X1.700000*%
%ADD20R,1.700000X1.700000*%
G04 APERTURE END LIST*
D10*
%TO.C,X1*%
X43408600Y-74930000D03*
X50600000Y-141680000D03*
X50600000Y-139180000D03*
X50600000Y-136680000D03*
X50600000Y-134180000D03*
X50600000Y-131680000D03*
X50600000Y-129180000D03*
X50600000Y-126680000D03*
X50600000Y-124180000D03*
X50600000Y-121680000D03*
X50600000Y-119180000D03*
X50600000Y-116680000D03*
X50600000Y-114180000D03*
X50600000Y-111680000D03*
X50600000Y-109180000D03*
X50600000Y-106680000D03*
X50600000Y-104180000D03*
X50600000Y-101680000D03*
X50600000Y-99180000D03*
X50600000Y-96680000D03*
X50600000Y-94180000D03*
X50600000Y-91680000D03*
X50600000Y-89180000D03*
X50600000Y-86680000D03*
X50600000Y-84180000D03*
X50600000Y-81680000D03*
X50600000Y-79180000D03*
X50600000Y-76680000D03*
X50600000Y-74180000D03*
X50600000Y-71680000D03*
X55600000Y-141680000D03*
X55600000Y-139180000D03*
X55600000Y-136680000D03*
X55600000Y-134180000D03*
X55600000Y-131680000D03*
X55600000Y-129180000D03*
X55600000Y-126680000D03*
X55600000Y-124180000D03*
X55600000Y-121680000D03*
X55600000Y-119180000D03*
X55600000Y-116680000D03*
X55600000Y-114180000D03*
X55600000Y-111680000D03*
X55600000Y-109180000D03*
X55600000Y-106680000D03*
X55600000Y-104180000D03*
X55600000Y-101680000D03*
X55600000Y-99180000D03*
X55600000Y-96680000D03*
X55600000Y-94180000D03*
X55600000Y-91680000D03*
X55600000Y-89180000D03*
X55600000Y-86680000D03*
X55600000Y-84180000D03*
X55600000Y-81680000D03*
X55600000Y-79180000D03*
X55600000Y-76680000D03*
X55600000Y-74180000D03*
X55600000Y-71680000D03*
D11*
X43100000Y-65430000D03*
D10*
X48488600Y-140970000D03*
X48488600Y-138430000D03*
X48488600Y-135890000D03*
X48488600Y-133350000D03*
X48488600Y-130810000D03*
X48488600Y-128270000D03*
X48488600Y-125730000D03*
X48488600Y-123190000D03*
X48488600Y-120650000D03*
X48488600Y-118110000D03*
X48488600Y-115570000D03*
X48488600Y-113030000D03*
X48488600Y-110490000D03*
X48488600Y-107950000D03*
X48488600Y-105410000D03*
X48488600Y-102870000D03*
X48488600Y-100330000D03*
X48488600Y-97790000D03*
X48488600Y-95250000D03*
X48488600Y-92710000D03*
X48488600Y-90170000D03*
X48488600Y-87630000D03*
X48488600Y-85090000D03*
X48488600Y-82550000D03*
X48488600Y-80010000D03*
X48488600Y-77470000D03*
X48488600Y-74930000D03*
X48488600Y-72390000D03*
X48488600Y-69850000D03*
X43408600Y-140970000D03*
X43408600Y-138430000D03*
X43408600Y-135890000D03*
X43408600Y-133350000D03*
X43408600Y-130810000D03*
X43408600Y-128270000D03*
X43408600Y-125730000D03*
X43408600Y-123190000D03*
X43408600Y-120650000D03*
X43408600Y-118110000D03*
X43408600Y-115570000D03*
X43408600Y-113030000D03*
X43408600Y-110490000D03*
X43408600Y-107950000D03*
X43408600Y-105410000D03*
X43408600Y-102870000D03*
X43408600Y-100330000D03*
X43408600Y-97790000D03*
X43408600Y-95250000D03*
X43408600Y-92710000D03*
X43408600Y-90170000D03*
X43408600Y-87630000D03*
X43408600Y-85090000D03*
X43408600Y-82550000D03*
X43408600Y-80010000D03*
X43408600Y-77470000D03*
X43408600Y-72390000D03*
X43408600Y-69850000D03*
D11*
X40868600Y-151130000D03*
X40868600Y-62230000D03*
%TD*%
D12*
%TO.C,R9*%
X123190000Y-123190000D03*
D13*
X113030000Y-123190000D03*
%TD*%
D14*
%TO.C,U5*%
X101600000Y-106680000D03*
X93980000Y-121920000D03*
X101600000Y-109220000D03*
X93980000Y-119380000D03*
X101600000Y-111760000D03*
X93980000Y-116840000D03*
X101600000Y-114300000D03*
X93980000Y-114300000D03*
X101600000Y-116840000D03*
X93980000Y-111760000D03*
X101600000Y-119380000D03*
X93980000Y-109220000D03*
X101600000Y-121920000D03*
D15*
X93980000Y-106680000D03*
%TD*%
D14*
%TO.C,U3*%
X86360000Y-78740000D03*
X78740000Y-101600000D03*
X86360000Y-81280000D03*
X78740000Y-99060000D03*
X86360000Y-83820000D03*
X78740000Y-96520000D03*
X86360000Y-86360000D03*
X78740000Y-93980000D03*
X86360000Y-88900000D03*
X78740000Y-91440000D03*
X86360000Y-91440000D03*
X78740000Y-88900000D03*
X86360000Y-93980000D03*
X78740000Y-86360000D03*
X86360000Y-96520000D03*
X78740000Y-83820000D03*
X86360000Y-99060000D03*
X78740000Y-81280000D03*
X86360000Y-101600000D03*
D15*
X78740000Y-78740000D03*
%TD*%
D14*
%TO.C,U12*%
X120650000Y-68580000D03*
X105410000Y-116840000D03*
X120650000Y-71120000D03*
X105410000Y-114300000D03*
X120650000Y-73660000D03*
X105410000Y-111760000D03*
X120650000Y-76200000D03*
X105410000Y-109220000D03*
X120650000Y-78740000D03*
X105410000Y-106680000D03*
X120650000Y-81280000D03*
X105410000Y-104140000D03*
X120650000Y-83820000D03*
X105410000Y-101600000D03*
X120650000Y-86360000D03*
X105410000Y-99060000D03*
X120650000Y-88900000D03*
X105410000Y-96520000D03*
X120650000Y-91440000D03*
X105410000Y-93980000D03*
X120650000Y-93980000D03*
X105410000Y-91440000D03*
X120650000Y-96520000D03*
X105410000Y-88900000D03*
X120650000Y-99060000D03*
X105410000Y-86360000D03*
X120650000Y-101600000D03*
X105410000Y-83820000D03*
X120650000Y-104140000D03*
X105410000Y-81280000D03*
X120650000Y-106680000D03*
X105410000Y-78740000D03*
X120650000Y-109220000D03*
X105410000Y-76200000D03*
X120650000Y-111760000D03*
X105410000Y-73660000D03*
X120650000Y-114300000D03*
X105410000Y-71120000D03*
X120650000Y-116840000D03*
D15*
X105410000Y-68580000D03*
%TD*%
D13*
%TO.C,C8*%
X112990000Y-132080000D03*
X110490000Y-132080000D03*
%TD*%
%TO.C,C7*%
X85130000Y-128270000D03*
X87630000Y-128270000D03*
%TD*%
%TO.C,C6*%
X96480000Y-71120000D03*
X93980000Y-71120000D03*
%TD*%
%TO.C,C5*%
X71080000Y-146050000D03*
X68580000Y-146050000D03*
%TD*%
%TO.C,C4*%
X191770000Y-121960000D03*
X191770000Y-124460000D03*
%TD*%
%TO.C,C3*%
X77430000Y-69850000D03*
X74930000Y-69850000D03*
%TD*%
%TO.C,C2*%
X187920000Y-88900000D03*
X185420000Y-88900000D03*
%TD*%
%TO.C,C1*%
X144820000Y-110490000D03*
X147320000Y-110490000D03*
%TD*%
D14*
%TO.C,U25*%
X181610000Y-88900000D03*
X173990000Y-104140000D03*
X181610000Y-91440000D03*
X173990000Y-101600000D03*
X181610000Y-93980000D03*
X173990000Y-99060000D03*
X181610000Y-96520000D03*
X173990000Y-96520000D03*
X181610000Y-99060000D03*
X173990000Y-93980000D03*
X181610000Y-101600000D03*
X173990000Y-91440000D03*
X181610000Y-104140000D03*
D15*
X173990000Y-88900000D03*
%TD*%
D16*
%TO.C,Y1*%
X111760000Y-144580000D03*
X111760000Y-139700000D03*
%TD*%
D14*
%TO.C,U14*%
X105410000Y-130810000D03*
X97790000Y-146050000D03*
X105410000Y-133350000D03*
X97790000Y-143510000D03*
X105410000Y-135890000D03*
X97790000Y-140970000D03*
X105410000Y-138430000D03*
X97790000Y-138430000D03*
X105410000Y-140970000D03*
X97790000Y-135890000D03*
X105410000Y-143510000D03*
X97790000Y-133350000D03*
X105410000Y-146050000D03*
D15*
X97790000Y-130810000D03*
%TD*%
D12*
%TO.C,R8*%
X123190000Y-127000000D03*
D13*
X113030000Y-127000000D03*
%TD*%
D14*
%TO.C,U28*%
X127000000Y-130810000D03*
X119380000Y-146050000D03*
X127000000Y-133350000D03*
X119380000Y-143510000D03*
X127000000Y-135890000D03*
X119380000Y-140970000D03*
X127000000Y-138430000D03*
X119380000Y-138430000D03*
X127000000Y-140970000D03*
X119380000Y-135890000D03*
X127000000Y-143510000D03*
X119380000Y-133350000D03*
X127000000Y-146050000D03*
D15*
X119380000Y-130810000D03*
%TD*%
D14*
%TO.C,U27*%
X165100000Y-64770000D03*
X157480000Y-80010000D03*
X165100000Y-67310000D03*
X157480000Y-77470000D03*
X165100000Y-69850000D03*
X157480000Y-74930000D03*
X165100000Y-72390000D03*
X157480000Y-72390000D03*
X165100000Y-74930000D03*
X157480000Y-69850000D03*
X165100000Y-77470000D03*
X157480000Y-67310000D03*
X165100000Y-80010000D03*
D15*
X157480000Y-64770000D03*
%TD*%
D14*
%TO.C,U26*%
X181610000Y-64770000D03*
X173990000Y-80010000D03*
X181610000Y-67310000D03*
X173990000Y-77470000D03*
X181610000Y-69850000D03*
X173990000Y-74930000D03*
X181610000Y-72390000D03*
X173990000Y-72390000D03*
X181610000Y-74930000D03*
X173990000Y-69850000D03*
X181610000Y-77470000D03*
X173990000Y-67310000D03*
X181610000Y-80010000D03*
D15*
X173990000Y-64770000D03*
%TD*%
D14*
%TO.C,U24*%
X151130000Y-64770000D03*
X143510000Y-80010000D03*
X151130000Y-67310000D03*
X143510000Y-77470000D03*
X151130000Y-69850000D03*
X143510000Y-74930000D03*
X151130000Y-72390000D03*
X143510000Y-72390000D03*
X151130000Y-74930000D03*
X143510000Y-69850000D03*
X151130000Y-77470000D03*
X143510000Y-67310000D03*
X151130000Y-80010000D03*
D15*
X143510000Y-64770000D03*
%TD*%
D14*
%TO.C,U23*%
X165100000Y-88900000D03*
X157480000Y-104140000D03*
X165100000Y-91440000D03*
X157480000Y-101600000D03*
X165100000Y-93980000D03*
X157480000Y-99060000D03*
X165100000Y-96520000D03*
X157480000Y-96520000D03*
X165100000Y-99060000D03*
X157480000Y-93980000D03*
X165100000Y-101600000D03*
X157480000Y-91440000D03*
X165100000Y-104140000D03*
D15*
X157480000Y-88900000D03*
%TD*%
D17*
%TO.C,U22*%
X148590000Y-114300000D03*
X163830000Y-121920000D03*
X151130000Y-114300000D03*
X161290000Y-121920000D03*
X153670000Y-114300000D03*
X158750000Y-121920000D03*
X156210000Y-114300000D03*
X156210000Y-121920000D03*
X158750000Y-114300000D03*
X153670000Y-121920000D03*
X161290000Y-114300000D03*
X151130000Y-121920000D03*
X163830000Y-114300000D03*
D18*
X148590000Y-121920000D03*
%TD*%
D14*
%TO.C,U21*%
X191770000Y-128270000D03*
X184150000Y-146050000D03*
X191770000Y-130810000D03*
X184150000Y-143510000D03*
X191770000Y-133350000D03*
X184150000Y-140970000D03*
X191770000Y-135890000D03*
X184150000Y-138430000D03*
X191770000Y-138430000D03*
X184150000Y-135890000D03*
X191770000Y-140970000D03*
X184150000Y-133350000D03*
X191770000Y-143510000D03*
X184150000Y-130810000D03*
X191770000Y-146050000D03*
D15*
X184150000Y-128270000D03*
%TD*%
D14*
%TO.C,U19*%
X143510000Y-128270000D03*
X135890000Y-146050000D03*
X143510000Y-130810000D03*
X135890000Y-143510000D03*
X143510000Y-133350000D03*
X135890000Y-140970000D03*
X143510000Y-135890000D03*
X135890000Y-138430000D03*
X143510000Y-138430000D03*
X135890000Y-135890000D03*
X143510000Y-140970000D03*
X135890000Y-133350000D03*
X143510000Y-143510000D03*
X135890000Y-130810000D03*
X143510000Y-146050000D03*
D15*
X135890000Y-128270000D03*
%TD*%
D14*
%TO.C,U18*%
X135890000Y-64770000D03*
X128270000Y-80010000D03*
X135890000Y-67310000D03*
X128270000Y-77470000D03*
X135890000Y-69850000D03*
X128270000Y-74930000D03*
X135890000Y-72390000D03*
X128270000Y-72390000D03*
X135890000Y-74930000D03*
X128270000Y-69850000D03*
X135890000Y-77470000D03*
X128270000Y-67310000D03*
X135890000Y-80010000D03*
D15*
X128270000Y-64770000D03*
%TD*%
D14*
%TO.C,U17*%
X177800000Y-128270000D03*
X170180000Y-146050000D03*
X177800000Y-130810000D03*
X170180000Y-143510000D03*
X177800000Y-133350000D03*
X170180000Y-140970000D03*
X177800000Y-135890000D03*
X170180000Y-138430000D03*
X177800000Y-138430000D03*
X170180000Y-135890000D03*
X177800000Y-140970000D03*
X170180000Y-133350000D03*
X177800000Y-143510000D03*
X170180000Y-130810000D03*
X177800000Y-146050000D03*
D15*
X170180000Y-128270000D03*
%TD*%
D14*
%TO.C,U16*%
X162560000Y-128270000D03*
X154940000Y-146050000D03*
X162560000Y-130810000D03*
X154940000Y-143510000D03*
X162560000Y-133350000D03*
X154940000Y-140970000D03*
X162560000Y-135890000D03*
X154940000Y-138430000D03*
X162560000Y-138430000D03*
X154940000Y-135890000D03*
X162560000Y-140970000D03*
X154940000Y-133350000D03*
X162560000Y-143510000D03*
X154940000Y-130810000D03*
X162560000Y-146050000D03*
D15*
X154940000Y-128270000D03*
%TD*%
D17*
%TO.C,U15*%
X127000000Y-114300000D03*
X142240000Y-121920000D03*
X129540000Y-114300000D03*
X139700000Y-121920000D03*
X132080000Y-114300000D03*
X137160000Y-121920000D03*
X134620000Y-114300000D03*
X134620000Y-121920000D03*
X137160000Y-114300000D03*
X132080000Y-121920000D03*
X139700000Y-114300000D03*
X129540000Y-121920000D03*
X142240000Y-114300000D03*
D18*
X127000000Y-121920000D03*
%TD*%
D14*
%TO.C,U9*%
X86360000Y-107950000D03*
X78740000Y-125730000D03*
X86360000Y-110490000D03*
X78740000Y-123190000D03*
X86360000Y-113030000D03*
X78740000Y-120650000D03*
X86360000Y-115570000D03*
X78740000Y-118110000D03*
X86360000Y-118110000D03*
X78740000Y-115570000D03*
X86360000Y-120650000D03*
X78740000Y-113030000D03*
X86360000Y-123190000D03*
X78740000Y-110490000D03*
X86360000Y-125730000D03*
D15*
X78740000Y-107950000D03*
%TD*%
D14*
%TO.C,U6*%
X86360000Y-132080000D03*
X78740000Y-147320000D03*
X86360000Y-134620000D03*
X78740000Y-144780000D03*
X86360000Y-137160000D03*
X78740000Y-142240000D03*
X86360000Y-139700000D03*
X78740000Y-139700000D03*
X86360000Y-142240000D03*
X78740000Y-137160000D03*
X86360000Y-144780000D03*
X78740000Y-134620000D03*
X86360000Y-147320000D03*
D15*
X78740000Y-132080000D03*
%TD*%
D17*
%TO.C,U1*%
X168910000Y-114300000D03*
X186690000Y-121920000D03*
X171450000Y-114300000D03*
X184150000Y-121920000D03*
X173990000Y-114300000D03*
X181610000Y-121920000D03*
X176530000Y-114300000D03*
X179070000Y-121920000D03*
X179070000Y-114300000D03*
X176530000Y-121920000D03*
X181610000Y-114300000D03*
X173990000Y-121920000D03*
X184150000Y-114300000D03*
X171450000Y-121920000D03*
X186690000Y-114300000D03*
D18*
X168910000Y-121920000D03*
%TD*%
D12*
%TO.C,R7*%
X185420000Y-76200000D03*
D13*
X185420000Y-86360000D03*
%TD*%
D12*
%TO.C,R6*%
X196850000Y-115570000D03*
D13*
X207010000Y-115570000D03*
%TD*%
D12*
%TO.C,R5*%
X196850000Y-119380000D03*
D13*
X207010000Y-119380000D03*
%TD*%
D12*
%TO.C,R4*%
X196850000Y-134620000D03*
D13*
X207010000Y-134620000D03*
%TD*%
D12*
%TO.C,R3*%
X196850000Y-130810000D03*
D13*
X207010000Y-130810000D03*
%TD*%
D12*
%TO.C,R2*%
X196850000Y-123190000D03*
D13*
X207010000Y-123190000D03*
%TD*%
D12*
%TO.C,R1*%
X196850000Y-127000000D03*
D13*
X207010000Y-127000000D03*
%TD*%
D19*
%TO.C,J1*%
X196850000Y-66040000D03*
X194310000Y-66040000D03*
X196850000Y-68580000D03*
X194310000Y-68580000D03*
X196850000Y-71120000D03*
X194310000Y-71120000D03*
X196850000Y-73660000D03*
X194310000Y-73660000D03*
X196850000Y-76200000D03*
X194310000Y-76200000D03*
X196850000Y-78740000D03*
X194310000Y-78740000D03*
X196850000Y-81280000D03*
X194310000Y-81280000D03*
X196850000Y-83820000D03*
X194310000Y-83820000D03*
X196850000Y-86360000D03*
X194310000Y-86360000D03*
X196850000Y-88900000D03*
X194310000Y-88900000D03*
X196850000Y-91440000D03*
X194310000Y-91440000D03*
X196850000Y-93980000D03*
X194310000Y-93980000D03*
X196850000Y-96520000D03*
X194310000Y-96520000D03*
X196850000Y-99060000D03*
X194310000Y-99060000D03*
X196850000Y-101600000D03*
X194310000Y-101600000D03*
X196850000Y-104140000D03*
X194310000Y-104140000D03*
X196850000Y-106680000D03*
D20*
X194310000Y-106680000D03*
%TD*%
M02*
