%TF.GenerationSoftware,KiCad,Pcbnew,(5.1.10)-1*%
%TF.CreationDate,2022-01-23T14:02:00+01:00*%
%TF.ProjectId,fdc01,66646330-312e-46b6-9963-61645f706362,rev?*%
%TF.SameCoordinates,Original*%
%TF.FileFunction,Legend,Top*%
%TF.FilePolarity,Positive*%
%FSLAX46Y46*%
G04 Gerber Fmt 4.6, Leading zero omitted, Abs format (unit mm)*
G04 Created by KiCad (PCBNEW (5.1.10)-1) date 2022-01-23 14:02:00*
%MOMM*%
%LPD*%
G01*
G04 APERTURE LIST*
%ADD10C,0.200000*%
%ADD11C,0.100000*%
%ADD12C,0.250000*%
%ADD13C,0.120000*%
%ADD14C,0.150000*%
G04 APERTURE END LIST*
D10*
%TO.C,X1*%
X43180000Y-153670000D02*
X43180000Y-59690000D01*
X30480000Y-64770000D02*
X30480000Y-148590000D01*
X30480000Y-148590000D02*
X38100000Y-148590000D01*
X38100000Y-148590000D02*
X38100000Y-153670000D01*
X38100000Y-153670000D02*
X43180000Y-153670000D01*
X38100000Y-59690000D02*
X38100000Y-64770000D01*
X38100000Y-64770000D02*
X30480000Y-64770000D01*
X43180000Y-59690000D02*
X38100000Y-59690000D01*
D11*
X42355900Y-62242700D02*
G75*
G03*
X42355900Y-62242700I-1500000J0D01*
G01*
X40855900Y-60337700D02*
X40855900Y-64147700D01*
X42760900Y-62242700D02*
X38950900Y-62242700D01*
X40868600Y-149225000D02*
X40868600Y-153035000D01*
X42773600Y-151130000D02*
X38963600Y-151130000D01*
X42368600Y-151130000D02*
G75*
G03*
X42368600Y-151130000I-1500000J0D01*
G01*
X43908600Y-67310000D02*
G75*
G03*
X43908600Y-67310000I-500000J0D01*
G01*
X43908600Y-143510000D02*
G75*
G03*
X43908600Y-143510000I-500000J0D01*
G01*
X43908600Y-146050000D02*
G75*
G03*
X43908600Y-146050000I-500000J0D01*
G01*
X48988600Y-67310000D02*
G75*
G03*
X48988600Y-67310000I-500000J0D01*
G01*
X48988600Y-143510000D02*
G75*
G03*
X48988600Y-143510000I-500000J0D01*
G01*
X48988600Y-146050000D02*
G75*
G03*
X48988600Y-146050000I-500000J0D01*
G01*
D10*
X40600000Y-62680000D02*
X40600000Y-150680000D01*
X40600000Y-62680000D02*
X48600000Y-62680000D01*
X48600000Y-62680000D02*
X48600000Y-150680000D01*
X48600000Y-150680000D02*
X40600000Y-150680000D01*
X40600000Y-145680000D02*
X33600000Y-145680000D01*
X33600000Y-145680000D02*
X33600000Y-67680000D01*
X33600000Y-67680000D02*
X40600000Y-67680000D01*
D11*
X44600000Y-65430000D02*
G75*
G03*
X44600000Y-65430000I-1500000J0D01*
G01*
X45100000Y-65430000D02*
X41100000Y-65430000D01*
X43100000Y-63430000D02*
X43100000Y-67430000D01*
X44600000Y-147930000D02*
G75*
G03*
X44600000Y-147930000I-1500000J0D01*
G01*
X45100000Y-147930000D02*
X41100000Y-147930000D01*
X43100000Y-145930000D02*
X43100000Y-149930000D01*
D12*
X39600000Y-106680000D02*
X36600000Y-106680000D01*
X38100000Y-105180000D02*
X38100000Y-108180000D01*
D13*
%TO.C,R9*%
X114840000Y-121820000D02*
X114840000Y-124560000D01*
X114840000Y-124560000D02*
X121380000Y-124560000D01*
X121380000Y-124560000D02*
X121380000Y-121820000D01*
X121380000Y-121820000D02*
X114840000Y-121820000D01*
X114070000Y-123190000D02*
X114840000Y-123190000D01*
X122150000Y-123190000D02*
X121380000Y-123190000D01*
%TO.C,U5*%
X100040000Y-105350000D02*
X98790000Y-105350000D01*
X100040000Y-123250000D02*
X100040000Y-105350000D01*
X95540000Y-123250000D02*
X100040000Y-123250000D01*
X95540000Y-105350000D02*
X95540000Y-123250000D01*
X96790000Y-105350000D02*
X95540000Y-105350000D01*
X98790000Y-105350000D02*
G75*
G02*
X96790000Y-105350000I-1000000J0D01*
G01*
%TO.C,U3*%
X84800000Y-77410000D02*
X83550000Y-77410000D01*
X84800000Y-102930000D02*
X84800000Y-77410000D01*
X80300000Y-102930000D02*
X84800000Y-102930000D01*
X80300000Y-77410000D02*
X80300000Y-102930000D01*
X81550000Y-77410000D02*
X80300000Y-77410000D01*
X83550000Y-77410000D02*
G75*
G02*
X81550000Y-77410000I-1000000J0D01*
G01*
%TO.C,U12*%
X112030000Y-67250000D02*
X106970000Y-67250000D01*
X106970000Y-67250000D02*
X106970000Y-118170000D01*
X106970000Y-118170000D02*
X119090000Y-118170000D01*
X119090000Y-118170000D02*
X119090000Y-67250000D01*
X119090000Y-67250000D02*
X114030000Y-67250000D01*
X114030000Y-67250000D02*
G75*
G02*
X112030000Y-67250000I-1000000J0D01*
G01*
%TO.C,C8*%
X110120000Y-130960000D02*
X113360000Y-130960000D01*
X110120000Y-133200000D02*
X113360000Y-133200000D01*
X110120000Y-130960000D02*
X110120000Y-131025000D01*
X110120000Y-133135000D02*
X110120000Y-133200000D01*
X113360000Y-130960000D02*
X113360000Y-131025000D01*
X113360000Y-133135000D02*
X113360000Y-133200000D01*
%TO.C,C7*%
X88000000Y-129390000D02*
X84760000Y-129390000D01*
X88000000Y-127150000D02*
X84760000Y-127150000D01*
X88000000Y-129390000D02*
X88000000Y-129325000D01*
X88000000Y-127215000D02*
X88000000Y-127150000D01*
X84760000Y-129390000D02*
X84760000Y-129325000D01*
X84760000Y-127215000D02*
X84760000Y-127150000D01*
%TO.C,C6*%
X93610000Y-70000000D02*
X96850000Y-70000000D01*
X93610000Y-72240000D02*
X96850000Y-72240000D01*
X93610000Y-70000000D02*
X93610000Y-70065000D01*
X93610000Y-72175000D02*
X93610000Y-72240000D01*
X96850000Y-70000000D02*
X96850000Y-70065000D01*
X96850000Y-72175000D02*
X96850000Y-72240000D01*
%TO.C,C5*%
X68210000Y-144930000D02*
X71450000Y-144930000D01*
X68210000Y-147170000D02*
X71450000Y-147170000D01*
X68210000Y-144930000D02*
X68210000Y-144995000D01*
X68210000Y-147105000D02*
X68210000Y-147170000D01*
X71450000Y-144930000D02*
X71450000Y-144995000D01*
X71450000Y-147105000D02*
X71450000Y-147170000D01*
%TO.C,C4*%
X190650000Y-124830000D02*
X190650000Y-121590000D01*
X192890000Y-124830000D02*
X192890000Y-121590000D01*
X190650000Y-124830000D02*
X190715000Y-124830000D01*
X192825000Y-124830000D02*
X192890000Y-124830000D01*
X190650000Y-121590000D02*
X190715000Y-121590000D01*
X192825000Y-121590000D02*
X192890000Y-121590000D01*
%TO.C,C3*%
X74560000Y-68730000D02*
X77800000Y-68730000D01*
X74560000Y-70970000D02*
X77800000Y-70970000D01*
X74560000Y-68730000D02*
X74560000Y-68795000D01*
X74560000Y-70905000D02*
X74560000Y-70970000D01*
X77800000Y-68730000D02*
X77800000Y-68795000D01*
X77800000Y-70905000D02*
X77800000Y-70970000D01*
%TO.C,C2*%
X185050000Y-87780000D02*
X188290000Y-87780000D01*
X185050000Y-90020000D02*
X188290000Y-90020000D01*
X185050000Y-87780000D02*
X185050000Y-87845000D01*
X185050000Y-89955000D02*
X185050000Y-90020000D01*
X188290000Y-87780000D02*
X188290000Y-87845000D01*
X188290000Y-89955000D02*
X188290000Y-90020000D01*
%TO.C,C1*%
X147690000Y-111610000D02*
X144450000Y-111610000D01*
X147690000Y-109370000D02*
X144450000Y-109370000D01*
X147690000Y-111610000D02*
X147690000Y-111545000D01*
X147690000Y-109435000D02*
X147690000Y-109370000D01*
X144450000Y-111610000D02*
X144450000Y-111545000D01*
X144450000Y-109435000D02*
X144450000Y-109370000D01*
%TO.C,U25*%
X176800000Y-87570000D02*
X175550000Y-87570000D01*
X175550000Y-87570000D02*
X175550000Y-105470000D01*
X175550000Y-105470000D02*
X180050000Y-105470000D01*
X180050000Y-105470000D02*
X180050000Y-87570000D01*
X180050000Y-87570000D02*
X178800000Y-87570000D01*
X178800000Y-87570000D02*
G75*
G02*
X176800000Y-87570000I-1000000J0D01*
G01*
%TO.C,Y1*%
X109235000Y-139015000D02*
X109235000Y-145265000D01*
X114285000Y-139015000D02*
X114285000Y-145265000D01*
X109235000Y-145265000D02*
G75*
G03*
X114285000Y-145265000I2525000J0D01*
G01*
X109235000Y-139015000D02*
G75*
G02*
X114285000Y-139015000I2525000J0D01*
G01*
%TO.C,U14*%
X103850000Y-129480000D02*
X102600000Y-129480000D01*
X103850000Y-147380000D02*
X103850000Y-129480000D01*
X99350000Y-147380000D02*
X103850000Y-147380000D01*
X99350000Y-129480000D02*
X99350000Y-147380000D01*
X100600000Y-129480000D02*
X99350000Y-129480000D01*
X102600000Y-129480000D02*
G75*
G02*
X100600000Y-129480000I-1000000J0D01*
G01*
%TO.C,R8*%
X122150000Y-127000000D02*
X121380000Y-127000000D01*
X114070000Y-127000000D02*
X114840000Y-127000000D01*
X121380000Y-125630000D02*
X114840000Y-125630000D01*
X121380000Y-128370000D02*
X121380000Y-125630000D01*
X114840000Y-128370000D02*
X121380000Y-128370000D01*
X114840000Y-125630000D02*
X114840000Y-128370000D01*
%TO.C,U28*%
X122190000Y-129480000D02*
X120940000Y-129480000D01*
X120940000Y-129480000D02*
X120940000Y-147380000D01*
X120940000Y-147380000D02*
X125440000Y-147380000D01*
X125440000Y-147380000D02*
X125440000Y-129480000D01*
X125440000Y-129480000D02*
X124190000Y-129480000D01*
X124190000Y-129480000D02*
G75*
G02*
X122190000Y-129480000I-1000000J0D01*
G01*
%TO.C,U27*%
X160290000Y-63440000D02*
X159040000Y-63440000D01*
X159040000Y-63440000D02*
X159040000Y-81340000D01*
X159040000Y-81340000D02*
X163540000Y-81340000D01*
X163540000Y-81340000D02*
X163540000Y-63440000D01*
X163540000Y-63440000D02*
X162290000Y-63440000D01*
X162290000Y-63440000D02*
G75*
G02*
X160290000Y-63440000I-1000000J0D01*
G01*
%TO.C,U26*%
X176800000Y-63440000D02*
X175550000Y-63440000D01*
X175550000Y-63440000D02*
X175550000Y-81340000D01*
X175550000Y-81340000D02*
X180050000Y-81340000D01*
X180050000Y-81340000D02*
X180050000Y-63440000D01*
X180050000Y-63440000D02*
X178800000Y-63440000D01*
X178800000Y-63440000D02*
G75*
G02*
X176800000Y-63440000I-1000000J0D01*
G01*
%TO.C,U24*%
X146320000Y-63440000D02*
X145070000Y-63440000D01*
X145070000Y-63440000D02*
X145070000Y-81340000D01*
X145070000Y-81340000D02*
X149570000Y-81340000D01*
X149570000Y-81340000D02*
X149570000Y-63440000D01*
X149570000Y-63440000D02*
X148320000Y-63440000D01*
X148320000Y-63440000D02*
G75*
G02*
X146320000Y-63440000I-1000000J0D01*
G01*
%TO.C,U23*%
X160290000Y-87570000D02*
X159040000Y-87570000D01*
X159040000Y-87570000D02*
X159040000Y-105470000D01*
X159040000Y-105470000D02*
X163540000Y-105470000D01*
X163540000Y-105470000D02*
X163540000Y-87570000D01*
X163540000Y-87570000D02*
X162290000Y-87570000D01*
X162290000Y-87570000D02*
G75*
G02*
X160290000Y-87570000I-1000000J0D01*
G01*
%TO.C,U22*%
X147260000Y-119110000D02*
X147260000Y-120360000D01*
X147260000Y-120360000D02*
X165160000Y-120360000D01*
X165160000Y-120360000D02*
X165160000Y-115860000D01*
X165160000Y-115860000D02*
X147260000Y-115860000D01*
X147260000Y-115860000D02*
X147260000Y-117110000D01*
X147260000Y-117110000D02*
G75*
G02*
X147260000Y-119110000I0J-1000000D01*
G01*
%TO.C,U21*%
X186960000Y-126940000D02*
X185710000Y-126940000D01*
X185710000Y-126940000D02*
X185710000Y-147380000D01*
X185710000Y-147380000D02*
X190210000Y-147380000D01*
X190210000Y-147380000D02*
X190210000Y-126940000D01*
X190210000Y-126940000D02*
X188960000Y-126940000D01*
X188960000Y-126940000D02*
G75*
G02*
X186960000Y-126940000I-1000000J0D01*
G01*
%TO.C,U19*%
X138700000Y-126940000D02*
X137450000Y-126940000D01*
X137450000Y-126940000D02*
X137450000Y-147380000D01*
X137450000Y-147380000D02*
X141950000Y-147380000D01*
X141950000Y-147380000D02*
X141950000Y-126940000D01*
X141950000Y-126940000D02*
X140700000Y-126940000D01*
X140700000Y-126940000D02*
G75*
G02*
X138700000Y-126940000I-1000000J0D01*
G01*
%TO.C,U18*%
X131080000Y-63440000D02*
X129830000Y-63440000D01*
X129830000Y-63440000D02*
X129830000Y-81340000D01*
X129830000Y-81340000D02*
X134330000Y-81340000D01*
X134330000Y-81340000D02*
X134330000Y-63440000D01*
X134330000Y-63440000D02*
X133080000Y-63440000D01*
X133080000Y-63440000D02*
G75*
G02*
X131080000Y-63440000I-1000000J0D01*
G01*
%TO.C,U17*%
X172990000Y-126940000D02*
X171740000Y-126940000D01*
X171740000Y-126940000D02*
X171740000Y-147380000D01*
X171740000Y-147380000D02*
X176240000Y-147380000D01*
X176240000Y-147380000D02*
X176240000Y-126940000D01*
X176240000Y-126940000D02*
X174990000Y-126940000D01*
X174990000Y-126940000D02*
G75*
G02*
X172990000Y-126940000I-1000000J0D01*
G01*
%TO.C,U16*%
X157750000Y-126940000D02*
X156500000Y-126940000D01*
X156500000Y-126940000D02*
X156500000Y-147380000D01*
X156500000Y-147380000D02*
X161000000Y-147380000D01*
X161000000Y-147380000D02*
X161000000Y-126940000D01*
X161000000Y-126940000D02*
X159750000Y-126940000D01*
X159750000Y-126940000D02*
G75*
G02*
X157750000Y-126940000I-1000000J0D01*
G01*
%TO.C,U15*%
X125670000Y-119110000D02*
X125670000Y-120360000D01*
X125670000Y-120360000D02*
X143570000Y-120360000D01*
X143570000Y-120360000D02*
X143570000Y-115860000D01*
X143570000Y-115860000D02*
X125670000Y-115860000D01*
X125670000Y-115860000D02*
X125670000Y-117110000D01*
X125670000Y-117110000D02*
G75*
G02*
X125670000Y-119110000I0J-1000000D01*
G01*
%TO.C,U9*%
X81550000Y-106620000D02*
X80300000Y-106620000D01*
X80300000Y-106620000D02*
X80300000Y-127060000D01*
X80300000Y-127060000D02*
X84800000Y-127060000D01*
X84800000Y-127060000D02*
X84800000Y-106620000D01*
X84800000Y-106620000D02*
X83550000Y-106620000D01*
X83550000Y-106620000D02*
G75*
G02*
X81550000Y-106620000I-1000000J0D01*
G01*
%TO.C,U6*%
X81550000Y-130750000D02*
X80300000Y-130750000D01*
X80300000Y-130750000D02*
X80300000Y-148650000D01*
X80300000Y-148650000D02*
X84800000Y-148650000D01*
X84800000Y-148650000D02*
X84800000Y-130750000D01*
X84800000Y-130750000D02*
X83550000Y-130750000D01*
X83550000Y-130750000D02*
G75*
G02*
X81550000Y-130750000I-1000000J0D01*
G01*
%TO.C,U1*%
X167580000Y-119110000D02*
X167580000Y-120360000D01*
X167580000Y-120360000D02*
X188020000Y-120360000D01*
X188020000Y-120360000D02*
X188020000Y-115860000D01*
X188020000Y-115860000D02*
X167580000Y-115860000D01*
X167580000Y-115860000D02*
X167580000Y-117110000D01*
X167580000Y-117110000D02*
G75*
G02*
X167580000Y-119110000I0J-1000000D01*
G01*
%TO.C,R7*%
X184050000Y-84550000D02*
X186790000Y-84550000D01*
X186790000Y-84550000D02*
X186790000Y-78010000D01*
X186790000Y-78010000D02*
X184050000Y-78010000D01*
X184050000Y-78010000D02*
X184050000Y-84550000D01*
X185420000Y-85320000D02*
X185420000Y-84550000D01*
X185420000Y-77240000D02*
X185420000Y-78010000D01*
%TO.C,R6*%
X205200000Y-116940000D02*
X205200000Y-114200000D01*
X205200000Y-114200000D02*
X198660000Y-114200000D01*
X198660000Y-114200000D02*
X198660000Y-116940000D01*
X198660000Y-116940000D02*
X205200000Y-116940000D01*
X205970000Y-115570000D02*
X205200000Y-115570000D01*
X197890000Y-115570000D02*
X198660000Y-115570000D01*
%TO.C,R5*%
X205200000Y-120750000D02*
X205200000Y-118010000D01*
X205200000Y-118010000D02*
X198660000Y-118010000D01*
X198660000Y-118010000D02*
X198660000Y-120750000D01*
X198660000Y-120750000D02*
X205200000Y-120750000D01*
X205970000Y-119380000D02*
X205200000Y-119380000D01*
X197890000Y-119380000D02*
X198660000Y-119380000D01*
%TO.C,R4*%
X205200000Y-135990000D02*
X205200000Y-133250000D01*
X205200000Y-133250000D02*
X198660000Y-133250000D01*
X198660000Y-133250000D02*
X198660000Y-135990000D01*
X198660000Y-135990000D02*
X205200000Y-135990000D01*
X205970000Y-134620000D02*
X205200000Y-134620000D01*
X197890000Y-134620000D02*
X198660000Y-134620000D01*
%TO.C,R3*%
X205200000Y-132180000D02*
X205200000Y-129440000D01*
X205200000Y-129440000D02*
X198660000Y-129440000D01*
X198660000Y-129440000D02*
X198660000Y-132180000D01*
X198660000Y-132180000D02*
X205200000Y-132180000D01*
X205970000Y-130810000D02*
X205200000Y-130810000D01*
X197890000Y-130810000D02*
X198660000Y-130810000D01*
%TO.C,R2*%
X205200000Y-124560000D02*
X205200000Y-121820000D01*
X205200000Y-121820000D02*
X198660000Y-121820000D01*
X198660000Y-121820000D02*
X198660000Y-124560000D01*
X198660000Y-124560000D02*
X205200000Y-124560000D01*
X205970000Y-123190000D02*
X205200000Y-123190000D01*
X197890000Y-123190000D02*
X198660000Y-123190000D01*
%TO.C,R1*%
X205200000Y-128370000D02*
X205200000Y-125630000D01*
X205200000Y-125630000D02*
X198660000Y-125630000D01*
X198660000Y-125630000D02*
X198660000Y-128370000D01*
X198660000Y-128370000D02*
X205200000Y-128370000D01*
X205970000Y-127000000D02*
X205200000Y-127000000D01*
X197890000Y-127000000D02*
X198660000Y-127000000D01*
%TO.C,J1*%
X206940000Y-107890000D02*
X198310000Y-107890000D01*
X206940000Y-107771905D02*
X198310000Y-107771905D01*
X206940000Y-107653810D02*
X198310000Y-107653810D01*
X206940000Y-107535715D02*
X198310000Y-107535715D01*
X206940000Y-107417620D02*
X198310000Y-107417620D01*
X206940000Y-107299525D02*
X198310000Y-107299525D01*
X206940000Y-107181430D02*
X198310000Y-107181430D01*
X206940000Y-107063335D02*
X198310000Y-107063335D01*
X206940000Y-106945240D02*
X198310000Y-106945240D01*
X206940000Y-106827145D02*
X198310000Y-106827145D01*
X206940000Y-106709050D02*
X198310000Y-106709050D01*
X206940000Y-106590955D02*
X198310000Y-106590955D01*
X206940000Y-106472860D02*
X198310000Y-106472860D01*
X206940000Y-106354765D02*
X198310000Y-106354765D01*
X206940000Y-106236670D02*
X198310000Y-106236670D01*
X206940000Y-106118575D02*
X198310000Y-106118575D01*
X206940000Y-106000480D02*
X198310000Y-106000480D01*
X206940000Y-105882385D02*
X198310000Y-105882385D01*
X206940000Y-105764290D02*
X198310000Y-105764290D01*
X206940000Y-105646195D02*
X198310000Y-105646195D01*
X206940000Y-105528100D02*
X198310000Y-105528100D01*
X198310000Y-107040000D02*
X197900000Y-107040000D01*
X195800000Y-107040000D02*
X195420000Y-107040000D01*
X198310000Y-106320000D02*
X197900000Y-106320000D01*
X195800000Y-106320000D02*
X195420000Y-106320000D01*
X198310000Y-104500000D02*
X197900000Y-104500000D01*
X195800000Y-104500000D02*
X195360000Y-104500000D01*
X198310000Y-103780000D02*
X197900000Y-103780000D01*
X195800000Y-103780000D02*
X195360000Y-103780000D01*
X198310000Y-101960000D02*
X197900000Y-101960000D01*
X195800000Y-101960000D02*
X195360000Y-101960000D01*
X198310000Y-101240000D02*
X197900000Y-101240000D01*
X195800000Y-101240000D02*
X195360000Y-101240000D01*
X198310000Y-99420000D02*
X197900000Y-99420000D01*
X195800000Y-99420000D02*
X195360000Y-99420000D01*
X198310000Y-98700000D02*
X197900000Y-98700000D01*
X195800000Y-98700000D02*
X195360000Y-98700000D01*
X198310000Y-96880000D02*
X197900000Y-96880000D01*
X195800000Y-96880000D02*
X195360000Y-96880000D01*
X198310000Y-96160000D02*
X197900000Y-96160000D01*
X195800000Y-96160000D02*
X195360000Y-96160000D01*
X198310000Y-94340000D02*
X197900000Y-94340000D01*
X195800000Y-94340000D02*
X195360000Y-94340000D01*
X198310000Y-93620000D02*
X197900000Y-93620000D01*
X195800000Y-93620000D02*
X195360000Y-93620000D01*
X198310000Y-91800000D02*
X197900000Y-91800000D01*
X195800000Y-91800000D02*
X195360000Y-91800000D01*
X198310000Y-91080000D02*
X197900000Y-91080000D01*
X195800000Y-91080000D02*
X195360000Y-91080000D01*
X198310000Y-89260000D02*
X197900000Y-89260000D01*
X195800000Y-89260000D02*
X195360000Y-89260000D01*
X198310000Y-88540000D02*
X197900000Y-88540000D01*
X195800000Y-88540000D02*
X195360000Y-88540000D01*
X198310000Y-86720000D02*
X197900000Y-86720000D01*
X195800000Y-86720000D02*
X195360000Y-86720000D01*
X198310000Y-86000000D02*
X197900000Y-86000000D01*
X195800000Y-86000000D02*
X195360000Y-86000000D01*
X198310000Y-84180000D02*
X197900000Y-84180000D01*
X195800000Y-84180000D02*
X195360000Y-84180000D01*
X198310000Y-83460000D02*
X197900000Y-83460000D01*
X195800000Y-83460000D02*
X195360000Y-83460000D01*
X198310000Y-81640000D02*
X197900000Y-81640000D01*
X195800000Y-81640000D02*
X195360000Y-81640000D01*
X198310000Y-80920000D02*
X197900000Y-80920000D01*
X195800000Y-80920000D02*
X195360000Y-80920000D01*
X198310000Y-79100000D02*
X197900000Y-79100000D01*
X195800000Y-79100000D02*
X195360000Y-79100000D01*
X198310000Y-78380000D02*
X197900000Y-78380000D01*
X195800000Y-78380000D02*
X195360000Y-78380000D01*
X198310000Y-76560000D02*
X197900000Y-76560000D01*
X195800000Y-76560000D02*
X195360000Y-76560000D01*
X198310000Y-75840000D02*
X197900000Y-75840000D01*
X195800000Y-75840000D02*
X195360000Y-75840000D01*
X198310000Y-74020000D02*
X197900000Y-74020000D01*
X195800000Y-74020000D02*
X195360000Y-74020000D01*
X198310000Y-73300000D02*
X197900000Y-73300000D01*
X195800000Y-73300000D02*
X195360000Y-73300000D01*
X198310000Y-71480000D02*
X197900000Y-71480000D01*
X195800000Y-71480000D02*
X195360000Y-71480000D01*
X198310000Y-70760000D02*
X197900000Y-70760000D01*
X195800000Y-70760000D02*
X195360000Y-70760000D01*
X198310000Y-68940000D02*
X197900000Y-68940000D01*
X195800000Y-68940000D02*
X195360000Y-68940000D01*
X198310000Y-68220000D02*
X197900000Y-68220000D01*
X195800000Y-68220000D02*
X195360000Y-68220000D01*
X198310000Y-66400000D02*
X197900000Y-66400000D01*
X195800000Y-66400000D02*
X195360000Y-66400000D01*
X198310000Y-65680000D02*
X197900000Y-65680000D01*
X195800000Y-65680000D02*
X195360000Y-65680000D01*
X206940000Y-105410000D02*
X198310000Y-105410000D01*
X206940000Y-102870000D02*
X198310000Y-102870000D01*
X206940000Y-100330000D02*
X198310000Y-100330000D01*
X206940000Y-97790000D02*
X198310000Y-97790000D01*
X206940000Y-95250000D02*
X198310000Y-95250000D01*
X206940000Y-92710000D02*
X198310000Y-92710000D01*
X206940000Y-90170000D02*
X198310000Y-90170000D01*
X206940000Y-87630000D02*
X198310000Y-87630000D01*
X206940000Y-85090000D02*
X198310000Y-85090000D01*
X206940000Y-82550000D02*
X198310000Y-82550000D01*
X206940000Y-80010000D02*
X198310000Y-80010000D01*
X206940000Y-77470000D02*
X198310000Y-77470000D01*
X206940000Y-74930000D02*
X198310000Y-74930000D01*
X206940000Y-72390000D02*
X198310000Y-72390000D01*
X206940000Y-69850000D02*
X198310000Y-69850000D01*
X206940000Y-67310000D02*
X198310000Y-67310000D01*
X206940000Y-108010000D02*
X198310000Y-108010000D01*
X198310000Y-108010000D02*
X198310000Y-64710000D01*
X206940000Y-64710000D02*
X198310000Y-64710000D01*
X206940000Y-108010000D02*
X206940000Y-64710000D01*
X193200000Y-108010000D02*
X193200000Y-106680000D01*
X194310000Y-108010000D02*
X193200000Y-108010000D01*
%TO.C,X1*%
D14*
X38552380Y-109939404D02*
X39552380Y-109272738D01*
X38552380Y-109272738D02*
X39552380Y-109939404D01*
X39552380Y-108367976D02*
X39552380Y-108939404D01*
X39552380Y-108653690D02*
X38552380Y-108653690D01*
X38695238Y-108748928D01*
X38790476Y-108844166D01*
X38838095Y-108939404D01*
%TO.C,R9*%
X117943333Y-121272380D02*
X117610000Y-120796190D01*
X117371904Y-121272380D02*
X117371904Y-120272380D01*
X117752857Y-120272380D01*
X117848095Y-120320000D01*
X117895714Y-120367619D01*
X117943333Y-120462857D01*
X117943333Y-120605714D01*
X117895714Y-120700952D01*
X117848095Y-120748571D01*
X117752857Y-120796190D01*
X117371904Y-120796190D01*
X118419523Y-121272380D02*
X118610000Y-121272380D01*
X118705238Y-121224761D01*
X118752857Y-121177142D01*
X118848095Y-121034285D01*
X118895714Y-120843809D01*
X118895714Y-120462857D01*
X118848095Y-120367619D01*
X118800476Y-120320000D01*
X118705238Y-120272380D01*
X118514761Y-120272380D01*
X118419523Y-120320000D01*
X118371904Y-120367619D01*
X118324285Y-120462857D01*
X118324285Y-120700952D01*
X118371904Y-120796190D01*
X118419523Y-120843809D01*
X118514761Y-120891428D01*
X118705238Y-120891428D01*
X118800476Y-120843809D01*
X118848095Y-120796190D01*
X118895714Y-120700952D01*
%TO.C,U5*%
X97028095Y-103802380D02*
X97028095Y-104611904D01*
X97075714Y-104707142D01*
X97123333Y-104754761D01*
X97218571Y-104802380D01*
X97409047Y-104802380D01*
X97504285Y-104754761D01*
X97551904Y-104707142D01*
X97599523Y-104611904D01*
X97599523Y-103802380D01*
X98551904Y-103802380D02*
X98075714Y-103802380D01*
X98028095Y-104278571D01*
X98075714Y-104230952D01*
X98170952Y-104183333D01*
X98409047Y-104183333D01*
X98504285Y-104230952D01*
X98551904Y-104278571D01*
X98599523Y-104373809D01*
X98599523Y-104611904D01*
X98551904Y-104707142D01*
X98504285Y-104754761D01*
X98409047Y-104802380D01*
X98170952Y-104802380D01*
X98075714Y-104754761D01*
X98028095Y-104707142D01*
%TO.C,U3*%
X81788095Y-75862380D02*
X81788095Y-76671904D01*
X81835714Y-76767142D01*
X81883333Y-76814761D01*
X81978571Y-76862380D01*
X82169047Y-76862380D01*
X82264285Y-76814761D01*
X82311904Y-76767142D01*
X82359523Y-76671904D01*
X82359523Y-75862380D01*
X82740476Y-75862380D02*
X83359523Y-75862380D01*
X83026190Y-76243333D01*
X83169047Y-76243333D01*
X83264285Y-76290952D01*
X83311904Y-76338571D01*
X83359523Y-76433809D01*
X83359523Y-76671904D01*
X83311904Y-76767142D01*
X83264285Y-76814761D01*
X83169047Y-76862380D01*
X82883333Y-76862380D01*
X82788095Y-76814761D01*
X82740476Y-76767142D01*
%TO.C,U12*%
X111791904Y-65702380D02*
X111791904Y-66511904D01*
X111839523Y-66607142D01*
X111887142Y-66654761D01*
X111982380Y-66702380D01*
X112172857Y-66702380D01*
X112268095Y-66654761D01*
X112315714Y-66607142D01*
X112363333Y-66511904D01*
X112363333Y-65702380D01*
X113363333Y-66702380D02*
X112791904Y-66702380D01*
X113077619Y-66702380D02*
X113077619Y-65702380D01*
X112982380Y-65845238D01*
X112887142Y-65940476D01*
X112791904Y-65988095D01*
X113744285Y-65797619D02*
X113791904Y-65750000D01*
X113887142Y-65702380D01*
X114125238Y-65702380D01*
X114220476Y-65750000D01*
X114268095Y-65797619D01*
X114315714Y-65892857D01*
X114315714Y-65988095D01*
X114268095Y-66130952D01*
X113696666Y-66702380D01*
X114315714Y-66702380D01*
%TO.C,C8*%
X111573333Y-130187142D02*
X111525714Y-130234761D01*
X111382857Y-130282380D01*
X111287619Y-130282380D01*
X111144761Y-130234761D01*
X111049523Y-130139523D01*
X111001904Y-130044285D01*
X110954285Y-129853809D01*
X110954285Y-129710952D01*
X111001904Y-129520476D01*
X111049523Y-129425238D01*
X111144761Y-129330000D01*
X111287619Y-129282380D01*
X111382857Y-129282380D01*
X111525714Y-129330000D01*
X111573333Y-129377619D01*
X112144761Y-129710952D02*
X112049523Y-129663333D01*
X112001904Y-129615714D01*
X111954285Y-129520476D01*
X111954285Y-129472857D01*
X112001904Y-129377619D01*
X112049523Y-129330000D01*
X112144761Y-129282380D01*
X112335238Y-129282380D01*
X112430476Y-129330000D01*
X112478095Y-129377619D01*
X112525714Y-129472857D01*
X112525714Y-129520476D01*
X112478095Y-129615714D01*
X112430476Y-129663333D01*
X112335238Y-129710952D01*
X112144761Y-129710952D01*
X112049523Y-129758571D01*
X112001904Y-129806190D01*
X111954285Y-129901428D01*
X111954285Y-130091904D01*
X112001904Y-130187142D01*
X112049523Y-130234761D01*
X112144761Y-130282380D01*
X112335238Y-130282380D01*
X112430476Y-130234761D01*
X112478095Y-130187142D01*
X112525714Y-130091904D01*
X112525714Y-129901428D01*
X112478095Y-129806190D01*
X112430476Y-129758571D01*
X112335238Y-129710952D01*
%TO.C,C7*%
X86213333Y-130877142D02*
X86165714Y-130924761D01*
X86022857Y-130972380D01*
X85927619Y-130972380D01*
X85784761Y-130924761D01*
X85689523Y-130829523D01*
X85641904Y-130734285D01*
X85594285Y-130543809D01*
X85594285Y-130400952D01*
X85641904Y-130210476D01*
X85689523Y-130115238D01*
X85784761Y-130020000D01*
X85927619Y-129972380D01*
X86022857Y-129972380D01*
X86165714Y-130020000D01*
X86213333Y-130067619D01*
X86546666Y-129972380D02*
X87213333Y-129972380D01*
X86784761Y-130972380D01*
%TO.C,C6*%
X95063333Y-69227142D02*
X95015714Y-69274761D01*
X94872857Y-69322380D01*
X94777619Y-69322380D01*
X94634761Y-69274761D01*
X94539523Y-69179523D01*
X94491904Y-69084285D01*
X94444285Y-68893809D01*
X94444285Y-68750952D01*
X94491904Y-68560476D01*
X94539523Y-68465238D01*
X94634761Y-68370000D01*
X94777619Y-68322380D01*
X94872857Y-68322380D01*
X95015714Y-68370000D01*
X95063333Y-68417619D01*
X95920476Y-68322380D02*
X95730000Y-68322380D01*
X95634761Y-68370000D01*
X95587142Y-68417619D01*
X95491904Y-68560476D01*
X95444285Y-68750952D01*
X95444285Y-69131904D01*
X95491904Y-69227142D01*
X95539523Y-69274761D01*
X95634761Y-69322380D01*
X95825238Y-69322380D01*
X95920476Y-69274761D01*
X95968095Y-69227142D01*
X96015714Y-69131904D01*
X96015714Y-68893809D01*
X95968095Y-68798571D01*
X95920476Y-68750952D01*
X95825238Y-68703333D01*
X95634761Y-68703333D01*
X95539523Y-68750952D01*
X95491904Y-68798571D01*
X95444285Y-68893809D01*
%TO.C,C5*%
X69663333Y-144157142D02*
X69615714Y-144204761D01*
X69472857Y-144252380D01*
X69377619Y-144252380D01*
X69234761Y-144204761D01*
X69139523Y-144109523D01*
X69091904Y-144014285D01*
X69044285Y-143823809D01*
X69044285Y-143680952D01*
X69091904Y-143490476D01*
X69139523Y-143395238D01*
X69234761Y-143300000D01*
X69377619Y-143252380D01*
X69472857Y-143252380D01*
X69615714Y-143300000D01*
X69663333Y-143347619D01*
X70568095Y-143252380D02*
X70091904Y-143252380D01*
X70044285Y-143728571D01*
X70091904Y-143680952D01*
X70187142Y-143633333D01*
X70425238Y-143633333D01*
X70520476Y-143680952D01*
X70568095Y-143728571D01*
X70615714Y-143823809D01*
X70615714Y-144061904D01*
X70568095Y-144157142D01*
X70520476Y-144204761D01*
X70425238Y-144252380D01*
X70187142Y-144252380D01*
X70091904Y-144204761D01*
X70044285Y-144157142D01*
%TO.C,C4*%
X189877142Y-123376666D02*
X189924761Y-123424285D01*
X189972380Y-123567142D01*
X189972380Y-123662380D01*
X189924761Y-123805238D01*
X189829523Y-123900476D01*
X189734285Y-123948095D01*
X189543809Y-123995714D01*
X189400952Y-123995714D01*
X189210476Y-123948095D01*
X189115238Y-123900476D01*
X189020000Y-123805238D01*
X188972380Y-123662380D01*
X188972380Y-123567142D01*
X189020000Y-123424285D01*
X189067619Y-123376666D01*
X189305714Y-122519523D02*
X189972380Y-122519523D01*
X188924761Y-122757619D02*
X189639047Y-122995714D01*
X189639047Y-122376666D01*
%TO.C,C3*%
X76013333Y-67957142D02*
X75965714Y-68004761D01*
X75822857Y-68052380D01*
X75727619Y-68052380D01*
X75584761Y-68004761D01*
X75489523Y-67909523D01*
X75441904Y-67814285D01*
X75394285Y-67623809D01*
X75394285Y-67480952D01*
X75441904Y-67290476D01*
X75489523Y-67195238D01*
X75584761Y-67100000D01*
X75727619Y-67052380D01*
X75822857Y-67052380D01*
X75965714Y-67100000D01*
X76013333Y-67147619D01*
X76346666Y-67052380D02*
X76965714Y-67052380D01*
X76632380Y-67433333D01*
X76775238Y-67433333D01*
X76870476Y-67480952D01*
X76918095Y-67528571D01*
X76965714Y-67623809D01*
X76965714Y-67861904D01*
X76918095Y-67957142D01*
X76870476Y-68004761D01*
X76775238Y-68052380D01*
X76489523Y-68052380D01*
X76394285Y-68004761D01*
X76346666Y-67957142D01*
%TO.C,C2*%
X186503333Y-87007142D02*
X186455714Y-87054761D01*
X186312857Y-87102380D01*
X186217619Y-87102380D01*
X186074761Y-87054761D01*
X185979523Y-86959523D01*
X185931904Y-86864285D01*
X185884285Y-86673809D01*
X185884285Y-86530952D01*
X185931904Y-86340476D01*
X185979523Y-86245238D01*
X186074761Y-86150000D01*
X186217619Y-86102380D01*
X186312857Y-86102380D01*
X186455714Y-86150000D01*
X186503333Y-86197619D01*
X186884285Y-86197619D02*
X186931904Y-86150000D01*
X187027142Y-86102380D01*
X187265238Y-86102380D01*
X187360476Y-86150000D01*
X187408095Y-86197619D01*
X187455714Y-86292857D01*
X187455714Y-86388095D01*
X187408095Y-86530952D01*
X186836666Y-87102380D01*
X187455714Y-87102380D01*
%TO.C,C1*%
X145903333Y-113097142D02*
X145855714Y-113144761D01*
X145712857Y-113192380D01*
X145617619Y-113192380D01*
X145474761Y-113144761D01*
X145379523Y-113049523D01*
X145331904Y-112954285D01*
X145284285Y-112763809D01*
X145284285Y-112620952D01*
X145331904Y-112430476D01*
X145379523Y-112335238D01*
X145474761Y-112240000D01*
X145617619Y-112192380D01*
X145712857Y-112192380D01*
X145855714Y-112240000D01*
X145903333Y-112287619D01*
X146855714Y-113192380D02*
X146284285Y-113192380D01*
X146570000Y-113192380D02*
X146570000Y-112192380D01*
X146474761Y-112335238D01*
X146379523Y-112430476D01*
X146284285Y-112478095D01*
%TO.C,U25*%
X176561904Y-86022380D02*
X176561904Y-86831904D01*
X176609523Y-86927142D01*
X176657142Y-86974761D01*
X176752380Y-87022380D01*
X176942857Y-87022380D01*
X177038095Y-86974761D01*
X177085714Y-86927142D01*
X177133333Y-86831904D01*
X177133333Y-86022380D01*
X177561904Y-86117619D02*
X177609523Y-86070000D01*
X177704761Y-86022380D01*
X177942857Y-86022380D01*
X178038095Y-86070000D01*
X178085714Y-86117619D01*
X178133333Y-86212857D01*
X178133333Y-86308095D01*
X178085714Y-86450952D01*
X177514285Y-87022380D01*
X178133333Y-87022380D01*
X179038095Y-86022380D02*
X178561904Y-86022380D01*
X178514285Y-86498571D01*
X178561904Y-86450952D01*
X178657142Y-86403333D01*
X178895238Y-86403333D01*
X178990476Y-86450952D01*
X179038095Y-86498571D01*
X179085714Y-86593809D01*
X179085714Y-86831904D01*
X179038095Y-86927142D01*
X178990476Y-86974761D01*
X178895238Y-87022380D01*
X178657142Y-87022380D01*
X178561904Y-86974761D01*
X178514285Y-86927142D01*
%TO.C,Y1*%
X115261190Y-142616190D02*
X115737380Y-142616190D01*
X114737380Y-142949523D02*
X115261190Y-142616190D01*
X114737380Y-142282857D01*
X115737380Y-141425714D02*
X115737380Y-141997142D01*
X115737380Y-141711428D02*
X114737380Y-141711428D01*
X114880238Y-141806666D01*
X114975476Y-141901904D01*
X115023095Y-141997142D01*
%TO.C,U14*%
X100361904Y-127932380D02*
X100361904Y-128741904D01*
X100409523Y-128837142D01*
X100457142Y-128884761D01*
X100552380Y-128932380D01*
X100742857Y-128932380D01*
X100838095Y-128884761D01*
X100885714Y-128837142D01*
X100933333Y-128741904D01*
X100933333Y-127932380D01*
X101933333Y-128932380D02*
X101361904Y-128932380D01*
X101647619Y-128932380D02*
X101647619Y-127932380D01*
X101552380Y-128075238D01*
X101457142Y-128170476D01*
X101361904Y-128218095D01*
X102790476Y-128265714D02*
X102790476Y-128932380D01*
X102552380Y-127884761D02*
X102314285Y-128599047D01*
X102933333Y-128599047D01*
%TO.C,R8*%
X117943333Y-125082380D02*
X117610000Y-124606190D01*
X117371904Y-125082380D02*
X117371904Y-124082380D01*
X117752857Y-124082380D01*
X117848095Y-124130000D01*
X117895714Y-124177619D01*
X117943333Y-124272857D01*
X117943333Y-124415714D01*
X117895714Y-124510952D01*
X117848095Y-124558571D01*
X117752857Y-124606190D01*
X117371904Y-124606190D01*
X118514761Y-124510952D02*
X118419523Y-124463333D01*
X118371904Y-124415714D01*
X118324285Y-124320476D01*
X118324285Y-124272857D01*
X118371904Y-124177619D01*
X118419523Y-124130000D01*
X118514761Y-124082380D01*
X118705238Y-124082380D01*
X118800476Y-124130000D01*
X118848095Y-124177619D01*
X118895714Y-124272857D01*
X118895714Y-124320476D01*
X118848095Y-124415714D01*
X118800476Y-124463333D01*
X118705238Y-124510952D01*
X118514761Y-124510952D01*
X118419523Y-124558571D01*
X118371904Y-124606190D01*
X118324285Y-124701428D01*
X118324285Y-124891904D01*
X118371904Y-124987142D01*
X118419523Y-125034761D01*
X118514761Y-125082380D01*
X118705238Y-125082380D01*
X118800476Y-125034761D01*
X118848095Y-124987142D01*
X118895714Y-124891904D01*
X118895714Y-124701428D01*
X118848095Y-124606190D01*
X118800476Y-124558571D01*
X118705238Y-124510952D01*
%TO.C,U28*%
X121951904Y-127932380D02*
X121951904Y-128741904D01*
X121999523Y-128837142D01*
X122047142Y-128884761D01*
X122142380Y-128932380D01*
X122332857Y-128932380D01*
X122428095Y-128884761D01*
X122475714Y-128837142D01*
X122523333Y-128741904D01*
X122523333Y-127932380D01*
X122951904Y-128027619D02*
X122999523Y-127980000D01*
X123094761Y-127932380D01*
X123332857Y-127932380D01*
X123428095Y-127980000D01*
X123475714Y-128027619D01*
X123523333Y-128122857D01*
X123523333Y-128218095D01*
X123475714Y-128360952D01*
X122904285Y-128932380D01*
X123523333Y-128932380D01*
X124094761Y-128360952D02*
X123999523Y-128313333D01*
X123951904Y-128265714D01*
X123904285Y-128170476D01*
X123904285Y-128122857D01*
X123951904Y-128027619D01*
X123999523Y-127980000D01*
X124094761Y-127932380D01*
X124285238Y-127932380D01*
X124380476Y-127980000D01*
X124428095Y-128027619D01*
X124475714Y-128122857D01*
X124475714Y-128170476D01*
X124428095Y-128265714D01*
X124380476Y-128313333D01*
X124285238Y-128360952D01*
X124094761Y-128360952D01*
X123999523Y-128408571D01*
X123951904Y-128456190D01*
X123904285Y-128551428D01*
X123904285Y-128741904D01*
X123951904Y-128837142D01*
X123999523Y-128884761D01*
X124094761Y-128932380D01*
X124285238Y-128932380D01*
X124380476Y-128884761D01*
X124428095Y-128837142D01*
X124475714Y-128741904D01*
X124475714Y-128551428D01*
X124428095Y-128456190D01*
X124380476Y-128408571D01*
X124285238Y-128360952D01*
%TO.C,U27*%
X160051904Y-61892380D02*
X160051904Y-62701904D01*
X160099523Y-62797142D01*
X160147142Y-62844761D01*
X160242380Y-62892380D01*
X160432857Y-62892380D01*
X160528095Y-62844761D01*
X160575714Y-62797142D01*
X160623333Y-62701904D01*
X160623333Y-61892380D01*
X161051904Y-61987619D02*
X161099523Y-61940000D01*
X161194761Y-61892380D01*
X161432857Y-61892380D01*
X161528095Y-61940000D01*
X161575714Y-61987619D01*
X161623333Y-62082857D01*
X161623333Y-62178095D01*
X161575714Y-62320952D01*
X161004285Y-62892380D01*
X161623333Y-62892380D01*
X161956666Y-61892380D02*
X162623333Y-61892380D01*
X162194761Y-62892380D01*
%TO.C,U26*%
X176561904Y-61892380D02*
X176561904Y-62701904D01*
X176609523Y-62797142D01*
X176657142Y-62844761D01*
X176752380Y-62892380D01*
X176942857Y-62892380D01*
X177038095Y-62844761D01*
X177085714Y-62797142D01*
X177133333Y-62701904D01*
X177133333Y-61892380D01*
X177561904Y-61987619D02*
X177609523Y-61940000D01*
X177704761Y-61892380D01*
X177942857Y-61892380D01*
X178038095Y-61940000D01*
X178085714Y-61987619D01*
X178133333Y-62082857D01*
X178133333Y-62178095D01*
X178085714Y-62320952D01*
X177514285Y-62892380D01*
X178133333Y-62892380D01*
X178990476Y-61892380D02*
X178800000Y-61892380D01*
X178704761Y-61940000D01*
X178657142Y-61987619D01*
X178561904Y-62130476D01*
X178514285Y-62320952D01*
X178514285Y-62701904D01*
X178561904Y-62797142D01*
X178609523Y-62844761D01*
X178704761Y-62892380D01*
X178895238Y-62892380D01*
X178990476Y-62844761D01*
X179038095Y-62797142D01*
X179085714Y-62701904D01*
X179085714Y-62463809D01*
X179038095Y-62368571D01*
X178990476Y-62320952D01*
X178895238Y-62273333D01*
X178704761Y-62273333D01*
X178609523Y-62320952D01*
X178561904Y-62368571D01*
X178514285Y-62463809D01*
%TO.C,U24*%
X146081904Y-61892380D02*
X146081904Y-62701904D01*
X146129523Y-62797142D01*
X146177142Y-62844761D01*
X146272380Y-62892380D01*
X146462857Y-62892380D01*
X146558095Y-62844761D01*
X146605714Y-62797142D01*
X146653333Y-62701904D01*
X146653333Y-61892380D01*
X147081904Y-61987619D02*
X147129523Y-61940000D01*
X147224761Y-61892380D01*
X147462857Y-61892380D01*
X147558095Y-61940000D01*
X147605714Y-61987619D01*
X147653333Y-62082857D01*
X147653333Y-62178095D01*
X147605714Y-62320952D01*
X147034285Y-62892380D01*
X147653333Y-62892380D01*
X148510476Y-62225714D02*
X148510476Y-62892380D01*
X148272380Y-61844761D02*
X148034285Y-62559047D01*
X148653333Y-62559047D01*
%TO.C,U23*%
X160051904Y-86022380D02*
X160051904Y-86831904D01*
X160099523Y-86927142D01*
X160147142Y-86974761D01*
X160242380Y-87022380D01*
X160432857Y-87022380D01*
X160528095Y-86974761D01*
X160575714Y-86927142D01*
X160623333Y-86831904D01*
X160623333Y-86022380D01*
X161051904Y-86117619D02*
X161099523Y-86070000D01*
X161194761Y-86022380D01*
X161432857Y-86022380D01*
X161528095Y-86070000D01*
X161575714Y-86117619D01*
X161623333Y-86212857D01*
X161623333Y-86308095D01*
X161575714Y-86450952D01*
X161004285Y-87022380D01*
X161623333Y-87022380D01*
X161956666Y-86022380D02*
X162575714Y-86022380D01*
X162242380Y-86403333D01*
X162385238Y-86403333D01*
X162480476Y-86450952D01*
X162528095Y-86498571D01*
X162575714Y-86593809D01*
X162575714Y-86831904D01*
X162528095Y-86927142D01*
X162480476Y-86974761D01*
X162385238Y-87022380D01*
X162099523Y-87022380D01*
X162004285Y-86974761D01*
X161956666Y-86927142D01*
%TO.C,U22*%
X145712380Y-119348095D02*
X146521904Y-119348095D01*
X146617142Y-119300476D01*
X146664761Y-119252857D01*
X146712380Y-119157619D01*
X146712380Y-118967142D01*
X146664761Y-118871904D01*
X146617142Y-118824285D01*
X146521904Y-118776666D01*
X145712380Y-118776666D01*
X145807619Y-118348095D02*
X145760000Y-118300476D01*
X145712380Y-118205238D01*
X145712380Y-117967142D01*
X145760000Y-117871904D01*
X145807619Y-117824285D01*
X145902857Y-117776666D01*
X145998095Y-117776666D01*
X146140952Y-117824285D01*
X146712380Y-118395714D01*
X146712380Y-117776666D01*
X145807619Y-117395714D02*
X145760000Y-117348095D01*
X145712380Y-117252857D01*
X145712380Y-117014761D01*
X145760000Y-116919523D01*
X145807619Y-116871904D01*
X145902857Y-116824285D01*
X145998095Y-116824285D01*
X146140952Y-116871904D01*
X146712380Y-117443333D01*
X146712380Y-116824285D01*
%TO.C,U21*%
X186721904Y-125392380D02*
X186721904Y-126201904D01*
X186769523Y-126297142D01*
X186817142Y-126344761D01*
X186912380Y-126392380D01*
X187102857Y-126392380D01*
X187198095Y-126344761D01*
X187245714Y-126297142D01*
X187293333Y-126201904D01*
X187293333Y-125392380D01*
X187721904Y-125487619D02*
X187769523Y-125440000D01*
X187864761Y-125392380D01*
X188102857Y-125392380D01*
X188198095Y-125440000D01*
X188245714Y-125487619D01*
X188293333Y-125582857D01*
X188293333Y-125678095D01*
X188245714Y-125820952D01*
X187674285Y-126392380D01*
X188293333Y-126392380D01*
X189245714Y-126392380D02*
X188674285Y-126392380D01*
X188960000Y-126392380D02*
X188960000Y-125392380D01*
X188864761Y-125535238D01*
X188769523Y-125630476D01*
X188674285Y-125678095D01*
%TO.C,U19*%
X138461904Y-125392380D02*
X138461904Y-126201904D01*
X138509523Y-126297142D01*
X138557142Y-126344761D01*
X138652380Y-126392380D01*
X138842857Y-126392380D01*
X138938095Y-126344761D01*
X138985714Y-126297142D01*
X139033333Y-126201904D01*
X139033333Y-125392380D01*
X140033333Y-126392380D02*
X139461904Y-126392380D01*
X139747619Y-126392380D02*
X139747619Y-125392380D01*
X139652380Y-125535238D01*
X139557142Y-125630476D01*
X139461904Y-125678095D01*
X140509523Y-126392380D02*
X140700000Y-126392380D01*
X140795238Y-126344761D01*
X140842857Y-126297142D01*
X140938095Y-126154285D01*
X140985714Y-125963809D01*
X140985714Y-125582857D01*
X140938095Y-125487619D01*
X140890476Y-125440000D01*
X140795238Y-125392380D01*
X140604761Y-125392380D01*
X140509523Y-125440000D01*
X140461904Y-125487619D01*
X140414285Y-125582857D01*
X140414285Y-125820952D01*
X140461904Y-125916190D01*
X140509523Y-125963809D01*
X140604761Y-126011428D01*
X140795238Y-126011428D01*
X140890476Y-125963809D01*
X140938095Y-125916190D01*
X140985714Y-125820952D01*
%TO.C,U18*%
X130841904Y-61892380D02*
X130841904Y-62701904D01*
X130889523Y-62797142D01*
X130937142Y-62844761D01*
X131032380Y-62892380D01*
X131222857Y-62892380D01*
X131318095Y-62844761D01*
X131365714Y-62797142D01*
X131413333Y-62701904D01*
X131413333Y-61892380D01*
X132413333Y-62892380D02*
X131841904Y-62892380D01*
X132127619Y-62892380D02*
X132127619Y-61892380D01*
X132032380Y-62035238D01*
X131937142Y-62130476D01*
X131841904Y-62178095D01*
X132984761Y-62320952D02*
X132889523Y-62273333D01*
X132841904Y-62225714D01*
X132794285Y-62130476D01*
X132794285Y-62082857D01*
X132841904Y-61987619D01*
X132889523Y-61940000D01*
X132984761Y-61892380D01*
X133175238Y-61892380D01*
X133270476Y-61940000D01*
X133318095Y-61987619D01*
X133365714Y-62082857D01*
X133365714Y-62130476D01*
X133318095Y-62225714D01*
X133270476Y-62273333D01*
X133175238Y-62320952D01*
X132984761Y-62320952D01*
X132889523Y-62368571D01*
X132841904Y-62416190D01*
X132794285Y-62511428D01*
X132794285Y-62701904D01*
X132841904Y-62797142D01*
X132889523Y-62844761D01*
X132984761Y-62892380D01*
X133175238Y-62892380D01*
X133270476Y-62844761D01*
X133318095Y-62797142D01*
X133365714Y-62701904D01*
X133365714Y-62511428D01*
X133318095Y-62416190D01*
X133270476Y-62368571D01*
X133175238Y-62320952D01*
%TO.C,U17*%
X172751904Y-125392380D02*
X172751904Y-126201904D01*
X172799523Y-126297142D01*
X172847142Y-126344761D01*
X172942380Y-126392380D01*
X173132857Y-126392380D01*
X173228095Y-126344761D01*
X173275714Y-126297142D01*
X173323333Y-126201904D01*
X173323333Y-125392380D01*
X174323333Y-126392380D02*
X173751904Y-126392380D01*
X174037619Y-126392380D02*
X174037619Y-125392380D01*
X173942380Y-125535238D01*
X173847142Y-125630476D01*
X173751904Y-125678095D01*
X174656666Y-125392380D02*
X175323333Y-125392380D01*
X174894761Y-126392380D01*
%TO.C,U16*%
X157511904Y-125392380D02*
X157511904Y-126201904D01*
X157559523Y-126297142D01*
X157607142Y-126344761D01*
X157702380Y-126392380D01*
X157892857Y-126392380D01*
X157988095Y-126344761D01*
X158035714Y-126297142D01*
X158083333Y-126201904D01*
X158083333Y-125392380D01*
X159083333Y-126392380D02*
X158511904Y-126392380D01*
X158797619Y-126392380D02*
X158797619Y-125392380D01*
X158702380Y-125535238D01*
X158607142Y-125630476D01*
X158511904Y-125678095D01*
X159940476Y-125392380D02*
X159750000Y-125392380D01*
X159654761Y-125440000D01*
X159607142Y-125487619D01*
X159511904Y-125630476D01*
X159464285Y-125820952D01*
X159464285Y-126201904D01*
X159511904Y-126297142D01*
X159559523Y-126344761D01*
X159654761Y-126392380D01*
X159845238Y-126392380D01*
X159940476Y-126344761D01*
X159988095Y-126297142D01*
X160035714Y-126201904D01*
X160035714Y-125963809D01*
X159988095Y-125868571D01*
X159940476Y-125820952D01*
X159845238Y-125773333D01*
X159654761Y-125773333D01*
X159559523Y-125820952D01*
X159511904Y-125868571D01*
X159464285Y-125963809D01*
%TO.C,U15*%
X124122380Y-119348095D02*
X124931904Y-119348095D01*
X125027142Y-119300476D01*
X125074761Y-119252857D01*
X125122380Y-119157619D01*
X125122380Y-118967142D01*
X125074761Y-118871904D01*
X125027142Y-118824285D01*
X124931904Y-118776666D01*
X124122380Y-118776666D01*
X125122380Y-117776666D02*
X125122380Y-118348095D01*
X125122380Y-118062380D02*
X124122380Y-118062380D01*
X124265238Y-118157619D01*
X124360476Y-118252857D01*
X124408095Y-118348095D01*
X124122380Y-116871904D02*
X124122380Y-117348095D01*
X124598571Y-117395714D01*
X124550952Y-117348095D01*
X124503333Y-117252857D01*
X124503333Y-117014761D01*
X124550952Y-116919523D01*
X124598571Y-116871904D01*
X124693809Y-116824285D01*
X124931904Y-116824285D01*
X125027142Y-116871904D01*
X125074761Y-116919523D01*
X125122380Y-117014761D01*
X125122380Y-117252857D01*
X125074761Y-117348095D01*
X125027142Y-117395714D01*
%TO.C,U9*%
X81788095Y-105072380D02*
X81788095Y-105881904D01*
X81835714Y-105977142D01*
X81883333Y-106024761D01*
X81978571Y-106072380D01*
X82169047Y-106072380D01*
X82264285Y-106024761D01*
X82311904Y-105977142D01*
X82359523Y-105881904D01*
X82359523Y-105072380D01*
X82883333Y-106072380D02*
X83073809Y-106072380D01*
X83169047Y-106024761D01*
X83216666Y-105977142D01*
X83311904Y-105834285D01*
X83359523Y-105643809D01*
X83359523Y-105262857D01*
X83311904Y-105167619D01*
X83264285Y-105120000D01*
X83169047Y-105072380D01*
X82978571Y-105072380D01*
X82883333Y-105120000D01*
X82835714Y-105167619D01*
X82788095Y-105262857D01*
X82788095Y-105500952D01*
X82835714Y-105596190D01*
X82883333Y-105643809D01*
X82978571Y-105691428D01*
X83169047Y-105691428D01*
X83264285Y-105643809D01*
X83311904Y-105596190D01*
X83359523Y-105500952D01*
%TO.C,U6*%
X81788095Y-129202380D02*
X81788095Y-130011904D01*
X81835714Y-130107142D01*
X81883333Y-130154761D01*
X81978571Y-130202380D01*
X82169047Y-130202380D01*
X82264285Y-130154761D01*
X82311904Y-130107142D01*
X82359523Y-130011904D01*
X82359523Y-129202380D01*
X83264285Y-129202380D02*
X83073809Y-129202380D01*
X82978571Y-129250000D01*
X82930952Y-129297619D01*
X82835714Y-129440476D01*
X82788095Y-129630952D01*
X82788095Y-130011904D01*
X82835714Y-130107142D01*
X82883333Y-130154761D01*
X82978571Y-130202380D01*
X83169047Y-130202380D01*
X83264285Y-130154761D01*
X83311904Y-130107142D01*
X83359523Y-130011904D01*
X83359523Y-129773809D01*
X83311904Y-129678571D01*
X83264285Y-129630952D01*
X83169047Y-129583333D01*
X82978571Y-129583333D01*
X82883333Y-129630952D01*
X82835714Y-129678571D01*
X82788095Y-129773809D01*
%TO.C,U1*%
X166032380Y-118871904D02*
X166841904Y-118871904D01*
X166937142Y-118824285D01*
X166984761Y-118776666D01*
X167032380Y-118681428D01*
X167032380Y-118490952D01*
X166984761Y-118395714D01*
X166937142Y-118348095D01*
X166841904Y-118300476D01*
X166032380Y-118300476D01*
X167032380Y-117300476D02*
X167032380Y-117871904D01*
X167032380Y-117586190D02*
X166032380Y-117586190D01*
X166175238Y-117681428D01*
X166270476Y-117776666D01*
X166318095Y-117871904D01*
%TO.C,R7*%
X183502380Y-81446666D02*
X183026190Y-81780000D01*
X183502380Y-82018095D02*
X182502380Y-82018095D01*
X182502380Y-81637142D01*
X182550000Y-81541904D01*
X182597619Y-81494285D01*
X182692857Y-81446666D01*
X182835714Y-81446666D01*
X182930952Y-81494285D01*
X182978571Y-81541904D01*
X183026190Y-81637142D01*
X183026190Y-82018095D01*
X182502380Y-81113333D02*
X182502380Y-80446666D01*
X183502380Y-80875238D01*
%TO.C,R6*%
X201763333Y-118392380D02*
X201430000Y-117916190D01*
X201191904Y-118392380D02*
X201191904Y-117392380D01*
X201572857Y-117392380D01*
X201668095Y-117440000D01*
X201715714Y-117487619D01*
X201763333Y-117582857D01*
X201763333Y-117725714D01*
X201715714Y-117820952D01*
X201668095Y-117868571D01*
X201572857Y-117916190D01*
X201191904Y-117916190D01*
X202620476Y-117392380D02*
X202430000Y-117392380D01*
X202334761Y-117440000D01*
X202287142Y-117487619D01*
X202191904Y-117630476D01*
X202144285Y-117820952D01*
X202144285Y-118201904D01*
X202191904Y-118297142D01*
X202239523Y-118344761D01*
X202334761Y-118392380D01*
X202525238Y-118392380D01*
X202620476Y-118344761D01*
X202668095Y-118297142D01*
X202715714Y-118201904D01*
X202715714Y-117963809D01*
X202668095Y-117868571D01*
X202620476Y-117820952D01*
X202525238Y-117773333D01*
X202334761Y-117773333D01*
X202239523Y-117820952D01*
X202191904Y-117868571D01*
X202144285Y-117963809D01*
%TO.C,R5*%
X201763333Y-122202380D02*
X201430000Y-121726190D01*
X201191904Y-122202380D02*
X201191904Y-121202380D01*
X201572857Y-121202380D01*
X201668095Y-121250000D01*
X201715714Y-121297619D01*
X201763333Y-121392857D01*
X201763333Y-121535714D01*
X201715714Y-121630952D01*
X201668095Y-121678571D01*
X201572857Y-121726190D01*
X201191904Y-121726190D01*
X202668095Y-121202380D02*
X202191904Y-121202380D01*
X202144285Y-121678571D01*
X202191904Y-121630952D01*
X202287142Y-121583333D01*
X202525238Y-121583333D01*
X202620476Y-121630952D01*
X202668095Y-121678571D01*
X202715714Y-121773809D01*
X202715714Y-122011904D01*
X202668095Y-122107142D01*
X202620476Y-122154761D01*
X202525238Y-122202380D01*
X202287142Y-122202380D01*
X202191904Y-122154761D01*
X202144285Y-122107142D01*
%TO.C,R4*%
X201763333Y-137442380D02*
X201430000Y-136966190D01*
X201191904Y-137442380D02*
X201191904Y-136442380D01*
X201572857Y-136442380D01*
X201668095Y-136490000D01*
X201715714Y-136537619D01*
X201763333Y-136632857D01*
X201763333Y-136775714D01*
X201715714Y-136870952D01*
X201668095Y-136918571D01*
X201572857Y-136966190D01*
X201191904Y-136966190D01*
X202620476Y-136775714D02*
X202620476Y-137442380D01*
X202382380Y-136394761D02*
X202144285Y-137109047D01*
X202763333Y-137109047D01*
%TO.C,R3*%
X201763333Y-133632380D02*
X201430000Y-133156190D01*
X201191904Y-133632380D02*
X201191904Y-132632380D01*
X201572857Y-132632380D01*
X201668095Y-132680000D01*
X201715714Y-132727619D01*
X201763333Y-132822857D01*
X201763333Y-132965714D01*
X201715714Y-133060952D01*
X201668095Y-133108571D01*
X201572857Y-133156190D01*
X201191904Y-133156190D01*
X202096666Y-132632380D02*
X202715714Y-132632380D01*
X202382380Y-133013333D01*
X202525238Y-133013333D01*
X202620476Y-133060952D01*
X202668095Y-133108571D01*
X202715714Y-133203809D01*
X202715714Y-133441904D01*
X202668095Y-133537142D01*
X202620476Y-133584761D01*
X202525238Y-133632380D01*
X202239523Y-133632380D01*
X202144285Y-133584761D01*
X202096666Y-133537142D01*
%TO.C,R2*%
X201763333Y-126012380D02*
X201430000Y-125536190D01*
X201191904Y-126012380D02*
X201191904Y-125012380D01*
X201572857Y-125012380D01*
X201668095Y-125060000D01*
X201715714Y-125107619D01*
X201763333Y-125202857D01*
X201763333Y-125345714D01*
X201715714Y-125440952D01*
X201668095Y-125488571D01*
X201572857Y-125536190D01*
X201191904Y-125536190D01*
X202144285Y-125107619D02*
X202191904Y-125060000D01*
X202287142Y-125012380D01*
X202525238Y-125012380D01*
X202620476Y-125060000D01*
X202668095Y-125107619D01*
X202715714Y-125202857D01*
X202715714Y-125298095D01*
X202668095Y-125440952D01*
X202096666Y-126012380D01*
X202715714Y-126012380D01*
%TO.C,R1*%
X201763333Y-129822380D02*
X201430000Y-129346190D01*
X201191904Y-129822380D02*
X201191904Y-128822380D01*
X201572857Y-128822380D01*
X201668095Y-128870000D01*
X201715714Y-128917619D01*
X201763333Y-129012857D01*
X201763333Y-129155714D01*
X201715714Y-129250952D01*
X201668095Y-129298571D01*
X201572857Y-129346190D01*
X201191904Y-129346190D01*
X202715714Y-129822380D02*
X202144285Y-129822380D01*
X202430000Y-129822380D02*
X202430000Y-128822380D01*
X202334761Y-128965238D01*
X202239523Y-129060476D01*
X202144285Y-129108095D01*
%TO.C,J1*%
X199626666Y-108902380D02*
X199626666Y-109616666D01*
X199579047Y-109759523D01*
X199483809Y-109854761D01*
X199340952Y-109902380D01*
X199245714Y-109902380D01*
X200626666Y-109902380D02*
X200055238Y-109902380D01*
X200340952Y-109902380D02*
X200340952Y-108902380D01*
X200245714Y-109045238D01*
X200150476Y-109140476D01*
X200055238Y-109188095D01*
%TD*%
M02*
