%TF.GenerationSoftware,KiCad,Pcbnew,(5.1.10)-1*%
%TF.CreationDate,2022-01-23T14:02:00+01:00*%
%TF.ProjectId,fdc01,66646330-312e-46b6-9963-61645f706362,rev?*%
%TF.SameCoordinates,Original*%
%TF.FileFunction,Copper,L1,Top*%
%TF.FilePolarity,Positive*%
%FSLAX46Y46*%
G04 Gerber Fmt 4.6, Leading zero omitted, Abs format (unit mm)*
G04 Created by KiCad (PCBNEW (5.1.10)-1) date 2022-01-23 14:02:00*
%MOMM*%
%LPD*%
G01*
G04 APERTURE LIST*
%TA.AperFunction,SMDPad,CuDef*%
%ADD10C,0.100000*%
%TD*%
%TA.AperFunction,ComponentPad*%
%ADD11C,1.400000*%
%TD*%
%TA.AperFunction,ComponentPad*%
%ADD12C,1.610000*%
%TD*%
%TA.AperFunction,ComponentPad*%
%ADD13O,1.600000X1.600000*%
%TD*%
%TA.AperFunction,ComponentPad*%
%ADD14C,1.600000*%
%TD*%
%TA.AperFunction,ComponentPad*%
%ADD15O,2.400000X1.600000*%
%TD*%
%TA.AperFunction,ComponentPad*%
%ADD16R,2.400000X1.600000*%
%TD*%
%TA.AperFunction,ComponentPad*%
%ADD17C,1.500000*%
%TD*%
%TA.AperFunction,ComponentPad*%
%ADD18O,1.600000X2.400000*%
%TD*%
%TA.AperFunction,ComponentPad*%
%ADD19R,1.600000X2.400000*%
%TD*%
%TA.AperFunction,ComponentPad*%
%ADD20O,1.700000X1.700000*%
%TD*%
%TA.AperFunction,ComponentPad*%
%ADD21R,1.700000X1.700000*%
%TD*%
%TA.AperFunction,ViaPad*%
%ADD22C,0.800000*%
%TD*%
%TA.AperFunction,Conductor*%
%ADD23C,0.250000*%
%TD*%
G04 APERTURE END LIST*
%TA.AperFunction,SMDPad,CuDef*%
D10*
%TO.P,X1,C21*%
%TO.N,GND*%
G36*
X56292424Y-121782711D02*
G01*
X56279022Y-121850086D01*
X56259081Y-121915823D01*
X56232793Y-121979289D01*
X56225000Y-121993868D01*
X56225000Y-124180000D01*
X56224939Y-124188726D01*
X56221105Y-124249668D01*
X56211342Y-124309945D01*
X56195744Y-124368981D01*
X56174460Y-124426214D01*
X56147692Y-124481096D01*
X56115696Y-124533104D01*
X56078778Y-124581742D01*
X56037290Y-124626545D01*
X55991627Y-124667086D01*
X55942227Y-124702978D01*
X55889560Y-124733877D01*
X55834129Y-124759490D01*
X55776463Y-124779571D01*
X55717113Y-124793930D01*
X55656645Y-124802428D01*
X55595637Y-124804985D01*
X55534670Y-124801576D01*
X55474326Y-124792235D01*
X55415182Y-124777049D01*
X55357803Y-124756164D01*
X55302735Y-124729780D01*
X55250504Y-124698148D01*
X55201610Y-124661571D01*
X55156518Y-124620396D01*
X55115660Y-124575018D01*
X55079424Y-124525870D01*
X55048158Y-124473420D01*
X55022159Y-124418169D01*
X55001675Y-124360645D01*
X54986903Y-124301396D01*
X54977983Y-124240989D01*
X54975000Y-124180000D01*
X54975000Y-121993868D01*
X54967207Y-121979289D01*
X54940919Y-121915823D01*
X54920978Y-121850086D01*
X54907576Y-121782711D01*
X54900843Y-121714347D01*
X54900843Y-121645653D01*
X54907576Y-121577289D01*
X54920978Y-121509914D01*
X54940919Y-121444177D01*
X54967207Y-121380711D01*
X54999590Y-121320128D01*
X55037755Y-121263010D01*
X55081334Y-121209909D01*
X55129909Y-121161334D01*
X55183010Y-121117755D01*
X55240128Y-121079590D01*
X55300711Y-121047207D01*
X55364177Y-121020919D01*
X55429914Y-121000978D01*
X55497289Y-120987576D01*
X55565653Y-120980843D01*
X55634347Y-120980843D01*
X55702711Y-120987576D01*
X55770086Y-121000978D01*
X55835823Y-121020919D01*
X55899289Y-121047207D01*
X55959872Y-121079590D01*
X56016990Y-121117755D01*
X56070091Y-121161334D01*
X56118666Y-121209909D01*
X56162245Y-121263010D01*
X56200410Y-121320128D01*
X56232793Y-121380711D01*
X56259081Y-121444177D01*
X56279022Y-121509914D01*
X56292424Y-121577289D01*
X56299157Y-121645653D01*
X56299157Y-121714347D01*
X56292424Y-121782711D01*
G37*
%TD.AperFunction*%
%TA.AperFunction,SMDPad,CuDef*%
G36*
X49192424Y-120732711D02*
G01*
X49179022Y-120800086D01*
X49159081Y-120865823D01*
X49132793Y-120929289D01*
X49125000Y-120943868D01*
X49125000Y-123180000D01*
X49124939Y-123188726D01*
X49121105Y-123249668D01*
X49111342Y-123309945D01*
X49095744Y-123368981D01*
X49074460Y-123426214D01*
X49047692Y-123481096D01*
X49015696Y-123533104D01*
X48978778Y-123581742D01*
X48937290Y-123626545D01*
X48891627Y-123667086D01*
X48842227Y-123702978D01*
X48789560Y-123733877D01*
X48734129Y-123759490D01*
X48676463Y-123779571D01*
X48617113Y-123793930D01*
X48556645Y-123802428D01*
X48495637Y-123804985D01*
X48434670Y-123801576D01*
X48374326Y-123792235D01*
X48315182Y-123777049D01*
X48257803Y-123756164D01*
X48202735Y-123729780D01*
X48150504Y-123698148D01*
X48101610Y-123661571D01*
X48056518Y-123620396D01*
X48015660Y-123575018D01*
X47979424Y-123525870D01*
X47948158Y-123473420D01*
X47922159Y-123418169D01*
X47901675Y-123360645D01*
X47886903Y-123301396D01*
X47877983Y-123240989D01*
X47875000Y-123180000D01*
X47875000Y-120943868D01*
X47867207Y-120929289D01*
X47840919Y-120865823D01*
X47820978Y-120800086D01*
X47807576Y-120732711D01*
X47800843Y-120664347D01*
X47800843Y-120595653D01*
X47807576Y-120527289D01*
X47820978Y-120459914D01*
X47840919Y-120394177D01*
X47867207Y-120330711D01*
X47899590Y-120270128D01*
X47937755Y-120213010D01*
X47981334Y-120159909D01*
X48029909Y-120111334D01*
X48083010Y-120067755D01*
X48140128Y-120029590D01*
X48200711Y-119997207D01*
X48264177Y-119970919D01*
X48329914Y-119950978D01*
X48397289Y-119937576D01*
X48465653Y-119930843D01*
X48534347Y-119930843D01*
X48602711Y-119937576D01*
X48670086Y-119950978D01*
X48735823Y-119970919D01*
X48799289Y-119997207D01*
X48859872Y-120029590D01*
X48916990Y-120067755D01*
X48970091Y-120111334D01*
X49018666Y-120159909D01*
X49062245Y-120213010D01*
X49100410Y-120270128D01*
X49132793Y-120330711D01*
X49159081Y-120394177D01*
X49179022Y-120459914D01*
X49192424Y-120527289D01*
X49199157Y-120595653D01*
X49199157Y-120664347D01*
X49192424Y-120732711D01*
G37*
%TD.AperFunction*%
%TA.AperFunction,SMDPad,CuDef*%
%TO.P,X1,C02*%
G36*
X56292424Y-74282711D02*
G01*
X56279022Y-74350086D01*
X56259081Y-74415823D01*
X56232793Y-74479289D01*
X56200410Y-74539872D01*
X56162245Y-74596990D01*
X56118666Y-74650091D01*
X56070091Y-74698666D01*
X56016990Y-74742245D01*
X55959872Y-74780410D01*
X55899289Y-74812793D01*
X55835823Y-74839081D01*
X55770086Y-74859022D01*
X55702711Y-74872424D01*
X55634347Y-74879157D01*
X55565653Y-74879157D01*
X55497289Y-74872424D01*
X55429914Y-74859022D01*
X55364177Y-74839081D01*
X55300711Y-74812793D01*
X55286132Y-74805000D01*
X54808884Y-74805000D01*
X54175000Y-75438883D01*
X54175000Y-120421116D01*
X54808883Y-121055000D01*
X55600000Y-121055000D01*
X55608726Y-121055061D01*
X55669668Y-121058895D01*
X55729945Y-121068658D01*
X55788981Y-121084256D01*
X55846214Y-121105540D01*
X55901096Y-121132308D01*
X55953104Y-121164304D01*
X56001742Y-121201222D01*
X56046545Y-121242710D01*
X56087086Y-121288373D01*
X56122978Y-121337773D01*
X56153877Y-121390440D01*
X56179490Y-121445871D01*
X56199571Y-121503537D01*
X56213930Y-121562887D01*
X56222428Y-121623355D01*
X56224985Y-121684363D01*
X56221576Y-121745330D01*
X56212235Y-121805674D01*
X56197049Y-121864818D01*
X56176164Y-121922197D01*
X56149780Y-121977265D01*
X56118148Y-122029496D01*
X56081571Y-122078390D01*
X56040396Y-122123482D01*
X55995018Y-122164340D01*
X55945870Y-122200576D01*
X55893420Y-122231842D01*
X55838169Y-122257841D01*
X55780645Y-122278325D01*
X55721396Y-122293097D01*
X55660989Y-122302017D01*
X55600000Y-122305000D01*
X54550000Y-122305000D01*
X54548033Y-122304986D01*
X54547818Y-122304996D01*
X54547570Y-122304983D01*
X54541274Y-122304939D01*
X54514037Y-122303225D01*
X54486840Y-122301800D01*
X54483606Y-122301311D01*
X54480332Y-122301105D01*
X54453428Y-122296747D01*
X54426465Y-122292670D01*
X54423283Y-122291865D01*
X54420055Y-122291342D01*
X54393750Y-122284392D01*
X54367268Y-122277691D01*
X54364179Y-122276579D01*
X54361019Y-122275744D01*
X54335492Y-122266251D01*
X54309816Y-122257007D01*
X54306858Y-122255602D01*
X54303786Y-122254460D01*
X54279270Y-122242503D01*
X54254656Y-122230815D01*
X54251849Y-122229128D01*
X54248904Y-122227692D01*
X54225678Y-122213403D01*
X54202315Y-122199365D01*
X54199686Y-122197412D01*
X54196896Y-122195696D01*
X54175153Y-122179192D01*
X54153294Y-122162958D01*
X54150874Y-122160763D01*
X54148258Y-122158778D01*
X54128220Y-122140222D01*
X54108059Y-122121942D01*
X53108058Y-121121942D01*
X53106675Y-121120539D01*
X53106518Y-121120396D01*
X53106353Y-121120213D01*
X53101931Y-121115728D01*
X53083895Y-121095270D01*
X53065660Y-121075018D01*
X53063718Y-121072385D01*
X53061550Y-121069925D01*
X53045613Y-121047828D01*
X53029424Y-121025870D01*
X53027743Y-121023050D01*
X53025831Y-121020399D01*
X53012141Y-120996877D01*
X52998158Y-120973420D01*
X52996762Y-120970452D01*
X52995116Y-120967625D01*
X52983764Y-120942831D01*
X52972159Y-120918169D01*
X52971062Y-120915089D01*
X52969696Y-120912105D01*
X52960808Y-120886292D01*
X52951675Y-120860645D01*
X52950883Y-120857470D01*
X52949816Y-120854370D01*
X52943498Y-120827850D01*
X52936903Y-120801396D01*
X52936424Y-120798152D01*
X52935666Y-120794970D01*
X52931966Y-120767960D01*
X52927983Y-120740989D01*
X52927823Y-120737723D01*
X52927378Y-120734473D01*
X52926330Y-120707193D01*
X52925000Y-120680000D01*
X52925000Y-75180000D01*
X52925014Y-75178033D01*
X52925004Y-75177818D01*
X52925017Y-75177570D01*
X52925061Y-75171274D01*
X52926775Y-75144037D01*
X52928200Y-75116840D01*
X52928689Y-75113606D01*
X52928895Y-75110332D01*
X52933253Y-75083428D01*
X52937330Y-75056465D01*
X52938135Y-75053283D01*
X52938658Y-75050055D01*
X52945608Y-75023750D01*
X52952309Y-74997268D01*
X52953421Y-74994179D01*
X52954256Y-74991019D01*
X52963749Y-74965492D01*
X52972993Y-74939816D01*
X52974398Y-74936858D01*
X52975540Y-74933786D01*
X52987497Y-74909270D01*
X52999185Y-74884656D01*
X53000872Y-74881849D01*
X53002308Y-74878904D01*
X53016597Y-74855678D01*
X53030635Y-74832315D01*
X53032588Y-74829686D01*
X53034304Y-74826896D01*
X53050808Y-74805153D01*
X53067042Y-74783294D01*
X53069237Y-74780874D01*
X53071222Y-74778258D01*
X53089778Y-74758220D01*
X53108058Y-74738059D01*
X54108058Y-73738058D01*
X54109461Y-73736675D01*
X54109604Y-73736518D01*
X54109787Y-73736353D01*
X54114272Y-73731931D01*
X54134730Y-73713895D01*
X54154982Y-73695660D01*
X54157615Y-73693718D01*
X54160075Y-73691550D01*
X54182172Y-73675613D01*
X54204130Y-73659424D01*
X54206950Y-73657743D01*
X54209601Y-73655831D01*
X54233123Y-73642141D01*
X54256580Y-73628158D01*
X54259548Y-73626762D01*
X54262375Y-73625116D01*
X54287169Y-73613764D01*
X54311831Y-73602159D01*
X54314911Y-73601062D01*
X54317895Y-73599696D01*
X54343708Y-73590808D01*
X54369355Y-73581675D01*
X54372530Y-73580883D01*
X54375630Y-73579816D01*
X54402150Y-73573498D01*
X54428604Y-73566903D01*
X54431848Y-73566424D01*
X54435030Y-73565666D01*
X54462040Y-73561966D01*
X54489011Y-73557983D01*
X54492277Y-73557823D01*
X54495527Y-73557378D01*
X54522807Y-73556330D01*
X54550000Y-73555000D01*
X55286132Y-73555000D01*
X55300711Y-73547207D01*
X55364177Y-73520919D01*
X55429914Y-73500978D01*
X55497289Y-73487576D01*
X55565653Y-73480843D01*
X55634347Y-73480843D01*
X55702711Y-73487576D01*
X55770086Y-73500978D01*
X55835823Y-73520919D01*
X55899289Y-73547207D01*
X55959872Y-73579590D01*
X56016990Y-73617755D01*
X56070091Y-73661334D01*
X56118666Y-73709909D01*
X56162245Y-73763010D01*
X56200410Y-73820128D01*
X56232793Y-73880711D01*
X56259081Y-73944177D01*
X56279022Y-74009914D01*
X56292424Y-74077289D01*
X56299157Y-74145653D01*
X56299157Y-74214347D01*
X56292424Y-74282711D01*
G37*
%TD.AperFunction*%
%TA.AperFunction,SMDPad,CuDef*%
G36*
X49192424Y-72482711D02*
G01*
X49179022Y-72550086D01*
X49159081Y-72615823D01*
X49132793Y-72679289D01*
X49100410Y-72739872D01*
X49062245Y-72796990D01*
X49018666Y-72850091D01*
X48970091Y-72898666D01*
X48916990Y-72942245D01*
X48859872Y-72980410D01*
X48799289Y-73012793D01*
X48735823Y-73039081D01*
X48670086Y-73059022D01*
X48602711Y-73072424D01*
X48534347Y-73079157D01*
X48465653Y-73079157D01*
X48397289Y-73072424D01*
X48329914Y-73059022D01*
X48264177Y-73039081D01*
X48200711Y-73012793D01*
X48186132Y-73005000D01*
X47708884Y-73005000D01*
X47075000Y-73638883D01*
X47075000Y-119371116D01*
X47708883Y-120005000D01*
X48500000Y-120005000D01*
X48508726Y-120005061D01*
X48569668Y-120008895D01*
X48629945Y-120018658D01*
X48688981Y-120034256D01*
X48746214Y-120055540D01*
X48801096Y-120082308D01*
X48853104Y-120114304D01*
X48901742Y-120151222D01*
X48946545Y-120192710D01*
X48987086Y-120238373D01*
X49022978Y-120287773D01*
X49053877Y-120340440D01*
X49079490Y-120395871D01*
X49099571Y-120453537D01*
X49113930Y-120512887D01*
X49122428Y-120573355D01*
X49124985Y-120634363D01*
X49121576Y-120695330D01*
X49112235Y-120755674D01*
X49097049Y-120814818D01*
X49076164Y-120872197D01*
X49049780Y-120927265D01*
X49018148Y-120979496D01*
X48981571Y-121028390D01*
X48940396Y-121073482D01*
X48895018Y-121114340D01*
X48845870Y-121150576D01*
X48793420Y-121181842D01*
X48738169Y-121207841D01*
X48680645Y-121228325D01*
X48621396Y-121243097D01*
X48560989Y-121252017D01*
X48500000Y-121255000D01*
X47450000Y-121255000D01*
X47448033Y-121254986D01*
X47447818Y-121254996D01*
X47447570Y-121254983D01*
X47441274Y-121254939D01*
X47414037Y-121253225D01*
X47386840Y-121251800D01*
X47383606Y-121251311D01*
X47380332Y-121251105D01*
X47353428Y-121246747D01*
X47326465Y-121242670D01*
X47323283Y-121241865D01*
X47320055Y-121241342D01*
X47293750Y-121234392D01*
X47267268Y-121227691D01*
X47264179Y-121226579D01*
X47261019Y-121225744D01*
X47235492Y-121216251D01*
X47209816Y-121207007D01*
X47206858Y-121205602D01*
X47203786Y-121204460D01*
X47179270Y-121192503D01*
X47154656Y-121180815D01*
X47151849Y-121179128D01*
X47148904Y-121177692D01*
X47125678Y-121163403D01*
X47102315Y-121149365D01*
X47099686Y-121147412D01*
X47096896Y-121145696D01*
X47075153Y-121129192D01*
X47053294Y-121112958D01*
X47050874Y-121110763D01*
X47048258Y-121108778D01*
X47028220Y-121090222D01*
X47008059Y-121071942D01*
X46008058Y-120071942D01*
X46006675Y-120070539D01*
X46006518Y-120070396D01*
X46006353Y-120070213D01*
X46001931Y-120065728D01*
X45983895Y-120045270D01*
X45965660Y-120025018D01*
X45963718Y-120022385D01*
X45961550Y-120019925D01*
X45945613Y-119997828D01*
X45929424Y-119975870D01*
X45927743Y-119973050D01*
X45925831Y-119970399D01*
X45912141Y-119946877D01*
X45898158Y-119923420D01*
X45896762Y-119920452D01*
X45895116Y-119917625D01*
X45883764Y-119892831D01*
X45872159Y-119868169D01*
X45871062Y-119865089D01*
X45869696Y-119862105D01*
X45860808Y-119836292D01*
X45851675Y-119810645D01*
X45850883Y-119807470D01*
X45849816Y-119804370D01*
X45843498Y-119777850D01*
X45836903Y-119751396D01*
X45836424Y-119748152D01*
X45835666Y-119744970D01*
X45831966Y-119717960D01*
X45827983Y-119690989D01*
X45827823Y-119687723D01*
X45827378Y-119684473D01*
X45826330Y-119657193D01*
X45825000Y-119630000D01*
X45825000Y-73380000D01*
X45825014Y-73378033D01*
X45825004Y-73377818D01*
X45825017Y-73377570D01*
X45825061Y-73371274D01*
X45826775Y-73344037D01*
X45828200Y-73316840D01*
X45828689Y-73313606D01*
X45828895Y-73310332D01*
X45833253Y-73283428D01*
X45837330Y-73256465D01*
X45838135Y-73253283D01*
X45838658Y-73250055D01*
X45845608Y-73223750D01*
X45852309Y-73197268D01*
X45853421Y-73194179D01*
X45854256Y-73191019D01*
X45863749Y-73165492D01*
X45872993Y-73139816D01*
X45874398Y-73136858D01*
X45875540Y-73133786D01*
X45887497Y-73109270D01*
X45899185Y-73084656D01*
X45900872Y-73081849D01*
X45902308Y-73078904D01*
X45916597Y-73055678D01*
X45930635Y-73032315D01*
X45932588Y-73029686D01*
X45934304Y-73026896D01*
X45950808Y-73005153D01*
X45967042Y-72983294D01*
X45969237Y-72980874D01*
X45971222Y-72978258D01*
X45989778Y-72958220D01*
X46008058Y-72938059D01*
X47008058Y-71938058D01*
X47009461Y-71936675D01*
X47009604Y-71936518D01*
X47009787Y-71936353D01*
X47014272Y-71931931D01*
X47034730Y-71913895D01*
X47054982Y-71895660D01*
X47057615Y-71893718D01*
X47060075Y-71891550D01*
X47082172Y-71875613D01*
X47104130Y-71859424D01*
X47106950Y-71857743D01*
X47109601Y-71855831D01*
X47133123Y-71842141D01*
X47156580Y-71828158D01*
X47159548Y-71826762D01*
X47162375Y-71825116D01*
X47187169Y-71813764D01*
X47211831Y-71802159D01*
X47214911Y-71801062D01*
X47217895Y-71799696D01*
X47243708Y-71790808D01*
X47269355Y-71781675D01*
X47272530Y-71780883D01*
X47275630Y-71779816D01*
X47302150Y-71773498D01*
X47328604Y-71766903D01*
X47331848Y-71766424D01*
X47335030Y-71765666D01*
X47362040Y-71761966D01*
X47389011Y-71757983D01*
X47392277Y-71757823D01*
X47395527Y-71757378D01*
X47422807Y-71756330D01*
X47450000Y-71755000D01*
X48186132Y-71755000D01*
X48200711Y-71747207D01*
X48264177Y-71720919D01*
X48329914Y-71700978D01*
X48397289Y-71687576D01*
X48465653Y-71680843D01*
X48534347Y-71680843D01*
X48602711Y-71687576D01*
X48670086Y-71700978D01*
X48735823Y-71720919D01*
X48799289Y-71747207D01*
X48859872Y-71779590D01*
X48916990Y-71817755D01*
X48970091Y-71861334D01*
X49018666Y-71909909D01*
X49062245Y-71963010D01*
X49100410Y-72020128D01*
X49132793Y-72080711D01*
X49159081Y-72144177D01*
X49179022Y-72209914D01*
X49192424Y-72277289D01*
X49199157Y-72345653D01*
X49199157Y-72414347D01*
X49192424Y-72482711D01*
G37*
%TD.AperFunction*%
D11*
%TO.P,X1,A03*%
%TO.N,Net-(X1-PadA03)*%
X43408600Y-74930000D03*
%TO.P,X1,A29*%
%TO.N,+5P*%
X50600000Y-141680000D03*
%TO.P,X1,A28*%
%TO.N,Net-(X1-PadA28)*%
X50600000Y-139180000D03*
%TO.P,X1,A27*%
%TO.N,Net-(X1-PadA27)*%
X50600000Y-136680000D03*
%TO.P,X1,A26*%
%TO.N,Net-(X1-PadA26)*%
X50600000Y-134180000D03*
%TO.P,X1,A25*%
%TO.N,Net-(X1-PadA25)*%
X50600000Y-131680000D03*
%TO.P,X1,A24*%
%TO.N,Net-(X1-PadA24)*%
X50600000Y-129180000D03*
%TO.P,X1,A23*%
%TO.N,Net-(X1-PadA23)*%
X50600000Y-126680000D03*
%TO.P,X1,A22*%
%TO.N,Net-(X1-PadA22)*%
X50600000Y-124180000D03*
%TO.P,X1,A21*%
%TO.N,Net-(X1-PadA21)*%
X50600000Y-121680000D03*
%TO.P,X1,A20*%
%TO.N,Net-(U28-Pad5)*%
X50600000Y-119180000D03*
%TO.P,X1,A19*%
%TO.N,Net-(U12-Pad5)*%
X50600000Y-116680000D03*
%TO.P,X1,A18*%
%TO.N,Net-(U9-Pad2)*%
X50600000Y-114180000D03*
%TO.P,X1,A17*%
%TO.N,Net-(U6-Pad5)*%
X50600000Y-111680000D03*
%TO.P,X1,A16*%
%TO.N,Net-(U6-Pad2)*%
X50600000Y-109180000D03*
%TO.P,X1,A15*%
%TO.N,Net-(X1-PadA15)*%
X50600000Y-106680000D03*
%TO.P,X1,A14*%
%TO.N,Net-(X1-PadA14)*%
X50600000Y-104180000D03*
%TO.P,X1,A13*%
%TO.N,Net-(X1-PadA13)*%
X50600000Y-101680000D03*
%TO.P,X1,A12*%
%TO.N,Net-(X1-PadA12)*%
X50600000Y-99180000D03*
%TO.P,X1,A11*%
%TO.N,Net-(X1-PadA11)*%
X50600000Y-96680000D03*
%TO.P,X1,A10*%
%TO.N,Net-(X1-PadA10)*%
X50600000Y-94180000D03*
%TO.P,X1,A09*%
%TO.N,Net-(X1-PadA09)*%
X50600000Y-91680000D03*
%TO.P,X1,A08*%
%TO.N,Net-(U18-Pad12)*%
X50600000Y-89180000D03*
%TO.P,X1,A07*%
%TO.N,Net-(U3-Pad2)*%
X50600000Y-86680000D03*
%TO.P,X1,A06*%
%TO.N,Net-(U3-Pad4)*%
X50600000Y-84180000D03*
%TO.P,X1,A05*%
%TO.N,Net-(U3-Pad6)*%
X50600000Y-81680000D03*
%TO.P,X1,A04*%
%TO.N,Net-(U3-Pad8)*%
X50600000Y-79180000D03*
%TO.P,X1,A03*%
%TO.N,Net-(X1-PadA03)*%
X50600000Y-76680000D03*
%TO.P,X1,A02*%
%TO.N,GND*%
X50600000Y-74180000D03*
%TO.P,X1,A01*%
X50600000Y-71680000D03*
%TO.P,X1,C29*%
%TO.N,+5P*%
X55600000Y-141680000D03*
%TO.P,X1,C28*%
%TO.N,Net-(X1-PadC28)*%
X55600000Y-139180000D03*
%TO.P,X1,C27*%
%TO.N,Net-(X1-PadA27)*%
X55600000Y-136680000D03*
%TO.P,X1,C26*%
%TO.N,Net-(X1-PadC26)*%
X55600000Y-134180000D03*
%TO.P,X1,C25*%
%TO.N,Net-(X1-PadC25)*%
X55600000Y-131680000D03*
%TO.P,X1,C24*%
%TO.N,Net-(U18-Pad11)*%
X55600000Y-129180000D03*
%TO.P,X1,C23*%
%TO.N,Net-(X1-PadC23)*%
X55600000Y-126680000D03*
%TO.P,X1,C22*%
%TO.N,GND*%
X55600000Y-124180000D03*
%TO.P,X1,C21*%
X55600000Y-121680000D03*
%TO.P,X1,C20*%
%TO.N,Net-(X1-PadC20)*%
X55600000Y-119180000D03*
%TO.P,X1,C19*%
%TO.N,Net-(U9-Pad1)*%
X55600000Y-116680000D03*
%TO.P,X1,C18*%
%TO.N,Net-(U6-Pad4)*%
X55600000Y-114180000D03*
%TO.P,X1,C17*%
%TO.N,Net-(U6-Pad1)*%
X55600000Y-111680000D03*
%TO.P,X1,C16*%
%TO.N,Net-(U9-Pad3)*%
X55600000Y-109180000D03*
%TO.P,X1,C15*%
%TO.N,Net-(X1-PadC15)*%
X55600000Y-106680000D03*
%TO.P,X1,C14*%
%TO.N,Net-(X1-PadC14)*%
X55600000Y-104180000D03*
%TO.P,X1,C13*%
%TO.N,Net-(X1-PadC13)*%
X55600000Y-101680000D03*
%TO.P,X1,C12*%
%TO.N,Net-(X1-PadC12)*%
X55600000Y-99180000D03*
%TO.P,X1,C11*%
%TO.N,Net-(X1-PadC11)*%
X55600000Y-96680000D03*
%TO.P,X1,C10*%
%TO.N,Net-(X1-PadA10)*%
X55600000Y-94180000D03*
%TO.P,X1,C09*%
%TO.N,Net-(X1-PadC09)*%
X55600000Y-91680000D03*
%TO.P,X1,C08*%
%TO.N,Net-(U18-Pad9)*%
X55600000Y-89180000D03*
%TO.P,X1,C07*%
%TO.N,Net-(U3-Pad1)*%
X55600000Y-86680000D03*
%TO.P,X1,C06*%
%TO.N,Net-(U3-Pad3)*%
X55600000Y-84180000D03*
%TO.P,X1,C05*%
%TO.N,Net-(U3-Pad5)*%
X55600000Y-81680000D03*
%TO.P,X1,C04*%
%TO.N,Net-(U3-Pad7)*%
X55600000Y-79180000D03*
%TO.P,X1,C03*%
%TO.N,Net-(X1-PadC03)*%
X55600000Y-76680000D03*
%TO.P,X1,C02*%
%TO.N,GND*%
X55600000Y-74180000D03*
%TO.P,X1,C01*%
X55600000Y-71680000D03*
D12*
%TO.P,X1,*%
%TO.N,*%
X43100000Y-147930000D03*
X43100000Y-65430000D03*
D11*
%TO.P,X1,C29*%
%TO.N,+5P*%
X48488600Y-140970000D03*
%TO.P,X1,C28*%
%TO.N,Net-(X1-PadC28)*%
X48488600Y-138430000D03*
%TO.P,X1,C27*%
%TO.N,Net-(X1-PadA27)*%
X48488600Y-135890000D03*
%TO.P,X1,C26*%
%TO.N,Net-(X1-PadC26)*%
X48488600Y-133350000D03*
%TO.P,X1,C25*%
%TO.N,Net-(X1-PadC25)*%
X48488600Y-130810000D03*
%TO.P,X1,C24*%
%TO.N,Net-(U18-Pad11)*%
X48488600Y-128270000D03*
%TO.P,X1,C23*%
%TO.N,Net-(X1-PadC23)*%
X48488600Y-125730000D03*
%TO.P,X1,C22*%
%TO.N,GND*%
X48488600Y-123190000D03*
%TO.P,X1,C21*%
X48488600Y-120650000D03*
%TO.P,X1,C20*%
%TO.N,Net-(X1-PadC20)*%
X48488600Y-118110000D03*
%TO.P,X1,C19*%
%TO.N,Net-(U9-Pad1)*%
X48488600Y-115570000D03*
%TO.P,X1,C18*%
%TO.N,Net-(U6-Pad4)*%
X48488600Y-113030000D03*
%TO.P,X1,C17*%
%TO.N,Net-(U6-Pad1)*%
X48488600Y-110490000D03*
%TO.P,X1,C16*%
%TO.N,Net-(U9-Pad3)*%
X48488600Y-107950000D03*
%TO.P,X1,C15*%
%TO.N,Net-(X1-PadC15)*%
X48488600Y-105410000D03*
%TO.P,X1,C14*%
%TO.N,Net-(X1-PadC14)*%
X48488600Y-102870000D03*
%TO.P,X1,C13*%
%TO.N,Net-(X1-PadC13)*%
X48488600Y-100330000D03*
%TO.P,X1,C12*%
%TO.N,Net-(X1-PadC12)*%
X48488600Y-97790000D03*
%TO.P,X1,C11*%
%TO.N,Net-(X1-PadC11)*%
X48488600Y-95250000D03*
%TO.P,X1,C10*%
%TO.N,Net-(X1-PadA10)*%
X48488600Y-92710000D03*
%TO.P,X1,C09*%
%TO.N,Net-(X1-PadC09)*%
X48488600Y-90170000D03*
%TO.P,X1,C08*%
%TO.N,Net-(U18-Pad9)*%
X48488600Y-87630000D03*
%TO.P,X1,C07*%
%TO.N,Net-(U3-Pad1)*%
X48488600Y-85090000D03*
%TO.P,X1,C06*%
%TO.N,Net-(U3-Pad3)*%
X48488600Y-82550000D03*
%TO.P,X1,C05*%
%TO.N,Net-(U3-Pad5)*%
X48488600Y-80010000D03*
%TO.P,X1,C04*%
%TO.N,Net-(U3-Pad7)*%
X48488600Y-77470000D03*
%TO.P,X1,C03*%
%TO.N,Net-(X1-PadC03)*%
X48488600Y-74930000D03*
%TO.P,X1,C02*%
%TO.N,GND*%
X48488600Y-72390000D03*
%TO.P,X1,C01*%
X48488600Y-69850000D03*
%TO.P,X1,A29*%
%TO.N,+5P*%
X43408600Y-140970000D03*
%TO.P,X1,A28*%
%TO.N,Net-(X1-PadA28)*%
X43408600Y-138430000D03*
%TO.P,X1,A27*%
%TO.N,Net-(X1-PadA27)*%
X43408600Y-135890000D03*
%TO.P,X1,A26*%
%TO.N,Net-(X1-PadA26)*%
X43408600Y-133350000D03*
%TO.P,X1,A25*%
%TO.N,Net-(X1-PadA25)*%
X43408600Y-130810000D03*
%TO.P,X1,A24*%
%TO.N,Net-(X1-PadA24)*%
X43408600Y-128270000D03*
%TO.P,X1,A23*%
%TO.N,Net-(X1-PadA23)*%
X43408600Y-125730000D03*
%TO.P,X1,A22*%
%TO.N,Net-(X1-PadA22)*%
X43408600Y-123190000D03*
%TO.P,X1,A21*%
%TO.N,Net-(X1-PadA21)*%
X43408600Y-120650000D03*
%TO.P,X1,A20*%
%TO.N,Net-(U28-Pad5)*%
X43408600Y-118110000D03*
%TO.P,X1,A19*%
%TO.N,Net-(U12-Pad5)*%
X43408600Y-115570000D03*
%TO.P,X1,A18*%
%TO.N,Net-(U9-Pad2)*%
X43408600Y-113030000D03*
%TO.P,X1,A17*%
%TO.N,Net-(U6-Pad5)*%
X43408600Y-110490000D03*
%TO.P,X1,A16*%
%TO.N,Net-(U6-Pad2)*%
X43408600Y-107950000D03*
%TO.P,X1,A15*%
%TO.N,Net-(X1-PadA15)*%
X43408600Y-105410000D03*
%TO.P,X1,A14*%
%TO.N,Net-(X1-PadA14)*%
X43408600Y-102870000D03*
%TO.P,X1,A13*%
%TO.N,Net-(X1-PadA13)*%
X43408600Y-100330000D03*
%TO.P,X1,A12*%
%TO.N,Net-(X1-PadA12)*%
X43408600Y-97790000D03*
%TO.P,X1,A11*%
%TO.N,Net-(X1-PadA11)*%
X43408600Y-95250000D03*
%TO.P,X1,A10*%
%TO.N,Net-(X1-PadA10)*%
X43408600Y-92710000D03*
%TO.P,X1,A09*%
%TO.N,Net-(X1-PadA09)*%
X43408600Y-90170000D03*
%TO.P,X1,A08*%
%TO.N,Net-(U18-Pad12)*%
X43408600Y-87630000D03*
%TO.P,X1,A07*%
%TO.N,Net-(U3-Pad2)*%
X43408600Y-85090000D03*
%TO.P,X1,A06*%
%TO.N,Net-(U3-Pad4)*%
X43408600Y-82550000D03*
%TO.P,X1,A05*%
%TO.N,Net-(U3-Pad6)*%
X43408600Y-80010000D03*
%TO.P,X1,A04*%
%TO.N,Net-(U3-Pad8)*%
X43408600Y-77470000D03*
%TO.P,X1,A02*%
%TO.N,GND*%
X43408600Y-72390000D03*
%TO.P,X1,A01*%
X43408600Y-69850000D03*
D12*
%TO.P,X1,*%
%TO.N,*%
X40868600Y-151130000D03*
X40868600Y-62230000D03*
%TD*%
D13*
%TO.P,R9,2*%
%TO.N,Net-(R9-Pad2)*%
X123190000Y-123190000D03*
D14*
%TO.P,R9,1*%
%TO.N,+5P*%
X113030000Y-123190000D03*
%TD*%
D15*
%TO.P,U5,14*%
%TO.N,+5P*%
X101600000Y-106680000D03*
%TO.P,U5,7*%
%TO.N,GND*%
X93980000Y-121920000D03*
%TO.P,U5,13*%
%TO.N,N/C*%
X101600000Y-109220000D03*
%TO.P,U5,6*%
X93980000Y-119380000D03*
%TO.P,U5,12*%
X101600000Y-111760000D03*
%TO.P,U5,5*%
X93980000Y-116840000D03*
%TO.P,U5,11*%
X101600000Y-114300000D03*
%TO.P,U5,4*%
%TO.N,Net-(U12-Pad2)*%
X93980000Y-114300000D03*
%TO.P,U5,10*%
%TO.N,N/C*%
X101600000Y-116840000D03*
%TO.P,U5,3*%
%TO.N,Net-(U18-Pad10)*%
X93980000Y-111760000D03*
%TO.P,U5,9*%
%TO.N,N/C*%
X101600000Y-119380000D03*
%TO.P,U5,2*%
%TO.N,Net-(U12-Pad3)*%
X93980000Y-109220000D03*
%TO.P,U5,8*%
%TO.N,N/C*%
X101600000Y-121920000D03*
D16*
%TO.P,U5,1*%
%TO.N,Net-(U18-Pad13)*%
X93980000Y-106680000D03*
%TD*%
D15*
%TO.P,U3,20*%
%TO.N,+5P*%
X86360000Y-78740000D03*
%TO.P,U3,10*%
%TO.N,GND*%
X78740000Y-101600000D03*
%TO.P,U3,19*%
%TO.N,Net-(U12-Pad6)*%
X86360000Y-81280000D03*
%TO.P,U3,9*%
%TO.N,Net-(U12-Pad4)*%
X78740000Y-99060000D03*
%TO.P,U3,18*%
%TO.N,Net-(U12-Pad7)*%
X86360000Y-83820000D03*
%TO.P,U3,8*%
%TO.N,Net-(U3-Pad8)*%
X78740000Y-96520000D03*
%TO.P,U3,17*%
%TO.N,Net-(U12-Pad8)*%
X86360000Y-86360000D03*
%TO.P,U3,7*%
%TO.N,Net-(U3-Pad7)*%
X78740000Y-93980000D03*
%TO.P,U3,16*%
%TO.N,Net-(U12-Pad9)*%
X86360000Y-88900000D03*
%TO.P,U3,6*%
%TO.N,Net-(U3-Pad6)*%
X78740000Y-91440000D03*
%TO.P,U3,15*%
%TO.N,Net-(U12-Pad10)*%
X86360000Y-91440000D03*
%TO.P,U3,5*%
%TO.N,Net-(U3-Pad5)*%
X78740000Y-88900000D03*
%TO.P,U3,14*%
%TO.N,Net-(U12-Pad11)*%
X86360000Y-93980000D03*
%TO.P,U3,4*%
%TO.N,Net-(U3-Pad4)*%
X78740000Y-86360000D03*
%TO.P,U3,13*%
%TO.N,Net-(U12-Pad12)*%
X86360000Y-96520000D03*
%TO.P,U3,3*%
%TO.N,Net-(U3-Pad3)*%
X78740000Y-83820000D03*
%TO.P,U3,12*%
%TO.N,Net-(U12-Pad13)*%
X86360000Y-99060000D03*
%TO.P,U3,2*%
%TO.N,Net-(U3-Pad2)*%
X78740000Y-81280000D03*
%TO.P,U3,11*%
%TO.N,Net-(U18-Pad12)*%
X86360000Y-101600000D03*
D16*
%TO.P,U3,1*%
%TO.N,Net-(U3-Pad1)*%
X78740000Y-78740000D03*
%TD*%
D15*
%TO.P,U12,40*%
%TO.N,GND*%
X120650000Y-68580000D03*
%TO.P,U12,20*%
%TO.N,+5P*%
X105410000Y-116840000D03*
%TO.P,U12,39*%
%TO.N,Net-(U12-Pad39)*%
X120650000Y-71120000D03*
%TO.P,U12,19*%
%TO.N,Net-(U12-Pad19)*%
X105410000Y-114300000D03*
%TO.P,U12,38*%
%TO.N,Net-(U12-Pad38)*%
X120650000Y-73660000D03*
%TO.P,U12,18*%
%TO.N,Net-(U12-Pad18)*%
X105410000Y-111760000D03*
%TO.P,U12,37*%
%TO.N,Net-(U12-Pad37)*%
X120650000Y-76200000D03*
%TO.P,U12,17*%
%TO.N,Net-(U12-Pad17)*%
X105410000Y-109220000D03*
%TO.P,U12,36*%
%TO.N,Net-(U12-Pad36)*%
X120650000Y-78740000D03*
%TO.P,U12,16*%
%TO.N,Net-(U12-Pad16)*%
X105410000Y-106680000D03*
%TO.P,U12,35*%
%TO.N,Net-(U12-Pad35)*%
X120650000Y-81280000D03*
%TO.P,U12,15*%
%TO.N,Net-(U12-Pad15)*%
X105410000Y-104140000D03*
%TO.P,U12,34*%
%TO.N,Net-(R5-Pad2)*%
X120650000Y-83820000D03*
%TO.P,U12,14*%
%TO.N,Net-(U12-Pad14)*%
X105410000Y-101600000D03*
%TO.P,U12,33*%
%TO.N,Net-(R6-Pad2)*%
X120650000Y-86360000D03*
%TO.P,U12,13*%
%TO.N,Net-(U12-Pad13)*%
X105410000Y-99060000D03*
%TO.P,U12,32*%
%TO.N,Net-(U1-Pad14)*%
X120650000Y-88900000D03*
%TO.P,U12,12*%
%TO.N,Net-(U12-Pad12)*%
X105410000Y-96520000D03*
%TO.P,U12,31*%
%TO.N,Net-(U1-Pad2)*%
X120650000Y-91440000D03*
%TO.P,U12,11*%
%TO.N,Net-(U12-Pad11)*%
X105410000Y-93980000D03*
%TO.P,U12,30*%
%TO.N,Net-(U12-Pad30)*%
X120650000Y-93980000D03*
%TO.P,U12,10*%
%TO.N,Net-(U12-Pad10)*%
X105410000Y-91440000D03*
%TO.P,U12,29*%
%TO.N,Net-(U12-Pad29)*%
X120650000Y-96520000D03*
%TO.P,U12,9*%
%TO.N,Net-(U12-Pad9)*%
X105410000Y-88900000D03*
%TO.P,U12,28*%
%TO.N,Net-(U12-Pad28)*%
X120650000Y-99060000D03*
%TO.P,U12,8*%
%TO.N,Net-(U12-Pad8)*%
X105410000Y-86360000D03*
%TO.P,U12,27*%
%TO.N,Net-(U12-Pad27)*%
X120650000Y-101600000D03*
%TO.P,U12,7*%
%TO.N,Net-(U12-Pad7)*%
X105410000Y-83820000D03*
%TO.P,U12,26*%
%TO.N,Net-(U12-Pad26)*%
X120650000Y-104140000D03*
%TO.P,U12,6*%
%TO.N,Net-(U12-Pad6)*%
X105410000Y-81280000D03*
%TO.P,U12,25*%
%TO.N,Net-(U12-Pad25)*%
X120650000Y-106680000D03*
%TO.P,U12,5*%
%TO.N,Net-(U12-Pad5)*%
X105410000Y-78740000D03*
%TO.P,U12,24*%
%TO.N,Net-(U12-Pad24)*%
X120650000Y-109220000D03*
%TO.P,U12,4*%
%TO.N,Net-(U12-Pad4)*%
X105410000Y-76200000D03*
%TO.P,U12,23*%
%TO.N,Net-(U12-Pad23)*%
X120650000Y-111760000D03*
%TO.P,U12,3*%
%TO.N,Net-(U12-Pad3)*%
X105410000Y-73660000D03*
%TO.P,U12,22*%
%TO.N,Net-(U12-Pad22)*%
X120650000Y-114300000D03*
%TO.P,U12,2*%
%TO.N,Net-(U12-Pad2)*%
X105410000Y-71120000D03*
%TO.P,U12,21*%
%TO.N,Net-(R9-Pad2)*%
X120650000Y-116840000D03*
D16*
%TO.P,U12,1*%
%TO.N,Net-(U12-Pad1)*%
X105410000Y-68580000D03*
%TD*%
D14*
%TO.P,C8,2*%
%TO.N,GND*%
X112990000Y-132080000D03*
%TO.P,C8,1*%
%TO.N,+5P*%
X110490000Y-132080000D03*
%TD*%
%TO.P,C7,2*%
%TO.N,GND*%
X85130000Y-128270000D03*
%TO.P,C7,1*%
%TO.N,+5P*%
X87630000Y-128270000D03*
%TD*%
%TO.P,C6,2*%
%TO.N,GND*%
X96480000Y-71120000D03*
%TO.P,C6,1*%
%TO.N,+5P*%
X93980000Y-71120000D03*
%TD*%
%TO.P,C5,2*%
%TO.N,GND*%
X71080000Y-146050000D03*
%TO.P,C5,1*%
%TO.N,+5P*%
X68580000Y-146050000D03*
%TD*%
%TO.P,C4,2*%
%TO.N,GND*%
X191770000Y-121960000D03*
%TO.P,C4,1*%
%TO.N,+5P*%
X191770000Y-124460000D03*
%TD*%
%TO.P,C3,2*%
%TO.N,GND*%
X77430000Y-69850000D03*
%TO.P,C3,1*%
%TO.N,+5P*%
X74930000Y-69850000D03*
%TD*%
%TO.P,C2,2*%
%TO.N,GND*%
X187920000Y-88900000D03*
%TO.P,C2,1*%
%TO.N,+5P*%
X185420000Y-88900000D03*
%TD*%
%TO.P,C1,2*%
%TO.N,GND*%
X144820000Y-110490000D03*
%TO.P,C1,1*%
%TO.N,+5P*%
X147320000Y-110490000D03*
%TD*%
D15*
%TO.P,U25,14*%
%TO.N,+5P*%
X181610000Y-88900000D03*
%TO.P,U25,7*%
%TO.N,GND*%
X173990000Y-104140000D03*
%TO.P,U25,13*%
%TO.N,Net-(U12-Pad29)*%
X181610000Y-91440000D03*
%TO.P,U25,6*%
%TO.N,Net-(J1-Pad10)*%
X173990000Y-101600000D03*
%TO.P,U25,12*%
%TO.N,Net-(U12-Pad28)*%
X181610000Y-93980000D03*
%TO.P,U25,5*%
%TO.N,Net-(U25-Pad2)*%
X173990000Y-99060000D03*
%TO.P,U25,11*%
%TO.N,Net-(J1-Pad6)*%
X181610000Y-96520000D03*
%TO.P,U25,4*%
%TO.N,Net-(U12-Pad29)*%
X173990000Y-96520000D03*
%TO.P,U25,10*%
%TO.N,Net-(U12-Pad28)*%
X181610000Y-99060000D03*
%TO.P,U25,3*%
%TO.N,Net-(J1-Pad12)*%
X173990000Y-93980000D03*
%TO.P,U25,9*%
%TO.N,Net-(U25-Pad1)*%
X181610000Y-101600000D03*
%TO.P,U25,2*%
%TO.N,Net-(U25-Pad2)*%
X173990000Y-91440000D03*
%TO.P,U25,8*%
%TO.N,Net-(J1-Pad14)*%
X181610000Y-104140000D03*
D16*
%TO.P,U25,1*%
%TO.N,Net-(U25-Pad1)*%
X173990000Y-88900000D03*
%TD*%
D17*
%TO.P,Y1,2*%
%TO.N,Net-(U14-Pad11)*%
X111760000Y-144580000D03*
%TO.P,Y1,1*%
%TO.N,Net-(R8-Pad1)*%
X111760000Y-139700000D03*
%TD*%
D15*
%TO.P,U14,14*%
%TO.N,+5P*%
X105410000Y-130810000D03*
%TO.P,U14,7*%
%TO.N,GND*%
X97790000Y-146050000D03*
%TO.P,U14,13*%
%TO.N,Net-(U14-Pad13)*%
X105410000Y-133350000D03*
%TO.P,U14,6*%
%TO.N,Net-(U14-Pad2)*%
X97790000Y-143510000D03*
%TO.P,U14,12*%
%TO.N,Net-(U14-Pad12)*%
X105410000Y-135890000D03*
%TO.P,U14,5*%
%TO.N,Net-(U14-Pad5)*%
X97790000Y-140970000D03*
%TO.P,U14,11*%
%TO.N,Net-(U14-Pad11)*%
X105410000Y-138430000D03*
%TO.P,U14,4*%
%TO.N,Net-(U14-Pad4)*%
X97790000Y-138430000D03*
%TO.P,U14,10*%
%TO.N,Net-(U14-Pad10)*%
X105410000Y-140970000D03*
%TO.P,U14,3*%
%TO.N,Net-(U14-Pad3)*%
X97790000Y-135890000D03*
%TO.P,U14,9*%
X105410000Y-143510000D03*
%TO.P,U14,2*%
%TO.N,Net-(U14-Pad2)*%
X97790000Y-133350000D03*
%TO.P,U14,8*%
%TO.N,Net-(U14-Pad12)*%
X105410000Y-146050000D03*
D16*
%TO.P,U14,1*%
%TO.N,Net-(U14-Pad1)*%
X97790000Y-130810000D03*
%TD*%
D13*
%TO.P,R8,2*%
%TO.N,Net-(R8-Pad2)*%
X123190000Y-127000000D03*
D14*
%TO.P,R8,1*%
%TO.N,Net-(R8-Pad1)*%
X113030000Y-127000000D03*
%TD*%
D15*
%TO.P,U28,14*%
%TO.N,+5P*%
X127000000Y-130810000D03*
%TO.P,U28,7*%
%TO.N,GND*%
X119380000Y-146050000D03*
%TO.P,U28,13*%
%TO.N,Net-(R8-Pad1)*%
X127000000Y-133350000D03*
%TO.P,U28,6*%
%TO.N,Net-(U12-Pad1)*%
X119380000Y-143510000D03*
%TO.P,U28,12*%
%TO.N,Net-(R8-Pad2)*%
X127000000Y-135890000D03*
%TO.P,U28,5*%
%TO.N,Net-(U28-Pad5)*%
X119380000Y-140970000D03*
%TO.P,U28,11*%
%TO.N,Net-(R8-Pad2)*%
X127000000Y-138430000D03*
%TO.P,U28,4*%
%TO.N,Net-(U22-Pad3)*%
X119380000Y-138430000D03*
%TO.P,U28,10*%
%TO.N,Net-(U14-Pad11)*%
X127000000Y-140970000D03*
%TO.P,U28,3*%
%TO.N,Net-(U17-Pad12)*%
X119380000Y-135890000D03*
%TO.P,U28,9*%
%TO.N,N/C*%
X127000000Y-143510000D03*
%TO.P,U28,2*%
%TO.N,Net-(U15-Pad1)*%
X119380000Y-133350000D03*
%TO.P,U28,8*%
%TO.N,N/C*%
X127000000Y-146050000D03*
D16*
%TO.P,U28,1*%
%TO.N,Net-(U16-Pad2)*%
X119380000Y-130810000D03*
%TD*%
D15*
%TO.P,U27,14*%
%TO.N,+5P*%
X165100000Y-64770000D03*
%TO.P,U27,7*%
%TO.N,GND*%
X157480000Y-80010000D03*
%TO.P,U27,13*%
%TO.N,Net-(U12-Pad39)*%
X165100000Y-67310000D03*
%TO.P,U27,6*%
%TO.N,Net-(U25-Pad1)*%
X157480000Y-77470000D03*
%TO.P,U27,12*%
%TO.N,Net-(U23-Pad1)*%
X165100000Y-69850000D03*
%TO.P,U27,5*%
%TO.N,Net-(U12-Pad29)*%
X157480000Y-74930000D03*
%TO.P,U27,11*%
%TO.N,Net-(J1-Pad34)*%
X165100000Y-72390000D03*
%TO.P,U27,4*%
%TO.N,Net-(U25-Pad2)*%
X157480000Y-72390000D03*
%TO.P,U27,10*%
%TO.N,Net-(U12-Pad35)*%
X165100000Y-74930000D03*
%TO.P,U27,3*%
%TO.N,Net-(U12-Pad28)*%
X157480000Y-69850000D03*
%TO.P,U27,9*%
%TO.N,Net-(J1-Pad8)*%
X165100000Y-77470000D03*
%TO.P,U27,2*%
%TO.N,Net-(U22-Pad11)*%
X157480000Y-67310000D03*
%TO.P,U27,8*%
%TO.N,Net-(U12-Pad17)*%
X165100000Y-80010000D03*
D16*
%TO.P,U27,1*%
%TO.N,Net-(J1-Pad30)*%
X157480000Y-64770000D03*
%TD*%
D15*
%TO.P,U26,14*%
%TO.N,+5P*%
X181610000Y-64770000D03*
%TO.P,U26,7*%
%TO.N,GND*%
X173990000Y-80010000D03*
%TO.P,U26,13*%
%TO.N,Net-(U12-Pad36)*%
X181610000Y-67310000D03*
%TO.P,U26,6*%
%TO.N,N/C*%
X173990000Y-77470000D03*
%TO.P,U26,12*%
%TO.N,Net-(J1-Pad2)*%
X181610000Y-69850000D03*
%TO.P,U26,5*%
%TO.N,N/C*%
X173990000Y-74930000D03*
%TO.P,U26,11*%
%TO.N,Net-(U12-Pad27)*%
X181610000Y-72390000D03*
%TO.P,U26,4*%
%TO.N,Net-(U26-Pad4)*%
X173990000Y-72390000D03*
%TO.P,U26,10*%
%TO.N,Net-(J1-Pad32)*%
X181610000Y-74930000D03*
%TO.P,U26,3*%
%TO.N,Net-(U1-Pad7)*%
X173990000Y-69850000D03*
%TO.P,U26,9*%
%TO.N,N/C*%
X181610000Y-77470000D03*
%TO.P,U26,2*%
%TO.N,Net-(J1-Pad24)*%
X173990000Y-67310000D03*
%TO.P,U26,8*%
%TO.N,N/C*%
X181610000Y-80010000D03*
D16*
%TO.P,U26,1*%
%TO.N,Net-(U12-Pad25)*%
X173990000Y-64770000D03*
%TD*%
D15*
%TO.P,U24,14*%
%TO.N,+5P*%
X151130000Y-64770000D03*
%TO.P,U24,7*%
%TO.N,GND*%
X143510000Y-80010000D03*
%TO.P,U24,13*%
%TO.N,N/C*%
X151130000Y-67310000D03*
%TO.P,U24,6*%
%TO.N,Net-(J1-Pad20)*%
X143510000Y-77470000D03*
%TO.P,U24,12*%
%TO.N,N/C*%
X151130000Y-69850000D03*
%TO.P,U24,5*%
%TO.N,Net-(U12-Pad39)*%
X143510000Y-74930000D03*
%TO.P,U24,11*%
%TO.N,N/C*%
X151130000Y-72390000D03*
%TO.P,U24,4*%
%TO.N,Net-(U12-Pad37)*%
X143510000Y-72390000D03*
%TO.P,U24,10*%
%TO.N,Net-(U12-Pad38)*%
X151130000Y-74930000D03*
%TO.P,U24,3*%
%TO.N,N/C*%
X143510000Y-69850000D03*
%TO.P,U24,9*%
%TO.N,Net-(U12-Pad39)*%
X151130000Y-77470000D03*
%TO.P,U24,2*%
%TO.N,N/C*%
X143510000Y-67310000D03*
%TO.P,U24,8*%
%TO.N,Net-(J1-Pad18)*%
X151130000Y-80010000D03*
D16*
%TO.P,U24,1*%
%TO.N,N/C*%
X143510000Y-64770000D03*
%TD*%
D15*
%TO.P,U23,14*%
%TO.N,+5P*%
X165100000Y-88900000D03*
%TO.P,U23,7*%
%TO.N,GND*%
X157480000Y-104140000D03*
%TO.P,U23,13*%
%TO.N,N/C*%
X165100000Y-91440000D03*
%TO.P,U23,6*%
X157480000Y-101600000D03*
%TO.P,U23,12*%
X165100000Y-93980000D03*
%TO.P,U23,5*%
X157480000Y-99060000D03*
%TO.P,U23,11*%
X165100000Y-96520000D03*
%TO.P,U23,4*%
X157480000Y-96520000D03*
%TO.P,U23,10*%
%TO.N,Net-(U12-Pad29)*%
X165100000Y-99060000D03*
%TO.P,U23,3*%
%TO.N,Net-(R5-Pad2)*%
X157480000Y-93980000D03*
%TO.P,U23,9*%
%TO.N,Net-(J1-Pad26)*%
X165100000Y-101600000D03*
%TO.P,U23,2*%
%TO.N,Net-(J1-Pad28)*%
X157480000Y-91440000D03*
%TO.P,U23,8*%
%TO.N,Net-(R6-Pad2)*%
X165100000Y-104140000D03*
D16*
%TO.P,U23,1*%
%TO.N,Net-(U23-Pad1)*%
X157480000Y-88900000D03*
%TD*%
D18*
%TO.P,U22,14*%
%TO.N,+5P*%
X148590000Y-114300000D03*
%TO.P,U22,7*%
%TO.N,GND*%
X163830000Y-121920000D03*
%TO.P,U22,13*%
%TO.N,Net-(U22-Pad13)*%
X151130000Y-114300000D03*
%TO.P,U22,6*%
X161290000Y-121920000D03*
%TO.P,U22,12*%
%TO.N,+5P*%
X153670000Y-114300000D03*
%TO.P,U22,5*%
%TO.N,Net-(U12-Pad23)*%
X158750000Y-121920000D03*
%TO.P,U22,11*%
%TO.N,Net-(U22-Pad11)*%
X156210000Y-114300000D03*
%TO.P,U22,4*%
%TO.N,Net-(U22-Pad4)*%
X156210000Y-121920000D03*
%TO.P,U22,10*%
%TO.N,Net-(U22-Pad10)*%
X158750000Y-114300000D03*
%TO.P,U22,3*%
%TO.N,Net-(U22-Pad3)*%
X153670000Y-121920000D03*
%TO.P,U22,9*%
%TO.N,Net-(U22-Pad2)*%
X161290000Y-114300000D03*
%TO.P,U22,2*%
X151130000Y-121920000D03*
%TO.P,U22,8*%
%TO.N,Net-(U21-Pad11)*%
X163830000Y-114300000D03*
D19*
%TO.P,U22,1*%
%TO.N,Net-(U12-Pad24)*%
X148590000Y-121920000D03*
%TD*%
D15*
%TO.P,U21,16*%
%TO.N,+5P*%
X191770000Y-128270000D03*
%TO.P,U21,8*%
%TO.N,GND*%
X184150000Y-146050000D03*
%TO.P,U21,15*%
%TO.N,Net-(U21-Pad1)*%
X191770000Y-130810000D03*
%TO.P,U21,7*%
%TO.N,Net-(U12-Pad22)*%
X184150000Y-143510000D03*
%TO.P,U21,14*%
%TO.N,Net-(U21-Pad1)*%
X191770000Y-133350000D03*
%TO.P,U21,6*%
%TO.N,Net-(U21-Pad6)*%
X184150000Y-140970000D03*
%TO.P,U21,13*%
%TO.N,Net-(U21-Pad13)*%
X191770000Y-135890000D03*
%TO.P,U21,5*%
%TO.N,Net-(U17-Pad12)*%
X184150000Y-138430000D03*
%TO.P,U21,12*%
%TO.N,Net-(U21-Pad12)*%
X191770000Y-138430000D03*
%TO.P,U21,4*%
%TO.N,Net-(U21-Pad4)*%
X184150000Y-135890000D03*
%TO.P,U21,11*%
%TO.N,Net-(U21-Pad11)*%
X191770000Y-140970000D03*
%TO.P,U21,3*%
%TO.N,Net-(U21-Pad3)*%
X184150000Y-133350000D03*
%TO.P,U21,10*%
%TO.N,Net-(U21-Pad10)*%
X191770000Y-143510000D03*
%TO.P,U21,2*%
%TO.N,Net-(U21-Pad2)*%
X184150000Y-130810000D03*
%TO.P,U21,9*%
%TO.N,Net-(U12-Pad22)*%
X191770000Y-146050000D03*
D16*
%TO.P,U21,1*%
%TO.N,Net-(U21-Pad1)*%
X184150000Y-128270000D03*
%TD*%
D15*
%TO.P,U19,16*%
%TO.N,+5P*%
X143510000Y-128270000D03*
%TO.P,U19,8*%
%TO.N,GND*%
X135890000Y-146050000D03*
%TO.P,U19,15*%
%TO.N,Net-(U19-Pad15)*%
X143510000Y-130810000D03*
%TO.P,U19,7*%
%TO.N,Net-(U1-Pad6)*%
X135890000Y-143510000D03*
%TO.P,U19,14*%
%TO.N,Net-(U19-Pad14)*%
X143510000Y-133350000D03*
%TO.P,U19,6*%
%TO.N,Net-(U19-Pad6)*%
X135890000Y-140970000D03*
%TO.P,U19,13*%
%TO.N,Net-(U19-Pad13)*%
X143510000Y-135890000D03*
%TO.P,U19,5*%
%TO.N,Net-(U1-Pad5)*%
X135890000Y-138430000D03*
%TO.P,U19,12*%
%TO.N,Net-(U1-Pad6)*%
X143510000Y-138430000D03*
%TO.P,U19,4*%
%TO.N,Net-(U12-Pad30)*%
X135890000Y-135890000D03*
%TO.P,U19,11*%
%TO.N,Net-(U19-Pad11)*%
X143510000Y-140970000D03*
%TO.P,U19,3*%
%TO.N,Net-(U19-Pad3)*%
X135890000Y-133350000D03*
%TO.P,U19,10*%
%TO.N,Net-(U1-Pad4)*%
X143510000Y-143510000D03*
%TO.P,U19,2*%
%TO.N,Net-(U1-Pad5)*%
X135890000Y-130810000D03*
%TO.P,U19,9*%
%TO.N,Net-(U14-Pad5)*%
X143510000Y-146050000D03*
D16*
%TO.P,U19,1*%
%TO.N,Net-(U12-Pad25)*%
X135890000Y-128270000D03*
%TD*%
D15*
%TO.P,U18,14*%
%TO.N,+5P*%
X135890000Y-64770000D03*
%TO.P,U18,7*%
%TO.N,GND*%
X128270000Y-80010000D03*
%TO.P,U18,13*%
%TO.N,Net-(U18-Pad13)*%
X135890000Y-67310000D03*
%TO.P,U18,6*%
%TO.N,N/C*%
X128270000Y-77470000D03*
%TO.P,U18,12*%
%TO.N,Net-(U18-Pad12)*%
X135890000Y-69850000D03*
%TO.P,U18,5*%
%TO.N,N/C*%
X128270000Y-74930000D03*
%TO.P,U18,11*%
%TO.N,Net-(U18-Pad11)*%
X135890000Y-72390000D03*
%TO.P,U18,4*%
%TO.N,N/C*%
X128270000Y-72390000D03*
%TO.P,U18,10*%
%TO.N,Net-(U18-Pad10)*%
X135890000Y-74930000D03*
%TO.P,U18,3*%
%TO.N,Net-(U18-Pad2)*%
X128270000Y-69850000D03*
%TO.P,U18,9*%
%TO.N,Net-(U18-Pad9)*%
X135890000Y-77470000D03*
%TO.P,U18,2*%
%TO.N,Net-(U18-Pad2)*%
X128270000Y-67310000D03*
%TO.P,U18,8*%
%TO.N,Net-(U18-Pad11)*%
X135890000Y-80010000D03*
D16*
%TO.P,U18,1*%
%TO.N,Net-(U12-Pad16)*%
X128270000Y-64770000D03*
%TD*%
D15*
%TO.P,U17,16*%
%TO.N,+5P*%
X177800000Y-128270000D03*
%TO.P,U17,8*%
%TO.N,GND*%
X170180000Y-146050000D03*
%TO.P,U17,15*%
%TO.N,Net-(U17-Pad15)*%
X177800000Y-130810000D03*
%TO.P,U17,7*%
%TO.N,Net-(U17-Pad2)*%
X170180000Y-143510000D03*
%TO.P,U17,14*%
%TO.N,Net-(U16-Pad3)*%
X177800000Y-133350000D03*
%TO.P,U17,6*%
%TO.N,Net-(U17-Pad5)*%
X170180000Y-140970000D03*
%TO.P,U17,13*%
%TO.N,Net-(U12-Pad19)*%
X177800000Y-135890000D03*
%TO.P,U17,5*%
%TO.N,Net-(U17-Pad5)*%
X170180000Y-138430000D03*
%TO.P,U17,12*%
%TO.N,Net-(U17-Pad12)*%
X177800000Y-138430000D03*
%TO.P,U17,4*%
%TO.N,Net-(U15-Pad3)*%
X170180000Y-135890000D03*
%TO.P,U17,11*%
%TO.N,Net-(U16-Pad7)*%
X177800000Y-140970000D03*
%TO.P,U17,3*%
%TO.N,Net-(U17-Pad2)*%
X170180000Y-133350000D03*
%TO.P,U17,10*%
%TO.N,Net-(U16-Pad6)*%
X177800000Y-143510000D03*
%TO.P,U17,2*%
%TO.N,Net-(U17-Pad2)*%
X170180000Y-130810000D03*
%TO.P,U17,9*%
%TO.N,Net-(U17-Pad5)*%
X177800000Y-146050000D03*
D16*
%TO.P,U17,1*%
%TO.N,Net-(U12-Pad26)*%
X170180000Y-128270000D03*
%TD*%
D15*
%TO.P,U16,16*%
%TO.N,+5P*%
X162560000Y-128270000D03*
%TO.P,U16,8*%
%TO.N,GND*%
X154940000Y-146050000D03*
%TO.P,U16,15*%
%TO.N,Net-(U16-Pad15)*%
X162560000Y-130810000D03*
%TO.P,U16,7*%
%TO.N,Net-(U16-Pad7)*%
X154940000Y-143510000D03*
%TO.P,U16,14*%
%TO.N,GND*%
X162560000Y-133350000D03*
%TO.P,U16,6*%
%TO.N,Net-(U16-Pad6)*%
X154940000Y-140970000D03*
%TO.P,U16,13*%
%TO.N,Net-(U16-Pad13)*%
X162560000Y-135890000D03*
%TO.P,U16,5*%
%TO.N,Net-(U12-Pad19)*%
X154940000Y-138430000D03*
%TO.P,U16,12*%
%TO.N,Net-(U16-Pad12)*%
X162560000Y-138430000D03*
%TO.P,U16,4*%
%TO.N,Net-(U16-Pad4)*%
X154940000Y-135890000D03*
%TO.P,U16,11*%
%TO.N,Net-(U16-Pad11)*%
X162560000Y-140970000D03*
%TO.P,U16,3*%
%TO.N,Net-(U16-Pad3)*%
X154940000Y-133350000D03*
%TO.P,U16,10*%
%TO.N,Net-(U16-Pad10)*%
X162560000Y-143510000D03*
%TO.P,U16,2*%
%TO.N,Net-(U16-Pad2)*%
X154940000Y-130810000D03*
%TO.P,U16,9*%
%TO.N,Net-(U16-Pad9)*%
X162560000Y-146050000D03*
D16*
%TO.P,U16,1*%
%TO.N,Net-(U16-Pad1)*%
X154940000Y-128270000D03*
%TD*%
D18*
%TO.P,U15,14*%
%TO.N,+5P*%
X127000000Y-114300000D03*
%TO.P,U15,7*%
%TO.N,GND*%
X142240000Y-121920000D03*
%TO.P,U15,13*%
%TO.N,N/C*%
X129540000Y-114300000D03*
%TO.P,U15,6*%
%TO.N,Net-(U15-Pad6)*%
X139700000Y-121920000D03*
%TO.P,U15,12*%
%TO.N,N/C*%
X132080000Y-114300000D03*
%TO.P,U15,5*%
%TO.N,Net-(R9-Pad2)*%
X137160000Y-121920000D03*
%TO.P,U15,11*%
%TO.N,N/C*%
X134620000Y-114300000D03*
%TO.P,U15,4*%
%TO.N,Net-(U15-Pad4)*%
X134620000Y-121920000D03*
%TO.P,U15,10*%
%TO.N,N/C*%
X137160000Y-114300000D03*
%TO.P,U15,3*%
%TO.N,Net-(U15-Pad3)*%
X132080000Y-121920000D03*
%TO.P,U15,9*%
%TO.N,N/C*%
X139700000Y-114300000D03*
%TO.P,U15,2*%
%TO.N,+5P*%
X129540000Y-121920000D03*
%TO.P,U15,8*%
%TO.N,N/C*%
X142240000Y-114300000D03*
D19*
%TO.P,U15,1*%
%TO.N,Net-(U15-Pad1)*%
X127000000Y-121920000D03*
%TD*%
D15*
%TO.P,U9,16*%
%TO.N,+5P*%
X86360000Y-107950000D03*
%TO.P,U9,8*%
%TO.N,GND*%
X78740000Y-125730000D03*
%TO.P,U9,15*%
%TO.N,Net-(U18-Pad2)*%
X86360000Y-110490000D03*
%TO.P,U9,7*%
%TO.N,Net-(U9-Pad7)*%
X78740000Y-123190000D03*
%TO.P,U9,14*%
%TO.N,Net-(U9-Pad14)*%
X86360000Y-113030000D03*
%TO.P,U9,6*%
%TO.N,Net-(U6-Pad8)*%
X78740000Y-120650000D03*
%TO.P,U9,13*%
%TO.N,Net-(U12-Pad4)*%
X86360000Y-115570000D03*
%TO.P,U9,5*%
%TO.N,Net-(U18-Pad11)*%
X78740000Y-118110000D03*
%TO.P,U9,12*%
%TO.N,Net-(U12-Pad15)*%
X86360000Y-118110000D03*
%TO.P,U9,4*%
%TO.N,Net-(U9-Pad3)*%
X78740000Y-115570000D03*
%TO.P,U9,11*%
%TO.N,Net-(U9-Pad11)*%
X86360000Y-120650000D03*
%TO.P,U9,3*%
%TO.N,Net-(U9-Pad3)*%
X78740000Y-113030000D03*
%TO.P,U9,10*%
%TO.N,Net-(U9-Pad10)*%
X86360000Y-123190000D03*
%TO.P,U9,2*%
%TO.N,Net-(U9-Pad2)*%
X78740000Y-110490000D03*
%TO.P,U9,9*%
%TO.N,Net-(U9-Pad9)*%
X86360000Y-125730000D03*
D16*
%TO.P,U9,1*%
%TO.N,Net-(U9-Pad1)*%
X78740000Y-107950000D03*
%TD*%
D15*
%TO.P,U6,14*%
%TO.N,+5P*%
X86360000Y-132080000D03*
%TO.P,U6,7*%
%TO.N,GND*%
X78740000Y-147320000D03*
%TO.P,U6,13*%
%TO.N,N/C*%
X86360000Y-134620000D03*
%TO.P,U6,6*%
%TO.N,Net-(U6-Pad6)*%
X78740000Y-144780000D03*
%TO.P,U6,12*%
%TO.N,N/C*%
X86360000Y-137160000D03*
%TO.P,U6,5*%
%TO.N,Net-(U6-Pad5)*%
X78740000Y-142240000D03*
%TO.P,U6,11*%
%TO.N,N/C*%
X86360000Y-139700000D03*
%TO.P,U6,4*%
%TO.N,Net-(U6-Pad4)*%
X78740000Y-139700000D03*
%TO.P,U6,10*%
%TO.N,Net-(U6-Pad10)*%
X86360000Y-142240000D03*
%TO.P,U6,3*%
X78740000Y-137160000D03*
%TO.P,U6,9*%
%TO.N,Net-(U6-Pad6)*%
X86360000Y-144780000D03*
%TO.P,U6,2*%
%TO.N,Net-(U6-Pad2)*%
X78740000Y-134620000D03*
%TO.P,U6,8*%
%TO.N,Net-(U6-Pad8)*%
X86360000Y-147320000D03*
D16*
%TO.P,U6,1*%
%TO.N,Net-(U6-Pad1)*%
X78740000Y-132080000D03*
%TD*%
D18*
%TO.P,U1,16*%
%TO.N,+5P*%
X168910000Y-114300000D03*
%TO.P,U1,8*%
%TO.N,GND*%
X186690000Y-121920000D03*
%TO.P,U1,15*%
%TO.N,Net-(U1-Pad15)*%
X171450000Y-114300000D03*
%TO.P,U1,7*%
%TO.N,Net-(U1-Pad7)*%
X184150000Y-121920000D03*
%TO.P,U1,14*%
%TO.N,Net-(U1-Pad14)*%
X173990000Y-114300000D03*
%TO.P,U1,6*%
%TO.N,Net-(U1-Pad6)*%
X181610000Y-121920000D03*
%TO.P,U1,13*%
%TO.N,Net-(U1-Pad13)*%
X176530000Y-114300000D03*
%TO.P,U1,5*%
%TO.N,Net-(U1-Pad5)*%
X179070000Y-121920000D03*
%TO.P,U1,12*%
%TO.N,Net-(U1-Pad12)*%
X179070000Y-114300000D03*
%TO.P,U1,4*%
%TO.N,Net-(U1-Pad4)*%
X176530000Y-121920000D03*
%TO.P,U1,11*%
%TO.N,Net-(U1-Pad11)*%
X181610000Y-114300000D03*
%TO.P,U1,3*%
%TO.N,GND*%
X173990000Y-121920000D03*
%TO.P,U1,10*%
%TO.N,Net-(U1-Pad10)*%
X184150000Y-114300000D03*
%TO.P,U1,2*%
%TO.N,Net-(U1-Pad2)*%
X171450000Y-121920000D03*
%TO.P,U1,9*%
%TO.N,Net-(U1-Pad9)*%
X186690000Y-114300000D03*
D19*
%TO.P,U1,1*%
%TO.N,GND*%
X168910000Y-121920000D03*
%TD*%
D13*
%TO.P,R7,2*%
%TO.N,Net-(J1-Pad30)*%
X185420000Y-76200000D03*
D14*
%TO.P,R7,1*%
%TO.N,+5P*%
X185420000Y-86360000D03*
%TD*%
D13*
%TO.P,R6,2*%
%TO.N,Net-(R6-Pad2)*%
X196850000Y-115570000D03*
D14*
%TO.P,R6,1*%
%TO.N,+5P*%
X207010000Y-115570000D03*
%TD*%
D13*
%TO.P,R5,2*%
%TO.N,Net-(R5-Pad2)*%
X196850000Y-119380000D03*
D14*
%TO.P,R5,1*%
%TO.N,+5P*%
X207010000Y-119380000D03*
%TD*%
D13*
%TO.P,R4,2*%
%TO.N,Net-(J1-Pad8)*%
X196850000Y-134620000D03*
D14*
%TO.P,R4,1*%
%TO.N,+5P*%
X207010000Y-134620000D03*
%TD*%
D13*
%TO.P,R3,2*%
%TO.N,Net-(J1-Pad28)*%
X196850000Y-130810000D03*
D14*
%TO.P,R3,1*%
%TO.N,+5P*%
X207010000Y-130810000D03*
%TD*%
D13*
%TO.P,R2,2*%
%TO.N,Net-(J1-Pad26)*%
X196850000Y-123190000D03*
D14*
%TO.P,R2,1*%
%TO.N,+5P*%
X207010000Y-123190000D03*
%TD*%
D13*
%TO.P,R1,2*%
%TO.N,Net-(J1-Pad34)*%
X196850000Y-127000000D03*
D14*
%TO.P,R1,1*%
%TO.N,+5P*%
X207010000Y-127000000D03*
%TD*%
D20*
%TO.P,J1,34*%
%TO.N,Net-(J1-Pad34)*%
X196850000Y-66040000D03*
%TO.P,J1,33*%
%TO.N,GND*%
X194310000Y-66040000D03*
%TO.P,J1,32*%
%TO.N,Net-(J1-Pad32)*%
X196850000Y-68580000D03*
%TO.P,J1,31*%
%TO.N,GND*%
X194310000Y-68580000D03*
%TO.P,J1,30*%
%TO.N,Net-(J1-Pad30)*%
X196850000Y-71120000D03*
%TO.P,J1,29*%
%TO.N,GND*%
X194310000Y-71120000D03*
%TO.P,J1,28*%
%TO.N,Net-(J1-Pad28)*%
X196850000Y-73660000D03*
%TO.P,J1,27*%
%TO.N,GND*%
X194310000Y-73660000D03*
%TO.P,J1,26*%
%TO.N,Net-(J1-Pad26)*%
X196850000Y-76200000D03*
%TO.P,J1,25*%
%TO.N,GND*%
X194310000Y-76200000D03*
%TO.P,J1,24*%
%TO.N,Net-(J1-Pad24)*%
X196850000Y-78740000D03*
%TO.P,J1,23*%
%TO.N,GND*%
X194310000Y-78740000D03*
%TO.P,J1,22*%
%TO.N,Net-(J1-Pad22)*%
X196850000Y-81280000D03*
%TO.P,J1,21*%
%TO.N,GND*%
X194310000Y-81280000D03*
%TO.P,J1,20*%
%TO.N,Net-(J1-Pad20)*%
X196850000Y-83820000D03*
%TO.P,J1,19*%
%TO.N,GND*%
X194310000Y-83820000D03*
%TO.P,J1,18*%
%TO.N,Net-(J1-Pad18)*%
X196850000Y-86360000D03*
%TO.P,J1,17*%
%TO.N,GND*%
X194310000Y-86360000D03*
%TO.P,J1,16*%
%TO.N,Net-(J1-Pad16)*%
X196850000Y-88900000D03*
%TO.P,J1,15*%
%TO.N,GND*%
X194310000Y-88900000D03*
%TO.P,J1,14*%
%TO.N,Net-(J1-Pad14)*%
X196850000Y-91440000D03*
%TO.P,J1,13*%
%TO.N,GND*%
X194310000Y-91440000D03*
%TO.P,J1,12*%
%TO.N,Net-(J1-Pad12)*%
X196850000Y-93980000D03*
%TO.P,J1,11*%
%TO.N,GND*%
X194310000Y-93980000D03*
%TO.P,J1,10*%
%TO.N,Net-(J1-Pad10)*%
X196850000Y-96520000D03*
%TO.P,J1,9*%
%TO.N,GND*%
X194310000Y-96520000D03*
%TO.P,J1,8*%
%TO.N,Net-(J1-Pad8)*%
X196850000Y-99060000D03*
%TO.P,J1,7*%
%TO.N,GND*%
X194310000Y-99060000D03*
%TO.P,J1,6*%
%TO.N,Net-(J1-Pad6)*%
X196850000Y-101600000D03*
%TO.P,J1,5*%
%TO.N,GND*%
X194310000Y-101600000D03*
%TO.P,J1,4*%
%TO.N,Net-(J1-Pad4)*%
X196850000Y-104140000D03*
%TO.P,J1,3*%
%TO.N,GND*%
X194310000Y-104140000D03*
%TO.P,J1,2*%
%TO.N,Net-(J1-Pad2)*%
X196850000Y-106680000D03*
D21*
%TO.P,J1,1*%
%TO.N,GND*%
X194310000Y-106680000D03*
%TD*%
D22*
%TO.N,GND*%
X190500000Y-115570000D03*
X190500000Y-106680000D03*
X175260000Y-110490000D03*
X118110000Y-148590000D03*
X93980000Y-148590000D03*
X96520000Y-148590000D03*
X124460000Y-68580000D03*
X124460000Y-80010000D03*
X156210000Y-82550000D03*
X162560000Y-80010000D03*
X160020000Y-80010000D03*
X140970000Y-134620000D03*
X140970000Y-138430000D03*
X115570000Y-146050000D03*
X115570000Y-132080000D03*
X96520000Y-64770000D03*
X124460000Y-63500000D03*
X74930000Y-101600000D03*
X74930000Y-125730000D03*
X175260000Y-119380000D03*
X187960000Y-116840000D03*
%TO.N,Net-(J1-Pad30)*%
X186690000Y-73660000D03*
X186690000Y-63500000D03*
%TO.N,Net-(J1-Pad28)*%
X186690000Y-74930000D03*
X186690000Y-83820000D03*
X157480000Y-83820000D03*
X201930000Y-73660000D03*
X204470000Y-71120000D03*
%TO.N,Net-(J1-Pad26)*%
X182880000Y-119380000D03*
X182880000Y-116840000D03*
X162560000Y-116840000D03*
%TO.N,Net-(J1-Pad18)*%
X152400000Y-85090000D03*
%TO.N,Net-(J1-Pad12)*%
X177800000Y-93980000D03*
X179214990Y-102725010D03*
X177800000Y-99060000D03*
%TO.N,Net-(J1-Pad8)*%
X165100000Y-86360000D03*
X205740000Y-93980000D03*
%TO.N,Net-(J1-Pad2)*%
X189230000Y-69850000D03*
X189230000Y-102870000D03*
%TO.N,+5P*%
X187960000Y-133350000D03*
X166370000Y-119380000D03*
X166370000Y-121920000D03*
X121920000Y-121920000D03*
X161290000Y-64770000D03*
X168910000Y-92710000D03*
X166370000Y-106680000D03*
X81280000Y-78740000D03*
X81280000Y-107950000D03*
X105410000Y-121920000D03*
X109220000Y-105410000D03*
X109220000Y-116840000D03*
X129540000Y-118110000D03*
X144780000Y-118110000D03*
X148590000Y-118110000D03*
X166370000Y-114300000D03*
%TO.N,Net-(R5-Pad2)*%
X168459990Y-109670010D03*
X168910000Y-102870000D03*
X167640000Y-99060000D03*
X167640000Y-92710000D03*
%TO.N,Net-(R6-Pad2)*%
X154940000Y-102870000D03*
X152400000Y-87630000D03*
%TO.N,Net-(U1-Pad7)*%
X168910000Y-69850000D03*
X179070000Y-95250000D03*
X171450000Y-95250000D03*
%TO.N,Net-(U1-Pad14)*%
X154940000Y-95250000D03*
X168910000Y-95250000D03*
X173990000Y-111760000D03*
X167640000Y-111760000D03*
X167640000Y-102870000D03*
%TO.N,Net-(U1-Pad5)*%
X160020000Y-132080000D03*
X165100000Y-132080000D03*
%TO.N,Net-(U1-Pad4)*%
X165100000Y-138430000D03*
X167640000Y-138430000D03*
X167640000Y-129540000D03*
%TO.N,Net-(U1-Pad2)*%
X152400000Y-91440000D03*
X167640000Y-119380000D03*
X152400000Y-106680000D03*
X166370000Y-113030000D03*
%TO.N,Net-(U12-Pad4)*%
X82550000Y-99060000D03*
%TO.N,Net-(U3-Pad8)*%
X69850000Y-96520000D03*
X69850000Y-81280000D03*
%TO.N,Net-(U3-Pad7)*%
X62230000Y-93980000D03*
X61790000Y-79180000D03*
%TO.N,Net-(U3-Pad6)*%
X67310000Y-91440000D03*
X67154999Y-82705001D03*
%TO.N,Net-(U3-Pad5)*%
X68580000Y-82550000D03*
X68580000Y-88900000D03*
%TO.N,Net-(U3-Pad4)*%
X64770000Y-88900000D03*
X64770000Y-85090000D03*
%TO.N,Net-(U3-Pad2)*%
X62154999Y-87705001D03*
X63500000Y-80010000D03*
%TO.N,Net-(U3-Pad1)*%
X68580000Y-78740000D03*
X68580000Y-85090000D03*
%TO.N,Net-(U6-Pad5)*%
X69850000Y-113030000D03*
X69850000Y-142240000D03*
%TO.N,Net-(U6-Pad4)*%
X68580000Y-114300000D03*
X68580000Y-139700000D03*
%TO.N,Net-(U6-Pad2)*%
X63500000Y-110490000D03*
X63500000Y-134620000D03*
%TO.N,Net-(U6-Pad1)*%
X71120000Y-111760000D03*
X71120000Y-132080000D03*
%TO.N,Net-(U18-Pad2)*%
X69850000Y-67310000D03*
X66040000Y-102870000D03*
X83820000Y-102870000D03*
%TO.N,Net-(U12-Pad4)*%
X99060000Y-76200000D03*
X99060000Y-115570000D03*
%TO.N,Net-(U9-Pad2)*%
X64770000Y-115570000D03*
X64770000Y-109220000D03*
%TO.N,Net-(U9-Pad1)*%
X66040000Y-115570000D03*
X66040000Y-107950000D03*
%TO.N,Net-(U12-Pad39)*%
X161290000Y-77470000D03*
X161290000Y-67310000D03*
%TO.N,Net-(U12-Pad19)*%
X148590000Y-143510000D03*
X107950000Y-114300000D03*
X107950000Y-152400000D03*
X148590000Y-152400000D03*
X173990000Y-139700000D03*
X174134990Y-137015010D03*
%TO.N,Net-(U12-Pad38)*%
X139700000Y-73660000D03*
X140970000Y-71120000D03*
%TO.N,Net-(U12-Pad37)*%
X140970000Y-76200000D03*
%TO.N,Net-(U12-Pad17)*%
X163830000Y-86360000D03*
X142240000Y-85090000D03*
X140970000Y-83820000D03*
X113030000Y-80010000D03*
X113030000Y-109220000D03*
%TO.N,Net-(U12-Pad36)*%
X177800000Y-67310000D03*
X162560000Y-77470000D03*
X177800000Y-62230000D03*
X162560000Y-62230000D03*
%TO.N,Net-(U12-Pad16)*%
X110490000Y-64770000D03*
X110490000Y-106680000D03*
%TO.N,Net-(U12-Pad35)*%
X168910000Y-82550000D03*
X168910000Y-74930000D03*
%TO.N,Net-(U12-Pad15)*%
X88900000Y-118110000D03*
X88900000Y-104140000D03*
%TO.N,Net-(U12-Pad30)*%
X135890000Y-93980000D03*
%TO.N,Net-(U12-Pad29)*%
X153670000Y-96520000D03*
%TO.N,Net-(U12-Pad28)*%
X152400000Y-99060000D03*
X178925010Y-97934990D03*
X171305010Y-97934990D03*
%TO.N,Net-(U12-Pad27)*%
X152400000Y-101600000D03*
X170180000Y-100330000D03*
X170180000Y-82550000D03*
X179070000Y-82550000D03*
X179070000Y-72390000D03*
X170180000Y-96520000D03*
%TO.N,Net-(U12-Pad26)*%
X134620000Y-104140000D03*
X130954990Y-125585010D03*
X163685010Y-125585010D03*
X167784990Y-125585010D03*
%TO.N,Net-(U12-Pad25)*%
X135890000Y-106680000D03*
X124460000Y-106680000D03*
X170180000Y-62230000D03*
X125730000Y-62230000D03*
%TO.N,Net-(U12-Pad5)*%
X59690000Y-118110000D03*
X59690000Y-66040000D03*
X100330000Y-78740000D03*
X100330000Y-66040000D03*
%TO.N,Net-(U12-Pad24)*%
X146050000Y-113030000D03*
X146050000Y-121920000D03*
%TO.N,Net-(U12-Pad23)*%
X158750000Y-116840000D03*
%TO.N,Net-(U12-Pad3)*%
X90170000Y-109220000D03*
X90170000Y-73660000D03*
%TO.N,Net-(U12-Pad2)*%
X97790000Y-114300000D03*
X97790000Y-72390000D03*
%TO.N,Net-(U12-Pad1)*%
X114300000Y-68580000D03*
X114300000Y-143510000D03*
%TO.N,Net-(U15-Pad3)*%
X163830000Y-124460000D03*
X166370000Y-124460000D03*
X166370000Y-135890000D03*
X166370000Y-130810000D03*
%TO.N,Net-(U15-Pad1)*%
X124460000Y-121920000D03*
X123190000Y-133350000D03*
%TO.N,Net-(U16-Pad7)*%
X160020000Y-142240000D03*
%TO.N,Net-(U12-Pad22)*%
X181610000Y-143510000D03*
X180340000Y-119380000D03*
%TO.N,Net-(U16-Pad2)*%
X124315010Y-137015010D03*
X138574990Y-137015010D03*
%TO.N,Net-(U17-Pad5)*%
X175404990Y-139555010D03*
X175260000Y-146050000D03*
%TO.N,Net-(U21-Pad11)*%
X163830000Y-118110000D03*
X194310000Y-138430000D03*
X194310000Y-119380000D03*
%TO.N,Net-(U22-Pad13)*%
X149860000Y-125730000D03*
%TO.N,Net-(U22-Pad11)*%
X156210000Y-107950000D03*
X149860000Y-107950000D03*
X148590000Y-66040000D03*
%TO.N,Net-(U22-Pad3)*%
X152400000Y-130810000D03*
X129540000Y-129540000D03*
X129540000Y-139700000D03*
%TO.N,Net-(U22-Pad2)*%
X151130000Y-118110000D03*
X161290000Y-118110000D03*
%TO.N,Net-(U23-Pad1)*%
X162560000Y-88900000D03*
%TO.N,Net-(U25-Pad2)*%
X161290000Y-90170000D03*
X177800000Y-91440000D03*
X177800000Y-100330000D03*
%TO.N,Net-(U25-Pad1)*%
X185420000Y-96520000D03*
X168910000Y-88900000D03*
X160020000Y-77470000D03*
%TO.N,Net-(U28-Pad5)*%
X59690000Y-120650000D03*
X59690000Y-148590000D03*
X116840000Y-151130000D03*
X116840000Y-140970000D03*
%TO.N,Net-(U14-Pad11)*%
X123190000Y-140970000D03*
X123190000Y-137160000D03*
%TO.N,Net-(U18-Pad12)*%
X60960000Y-99060000D03*
X60924999Y-90205001D03*
X132080000Y-69850000D03*
X132080000Y-92710000D03*
X95250000Y-92710000D03*
X95250000Y-101600000D03*
%TO.N,Net-(U18-Pad10)*%
X96520000Y-111760000D03*
X132080000Y-74930000D03*
X130810000Y-90170000D03*
X96520000Y-90170000D03*
%TO.N,Net-(U18-Pad13)*%
X91440000Y-106680000D03*
X91440000Y-74930000D03*
%TO.N,Net-(U18-Pad11)*%
X60960000Y-128270000D03*
X60960000Y-118110000D03*
X138430000Y-80010000D03*
X138430000Y-72390000D03*
X138430000Y-100330000D03*
X92710000Y-100330000D03*
X91440000Y-119380000D03*
%TO.N,Net-(U18-Pad9)*%
X58140000Y-89180000D03*
X58420000Y-64770000D03*
X133350000Y-63500000D03*
X133350000Y-77470000D03*
%TO.N,Net-(R9-Pad2)*%
X120650000Y-123190000D03*
%TD*%
D23*
%TO.N,GND*%
X78740000Y-125730000D02*
X78740000Y-128270000D01*
X80010000Y-129540000D02*
X81280000Y-129540000D01*
X78740000Y-128270000D02*
X80010000Y-129540000D01*
X81280000Y-129540000D02*
X82550000Y-130810000D01*
X82550000Y-143510000D02*
X78740000Y-147320000D01*
X82550000Y-130810000D02*
X82550000Y-143510000D01*
X194310000Y-66040000D02*
X194310000Y-106680000D01*
X190500000Y-106680000D02*
X190500000Y-115570000D01*
X162560000Y-133350000D02*
X165100000Y-133350000D01*
X167640000Y-149860000D02*
X170180000Y-147320000D01*
X170180000Y-147320000D02*
X170180000Y-146050000D01*
X158750000Y-149860000D02*
X167640000Y-149860000D01*
X154940000Y-146050000D02*
X158750000Y-149860000D01*
X165100000Y-133350000D02*
X165100000Y-135890000D01*
X167640000Y-143510000D02*
X170180000Y-146050000D01*
X165100000Y-135890000D02*
X166370000Y-137160000D01*
X166370000Y-139700000D02*
X167640000Y-140970000D01*
X166370000Y-137160000D02*
X166370000Y-139700000D01*
X167640000Y-140970000D02*
X167640000Y-143510000D01*
X175260000Y-105410000D02*
X173990000Y-104140000D01*
X175260000Y-110490000D02*
X175260000Y-105410000D01*
X170180000Y-146050000D02*
X170180000Y-148590000D01*
X170180000Y-148590000D02*
X171450000Y-149860000D01*
X171450000Y-149860000D02*
X182880000Y-149860000D01*
X184150000Y-148590000D02*
X184150000Y-146050000D01*
X182880000Y-149860000D02*
X184150000Y-148590000D01*
X119380000Y-146050000D02*
X119380000Y-147320000D01*
X119380000Y-147320000D02*
X118110000Y-148590000D01*
X93980000Y-148590000D02*
X96520000Y-148590000D01*
X124460000Y-68580000D02*
X124460000Y-80010000D01*
X156210000Y-81280000D02*
X157480000Y-80010000D01*
X156210000Y-82550000D02*
X156210000Y-81280000D01*
X160020000Y-80010000D02*
X162560000Y-80010000D01*
X142240000Y-121920000D02*
X140970000Y-123190000D01*
X140970000Y-123190000D02*
X140970000Y-134620000D01*
X140970000Y-138430000D02*
X140970000Y-144780000D01*
X137160000Y-144780000D02*
X135890000Y-146050000D01*
X140970000Y-144780000D02*
X137160000Y-144780000D01*
X177074999Y-61881999D02*
X177451999Y-61504999D01*
X177074999Y-64270003D02*
X177074999Y-61881999D01*
X173413995Y-65895001D02*
X175450001Y-65895001D01*
X189774999Y-61504999D02*
X194310000Y-66040000D01*
X172464990Y-66844006D02*
X173413995Y-65895001D01*
X172464990Y-72855994D02*
X172464990Y-66844006D01*
X177451999Y-61504999D02*
X189774999Y-61504999D01*
X173124006Y-73515010D02*
X172464990Y-72855994D01*
X174566014Y-73515010D02*
X173124006Y-73515010D01*
X175515010Y-74464006D02*
X174566014Y-73515010D01*
X175515010Y-78484990D02*
X175515010Y-74464006D01*
X175450001Y-65895001D02*
X177074999Y-64270003D01*
X173990000Y-80010000D02*
X175515010Y-78484990D01*
X81280000Y-128270000D02*
X78740000Y-125730000D01*
X85130000Y-128270000D02*
X81280000Y-128270000D01*
X115570000Y-132080000D02*
X115570000Y-146050000D01*
X142240000Y-121920000D02*
X142240000Y-118110000D01*
X144820000Y-115530000D02*
X144820000Y-110490000D01*
X142240000Y-118110000D02*
X144820000Y-115530000D01*
X187529999Y-122759999D02*
X186690000Y-121920000D01*
X190970001Y-122759999D02*
X187529999Y-122759999D01*
X191770000Y-121960000D02*
X190970001Y-122759999D01*
X96480000Y-71120000D02*
X96480000Y-64810000D01*
X96480000Y-64810000D02*
X96520000Y-64770000D01*
X124460000Y-63500000D02*
X124460000Y-68580000D01*
X74930000Y-101600000D02*
X74930000Y-125730000D01*
X175260000Y-119380000D02*
X175260000Y-116840000D01*
X175260000Y-116840000D02*
X175260000Y-110490000D01*
X187960000Y-120650000D02*
X186690000Y-121920000D01*
X187960000Y-116840000D02*
X187960000Y-120650000D01*
%TO.N,Net-(J1-Pad30)*%
X186690000Y-73660000D02*
X186690000Y-63500000D01*
%TO.N,Net-(J1-Pad28)*%
X186690000Y-74930000D02*
X186690000Y-83820000D01*
X157480000Y-83820000D02*
X157480000Y-85090000D01*
X157480000Y-85090000D02*
X160020000Y-87630000D01*
X160020000Y-87630000D02*
X160020000Y-91440000D01*
X160020000Y-91440000D02*
X157480000Y-91440000D01*
X201930000Y-73660000D02*
X204470000Y-71120000D01*
%TO.N,Net-(J1-Pad26)*%
X182880000Y-119380000D02*
X182880000Y-116840000D01*
X182880000Y-116840000D02*
X182880000Y-116840000D01*
X162560000Y-116840000D02*
X162560000Y-101600000D01*
X162560000Y-101600000D02*
X165100000Y-101600000D01*
%TO.N,Net-(J1-Pad18)*%
X152400000Y-81280000D02*
X151130000Y-80010000D01*
X152400000Y-85090000D02*
X152400000Y-81280000D01*
%TO.N,Net-(J1-Pad12)*%
X179214990Y-102725010D02*
X179214990Y-100474990D01*
X179214990Y-100474990D02*
X177800000Y-99060000D01*
X177800000Y-99060000D02*
X177800000Y-93980000D01*
%TO.N,Net-(J1-Pad8)*%
X166625010Y-78995010D02*
X165100000Y-77470000D01*
X166625010Y-84834990D02*
X166625010Y-78995010D01*
X165100000Y-86360000D02*
X166625010Y-84834990D01*
X200660000Y-99060000D02*
X205740000Y-93980000D01*
X196850000Y-99060000D02*
X200660000Y-99060000D01*
%TO.N,Net-(J1-Pad2)*%
X189230000Y-69850000D02*
X189230000Y-102870000D01*
%TO.N,+5P*%
X84834990Y-133605010D02*
X84834990Y-146305010D01*
X86360000Y-132080000D02*
X84834990Y-133605010D01*
X84834990Y-146305010D02*
X81280000Y-149860000D01*
X81280000Y-149860000D02*
X57150000Y-149860000D01*
X57150000Y-143230000D02*
X55600000Y-141680000D01*
X57150000Y-149860000D02*
X57150000Y-143230000D01*
X182880000Y-88900000D02*
X185420000Y-86360000D01*
X181610000Y-88900000D02*
X182880000Y-88900000D01*
X187960000Y-132080000D02*
X191770000Y-128270000D01*
X187960000Y-133350000D02*
X187960000Y-132080000D01*
X127000000Y-114300000D02*
X127000000Y-116840000D01*
X127000000Y-116840000D02*
X121920000Y-121920000D01*
X168719999Y-129395001D02*
X176674999Y-129395001D01*
X167594998Y-128270000D02*
X168719999Y-129395001D01*
X176674999Y-129395001D02*
X177800000Y-128270000D01*
X162560000Y-128270000D02*
X167594998Y-128270000D01*
X166370000Y-119380000D02*
X166370000Y-121920000D01*
X185420000Y-86360000D02*
X184150000Y-85090000D01*
X184150000Y-67310000D02*
X181610000Y-64770000D01*
X184150000Y-85090000D02*
X184150000Y-67310000D01*
X171450000Y-71120000D02*
X165100000Y-64770000D01*
X171900010Y-79911014D02*
X171900010Y-71120000D01*
X171900010Y-71120000D02*
X171450000Y-71120000D01*
X173124006Y-81135010D02*
X171900010Y-79911014D01*
X174855994Y-81135010D02*
X173124006Y-81135010D01*
X175965019Y-80025985D02*
X174855994Y-81135010D01*
X175965019Y-70414981D02*
X175965019Y-80025985D01*
X181610000Y-64770000D02*
X175965019Y-70414981D01*
X151130000Y-64770000D02*
X153670000Y-62230000D01*
X153670000Y-62230000D02*
X158750000Y-62230000D01*
X158750000Y-62230000D02*
X161290000Y-64770000D01*
X165100000Y-88900000D02*
X168910000Y-92710000D01*
X166370000Y-111760000D02*
X168910000Y-114300000D01*
X166370000Y-106680000D02*
X166370000Y-111760000D01*
X147320000Y-113030000D02*
X148590000Y-114300000D01*
X147320000Y-110490000D02*
X147320000Y-113030000D01*
X191770000Y-128270000D02*
X191770000Y-124460000D01*
X185420000Y-88900000D02*
X181610000Y-88900000D01*
X81280000Y-78740000D02*
X81280000Y-107950000D01*
X105410000Y-116840000D02*
X105410000Y-130810000D01*
X109220000Y-105410000D02*
X109220000Y-116840000D01*
X127000000Y-114300000D02*
X129540000Y-116840000D01*
X129540000Y-116840000D02*
X129540000Y-118110000D01*
X129540000Y-118110000D02*
X129540000Y-121920000D01*
X148590000Y-118110000D02*
X148590000Y-114300000D01*
X144780000Y-127000000D02*
X143510000Y-128270000D01*
X144780000Y-118110000D02*
X144780000Y-127000000D01*
X166370000Y-119380000D02*
X166370000Y-116840000D01*
X166370000Y-116840000D02*
X166370000Y-114300000D01*
%TO.N,Net-(R5-Pad2)*%
X168459990Y-109670010D02*
X168459990Y-103320010D01*
X168459990Y-103320010D02*
X168910000Y-102870000D01*
X158750000Y-92710000D02*
X157480000Y-93980000D01*
X167640000Y-92710000D02*
X158750000Y-92710000D01*
%TO.N,Net-(R6-Pad2)*%
X151674999Y-101948001D02*
X151674999Y-88355001D01*
X152596998Y-102870000D02*
X151674999Y-101948001D01*
X154940000Y-102870000D02*
X152596998Y-102870000D01*
X151674999Y-88355001D02*
X152400000Y-87630000D01*
%TO.N,Net-(U1-Pad7)*%
X184615994Y-99525994D02*
X184615994Y-112774990D01*
X184615994Y-112774990D02*
X185275010Y-113434006D01*
X186690000Y-97790000D02*
X186351988Y-97790000D01*
X185275010Y-115714990D02*
X184150000Y-116840000D01*
X186351988Y-97790000D02*
X184615994Y-99525994D01*
X186690000Y-95250000D02*
X186690000Y-97790000D01*
X185275010Y-113434006D02*
X185275010Y-115714990D01*
X171450000Y-95250000D02*
X171450000Y-73660000D01*
X171450000Y-73660000D02*
X168910000Y-71120000D01*
X168910000Y-71120000D02*
X168910000Y-69850000D01*
X179070000Y-95250000D02*
X186690000Y-95250000D01*
X184150000Y-116840000D02*
X184150000Y-121920000D01*
%TO.N,Net-(U1-Pad14)*%
X154940000Y-95250000D02*
X168910000Y-95250000D01*
X173990000Y-114300000D02*
X173990000Y-111760000D01*
X167640000Y-111760000D02*
X167640000Y-102870000D01*
%TO.N,Net-(U1-Pad6)*%
X175808996Y-123190000D02*
X176064006Y-123445010D01*
X180084990Y-123445010D02*
X181610000Y-121920000D01*
X175260000Y-123190000D02*
X175808996Y-123190000D01*
X175004990Y-123445010D02*
X175260000Y-123190000D01*
X176064006Y-123445010D02*
X180084990Y-123445010D01*
X161034990Y-129246014D02*
X161034990Y-125985010D01*
X155805994Y-134475010D02*
X161034990Y-129246014D01*
X154074006Y-134475010D02*
X155805994Y-134475010D01*
X150119016Y-138430000D02*
X154074006Y-134475010D01*
X163574990Y-123445010D02*
X175004990Y-123445010D01*
X161034990Y-125985010D02*
X163574990Y-123445010D01*
X143510000Y-138430000D02*
X150119016Y-138430000D01*
%TO.N,Net-(U1-Pad5)*%
X160020000Y-132080000D02*
X165100000Y-132080000D01*
%TO.N,Net-(U1-Pad4)*%
X147175010Y-139844990D02*
X163685010Y-139844990D01*
X143510000Y-143510000D02*
X147175010Y-139844990D01*
X163685010Y-139844990D02*
X165100000Y-138430000D01*
X167640000Y-138430000D02*
X167640000Y-129540000D01*
%TO.N,Net-(U1-Pad2)*%
X171450000Y-121920000D02*
X168910000Y-119380000D01*
X168910000Y-119380000D02*
X167640000Y-119380000D01*
X152400000Y-89096998D02*
X153670000Y-87826998D01*
X152400000Y-91440000D02*
X152400000Y-89096998D01*
X151224990Y-105504990D02*
X152400000Y-106680000D01*
X151224990Y-87732008D02*
X151224990Y-105504990D01*
X152051999Y-86904999D02*
X151224990Y-87732008D01*
X152748001Y-86904999D02*
X152051999Y-86904999D01*
X153670000Y-87826998D02*
X152748001Y-86904999D01*
X166370000Y-113226998D02*
X166370000Y-113030000D01*
X167640000Y-114496998D02*
X166370000Y-113226998D01*
X167640000Y-119380000D02*
X167640000Y-114496998D01*
%TO.N,Net-(U12-Pad4)*%
X82550000Y-111760000D02*
X86360000Y-115570000D01*
X82550000Y-99060000D02*
X82550000Y-111760000D01*
%TO.N,Net-(U3-Pad8)*%
X69850000Y-96520000D02*
X69850000Y-81280000D01*
%TO.N,Net-(U3-Pad7)*%
X62230000Y-90437000D02*
X60960000Y-89167000D01*
X62230000Y-93980000D02*
X62230000Y-90437000D01*
X60960000Y-80010000D02*
X61790000Y-79180000D01*
X60960000Y-89167000D02*
X60960000Y-80010000D01*
%TO.N,Net-(U3-Pad6)*%
X67310000Y-91440000D02*
X66490010Y-90620010D01*
X66490010Y-83369990D02*
X67154999Y-82705001D01*
X66490010Y-90620010D02*
X66490010Y-83369990D01*
%TO.N,Net-(U3-Pad5)*%
X68580000Y-88900000D02*
X67310000Y-87630000D01*
X67310000Y-83820000D02*
X68580000Y-82550000D01*
X67310000Y-87630000D02*
X67310000Y-83820000D01*
%TO.N,Net-(U3-Pad4)*%
X64770000Y-88900000D02*
X64770000Y-85090000D01*
%TO.N,Net-(U3-Pad2)*%
X62154999Y-87705001D02*
X62154999Y-80085001D01*
X62230000Y-80010000D02*
X63500000Y-80010000D01*
X62154999Y-80085001D02*
X62230000Y-80010000D01*
%TO.N,Net-(U3-Pad1)*%
X68580000Y-81083002D02*
X68580000Y-78740000D01*
X69305001Y-81808003D02*
X68580000Y-81083002D01*
X69305001Y-84364999D02*
X69305001Y-81808003D01*
X68580000Y-85090000D02*
X69305001Y-84364999D01*
%TO.N,Net-(U6-Pad5)*%
X69850000Y-113030000D02*
X69850000Y-142240000D01*
%TO.N,Net-(U6-Pad4)*%
X68580000Y-114300000D02*
X68580000Y-139700000D01*
%TO.N,Net-(U6-Pad2)*%
X63500000Y-110490000D02*
X63500000Y-134620000D01*
%TO.N,Net-(U6-Pad1)*%
X71120000Y-111760000D02*
X71120000Y-132080000D01*
%TO.N,Net-(U18-Pad2)*%
X69850000Y-67310000D02*
X66040000Y-71120000D01*
X66040000Y-71120000D02*
X66040000Y-102870000D01*
X83820000Y-107950000D02*
X86360000Y-110490000D01*
X83820000Y-102870000D02*
X83820000Y-107950000D01*
X128270000Y-67310000D02*
X128270000Y-69850000D01*
%TO.N,Net-(U12-Pad4)*%
X99060000Y-76200000D02*
X99060000Y-115570000D01*
%TO.N,Net-(U9-Pad2)*%
X64770000Y-109220000D02*
X64770000Y-115570000D01*
%TO.N,Net-(U9-Pad1)*%
X66040000Y-107950000D02*
X66040000Y-115570000D01*
%TO.N,Net-(U12-Pad39)*%
X161290000Y-67310000D02*
X161290000Y-77470000D01*
%TO.N,Net-(U12-Pad19)*%
X107950000Y-114300000D02*
X107950000Y-152400000D01*
X148590000Y-143510000D02*
X148590000Y-152400000D01*
X174134990Y-139555010D02*
X173990000Y-139700000D01*
X174134990Y-137015010D02*
X174134990Y-139555010D01*
%TO.N,Net-(U12-Pad38)*%
X139700000Y-72390000D02*
X140970000Y-71120000D01*
X139700000Y-73660000D02*
X139700000Y-72390000D01*
%TO.N,Net-(U12-Pad37)*%
X140970000Y-76200000D02*
X140970000Y-72390000D01*
X140970000Y-72390000D02*
X143510000Y-72390000D01*
%TO.N,Net-(U12-Pad17)*%
X165100000Y-80010000D02*
X165100000Y-85090000D01*
X165100000Y-85090000D02*
X163830000Y-86360000D01*
X142240000Y-85090000D02*
X140970000Y-83820000D01*
X113030000Y-109220000D02*
X113030000Y-80010000D01*
%TO.N,Net-(U12-Pad36)*%
X162560000Y-77470000D02*
X162560000Y-62230000D01*
X177800000Y-67310000D02*
X177800000Y-62230000D01*
%TO.N,Net-(U12-Pad16)*%
X110490000Y-64770000D02*
X110490000Y-106680000D01*
%TO.N,Net-(U12-Pad35)*%
X168910000Y-74930000D02*
X168910000Y-82550000D01*
%TO.N,Net-(U12-Pad15)*%
X88900000Y-104140000D02*
X88900000Y-118110000D01*
%TO.N,Net-(U12-Pad30)*%
X133494990Y-133494990D02*
X135890000Y-135890000D01*
X133494990Y-108002008D02*
X133494990Y-133494990D01*
X135890000Y-105606998D02*
X133494990Y-108002008D01*
X135890000Y-93980000D02*
X135890000Y-105606998D01*
%TO.N,Net-(U12-Pad29)*%
X155476501Y-76933499D02*
X157480000Y-74930000D01*
X155476501Y-85823499D02*
X155476501Y-76933499D01*
X155954999Y-86301997D02*
X155476501Y-85823499D01*
X155954999Y-90425001D02*
X155954999Y-86301997D01*
X153670000Y-92710000D02*
X155954999Y-90425001D01*
X153670000Y-96520000D02*
X153670000Y-92710000D01*
X170905001Y-99604999D02*
X173990000Y-96520000D01*
X169831999Y-99604999D02*
X170905001Y-99604999D01*
X169557008Y-99879990D02*
X169831999Y-99604999D01*
X167369990Y-99879990D02*
X169557008Y-99879990D01*
X166550000Y-99060000D02*
X167369990Y-99879990D01*
X165100000Y-99060000D02*
X166550000Y-99060000D01*
%TO.N,Net-(U12-Pad28)*%
X180484990Y-97934990D02*
X181610000Y-99060000D01*
X153525010Y-97934990D02*
X171305010Y-97934990D01*
X152400000Y-99060000D02*
X153525010Y-97934990D01*
X154214999Y-73115001D02*
X157480000Y-69850000D01*
X154940000Y-87630000D02*
X154214999Y-86904999D01*
X154214999Y-86904999D02*
X154214999Y-73115001D01*
X152400000Y-99060000D02*
X152400000Y-92710000D01*
X154940000Y-87630000D02*
X154940000Y-88900000D01*
X154940000Y-88900000D02*
X153670000Y-90170000D01*
X153670000Y-90170000D02*
X153670000Y-91440000D01*
X153670000Y-91440000D02*
X152400000Y-92710000D01*
X178925010Y-97934990D02*
X180484990Y-97934990D01*
%TO.N,Net-(U12-Pad27)*%
X152400000Y-101600000D02*
X153670000Y-100330000D01*
X153670000Y-100330000D02*
X170180000Y-100330000D01*
X170180000Y-96520000D02*
X170180000Y-82550000D01*
X179070000Y-72390000D02*
X179070000Y-82550000D01*
%TO.N,Net-(U12-Pad26)*%
X130954990Y-107805010D02*
X130954990Y-125585010D01*
X134620000Y-104140000D02*
X130954990Y-107805010D01*
X163685010Y-125585010D02*
X167784990Y-125585010D01*
%TO.N,Net-(U12-Pad25)*%
X135890000Y-106680000D02*
X135890000Y-128270000D01*
X125185001Y-105954999D02*
X125185001Y-62774999D01*
X124460000Y-106680000D02*
X125185001Y-105954999D01*
X125730000Y-62230000D02*
X125185001Y-62774999D01*
X173990000Y-64770000D02*
X171450000Y-64770000D01*
X171450000Y-63500000D02*
X170180000Y-62230000D01*
X171450000Y-64770000D02*
X171450000Y-63500000D01*
%TO.N,Net-(U12-Pad5)*%
X59690000Y-118110000D02*
X59690000Y-66040000D01*
X100330000Y-78740000D02*
X100330000Y-66040000D01*
%TO.N,Net-(U12-Pad24)*%
X146050000Y-113030000D02*
X146050000Y-121920000D01*
%TO.N,Net-(U12-Pad23)*%
X158750000Y-116840000D02*
X158750000Y-121920000D01*
%TO.N,Net-(U12-Pad3)*%
X90170000Y-73660000D02*
X90170000Y-109220000D01*
%TO.N,Net-(U12-Pad2)*%
X97790000Y-72390000D02*
X97790000Y-114300000D01*
%TO.N,Net-(U12-Pad1)*%
X114300000Y-143510000D02*
X114300000Y-68580000D01*
%TO.N,Net-(U15-Pad3)*%
X163830000Y-124460000D02*
X166370000Y-124460000D01*
X166370000Y-130810000D02*
X166370000Y-135890000D01*
%TO.N,Net-(U15-Pad1)*%
X124460000Y-132080000D02*
X123190000Y-133350000D01*
X124460000Y-121920000D02*
X124460000Y-132080000D01*
%TO.N,Net-(U16-Pad7)*%
X156210000Y-142240000D02*
X154940000Y-143510000D01*
X160020000Y-142240000D02*
X156210000Y-142240000D01*
%TO.N,Net-(U16-Pad2)*%
X120905010Y-132335010D02*
X120905010Y-133605010D01*
X119380000Y-130810000D02*
X120905010Y-132335010D01*
X148734990Y-137015010D02*
X154940000Y-130810000D01*
X120905010Y-133605010D02*
X124315010Y-137015010D01*
%TO.N,Net-(U17-Pad2)*%
X170180000Y-133350000D02*
X171450000Y-134620000D01*
X171705010Y-141984990D02*
X170180000Y-143510000D01*
X171450000Y-135168996D02*
X171705010Y-135424006D01*
X171705010Y-135424006D02*
X171705010Y-141984990D01*
X171450000Y-134620000D02*
X171450000Y-135168996D01*
%TO.N,Net-(U12-Pad22)*%
X181610000Y-143510000D02*
X181610000Y-124460000D01*
X182880000Y-121198996D02*
X181061004Y-119380000D01*
X182880000Y-123190000D02*
X182880000Y-121198996D01*
X181610000Y-124460000D02*
X182880000Y-123190000D01*
X181061004Y-119380000D02*
X180340000Y-119380000D01*
%TO.N,Net-(U16-Pad2)*%
X138574990Y-137015010D02*
X148734990Y-137015010D01*
%TO.N,Net-(U17-Pad5)*%
X175404990Y-145905010D02*
X175260000Y-146050000D01*
X175404990Y-139555010D02*
X175404990Y-145905010D01*
X170180000Y-138430000D02*
X170180000Y-140970000D01*
%TO.N,Net-(U21-Pad11)*%
X194310000Y-119380000D02*
X194310000Y-138430000D01*
X163830000Y-118110000D02*
X163830000Y-114300000D01*
%TO.N,Net-(U22-Pad13)*%
X149860000Y-118306998D02*
X149860000Y-125730000D01*
X149958499Y-115471501D02*
X151130000Y-114300000D01*
X149958499Y-118208499D02*
X149958499Y-115471501D01*
X149958499Y-118208499D02*
X149860000Y-118306998D01*
%TO.N,Net-(U22-Pad11)*%
X156210000Y-114300000D02*
X156210000Y-107950000D01*
X149860000Y-107950000D02*
X148590000Y-106680000D01*
X148590000Y-106680000D02*
X148590000Y-66040000D01*
%TO.N,Net-(U22-Pad3)*%
X153670000Y-121920000D02*
X152400000Y-123190000D01*
X152400000Y-123190000D02*
X152400000Y-130810000D01*
X129540000Y-129540000D02*
X129540000Y-139700000D01*
%TO.N,Net-(U22-Pad2)*%
X151130000Y-118110000D02*
X151130000Y-121920000D01*
X161290000Y-114300000D02*
X161290000Y-118110000D01*
%TO.N,Net-(U23-Pad1)*%
X165100000Y-69850000D02*
X166370000Y-69850000D01*
X169729990Y-87179990D02*
X169729990Y-90620010D01*
X168184999Y-85634999D02*
X169729990Y-87179990D01*
X168184999Y-71664999D02*
X168184999Y-85634999D01*
X166370000Y-69850000D02*
X168184999Y-71664999D01*
X165965994Y-87774990D02*
X163685010Y-87774990D01*
X168811014Y-90620010D02*
X165965994Y-87774990D01*
X169729990Y-90620010D02*
X168811014Y-90620010D01*
X163685010Y-87774990D02*
X162560000Y-88900000D01*
%TO.N,Net-(U25-Pad2)*%
X160470010Y-89350010D02*
X161290000Y-90170000D01*
X160470010Y-83369990D02*
X160470010Y-89350010D01*
X159005010Y-81904990D02*
X160470010Y-83369990D01*
X159005010Y-73915010D02*
X159005010Y-81904990D01*
X157480000Y-72390000D02*
X159005010Y-73915010D01*
X177074999Y-99604999D02*
X177800000Y-100330000D01*
X177074999Y-92165001D02*
X177074999Y-99604999D01*
X177800000Y-91440000D02*
X177074999Y-92165001D01*
%TO.N,Net-(U25-Pad1)*%
X181610000Y-101600000D02*
X185420000Y-97790000D01*
X185420000Y-97790000D02*
X185420000Y-96520000D01*
X167095001Y-87085001D02*
X168910000Y-88900000D01*
X162560000Y-86360000D02*
X163285001Y-87085001D01*
X161290000Y-86360000D02*
X162560000Y-86360000D01*
X162560000Y-83820000D02*
X161290000Y-85090000D01*
X163574990Y-80265010D02*
X162560000Y-81280000D01*
X163574990Y-79754990D02*
X163574990Y-80265010D01*
X161290000Y-85090000D02*
X161290000Y-86360000D01*
X162560000Y-81280000D02*
X162560000Y-83820000D01*
X162560000Y-78740000D02*
X163574990Y-79754990D01*
X161290000Y-78740000D02*
X162560000Y-78740000D01*
X163285001Y-87085001D02*
X167095001Y-87085001D01*
X160020000Y-77470000D02*
X161290000Y-78740000D01*
%TO.N,Net-(U28-Pad5)*%
X59690000Y-120650000D02*
X59690000Y-148590000D01*
X116840000Y-151130000D02*
X116840000Y-140970000D01*
%TO.N,Net-(R8-Pad2)*%
X127000000Y-135890000D02*
X127000000Y-138430000D01*
%TO.N,Net-(U14-Pad2)*%
X97790000Y-133350000D02*
X96520000Y-133350000D01*
X96520000Y-133350000D02*
X95250000Y-134620000D01*
X95250000Y-140970000D02*
X97790000Y-143510000D01*
X95250000Y-134620000D02*
X95250000Y-140970000D01*
%TO.N,Net-(U14-Pad12)*%
X105410000Y-146050000D02*
X102870000Y-146050000D01*
X102870000Y-146050000D02*
X102870000Y-137160000D01*
X104140000Y-137160000D02*
X105410000Y-135890000D01*
X102870000Y-137160000D02*
X104140000Y-137160000D01*
%TO.N,Net-(U14-Pad11)*%
X123190000Y-140970000D02*
X123190000Y-137160000D01*
%TO.N,Net-(U18-Pad12)*%
X60924999Y-99024999D02*
X60960000Y-99060000D01*
X60924999Y-90205001D02*
X60924999Y-99024999D01*
X132530010Y-77216988D02*
X132530010Y-92259990D01*
X132899990Y-76847008D02*
X132530010Y-77216988D01*
X132899990Y-70669990D02*
X132899990Y-76847008D01*
X132080000Y-69850000D02*
X132899990Y-70669990D01*
X132530010Y-92259990D02*
X132080000Y-92710000D01*
X95250000Y-92710000D02*
X95250000Y-101600000D01*
%TO.N,Net-(U18-Pad10)*%
X132080000Y-74930000D02*
X132080000Y-90170000D01*
X132080000Y-90170000D02*
X130810000Y-90170000D01*
X96520000Y-90170000D02*
X96520000Y-111760000D01*
%TO.N,Net-(U18-Pad13)*%
X91440000Y-74930000D02*
X91440000Y-106680000D01*
%TO.N,Net-(U18-Pad11)*%
X60960000Y-118110000D02*
X60960000Y-128270000D01*
X138430000Y-72390000D02*
X138430000Y-80010000D01*
X138430000Y-80010000D02*
X138430000Y-100330000D01*
X92710000Y-100330000D02*
X92310001Y-100729999D01*
X92310001Y-107079999D02*
X91440000Y-107950000D01*
X92310001Y-100729999D02*
X92310001Y-107079999D01*
X91440000Y-107950000D02*
X91440000Y-111760000D01*
X91440000Y-111760000D02*
X91440000Y-119380000D01*
X91440000Y-110490000D02*
X91440000Y-111760000D01*
%TO.N,Net-(U18-Pad9)*%
X58140000Y-66516998D02*
X58420000Y-66236998D01*
X58140000Y-89180000D02*
X58140000Y-66516998D01*
X58420000Y-66236998D02*
X58420000Y-64770000D01*
X133350000Y-63500000D02*
X133350000Y-77470000D01*
%TO.N,Net-(R9-Pad2)*%
X120650000Y-116840000D02*
X120650000Y-123190000D01*
%TD*%
M02*
