M48
; DRILL file {KiCad (5.1.10)-1} date 01/23/22 14:01:58
; FORMAT={-:-/ absolute / inch / decimal}
; #@! TF.CreationDate,2022-01-23T14:01:58+01:00
; #@! TF.GenerationSoftware,Kicad,Pcbnew,(5.1.10)-1
; #@! TF.FileFunction,Plated,1,2,PTH
FMAT,2
INCH
T1C0.0157
T2C0.0315
T3C0.0394
T4C0.0630
%
G90
G05
T1
X2.289Y-3.511
X2.3Y-2.55
X2.35Y-2.6
X2.35Y-4.65
X2.35Y-4.75
X2.35Y-5.85
X2.3986Y-3.5514
X2.4Y-3.9
X2.4Y-4.65
X2.4Y-5.05
X2.4327Y-3.1173
X2.447Y-3.453
X2.45Y-3.7
X2.5Y-3.15
X2.5Y-4.35
X2.5Y-5.3
X2.55Y-3.35
X2.55Y-3.5
X2.55Y-4.3
X2.55Y-4.55
X2.6Y-4.05
X2.6Y-4.25
X2.6Y-4.55
X2.6439Y-3.2561
X2.65Y-3.6
X2.7Y-3.1
X2.7Y-3.25
X2.7Y-3.35
X2.7Y-3.5
X2.7Y-4.5
X2.7Y-5.5
X2.75Y-2.65
X2.75Y-3.2
X2.75Y-3.8
X2.75Y-4.45
X2.75Y-5.6
X2.8Y-4.4
X2.8Y-5.2
X2.95Y-4.0
X2.95Y-4.95
X3.2Y-3.1
X3.2Y-4.25
X3.25Y-3.9
X3.3Y-4.05
X3.5Y-4.1
X3.5Y-4.65
X3.55Y-2.9
X3.55Y-4.3
X3.6Y-2.95
X3.6Y-4.2
X3.6Y-4.7
X3.65Y-3.95
X3.7Y-5.85
X3.75Y-3.65
X3.75Y-4.0
X3.8Y-2.55
X3.8Y-3.55
X3.8Y-4.4
X3.8Y-5.85
X3.85Y-2.85
X3.85Y-4.5
X3.9Y-3.0
X3.9Y-4.55
X3.95Y-2.6
X3.95Y-3.1
X4.15Y-4.8
X4.25Y-4.5
X4.25Y-6.0
X4.3Y-4.15
X4.3Y-4.6
X4.35Y-2.55
X4.35Y-4.2
X4.45Y-3.15
X4.45Y-4.3
X4.5Y-2.7
X4.5Y-5.65
X4.55Y-5.2
X4.55Y-5.75
X4.6Y-5.55
X4.6Y-5.95
X4.65Y-5.85
X4.75Y-4.85
X4.8Y-4.8
X4.85Y-5.25
X4.85Y-5.4
X4.85Y-5.55
X4.8943Y-5.3943
X4.9Y-2.5
X4.9Y-2.7
X4.9Y-3.15
X4.9Y-4.2
X4.9Y-4.8
X4.95Y-2.45
X5.1Y-4.65
X5.1Y-5.1
X5.1Y-5.5
X5.15Y-3.55
X5.1557Y-4.9443
X5.2Y-2.75
X5.2Y-2.95
X5.2Y-3.65
X5.25Y-2.5
X5.25Y-3.05
X5.3Y-4.1
X5.35Y-3.7
X5.35Y-4.2
X5.45Y-2.85
X5.45Y-3.15
X5.45Y-3.95
X5.4557Y-5.3943
X5.5Y-2.9
X5.55Y-2.8
X5.55Y-3.0
X5.55Y-3.3
X5.55Y-5.3
X5.55Y-5.45
X5.6Y-3.35
X5.7Y-4.65
X5.75Y-4.45
X5.75Y-4.8
X5.85Y-2.6
X5.85Y-4.65
X5.85Y-5.65
X5.85Y-6.0
X5.9Y-4.25
X5.9Y-4.95
X5.95Y-4.65
X6.0Y-3.35
X6.0Y-3.45
X6.0Y-3.6
X6.0Y-3.9
X6.0Y-4.0
X6.0Y-4.2
X6.0Y-5.15
X6.05Y-3.8
X6.1Y-3.75
X6.1Y-4.05
X6.15Y-3.25
X6.15Y-4.25
X6.2Y-3.3
X6.25Y-4.6
X6.3Y-3.05
X6.3Y-3.15
X6.3Y-5.2
X6.3Y-5.6
X6.35Y-2.55
X6.35Y-2.65
X6.35Y-3.05
X6.35Y-3.55
X6.35Y-4.65
X6.4Y-2.45
X6.4Y-3.05
X6.4Y-3.15
X6.4Y-3.5
X6.4Y-4.6
X6.4443Y-4.9443
X6.45Y-3.4
X6.45Y-4.65
X6.45Y-4.9
X6.5Y-3.4
X6.5Y-5.2
X6.5Y-5.45
X6.55Y-4.2
X6.55Y-4.45
X6.55Y-4.5
X6.55Y-4.7
X6.55Y-4.8
X6.55Y-4.9
X6.55Y-5.15
X6.55Y-5.35
X6.6Y-3.65
X6.6Y-3.9
X6.6Y-4.05
X6.6Y-4.4
X6.6Y-4.7
X6.6Y-5.1
X6.6Y-5.45
X6.6057Y-4.9443
X6.6323Y-4.3177
X6.65Y-2.75
X6.65Y-2.95
X6.65Y-3.25
X6.65Y-3.5
X6.65Y-3.65
X6.65Y-3.75
X6.65Y-4.05
X6.7Y-2.45
X6.7Y-3.25
X6.7Y-3.8
X6.7Y-3.95
X6.7443Y-3.8557
X6.75Y-3.75
X6.85Y-4.4
X6.85Y-5.5
X6.8557Y-5.3943
X6.9Y-4.35
X6.9Y-4.7
X6.9Y-5.75
X6.9057Y-5.4943
X7.0Y-2.45
X7.0Y-2.65
X7.0Y-3.6
X7.0Y-3.7
X7.0Y-3.9
X7.0Y-3.95
X7.0443Y-3.8557
X7.05Y-2.85
X7.05Y-3.25
X7.05Y-3.75
X7.0557Y-4.0443
X7.1Y-4.7
X7.15Y-5.65
X7.2Y-4.6
X7.2Y-4.7
X7.3Y-3.8
X7.35Y-2.5
X7.35Y-2.9
X7.35Y-2.95
X7.35Y-3.3
X7.4Y-4.6
X7.4Y-5.25
X7.45Y-2.75
X7.45Y-4.05
X7.5Y-4.2
X7.5Y-4.55
X7.65Y-4.7
X7.65Y-5.45
X7.95Y-2.9
X8.05Y-2.8
X8.1Y-3.7
T2
X1.9921Y-2.822
X1.9921Y-2.9205
X1.9921Y-3.0189
X1.9921Y-3.1173
X1.9921Y-3.2157
X1.9921Y-3.3142
X1.9921Y-3.4126
X1.9921Y-3.511
X1.9921Y-3.6094
X1.9921Y-3.7079
X1.9921Y-3.8063
X1.9921Y-3.9047
X1.9921Y-4.0031
X1.9921Y-4.1016
X1.9921Y-4.2
X1.9921Y-4.2984
X1.9921Y-4.3969
X1.9921Y-4.4953
X1.9921Y-4.5937
X1.9921Y-4.6921
X1.9921Y-4.7906
X1.9921Y-4.889
X1.9921Y-4.9874
X1.9921Y-5.0858
X1.9921Y-5.1843
X1.9921Y-5.2827
X1.9921Y-5.3811
X1.9921Y-5.4795
X1.9921Y-5.578
X2.189Y-2.822
X2.189Y-2.9205
X2.189Y-3.0189
X2.189Y-3.1173
X2.189Y-3.2157
X2.189Y-3.3142
X2.189Y-3.4126
X2.189Y-3.511
X2.189Y-3.6094
X2.189Y-3.7079
X2.189Y-3.8063
X2.189Y-3.9047
X2.189Y-4.0031
X2.189Y-4.1016
X2.189Y-4.2
X2.189Y-4.2984
X2.189Y-4.3969
X2.189Y-4.4953
X2.189Y-4.5937
X2.189Y-4.6921
X2.189Y-4.7906
X2.189Y-4.889
X2.189Y-4.9874
X2.189Y-5.0858
X2.189Y-5.1843
X2.189Y-5.2827
X2.189Y-5.3811
X2.189Y-5.4795
X2.189Y-5.578
X2.7Y-5.75
X2.7984Y-5.75
X2.95Y-2.75
X3.0484Y-2.75
X3.1Y-3.1
X3.1Y-3.2
X3.1Y-3.3
X3.1Y-3.4
X3.1Y-3.5
X3.1Y-3.6
X3.1Y-3.7
X3.1Y-3.8
X3.1Y-3.9
X3.1Y-4.0
X3.1Y-4.25
X3.1Y-4.35
X3.1Y-4.45
X3.1Y-4.55
X3.1Y-4.65
X3.1Y-4.75
X3.1Y-4.85
X3.1Y-4.95
X3.1Y-5.2
X3.1Y-5.3
X3.1Y-5.4
X3.1Y-5.5
X3.1Y-5.6
X3.1Y-5.7
X3.1Y-5.8
X3.3516Y-5.05
X3.4Y-3.1
X3.4Y-3.2
X3.4Y-3.3
X3.4Y-3.4
X3.4Y-3.5
X3.4Y-3.6
X3.4Y-3.7
X3.4Y-3.8
X3.4Y-3.9
X3.4Y-4.0
X3.4Y-4.25
X3.4Y-4.35
X3.4Y-4.45
X3.4Y-4.55
X3.4Y-4.65
X3.4Y-4.75
X3.4Y-4.85
X3.4Y-4.95
X3.4Y-5.2
X3.4Y-5.3
X3.4Y-5.4
X3.4Y-5.5
X3.4Y-5.6
X3.4Y-5.7
X3.4Y-5.8
X3.45Y-5.05
X3.7Y-2.8
X3.7Y-4.2
X3.7Y-4.3
X3.7Y-4.4
X3.7Y-4.5
X3.7Y-4.6
X3.7Y-4.7
X3.7Y-4.8
X3.7984Y-2.8
X3.85Y-5.15
X3.85Y-5.25
X3.85Y-5.35
X3.85Y-5.45
X3.85Y-5.55
X3.85Y-5.65
X3.85Y-5.75
X4.0Y-4.2
X4.0Y-4.3
X4.0Y-4.4
X4.0Y-4.5
X4.0Y-4.6
X4.0Y-4.7
X4.0Y-4.8
X4.15Y-2.7
X4.15Y-2.8
X4.15Y-2.9
X4.15Y-3.0
X4.15Y-3.1
X4.15Y-3.2
X4.15Y-3.3
X4.15Y-3.4
X4.15Y-3.5
X4.15Y-3.6
X4.15Y-3.7
X4.15Y-3.8
X4.15Y-3.9
X4.15Y-4.0
X4.15Y-4.1
X4.15Y-4.2
X4.15Y-4.3
X4.15Y-4.4
X4.15Y-4.5
X4.15Y-4.6
X4.15Y-5.15
X4.15Y-5.25
X4.15Y-5.35
X4.15Y-5.45
X4.15Y-5.55
X4.15Y-5.65
X4.15Y-5.75
X4.35Y-5.2
X4.4Y-5.5
X4.4Y-5.6921
X4.4484Y-5.2
X4.45Y-4.85
X4.45Y-5.0
X4.7Y-5.15
X4.7Y-5.25
X4.7Y-5.35
X4.7Y-5.45
X4.7Y-5.55
X4.7Y-5.65
X4.7Y-5.75
X4.75Y-2.7
X4.75Y-2.8
X4.75Y-2.9
X4.75Y-3.0
X4.75Y-3.1
X4.75Y-3.2
X4.75Y-3.3
X4.75Y-3.4
X4.75Y-3.5
X4.75Y-3.6
X4.75Y-3.7
X4.75Y-3.8
X4.75Y-3.9
X4.75Y-4.0
X4.75Y-4.1
X4.75Y-4.2
X4.75Y-4.3
X4.75Y-4.4
X4.75Y-4.5
X4.75Y-4.6
X4.85Y-4.85
X4.85Y-5.0
X5.0Y-4.5
X5.0Y-4.8
X5.0Y-5.15
X5.0Y-5.25
X5.0Y-5.35
X5.0Y-5.45
X5.0Y-5.55
X5.0Y-5.65
X5.0Y-5.75
X5.05Y-2.55
X5.05Y-2.65
X5.05Y-2.75
X5.05Y-2.85
X5.05Y-2.95
X5.05Y-3.05
X5.05Y-3.15
X5.1Y-4.5
X5.1Y-4.8
X5.2Y-4.5
X5.2Y-4.8
X5.3Y-4.5
X5.3Y-4.8
X5.35Y-2.55
X5.35Y-2.65
X5.35Y-2.75
X5.35Y-2.85
X5.35Y-2.95
X5.35Y-3.05
X5.35Y-3.15
X5.35Y-5.05
X5.35Y-5.15
X5.35Y-5.25
X5.35Y-5.35
X5.35Y-5.45
X5.35Y-5.55
X5.35Y-5.65
X5.35Y-5.75
X5.4Y-4.5
X5.4Y-4.8
X5.5Y-4.5
X5.5Y-4.8
X5.6Y-4.5
X5.6Y-4.8
X5.65Y-2.55
X5.65Y-2.65
X5.65Y-2.75
X5.65Y-2.85
X5.65Y-2.95
X5.65Y-3.05
X5.65Y-3.15
X5.65Y-5.05
X5.65Y-5.15
X5.65Y-5.25
X5.65Y-5.35
X5.65Y-5.45
X5.65Y-5.55
X5.65Y-5.65
X5.65Y-5.75
X5.7016Y-4.35
X5.8Y-4.35
X5.85Y-4.5
X5.85Y-4.8
X5.95Y-2.55
X5.95Y-2.65
X5.95Y-2.75
X5.95Y-2.85
X5.95Y-2.95
X5.95Y-3.05
X5.95Y-3.15
X5.95Y-4.5
X5.95Y-4.8
X6.05Y-4.5
X6.05Y-4.8
X6.1Y-5.05
X6.1Y-5.15
X6.1Y-5.25
X6.1Y-5.35
X6.1Y-5.45
X6.1Y-5.55
X6.1Y-5.65
X6.1Y-5.75
X6.15Y-4.5
X6.15Y-4.8
X6.2Y-2.55
X6.2Y-2.65
X6.2Y-2.75
X6.2Y-2.85
X6.2Y-2.95
X6.2Y-3.05
X6.2Y-3.15
X6.2Y-3.5
X6.2Y-3.6
X6.2Y-3.7
X6.2Y-3.8
X6.2Y-3.9
X6.2Y-4.0
X6.2Y-4.1
X6.25Y-4.5
X6.25Y-4.8
X6.35Y-4.5
X6.35Y-4.8
X6.4Y-5.05
X6.4Y-5.15
X6.4Y-5.25
X6.4Y-5.35
X6.4Y-5.45
X6.4Y-5.55
X6.4Y-5.65
X6.4Y-5.75
X6.45Y-4.5
X6.45Y-4.8
X6.5Y-2.55
X6.5Y-2.65
X6.5Y-2.75
X6.5Y-2.85
X6.5Y-2.95
X6.5Y-3.05
X6.5Y-3.15
X6.5Y-3.5
X6.5Y-3.6
X6.5Y-3.7
X6.5Y-3.8
X6.5Y-3.9
X6.5Y-4.0
X6.5Y-4.1
X6.65Y-4.5
X6.65Y-4.8
X6.7Y-5.05
X6.7Y-5.15
X6.7Y-5.25
X6.7Y-5.35
X6.7Y-5.45
X6.7Y-5.55
X6.7Y-5.65
X6.7Y-5.75
X6.75Y-4.5
X6.75Y-4.8
X6.85Y-2.55
X6.85Y-2.65
X6.85Y-2.75
X6.85Y-2.85
X6.85Y-2.95
X6.85Y-3.05
X6.85Y-3.15
X6.85Y-3.5
X6.85Y-3.6
X6.85Y-3.7
X6.85Y-3.8
X6.85Y-3.9
X6.85Y-4.0
X6.85Y-4.1
X6.85Y-4.5
X6.85Y-4.8
X6.95Y-4.5
X6.95Y-4.8
X7.0Y-5.05
X7.0Y-5.15
X7.0Y-5.25
X7.0Y-5.35
X7.0Y-5.45
X7.0Y-5.55
X7.0Y-5.65
X7.0Y-5.75
X7.05Y-4.5
X7.05Y-4.8
X7.15Y-2.55
X7.15Y-2.65
X7.15Y-2.75
X7.15Y-2.85
X7.15Y-2.95
X7.15Y-3.05
X7.15Y-3.15
X7.15Y-3.5
X7.15Y-3.6
X7.15Y-3.7
X7.15Y-3.8
X7.15Y-3.9
X7.15Y-4.0
X7.15Y-4.1
X7.15Y-4.5
X7.15Y-4.8
X7.25Y-4.5
X7.25Y-4.8
X7.25Y-5.05
X7.25Y-5.15
X7.25Y-5.25
X7.25Y-5.35
X7.25Y-5.45
X7.25Y-5.55
X7.25Y-5.65
X7.25Y-5.75
X7.3Y-3.0
X7.3Y-3.4
X7.3Y-3.5
X7.35Y-4.5
X7.35Y-4.8
X7.3984Y-3.5
X7.55Y-4.8016
X7.55Y-4.9
X7.55Y-5.05
X7.55Y-5.15
X7.55Y-5.25
X7.55Y-5.35
X7.55Y-5.45
X7.55Y-5.55
X7.55Y-5.65
X7.55Y-5.75
X7.75Y-4.55
X7.75Y-4.7
X7.75Y-4.85
X7.75Y-5.0
X7.75Y-5.15
X7.75Y-5.3
X8.15Y-4.55
X8.15Y-4.7
X8.15Y-4.85
X8.15Y-5.0
X8.15Y-5.15
X8.15Y-5.3
T3
X1.709Y-2.75
X1.709Y-2.85
X1.709Y-2.95
X1.709Y-3.05
X1.709Y-3.15
X1.709Y-3.25
X1.709Y-3.35
X1.709Y-3.45
X1.709Y-3.55
X1.709Y-3.65
X1.709Y-3.75
X1.709Y-3.85
X1.709Y-3.95
X1.709Y-4.05
X1.709Y-4.15
X1.709Y-4.25
X1.709Y-4.35
X1.709Y-4.45
X1.709Y-4.55
X1.709Y-4.65
X1.709Y-4.75
X1.709Y-4.85
X1.709Y-4.95
X1.709Y-5.05
X1.709Y-5.15
X1.709Y-5.25
X1.709Y-5.35
X1.709Y-5.45
X1.709Y-5.55
X1.909Y-2.75
X1.909Y-2.85
X1.909Y-2.95
X1.909Y-3.05
X1.909Y-3.15
X1.909Y-3.25
X1.909Y-3.35
X1.909Y-3.45
X1.909Y-3.55
X1.909Y-3.65
X1.909Y-3.75
X1.909Y-3.85
X1.909Y-3.95
X1.909Y-4.05
X1.909Y-4.15
X1.909Y-4.25
X1.909Y-4.35
X1.909Y-4.45
X1.909Y-4.55
X1.909Y-4.65
X1.909Y-4.75
X1.909Y-4.85
X1.909Y-4.95
X1.909Y-5.05
X1.909Y-5.15
X1.909Y-5.25
X1.909Y-5.35
X1.909Y-5.45
X1.909Y-5.55
X7.65Y-2.6
X7.65Y-2.7
X7.65Y-2.8
X7.65Y-2.9
X7.65Y-3.0
X7.65Y-3.1
X7.65Y-3.2
X7.65Y-3.3
X7.65Y-3.4
X7.65Y-3.5
X7.65Y-3.6
X7.65Y-3.7
X7.65Y-3.8
X7.65Y-3.9
X7.65Y-4.0
X7.65Y-4.1
X7.65Y-4.2
X7.75Y-2.6
X7.75Y-2.7
X7.75Y-2.8
X7.75Y-2.9
X7.75Y-3.0
X7.75Y-3.1
X7.75Y-3.2
X7.75Y-3.3
X7.75Y-3.4
X7.75Y-3.5
X7.75Y-3.6
X7.75Y-3.7
X7.75Y-3.8
X7.75Y-3.9
X7.75Y-4.0
X7.75Y-4.1
X7.75Y-4.2
T4
X1.609Y-2.45
X1.609Y-5.95
X1.6969Y-2.576
X1.6969Y-5.824
T0
M30
