%TF.GenerationSoftware,KiCad,Pcbnew,(5.1.10)-1*%
%TF.CreationDate,2022-01-29T09:37:24+01:00*%
%TF.ProjectId,2K-BWS,324b2d42-5753-42e6-9b69-6361645f7063,rev?*%
%TF.SameCoordinates,Original*%
%TF.FileFunction,Legend,Top*%
%TF.FilePolarity,Positive*%
%FSLAX46Y46*%
G04 Gerber Fmt 4.6, Leading zero omitted, Abs format (unit mm)*
G04 Created by KiCad (PCBNEW (5.1.10)-1) date 2022-01-29 09:37:24*
%MOMM*%
%LPD*%
G01*
G04 APERTURE LIST*
%ADD10C,0.120000*%
%ADD11C,0.250000*%
%ADD12C,0.100000*%
%ADD13C,0.200000*%
%ADD14C,0.150000*%
G04 APERTURE END LIST*
D10*
%TO.C,J5*%
X57150000Y-144720000D02*
X57150000Y-147380000D01*
X57150000Y-144720000D02*
X52010000Y-144720000D01*
X52010000Y-144720000D02*
X52010000Y-147380000D01*
X57150000Y-147380000D02*
X52010000Y-147380000D01*
X59750000Y-147380000D02*
X58420000Y-147380000D01*
X59750000Y-146050000D02*
X59750000Y-147380000D01*
%TO.C,J4*%
X57090000Y-68580000D02*
X59750000Y-68580000D01*
X57090000Y-68580000D02*
X57090000Y-73720000D01*
X57090000Y-73720000D02*
X59750000Y-73720000D01*
X59750000Y-68580000D02*
X59750000Y-73720000D01*
X59750000Y-65980000D02*
X59750000Y-67310000D01*
X58420000Y-65980000D02*
X59750000Y-65980000D01*
%TO.C,U33*%
X170450000Y-83760000D02*
X169200000Y-83760000D01*
X169200000Y-83760000D02*
X169200000Y-101660000D01*
X169200000Y-101660000D02*
X173700000Y-101660000D01*
X173700000Y-101660000D02*
X173700000Y-83760000D01*
X173700000Y-83760000D02*
X172450000Y-83760000D01*
X172450000Y-83760000D02*
G75*
G02*
X170450000Y-83760000I-1000000J0D01*
G01*
%TO.C,U40*%
X104410000Y-126940000D02*
X103160000Y-126940000D01*
X103160000Y-126940000D02*
X103160000Y-147380000D01*
X103160000Y-147380000D02*
X107660000Y-147380000D01*
X107660000Y-147380000D02*
X107660000Y-126940000D01*
X107660000Y-126940000D02*
X106410000Y-126940000D01*
X106410000Y-126940000D02*
G75*
G02*
X104410000Y-126940000I-1000000J0D01*
G01*
%TO.C,IC21*%
X138140000Y-114240000D02*
X133080000Y-114240000D01*
X138140000Y-144840000D02*
X138140000Y-114240000D01*
X126020000Y-144840000D02*
X138140000Y-144840000D01*
X126020000Y-114240000D02*
X126020000Y-144840000D01*
X131080000Y-114240000D02*
X126020000Y-114240000D01*
X133080000Y-114240000D02*
G75*
G02*
X131080000Y-114240000I-1000000J0D01*
G01*
%TO.C,U24*%
X153380000Y-62170000D02*
X152130000Y-62170000D01*
X153380000Y-80070000D02*
X153380000Y-62170000D01*
X148880000Y-80070000D02*
X153380000Y-80070000D01*
X148880000Y-62170000D02*
X148880000Y-80070000D01*
X150130000Y-62170000D02*
X148880000Y-62170000D01*
X152130000Y-62170000D02*
G75*
G02*
X150130000Y-62170000I-1000000J0D01*
G01*
%TO.C,U20*%
X70830000Y-95190000D02*
X69580000Y-95190000D01*
X70830000Y-113090000D02*
X70830000Y-95190000D01*
X66330000Y-113090000D02*
X70830000Y-113090000D01*
X66330000Y-95190000D02*
X66330000Y-113090000D01*
X67580000Y-95190000D02*
X66330000Y-95190000D01*
X69580000Y-95190000D02*
G75*
G02*
X67580000Y-95190000I-1000000J0D01*
G01*
%TO.C,J3*%
X207070000Y-66040000D02*
X204410000Y-66040000D01*
X207070000Y-66040000D02*
X207070000Y-60900000D01*
X207070000Y-60900000D02*
X204410000Y-60900000D01*
X204410000Y-66040000D02*
X204410000Y-60900000D01*
X204410000Y-68640000D02*
X204410000Y-67310000D01*
X205740000Y-68640000D02*
X204410000Y-68640000D01*
%TO.C,C11*%
X188330000Y-102720000D02*
X185090000Y-102720000D01*
X188330000Y-100480000D02*
X185090000Y-100480000D01*
X188330000Y-102720000D02*
X188330000Y-102655000D01*
X188330000Y-100545000D02*
X188330000Y-100480000D01*
X185090000Y-102720000D02*
X185090000Y-102655000D01*
X185090000Y-100545000D02*
X185090000Y-100480000D01*
%TO.C,C10*%
X162410000Y-102500000D02*
X162410000Y-105740000D01*
X160170000Y-102500000D02*
X160170000Y-105740000D01*
X162410000Y-102500000D02*
X162345000Y-102500000D01*
X160235000Y-102500000D02*
X160170000Y-102500000D01*
X162410000Y-105740000D02*
X162345000Y-105740000D01*
X160235000Y-105740000D02*
X160170000Y-105740000D01*
%TO.C,C9*%
X116470000Y-103020000D02*
X119710000Y-103020000D01*
X116470000Y-105260000D02*
X119710000Y-105260000D01*
X116470000Y-103020000D02*
X116470000Y-103085000D01*
X116470000Y-105195000D02*
X116470000Y-105260000D01*
X119710000Y-103020000D02*
X119710000Y-103085000D01*
X119710000Y-105195000D02*
X119710000Y-105260000D01*
%TO.C,C8*%
X162410000Y-125360000D02*
X162410000Y-128600000D01*
X160170000Y-125360000D02*
X160170000Y-128600000D01*
X162410000Y-125360000D02*
X162345000Y-125360000D01*
X160235000Y-125360000D02*
X160170000Y-125360000D01*
X162410000Y-128600000D02*
X162345000Y-128600000D01*
X160235000Y-128600000D02*
X160170000Y-128600000D01*
%TO.C,C7*%
X136790000Y-80160000D02*
X140030000Y-80160000D01*
X136790000Y-82400000D02*
X140030000Y-82400000D01*
X136790000Y-80160000D02*
X136790000Y-80225000D01*
X136790000Y-82335000D02*
X136790000Y-82400000D01*
X140030000Y-80160000D02*
X140030000Y-80225000D01*
X140030000Y-82335000D02*
X140030000Y-82400000D01*
%TO.C,C6*%
X119750000Y-148440000D02*
X116510000Y-148440000D01*
X119750000Y-146200000D02*
X116510000Y-146200000D01*
X119750000Y-148440000D02*
X119750000Y-148375000D01*
X119750000Y-146265000D02*
X119750000Y-146200000D01*
X116510000Y-148440000D02*
X116510000Y-148375000D01*
X116510000Y-146265000D02*
X116510000Y-146200000D01*
%TO.C,C5*%
X59320000Y-62380000D02*
X62560000Y-62380000D01*
X59320000Y-64620000D02*
X62560000Y-64620000D01*
X59320000Y-62380000D02*
X59320000Y-62445000D01*
X59320000Y-64555000D02*
X59320000Y-64620000D01*
X62560000Y-62380000D02*
X62560000Y-62445000D01*
X62560000Y-64555000D02*
X62560000Y-64620000D01*
D11*
%TO.C,X1*%
X38100000Y-103910000D02*
X38100000Y-106910000D01*
X39600000Y-105410000D02*
X36600000Y-105410000D01*
D12*
X43100000Y-144660000D02*
X43100000Y-148660000D01*
X45100000Y-146660000D02*
X41100000Y-146660000D01*
X44600000Y-146660000D02*
G75*
G03*
X44600000Y-146660000I-1500000J0D01*
G01*
X43100000Y-62160000D02*
X43100000Y-66160000D01*
X45100000Y-64160000D02*
X41100000Y-64160000D01*
X44600000Y-64160000D02*
G75*
G03*
X44600000Y-64160000I-1500000J0D01*
G01*
D13*
X33600000Y-66410000D02*
X40600000Y-66410000D01*
X33600000Y-144410000D02*
X33600000Y-66410000D01*
X40600000Y-144410000D02*
X33600000Y-144410000D01*
X48600000Y-149410000D02*
X40600000Y-149410000D01*
X48600000Y-61410000D02*
X48600000Y-149410000D01*
X40600000Y-61410000D02*
X48600000Y-61410000D01*
X40600000Y-61410000D02*
X40600000Y-149410000D01*
D12*
X48988600Y-144780000D02*
G75*
G03*
X48988600Y-144780000I-500000J0D01*
G01*
X48988600Y-142240000D02*
G75*
G03*
X48988600Y-142240000I-500000J0D01*
G01*
X48988600Y-66040000D02*
G75*
G03*
X48988600Y-66040000I-500000J0D01*
G01*
X43908600Y-144780000D02*
G75*
G03*
X43908600Y-144780000I-500000J0D01*
G01*
X43908600Y-142240000D02*
G75*
G03*
X43908600Y-142240000I-500000J0D01*
G01*
X43908600Y-66040000D02*
G75*
G03*
X43908600Y-66040000I-500000J0D01*
G01*
X42368600Y-149860000D02*
G75*
G03*
X42368600Y-149860000I-1500000J0D01*
G01*
X42773600Y-149860000D02*
X38963600Y-149860000D01*
X40868600Y-147955000D02*
X40868600Y-151765000D01*
X42760900Y-60972700D02*
X38950900Y-60972700D01*
X40855900Y-59067700D02*
X40855900Y-62877700D01*
X42355900Y-60972700D02*
G75*
G03*
X42355900Y-60972700I-1500000J0D01*
G01*
D13*
X43180000Y-58420000D02*
X38100000Y-58420000D01*
X38100000Y-63500000D02*
X30480000Y-63500000D01*
X38100000Y-58420000D02*
X38100000Y-63500000D01*
X38100000Y-152400000D02*
X43180000Y-152400000D01*
X38100000Y-147320000D02*
X38100000Y-152400000D01*
X30480000Y-147320000D02*
X38100000Y-147320000D01*
X30480000Y-63500000D02*
X30480000Y-147320000D01*
X43180000Y-152400000D02*
X43180000Y-58420000D01*
D10*
%TO.C,C1*%
X59840000Y-94350000D02*
X59840000Y-91110000D01*
X62080000Y-94350000D02*
X62080000Y-91110000D01*
X59840000Y-94350000D02*
X59905000Y-94350000D01*
X62015000Y-94350000D02*
X62080000Y-94350000D01*
X59840000Y-91110000D02*
X59905000Y-91110000D01*
X62015000Y-91110000D02*
X62080000Y-91110000D01*
%TO.C,C2*%
X161505000Y-76530000D02*
X161440000Y-76530000D01*
X163680000Y-76530000D02*
X163615000Y-76530000D01*
X161505000Y-73290000D02*
X161440000Y-73290000D01*
X163680000Y-73290000D02*
X163615000Y-73290000D01*
X161440000Y-73290000D02*
X161440000Y-76530000D01*
X163680000Y-73290000D02*
X163680000Y-76530000D01*
%TO.C,C3*%
X188900000Y-63715000D02*
X188900000Y-63650000D01*
X188900000Y-65890000D02*
X188900000Y-65825000D01*
X192140000Y-63715000D02*
X192140000Y-63650000D01*
X192140000Y-65890000D02*
X192140000Y-65825000D01*
X192140000Y-63650000D02*
X188900000Y-63650000D01*
X192140000Y-65890000D02*
X188900000Y-65890000D01*
%TO.C,C4*%
X91810000Y-81130000D02*
X88570000Y-81130000D01*
X91810000Y-78890000D02*
X88570000Y-78890000D01*
X91810000Y-81130000D02*
X91810000Y-81065000D01*
X91810000Y-78955000D02*
X91810000Y-78890000D01*
X88570000Y-81130000D02*
X88570000Y-81065000D01*
X88570000Y-78955000D02*
X88570000Y-78890000D01*
%TO.C,D1*%
X183980000Y-87740000D02*
X183500000Y-87740000D01*
X183500000Y-87740000D02*
X183500000Y-79900000D01*
X183500000Y-79900000D02*
X183980000Y-79900000D01*
X186860000Y-87740000D02*
X187340000Y-87740000D01*
X187340000Y-87740000D02*
X187340000Y-79900000D01*
X187340000Y-79900000D02*
X186860000Y-79900000D01*
X183500000Y-86480000D02*
X187340000Y-86480000D01*
X183500000Y-86360000D02*
X187340000Y-86360000D01*
X183500000Y-86600000D02*
X187340000Y-86600000D01*
%TO.C,D2*%
X188580000Y-86600000D02*
X192420000Y-86600000D01*
X188580000Y-86360000D02*
X192420000Y-86360000D01*
X188580000Y-86480000D02*
X192420000Y-86480000D01*
X192420000Y-79900000D02*
X191940000Y-79900000D01*
X192420000Y-87740000D02*
X192420000Y-79900000D01*
X191940000Y-87740000D02*
X192420000Y-87740000D01*
X188580000Y-79900000D02*
X189060000Y-79900000D01*
X188580000Y-87740000D02*
X188580000Y-79900000D01*
X189060000Y-87740000D02*
X188580000Y-87740000D01*
D14*
%TO.C,J1*%
X217430000Y-102680000D02*
X217430000Y-102180000D01*
X217430000Y-102180000D02*
X208430000Y-102180000D01*
X217430000Y-110680000D02*
X217430000Y-111180000D01*
X217430000Y-111180000D02*
X208430000Y-111180000D01*
X217430000Y-110680000D02*
X217430000Y-102680000D01*
X195930000Y-113680000D02*
X208430000Y-113680000D01*
X208430000Y-113680000D02*
X208430000Y-99680000D01*
X208430000Y-99680000D02*
X195930000Y-99680000D01*
X195930000Y-99680000D02*
X195930000Y-113680000D01*
%TO.C,J2*%
X195930000Y-113650000D02*
X195930000Y-127650000D01*
X208430000Y-113650000D02*
X195930000Y-113650000D01*
X208430000Y-127650000D02*
X208430000Y-113650000D01*
X195930000Y-127650000D02*
X208430000Y-127650000D01*
X217430000Y-124650000D02*
X217430000Y-116650000D01*
X217430000Y-125150000D02*
X208430000Y-125150000D01*
X217430000Y-124650000D02*
X217430000Y-125150000D01*
X217430000Y-116150000D02*
X208430000Y-116150000D01*
X217430000Y-116650000D02*
X217430000Y-116150000D01*
D10*
%TO.C,R1*%
X76100000Y-132810000D02*
X78840000Y-132810000D01*
X78840000Y-132810000D02*
X78840000Y-126270000D01*
X78840000Y-126270000D02*
X76100000Y-126270000D01*
X76100000Y-126270000D02*
X76100000Y-132810000D01*
X77470000Y-133580000D02*
X77470000Y-132810000D01*
X77470000Y-125500000D02*
X77470000Y-126270000D01*
%TO.C,R2*%
X180240000Y-73120000D02*
X182980000Y-73120000D01*
X182980000Y-73120000D02*
X182980000Y-66580000D01*
X182980000Y-66580000D02*
X180240000Y-66580000D01*
X180240000Y-66580000D02*
X180240000Y-73120000D01*
X181610000Y-73890000D02*
X181610000Y-73120000D01*
X181610000Y-65810000D02*
X181610000Y-66580000D01*
%TO.C,R3*%
X185420000Y-73890000D02*
X185420000Y-73120000D01*
X185420000Y-65810000D02*
X185420000Y-66580000D01*
X186790000Y-73120000D02*
X186790000Y-66580000D01*
X184050000Y-73120000D02*
X186790000Y-73120000D01*
X184050000Y-66580000D02*
X184050000Y-73120000D01*
X186790000Y-66580000D02*
X184050000Y-66580000D01*
%TO.C,RL1*%
X208220000Y-98990000D02*
X208220000Y-69990000D01*
X208220000Y-69990000D02*
X195520000Y-69990000D01*
X195520000Y-69990000D02*
X195520000Y-98990000D01*
X195520000Y-98990000D02*
X208220000Y-98990000D01*
X201520000Y-72590000D02*
X202220000Y-72190000D01*
X202220000Y-72990000D02*
X202220000Y-71790000D01*
X202220000Y-71790000D02*
X201520000Y-71790000D01*
X201520000Y-71790000D02*
X201520000Y-72990000D01*
X201520000Y-72990000D02*
X202220000Y-72990000D01*
X195280000Y-72090000D02*
X195280000Y-69750000D01*
X195280000Y-69750000D02*
X197470000Y-69750000D01*
%TO.C,U1*%
X186400000Y-104080000D02*
X185150000Y-104080000D01*
X186400000Y-121980000D02*
X186400000Y-104080000D01*
X181900000Y-121980000D02*
X186400000Y-121980000D01*
X181900000Y-104080000D02*
X181900000Y-121980000D01*
X183150000Y-104080000D02*
X181900000Y-104080000D01*
X185150000Y-104080000D02*
G75*
G02*
X183150000Y-104080000I-1000000J0D01*
G01*
%TO.C,U2*%
X198390000Y-130750000D02*
X197140000Y-130750000D01*
X197140000Y-130750000D02*
X197140000Y-148650000D01*
X197140000Y-148650000D02*
X201640000Y-148650000D01*
X201640000Y-148650000D02*
X201640000Y-130750000D01*
X201640000Y-130750000D02*
X200390000Y-130750000D01*
X200390000Y-130750000D02*
G75*
G02*
X198390000Y-130750000I-1000000J0D01*
G01*
%TO.C,U10*%
X67580000Y-67250000D02*
X66330000Y-67250000D01*
X66330000Y-67250000D02*
X66330000Y-92770000D01*
X66330000Y-92770000D02*
X70830000Y-92770000D01*
X70830000Y-92770000D02*
X70830000Y-67250000D01*
X70830000Y-67250000D02*
X69580000Y-67250000D01*
X69580000Y-67250000D02*
G75*
G02*
X67580000Y-67250000I-1000000J0D01*
G01*
%TO.C,U11*%
X66310000Y-129480000D02*
X65060000Y-129480000D01*
X65060000Y-129480000D02*
X65060000Y-147380000D01*
X65060000Y-147380000D02*
X69560000Y-147380000D01*
X69560000Y-147380000D02*
X69560000Y-129480000D01*
X69560000Y-129480000D02*
X68310000Y-129480000D01*
X68310000Y-129480000D02*
G75*
G02*
X66310000Y-129480000I-1000000J0D01*
G01*
%TO.C,U12*%
X141030000Y-68850000D02*
X141030000Y-67600000D01*
X141030000Y-67600000D02*
X123130000Y-67600000D01*
X123130000Y-67600000D02*
X123130000Y-72100000D01*
X123130000Y-72100000D02*
X141030000Y-72100000D01*
X141030000Y-72100000D02*
X141030000Y-70850000D01*
X141030000Y-70850000D02*
G75*
G02*
X141030000Y-68850000I0J1000000D01*
G01*
%TO.C,U13*%
X120710000Y-72100000D02*
X120710000Y-70850000D01*
X102810000Y-72100000D02*
X120710000Y-72100000D01*
X102810000Y-67600000D02*
X102810000Y-72100000D01*
X120710000Y-67600000D02*
X102810000Y-67600000D01*
X120710000Y-68850000D02*
X120710000Y-67600000D01*
X120710000Y-70850000D02*
G75*
G02*
X120710000Y-68850000I0J1000000D01*
G01*
%TO.C,U14*%
X132140000Y-87900000D02*
X132140000Y-82840000D01*
X132140000Y-82840000D02*
X101540000Y-82840000D01*
X101540000Y-82840000D02*
X101540000Y-94960000D01*
X101540000Y-94960000D02*
X132140000Y-94960000D01*
X132140000Y-94960000D02*
X132140000Y-89900000D01*
X132140000Y-89900000D02*
G75*
G02*
X132140000Y-87900000I0J1000000D01*
G01*
%TO.C,U15*%
X150130000Y-83760000D02*
X148880000Y-83760000D01*
X148880000Y-83760000D02*
X148880000Y-101660000D01*
X148880000Y-101660000D02*
X153380000Y-101660000D01*
X153380000Y-101660000D02*
X153380000Y-83760000D01*
X153380000Y-83760000D02*
X152130000Y-83760000D01*
X152130000Y-83760000D02*
G75*
G02*
X150130000Y-83760000I-1000000J0D01*
G01*
%TO.C,U16*%
X89880000Y-128210000D02*
X88630000Y-128210000D01*
X89880000Y-148650000D02*
X89880000Y-128210000D01*
X85380000Y-148650000D02*
X89880000Y-148650000D01*
X85380000Y-128210000D02*
X85380000Y-148650000D01*
X86630000Y-128210000D02*
X85380000Y-128210000D01*
X88630000Y-128210000D02*
G75*
G02*
X86630000Y-128210000I-1000000J0D01*
G01*
%TO.C,U22*%
X173700000Y-104080000D02*
X172450000Y-104080000D01*
X173700000Y-124520000D02*
X173700000Y-104080000D01*
X169200000Y-124520000D02*
X173700000Y-124520000D01*
X169200000Y-104080000D02*
X169200000Y-124520000D01*
X170450000Y-104080000D02*
X169200000Y-104080000D01*
X172450000Y-104080000D02*
G75*
G02*
X170450000Y-104080000I-1000000J0D01*
G01*
%TO.C,U23*%
X150130000Y-105350000D02*
X148880000Y-105350000D01*
X148880000Y-105350000D02*
X148880000Y-123250000D01*
X148880000Y-123250000D02*
X153380000Y-123250000D01*
X153380000Y-123250000D02*
X153380000Y-105350000D01*
X153380000Y-105350000D02*
X152130000Y-105350000D01*
X152130000Y-105350000D02*
G75*
G02*
X150130000Y-105350000I-1000000J0D01*
G01*
%TO.C,U30*%
X107660000Y-104080000D02*
X106410000Y-104080000D01*
X107660000Y-124520000D02*
X107660000Y-104080000D01*
X103160000Y-124520000D02*
X107660000Y-124520000D01*
X103160000Y-104080000D02*
X103160000Y-124520000D01*
X104410000Y-104080000D02*
X103160000Y-104080000D01*
X106410000Y-104080000D02*
G75*
G02*
X104410000Y-104080000I-1000000J0D01*
G01*
%TO.C,U32*%
X170450000Y-126940000D02*
X169200000Y-126940000D01*
X169200000Y-126940000D02*
X169200000Y-147380000D01*
X169200000Y-147380000D02*
X173700000Y-147380000D01*
X173700000Y-147380000D02*
X173700000Y-126940000D01*
X173700000Y-126940000D02*
X172450000Y-126940000D01*
X172450000Y-126940000D02*
G75*
G02*
X170450000Y-126940000I-1000000J0D01*
G01*
%TO.C,U41*%
X170450000Y-60900000D02*
X169200000Y-60900000D01*
X169200000Y-60900000D02*
X169200000Y-81340000D01*
X169200000Y-81340000D02*
X173700000Y-81340000D01*
X173700000Y-81340000D02*
X173700000Y-60900000D01*
X173700000Y-60900000D02*
X172450000Y-60900000D01*
X172450000Y-60900000D02*
G75*
G02*
X170450000Y-60900000I-1000000J0D01*
G01*
%TO.C,U42*%
X89880000Y-105350000D02*
X88630000Y-105350000D01*
X89880000Y-123250000D02*
X89880000Y-105350000D01*
X85380000Y-123250000D02*
X89880000Y-123250000D01*
X85380000Y-105350000D02*
X85380000Y-123250000D01*
X86630000Y-105350000D02*
X85380000Y-105350000D01*
X88630000Y-105350000D02*
G75*
G02*
X86630000Y-105350000I-1000000J0D01*
G01*
%TO.C,U43*%
X86630000Y-82490000D02*
X85380000Y-82490000D01*
X85380000Y-82490000D02*
X85380000Y-100390000D01*
X85380000Y-100390000D02*
X89880000Y-100390000D01*
X89880000Y-100390000D02*
X89880000Y-82490000D01*
X89880000Y-82490000D02*
X88630000Y-82490000D01*
X88630000Y-82490000D02*
G75*
G02*
X86630000Y-82490000I-1000000J0D01*
G01*
%TO.C,U51*%
X150130000Y-126940000D02*
X148880000Y-126940000D01*
X148880000Y-126940000D02*
X148880000Y-147380000D01*
X148880000Y-147380000D02*
X153380000Y-147380000D01*
X153380000Y-147380000D02*
X153380000Y-126940000D01*
X153380000Y-126940000D02*
X152130000Y-126940000D01*
X152130000Y-126940000D02*
G75*
G02*
X150130000Y-126940000I-1000000J0D01*
G01*
%TO.C,U52*%
X97850000Y-72100000D02*
X97850000Y-70850000D01*
X79950000Y-72100000D02*
X97850000Y-72100000D01*
X79950000Y-67600000D02*
X79950000Y-72100000D01*
X97850000Y-67600000D02*
X79950000Y-67600000D01*
X97850000Y-68850000D02*
X97850000Y-67600000D01*
X97850000Y-70850000D02*
G75*
G02*
X97850000Y-68850000I0J1000000D01*
G01*
%TO.C,U53*%
X186400000Y-130750000D02*
X185150000Y-130750000D01*
X186400000Y-148650000D02*
X186400000Y-130750000D01*
X181900000Y-148650000D02*
X186400000Y-148650000D01*
X181900000Y-130750000D02*
X181900000Y-148650000D01*
X183150000Y-130750000D02*
X181900000Y-130750000D01*
X185150000Y-130750000D02*
G75*
G02*
X183150000Y-130750000I-1000000J0D01*
G01*
%TO.C,Y1*%
X79995000Y-140210000D02*
X79995000Y-146610000D01*
X74945000Y-140210000D02*
X74945000Y-146610000D01*
X74945000Y-140210000D02*
G75*
G02*
X79995000Y-140210000I2525000J0D01*
G01*
X74945000Y-146610000D02*
G75*
G03*
X79995000Y-146610000I2525000J0D01*
G01*
%TO.C,J5*%
D14*
X60642380Y-146383333D02*
X61356666Y-146383333D01*
X61499523Y-146430952D01*
X61594761Y-146526190D01*
X61642380Y-146669047D01*
X61642380Y-146764285D01*
X60642380Y-145430952D02*
X60642380Y-145907142D01*
X61118571Y-145954761D01*
X61070952Y-145907142D01*
X61023333Y-145811904D01*
X61023333Y-145573809D01*
X61070952Y-145478571D01*
X61118571Y-145430952D01*
X61213809Y-145383333D01*
X61451904Y-145383333D01*
X61547142Y-145430952D01*
X61594761Y-145478571D01*
X61642380Y-145573809D01*
X61642380Y-145811904D01*
X61594761Y-145907142D01*
X61547142Y-145954761D01*
%TO.C,J4*%
X58086666Y-63992380D02*
X58086666Y-64706666D01*
X58039047Y-64849523D01*
X57943809Y-64944761D01*
X57800952Y-64992380D01*
X57705714Y-64992380D01*
X58991428Y-64325714D02*
X58991428Y-64992380D01*
X58753333Y-63944761D02*
X58515238Y-64659047D01*
X59134285Y-64659047D01*
%TO.C,U33*%
X170211904Y-82212380D02*
X170211904Y-83021904D01*
X170259523Y-83117142D01*
X170307142Y-83164761D01*
X170402380Y-83212380D01*
X170592857Y-83212380D01*
X170688095Y-83164761D01*
X170735714Y-83117142D01*
X170783333Y-83021904D01*
X170783333Y-82212380D01*
X171164285Y-82212380D02*
X171783333Y-82212380D01*
X171450000Y-82593333D01*
X171592857Y-82593333D01*
X171688095Y-82640952D01*
X171735714Y-82688571D01*
X171783333Y-82783809D01*
X171783333Y-83021904D01*
X171735714Y-83117142D01*
X171688095Y-83164761D01*
X171592857Y-83212380D01*
X171307142Y-83212380D01*
X171211904Y-83164761D01*
X171164285Y-83117142D01*
X172116666Y-82212380D02*
X172735714Y-82212380D01*
X172402380Y-82593333D01*
X172545238Y-82593333D01*
X172640476Y-82640952D01*
X172688095Y-82688571D01*
X172735714Y-82783809D01*
X172735714Y-83021904D01*
X172688095Y-83117142D01*
X172640476Y-83164761D01*
X172545238Y-83212380D01*
X172259523Y-83212380D01*
X172164285Y-83164761D01*
X172116666Y-83117142D01*
%TO.C,U40*%
X104171904Y-125392380D02*
X104171904Y-126201904D01*
X104219523Y-126297142D01*
X104267142Y-126344761D01*
X104362380Y-126392380D01*
X104552857Y-126392380D01*
X104648095Y-126344761D01*
X104695714Y-126297142D01*
X104743333Y-126201904D01*
X104743333Y-125392380D01*
X105648095Y-125725714D02*
X105648095Y-126392380D01*
X105410000Y-125344761D02*
X105171904Y-126059047D01*
X105790952Y-126059047D01*
X106362380Y-125392380D02*
X106457619Y-125392380D01*
X106552857Y-125440000D01*
X106600476Y-125487619D01*
X106648095Y-125582857D01*
X106695714Y-125773333D01*
X106695714Y-126011428D01*
X106648095Y-126201904D01*
X106600476Y-126297142D01*
X106552857Y-126344761D01*
X106457619Y-126392380D01*
X106362380Y-126392380D01*
X106267142Y-126344761D01*
X106219523Y-126297142D01*
X106171904Y-126201904D01*
X106124285Y-126011428D01*
X106124285Y-125773333D01*
X106171904Y-125582857D01*
X106219523Y-125487619D01*
X106267142Y-125440000D01*
X106362380Y-125392380D01*
%TO.C,IC21*%
X130627619Y-113692380D02*
X130627619Y-112692380D01*
X131675238Y-113597142D02*
X131627619Y-113644761D01*
X131484761Y-113692380D01*
X131389523Y-113692380D01*
X131246666Y-113644761D01*
X131151428Y-113549523D01*
X131103809Y-113454285D01*
X131056190Y-113263809D01*
X131056190Y-113120952D01*
X131103809Y-112930476D01*
X131151428Y-112835238D01*
X131246666Y-112740000D01*
X131389523Y-112692380D01*
X131484761Y-112692380D01*
X131627619Y-112740000D01*
X131675238Y-112787619D01*
X132056190Y-112787619D02*
X132103809Y-112740000D01*
X132199047Y-112692380D01*
X132437142Y-112692380D01*
X132532380Y-112740000D01*
X132580000Y-112787619D01*
X132627619Y-112882857D01*
X132627619Y-112978095D01*
X132580000Y-113120952D01*
X132008571Y-113692380D01*
X132627619Y-113692380D01*
X133580000Y-113692380D02*
X133008571Y-113692380D01*
X133294285Y-113692380D02*
X133294285Y-112692380D01*
X133199047Y-112835238D01*
X133103809Y-112930476D01*
X133008571Y-112978095D01*
%TO.C,U24*%
X149891904Y-60622380D02*
X149891904Y-61431904D01*
X149939523Y-61527142D01*
X149987142Y-61574761D01*
X150082380Y-61622380D01*
X150272857Y-61622380D01*
X150368095Y-61574761D01*
X150415714Y-61527142D01*
X150463333Y-61431904D01*
X150463333Y-60622380D01*
X150891904Y-60717619D02*
X150939523Y-60670000D01*
X151034761Y-60622380D01*
X151272857Y-60622380D01*
X151368095Y-60670000D01*
X151415714Y-60717619D01*
X151463333Y-60812857D01*
X151463333Y-60908095D01*
X151415714Y-61050952D01*
X150844285Y-61622380D01*
X151463333Y-61622380D01*
X152320476Y-60955714D02*
X152320476Y-61622380D01*
X152082380Y-60574761D02*
X151844285Y-61289047D01*
X152463333Y-61289047D01*
%TO.C,U20*%
X67341904Y-93642380D02*
X67341904Y-94451904D01*
X67389523Y-94547142D01*
X67437142Y-94594761D01*
X67532380Y-94642380D01*
X67722857Y-94642380D01*
X67818095Y-94594761D01*
X67865714Y-94547142D01*
X67913333Y-94451904D01*
X67913333Y-93642380D01*
X68341904Y-93737619D02*
X68389523Y-93690000D01*
X68484761Y-93642380D01*
X68722857Y-93642380D01*
X68818095Y-93690000D01*
X68865714Y-93737619D01*
X68913333Y-93832857D01*
X68913333Y-93928095D01*
X68865714Y-94070952D01*
X68294285Y-94642380D01*
X68913333Y-94642380D01*
X69532380Y-93642380D02*
X69627619Y-93642380D01*
X69722857Y-93690000D01*
X69770476Y-93737619D01*
X69818095Y-93832857D01*
X69865714Y-94023333D01*
X69865714Y-94261428D01*
X69818095Y-94451904D01*
X69770476Y-94547142D01*
X69722857Y-94594761D01*
X69627619Y-94642380D01*
X69532380Y-94642380D01*
X69437142Y-94594761D01*
X69389523Y-94547142D01*
X69341904Y-94451904D01*
X69294285Y-94261428D01*
X69294285Y-94023333D01*
X69341904Y-93832857D01*
X69389523Y-93737619D01*
X69437142Y-93690000D01*
X69532380Y-93642380D01*
%TO.C,J3*%
X205406666Y-69532380D02*
X205406666Y-70246666D01*
X205359047Y-70389523D01*
X205263809Y-70484761D01*
X205120952Y-70532380D01*
X205025714Y-70532380D01*
X205787619Y-69532380D02*
X206406666Y-69532380D01*
X206073333Y-69913333D01*
X206216190Y-69913333D01*
X206311428Y-69960952D01*
X206359047Y-70008571D01*
X206406666Y-70103809D01*
X206406666Y-70341904D01*
X206359047Y-70437142D01*
X206311428Y-70484761D01*
X206216190Y-70532380D01*
X205930476Y-70532380D01*
X205835238Y-70484761D01*
X205787619Y-70437142D01*
%TO.C,C11*%
X186067142Y-104207142D02*
X186019523Y-104254761D01*
X185876666Y-104302380D01*
X185781428Y-104302380D01*
X185638571Y-104254761D01*
X185543333Y-104159523D01*
X185495714Y-104064285D01*
X185448095Y-103873809D01*
X185448095Y-103730952D01*
X185495714Y-103540476D01*
X185543333Y-103445238D01*
X185638571Y-103350000D01*
X185781428Y-103302380D01*
X185876666Y-103302380D01*
X186019523Y-103350000D01*
X186067142Y-103397619D01*
X187019523Y-104302380D02*
X186448095Y-104302380D01*
X186733809Y-104302380D02*
X186733809Y-103302380D01*
X186638571Y-103445238D01*
X186543333Y-103540476D01*
X186448095Y-103588095D01*
X187971904Y-104302380D02*
X187400476Y-104302380D01*
X187686190Y-104302380D02*
X187686190Y-103302380D01*
X187590952Y-103445238D01*
X187495714Y-103540476D01*
X187400476Y-103588095D01*
%TO.C,C10*%
X163897142Y-104762857D02*
X163944761Y-104810476D01*
X163992380Y-104953333D01*
X163992380Y-105048571D01*
X163944761Y-105191428D01*
X163849523Y-105286666D01*
X163754285Y-105334285D01*
X163563809Y-105381904D01*
X163420952Y-105381904D01*
X163230476Y-105334285D01*
X163135238Y-105286666D01*
X163040000Y-105191428D01*
X162992380Y-105048571D01*
X162992380Y-104953333D01*
X163040000Y-104810476D01*
X163087619Y-104762857D01*
X163992380Y-103810476D02*
X163992380Y-104381904D01*
X163992380Y-104096190D02*
X162992380Y-104096190D01*
X163135238Y-104191428D01*
X163230476Y-104286666D01*
X163278095Y-104381904D01*
X162992380Y-103191428D02*
X162992380Y-103096190D01*
X163040000Y-103000952D01*
X163087619Y-102953333D01*
X163182857Y-102905714D01*
X163373333Y-102858095D01*
X163611428Y-102858095D01*
X163801904Y-102905714D01*
X163897142Y-102953333D01*
X163944761Y-103000952D01*
X163992380Y-103096190D01*
X163992380Y-103191428D01*
X163944761Y-103286666D01*
X163897142Y-103334285D01*
X163801904Y-103381904D01*
X163611428Y-103429523D01*
X163373333Y-103429523D01*
X163182857Y-103381904D01*
X163087619Y-103334285D01*
X163040000Y-103286666D01*
X162992380Y-103191428D01*
%TO.C,C9*%
X117923333Y-102247142D02*
X117875714Y-102294761D01*
X117732857Y-102342380D01*
X117637619Y-102342380D01*
X117494761Y-102294761D01*
X117399523Y-102199523D01*
X117351904Y-102104285D01*
X117304285Y-101913809D01*
X117304285Y-101770952D01*
X117351904Y-101580476D01*
X117399523Y-101485238D01*
X117494761Y-101390000D01*
X117637619Y-101342380D01*
X117732857Y-101342380D01*
X117875714Y-101390000D01*
X117923333Y-101437619D01*
X118399523Y-102342380D02*
X118590000Y-102342380D01*
X118685238Y-102294761D01*
X118732857Y-102247142D01*
X118828095Y-102104285D01*
X118875714Y-101913809D01*
X118875714Y-101532857D01*
X118828095Y-101437619D01*
X118780476Y-101390000D01*
X118685238Y-101342380D01*
X118494761Y-101342380D01*
X118399523Y-101390000D01*
X118351904Y-101437619D01*
X118304285Y-101532857D01*
X118304285Y-101770952D01*
X118351904Y-101866190D01*
X118399523Y-101913809D01*
X118494761Y-101961428D01*
X118685238Y-101961428D01*
X118780476Y-101913809D01*
X118828095Y-101866190D01*
X118875714Y-101770952D01*
%TO.C,C8*%
X163897142Y-127146666D02*
X163944761Y-127194285D01*
X163992380Y-127337142D01*
X163992380Y-127432380D01*
X163944761Y-127575238D01*
X163849523Y-127670476D01*
X163754285Y-127718095D01*
X163563809Y-127765714D01*
X163420952Y-127765714D01*
X163230476Y-127718095D01*
X163135238Y-127670476D01*
X163040000Y-127575238D01*
X162992380Y-127432380D01*
X162992380Y-127337142D01*
X163040000Y-127194285D01*
X163087619Y-127146666D01*
X163420952Y-126575238D02*
X163373333Y-126670476D01*
X163325714Y-126718095D01*
X163230476Y-126765714D01*
X163182857Y-126765714D01*
X163087619Y-126718095D01*
X163040000Y-126670476D01*
X162992380Y-126575238D01*
X162992380Y-126384761D01*
X163040000Y-126289523D01*
X163087619Y-126241904D01*
X163182857Y-126194285D01*
X163230476Y-126194285D01*
X163325714Y-126241904D01*
X163373333Y-126289523D01*
X163420952Y-126384761D01*
X163420952Y-126575238D01*
X163468571Y-126670476D01*
X163516190Y-126718095D01*
X163611428Y-126765714D01*
X163801904Y-126765714D01*
X163897142Y-126718095D01*
X163944761Y-126670476D01*
X163992380Y-126575238D01*
X163992380Y-126384761D01*
X163944761Y-126289523D01*
X163897142Y-126241904D01*
X163801904Y-126194285D01*
X163611428Y-126194285D01*
X163516190Y-126241904D01*
X163468571Y-126289523D01*
X163420952Y-126384761D01*
%TO.C,C7*%
X138243333Y-79387142D02*
X138195714Y-79434761D01*
X138052857Y-79482380D01*
X137957619Y-79482380D01*
X137814761Y-79434761D01*
X137719523Y-79339523D01*
X137671904Y-79244285D01*
X137624285Y-79053809D01*
X137624285Y-78910952D01*
X137671904Y-78720476D01*
X137719523Y-78625238D01*
X137814761Y-78530000D01*
X137957619Y-78482380D01*
X138052857Y-78482380D01*
X138195714Y-78530000D01*
X138243333Y-78577619D01*
X138576666Y-78482380D02*
X139243333Y-78482380D01*
X138814761Y-79482380D01*
%TO.C,C6*%
X117963333Y-149927142D02*
X117915714Y-149974761D01*
X117772857Y-150022380D01*
X117677619Y-150022380D01*
X117534761Y-149974761D01*
X117439523Y-149879523D01*
X117391904Y-149784285D01*
X117344285Y-149593809D01*
X117344285Y-149450952D01*
X117391904Y-149260476D01*
X117439523Y-149165238D01*
X117534761Y-149070000D01*
X117677619Y-149022380D01*
X117772857Y-149022380D01*
X117915714Y-149070000D01*
X117963333Y-149117619D01*
X118820476Y-149022380D02*
X118630000Y-149022380D01*
X118534761Y-149070000D01*
X118487142Y-149117619D01*
X118391904Y-149260476D01*
X118344285Y-149450952D01*
X118344285Y-149831904D01*
X118391904Y-149927142D01*
X118439523Y-149974761D01*
X118534761Y-150022380D01*
X118725238Y-150022380D01*
X118820476Y-149974761D01*
X118868095Y-149927142D01*
X118915714Y-149831904D01*
X118915714Y-149593809D01*
X118868095Y-149498571D01*
X118820476Y-149450952D01*
X118725238Y-149403333D01*
X118534761Y-149403333D01*
X118439523Y-149450952D01*
X118391904Y-149498571D01*
X118344285Y-149593809D01*
%TO.C,C5*%
X60773333Y-61607142D02*
X60725714Y-61654761D01*
X60582857Y-61702380D01*
X60487619Y-61702380D01*
X60344761Y-61654761D01*
X60249523Y-61559523D01*
X60201904Y-61464285D01*
X60154285Y-61273809D01*
X60154285Y-61130952D01*
X60201904Y-60940476D01*
X60249523Y-60845238D01*
X60344761Y-60750000D01*
X60487619Y-60702380D01*
X60582857Y-60702380D01*
X60725714Y-60750000D01*
X60773333Y-60797619D01*
X61678095Y-60702380D02*
X61201904Y-60702380D01*
X61154285Y-61178571D01*
X61201904Y-61130952D01*
X61297142Y-61083333D01*
X61535238Y-61083333D01*
X61630476Y-61130952D01*
X61678095Y-61178571D01*
X61725714Y-61273809D01*
X61725714Y-61511904D01*
X61678095Y-61607142D01*
X61630476Y-61654761D01*
X61535238Y-61702380D01*
X61297142Y-61702380D01*
X61201904Y-61654761D01*
X61154285Y-61607142D01*
%TO.C,X1*%
X38552380Y-108669404D02*
X39552380Y-108002738D01*
X38552380Y-108002738D02*
X39552380Y-108669404D01*
X39552380Y-107097976D02*
X39552380Y-107669404D01*
X39552380Y-107383690D02*
X38552380Y-107383690D01*
X38695238Y-107478928D01*
X38790476Y-107574166D01*
X38838095Y-107669404D01*
%TO.C,C1*%
X59067142Y-92896666D02*
X59114761Y-92944285D01*
X59162380Y-93087142D01*
X59162380Y-93182380D01*
X59114761Y-93325238D01*
X59019523Y-93420476D01*
X58924285Y-93468095D01*
X58733809Y-93515714D01*
X58590952Y-93515714D01*
X58400476Y-93468095D01*
X58305238Y-93420476D01*
X58210000Y-93325238D01*
X58162380Y-93182380D01*
X58162380Y-93087142D01*
X58210000Y-92944285D01*
X58257619Y-92896666D01*
X59162380Y-91944285D02*
X59162380Y-92515714D01*
X59162380Y-92230000D02*
X58162380Y-92230000D01*
X58305238Y-92325238D01*
X58400476Y-92420476D01*
X58448095Y-92515714D01*
%TO.C,C2*%
X165167142Y-75076666D02*
X165214761Y-75124285D01*
X165262380Y-75267142D01*
X165262380Y-75362380D01*
X165214761Y-75505238D01*
X165119523Y-75600476D01*
X165024285Y-75648095D01*
X164833809Y-75695714D01*
X164690952Y-75695714D01*
X164500476Y-75648095D01*
X164405238Y-75600476D01*
X164310000Y-75505238D01*
X164262380Y-75362380D01*
X164262380Y-75267142D01*
X164310000Y-75124285D01*
X164357619Y-75076666D01*
X164357619Y-74695714D02*
X164310000Y-74648095D01*
X164262380Y-74552857D01*
X164262380Y-74314761D01*
X164310000Y-74219523D01*
X164357619Y-74171904D01*
X164452857Y-74124285D01*
X164548095Y-74124285D01*
X164690952Y-74171904D01*
X165262380Y-74743333D01*
X165262380Y-74124285D01*
%TO.C,C3*%
X190353333Y-67377142D02*
X190305714Y-67424761D01*
X190162857Y-67472380D01*
X190067619Y-67472380D01*
X189924761Y-67424761D01*
X189829523Y-67329523D01*
X189781904Y-67234285D01*
X189734285Y-67043809D01*
X189734285Y-66900952D01*
X189781904Y-66710476D01*
X189829523Y-66615238D01*
X189924761Y-66520000D01*
X190067619Y-66472380D01*
X190162857Y-66472380D01*
X190305714Y-66520000D01*
X190353333Y-66567619D01*
X190686666Y-66472380D02*
X191305714Y-66472380D01*
X190972380Y-66853333D01*
X191115238Y-66853333D01*
X191210476Y-66900952D01*
X191258095Y-66948571D01*
X191305714Y-67043809D01*
X191305714Y-67281904D01*
X191258095Y-67377142D01*
X191210476Y-67424761D01*
X191115238Y-67472380D01*
X190829523Y-67472380D01*
X190734285Y-67424761D01*
X190686666Y-67377142D01*
%TO.C,C4*%
X90023333Y-82617142D02*
X89975714Y-82664761D01*
X89832857Y-82712380D01*
X89737619Y-82712380D01*
X89594761Y-82664761D01*
X89499523Y-82569523D01*
X89451904Y-82474285D01*
X89404285Y-82283809D01*
X89404285Y-82140952D01*
X89451904Y-81950476D01*
X89499523Y-81855238D01*
X89594761Y-81760000D01*
X89737619Y-81712380D01*
X89832857Y-81712380D01*
X89975714Y-81760000D01*
X90023333Y-81807619D01*
X90880476Y-82045714D02*
X90880476Y-82712380D01*
X90642380Y-81664761D02*
X90404285Y-82379047D01*
X91023333Y-82379047D01*
%TO.C,D1*%
X182952380Y-84558095D02*
X181952380Y-84558095D01*
X181952380Y-84320000D01*
X182000000Y-84177142D01*
X182095238Y-84081904D01*
X182190476Y-84034285D01*
X182380952Y-83986666D01*
X182523809Y-83986666D01*
X182714285Y-84034285D01*
X182809523Y-84081904D01*
X182904761Y-84177142D01*
X182952380Y-84320000D01*
X182952380Y-84558095D01*
X182952380Y-83034285D02*
X182952380Y-83605714D01*
X182952380Y-83320000D02*
X181952380Y-83320000D01*
X182095238Y-83415238D01*
X182190476Y-83510476D01*
X182238095Y-83605714D01*
X183672380Y-89161904D02*
X182672380Y-89161904D01*
X183672380Y-88590476D02*
X183100952Y-89019047D01*
X182672380Y-88590476D02*
X183243809Y-89161904D01*
%TO.C,D2*%
X188032380Y-84558095D02*
X187032380Y-84558095D01*
X187032380Y-84320000D01*
X187080000Y-84177142D01*
X187175238Y-84081904D01*
X187270476Y-84034285D01*
X187460952Y-83986666D01*
X187603809Y-83986666D01*
X187794285Y-84034285D01*
X187889523Y-84081904D01*
X187984761Y-84177142D01*
X188032380Y-84320000D01*
X188032380Y-84558095D01*
X187127619Y-83605714D02*
X187080000Y-83558095D01*
X187032380Y-83462857D01*
X187032380Y-83224761D01*
X187080000Y-83129523D01*
X187127619Y-83081904D01*
X187222857Y-83034285D01*
X187318095Y-83034285D01*
X187460952Y-83081904D01*
X188032380Y-83653333D01*
X188032380Y-83034285D01*
X188752380Y-89161904D02*
X187752380Y-89161904D01*
X188752380Y-88590476D02*
X188180952Y-89019047D01*
X187752380Y-88590476D02*
X188323809Y-89161904D01*
%TO.C,J1*%
X205596666Y-100132380D02*
X205596666Y-100846666D01*
X205549047Y-100989523D01*
X205453809Y-101084761D01*
X205310952Y-101132380D01*
X205215714Y-101132380D01*
X206596666Y-101132380D02*
X206025238Y-101132380D01*
X206310952Y-101132380D02*
X206310952Y-100132380D01*
X206215714Y-100275238D01*
X206120476Y-100370476D01*
X206025238Y-100418095D01*
%TO.C,J2*%
X205596666Y-114102380D02*
X205596666Y-114816666D01*
X205549047Y-114959523D01*
X205453809Y-115054761D01*
X205310952Y-115102380D01*
X205215714Y-115102380D01*
X206025238Y-114197619D02*
X206072857Y-114150000D01*
X206168095Y-114102380D01*
X206406190Y-114102380D01*
X206501428Y-114150000D01*
X206549047Y-114197619D01*
X206596666Y-114292857D01*
X206596666Y-114388095D01*
X206549047Y-114530952D01*
X205977619Y-115102380D01*
X206596666Y-115102380D01*
%TO.C,R1*%
X75552380Y-129706666D02*
X75076190Y-130040000D01*
X75552380Y-130278095D02*
X74552380Y-130278095D01*
X74552380Y-129897142D01*
X74600000Y-129801904D01*
X74647619Y-129754285D01*
X74742857Y-129706666D01*
X74885714Y-129706666D01*
X74980952Y-129754285D01*
X75028571Y-129801904D01*
X75076190Y-129897142D01*
X75076190Y-130278095D01*
X75552380Y-128754285D02*
X75552380Y-129325714D01*
X75552380Y-129040000D02*
X74552380Y-129040000D01*
X74695238Y-129135238D01*
X74790476Y-129230476D01*
X74838095Y-129325714D01*
%TO.C,R2*%
X179692380Y-70016666D02*
X179216190Y-70350000D01*
X179692380Y-70588095D02*
X178692380Y-70588095D01*
X178692380Y-70207142D01*
X178740000Y-70111904D01*
X178787619Y-70064285D01*
X178882857Y-70016666D01*
X179025714Y-70016666D01*
X179120952Y-70064285D01*
X179168571Y-70111904D01*
X179216190Y-70207142D01*
X179216190Y-70588095D01*
X178787619Y-69635714D02*
X178740000Y-69588095D01*
X178692380Y-69492857D01*
X178692380Y-69254761D01*
X178740000Y-69159523D01*
X178787619Y-69111904D01*
X178882857Y-69064285D01*
X178978095Y-69064285D01*
X179120952Y-69111904D01*
X179692380Y-69683333D01*
X179692380Y-69064285D01*
%TO.C,R3*%
X188242380Y-70016666D02*
X187766190Y-70350000D01*
X188242380Y-70588095D02*
X187242380Y-70588095D01*
X187242380Y-70207142D01*
X187290000Y-70111904D01*
X187337619Y-70064285D01*
X187432857Y-70016666D01*
X187575714Y-70016666D01*
X187670952Y-70064285D01*
X187718571Y-70111904D01*
X187766190Y-70207142D01*
X187766190Y-70588095D01*
X187242380Y-69683333D02*
X187242380Y-69064285D01*
X187623333Y-69397619D01*
X187623333Y-69254761D01*
X187670952Y-69159523D01*
X187718571Y-69111904D01*
X187813809Y-69064285D01*
X188051904Y-69064285D01*
X188147142Y-69111904D01*
X188194761Y-69159523D01*
X188242380Y-69254761D01*
X188242380Y-69540476D01*
X188194761Y-69635714D01*
X188147142Y-69683333D01*
%TO.C,RL1*%
X210072380Y-85061428D02*
X209596190Y-85394761D01*
X210072380Y-85632857D02*
X209072380Y-85632857D01*
X209072380Y-85251904D01*
X209120000Y-85156666D01*
X209167619Y-85109047D01*
X209262857Y-85061428D01*
X209405714Y-85061428D01*
X209500952Y-85109047D01*
X209548571Y-85156666D01*
X209596190Y-85251904D01*
X209596190Y-85632857D01*
X210072380Y-84156666D02*
X210072380Y-84632857D01*
X209072380Y-84632857D01*
X210072380Y-83299523D02*
X210072380Y-83870952D01*
X210072380Y-83585238D02*
X209072380Y-83585238D01*
X209215238Y-83680476D01*
X209310476Y-83775714D01*
X209358095Y-83870952D01*
%TO.C,U1*%
X183388095Y-102532380D02*
X183388095Y-103341904D01*
X183435714Y-103437142D01*
X183483333Y-103484761D01*
X183578571Y-103532380D01*
X183769047Y-103532380D01*
X183864285Y-103484761D01*
X183911904Y-103437142D01*
X183959523Y-103341904D01*
X183959523Y-102532380D01*
X184959523Y-103532380D02*
X184388095Y-103532380D01*
X184673809Y-103532380D02*
X184673809Y-102532380D01*
X184578571Y-102675238D01*
X184483333Y-102770476D01*
X184388095Y-102818095D01*
%TO.C,U2*%
X198628095Y-129202380D02*
X198628095Y-130011904D01*
X198675714Y-130107142D01*
X198723333Y-130154761D01*
X198818571Y-130202380D01*
X199009047Y-130202380D01*
X199104285Y-130154761D01*
X199151904Y-130107142D01*
X199199523Y-130011904D01*
X199199523Y-129202380D01*
X199628095Y-129297619D02*
X199675714Y-129250000D01*
X199770952Y-129202380D01*
X200009047Y-129202380D01*
X200104285Y-129250000D01*
X200151904Y-129297619D01*
X200199523Y-129392857D01*
X200199523Y-129488095D01*
X200151904Y-129630952D01*
X199580476Y-130202380D01*
X200199523Y-130202380D01*
%TO.C,U10*%
X67341904Y-65702380D02*
X67341904Y-66511904D01*
X67389523Y-66607142D01*
X67437142Y-66654761D01*
X67532380Y-66702380D01*
X67722857Y-66702380D01*
X67818095Y-66654761D01*
X67865714Y-66607142D01*
X67913333Y-66511904D01*
X67913333Y-65702380D01*
X68913333Y-66702380D02*
X68341904Y-66702380D01*
X68627619Y-66702380D02*
X68627619Y-65702380D01*
X68532380Y-65845238D01*
X68437142Y-65940476D01*
X68341904Y-65988095D01*
X69532380Y-65702380D02*
X69627619Y-65702380D01*
X69722857Y-65750000D01*
X69770476Y-65797619D01*
X69818095Y-65892857D01*
X69865714Y-66083333D01*
X69865714Y-66321428D01*
X69818095Y-66511904D01*
X69770476Y-66607142D01*
X69722857Y-66654761D01*
X69627619Y-66702380D01*
X69532380Y-66702380D01*
X69437142Y-66654761D01*
X69389523Y-66607142D01*
X69341904Y-66511904D01*
X69294285Y-66321428D01*
X69294285Y-66083333D01*
X69341904Y-65892857D01*
X69389523Y-65797619D01*
X69437142Y-65750000D01*
X69532380Y-65702380D01*
%TO.C,U11*%
X66071904Y-127932380D02*
X66071904Y-128741904D01*
X66119523Y-128837142D01*
X66167142Y-128884761D01*
X66262380Y-128932380D01*
X66452857Y-128932380D01*
X66548095Y-128884761D01*
X66595714Y-128837142D01*
X66643333Y-128741904D01*
X66643333Y-127932380D01*
X67643333Y-128932380D02*
X67071904Y-128932380D01*
X67357619Y-128932380D02*
X67357619Y-127932380D01*
X67262380Y-128075238D01*
X67167142Y-128170476D01*
X67071904Y-128218095D01*
X68595714Y-128932380D02*
X68024285Y-128932380D01*
X68310000Y-128932380D02*
X68310000Y-127932380D01*
X68214761Y-128075238D01*
X68119523Y-128170476D01*
X68024285Y-128218095D01*
%TO.C,U12*%
X141482380Y-71088095D02*
X142291904Y-71088095D01*
X142387142Y-71040476D01*
X142434761Y-70992857D01*
X142482380Y-70897619D01*
X142482380Y-70707142D01*
X142434761Y-70611904D01*
X142387142Y-70564285D01*
X142291904Y-70516666D01*
X141482380Y-70516666D01*
X142482380Y-69516666D02*
X142482380Y-70088095D01*
X142482380Y-69802380D02*
X141482380Y-69802380D01*
X141625238Y-69897619D01*
X141720476Y-69992857D01*
X141768095Y-70088095D01*
X141577619Y-69135714D02*
X141530000Y-69088095D01*
X141482380Y-68992857D01*
X141482380Y-68754761D01*
X141530000Y-68659523D01*
X141577619Y-68611904D01*
X141672857Y-68564285D01*
X141768095Y-68564285D01*
X141910952Y-68611904D01*
X142482380Y-69183333D01*
X142482380Y-68564285D01*
%TO.C,U13*%
X121162380Y-71088095D02*
X121971904Y-71088095D01*
X122067142Y-71040476D01*
X122114761Y-70992857D01*
X122162380Y-70897619D01*
X122162380Y-70707142D01*
X122114761Y-70611904D01*
X122067142Y-70564285D01*
X121971904Y-70516666D01*
X121162380Y-70516666D01*
X122162380Y-69516666D02*
X122162380Y-70088095D01*
X122162380Y-69802380D02*
X121162380Y-69802380D01*
X121305238Y-69897619D01*
X121400476Y-69992857D01*
X121448095Y-70088095D01*
X121162380Y-69183333D02*
X121162380Y-68564285D01*
X121543333Y-68897619D01*
X121543333Y-68754761D01*
X121590952Y-68659523D01*
X121638571Y-68611904D01*
X121733809Y-68564285D01*
X121971904Y-68564285D01*
X122067142Y-68611904D01*
X122114761Y-68659523D01*
X122162380Y-68754761D01*
X122162380Y-69040476D01*
X122114761Y-69135714D01*
X122067142Y-69183333D01*
%TO.C,U14*%
X132592380Y-90138095D02*
X133401904Y-90138095D01*
X133497142Y-90090476D01*
X133544761Y-90042857D01*
X133592380Y-89947619D01*
X133592380Y-89757142D01*
X133544761Y-89661904D01*
X133497142Y-89614285D01*
X133401904Y-89566666D01*
X132592380Y-89566666D01*
X133592380Y-88566666D02*
X133592380Y-89138095D01*
X133592380Y-88852380D02*
X132592380Y-88852380D01*
X132735238Y-88947619D01*
X132830476Y-89042857D01*
X132878095Y-89138095D01*
X132925714Y-87709523D02*
X133592380Y-87709523D01*
X132544761Y-87947619D02*
X133259047Y-88185714D01*
X133259047Y-87566666D01*
%TO.C,U15*%
X149891904Y-82212380D02*
X149891904Y-83021904D01*
X149939523Y-83117142D01*
X149987142Y-83164761D01*
X150082380Y-83212380D01*
X150272857Y-83212380D01*
X150368095Y-83164761D01*
X150415714Y-83117142D01*
X150463333Y-83021904D01*
X150463333Y-82212380D01*
X151463333Y-83212380D02*
X150891904Y-83212380D01*
X151177619Y-83212380D02*
X151177619Y-82212380D01*
X151082380Y-82355238D01*
X150987142Y-82450476D01*
X150891904Y-82498095D01*
X152368095Y-82212380D02*
X151891904Y-82212380D01*
X151844285Y-82688571D01*
X151891904Y-82640952D01*
X151987142Y-82593333D01*
X152225238Y-82593333D01*
X152320476Y-82640952D01*
X152368095Y-82688571D01*
X152415714Y-82783809D01*
X152415714Y-83021904D01*
X152368095Y-83117142D01*
X152320476Y-83164761D01*
X152225238Y-83212380D01*
X151987142Y-83212380D01*
X151891904Y-83164761D01*
X151844285Y-83117142D01*
%TO.C,U16*%
X86391904Y-126662380D02*
X86391904Y-127471904D01*
X86439523Y-127567142D01*
X86487142Y-127614761D01*
X86582380Y-127662380D01*
X86772857Y-127662380D01*
X86868095Y-127614761D01*
X86915714Y-127567142D01*
X86963333Y-127471904D01*
X86963333Y-126662380D01*
X87963333Y-127662380D02*
X87391904Y-127662380D01*
X87677619Y-127662380D02*
X87677619Y-126662380D01*
X87582380Y-126805238D01*
X87487142Y-126900476D01*
X87391904Y-126948095D01*
X88820476Y-126662380D02*
X88630000Y-126662380D01*
X88534761Y-126710000D01*
X88487142Y-126757619D01*
X88391904Y-126900476D01*
X88344285Y-127090952D01*
X88344285Y-127471904D01*
X88391904Y-127567142D01*
X88439523Y-127614761D01*
X88534761Y-127662380D01*
X88725238Y-127662380D01*
X88820476Y-127614761D01*
X88868095Y-127567142D01*
X88915714Y-127471904D01*
X88915714Y-127233809D01*
X88868095Y-127138571D01*
X88820476Y-127090952D01*
X88725238Y-127043333D01*
X88534761Y-127043333D01*
X88439523Y-127090952D01*
X88391904Y-127138571D01*
X88344285Y-127233809D01*
%TO.C,U22*%
X170211904Y-102532380D02*
X170211904Y-103341904D01*
X170259523Y-103437142D01*
X170307142Y-103484761D01*
X170402380Y-103532380D01*
X170592857Y-103532380D01*
X170688095Y-103484761D01*
X170735714Y-103437142D01*
X170783333Y-103341904D01*
X170783333Y-102532380D01*
X171211904Y-102627619D02*
X171259523Y-102580000D01*
X171354761Y-102532380D01*
X171592857Y-102532380D01*
X171688095Y-102580000D01*
X171735714Y-102627619D01*
X171783333Y-102722857D01*
X171783333Y-102818095D01*
X171735714Y-102960952D01*
X171164285Y-103532380D01*
X171783333Y-103532380D01*
X172164285Y-102627619D02*
X172211904Y-102580000D01*
X172307142Y-102532380D01*
X172545238Y-102532380D01*
X172640476Y-102580000D01*
X172688095Y-102627619D01*
X172735714Y-102722857D01*
X172735714Y-102818095D01*
X172688095Y-102960952D01*
X172116666Y-103532380D01*
X172735714Y-103532380D01*
%TO.C,U23*%
X149891904Y-103802380D02*
X149891904Y-104611904D01*
X149939523Y-104707142D01*
X149987142Y-104754761D01*
X150082380Y-104802380D01*
X150272857Y-104802380D01*
X150368095Y-104754761D01*
X150415714Y-104707142D01*
X150463333Y-104611904D01*
X150463333Y-103802380D01*
X150891904Y-103897619D02*
X150939523Y-103850000D01*
X151034761Y-103802380D01*
X151272857Y-103802380D01*
X151368095Y-103850000D01*
X151415714Y-103897619D01*
X151463333Y-103992857D01*
X151463333Y-104088095D01*
X151415714Y-104230952D01*
X150844285Y-104802380D01*
X151463333Y-104802380D01*
X151796666Y-103802380D02*
X152415714Y-103802380D01*
X152082380Y-104183333D01*
X152225238Y-104183333D01*
X152320476Y-104230952D01*
X152368095Y-104278571D01*
X152415714Y-104373809D01*
X152415714Y-104611904D01*
X152368095Y-104707142D01*
X152320476Y-104754761D01*
X152225238Y-104802380D01*
X151939523Y-104802380D01*
X151844285Y-104754761D01*
X151796666Y-104707142D01*
%TO.C,U30*%
X104171904Y-102532380D02*
X104171904Y-103341904D01*
X104219523Y-103437142D01*
X104267142Y-103484761D01*
X104362380Y-103532380D01*
X104552857Y-103532380D01*
X104648095Y-103484761D01*
X104695714Y-103437142D01*
X104743333Y-103341904D01*
X104743333Y-102532380D01*
X105124285Y-102532380D02*
X105743333Y-102532380D01*
X105410000Y-102913333D01*
X105552857Y-102913333D01*
X105648095Y-102960952D01*
X105695714Y-103008571D01*
X105743333Y-103103809D01*
X105743333Y-103341904D01*
X105695714Y-103437142D01*
X105648095Y-103484761D01*
X105552857Y-103532380D01*
X105267142Y-103532380D01*
X105171904Y-103484761D01*
X105124285Y-103437142D01*
X106362380Y-102532380D02*
X106457619Y-102532380D01*
X106552857Y-102580000D01*
X106600476Y-102627619D01*
X106648095Y-102722857D01*
X106695714Y-102913333D01*
X106695714Y-103151428D01*
X106648095Y-103341904D01*
X106600476Y-103437142D01*
X106552857Y-103484761D01*
X106457619Y-103532380D01*
X106362380Y-103532380D01*
X106267142Y-103484761D01*
X106219523Y-103437142D01*
X106171904Y-103341904D01*
X106124285Y-103151428D01*
X106124285Y-102913333D01*
X106171904Y-102722857D01*
X106219523Y-102627619D01*
X106267142Y-102580000D01*
X106362380Y-102532380D01*
%TO.C,U32*%
X170211904Y-125392380D02*
X170211904Y-126201904D01*
X170259523Y-126297142D01*
X170307142Y-126344761D01*
X170402380Y-126392380D01*
X170592857Y-126392380D01*
X170688095Y-126344761D01*
X170735714Y-126297142D01*
X170783333Y-126201904D01*
X170783333Y-125392380D01*
X171164285Y-125392380D02*
X171783333Y-125392380D01*
X171450000Y-125773333D01*
X171592857Y-125773333D01*
X171688095Y-125820952D01*
X171735714Y-125868571D01*
X171783333Y-125963809D01*
X171783333Y-126201904D01*
X171735714Y-126297142D01*
X171688095Y-126344761D01*
X171592857Y-126392380D01*
X171307142Y-126392380D01*
X171211904Y-126344761D01*
X171164285Y-126297142D01*
X172164285Y-125487619D02*
X172211904Y-125440000D01*
X172307142Y-125392380D01*
X172545238Y-125392380D01*
X172640476Y-125440000D01*
X172688095Y-125487619D01*
X172735714Y-125582857D01*
X172735714Y-125678095D01*
X172688095Y-125820952D01*
X172116666Y-126392380D01*
X172735714Y-126392380D01*
%TO.C,U41*%
X170211904Y-59352380D02*
X170211904Y-60161904D01*
X170259523Y-60257142D01*
X170307142Y-60304761D01*
X170402380Y-60352380D01*
X170592857Y-60352380D01*
X170688095Y-60304761D01*
X170735714Y-60257142D01*
X170783333Y-60161904D01*
X170783333Y-59352380D01*
X171688095Y-59685714D02*
X171688095Y-60352380D01*
X171450000Y-59304761D02*
X171211904Y-60019047D01*
X171830952Y-60019047D01*
X172735714Y-60352380D02*
X172164285Y-60352380D01*
X172450000Y-60352380D02*
X172450000Y-59352380D01*
X172354761Y-59495238D01*
X172259523Y-59590476D01*
X172164285Y-59638095D01*
%TO.C,U42*%
X86391904Y-103802380D02*
X86391904Y-104611904D01*
X86439523Y-104707142D01*
X86487142Y-104754761D01*
X86582380Y-104802380D01*
X86772857Y-104802380D01*
X86868095Y-104754761D01*
X86915714Y-104707142D01*
X86963333Y-104611904D01*
X86963333Y-103802380D01*
X87868095Y-104135714D02*
X87868095Y-104802380D01*
X87630000Y-103754761D02*
X87391904Y-104469047D01*
X88010952Y-104469047D01*
X88344285Y-103897619D02*
X88391904Y-103850000D01*
X88487142Y-103802380D01*
X88725238Y-103802380D01*
X88820476Y-103850000D01*
X88868095Y-103897619D01*
X88915714Y-103992857D01*
X88915714Y-104088095D01*
X88868095Y-104230952D01*
X88296666Y-104802380D01*
X88915714Y-104802380D01*
%TO.C,U43*%
X86391904Y-80942380D02*
X86391904Y-81751904D01*
X86439523Y-81847142D01*
X86487142Y-81894761D01*
X86582380Y-81942380D01*
X86772857Y-81942380D01*
X86868095Y-81894761D01*
X86915714Y-81847142D01*
X86963333Y-81751904D01*
X86963333Y-80942380D01*
X87868095Y-81275714D02*
X87868095Y-81942380D01*
X87630000Y-80894761D02*
X87391904Y-81609047D01*
X88010952Y-81609047D01*
X88296666Y-80942380D02*
X88915714Y-80942380D01*
X88582380Y-81323333D01*
X88725238Y-81323333D01*
X88820476Y-81370952D01*
X88868095Y-81418571D01*
X88915714Y-81513809D01*
X88915714Y-81751904D01*
X88868095Y-81847142D01*
X88820476Y-81894761D01*
X88725238Y-81942380D01*
X88439523Y-81942380D01*
X88344285Y-81894761D01*
X88296666Y-81847142D01*
%TO.C,U51*%
X149891904Y-125392380D02*
X149891904Y-126201904D01*
X149939523Y-126297142D01*
X149987142Y-126344761D01*
X150082380Y-126392380D01*
X150272857Y-126392380D01*
X150368095Y-126344761D01*
X150415714Y-126297142D01*
X150463333Y-126201904D01*
X150463333Y-125392380D01*
X151415714Y-125392380D02*
X150939523Y-125392380D01*
X150891904Y-125868571D01*
X150939523Y-125820952D01*
X151034761Y-125773333D01*
X151272857Y-125773333D01*
X151368095Y-125820952D01*
X151415714Y-125868571D01*
X151463333Y-125963809D01*
X151463333Y-126201904D01*
X151415714Y-126297142D01*
X151368095Y-126344761D01*
X151272857Y-126392380D01*
X151034761Y-126392380D01*
X150939523Y-126344761D01*
X150891904Y-126297142D01*
X152415714Y-126392380D02*
X151844285Y-126392380D01*
X152130000Y-126392380D02*
X152130000Y-125392380D01*
X152034761Y-125535238D01*
X151939523Y-125630476D01*
X151844285Y-125678095D01*
%TO.C,U52*%
X98302380Y-71088095D02*
X99111904Y-71088095D01*
X99207142Y-71040476D01*
X99254761Y-70992857D01*
X99302380Y-70897619D01*
X99302380Y-70707142D01*
X99254761Y-70611904D01*
X99207142Y-70564285D01*
X99111904Y-70516666D01*
X98302380Y-70516666D01*
X98302380Y-69564285D02*
X98302380Y-70040476D01*
X98778571Y-70088095D01*
X98730952Y-70040476D01*
X98683333Y-69945238D01*
X98683333Y-69707142D01*
X98730952Y-69611904D01*
X98778571Y-69564285D01*
X98873809Y-69516666D01*
X99111904Y-69516666D01*
X99207142Y-69564285D01*
X99254761Y-69611904D01*
X99302380Y-69707142D01*
X99302380Y-69945238D01*
X99254761Y-70040476D01*
X99207142Y-70088095D01*
X98397619Y-69135714D02*
X98350000Y-69088095D01*
X98302380Y-68992857D01*
X98302380Y-68754761D01*
X98350000Y-68659523D01*
X98397619Y-68611904D01*
X98492857Y-68564285D01*
X98588095Y-68564285D01*
X98730952Y-68611904D01*
X99302380Y-69183333D01*
X99302380Y-68564285D01*
%TO.C,U53*%
X182911904Y-129202380D02*
X182911904Y-130011904D01*
X182959523Y-130107142D01*
X183007142Y-130154761D01*
X183102380Y-130202380D01*
X183292857Y-130202380D01*
X183388095Y-130154761D01*
X183435714Y-130107142D01*
X183483333Y-130011904D01*
X183483333Y-129202380D01*
X184435714Y-129202380D02*
X183959523Y-129202380D01*
X183911904Y-129678571D01*
X183959523Y-129630952D01*
X184054761Y-129583333D01*
X184292857Y-129583333D01*
X184388095Y-129630952D01*
X184435714Y-129678571D01*
X184483333Y-129773809D01*
X184483333Y-130011904D01*
X184435714Y-130107142D01*
X184388095Y-130154761D01*
X184292857Y-130202380D01*
X184054761Y-130202380D01*
X183959523Y-130154761D01*
X183911904Y-130107142D01*
X184816666Y-129202380D02*
X185435714Y-129202380D01*
X185102380Y-129583333D01*
X185245238Y-129583333D01*
X185340476Y-129630952D01*
X185388095Y-129678571D01*
X185435714Y-129773809D01*
X185435714Y-130011904D01*
X185388095Y-130107142D01*
X185340476Y-130154761D01*
X185245238Y-130202380D01*
X184959523Y-130202380D01*
X184864285Y-130154761D01*
X184816666Y-130107142D01*
%TO.C,Y1*%
X80971190Y-143886190D02*
X81447380Y-143886190D01*
X80447380Y-144219523D02*
X80971190Y-143886190D01*
X80447380Y-143552857D01*
X81447380Y-142695714D02*
X81447380Y-143267142D01*
X81447380Y-142981428D02*
X80447380Y-142981428D01*
X80590238Y-143076666D01*
X80685476Y-143171904D01*
X80733095Y-143267142D01*
%TD*%
M02*
