%TF.GenerationSoftware,KiCad,Pcbnew,(5.1.10)-1*%
%TF.CreationDate,2022-01-29T09:37:24+01:00*%
%TF.ProjectId,2K-BWS,324b2d42-5753-42e6-9b69-6361645f7063,rev?*%
%TF.SameCoordinates,Original*%
%TF.FileFunction,Soldermask,Bot*%
%TF.FilePolarity,Negative*%
%FSLAX46Y46*%
G04 Gerber Fmt 4.6, Leading zero omitted, Abs format (unit mm)*
G04 Created by KiCad (PCBNEW (5.1.10)-1) date 2022-01-29 09:37:24*
%MOMM*%
%LPD*%
G01*
G04 APERTURE LIST*
%ADD10O,1.700000X1.700000*%
%ADD11R,1.700000X1.700000*%
%ADD12R,2.400000X1.600000*%
%ADD13O,2.400000X1.600000*%
%ADD14C,1.600000*%
%ADD15C,1.400000*%
%ADD16C,1.610000*%
%ADD17R,2.400000X2.400000*%
%ADD18O,2.400000X2.400000*%
%ADD19O,2.700000X4.000000*%
%ADD20C,3.400000*%
%ADD21O,4.000000X2.700000*%
%ADD22O,1.600000X1.600000*%
%ADD23R,2.500000X2.500000*%
%ADD24O,2.500000X2.500000*%
%ADD25R,1.600000X2.400000*%
%ADD26O,1.600000X2.400000*%
%ADD27C,1.500000*%
G04 APERTURE END LIST*
D10*
%TO.C,J5*%
X53340000Y-146050000D03*
X55880000Y-146050000D03*
D11*
X58420000Y-146050000D03*
%TD*%
D10*
%TO.C,J4*%
X58420000Y-72390000D03*
X58420000Y-69850000D03*
D11*
X58420000Y-67310000D03*
%TD*%
D12*
%TO.C,U33*%
X167640000Y-85090000D03*
D13*
X175260000Y-100330000D03*
X167640000Y-87630000D03*
X175260000Y-97790000D03*
X167640000Y-90170000D03*
X175260000Y-95250000D03*
X167640000Y-92710000D03*
X175260000Y-92710000D03*
X167640000Y-95250000D03*
X175260000Y-90170000D03*
X167640000Y-97790000D03*
X175260000Y-87630000D03*
X167640000Y-100330000D03*
X175260000Y-85090000D03*
%TD*%
D12*
%TO.C,U40*%
X101600000Y-128270000D03*
D13*
X109220000Y-146050000D03*
X101600000Y-130810000D03*
X109220000Y-143510000D03*
X101600000Y-133350000D03*
X109220000Y-140970000D03*
X101600000Y-135890000D03*
X109220000Y-138430000D03*
X101600000Y-138430000D03*
X109220000Y-135890000D03*
X101600000Y-140970000D03*
X109220000Y-133350000D03*
X101600000Y-143510000D03*
X109220000Y-130810000D03*
X101600000Y-146050000D03*
X109220000Y-128270000D03*
%TD*%
%TO.C,IC21*%
X139700000Y-115570000D03*
X124460000Y-143510000D03*
X139700000Y-118110000D03*
X124460000Y-140970000D03*
X139700000Y-120650000D03*
X124460000Y-138430000D03*
X139700000Y-123190000D03*
X124460000Y-135890000D03*
X139700000Y-125730000D03*
X124460000Y-133350000D03*
X139700000Y-128270000D03*
X124460000Y-130810000D03*
X139700000Y-130810000D03*
X124460000Y-128270000D03*
X139700000Y-133350000D03*
X124460000Y-125730000D03*
X139700000Y-135890000D03*
X124460000Y-123190000D03*
X139700000Y-138430000D03*
X124460000Y-120650000D03*
X139700000Y-140970000D03*
X124460000Y-118110000D03*
X139700000Y-143510000D03*
D12*
X124460000Y-115570000D03*
%TD*%
D13*
%TO.C,U24*%
X154940000Y-63500000D03*
X147320000Y-78740000D03*
X154940000Y-66040000D03*
X147320000Y-76200000D03*
X154940000Y-68580000D03*
X147320000Y-73660000D03*
X154940000Y-71120000D03*
X147320000Y-71120000D03*
X154940000Y-73660000D03*
X147320000Y-68580000D03*
X154940000Y-76200000D03*
X147320000Y-66040000D03*
X154940000Y-78740000D03*
D12*
X147320000Y-63500000D03*
%TD*%
D13*
%TO.C,U20*%
X72390000Y-96520000D03*
X64770000Y-111760000D03*
X72390000Y-99060000D03*
X64770000Y-109220000D03*
X72390000Y-101600000D03*
X64770000Y-106680000D03*
X72390000Y-104140000D03*
X64770000Y-104140000D03*
X72390000Y-106680000D03*
X64770000Y-101600000D03*
X72390000Y-109220000D03*
X64770000Y-99060000D03*
X72390000Y-111760000D03*
D12*
X64770000Y-96520000D03*
%TD*%
D10*
%TO.C,J3*%
X205740000Y-62230000D03*
X205740000Y-64770000D03*
D11*
X205740000Y-67310000D03*
%TD*%
D14*
%TO.C,C11*%
X185460000Y-101600000D03*
X187960000Y-101600000D03*
%TD*%
%TO.C,C10*%
X161290000Y-105370000D03*
X161290000Y-102870000D03*
%TD*%
%TO.C,C9*%
X119340000Y-104140000D03*
X116840000Y-104140000D03*
%TD*%
%TO.C,C8*%
X161290000Y-128230000D03*
X161290000Y-125730000D03*
%TD*%
%TO.C,C7*%
X139660000Y-81280000D03*
X137160000Y-81280000D03*
%TD*%
%TO.C,C6*%
X116880000Y-147320000D03*
X119380000Y-147320000D03*
%TD*%
%TO.C,C5*%
X62190000Y-63500000D03*
X59690000Y-63500000D03*
%TD*%
D15*
%TO.C,X1*%
X43408600Y-73660000D03*
X50600000Y-140410000D03*
X50600000Y-137910000D03*
X50600000Y-135410000D03*
X50600000Y-132910000D03*
X50600000Y-130410000D03*
X50600000Y-127910000D03*
X50600000Y-125410000D03*
X50600000Y-122910000D03*
X50600000Y-120410000D03*
X50600000Y-117910000D03*
X50600000Y-115410000D03*
X50600000Y-112910000D03*
X50600000Y-110410000D03*
X50600000Y-107910000D03*
X50600000Y-105410000D03*
X50600000Y-102910000D03*
X50600000Y-100410000D03*
X50600000Y-97910000D03*
X50600000Y-95410000D03*
X50600000Y-92910000D03*
X50600000Y-90410000D03*
X50600000Y-87910000D03*
X50600000Y-85410000D03*
X50600000Y-82910000D03*
X50600000Y-80410000D03*
X50600000Y-77910000D03*
X50600000Y-75410000D03*
X50600000Y-72910000D03*
X50600000Y-70410000D03*
X55600000Y-140410000D03*
X55600000Y-137910000D03*
X55600000Y-135410000D03*
X55600000Y-132910000D03*
X55600000Y-130410000D03*
X55600000Y-127910000D03*
X55600000Y-125410000D03*
X55600000Y-122910000D03*
X55600000Y-120410000D03*
X55600000Y-117910000D03*
X55600000Y-115410000D03*
X55600000Y-112910000D03*
X55600000Y-110410000D03*
X55600000Y-107910000D03*
X55600000Y-105410000D03*
X55600000Y-102910000D03*
X55600000Y-100410000D03*
X55600000Y-97910000D03*
X55600000Y-95410000D03*
X55600000Y-92910000D03*
X55600000Y-90410000D03*
X55600000Y-87910000D03*
X55600000Y-85410000D03*
X55600000Y-82910000D03*
X55600000Y-80410000D03*
X55600000Y-77910000D03*
X55600000Y-75410000D03*
X55600000Y-72910000D03*
X55600000Y-70410000D03*
D16*
X43100000Y-64160000D03*
D15*
X48488600Y-139700000D03*
X48488600Y-137160000D03*
X48488600Y-134620000D03*
X48488600Y-132080000D03*
X48488600Y-129540000D03*
X48488600Y-127000000D03*
X48488600Y-124460000D03*
X48488600Y-121920000D03*
X48488600Y-119380000D03*
X48488600Y-116840000D03*
X48488600Y-114300000D03*
X48488600Y-111760000D03*
X48488600Y-109220000D03*
X48488600Y-106680000D03*
X48488600Y-104140000D03*
X48488600Y-101600000D03*
X48488600Y-99060000D03*
X48488600Y-96520000D03*
X48488600Y-93980000D03*
X48488600Y-91440000D03*
X48488600Y-88900000D03*
X48488600Y-86360000D03*
X48488600Y-83820000D03*
X48488600Y-81280000D03*
X48488600Y-78740000D03*
X48488600Y-76200000D03*
X48488600Y-73660000D03*
X48488600Y-71120000D03*
X48488600Y-68580000D03*
X43408600Y-139700000D03*
X43408600Y-137160000D03*
X43408600Y-134620000D03*
X43408600Y-132080000D03*
X43408600Y-129540000D03*
X43408600Y-127000000D03*
X43408600Y-124460000D03*
X43408600Y-121920000D03*
X43408600Y-119380000D03*
X43408600Y-116840000D03*
X43408600Y-114300000D03*
X43408600Y-111760000D03*
X43408600Y-109220000D03*
X43408600Y-106680000D03*
X43408600Y-104140000D03*
X43408600Y-101600000D03*
X43408600Y-99060000D03*
X43408600Y-96520000D03*
X43408600Y-93980000D03*
X43408600Y-91440000D03*
X43408600Y-88900000D03*
X43408600Y-86360000D03*
X43408600Y-83820000D03*
X43408600Y-81280000D03*
X43408600Y-78740000D03*
X43408600Y-76200000D03*
X43408600Y-71120000D03*
X43408600Y-68580000D03*
D16*
X40868600Y-149860000D03*
X40868600Y-60960000D03*
%TD*%
D14*
%TO.C,C1*%
X60960000Y-93980000D03*
X60960000Y-91480000D03*
%TD*%
%TO.C,C2*%
X162560000Y-76160000D03*
X162560000Y-73660000D03*
%TD*%
%TO.C,C3*%
X189270000Y-64770000D03*
X191770000Y-64770000D03*
%TD*%
%TO.C,C4*%
X91440000Y-80010000D03*
X88940000Y-80010000D03*
%TD*%
D17*
%TO.C,D1*%
X185420000Y-88900000D03*
D18*
X185420000Y-78740000D03*
%TD*%
%TO.C,D2*%
X190500000Y-78740000D03*
D17*
X190500000Y-88900000D03*
%TD*%
D19*
%TO.C,J1*%
X206930000Y-106680000D03*
D20*
X199430000Y-106680000D03*
D21*
X197930000Y-112180000D03*
X197930000Y-101180000D03*
%TD*%
%TO.C,J2*%
X197930000Y-115150000D03*
X197930000Y-126150000D03*
D20*
X199430000Y-120650000D03*
D19*
X206930000Y-120650000D03*
%TD*%
D14*
%TO.C,R1*%
X77470000Y-134620000D03*
D22*
X77470000Y-124460000D03*
%TD*%
D14*
%TO.C,R2*%
X181610000Y-74930000D03*
D22*
X181610000Y-64770000D03*
%TD*%
%TO.C,R3*%
X185420000Y-74930000D03*
D14*
X185420000Y-64770000D03*
%TD*%
D23*
%TO.C,RL1*%
X198120000Y-72390000D03*
D24*
X198120000Y-87390000D03*
X198120000Y-92390000D03*
X198120000Y-97390000D03*
X205620000Y-97390000D03*
X205620000Y-92390000D03*
X205620000Y-87390000D03*
X205620000Y-72390000D03*
%TD*%
D13*
%TO.C,U1*%
X187960000Y-105410000D03*
X180340000Y-120650000D03*
X187960000Y-107950000D03*
X180340000Y-118110000D03*
X187960000Y-110490000D03*
X180340000Y-115570000D03*
X187960000Y-113030000D03*
X180340000Y-113030000D03*
X187960000Y-115570000D03*
X180340000Y-110490000D03*
X187960000Y-118110000D03*
X180340000Y-107950000D03*
X187960000Y-120650000D03*
D12*
X180340000Y-105410000D03*
%TD*%
%TO.C,U2*%
X195580000Y-132080000D03*
D13*
X203200000Y-147320000D03*
X195580000Y-134620000D03*
X203200000Y-144780000D03*
X195580000Y-137160000D03*
X203200000Y-142240000D03*
X195580000Y-139700000D03*
X203200000Y-139700000D03*
X195580000Y-142240000D03*
X203200000Y-137160000D03*
X195580000Y-144780000D03*
X203200000Y-134620000D03*
X195580000Y-147320000D03*
X203200000Y-132080000D03*
%TD*%
D12*
%TO.C,U10*%
X64770000Y-68580000D03*
D13*
X72390000Y-91440000D03*
X64770000Y-71120000D03*
X72390000Y-88900000D03*
X64770000Y-73660000D03*
X72390000Y-86360000D03*
X64770000Y-76200000D03*
X72390000Y-83820000D03*
X64770000Y-78740000D03*
X72390000Y-81280000D03*
X64770000Y-81280000D03*
X72390000Y-78740000D03*
X64770000Y-83820000D03*
X72390000Y-76200000D03*
X64770000Y-86360000D03*
X72390000Y-73660000D03*
X64770000Y-88900000D03*
X72390000Y-71120000D03*
X64770000Y-91440000D03*
X72390000Y-68580000D03*
%TD*%
D12*
%TO.C,U11*%
X63500000Y-130810000D03*
D13*
X71120000Y-146050000D03*
X63500000Y-133350000D03*
X71120000Y-143510000D03*
X63500000Y-135890000D03*
X71120000Y-140970000D03*
X63500000Y-138430000D03*
X71120000Y-138430000D03*
X63500000Y-140970000D03*
X71120000Y-135890000D03*
X63500000Y-143510000D03*
X71120000Y-133350000D03*
X63500000Y-146050000D03*
X71120000Y-130810000D03*
%TD*%
D25*
%TO.C,U12*%
X139700000Y-66040000D03*
D26*
X124460000Y-73660000D03*
X137160000Y-66040000D03*
X127000000Y-73660000D03*
X134620000Y-66040000D03*
X129540000Y-73660000D03*
X132080000Y-66040000D03*
X132080000Y-73660000D03*
X129540000Y-66040000D03*
X134620000Y-73660000D03*
X127000000Y-66040000D03*
X137160000Y-73660000D03*
X124460000Y-66040000D03*
X139700000Y-73660000D03*
%TD*%
%TO.C,U13*%
X119380000Y-73660000D03*
X104140000Y-66040000D03*
X116840000Y-73660000D03*
X106680000Y-66040000D03*
X114300000Y-73660000D03*
X109220000Y-66040000D03*
X111760000Y-73660000D03*
X111760000Y-66040000D03*
X109220000Y-73660000D03*
X114300000Y-66040000D03*
X106680000Y-73660000D03*
X116840000Y-66040000D03*
X104140000Y-73660000D03*
D25*
X119380000Y-66040000D03*
%TD*%
%TO.C,U14*%
X130810000Y-81280000D03*
D26*
X102870000Y-96520000D03*
X128270000Y-81280000D03*
X105410000Y-96520000D03*
X125730000Y-81280000D03*
X107950000Y-96520000D03*
X123190000Y-81280000D03*
X110490000Y-96520000D03*
X120650000Y-81280000D03*
X113030000Y-96520000D03*
X118110000Y-81280000D03*
X115570000Y-96520000D03*
X115570000Y-81280000D03*
X118110000Y-96520000D03*
X113030000Y-81280000D03*
X120650000Y-96520000D03*
X110490000Y-81280000D03*
X123190000Y-96520000D03*
X107950000Y-81280000D03*
X125730000Y-96520000D03*
X105410000Y-81280000D03*
X128270000Y-96520000D03*
X102870000Y-81280000D03*
X130810000Y-96520000D03*
%TD*%
D12*
%TO.C,U15*%
X147320000Y-85090000D03*
D13*
X154940000Y-100330000D03*
X147320000Y-87630000D03*
X154940000Y-97790000D03*
X147320000Y-90170000D03*
X154940000Y-95250000D03*
X147320000Y-92710000D03*
X154940000Y-92710000D03*
X147320000Y-95250000D03*
X154940000Y-90170000D03*
X147320000Y-97790000D03*
X154940000Y-87630000D03*
X147320000Y-100330000D03*
X154940000Y-85090000D03*
%TD*%
%TO.C,U16*%
X91440000Y-129540000D03*
X83820000Y-147320000D03*
X91440000Y-132080000D03*
X83820000Y-144780000D03*
X91440000Y-134620000D03*
X83820000Y-142240000D03*
X91440000Y-137160000D03*
X83820000Y-139700000D03*
X91440000Y-139700000D03*
X83820000Y-137160000D03*
X91440000Y-142240000D03*
X83820000Y-134620000D03*
X91440000Y-144780000D03*
X83820000Y-132080000D03*
X91440000Y-147320000D03*
D12*
X83820000Y-129540000D03*
%TD*%
D13*
%TO.C,U22*%
X175260000Y-105410000D03*
X167640000Y-123190000D03*
X175260000Y-107950000D03*
X167640000Y-120650000D03*
X175260000Y-110490000D03*
X167640000Y-118110000D03*
X175260000Y-113030000D03*
X167640000Y-115570000D03*
X175260000Y-115570000D03*
X167640000Y-113030000D03*
X175260000Y-118110000D03*
X167640000Y-110490000D03*
X175260000Y-120650000D03*
X167640000Y-107950000D03*
X175260000Y-123190000D03*
D12*
X167640000Y-105410000D03*
%TD*%
%TO.C,U23*%
X147320000Y-106680000D03*
D13*
X154940000Y-121920000D03*
X147320000Y-109220000D03*
X154940000Y-119380000D03*
X147320000Y-111760000D03*
X154940000Y-116840000D03*
X147320000Y-114300000D03*
X154940000Y-114300000D03*
X147320000Y-116840000D03*
X154940000Y-111760000D03*
X147320000Y-119380000D03*
X154940000Y-109220000D03*
X147320000Y-121920000D03*
X154940000Y-106680000D03*
%TD*%
%TO.C,U30*%
X109220000Y-105410000D03*
X101600000Y-123190000D03*
X109220000Y-107950000D03*
X101600000Y-120650000D03*
X109220000Y-110490000D03*
X101600000Y-118110000D03*
X109220000Y-113030000D03*
X101600000Y-115570000D03*
X109220000Y-115570000D03*
X101600000Y-113030000D03*
X109220000Y-118110000D03*
X101600000Y-110490000D03*
X109220000Y-120650000D03*
X101600000Y-107950000D03*
X109220000Y-123190000D03*
D12*
X101600000Y-105410000D03*
%TD*%
%TO.C,U32*%
X167640000Y-128270000D03*
D13*
X175260000Y-146050000D03*
X167640000Y-130810000D03*
X175260000Y-143510000D03*
X167640000Y-133350000D03*
X175260000Y-140970000D03*
X167640000Y-135890000D03*
X175260000Y-138430000D03*
X167640000Y-138430000D03*
X175260000Y-135890000D03*
X167640000Y-140970000D03*
X175260000Y-133350000D03*
X167640000Y-143510000D03*
X175260000Y-130810000D03*
X167640000Y-146050000D03*
X175260000Y-128270000D03*
%TD*%
D12*
%TO.C,U41*%
X167640000Y-62230000D03*
D13*
X175260000Y-80010000D03*
X167640000Y-64770000D03*
X175260000Y-77470000D03*
X167640000Y-67310000D03*
X175260000Y-74930000D03*
X167640000Y-69850000D03*
X175260000Y-72390000D03*
X167640000Y-72390000D03*
X175260000Y-69850000D03*
X167640000Y-74930000D03*
X175260000Y-67310000D03*
X167640000Y-77470000D03*
X175260000Y-64770000D03*
X167640000Y-80010000D03*
X175260000Y-62230000D03*
%TD*%
%TO.C,U42*%
X91440000Y-106680000D03*
X83820000Y-121920000D03*
X91440000Y-109220000D03*
X83820000Y-119380000D03*
X91440000Y-111760000D03*
X83820000Y-116840000D03*
X91440000Y-114300000D03*
X83820000Y-114300000D03*
X91440000Y-116840000D03*
X83820000Y-111760000D03*
X91440000Y-119380000D03*
X83820000Y-109220000D03*
X91440000Y-121920000D03*
D12*
X83820000Y-106680000D03*
%TD*%
%TO.C,U43*%
X83820000Y-83820000D03*
D13*
X91440000Y-99060000D03*
X83820000Y-86360000D03*
X91440000Y-96520000D03*
X83820000Y-88900000D03*
X91440000Y-93980000D03*
X83820000Y-91440000D03*
X91440000Y-91440000D03*
X83820000Y-93980000D03*
X91440000Y-88900000D03*
X83820000Y-96520000D03*
X91440000Y-86360000D03*
X83820000Y-99060000D03*
X91440000Y-83820000D03*
%TD*%
D12*
%TO.C,U51*%
X147320000Y-128270000D03*
D13*
X154940000Y-146050000D03*
X147320000Y-130810000D03*
X154940000Y-143510000D03*
X147320000Y-133350000D03*
X154940000Y-140970000D03*
X147320000Y-135890000D03*
X154940000Y-138430000D03*
X147320000Y-138430000D03*
X154940000Y-135890000D03*
X147320000Y-140970000D03*
X154940000Y-133350000D03*
X147320000Y-143510000D03*
X154940000Y-130810000D03*
X147320000Y-146050000D03*
X154940000Y-128270000D03*
%TD*%
D26*
%TO.C,U52*%
X96520000Y-73660000D03*
X81280000Y-66040000D03*
X93980000Y-73660000D03*
X83820000Y-66040000D03*
X91440000Y-73660000D03*
X86360000Y-66040000D03*
X88900000Y-73660000D03*
X88900000Y-66040000D03*
X86360000Y-73660000D03*
X91440000Y-66040000D03*
X83820000Y-73660000D03*
X93980000Y-66040000D03*
X81280000Y-73660000D03*
D25*
X96520000Y-66040000D03*
%TD*%
D13*
%TO.C,U53*%
X187960000Y-132080000D03*
X180340000Y-147320000D03*
X187960000Y-134620000D03*
X180340000Y-144780000D03*
X187960000Y-137160000D03*
X180340000Y-142240000D03*
X187960000Y-139700000D03*
X180340000Y-139700000D03*
X187960000Y-142240000D03*
X180340000Y-137160000D03*
X187960000Y-144780000D03*
X180340000Y-134620000D03*
X187960000Y-147320000D03*
D12*
X180340000Y-132080000D03*
%TD*%
D27*
%TO.C,Y1*%
X77470000Y-140970000D03*
X77470000Y-145850000D03*
%TD*%
M02*
