M48
; DRILL file {KiCad (5.1.10)-1} date 01/29/22 09:37:21
; FORMAT={-:-/ absolute / inch / decimal}
; #@! TF.CreationDate,2022-01-29T09:37:21+01:00
; #@! TF.GenerationSoftware,Kicad,Pcbnew,(5.1.10)-1
; #@! TF.FileFunction,Plated,1,2,PTH
FMAT,2
INCH
T1C0.0157
T2C0.0276
T3C0.0315
T4C0.0394
T5C0.0472
T6C0.0551
T7C0.0591
T8C0.0630
%
G90
G05
T1
X2.2Y-2.55
X2.25Y-2.35
X2.25Y-3.7
X2.25Y-4.0
X2.25Y-5.15
X2.25Y-5.6
X2.2986Y-3.5014
X2.3Y-3.45
X2.3Y-3.8
X2.3Y-3.9
X2.3Y-4.0
X2.3Y-4.2
X2.3Y-4.7
X2.3Y-4.8
X2.3Y-5.2
X2.3Y-5.5
X2.35Y-3.55
X2.35Y-4.55
X2.35Y-5.35
X2.4Y-3.85
X2.4Y-4.1
X2.4Y-4.15
X2.4Y-4.3
X2.4Y-4.45
X2.4Y-4.5
X2.4Y-4.55
X2.4Y-5.25
X2.4Y-5.3
X2.45Y-2.6
X2.45Y-2.65
X2.45Y-3.55
X2.45Y-3.75
X2.45Y-4.3
X2.5Y-4.5
X2.5Y-4.6
X2.5Y-4.65
X2.5Y-4.7
X2.55Y-2.55
X2.55Y-4.75
X2.6Y-5.45
X2.6443Y-3.5557
X2.65Y-3.7
X2.65Y-3.9
X2.65Y-4.0
X2.65Y-4.4
X2.65Y-5.55
X2.65Y-5.65
X2.7Y-2.4
X2.7Y-3.3
X2.7Y-3.5
X2.7Y-4.15
X2.7Y-4.65
X2.75Y-2.45
X2.75Y-3.2
X2.75Y-3.9
X2.75Y-4.05
X2.75Y-4.2
X2.85Y-4.7
X2.9Y-4.6
X2.9Y-5.0
X2.9Y-5.3
X2.95Y-3.25
X2.95Y-3.8
X3.0Y-2.4
X3.0Y-3.4
X3.0Y-3.95
X3.0Y-4.25
X3.0Y-4.25
X3.05Y-2.45
X3.05Y-3.5
X3.05Y-4.1
X3.1Y-2.6
X3.1Y-3.15
X3.1Y-3.65
X3.1Y-3.9
X3.1Y-4.1
X3.1Y-4.45
X3.1Y-5.4
X3.15Y-3.5
X3.15Y-3.7
X3.15Y-4.1
X3.15Y-4.6
X3.2Y-4.0
X3.2Y-4.9
X3.2Y-5.1
X3.2Y-5.8
X3.3Y-3.1
X3.3Y-4.85
X3.4Y-3.9
X3.4Y-4.0
X3.4Y-4.4
X3.4Y-4.5
X3.4Y-5.85
X3.45Y-3.2
X3.45Y-3.45
X3.45Y-3.8
X3.45Y-4.0
X3.45Y-4.2
X3.45Y-4.6
X3.45Y-4.95
X3.45Y-5.15
X3.45Y-5.7
X3.5Y-3.55
X3.5Y-4.05
X3.5Y-4.9
X3.5Y-5.1
X3.5Y-5.2
X3.6Y-4.0
X3.6Y-4.05
X3.65Y-2.7
X3.7Y-3.15
X3.7Y-3.4
X3.7Y-3.9
X3.7Y-4.05
X3.7Y-4.4
X3.7Y-4.65
X3.7Y-4.85
X3.7Y-5.3
X3.75Y-3.65
X3.75Y-4.2
X3.75Y-4.4
X3.75Y-5.4
X3.75Y-5.6
X3.8Y-3.3
X3.85Y-2.7
X3.85Y-3.75
X3.85Y-4.15
X3.85Y-5.05
X3.85Y-5.4
X3.9Y-2.35
X3.9Y-3.05
X3.9Y-3.55
X3.9Y-4.25
X3.9Y-4.75
X3.9Y-5.95
X3.95Y-2.55
X3.95Y-2.7
X3.95Y-3.25
X3.9839Y-3.4161
X4.0Y-2.6
X4.0Y-2.95
X4.0Y-3.05
X4.05Y-3.35
X4.05Y-5.9
X4.1Y-3.3
X4.1Y-4.0
X4.1Y-4.3
X4.1Y-4.35
X4.1Y-4.7
X4.1Y-5.45
X4.15Y-2.7
X4.15Y-3.45
X4.15Y-4.1
X4.15Y-4.2
X4.15Y-4.75
X4.15Y-4.95
X4.15Y-5.25
X4.15Y-5.55
X4.15Y-5.9
X4.2Y-2.5
X4.2Y-3.05
X4.2Y-3.95
X4.2Y-4.35
X4.2Y-4.65
X4.2Y-5.0
X4.2Y-5.25
X4.2Y-5.9
X4.25Y-3.55
X4.25Y-3.9
X4.25Y-4.0
X4.3Y-2.35
X4.3Y-3.55
X4.3Y-3.6
X4.35Y-2.7
X4.35Y-3.05
X4.35Y-3.6
X4.3875Y-3.3875
X4.4Y-2.4
X4.4Y-4.95
X4.4Y-5.15
X4.45Y-2.35
X4.45Y-3.4
X4.45Y-3.65
X4.45Y-3.95
X4.45Y-4.25
X4.45Y-4.65
X4.45Y-5.1
X4.5Y-2.45
X4.5Y-2.7
X4.5Y-3.05
X4.5Y-3.95
X4.5Y-5.2
X4.5Y-5.4
X4.5393Y-4.1107
X4.55Y-2.45
X4.55Y-3.45
X4.55Y-3.55
X4.55Y-4.15
X4.55Y-5.05
X4.55Y-5.75
X4.6Y-2.45
X4.6Y-3.55
X4.6Y-3.95
X4.6Y-4.2
X4.6Y-4.75
X4.6Y-5.0
X4.65Y-2.75
X4.65Y-3.1
X4.65Y-3.4
X4.65Y-4.4
X4.65Y-4.75
X4.65Y-4.95
X4.65Y-5.35
X4.7Y-3.05
X4.7Y-4.5
X4.7Y-4.75
X4.7Y-5.55
X4.75Y-3.35
X4.75Y-3.95
X4.75Y-4.65
X4.75Y-4.85
X4.75Y-4.95
X4.75Y-5.45
X4.8Y-2.95
X4.8Y-3.9
X4.8Y-5.15
X4.8Y-5.3
X4.85Y-3.1
X4.85Y-3.9
X4.85Y-4.1
X4.9Y-2.75
X4.9Y-3.35
X4.9Y-5.75
X4.95Y-3.55
X5.0Y-2.5
X5.0Y-2.7
X5.0Y-3.65
X5.0Y-4.8
X5.0Y-5.25
X5.0Y-5.6
X5.05Y-3.65
X5.05Y-4.85
X5.05Y-5.9
X5.05Y-5.9
X5.1Y-2.45
X5.1Y-2.7
X5.1Y-3.45
X5.15Y-4.0
X5.15Y-4.1
X5.15Y-5.8
X5.2Y-2.4
X5.2Y-3.1
X5.2Y-4.9
X5.2Y-5.35
X5.2Y-5.45
X5.25Y-3.1
X5.25Y-3.65
X5.25Y-5.0
X5.3Y-2.8
X5.3Y-3.4
X5.3Y-3.65
X5.3Y-3.75
X5.3Y-5.25
X5.3Y-5.3
X5.35Y-3.0
X5.35Y-4.65
X5.35Y-4.9
X5.35Y-5.7
X5.35Y-5.8
X5.4Y-3.1
X5.4Y-3.35
X5.4Y-3.55
X5.4Y-3.65
X5.4Y-3.95
X5.4Y-4.75
X5.4Y-5.0
X5.4461Y-3.1039
X5.45Y-5.35
X5.5Y-3.05
X5.5Y-3.8
X5.5Y-3.9
X5.5Y-4.15
X5.55Y-2.45
X5.6Y-2.4
X5.6Y-2.8
X5.6Y-2.9
X5.6Y-3.0
X5.6Y-3.55
X5.6Y-3.8
X5.6Y-5.5
X5.65Y-2.75
X5.65Y-3.9
X5.65Y-4.7
X5.65Y-4.8
X5.65Y-4.95
X5.65Y-5.15
X5.65Y-5.45
X5.65Y-5.75
X5.7Y-2.5
X5.7Y-2.7
X5.7Y-3.0
X5.7Y-3.05
X5.7Y-3.1
X5.7Y-3.35
X5.7Y-3.95
X5.7Y-4.45
X5.7Y-5.15
X5.8Y-4.1
X5.8Y-5.9
X5.9Y-2.9
X5.9Y-3.25
X5.9Y-3.4
X5.9Y-4.5
X5.95Y-2.35
X5.95Y-2.6
X5.95Y-3.0
X5.95Y-3.75
X5.95Y-3.8
X5.95Y-3.9
X5.95Y-4.4
X5.95Y-4.85
X5.95Y-5.5
X6.0Y-2.9
X6.0Y-3.35
X6.0Y-4.3
X6.0Y-4.7
X6.0Y-5.4
X6.0Y-5.75
X6.1Y-3.2
X6.2Y-4.35
X6.2Y-5.1
X6.2Y-5.2
X6.25Y-2.4
X6.25Y-2.5
X6.25Y-3.35
X6.25Y-3.65
X6.25Y-4.15
X6.25Y-4.4
X6.3Y-3.0
X6.3Y-3.85
X6.3Y-4.25
X6.3Y-4.6
X6.3Y-5.15
X6.3Y-5.45
X6.35Y-2.9
X6.35Y-3.25
X6.4Y-3.15
X6.4Y-3.95
X6.4Y-4.8
X6.4Y-5.1
X6.45Y-3.35
X6.45Y-4.1
X6.45Y-4.25
X6.45Y-4.35
X6.45Y-5.85
X6.5Y-3.45
X6.5Y-3.85
X6.5Y-4.0
X6.5Y-4.6
X6.5Y-4.65
X6.5Y-4.85
X6.5Y-5.05
X6.5Y-5.3
X6.5Y-5.55
X6.5Y-5.8
X6.6Y-4.05
X6.6Y-4.95
X6.6Y-5.9
X6.7Y-4.1
X6.7Y-4.5
X6.7Y-4.55
X6.7Y-5.45
X6.75Y-2.85
X6.75Y-3.4
X6.75Y-3.5
X6.75Y-3.55
X6.75Y-3.65
X6.75Y-3.85
X6.75Y-4.7
X6.75Y-4.85
X6.75Y-5.25
X6.8Y-3.05
X6.8Y-3.75
X6.8Y-3.95
X6.8Y-4.05
X6.8Y-4.35
X6.8Y-4.95
X7.0Y-3.35
X7.0Y-4.0
X7.0Y-4.15
X7.0Y-4.25
X7.0Y-4.8
X7.0Y-5.4
X7.05Y-2.45
X7.05Y-2.85
X7.05Y-3.35
X7.05Y-4.85
X7.1Y-2.65
X7.1Y-3.45
X7.1Y-4.95
X7.1Y-5.9
X7.15Y-5.1
X7.2Y-4.15
X7.2Y-5.3
X7.2Y-5.4
X7.25Y-3.95
X7.25Y-5.3
X7.25Y-5.65
X7.25Y-5.8
X7.3Y-4.15
X7.3Y-4.45
X7.3Y-5.55
X7.35Y-5.0
X7.4Y-5.05
X7.5Y-2.95
X7.5Y-4.55
X7.5Y-5.7
X7.55Y-4.45
X7.55Y-4.65
X7.55Y-5.6
X7.6Y-4.35
X7.6Y-5.3
X7.6Y-5.4
X7.65Y-2.35
X7.65Y-4.95
X7.65Y-5.15
X7.8Y-2.4
X7.85Y-2.55
X7.85Y-5.4
X7.9Y-5.3
X7.95Y-3.45
X8.0Y-2.55
X8.05Y-4.0
X8.05Y-4.25
X8.05Y-4.55
X8.05Y-4.75
X8.05Y-4.95
T3
X1.9921Y-2.772
X1.9921Y-2.8705
X1.9921Y-2.9689
X1.9921Y-3.0673
X1.9921Y-3.1657
X1.9921Y-3.2642
X1.9921Y-3.3626
X1.9921Y-3.461
X1.9921Y-3.5594
X1.9921Y-3.6579
X1.9921Y-3.7563
X1.9921Y-3.8547
X1.9921Y-3.9531
X1.9921Y-4.0516
X1.9921Y-4.15
X1.9921Y-4.2484
X1.9921Y-4.3469
X1.9921Y-4.4453
X1.9921Y-4.5437
X1.9921Y-4.6421
X1.9921Y-4.7406
X1.9921Y-4.839
X1.9921Y-4.9374
X1.9921Y-5.0358
X1.9921Y-5.1343
X1.9921Y-5.2327
X1.9921Y-5.3311
X1.9921Y-5.4295
X1.9921Y-5.528
X2.189Y-2.772
X2.189Y-2.8705
X2.189Y-2.9689
X2.189Y-3.0673
X2.189Y-3.1657
X2.189Y-3.2642
X2.189Y-3.3626
X2.189Y-3.461
X2.189Y-3.5594
X2.189Y-3.6579
X2.189Y-3.7563
X2.189Y-3.8547
X2.189Y-3.9531
X2.189Y-4.0516
X2.189Y-4.15
X2.189Y-4.2484
X2.189Y-4.3469
X2.189Y-4.4453
X2.189Y-4.5437
X2.189Y-4.6421
X2.189Y-4.7406
X2.189Y-4.839
X2.189Y-4.9374
X2.189Y-5.0358
X2.189Y-5.1343
X2.189Y-5.2327
X2.189Y-5.3311
X2.189Y-5.4295
X2.189Y-5.528
X2.35Y-2.5
X2.4Y-3.6016
X2.4Y-3.7
X2.4484Y-2.5
X2.5Y-5.15
X2.5Y-5.25
X2.5Y-5.35
X2.5Y-5.45
X2.5Y-5.55
X2.5Y-5.65
X2.5Y-5.75
X2.55Y-2.7
X2.55Y-2.8
X2.55Y-2.9
X2.55Y-3.0
X2.55Y-3.1
X2.55Y-3.2
X2.55Y-3.3
X2.55Y-3.4
X2.55Y-3.5
X2.55Y-3.6
X2.55Y-3.8
X2.55Y-3.9
X2.55Y-4.0
X2.55Y-4.1
X2.55Y-4.2
X2.55Y-4.3
X2.55Y-4.4
X2.8Y-5.15
X2.8Y-5.25
X2.8Y-5.35
X2.8Y-5.45
X2.8Y-5.55
X2.8Y-5.65
X2.8Y-5.75
X2.85Y-2.7
X2.85Y-2.8
X2.85Y-2.9
X2.85Y-3.0
X2.85Y-3.1
X2.85Y-3.2
X2.85Y-3.3
X2.85Y-3.4
X2.85Y-3.5
X2.85Y-3.6
X2.85Y-3.8
X2.85Y-3.9
X2.85Y-4.0
X2.85Y-4.1
X2.85Y-4.2
X2.85Y-4.3
X2.85Y-4.4
X3.05Y-4.9
X3.05Y-5.3
X3.05Y-5.55
X3.05Y-5.7421
X3.2Y-2.6
X3.2Y-2.9
X3.3Y-2.6
X3.3Y-2.9
X3.3Y-3.3
X3.3Y-3.4
X3.3Y-3.5
X3.3Y-3.6
X3.3Y-3.7
X3.3Y-3.8
X3.3Y-3.9
X3.3Y-4.2
X3.3Y-4.3
X3.3Y-4.4
X3.3Y-4.5
X3.3Y-4.6
X3.3Y-4.7
X3.3Y-4.8
X3.3Y-5.1
X3.3Y-5.2
X3.3Y-5.3
X3.3Y-5.4
X3.3Y-5.5
X3.3Y-5.6
X3.3Y-5.7
X3.3Y-5.8
X3.4Y-2.6
X3.4Y-2.9
X3.5Y-2.6
X3.5Y-2.9
X3.5016Y-3.15
X3.6Y-2.6
X3.6Y-2.9
X3.6Y-3.15
X3.6Y-3.3
X3.6Y-3.4
X3.6Y-3.5
X3.6Y-3.6
X3.6Y-3.7
X3.6Y-3.8
X3.6Y-3.9
X3.6Y-4.2
X3.6Y-4.3
X3.6Y-4.4
X3.6Y-4.5
X3.6Y-4.6
X3.6Y-4.7
X3.6Y-4.8
X3.6Y-5.1
X3.6Y-5.2
X3.6Y-5.3
X3.6Y-5.4
X3.6Y-5.5
X3.6Y-5.6
X3.6Y-5.7
X3.6Y-5.8
X3.7Y-2.6
X3.7Y-2.9
X3.8Y-2.6
X3.8Y-2.9
X4.0Y-4.15
X4.0Y-4.25
X4.0Y-4.35
X4.0Y-4.45
X4.0Y-4.55
X4.0Y-4.65
X4.0Y-4.75
X4.0Y-4.85
X4.0Y-5.05
X4.0Y-5.15
X4.0Y-5.25
X4.0Y-5.35
X4.0Y-5.45
X4.0Y-5.55
X4.0Y-5.65
X4.0Y-5.75
X4.05Y-3.2
X4.05Y-3.8
X4.1Y-2.6
X4.1Y-2.9
X4.15Y-3.2
X4.15Y-3.8
X4.2Y-2.6
X4.2Y-2.9
X4.25Y-3.2
X4.25Y-3.8
X4.3Y-2.6
X4.3Y-2.9
X4.3Y-4.15
X4.3Y-4.25
X4.3Y-4.35
X4.3Y-4.45
X4.3Y-4.55
X4.3Y-4.65
X4.3Y-4.75
X4.3Y-4.85
X4.3Y-5.05
X4.3Y-5.15
X4.3Y-5.25
X4.3Y-5.35
X4.3Y-5.45
X4.3Y-5.55
X4.3Y-5.65
X4.3Y-5.75
X4.35Y-3.2
X4.35Y-3.8
X4.4Y-2.6
X4.4Y-2.9
X4.45Y-3.2
X4.45Y-3.8
X4.5Y-2.6
X4.5Y-2.9
X4.55Y-3.2
X4.55Y-3.8
X4.6Y-2.6
X4.6Y-2.9
X4.6Y-4.1
X4.6016Y-5.8
X4.65Y-3.2
X4.65Y-3.8
X4.6984Y-4.1
X4.7Y-2.6
X4.7Y-2.9
X4.7Y-5.8
X4.75Y-3.2
X4.75Y-3.8
X4.85Y-3.2
X4.85Y-3.8
X4.9Y-2.6
X4.9Y-2.9
X4.9Y-4.55
X4.9Y-4.65
X4.9Y-4.75
X4.9Y-4.85
X4.9Y-4.95
X4.9Y-5.05
X4.9Y-5.15
X4.9Y-5.25
X4.9Y-5.35
X4.9Y-5.45
X4.9Y-5.55
X4.9Y-5.65
X4.95Y-3.2
X4.95Y-3.8
X5.0Y-2.6
X5.0Y-2.9
X5.05Y-3.2
X5.05Y-3.8
X5.1Y-2.6
X5.1Y-2.9
X5.15Y-3.2
X5.15Y-3.8
X5.2Y-2.6
X5.2Y-2.9
X5.3Y-2.6
X5.3Y-2.9
X5.4Y-2.6
X5.4Y-2.9
X5.4Y-3.2
X5.4984Y-3.2
X5.5Y-2.6
X5.5Y-2.9
X5.5Y-4.55
X5.5Y-4.65
X5.5Y-4.75
X5.5Y-4.85
X5.5Y-4.95
X5.5Y-5.05
X5.5Y-5.15
X5.5Y-5.25
X5.5Y-5.35
X5.5Y-5.45
X5.5Y-5.55
X5.5Y-5.65
X5.8Y-2.5
X5.8Y-2.6
X5.8Y-2.7
X5.8Y-2.8
X5.8Y-2.9
X5.8Y-3.0
X5.8Y-3.1
X5.8Y-3.35
X5.8Y-3.45
X5.8Y-3.55
X5.8Y-3.65
X5.8Y-3.75
X5.8Y-3.85
X5.8Y-3.95
X5.8Y-4.2
X5.8Y-4.3
X5.8Y-4.4
X5.8Y-4.5
X5.8Y-4.6
X5.8Y-4.7
X5.8Y-4.8
X5.8Y-5.05
X5.8Y-5.15
X5.8Y-5.25
X5.8Y-5.35
X5.8Y-5.45
X5.8Y-5.55
X5.8Y-5.65
X5.8Y-5.75
X6.1Y-2.5
X6.1Y-2.6
X6.1Y-2.7
X6.1Y-2.8
X6.1Y-2.9
X6.1Y-3.0
X6.1Y-3.1
X6.1Y-3.35
X6.1Y-3.45
X6.1Y-3.55
X6.1Y-3.65
X6.1Y-3.75
X6.1Y-3.85
X6.1Y-3.95
X6.1Y-4.2
X6.1Y-4.3
X6.1Y-4.4
X6.1Y-4.5
X6.1Y-4.6
X6.1Y-4.7
X6.1Y-4.8
X6.1Y-5.05
X6.1Y-5.15
X6.1Y-5.25
X6.1Y-5.35
X6.1Y-5.45
X6.1Y-5.55
X6.1Y-5.65
X6.1Y-5.75
X6.35Y-4.05
X6.35Y-4.1484
X6.35Y-4.95
X6.35Y-5.0484
X6.4Y-2.9
X6.4Y-2.9984
X6.6Y-2.45
X6.6Y-2.55
X6.6Y-2.65
X6.6Y-2.75
X6.6Y-2.85
X6.6Y-2.95
X6.6Y-3.05
X6.6Y-3.15
X6.6Y-3.35
X6.6Y-3.45
X6.6Y-3.55
X6.6Y-3.65
X6.6Y-3.75
X6.6Y-3.85
X6.6Y-3.95
X6.6Y-4.15
X6.6Y-4.25
X6.6Y-4.35
X6.6Y-4.45
X6.6Y-4.55
X6.6Y-4.65
X6.6Y-4.75
X6.6Y-4.85
X6.6Y-5.05
X6.6Y-5.15
X6.6Y-5.25
X6.6Y-5.35
X6.6Y-5.45
X6.6Y-5.55
X6.6Y-5.65
X6.6Y-5.75
X6.9Y-2.45
X6.9Y-2.55
X6.9Y-2.65
X6.9Y-2.75
X6.9Y-2.85
X6.9Y-2.95
X6.9Y-3.05
X6.9Y-3.15
X6.9Y-3.35
X6.9Y-3.45
X6.9Y-3.55
X6.9Y-3.65
X6.9Y-3.75
X6.9Y-3.85
X6.9Y-3.95
X6.9Y-4.15
X6.9Y-4.25
X6.9Y-4.35
X6.9Y-4.45
X6.9Y-4.55
X6.9Y-4.65
X6.9Y-4.75
X6.9Y-4.85
X6.9Y-5.05
X6.9Y-5.15
X6.9Y-5.25
X6.9Y-5.35
X6.9Y-5.45
X6.9Y-5.55
X6.9Y-5.65
X6.9Y-5.75
X7.1Y-4.15
X7.1Y-4.25
X7.1Y-4.35
X7.1Y-4.45
X7.1Y-4.55
X7.1Y-4.65
X7.1Y-4.75
X7.1Y-5.2
X7.1Y-5.3
X7.1Y-5.4
X7.1Y-5.5
X7.1Y-5.6
X7.1Y-5.7
X7.1Y-5.8
X7.15Y-2.55
X7.15Y-2.95
X7.3Y-2.55
X7.3Y-2.95
X7.3016Y-4.0
X7.4Y-4.0
X7.4Y-4.15
X7.4Y-4.25
X7.4Y-4.35
X7.4Y-4.45
X7.4Y-4.55
X7.4Y-4.65
X7.4Y-4.75
X7.4Y-5.2
X7.4Y-5.3
X7.4Y-5.4
X7.4Y-5.5
X7.4Y-5.6
X7.4Y-5.7
X7.4Y-5.8
X7.4516Y-2.55
X7.55Y-2.55
X7.7Y-5.2
X7.7Y-5.3
X7.7Y-5.4
X7.7Y-5.5
X7.7Y-5.6
X7.7Y-5.7
X7.7Y-5.8
X8.0Y-5.2
X8.0Y-5.3
X8.0Y-5.4
X8.0Y-5.5
X8.0Y-5.6
X8.0Y-5.7
X8.0Y-5.8
T4
X1.709Y-2.7
X1.709Y-2.8
X1.709Y-2.9
X1.709Y-3.0
X1.709Y-3.1
X1.709Y-3.2
X1.709Y-3.3
X1.709Y-3.4
X1.709Y-3.5
X1.709Y-3.6
X1.709Y-3.7
X1.709Y-3.8
X1.709Y-3.9
X1.709Y-4.0
X1.709Y-4.1
X1.709Y-4.2
X1.709Y-4.3
X1.709Y-4.4
X1.709Y-4.5
X1.709Y-4.6
X1.709Y-4.7
X1.709Y-4.8
X1.709Y-4.9
X1.709Y-5.0
X1.709Y-5.1
X1.709Y-5.2
X1.709Y-5.3
X1.709Y-5.4
X1.709Y-5.5
X1.909Y-2.7
X1.909Y-2.8
X1.909Y-2.9
X1.909Y-3.0
X1.909Y-3.1
X1.909Y-3.2
X1.909Y-3.3
X1.909Y-3.4
X1.909Y-3.5
X1.909Y-3.6
X1.909Y-3.7
X1.909Y-3.8
X1.909Y-3.9
X1.909Y-4.0
X1.909Y-4.1
X1.909Y-4.2
X1.909Y-4.3
X1.909Y-4.4
X1.909Y-4.5
X1.909Y-4.6
X1.909Y-4.7
X1.909Y-4.8
X1.909Y-4.9
X1.909Y-5.0
X1.909Y-5.1
X1.909Y-5.2
X1.909Y-5.3
X1.909Y-5.4
X1.909Y-5.5
X2.1Y-5.75
X2.2Y-5.75
X2.3Y-2.65
X2.3Y-2.75
X2.3Y-2.85
X2.3Y-5.75
X8.1Y-2.45
X8.1Y-2.55
X8.1Y-2.65
T5
X7.3Y-3.1
X7.3Y-3.5
X7.5Y-3.1
X7.5Y-3.5
T6
X7.8516Y-4.2
X7.8516Y-4.75
T7
X7.8Y-2.85
X7.8Y-3.4406
X7.8Y-3.6374
X7.8Y-3.8343
X8.0953Y-2.85
X8.0953Y-3.4406
X8.0953Y-3.6374
X8.0953Y-3.8343
T8
X1.609Y-2.4
X1.609Y-5.9
X1.6969Y-2.526
X1.6969Y-5.774
T2
G00X7.8181Y-3.9835
M15
G01X7.7669Y-3.9835
M16
G05
G00X7.8181Y-4.4165
M15
G01X7.7669Y-4.4165
M16
G05
G00X7.8181Y-4.5335
M15
G01X7.7669Y-4.5335
M16
G05
G00X7.8181Y-4.9665
M15
G01X7.7669Y-4.9665
M16
G05
G00X8.1469Y-4.2256
M15
G01X8.1469Y-4.1744
M16
G05
G00X8.1469Y-4.7756
M15
G01X8.1469Y-4.7244
M16
G05
T0
M30
